M48
; DRILL file {KiCad 8.0.6} date 2025-01-24T11:54:11-0800
; FORMAT={-:-/ absolute / inch / decimal}
; #@! TF.CreationDate,2025-01-24T11:54:11-08:00
; #@! TF.GenerationSoftware,Kicad,Pcbnew,8.0.6
; #@! TF.FileFunction,Plated,1,2,PTH
FMAT,2
INCH
; #@! TA.AperFunction,Plated,PTH,ComponentDrill
T1C0.0472
; #@! TA.AperFunction,Plated,PTH,ComponentDrill
T2C0.0984
; #@! TA.AperFunction,Plated,PTH,ComponentDrill
T3C0.1260
%
G90
G05
T1
X2.35Y-1.5
X2.35Y-2.1
X2.35Y-2.7
X2.35Y-3.3
X2.35Y-3.9
X2.35Y-4.5
X2.35Y-5.1
X3.2358Y-1.5
X3.2358Y-2.1
X3.2358Y-2.7
X3.2358Y-3.3
X3.2358Y-3.9
X3.2358Y-4.5
X3.2358Y-5.1
X3.7303Y-3.9
X3.7303Y-4.5
X3.7303Y-5.1
X4.6161Y-3.9
X4.6161Y-4.5
X4.6161Y-5.1
T2
X2.45Y-5.6
X3.15Y-5.6
X3.8189Y-5.6102
X4.5276Y-5.6102
T3
X2.0Y-1.05
X2.0Y-5.95
X5.0Y-1.05
X5.0Y-5.95
M30
