%TF.GenerationSoftware,KiCad,Pcbnew,9.0.1*%
%TF.CreationDate,2025-04-03T12:43:54-07:00*%
%TF.ProjectId,Final_Board-v3B,46696e61-6c5f-4426-9f61-72642d763342,rev?*%
%TF.SameCoordinates,Original*%
%TF.FileFunction,Legend,Top*%
%TF.FilePolarity,Positive*%
%FSLAX46Y46*%
G04 Gerber Fmt 4.6, Leading zero omitted, Abs format (unit mm)*
G04 Created by KiCad (PCBNEW 9.0.1) date 2025-04-03 12:43:54*
%MOMM*%
%LPD*%
G01*
G04 APERTURE LIST*
%ADD10C,0.150000*%
%ADD11C,0.127000*%
%ADD12C,0.300000*%
%ADD13C,0.120000*%
%ADD14C,0.100000*%
%ADD15C,0.200000*%
G04 APERTURE END LIST*
D10*
X129319524Y-52949009D02*
X129652857Y-52949009D01*
X129795714Y-53472819D02*
X129319524Y-53472819D01*
X129319524Y-53472819D02*
X129319524Y-52472819D01*
X129319524Y-52472819D02*
X129795714Y-52472819D01*
X130129048Y-52472819D02*
X130748095Y-52472819D01*
X130748095Y-52472819D02*
X130414762Y-52853771D01*
X130414762Y-52853771D02*
X130557619Y-52853771D01*
X130557619Y-52853771D02*
X130652857Y-52901390D01*
X130652857Y-52901390D02*
X130700476Y-52949009D01*
X130700476Y-52949009D02*
X130748095Y-53044247D01*
X130748095Y-53044247D02*
X130748095Y-53282342D01*
X130748095Y-53282342D02*
X130700476Y-53377580D01*
X130700476Y-53377580D02*
X130652857Y-53425200D01*
X130652857Y-53425200D02*
X130557619Y-53472819D01*
X130557619Y-53472819D02*
X130271905Y-53472819D01*
X130271905Y-53472819D02*
X130176667Y-53425200D01*
X130176667Y-53425200D02*
X130129048Y-53377580D01*
X114509524Y-52949009D02*
X114842857Y-52949009D01*
X114985714Y-53472819D02*
X114509524Y-53472819D01*
X114509524Y-53472819D02*
X114509524Y-52472819D01*
X114509524Y-52472819D02*
X114985714Y-52472819D01*
X115938095Y-53472819D02*
X115366667Y-53472819D01*
X115652381Y-53472819D02*
X115652381Y-52472819D01*
X115652381Y-52472819D02*
X115557143Y-52615676D01*
X115557143Y-52615676D02*
X115461905Y-52710914D01*
X115461905Y-52710914D02*
X115366667Y-52758533D01*
X129309524Y-129612009D02*
X129642857Y-129612009D01*
X129785714Y-130135819D02*
X129309524Y-130135819D01*
X129309524Y-130135819D02*
X129309524Y-129135819D01*
X129309524Y-129135819D02*
X129785714Y-129135819D01*
X130642857Y-129135819D02*
X130452381Y-129135819D01*
X130452381Y-129135819D02*
X130357143Y-129183438D01*
X130357143Y-129183438D02*
X130309524Y-129231057D01*
X130309524Y-129231057D02*
X130214286Y-129373914D01*
X130214286Y-129373914D02*
X130166667Y-129564390D01*
X130166667Y-129564390D02*
X130166667Y-129945342D01*
X130166667Y-129945342D02*
X130214286Y-130040580D01*
X130214286Y-130040580D02*
X130261905Y-130088200D01*
X130261905Y-130088200D02*
X130357143Y-130135819D01*
X130357143Y-130135819D02*
X130547619Y-130135819D01*
X130547619Y-130135819D02*
X130642857Y-130088200D01*
X130642857Y-130088200D02*
X130690476Y-130040580D01*
X130690476Y-130040580D02*
X130738095Y-129945342D01*
X130738095Y-129945342D02*
X130738095Y-129707247D01*
X130738095Y-129707247D02*
X130690476Y-129612009D01*
X130690476Y-129612009D02*
X130642857Y-129564390D01*
X130642857Y-129564390D02*
X130547619Y-129516771D01*
X130547619Y-129516771D02*
X130357143Y-129516771D01*
X130357143Y-129516771D02*
X130261905Y-129564390D01*
X130261905Y-129564390D02*
X130214286Y-129612009D01*
X130214286Y-129612009D02*
X130166667Y-129707247D01*
X121789524Y-129612009D02*
X122122857Y-129612009D01*
X122265714Y-130135819D02*
X121789524Y-130135819D01*
X121789524Y-130135819D02*
X121789524Y-129135819D01*
X121789524Y-129135819D02*
X122265714Y-129135819D01*
X123170476Y-129135819D02*
X122694286Y-129135819D01*
X122694286Y-129135819D02*
X122646667Y-129612009D01*
X122646667Y-129612009D02*
X122694286Y-129564390D01*
X122694286Y-129564390D02*
X122789524Y-129516771D01*
X122789524Y-129516771D02*
X123027619Y-129516771D01*
X123027619Y-129516771D02*
X123122857Y-129564390D01*
X123122857Y-129564390D02*
X123170476Y-129612009D01*
X123170476Y-129612009D02*
X123218095Y-129707247D01*
X123218095Y-129707247D02*
X123218095Y-129945342D01*
X123218095Y-129945342D02*
X123170476Y-130040580D01*
X123170476Y-130040580D02*
X123122857Y-130088200D01*
X123122857Y-130088200D02*
X123027619Y-130135819D01*
X123027619Y-130135819D02*
X122789524Y-130135819D01*
X122789524Y-130135819D02*
X122694286Y-130088200D01*
X122694286Y-130088200D02*
X122646667Y-130040580D01*
X114309524Y-129612009D02*
X114642857Y-129612009D01*
X114785714Y-130135819D02*
X114309524Y-130135819D01*
X114309524Y-130135819D02*
X114309524Y-129135819D01*
X114309524Y-129135819D02*
X114785714Y-129135819D01*
X115642857Y-129469152D02*
X115642857Y-130135819D01*
X115404762Y-129088200D02*
X115166667Y-129802485D01*
X115166667Y-129802485D02*
X115785714Y-129802485D01*
X121789524Y-52949009D02*
X122122857Y-52949009D01*
X122265714Y-53472819D02*
X121789524Y-53472819D01*
X121789524Y-53472819D02*
X121789524Y-52472819D01*
X121789524Y-52472819D02*
X122265714Y-52472819D01*
X122646667Y-52568057D02*
X122694286Y-52520438D01*
X122694286Y-52520438D02*
X122789524Y-52472819D01*
X122789524Y-52472819D02*
X123027619Y-52472819D01*
X123027619Y-52472819D02*
X123122857Y-52520438D01*
X123122857Y-52520438D02*
X123170476Y-52568057D01*
X123170476Y-52568057D02*
X123218095Y-52663295D01*
X123218095Y-52663295D02*
X123218095Y-52758533D01*
X123218095Y-52758533D02*
X123170476Y-52901390D01*
X123170476Y-52901390D02*
X122599048Y-53472819D01*
X122599048Y-53472819D02*
X123218095Y-53472819D01*
X173897095Y-136534819D02*
X173897095Y-135534819D01*
X173897095Y-136011009D02*
X174468523Y-136011009D01*
X174468523Y-136534819D02*
X174468523Y-135534819D01*
X174849476Y-135534819D02*
X175468523Y-135534819D01*
X175468523Y-135534819D02*
X175135190Y-135915771D01*
X175135190Y-135915771D02*
X175278047Y-135915771D01*
X175278047Y-135915771D02*
X175373285Y-135963390D01*
X175373285Y-135963390D02*
X175420904Y-136011009D01*
X175420904Y-136011009D02*
X175468523Y-136106247D01*
X175468523Y-136106247D02*
X175468523Y-136344342D01*
X175468523Y-136344342D02*
X175420904Y-136439580D01*
X175420904Y-136439580D02*
X175373285Y-136487200D01*
X175373285Y-136487200D02*
X175278047Y-136534819D01*
X175278047Y-136534819D02*
X174992333Y-136534819D01*
X174992333Y-136534819D02*
X174897095Y-136487200D01*
X174897095Y-136487200D02*
X174849476Y-136439580D01*
X105918095Y-136304819D02*
X105918095Y-135304819D01*
X105918095Y-135781009D02*
X106489523Y-135781009D01*
X106489523Y-136304819D02*
X106489523Y-135304819D01*
X107394285Y-135638152D02*
X107394285Y-136304819D01*
X107156190Y-135257200D02*
X106918095Y-135971485D01*
X106918095Y-135971485D02*
X107537142Y-135971485D01*
X173841095Y-53072819D02*
X173841095Y-52072819D01*
X173841095Y-52549009D02*
X174412523Y-52549009D01*
X174412523Y-53072819D02*
X174412523Y-52072819D01*
X174841095Y-52168057D02*
X174888714Y-52120438D01*
X174888714Y-52120438D02*
X174983952Y-52072819D01*
X174983952Y-52072819D02*
X175222047Y-52072819D01*
X175222047Y-52072819D02*
X175317285Y-52120438D01*
X175317285Y-52120438D02*
X175364904Y-52168057D01*
X175364904Y-52168057D02*
X175412523Y-52263295D01*
X175412523Y-52263295D02*
X175412523Y-52358533D01*
X175412523Y-52358533D02*
X175364904Y-52501390D01*
X175364904Y-52501390D02*
X174793476Y-53072819D01*
X174793476Y-53072819D02*
X175412523Y-53072819D01*
X105897095Y-53072819D02*
X105897095Y-52072819D01*
X105897095Y-52549009D02*
X106468523Y-52549009D01*
X106468523Y-53072819D02*
X106468523Y-52072819D01*
X107468523Y-53072819D02*
X106897095Y-53072819D01*
X107182809Y-53072819D02*
X107182809Y-52072819D01*
X107182809Y-52072819D02*
X107087571Y-52215676D01*
X107087571Y-52215676D02*
X106992333Y-52310914D01*
X106992333Y-52310914D02*
X106897095Y-52358533D01*
X160038095Y-62054819D02*
X160609523Y-62054819D01*
X160323809Y-63054819D02*
X160323809Y-62054819D01*
X160895238Y-62150057D02*
X160942857Y-62102438D01*
X160942857Y-62102438D02*
X161038095Y-62054819D01*
X161038095Y-62054819D02*
X161276190Y-62054819D01*
X161276190Y-62054819D02*
X161371428Y-62102438D01*
X161371428Y-62102438D02*
X161419047Y-62150057D01*
X161419047Y-62150057D02*
X161466666Y-62245295D01*
X161466666Y-62245295D02*
X161466666Y-62340533D01*
X161466666Y-62340533D02*
X161419047Y-62483390D01*
X161419047Y-62483390D02*
X160847619Y-63054819D01*
X160847619Y-63054819D02*
X161466666Y-63054819D01*
X160504819Y-94015238D02*
X160028628Y-94348571D01*
X160504819Y-94586666D02*
X159504819Y-94586666D01*
X159504819Y-94586666D02*
X159504819Y-94205714D01*
X159504819Y-94205714D02*
X159552438Y-94110476D01*
X159552438Y-94110476D02*
X159600057Y-94062857D01*
X159600057Y-94062857D02*
X159695295Y-94015238D01*
X159695295Y-94015238D02*
X159838152Y-94015238D01*
X159838152Y-94015238D02*
X159933390Y-94062857D01*
X159933390Y-94062857D02*
X159981009Y-94110476D01*
X159981009Y-94110476D02*
X160028628Y-94205714D01*
X160028628Y-94205714D02*
X160028628Y-94586666D01*
X159504819Y-93729523D02*
X160504819Y-93396190D01*
X160504819Y-93396190D02*
X159504819Y-93062857D01*
X159600057Y-92777142D02*
X159552438Y-92729523D01*
X159552438Y-92729523D02*
X159504819Y-92634285D01*
X159504819Y-92634285D02*
X159504819Y-92396190D01*
X159504819Y-92396190D02*
X159552438Y-92300952D01*
X159552438Y-92300952D02*
X159600057Y-92253333D01*
X159600057Y-92253333D02*
X159695295Y-92205714D01*
X159695295Y-92205714D02*
X159790533Y-92205714D01*
X159790533Y-92205714D02*
X159933390Y-92253333D01*
X159933390Y-92253333D02*
X160504819Y-92824761D01*
X160504819Y-92824761D02*
X160504819Y-92205714D01*
X153084819Y-94115238D02*
X152608628Y-94448571D01*
X153084819Y-94686666D02*
X152084819Y-94686666D01*
X152084819Y-94686666D02*
X152084819Y-94305714D01*
X152084819Y-94305714D02*
X152132438Y-94210476D01*
X152132438Y-94210476D02*
X152180057Y-94162857D01*
X152180057Y-94162857D02*
X152275295Y-94115238D01*
X152275295Y-94115238D02*
X152418152Y-94115238D01*
X152418152Y-94115238D02*
X152513390Y-94162857D01*
X152513390Y-94162857D02*
X152561009Y-94210476D01*
X152561009Y-94210476D02*
X152608628Y-94305714D01*
X152608628Y-94305714D02*
X152608628Y-94686666D01*
X152084819Y-93829523D02*
X153084819Y-93496190D01*
X153084819Y-93496190D02*
X152084819Y-93162857D01*
X153084819Y-92305714D02*
X153084819Y-92877142D01*
X153084819Y-92591428D02*
X152084819Y-92591428D01*
X152084819Y-92591428D02*
X152227676Y-92686666D01*
X152227676Y-92686666D02*
X152322914Y-92781904D01*
X152322914Y-92781904D02*
X152370533Y-92877142D01*
X147903333Y-124099580D02*
X147855714Y-124147200D01*
X147855714Y-124147200D02*
X147712857Y-124194819D01*
X147712857Y-124194819D02*
X147617619Y-124194819D01*
X147617619Y-124194819D02*
X147474762Y-124147200D01*
X147474762Y-124147200D02*
X147379524Y-124051961D01*
X147379524Y-124051961D02*
X147331905Y-123956723D01*
X147331905Y-123956723D02*
X147284286Y-123766247D01*
X147284286Y-123766247D02*
X147284286Y-123623390D01*
X147284286Y-123623390D02*
X147331905Y-123432914D01*
X147331905Y-123432914D02*
X147379524Y-123337676D01*
X147379524Y-123337676D02*
X147474762Y-123242438D01*
X147474762Y-123242438D02*
X147617619Y-123194819D01*
X147617619Y-123194819D02*
X147712857Y-123194819D01*
X147712857Y-123194819D02*
X147855714Y-123242438D01*
X147855714Y-123242438D02*
X147903333Y-123290057D01*
X148760476Y-123528152D02*
X148760476Y-124194819D01*
X148522381Y-123147200D02*
X148284286Y-123861485D01*
X148284286Y-123861485D02*
X148903333Y-123861485D01*
X176633333Y-96939580D02*
X176585714Y-96987200D01*
X176585714Y-96987200D02*
X176442857Y-97034819D01*
X176442857Y-97034819D02*
X176347619Y-97034819D01*
X176347619Y-97034819D02*
X176204762Y-96987200D01*
X176204762Y-96987200D02*
X176109524Y-96891961D01*
X176109524Y-96891961D02*
X176061905Y-96796723D01*
X176061905Y-96796723D02*
X176014286Y-96606247D01*
X176014286Y-96606247D02*
X176014286Y-96463390D01*
X176014286Y-96463390D02*
X176061905Y-96272914D01*
X176061905Y-96272914D02*
X176109524Y-96177676D01*
X176109524Y-96177676D02*
X176204762Y-96082438D01*
X176204762Y-96082438D02*
X176347619Y-96034819D01*
X176347619Y-96034819D02*
X176442857Y-96034819D01*
X176442857Y-96034819D02*
X176585714Y-96082438D01*
X176585714Y-96082438D02*
X176633333Y-96130057D01*
X176966667Y-96034819D02*
X177585714Y-96034819D01*
X177585714Y-96034819D02*
X177252381Y-96415771D01*
X177252381Y-96415771D02*
X177395238Y-96415771D01*
X177395238Y-96415771D02*
X177490476Y-96463390D01*
X177490476Y-96463390D02*
X177538095Y-96511009D01*
X177538095Y-96511009D02*
X177585714Y-96606247D01*
X177585714Y-96606247D02*
X177585714Y-96844342D01*
X177585714Y-96844342D02*
X177538095Y-96939580D01*
X177538095Y-96939580D02*
X177490476Y-96987200D01*
X177490476Y-96987200D02*
X177395238Y-97034819D01*
X177395238Y-97034819D02*
X177109524Y-97034819D01*
X177109524Y-97034819D02*
X177014286Y-96987200D01*
X177014286Y-96987200D02*
X176966667Y-96939580D01*
X156148095Y-123774819D02*
X156148095Y-124584342D01*
X156148095Y-124584342D02*
X156195714Y-124679580D01*
X156195714Y-124679580D02*
X156243333Y-124727200D01*
X156243333Y-124727200D02*
X156338571Y-124774819D01*
X156338571Y-124774819D02*
X156529047Y-124774819D01*
X156529047Y-124774819D02*
X156624285Y-124727200D01*
X156624285Y-124727200D02*
X156671904Y-124679580D01*
X156671904Y-124679580D02*
X156719523Y-124584342D01*
X156719523Y-124584342D02*
X156719523Y-123774819D01*
X157624285Y-124108152D02*
X157624285Y-124774819D01*
X157386190Y-123727200D02*
X157148095Y-124441485D01*
X157148095Y-124441485D02*
X157767142Y-124441485D01*
X145733333Y-73592319D02*
X145400000Y-73116128D01*
X145161905Y-73592319D02*
X145161905Y-72592319D01*
X145161905Y-72592319D02*
X145542857Y-72592319D01*
X145542857Y-72592319D02*
X145638095Y-72639938D01*
X145638095Y-72639938D02*
X145685714Y-72687557D01*
X145685714Y-72687557D02*
X145733333Y-72782795D01*
X145733333Y-72782795D02*
X145733333Y-72925652D01*
X145733333Y-72925652D02*
X145685714Y-73020890D01*
X145685714Y-73020890D02*
X145638095Y-73068509D01*
X145638095Y-73068509D02*
X145542857Y-73116128D01*
X145542857Y-73116128D02*
X145161905Y-73116128D01*
X146685714Y-73592319D02*
X146114286Y-73592319D01*
X146400000Y-73592319D02*
X146400000Y-72592319D01*
X146400000Y-72592319D02*
X146304762Y-72735176D01*
X146304762Y-72735176D02*
X146209524Y-72830414D01*
X146209524Y-72830414D02*
X146114286Y-72878033D01*
X102366666Y-117124819D02*
X102366666Y-117839104D01*
X102366666Y-117839104D02*
X102319047Y-117981961D01*
X102319047Y-117981961D02*
X102223809Y-118077200D01*
X102223809Y-118077200D02*
X102080952Y-118124819D01*
X102080952Y-118124819D02*
X101985714Y-118124819D01*
X103319047Y-117124819D02*
X102842857Y-117124819D01*
X102842857Y-117124819D02*
X102795238Y-117601009D01*
X102795238Y-117601009D02*
X102842857Y-117553390D01*
X102842857Y-117553390D02*
X102938095Y-117505771D01*
X102938095Y-117505771D02*
X103176190Y-117505771D01*
X103176190Y-117505771D02*
X103271428Y-117553390D01*
X103271428Y-117553390D02*
X103319047Y-117601009D01*
X103319047Y-117601009D02*
X103366666Y-117696247D01*
X103366666Y-117696247D02*
X103366666Y-117934342D01*
X103366666Y-117934342D02*
X103319047Y-118029580D01*
X103319047Y-118029580D02*
X103271428Y-118077200D01*
X103271428Y-118077200D02*
X103176190Y-118124819D01*
X103176190Y-118124819D02*
X102938095Y-118124819D01*
X102938095Y-118124819D02*
X102842857Y-118077200D01*
X102842857Y-118077200D02*
X102795238Y-118029580D01*
X175941905Y-84804819D02*
X175941905Y-83804819D01*
X175941905Y-83804819D02*
X176180000Y-83804819D01*
X176180000Y-83804819D02*
X176322857Y-83852438D01*
X176322857Y-83852438D02*
X176418095Y-83947676D01*
X176418095Y-83947676D02*
X176465714Y-84042914D01*
X176465714Y-84042914D02*
X176513333Y-84233390D01*
X176513333Y-84233390D02*
X176513333Y-84376247D01*
X176513333Y-84376247D02*
X176465714Y-84566723D01*
X176465714Y-84566723D02*
X176418095Y-84661961D01*
X176418095Y-84661961D02*
X176322857Y-84757200D01*
X176322857Y-84757200D02*
X176180000Y-84804819D01*
X176180000Y-84804819D02*
X175941905Y-84804819D01*
X176894286Y-83900057D02*
X176941905Y-83852438D01*
X176941905Y-83852438D02*
X177037143Y-83804819D01*
X177037143Y-83804819D02*
X177275238Y-83804819D01*
X177275238Y-83804819D02*
X177370476Y-83852438D01*
X177370476Y-83852438D02*
X177418095Y-83900057D01*
X177418095Y-83900057D02*
X177465714Y-83995295D01*
X177465714Y-83995295D02*
X177465714Y-84090533D01*
X177465714Y-84090533D02*
X177418095Y-84233390D01*
X177418095Y-84233390D02*
X176846667Y-84804819D01*
X176846667Y-84804819D02*
X177465714Y-84804819D01*
X145857142Y-126259580D02*
X145809523Y-126307200D01*
X145809523Y-126307200D02*
X145666666Y-126354819D01*
X145666666Y-126354819D02*
X145571428Y-126354819D01*
X145571428Y-126354819D02*
X145428571Y-126307200D01*
X145428571Y-126307200D02*
X145333333Y-126211961D01*
X145333333Y-126211961D02*
X145285714Y-126116723D01*
X145285714Y-126116723D02*
X145238095Y-125926247D01*
X145238095Y-125926247D02*
X145238095Y-125783390D01*
X145238095Y-125783390D02*
X145285714Y-125592914D01*
X145285714Y-125592914D02*
X145333333Y-125497676D01*
X145333333Y-125497676D02*
X145428571Y-125402438D01*
X145428571Y-125402438D02*
X145571428Y-125354819D01*
X145571428Y-125354819D02*
X145666666Y-125354819D01*
X145666666Y-125354819D02*
X145809523Y-125402438D01*
X145809523Y-125402438D02*
X145857142Y-125450057D01*
X146809523Y-126354819D02*
X146238095Y-126354819D01*
X146523809Y-126354819D02*
X146523809Y-125354819D01*
X146523809Y-125354819D02*
X146428571Y-125497676D01*
X146428571Y-125497676D02*
X146333333Y-125592914D01*
X146333333Y-125592914D02*
X146238095Y-125640533D01*
X147142857Y-125354819D02*
X147761904Y-125354819D01*
X147761904Y-125354819D02*
X147428571Y-125735771D01*
X147428571Y-125735771D02*
X147571428Y-125735771D01*
X147571428Y-125735771D02*
X147666666Y-125783390D01*
X147666666Y-125783390D02*
X147714285Y-125831009D01*
X147714285Y-125831009D02*
X147761904Y-125926247D01*
X147761904Y-125926247D02*
X147761904Y-126164342D01*
X147761904Y-126164342D02*
X147714285Y-126259580D01*
X147714285Y-126259580D02*
X147666666Y-126307200D01*
X147666666Y-126307200D02*
X147571428Y-126354819D01*
X147571428Y-126354819D02*
X147285714Y-126354819D01*
X147285714Y-126354819D02*
X147190476Y-126307200D01*
X147190476Y-126307200D02*
X147142857Y-126259580D01*
X145757142Y-131059580D02*
X145709523Y-131107200D01*
X145709523Y-131107200D02*
X145566666Y-131154819D01*
X145566666Y-131154819D02*
X145471428Y-131154819D01*
X145471428Y-131154819D02*
X145328571Y-131107200D01*
X145328571Y-131107200D02*
X145233333Y-131011961D01*
X145233333Y-131011961D02*
X145185714Y-130916723D01*
X145185714Y-130916723D02*
X145138095Y-130726247D01*
X145138095Y-130726247D02*
X145138095Y-130583390D01*
X145138095Y-130583390D02*
X145185714Y-130392914D01*
X145185714Y-130392914D02*
X145233333Y-130297676D01*
X145233333Y-130297676D02*
X145328571Y-130202438D01*
X145328571Y-130202438D02*
X145471428Y-130154819D01*
X145471428Y-130154819D02*
X145566666Y-130154819D01*
X145566666Y-130154819D02*
X145709523Y-130202438D01*
X145709523Y-130202438D02*
X145757142Y-130250057D01*
X146709523Y-131154819D02*
X146138095Y-131154819D01*
X146423809Y-131154819D02*
X146423809Y-130154819D01*
X146423809Y-130154819D02*
X146328571Y-130297676D01*
X146328571Y-130297676D02*
X146233333Y-130392914D01*
X146233333Y-130392914D02*
X146138095Y-130440533D01*
X147566666Y-130488152D02*
X147566666Y-131154819D01*
X147328571Y-130107200D02*
X147090476Y-130821485D01*
X147090476Y-130821485D02*
X147709523Y-130821485D01*
X155833333Y-131159580D02*
X155785714Y-131207200D01*
X155785714Y-131207200D02*
X155642857Y-131254819D01*
X155642857Y-131254819D02*
X155547619Y-131254819D01*
X155547619Y-131254819D02*
X155404762Y-131207200D01*
X155404762Y-131207200D02*
X155309524Y-131111961D01*
X155309524Y-131111961D02*
X155261905Y-131016723D01*
X155261905Y-131016723D02*
X155214286Y-130826247D01*
X155214286Y-130826247D02*
X155214286Y-130683390D01*
X155214286Y-130683390D02*
X155261905Y-130492914D01*
X155261905Y-130492914D02*
X155309524Y-130397676D01*
X155309524Y-130397676D02*
X155404762Y-130302438D01*
X155404762Y-130302438D02*
X155547619Y-130254819D01*
X155547619Y-130254819D02*
X155642857Y-130254819D01*
X155642857Y-130254819D02*
X155785714Y-130302438D01*
X155785714Y-130302438D02*
X155833333Y-130350057D01*
X156690476Y-130254819D02*
X156500000Y-130254819D01*
X156500000Y-130254819D02*
X156404762Y-130302438D01*
X156404762Y-130302438D02*
X156357143Y-130350057D01*
X156357143Y-130350057D02*
X156261905Y-130492914D01*
X156261905Y-130492914D02*
X156214286Y-130683390D01*
X156214286Y-130683390D02*
X156214286Y-131064342D01*
X156214286Y-131064342D02*
X156261905Y-131159580D01*
X156261905Y-131159580D02*
X156309524Y-131207200D01*
X156309524Y-131207200D02*
X156404762Y-131254819D01*
X156404762Y-131254819D02*
X156595238Y-131254819D01*
X156595238Y-131254819D02*
X156690476Y-131207200D01*
X156690476Y-131207200D02*
X156738095Y-131159580D01*
X156738095Y-131159580D02*
X156785714Y-131064342D01*
X156785714Y-131064342D02*
X156785714Y-130826247D01*
X156785714Y-130826247D02*
X156738095Y-130731009D01*
X156738095Y-130731009D02*
X156690476Y-130683390D01*
X156690476Y-130683390D02*
X156595238Y-130635771D01*
X156595238Y-130635771D02*
X156404762Y-130635771D01*
X156404762Y-130635771D02*
X156309524Y-130683390D01*
X156309524Y-130683390D02*
X156261905Y-130731009D01*
X156261905Y-130731009D02*
X156214286Y-130826247D01*
X141107142Y-122559580D02*
X141059523Y-122607200D01*
X141059523Y-122607200D02*
X140916666Y-122654819D01*
X140916666Y-122654819D02*
X140821428Y-122654819D01*
X140821428Y-122654819D02*
X140678571Y-122607200D01*
X140678571Y-122607200D02*
X140583333Y-122511961D01*
X140583333Y-122511961D02*
X140535714Y-122416723D01*
X140535714Y-122416723D02*
X140488095Y-122226247D01*
X140488095Y-122226247D02*
X140488095Y-122083390D01*
X140488095Y-122083390D02*
X140535714Y-121892914D01*
X140535714Y-121892914D02*
X140583333Y-121797676D01*
X140583333Y-121797676D02*
X140678571Y-121702438D01*
X140678571Y-121702438D02*
X140821428Y-121654819D01*
X140821428Y-121654819D02*
X140916666Y-121654819D01*
X140916666Y-121654819D02*
X141059523Y-121702438D01*
X141059523Y-121702438D02*
X141107142Y-121750057D01*
X142059523Y-122654819D02*
X141488095Y-122654819D01*
X141773809Y-122654819D02*
X141773809Y-121654819D01*
X141773809Y-121654819D02*
X141678571Y-121797676D01*
X141678571Y-121797676D02*
X141583333Y-121892914D01*
X141583333Y-121892914D02*
X141488095Y-121940533D01*
X142678571Y-121654819D02*
X142773809Y-121654819D01*
X142773809Y-121654819D02*
X142869047Y-121702438D01*
X142869047Y-121702438D02*
X142916666Y-121750057D01*
X142916666Y-121750057D02*
X142964285Y-121845295D01*
X142964285Y-121845295D02*
X143011904Y-122035771D01*
X143011904Y-122035771D02*
X143011904Y-122273866D01*
X143011904Y-122273866D02*
X142964285Y-122464342D01*
X142964285Y-122464342D02*
X142916666Y-122559580D01*
X142916666Y-122559580D02*
X142869047Y-122607200D01*
X142869047Y-122607200D02*
X142773809Y-122654819D01*
X142773809Y-122654819D02*
X142678571Y-122654819D01*
X142678571Y-122654819D02*
X142583333Y-122607200D01*
X142583333Y-122607200D02*
X142535714Y-122559580D01*
X142535714Y-122559580D02*
X142488095Y-122464342D01*
X142488095Y-122464342D02*
X142440476Y-122273866D01*
X142440476Y-122273866D02*
X142440476Y-122035771D01*
X142440476Y-122035771D02*
X142488095Y-121845295D01*
X142488095Y-121845295D02*
X142535714Y-121750057D01*
X142535714Y-121750057D02*
X142583333Y-121702438D01*
X142583333Y-121702438D02*
X142678571Y-121654819D01*
X175981905Y-74054819D02*
X175981905Y-73054819D01*
X175981905Y-73054819D02*
X176220000Y-73054819D01*
X176220000Y-73054819D02*
X176362857Y-73102438D01*
X176362857Y-73102438D02*
X176458095Y-73197676D01*
X176458095Y-73197676D02*
X176505714Y-73292914D01*
X176505714Y-73292914D02*
X176553333Y-73483390D01*
X176553333Y-73483390D02*
X176553333Y-73626247D01*
X176553333Y-73626247D02*
X176505714Y-73816723D01*
X176505714Y-73816723D02*
X176458095Y-73911961D01*
X176458095Y-73911961D02*
X176362857Y-74007200D01*
X176362857Y-74007200D02*
X176220000Y-74054819D01*
X176220000Y-74054819D02*
X175981905Y-74054819D01*
X177505714Y-74054819D02*
X176934286Y-74054819D01*
X177220000Y-74054819D02*
X177220000Y-73054819D01*
X177220000Y-73054819D02*
X177124762Y-73197676D01*
X177124762Y-73197676D02*
X177029524Y-73292914D01*
X177029524Y-73292914D02*
X176934286Y-73340533D01*
X169497142Y-125374819D02*
X169163809Y-124898628D01*
X168925714Y-125374819D02*
X168925714Y-124374819D01*
X168925714Y-124374819D02*
X169306666Y-124374819D01*
X169306666Y-124374819D02*
X169401904Y-124422438D01*
X169401904Y-124422438D02*
X169449523Y-124470057D01*
X169449523Y-124470057D02*
X169497142Y-124565295D01*
X169497142Y-124565295D02*
X169497142Y-124708152D01*
X169497142Y-124708152D02*
X169449523Y-124803390D01*
X169449523Y-124803390D02*
X169401904Y-124851009D01*
X169401904Y-124851009D02*
X169306666Y-124898628D01*
X169306666Y-124898628D02*
X168925714Y-124898628D01*
X170449523Y-125374819D02*
X169878095Y-125374819D01*
X170163809Y-125374819D02*
X170163809Y-124374819D01*
X170163809Y-124374819D02*
X170068571Y-124517676D01*
X170068571Y-124517676D02*
X169973333Y-124612914D01*
X169973333Y-124612914D02*
X169878095Y-124660533D01*
X171068571Y-124374819D02*
X171163809Y-124374819D01*
X171163809Y-124374819D02*
X171259047Y-124422438D01*
X171259047Y-124422438D02*
X171306666Y-124470057D01*
X171306666Y-124470057D02*
X171354285Y-124565295D01*
X171354285Y-124565295D02*
X171401904Y-124755771D01*
X171401904Y-124755771D02*
X171401904Y-124993866D01*
X171401904Y-124993866D02*
X171354285Y-125184342D01*
X171354285Y-125184342D02*
X171306666Y-125279580D01*
X171306666Y-125279580D02*
X171259047Y-125327200D01*
X171259047Y-125327200D02*
X171163809Y-125374819D01*
X171163809Y-125374819D02*
X171068571Y-125374819D01*
X171068571Y-125374819D02*
X170973333Y-125327200D01*
X170973333Y-125327200D02*
X170925714Y-125279580D01*
X170925714Y-125279580D02*
X170878095Y-125184342D01*
X170878095Y-125184342D02*
X170830476Y-124993866D01*
X170830476Y-124993866D02*
X170830476Y-124755771D01*
X170830476Y-124755771D02*
X170878095Y-124565295D01*
X170878095Y-124565295D02*
X170925714Y-124470057D01*
X170925714Y-124470057D02*
X170973333Y-124422438D01*
X170973333Y-124422438D02*
X171068571Y-124374819D01*
X171488095Y-97904819D02*
X171488095Y-98714342D01*
X171488095Y-98714342D02*
X171535714Y-98809580D01*
X171535714Y-98809580D02*
X171583333Y-98857200D01*
X171583333Y-98857200D02*
X171678571Y-98904819D01*
X171678571Y-98904819D02*
X171869047Y-98904819D01*
X171869047Y-98904819D02*
X171964285Y-98857200D01*
X171964285Y-98857200D02*
X172011904Y-98809580D01*
X172011904Y-98809580D02*
X172059523Y-98714342D01*
X172059523Y-98714342D02*
X172059523Y-97904819D01*
X173011904Y-97904819D02*
X172535714Y-97904819D01*
X172535714Y-97904819D02*
X172488095Y-98381009D01*
X172488095Y-98381009D02*
X172535714Y-98333390D01*
X172535714Y-98333390D02*
X172630952Y-98285771D01*
X172630952Y-98285771D02*
X172869047Y-98285771D01*
X172869047Y-98285771D02*
X172964285Y-98333390D01*
X172964285Y-98333390D02*
X173011904Y-98381009D01*
X173011904Y-98381009D02*
X173059523Y-98476247D01*
X173059523Y-98476247D02*
X173059523Y-98714342D01*
X173059523Y-98714342D02*
X173011904Y-98809580D01*
X173011904Y-98809580D02*
X172964285Y-98857200D01*
X172964285Y-98857200D02*
X172869047Y-98904819D01*
X172869047Y-98904819D02*
X172630952Y-98904819D01*
X172630952Y-98904819D02*
X172535714Y-98857200D01*
X172535714Y-98857200D02*
X172488095Y-98809580D01*
X174833333Y-114024819D02*
X174500000Y-113548628D01*
X174261905Y-114024819D02*
X174261905Y-113024819D01*
X174261905Y-113024819D02*
X174642857Y-113024819D01*
X174642857Y-113024819D02*
X174738095Y-113072438D01*
X174738095Y-113072438D02*
X174785714Y-113120057D01*
X174785714Y-113120057D02*
X174833333Y-113215295D01*
X174833333Y-113215295D02*
X174833333Y-113358152D01*
X174833333Y-113358152D02*
X174785714Y-113453390D01*
X174785714Y-113453390D02*
X174738095Y-113501009D01*
X174738095Y-113501009D02*
X174642857Y-113548628D01*
X174642857Y-113548628D02*
X174261905Y-113548628D01*
X175690476Y-113024819D02*
X175500000Y-113024819D01*
X175500000Y-113024819D02*
X175404762Y-113072438D01*
X175404762Y-113072438D02*
X175357143Y-113120057D01*
X175357143Y-113120057D02*
X175261905Y-113262914D01*
X175261905Y-113262914D02*
X175214286Y-113453390D01*
X175214286Y-113453390D02*
X175214286Y-113834342D01*
X175214286Y-113834342D02*
X175261905Y-113929580D01*
X175261905Y-113929580D02*
X175309524Y-113977200D01*
X175309524Y-113977200D02*
X175404762Y-114024819D01*
X175404762Y-114024819D02*
X175595238Y-114024819D01*
X175595238Y-114024819D02*
X175690476Y-113977200D01*
X175690476Y-113977200D02*
X175738095Y-113929580D01*
X175738095Y-113929580D02*
X175785714Y-113834342D01*
X175785714Y-113834342D02*
X175785714Y-113596247D01*
X175785714Y-113596247D02*
X175738095Y-113501009D01*
X175738095Y-113501009D02*
X175690476Y-113453390D01*
X175690476Y-113453390D02*
X175595238Y-113405771D01*
X175595238Y-113405771D02*
X175404762Y-113405771D01*
X175404762Y-113405771D02*
X175309524Y-113453390D01*
X175309524Y-113453390D02*
X175261905Y-113501009D01*
X175261905Y-113501009D02*
X175214286Y-113596247D01*
X142461905Y-135854819D02*
X142461905Y-134854819D01*
X142461905Y-134854819D02*
X142700000Y-134854819D01*
X142700000Y-134854819D02*
X142842857Y-134902438D01*
X142842857Y-134902438D02*
X142938095Y-134997676D01*
X142938095Y-134997676D02*
X142985714Y-135092914D01*
X142985714Y-135092914D02*
X143033333Y-135283390D01*
X143033333Y-135283390D02*
X143033333Y-135426247D01*
X143033333Y-135426247D02*
X142985714Y-135616723D01*
X142985714Y-135616723D02*
X142938095Y-135711961D01*
X142938095Y-135711961D02*
X142842857Y-135807200D01*
X142842857Y-135807200D02*
X142700000Y-135854819D01*
X142700000Y-135854819D02*
X142461905Y-135854819D01*
X143890476Y-135188152D02*
X143890476Y-135854819D01*
X143652381Y-134807200D02*
X143414286Y-135521485D01*
X143414286Y-135521485D02*
X144033333Y-135521485D01*
X148438095Y-86854819D02*
X148438095Y-87664342D01*
X148438095Y-87664342D02*
X148485714Y-87759580D01*
X148485714Y-87759580D02*
X148533333Y-87807200D01*
X148533333Y-87807200D02*
X148628571Y-87854819D01*
X148628571Y-87854819D02*
X148819047Y-87854819D01*
X148819047Y-87854819D02*
X148914285Y-87807200D01*
X148914285Y-87807200D02*
X148961904Y-87759580D01*
X148961904Y-87759580D02*
X149009523Y-87664342D01*
X149009523Y-87664342D02*
X149009523Y-86854819D01*
X149438095Y-86950057D02*
X149485714Y-86902438D01*
X149485714Y-86902438D02*
X149580952Y-86854819D01*
X149580952Y-86854819D02*
X149819047Y-86854819D01*
X149819047Y-86854819D02*
X149914285Y-86902438D01*
X149914285Y-86902438D02*
X149961904Y-86950057D01*
X149961904Y-86950057D02*
X150009523Y-87045295D01*
X150009523Y-87045295D02*
X150009523Y-87140533D01*
X150009523Y-87140533D02*
X149961904Y-87283390D01*
X149961904Y-87283390D02*
X149390476Y-87854819D01*
X149390476Y-87854819D02*
X150009523Y-87854819D01*
X169833333Y-122024819D02*
X169500000Y-121548628D01*
X169261905Y-122024819D02*
X169261905Y-121024819D01*
X169261905Y-121024819D02*
X169642857Y-121024819D01*
X169642857Y-121024819D02*
X169738095Y-121072438D01*
X169738095Y-121072438D02*
X169785714Y-121120057D01*
X169785714Y-121120057D02*
X169833333Y-121215295D01*
X169833333Y-121215295D02*
X169833333Y-121358152D01*
X169833333Y-121358152D02*
X169785714Y-121453390D01*
X169785714Y-121453390D02*
X169738095Y-121501009D01*
X169738095Y-121501009D02*
X169642857Y-121548628D01*
X169642857Y-121548628D02*
X169261905Y-121548628D01*
X170690476Y-121358152D02*
X170690476Y-122024819D01*
X170452381Y-120977200D02*
X170214286Y-121691485D01*
X170214286Y-121691485D02*
X170833333Y-121691485D01*
X144433333Y-100897080D02*
X144385714Y-100944700D01*
X144385714Y-100944700D02*
X144242857Y-100992319D01*
X144242857Y-100992319D02*
X144147619Y-100992319D01*
X144147619Y-100992319D02*
X144004762Y-100944700D01*
X144004762Y-100944700D02*
X143909524Y-100849461D01*
X143909524Y-100849461D02*
X143861905Y-100754223D01*
X143861905Y-100754223D02*
X143814286Y-100563747D01*
X143814286Y-100563747D02*
X143814286Y-100420890D01*
X143814286Y-100420890D02*
X143861905Y-100230414D01*
X143861905Y-100230414D02*
X143909524Y-100135176D01*
X143909524Y-100135176D02*
X144004762Y-100039938D01*
X144004762Y-100039938D02*
X144147619Y-99992319D01*
X144147619Y-99992319D02*
X144242857Y-99992319D01*
X144242857Y-99992319D02*
X144385714Y-100039938D01*
X144385714Y-100039938D02*
X144433333Y-100087557D01*
X145385714Y-100992319D02*
X144814286Y-100992319D01*
X145100000Y-100992319D02*
X145100000Y-99992319D01*
X145100000Y-99992319D02*
X145004762Y-100135176D01*
X145004762Y-100135176D02*
X144909524Y-100230414D01*
X144909524Y-100230414D02*
X144814286Y-100278033D01*
X174833333Y-118024819D02*
X174500000Y-117548628D01*
X174261905Y-118024819D02*
X174261905Y-117024819D01*
X174261905Y-117024819D02*
X174642857Y-117024819D01*
X174642857Y-117024819D02*
X174738095Y-117072438D01*
X174738095Y-117072438D02*
X174785714Y-117120057D01*
X174785714Y-117120057D02*
X174833333Y-117215295D01*
X174833333Y-117215295D02*
X174833333Y-117358152D01*
X174833333Y-117358152D02*
X174785714Y-117453390D01*
X174785714Y-117453390D02*
X174738095Y-117501009D01*
X174738095Y-117501009D02*
X174642857Y-117548628D01*
X174642857Y-117548628D02*
X174261905Y-117548628D01*
X175166667Y-117024819D02*
X175833333Y-117024819D01*
X175833333Y-117024819D02*
X175404762Y-118024819D01*
X137057142Y-122924819D02*
X136723809Y-122448628D01*
X136485714Y-122924819D02*
X136485714Y-121924819D01*
X136485714Y-121924819D02*
X136866666Y-121924819D01*
X136866666Y-121924819D02*
X136961904Y-121972438D01*
X136961904Y-121972438D02*
X137009523Y-122020057D01*
X137009523Y-122020057D02*
X137057142Y-122115295D01*
X137057142Y-122115295D02*
X137057142Y-122258152D01*
X137057142Y-122258152D02*
X137009523Y-122353390D01*
X137009523Y-122353390D02*
X136961904Y-122401009D01*
X136961904Y-122401009D02*
X136866666Y-122448628D01*
X136866666Y-122448628D02*
X136485714Y-122448628D01*
X138009523Y-122924819D02*
X137438095Y-122924819D01*
X137723809Y-122924819D02*
X137723809Y-121924819D01*
X137723809Y-121924819D02*
X137628571Y-122067676D01*
X137628571Y-122067676D02*
X137533333Y-122162914D01*
X137533333Y-122162914D02*
X137438095Y-122210533D01*
X138342857Y-121924819D02*
X138961904Y-121924819D01*
X138961904Y-121924819D02*
X138628571Y-122305771D01*
X138628571Y-122305771D02*
X138771428Y-122305771D01*
X138771428Y-122305771D02*
X138866666Y-122353390D01*
X138866666Y-122353390D02*
X138914285Y-122401009D01*
X138914285Y-122401009D02*
X138961904Y-122496247D01*
X138961904Y-122496247D02*
X138961904Y-122734342D01*
X138961904Y-122734342D02*
X138914285Y-122829580D01*
X138914285Y-122829580D02*
X138866666Y-122877200D01*
X138866666Y-122877200D02*
X138771428Y-122924819D01*
X138771428Y-122924819D02*
X138485714Y-122924819D01*
X138485714Y-122924819D02*
X138390476Y-122877200D01*
X138390476Y-122877200D02*
X138342857Y-122829580D01*
X155733333Y-126159580D02*
X155685714Y-126207200D01*
X155685714Y-126207200D02*
X155542857Y-126254819D01*
X155542857Y-126254819D02*
X155447619Y-126254819D01*
X155447619Y-126254819D02*
X155304762Y-126207200D01*
X155304762Y-126207200D02*
X155209524Y-126111961D01*
X155209524Y-126111961D02*
X155161905Y-126016723D01*
X155161905Y-126016723D02*
X155114286Y-125826247D01*
X155114286Y-125826247D02*
X155114286Y-125683390D01*
X155114286Y-125683390D02*
X155161905Y-125492914D01*
X155161905Y-125492914D02*
X155209524Y-125397676D01*
X155209524Y-125397676D02*
X155304762Y-125302438D01*
X155304762Y-125302438D02*
X155447619Y-125254819D01*
X155447619Y-125254819D02*
X155542857Y-125254819D01*
X155542857Y-125254819D02*
X155685714Y-125302438D01*
X155685714Y-125302438D02*
X155733333Y-125350057D01*
X156638095Y-125254819D02*
X156161905Y-125254819D01*
X156161905Y-125254819D02*
X156114286Y-125731009D01*
X156114286Y-125731009D02*
X156161905Y-125683390D01*
X156161905Y-125683390D02*
X156257143Y-125635771D01*
X156257143Y-125635771D02*
X156495238Y-125635771D01*
X156495238Y-125635771D02*
X156590476Y-125683390D01*
X156590476Y-125683390D02*
X156638095Y-125731009D01*
X156638095Y-125731009D02*
X156685714Y-125826247D01*
X156685714Y-125826247D02*
X156685714Y-126064342D01*
X156685714Y-126064342D02*
X156638095Y-126159580D01*
X156638095Y-126159580D02*
X156590476Y-126207200D01*
X156590476Y-126207200D02*
X156495238Y-126254819D01*
X156495238Y-126254819D02*
X156257143Y-126254819D01*
X156257143Y-126254819D02*
X156161905Y-126207200D01*
X156161905Y-126207200D02*
X156114286Y-126159580D01*
X169833333Y-114024819D02*
X169500000Y-113548628D01*
X169261905Y-114024819D02*
X169261905Y-113024819D01*
X169261905Y-113024819D02*
X169642857Y-113024819D01*
X169642857Y-113024819D02*
X169738095Y-113072438D01*
X169738095Y-113072438D02*
X169785714Y-113120057D01*
X169785714Y-113120057D02*
X169833333Y-113215295D01*
X169833333Y-113215295D02*
X169833333Y-113358152D01*
X169833333Y-113358152D02*
X169785714Y-113453390D01*
X169785714Y-113453390D02*
X169738095Y-113501009D01*
X169738095Y-113501009D02*
X169642857Y-113548628D01*
X169642857Y-113548628D02*
X169261905Y-113548628D01*
X170214286Y-113120057D02*
X170261905Y-113072438D01*
X170261905Y-113072438D02*
X170357143Y-113024819D01*
X170357143Y-113024819D02*
X170595238Y-113024819D01*
X170595238Y-113024819D02*
X170690476Y-113072438D01*
X170690476Y-113072438D02*
X170738095Y-113120057D01*
X170738095Y-113120057D02*
X170785714Y-113215295D01*
X170785714Y-113215295D02*
X170785714Y-113310533D01*
X170785714Y-113310533D02*
X170738095Y-113453390D01*
X170738095Y-113453390D02*
X170166667Y-114024819D01*
X170166667Y-114024819D02*
X170785714Y-114024819D01*
X169833333Y-118024819D02*
X169500000Y-117548628D01*
X169261905Y-118024819D02*
X169261905Y-117024819D01*
X169261905Y-117024819D02*
X169642857Y-117024819D01*
X169642857Y-117024819D02*
X169738095Y-117072438D01*
X169738095Y-117072438D02*
X169785714Y-117120057D01*
X169785714Y-117120057D02*
X169833333Y-117215295D01*
X169833333Y-117215295D02*
X169833333Y-117358152D01*
X169833333Y-117358152D02*
X169785714Y-117453390D01*
X169785714Y-117453390D02*
X169738095Y-117501009D01*
X169738095Y-117501009D02*
X169642857Y-117548628D01*
X169642857Y-117548628D02*
X169261905Y-117548628D01*
X170166667Y-117024819D02*
X170785714Y-117024819D01*
X170785714Y-117024819D02*
X170452381Y-117405771D01*
X170452381Y-117405771D02*
X170595238Y-117405771D01*
X170595238Y-117405771D02*
X170690476Y-117453390D01*
X170690476Y-117453390D02*
X170738095Y-117501009D01*
X170738095Y-117501009D02*
X170785714Y-117596247D01*
X170785714Y-117596247D02*
X170785714Y-117834342D01*
X170785714Y-117834342D02*
X170738095Y-117929580D01*
X170738095Y-117929580D02*
X170690476Y-117977200D01*
X170690476Y-117977200D02*
X170595238Y-118024819D01*
X170595238Y-118024819D02*
X170309524Y-118024819D01*
X170309524Y-118024819D02*
X170214286Y-117977200D01*
X170214286Y-117977200D02*
X170166667Y-117929580D01*
X155838095Y-99674819D02*
X155838095Y-100484342D01*
X155838095Y-100484342D02*
X155885714Y-100579580D01*
X155885714Y-100579580D02*
X155933333Y-100627200D01*
X155933333Y-100627200D02*
X156028571Y-100674819D01*
X156028571Y-100674819D02*
X156219047Y-100674819D01*
X156219047Y-100674819D02*
X156314285Y-100627200D01*
X156314285Y-100627200D02*
X156361904Y-100579580D01*
X156361904Y-100579580D02*
X156409523Y-100484342D01*
X156409523Y-100484342D02*
X156409523Y-99674819D01*
X156790476Y-99674819D02*
X157409523Y-99674819D01*
X157409523Y-99674819D02*
X157076190Y-100055771D01*
X157076190Y-100055771D02*
X157219047Y-100055771D01*
X157219047Y-100055771D02*
X157314285Y-100103390D01*
X157314285Y-100103390D02*
X157361904Y-100151009D01*
X157361904Y-100151009D02*
X157409523Y-100246247D01*
X157409523Y-100246247D02*
X157409523Y-100484342D01*
X157409523Y-100484342D02*
X157361904Y-100579580D01*
X157361904Y-100579580D02*
X157314285Y-100627200D01*
X157314285Y-100627200D02*
X157219047Y-100674819D01*
X157219047Y-100674819D02*
X156933333Y-100674819D01*
X156933333Y-100674819D02*
X156838095Y-100627200D01*
X156838095Y-100627200D02*
X156790476Y-100579580D01*
X172333333Y-110054819D02*
X172000000Y-109578628D01*
X171761905Y-110054819D02*
X171761905Y-109054819D01*
X171761905Y-109054819D02*
X172142857Y-109054819D01*
X172142857Y-109054819D02*
X172238095Y-109102438D01*
X172238095Y-109102438D02*
X172285714Y-109150057D01*
X172285714Y-109150057D02*
X172333333Y-109245295D01*
X172333333Y-109245295D02*
X172333333Y-109388152D01*
X172333333Y-109388152D02*
X172285714Y-109483390D01*
X172285714Y-109483390D02*
X172238095Y-109531009D01*
X172238095Y-109531009D02*
X172142857Y-109578628D01*
X172142857Y-109578628D02*
X171761905Y-109578628D01*
X173238095Y-109054819D02*
X172761905Y-109054819D01*
X172761905Y-109054819D02*
X172714286Y-109531009D01*
X172714286Y-109531009D02*
X172761905Y-109483390D01*
X172761905Y-109483390D02*
X172857143Y-109435771D01*
X172857143Y-109435771D02*
X173095238Y-109435771D01*
X173095238Y-109435771D02*
X173190476Y-109483390D01*
X173190476Y-109483390D02*
X173238095Y-109531009D01*
X173238095Y-109531009D02*
X173285714Y-109626247D01*
X173285714Y-109626247D02*
X173285714Y-109864342D01*
X173285714Y-109864342D02*
X173238095Y-109959580D01*
X173238095Y-109959580D02*
X173190476Y-110007200D01*
X173190476Y-110007200D02*
X173095238Y-110054819D01*
X173095238Y-110054819D02*
X172857143Y-110054819D01*
X172857143Y-110054819D02*
X172761905Y-110007200D01*
X172761905Y-110007200D02*
X172714286Y-109959580D01*
X137057142Y-126554819D02*
X136723809Y-126078628D01*
X136485714Y-126554819D02*
X136485714Y-125554819D01*
X136485714Y-125554819D02*
X136866666Y-125554819D01*
X136866666Y-125554819D02*
X136961904Y-125602438D01*
X136961904Y-125602438D02*
X137009523Y-125650057D01*
X137009523Y-125650057D02*
X137057142Y-125745295D01*
X137057142Y-125745295D02*
X137057142Y-125888152D01*
X137057142Y-125888152D02*
X137009523Y-125983390D01*
X137009523Y-125983390D02*
X136961904Y-126031009D01*
X136961904Y-126031009D02*
X136866666Y-126078628D01*
X136866666Y-126078628D02*
X136485714Y-126078628D01*
X138009523Y-126554819D02*
X137438095Y-126554819D01*
X137723809Y-126554819D02*
X137723809Y-125554819D01*
X137723809Y-125554819D02*
X137628571Y-125697676D01*
X137628571Y-125697676D02*
X137533333Y-125792914D01*
X137533333Y-125792914D02*
X137438095Y-125840533D01*
X138866666Y-125888152D02*
X138866666Y-126554819D01*
X138628571Y-125507200D02*
X138390476Y-126221485D01*
X138390476Y-126221485D02*
X139009523Y-126221485D01*
X171488095Y-103404819D02*
X171488095Y-104214342D01*
X171488095Y-104214342D02*
X171535714Y-104309580D01*
X171535714Y-104309580D02*
X171583333Y-104357200D01*
X171583333Y-104357200D02*
X171678571Y-104404819D01*
X171678571Y-104404819D02*
X171869047Y-104404819D01*
X171869047Y-104404819D02*
X171964285Y-104357200D01*
X171964285Y-104357200D02*
X172011904Y-104309580D01*
X172011904Y-104309580D02*
X172059523Y-104214342D01*
X172059523Y-104214342D02*
X172059523Y-103404819D01*
X172964285Y-103404819D02*
X172773809Y-103404819D01*
X172773809Y-103404819D02*
X172678571Y-103452438D01*
X172678571Y-103452438D02*
X172630952Y-103500057D01*
X172630952Y-103500057D02*
X172535714Y-103642914D01*
X172535714Y-103642914D02*
X172488095Y-103833390D01*
X172488095Y-103833390D02*
X172488095Y-104214342D01*
X172488095Y-104214342D02*
X172535714Y-104309580D01*
X172535714Y-104309580D02*
X172583333Y-104357200D01*
X172583333Y-104357200D02*
X172678571Y-104404819D01*
X172678571Y-104404819D02*
X172869047Y-104404819D01*
X172869047Y-104404819D02*
X172964285Y-104357200D01*
X172964285Y-104357200D02*
X173011904Y-104309580D01*
X173011904Y-104309580D02*
X173059523Y-104214342D01*
X173059523Y-104214342D02*
X173059523Y-103976247D01*
X173059523Y-103976247D02*
X173011904Y-103881009D01*
X173011904Y-103881009D02*
X172964285Y-103833390D01*
X172964285Y-103833390D02*
X172869047Y-103785771D01*
X172869047Y-103785771D02*
X172678571Y-103785771D01*
X172678571Y-103785771D02*
X172583333Y-103833390D01*
X172583333Y-103833390D02*
X172535714Y-103881009D01*
X172535714Y-103881009D02*
X172488095Y-103976247D01*
X150597142Y-131424819D02*
X150263809Y-130948628D01*
X150025714Y-131424819D02*
X150025714Y-130424819D01*
X150025714Y-130424819D02*
X150406666Y-130424819D01*
X150406666Y-130424819D02*
X150501904Y-130472438D01*
X150501904Y-130472438D02*
X150549523Y-130520057D01*
X150549523Y-130520057D02*
X150597142Y-130615295D01*
X150597142Y-130615295D02*
X150597142Y-130758152D01*
X150597142Y-130758152D02*
X150549523Y-130853390D01*
X150549523Y-130853390D02*
X150501904Y-130901009D01*
X150501904Y-130901009D02*
X150406666Y-130948628D01*
X150406666Y-130948628D02*
X150025714Y-130948628D01*
X151549523Y-131424819D02*
X150978095Y-131424819D01*
X151263809Y-131424819D02*
X151263809Y-130424819D01*
X151263809Y-130424819D02*
X151168571Y-130567676D01*
X151168571Y-130567676D02*
X151073333Y-130662914D01*
X151073333Y-130662914D02*
X150978095Y-130710533D01*
X152406666Y-130424819D02*
X152216190Y-130424819D01*
X152216190Y-130424819D02*
X152120952Y-130472438D01*
X152120952Y-130472438D02*
X152073333Y-130520057D01*
X152073333Y-130520057D02*
X151978095Y-130662914D01*
X151978095Y-130662914D02*
X151930476Y-130853390D01*
X151930476Y-130853390D02*
X151930476Y-131234342D01*
X151930476Y-131234342D02*
X151978095Y-131329580D01*
X151978095Y-131329580D02*
X152025714Y-131377200D01*
X152025714Y-131377200D02*
X152120952Y-131424819D01*
X152120952Y-131424819D02*
X152311428Y-131424819D01*
X152311428Y-131424819D02*
X152406666Y-131377200D01*
X152406666Y-131377200D02*
X152454285Y-131329580D01*
X152454285Y-131329580D02*
X152501904Y-131234342D01*
X152501904Y-131234342D02*
X152501904Y-130996247D01*
X152501904Y-130996247D02*
X152454285Y-130901009D01*
X152454285Y-130901009D02*
X152406666Y-130853390D01*
X152406666Y-130853390D02*
X152311428Y-130805771D01*
X152311428Y-130805771D02*
X152120952Y-130805771D01*
X152120952Y-130805771D02*
X152025714Y-130853390D01*
X152025714Y-130853390D02*
X151978095Y-130901009D01*
X151978095Y-130901009D02*
X151930476Y-130996247D01*
X144433333Y-107459580D02*
X144385714Y-107507200D01*
X144385714Y-107507200D02*
X144242857Y-107554819D01*
X144242857Y-107554819D02*
X144147619Y-107554819D01*
X144147619Y-107554819D02*
X144004762Y-107507200D01*
X144004762Y-107507200D02*
X143909524Y-107411961D01*
X143909524Y-107411961D02*
X143861905Y-107316723D01*
X143861905Y-107316723D02*
X143814286Y-107126247D01*
X143814286Y-107126247D02*
X143814286Y-106983390D01*
X143814286Y-106983390D02*
X143861905Y-106792914D01*
X143861905Y-106792914D02*
X143909524Y-106697676D01*
X143909524Y-106697676D02*
X144004762Y-106602438D01*
X144004762Y-106602438D02*
X144147619Y-106554819D01*
X144147619Y-106554819D02*
X144242857Y-106554819D01*
X144242857Y-106554819D02*
X144385714Y-106602438D01*
X144385714Y-106602438D02*
X144433333Y-106650057D01*
X144814286Y-106650057D02*
X144861905Y-106602438D01*
X144861905Y-106602438D02*
X144957143Y-106554819D01*
X144957143Y-106554819D02*
X145195238Y-106554819D01*
X145195238Y-106554819D02*
X145290476Y-106602438D01*
X145290476Y-106602438D02*
X145338095Y-106650057D01*
X145338095Y-106650057D02*
X145385714Y-106745295D01*
X145385714Y-106745295D02*
X145385714Y-106840533D01*
X145385714Y-106840533D02*
X145338095Y-106983390D01*
X145338095Y-106983390D02*
X144766667Y-107554819D01*
X144766667Y-107554819D02*
X145385714Y-107554819D01*
X148438095Y-99854819D02*
X148438095Y-100664342D01*
X148438095Y-100664342D02*
X148485714Y-100759580D01*
X148485714Y-100759580D02*
X148533333Y-100807200D01*
X148533333Y-100807200D02*
X148628571Y-100854819D01*
X148628571Y-100854819D02*
X148819047Y-100854819D01*
X148819047Y-100854819D02*
X148914285Y-100807200D01*
X148914285Y-100807200D02*
X148961904Y-100759580D01*
X148961904Y-100759580D02*
X149009523Y-100664342D01*
X149009523Y-100664342D02*
X149009523Y-99854819D01*
X150009523Y-100854819D02*
X149438095Y-100854819D01*
X149723809Y-100854819D02*
X149723809Y-99854819D01*
X149723809Y-99854819D02*
X149628571Y-99997676D01*
X149628571Y-99997676D02*
X149533333Y-100092914D01*
X149533333Y-100092914D02*
X149438095Y-100140533D01*
X174357142Y-125324819D02*
X174023809Y-124848628D01*
X173785714Y-125324819D02*
X173785714Y-124324819D01*
X173785714Y-124324819D02*
X174166666Y-124324819D01*
X174166666Y-124324819D02*
X174261904Y-124372438D01*
X174261904Y-124372438D02*
X174309523Y-124420057D01*
X174309523Y-124420057D02*
X174357142Y-124515295D01*
X174357142Y-124515295D02*
X174357142Y-124658152D01*
X174357142Y-124658152D02*
X174309523Y-124753390D01*
X174309523Y-124753390D02*
X174261904Y-124801009D01*
X174261904Y-124801009D02*
X174166666Y-124848628D01*
X174166666Y-124848628D02*
X173785714Y-124848628D01*
X175309523Y-125324819D02*
X174738095Y-125324819D01*
X175023809Y-125324819D02*
X175023809Y-124324819D01*
X175023809Y-124324819D02*
X174928571Y-124467676D01*
X174928571Y-124467676D02*
X174833333Y-124562914D01*
X174833333Y-124562914D02*
X174738095Y-124610533D01*
X176261904Y-125324819D02*
X175690476Y-125324819D01*
X175976190Y-125324819D02*
X175976190Y-124324819D01*
X175976190Y-124324819D02*
X175880952Y-124467676D01*
X175880952Y-124467676D02*
X175785714Y-124562914D01*
X175785714Y-124562914D02*
X175690476Y-124610533D01*
X136794642Y-131454819D02*
X136461309Y-130978628D01*
X136223214Y-131454819D02*
X136223214Y-130454819D01*
X136223214Y-130454819D02*
X136604166Y-130454819D01*
X136604166Y-130454819D02*
X136699404Y-130502438D01*
X136699404Y-130502438D02*
X136747023Y-130550057D01*
X136747023Y-130550057D02*
X136794642Y-130645295D01*
X136794642Y-130645295D02*
X136794642Y-130788152D01*
X136794642Y-130788152D02*
X136747023Y-130883390D01*
X136747023Y-130883390D02*
X136699404Y-130931009D01*
X136699404Y-130931009D02*
X136604166Y-130978628D01*
X136604166Y-130978628D02*
X136223214Y-130978628D01*
X137747023Y-131454819D02*
X137175595Y-131454819D01*
X137461309Y-131454819D02*
X137461309Y-130454819D01*
X137461309Y-130454819D02*
X137366071Y-130597676D01*
X137366071Y-130597676D02*
X137270833Y-130692914D01*
X137270833Y-130692914D02*
X137175595Y-130740533D01*
X138651785Y-130454819D02*
X138175595Y-130454819D01*
X138175595Y-130454819D02*
X138127976Y-130931009D01*
X138127976Y-130931009D02*
X138175595Y-130883390D01*
X138175595Y-130883390D02*
X138270833Y-130835771D01*
X138270833Y-130835771D02*
X138508928Y-130835771D01*
X138508928Y-130835771D02*
X138604166Y-130883390D01*
X138604166Y-130883390D02*
X138651785Y-130931009D01*
X138651785Y-130931009D02*
X138699404Y-131026247D01*
X138699404Y-131026247D02*
X138699404Y-131264342D01*
X138699404Y-131264342D02*
X138651785Y-131359580D01*
X138651785Y-131359580D02*
X138604166Y-131407200D01*
X138604166Y-131407200D02*
X138508928Y-131454819D01*
X138508928Y-131454819D02*
X138270833Y-131454819D01*
X138270833Y-131454819D02*
X138175595Y-131407200D01*
X138175595Y-131407200D02*
X138127976Y-131359580D01*
X162133333Y-131159580D02*
X162085714Y-131207200D01*
X162085714Y-131207200D02*
X161942857Y-131254819D01*
X161942857Y-131254819D02*
X161847619Y-131254819D01*
X161847619Y-131254819D02*
X161704762Y-131207200D01*
X161704762Y-131207200D02*
X161609524Y-131111961D01*
X161609524Y-131111961D02*
X161561905Y-131016723D01*
X161561905Y-131016723D02*
X161514286Y-130826247D01*
X161514286Y-130826247D02*
X161514286Y-130683390D01*
X161514286Y-130683390D02*
X161561905Y-130492914D01*
X161561905Y-130492914D02*
X161609524Y-130397676D01*
X161609524Y-130397676D02*
X161704762Y-130302438D01*
X161704762Y-130302438D02*
X161847619Y-130254819D01*
X161847619Y-130254819D02*
X161942857Y-130254819D01*
X161942857Y-130254819D02*
X162085714Y-130302438D01*
X162085714Y-130302438D02*
X162133333Y-130350057D01*
X162466667Y-130254819D02*
X163133333Y-130254819D01*
X163133333Y-130254819D02*
X162704762Y-131254819D01*
X141107142Y-131159580D02*
X141059523Y-131207200D01*
X141059523Y-131207200D02*
X140916666Y-131254819D01*
X140916666Y-131254819D02*
X140821428Y-131254819D01*
X140821428Y-131254819D02*
X140678571Y-131207200D01*
X140678571Y-131207200D02*
X140583333Y-131111961D01*
X140583333Y-131111961D02*
X140535714Y-131016723D01*
X140535714Y-131016723D02*
X140488095Y-130826247D01*
X140488095Y-130826247D02*
X140488095Y-130683390D01*
X140488095Y-130683390D02*
X140535714Y-130492914D01*
X140535714Y-130492914D02*
X140583333Y-130397676D01*
X140583333Y-130397676D02*
X140678571Y-130302438D01*
X140678571Y-130302438D02*
X140821428Y-130254819D01*
X140821428Y-130254819D02*
X140916666Y-130254819D01*
X140916666Y-130254819D02*
X141059523Y-130302438D01*
X141059523Y-130302438D02*
X141107142Y-130350057D01*
X142059523Y-131254819D02*
X141488095Y-131254819D01*
X141773809Y-131254819D02*
X141773809Y-130254819D01*
X141773809Y-130254819D02*
X141678571Y-130397676D01*
X141678571Y-130397676D02*
X141583333Y-130492914D01*
X141583333Y-130492914D02*
X141488095Y-130540533D01*
X142440476Y-130350057D02*
X142488095Y-130302438D01*
X142488095Y-130302438D02*
X142583333Y-130254819D01*
X142583333Y-130254819D02*
X142821428Y-130254819D01*
X142821428Y-130254819D02*
X142916666Y-130302438D01*
X142916666Y-130302438D02*
X142964285Y-130350057D01*
X142964285Y-130350057D02*
X143011904Y-130445295D01*
X143011904Y-130445295D02*
X143011904Y-130540533D01*
X143011904Y-130540533D02*
X142964285Y-130683390D01*
X142964285Y-130683390D02*
X142392857Y-131254819D01*
X142392857Y-131254819D02*
X143011904Y-131254819D01*
X137057142Y-119724819D02*
X136723809Y-119248628D01*
X136485714Y-119724819D02*
X136485714Y-118724819D01*
X136485714Y-118724819D02*
X136866666Y-118724819D01*
X136866666Y-118724819D02*
X136961904Y-118772438D01*
X136961904Y-118772438D02*
X137009523Y-118820057D01*
X137009523Y-118820057D02*
X137057142Y-118915295D01*
X137057142Y-118915295D02*
X137057142Y-119058152D01*
X137057142Y-119058152D02*
X137009523Y-119153390D01*
X137009523Y-119153390D02*
X136961904Y-119201009D01*
X136961904Y-119201009D02*
X136866666Y-119248628D01*
X136866666Y-119248628D02*
X136485714Y-119248628D01*
X138009523Y-119724819D02*
X137438095Y-119724819D01*
X137723809Y-119724819D02*
X137723809Y-118724819D01*
X137723809Y-118724819D02*
X137628571Y-118867676D01*
X137628571Y-118867676D02*
X137533333Y-118962914D01*
X137533333Y-118962914D02*
X137438095Y-119010533D01*
X138390476Y-118820057D02*
X138438095Y-118772438D01*
X138438095Y-118772438D02*
X138533333Y-118724819D01*
X138533333Y-118724819D02*
X138771428Y-118724819D01*
X138771428Y-118724819D02*
X138866666Y-118772438D01*
X138866666Y-118772438D02*
X138914285Y-118820057D01*
X138914285Y-118820057D02*
X138961904Y-118915295D01*
X138961904Y-118915295D02*
X138961904Y-119010533D01*
X138961904Y-119010533D02*
X138914285Y-119153390D01*
X138914285Y-119153390D02*
X138342857Y-119724819D01*
X138342857Y-119724819D02*
X138961904Y-119724819D01*
X141107142Y-126259580D02*
X141059523Y-126307200D01*
X141059523Y-126307200D02*
X140916666Y-126354819D01*
X140916666Y-126354819D02*
X140821428Y-126354819D01*
X140821428Y-126354819D02*
X140678571Y-126307200D01*
X140678571Y-126307200D02*
X140583333Y-126211961D01*
X140583333Y-126211961D02*
X140535714Y-126116723D01*
X140535714Y-126116723D02*
X140488095Y-125926247D01*
X140488095Y-125926247D02*
X140488095Y-125783390D01*
X140488095Y-125783390D02*
X140535714Y-125592914D01*
X140535714Y-125592914D02*
X140583333Y-125497676D01*
X140583333Y-125497676D02*
X140678571Y-125402438D01*
X140678571Y-125402438D02*
X140821428Y-125354819D01*
X140821428Y-125354819D02*
X140916666Y-125354819D01*
X140916666Y-125354819D02*
X141059523Y-125402438D01*
X141059523Y-125402438D02*
X141107142Y-125450057D01*
X142059523Y-126354819D02*
X141488095Y-126354819D01*
X141773809Y-126354819D02*
X141773809Y-125354819D01*
X141773809Y-125354819D02*
X141678571Y-125497676D01*
X141678571Y-125497676D02*
X141583333Y-125592914D01*
X141583333Y-125592914D02*
X141488095Y-125640533D01*
X143011904Y-126354819D02*
X142440476Y-126354819D01*
X142726190Y-126354819D02*
X142726190Y-125354819D01*
X142726190Y-125354819D02*
X142630952Y-125497676D01*
X142630952Y-125497676D02*
X142535714Y-125592914D01*
X142535714Y-125592914D02*
X142440476Y-125640533D01*
X138961905Y-115954819D02*
X138961905Y-114954819D01*
X138961905Y-114954819D02*
X139200000Y-114954819D01*
X139200000Y-114954819D02*
X139342857Y-115002438D01*
X139342857Y-115002438D02*
X139438095Y-115097676D01*
X139438095Y-115097676D02*
X139485714Y-115192914D01*
X139485714Y-115192914D02*
X139533333Y-115383390D01*
X139533333Y-115383390D02*
X139533333Y-115526247D01*
X139533333Y-115526247D02*
X139485714Y-115716723D01*
X139485714Y-115716723D02*
X139438095Y-115811961D01*
X139438095Y-115811961D02*
X139342857Y-115907200D01*
X139342857Y-115907200D02*
X139200000Y-115954819D01*
X139200000Y-115954819D02*
X138961905Y-115954819D01*
X139866667Y-114954819D02*
X140485714Y-114954819D01*
X140485714Y-114954819D02*
X140152381Y-115335771D01*
X140152381Y-115335771D02*
X140295238Y-115335771D01*
X140295238Y-115335771D02*
X140390476Y-115383390D01*
X140390476Y-115383390D02*
X140438095Y-115431009D01*
X140438095Y-115431009D02*
X140485714Y-115526247D01*
X140485714Y-115526247D02*
X140485714Y-115764342D01*
X140485714Y-115764342D02*
X140438095Y-115859580D01*
X140438095Y-115859580D02*
X140390476Y-115907200D01*
X140390476Y-115907200D02*
X140295238Y-115954819D01*
X140295238Y-115954819D02*
X140009524Y-115954819D01*
X140009524Y-115954819D02*
X139914286Y-115907200D01*
X139914286Y-115907200D02*
X139866667Y-115859580D01*
X151073333Y-126259580D02*
X151025714Y-126307200D01*
X151025714Y-126307200D02*
X150882857Y-126354819D01*
X150882857Y-126354819D02*
X150787619Y-126354819D01*
X150787619Y-126354819D02*
X150644762Y-126307200D01*
X150644762Y-126307200D02*
X150549524Y-126211961D01*
X150549524Y-126211961D02*
X150501905Y-126116723D01*
X150501905Y-126116723D02*
X150454286Y-125926247D01*
X150454286Y-125926247D02*
X150454286Y-125783390D01*
X150454286Y-125783390D02*
X150501905Y-125592914D01*
X150501905Y-125592914D02*
X150549524Y-125497676D01*
X150549524Y-125497676D02*
X150644762Y-125402438D01*
X150644762Y-125402438D02*
X150787619Y-125354819D01*
X150787619Y-125354819D02*
X150882857Y-125354819D01*
X150882857Y-125354819D02*
X151025714Y-125402438D01*
X151025714Y-125402438D02*
X151073333Y-125450057D01*
X151644762Y-125783390D02*
X151549524Y-125735771D01*
X151549524Y-125735771D02*
X151501905Y-125688152D01*
X151501905Y-125688152D02*
X151454286Y-125592914D01*
X151454286Y-125592914D02*
X151454286Y-125545295D01*
X151454286Y-125545295D02*
X151501905Y-125450057D01*
X151501905Y-125450057D02*
X151549524Y-125402438D01*
X151549524Y-125402438D02*
X151644762Y-125354819D01*
X151644762Y-125354819D02*
X151835238Y-125354819D01*
X151835238Y-125354819D02*
X151930476Y-125402438D01*
X151930476Y-125402438D02*
X151978095Y-125450057D01*
X151978095Y-125450057D02*
X152025714Y-125545295D01*
X152025714Y-125545295D02*
X152025714Y-125592914D01*
X152025714Y-125592914D02*
X151978095Y-125688152D01*
X151978095Y-125688152D02*
X151930476Y-125735771D01*
X151930476Y-125735771D02*
X151835238Y-125783390D01*
X151835238Y-125783390D02*
X151644762Y-125783390D01*
X151644762Y-125783390D02*
X151549524Y-125831009D01*
X151549524Y-125831009D02*
X151501905Y-125878628D01*
X151501905Y-125878628D02*
X151454286Y-125973866D01*
X151454286Y-125973866D02*
X151454286Y-126164342D01*
X151454286Y-126164342D02*
X151501905Y-126259580D01*
X151501905Y-126259580D02*
X151549524Y-126307200D01*
X151549524Y-126307200D02*
X151644762Y-126354819D01*
X151644762Y-126354819D02*
X151835238Y-126354819D01*
X151835238Y-126354819D02*
X151930476Y-126307200D01*
X151930476Y-126307200D02*
X151978095Y-126259580D01*
X151978095Y-126259580D02*
X152025714Y-126164342D01*
X152025714Y-126164342D02*
X152025714Y-125973866D01*
X152025714Y-125973866D02*
X151978095Y-125878628D01*
X151978095Y-125878628D02*
X151930476Y-125831009D01*
X151930476Y-125831009D02*
X151835238Y-125783390D01*
X141533333Y-119724819D02*
X141200000Y-119248628D01*
X140961905Y-119724819D02*
X140961905Y-118724819D01*
X140961905Y-118724819D02*
X141342857Y-118724819D01*
X141342857Y-118724819D02*
X141438095Y-118772438D01*
X141438095Y-118772438D02*
X141485714Y-118820057D01*
X141485714Y-118820057D02*
X141533333Y-118915295D01*
X141533333Y-118915295D02*
X141533333Y-119058152D01*
X141533333Y-119058152D02*
X141485714Y-119153390D01*
X141485714Y-119153390D02*
X141438095Y-119201009D01*
X141438095Y-119201009D02*
X141342857Y-119248628D01*
X141342857Y-119248628D02*
X140961905Y-119248628D01*
X142009524Y-119724819D02*
X142200000Y-119724819D01*
X142200000Y-119724819D02*
X142295238Y-119677200D01*
X142295238Y-119677200D02*
X142342857Y-119629580D01*
X142342857Y-119629580D02*
X142438095Y-119486723D01*
X142438095Y-119486723D02*
X142485714Y-119296247D01*
X142485714Y-119296247D02*
X142485714Y-118915295D01*
X142485714Y-118915295D02*
X142438095Y-118820057D01*
X142438095Y-118820057D02*
X142390476Y-118772438D01*
X142390476Y-118772438D02*
X142295238Y-118724819D01*
X142295238Y-118724819D02*
X142104762Y-118724819D01*
X142104762Y-118724819D02*
X142009524Y-118772438D01*
X142009524Y-118772438D02*
X141961905Y-118820057D01*
X141961905Y-118820057D02*
X141914286Y-118915295D01*
X141914286Y-118915295D02*
X141914286Y-119153390D01*
X141914286Y-119153390D02*
X141961905Y-119248628D01*
X141961905Y-119248628D02*
X142009524Y-119296247D01*
X142009524Y-119296247D02*
X142104762Y-119343866D01*
X142104762Y-119343866D02*
X142295238Y-119343866D01*
X142295238Y-119343866D02*
X142390476Y-119296247D01*
X142390476Y-119296247D02*
X142438095Y-119248628D01*
X142438095Y-119248628D02*
X142485714Y-119153390D01*
X176366666Y-60654819D02*
X176366666Y-61369104D01*
X176366666Y-61369104D02*
X176319047Y-61511961D01*
X176319047Y-61511961D02*
X176223809Y-61607200D01*
X176223809Y-61607200D02*
X176080952Y-61654819D01*
X176080952Y-61654819D02*
X175985714Y-61654819D01*
X176747619Y-60654819D02*
X177414285Y-60654819D01*
X177414285Y-60654819D02*
X176985714Y-61654819D01*
X162033333Y-126259580D02*
X161985714Y-126307200D01*
X161985714Y-126307200D02*
X161842857Y-126354819D01*
X161842857Y-126354819D02*
X161747619Y-126354819D01*
X161747619Y-126354819D02*
X161604762Y-126307200D01*
X161604762Y-126307200D02*
X161509524Y-126211961D01*
X161509524Y-126211961D02*
X161461905Y-126116723D01*
X161461905Y-126116723D02*
X161414286Y-125926247D01*
X161414286Y-125926247D02*
X161414286Y-125783390D01*
X161414286Y-125783390D02*
X161461905Y-125592914D01*
X161461905Y-125592914D02*
X161509524Y-125497676D01*
X161509524Y-125497676D02*
X161604762Y-125402438D01*
X161604762Y-125402438D02*
X161747619Y-125354819D01*
X161747619Y-125354819D02*
X161842857Y-125354819D01*
X161842857Y-125354819D02*
X161985714Y-125402438D01*
X161985714Y-125402438D02*
X162033333Y-125450057D01*
X162509524Y-126354819D02*
X162700000Y-126354819D01*
X162700000Y-126354819D02*
X162795238Y-126307200D01*
X162795238Y-126307200D02*
X162842857Y-126259580D01*
X162842857Y-126259580D02*
X162938095Y-126116723D01*
X162938095Y-126116723D02*
X162985714Y-125926247D01*
X162985714Y-125926247D02*
X162985714Y-125545295D01*
X162985714Y-125545295D02*
X162938095Y-125450057D01*
X162938095Y-125450057D02*
X162890476Y-125402438D01*
X162890476Y-125402438D02*
X162795238Y-125354819D01*
X162795238Y-125354819D02*
X162604762Y-125354819D01*
X162604762Y-125354819D02*
X162509524Y-125402438D01*
X162509524Y-125402438D02*
X162461905Y-125450057D01*
X162461905Y-125450057D02*
X162414286Y-125545295D01*
X162414286Y-125545295D02*
X162414286Y-125783390D01*
X162414286Y-125783390D02*
X162461905Y-125878628D01*
X162461905Y-125878628D02*
X162509524Y-125926247D01*
X162509524Y-125926247D02*
X162604762Y-125973866D01*
X162604762Y-125973866D02*
X162795238Y-125973866D01*
X162795238Y-125973866D02*
X162890476Y-125926247D01*
X162890476Y-125926247D02*
X162938095Y-125878628D01*
X162938095Y-125878628D02*
X162985714Y-125783390D01*
X174833333Y-122024819D02*
X174500000Y-121548628D01*
X174261905Y-122024819D02*
X174261905Y-121024819D01*
X174261905Y-121024819D02*
X174642857Y-121024819D01*
X174642857Y-121024819D02*
X174738095Y-121072438D01*
X174738095Y-121072438D02*
X174785714Y-121120057D01*
X174785714Y-121120057D02*
X174833333Y-121215295D01*
X174833333Y-121215295D02*
X174833333Y-121358152D01*
X174833333Y-121358152D02*
X174785714Y-121453390D01*
X174785714Y-121453390D02*
X174738095Y-121501009D01*
X174738095Y-121501009D02*
X174642857Y-121548628D01*
X174642857Y-121548628D02*
X174261905Y-121548628D01*
X175404762Y-121453390D02*
X175309524Y-121405771D01*
X175309524Y-121405771D02*
X175261905Y-121358152D01*
X175261905Y-121358152D02*
X175214286Y-121262914D01*
X175214286Y-121262914D02*
X175214286Y-121215295D01*
X175214286Y-121215295D02*
X175261905Y-121120057D01*
X175261905Y-121120057D02*
X175309524Y-121072438D01*
X175309524Y-121072438D02*
X175404762Y-121024819D01*
X175404762Y-121024819D02*
X175595238Y-121024819D01*
X175595238Y-121024819D02*
X175690476Y-121072438D01*
X175690476Y-121072438D02*
X175738095Y-121120057D01*
X175738095Y-121120057D02*
X175785714Y-121215295D01*
X175785714Y-121215295D02*
X175785714Y-121262914D01*
X175785714Y-121262914D02*
X175738095Y-121358152D01*
X175738095Y-121358152D02*
X175690476Y-121405771D01*
X175690476Y-121405771D02*
X175595238Y-121453390D01*
X175595238Y-121453390D02*
X175404762Y-121453390D01*
X175404762Y-121453390D02*
X175309524Y-121501009D01*
X175309524Y-121501009D02*
X175261905Y-121548628D01*
X175261905Y-121548628D02*
X175214286Y-121643866D01*
X175214286Y-121643866D02*
X175214286Y-121834342D01*
X175214286Y-121834342D02*
X175261905Y-121929580D01*
X175261905Y-121929580D02*
X175309524Y-121977200D01*
X175309524Y-121977200D02*
X175404762Y-122024819D01*
X175404762Y-122024819D02*
X175595238Y-122024819D01*
X175595238Y-122024819D02*
X175690476Y-121977200D01*
X175690476Y-121977200D02*
X175738095Y-121929580D01*
X175738095Y-121929580D02*
X175785714Y-121834342D01*
X175785714Y-121834342D02*
X175785714Y-121643866D01*
X175785714Y-121643866D02*
X175738095Y-121548628D01*
X175738095Y-121548628D02*
X175690476Y-121501009D01*
X175690476Y-121501009D02*
X175595238Y-121453390D01*
X103738095Y-62654819D02*
X104309523Y-62654819D01*
X104023809Y-63654819D02*
X104023809Y-62654819D01*
X105166666Y-63654819D02*
X104595238Y-63654819D01*
X104880952Y-63654819D02*
X104880952Y-62654819D01*
X104880952Y-62654819D02*
X104785714Y-62797676D01*
X104785714Y-62797676D02*
X104690476Y-62892914D01*
X104690476Y-62892914D02*
X104595238Y-62940533D01*
D11*
%TO.C,T2*%
X149000000Y-63950000D02*
X173000000Y-63950000D01*
X149000000Y-85450000D02*
X149000000Y-63950000D01*
X173000000Y-63950000D02*
X173000000Y-85450000D01*
X173000000Y-85450000D02*
X149000000Y-85450000D01*
D12*
X147982841Y-67900000D02*
G75*
G02*
X147417159Y-67900000I-282841J0D01*
G01*
X147417159Y-67900000D02*
G75*
G02*
X147982841Y-67900000I282841J0D01*
G01*
D13*
%TO.C,RV2*%
X161190000Y-98295000D02*
X166240000Y-98295000D01*
X161190000Y-98295000D02*
X161190000Y-88545000D01*
X166240000Y-98295000D02*
X166240000Y-88545000D01*
X161190000Y-88545000D02*
X166240000Y-88545000D01*
%TO.C,RV1*%
X153770000Y-98395000D02*
X158820000Y-98395000D01*
X153770000Y-98395000D02*
X153770000Y-88645000D01*
X158820000Y-98395000D02*
X158820000Y-88645000D01*
X153770000Y-88645000D02*
X158820000Y-88645000D01*
%TO.C,C4*%
X153549646Y-120365000D02*
X152549646Y-120365000D01*
X153049646Y-120865000D02*
X153049646Y-119865000D01*
X148070000Y-122570000D02*
X148070000Y-112410000D01*
X148030000Y-122570000D02*
X148030000Y-112410000D01*
X147990000Y-122569000D02*
X147990000Y-112411000D01*
X147950000Y-122569000D02*
X147950000Y-112411000D01*
X147910000Y-122567000D02*
X147910000Y-112413000D01*
X147870000Y-122566000D02*
X147870000Y-112414000D01*
X147830000Y-122564000D02*
X147830000Y-112416000D01*
X147790000Y-122562000D02*
X147790000Y-112418000D01*
X147750000Y-122560000D02*
X147750000Y-112420000D01*
X147710000Y-122557000D02*
X147710000Y-112423000D01*
X147670000Y-122554000D02*
X147670000Y-112426000D01*
X147630000Y-122551000D02*
X147630000Y-112429000D01*
X147590000Y-122547000D02*
X147590000Y-112433000D01*
X147550000Y-122544000D02*
X147550000Y-112436000D01*
X147510000Y-122539000D02*
X147510000Y-112441000D01*
X147470000Y-122535000D02*
X147470000Y-112445000D01*
X147430000Y-122530000D02*
X147430000Y-112450000D01*
X147390000Y-122525000D02*
X147390000Y-112455000D01*
X147350000Y-122519000D02*
X147350000Y-112461000D01*
X147310000Y-122513000D02*
X147310000Y-112467000D01*
X147270000Y-122507000D02*
X147270000Y-112473000D01*
X147230000Y-122501000D02*
X147230000Y-112479000D01*
X147190000Y-122494000D02*
X147190000Y-112486000D01*
X147150000Y-122487000D02*
X147150000Y-112493000D01*
X147110000Y-122479000D02*
X147110000Y-112501000D01*
X147070000Y-122471000D02*
X147070000Y-112509000D01*
X147030000Y-122463000D02*
X147030000Y-112517000D01*
X146990000Y-122455000D02*
X146990000Y-112525000D01*
X146950000Y-122446000D02*
X146950000Y-112534000D01*
X146910000Y-122437000D02*
X146910000Y-112543000D01*
X146870000Y-122427000D02*
X146870000Y-112553000D01*
X146830000Y-122418000D02*
X146830000Y-112562000D01*
X146790000Y-122407000D02*
X146790000Y-118730000D01*
X146790000Y-116250000D02*
X146790000Y-112573000D01*
X146750000Y-122397000D02*
X146750000Y-118730000D01*
X146750000Y-116250000D02*
X146750000Y-112583000D01*
X146710000Y-122386000D02*
X146710000Y-118730000D01*
X146710000Y-116250000D02*
X146710000Y-112594000D01*
X146670000Y-122375000D02*
X146670000Y-118730000D01*
X146670000Y-116250000D02*
X146670000Y-112605000D01*
X146630000Y-122363000D02*
X146630000Y-118730000D01*
X146630000Y-116250000D02*
X146630000Y-112617000D01*
X146590000Y-122351000D02*
X146590000Y-118730000D01*
X146590000Y-116250000D02*
X146590000Y-112629000D01*
X146550000Y-122339000D02*
X146550000Y-118730000D01*
X146550000Y-116250000D02*
X146550000Y-112641000D01*
X146510000Y-122327000D02*
X146510000Y-118730000D01*
X146510000Y-116250000D02*
X146510000Y-112653000D01*
X146470000Y-122314000D02*
X146470000Y-118730000D01*
X146470000Y-116250000D02*
X146470000Y-112666000D01*
X146430000Y-122300000D02*
X146430000Y-118730000D01*
X146430000Y-116250000D02*
X146430000Y-112680000D01*
X146390000Y-122287000D02*
X146390000Y-118730000D01*
X146390000Y-116250000D02*
X146390000Y-112693000D01*
X146350000Y-122272000D02*
X146350000Y-118730000D01*
X146350000Y-116250000D02*
X146350000Y-112708000D01*
X146310000Y-122258000D02*
X146310000Y-118730000D01*
X146310000Y-116250000D02*
X146310000Y-112722000D01*
X146270000Y-122243000D02*
X146270000Y-118730000D01*
X146270000Y-116250000D02*
X146270000Y-112737000D01*
X146230000Y-122228000D02*
X146230000Y-118730000D01*
X146230000Y-116250000D02*
X146230000Y-112752000D01*
X146190000Y-122212000D02*
X146190000Y-118730000D01*
X146190000Y-116250000D02*
X146190000Y-112768000D01*
X146150000Y-122196000D02*
X146150000Y-118730000D01*
X146150000Y-116250000D02*
X146150000Y-112784000D01*
X146110000Y-122180000D02*
X146110000Y-118730000D01*
X146110000Y-116250000D02*
X146110000Y-112800000D01*
X146070000Y-122163000D02*
X146070000Y-118730000D01*
X146070000Y-116250000D02*
X146070000Y-112817000D01*
X146030000Y-122146000D02*
X146030000Y-118730000D01*
X146030000Y-116250000D02*
X146030000Y-112834000D01*
X145990000Y-122128000D02*
X145990000Y-118730000D01*
X145990000Y-116250000D02*
X145990000Y-112852000D01*
X145950000Y-122110000D02*
X145950000Y-118730000D01*
X145950000Y-116250000D02*
X145950000Y-112870000D01*
X145910000Y-122092000D02*
X145910000Y-118730000D01*
X145910000Y-116250000D02*
X145910000Y-112888000D01*
X145870000Y-122073000D02*
X145870000Y-118730000D01*
X145870000Y-116250000D02*
X145870000Y-112907000D01*
X145830000Y-122054000D02*
X145830000Y-118730000D01*
X145830000Y-116250000D02*
X145830000Y-112926000D01*
X145790000Y-122034000D02*
X145790000Y-118730000D01*
X145790000Y-116250000D02*
X145790000Y-112946000D01*
X145750000Y-122014000D02*
X145750000Y-118730000D01*
X145750000Y-116250000D02*
X145750000Y-112966000D01*
X145710000Y-121994000D02*
X145710000Y-118730000D01*
X145710000Y-116250000D02*
X145710000Y-112986000D01*
X145670000Y-121973000D02*
X145670000Y-118730000D01*
X145670000Y-116250000D02*
X145670000Y-113007000D01*
X145630000Y-121951000D02*
X145630000Y-118730000D01*
X145630000Y-116250000D02*
X145630000Y-113029000D01*
X145590000Y-121929000D02*
X145590000Y-118730000D01*
X145590000Y-116250000D02*
X145590000Y-113051000D01*
X145550000Y-121907000D02*
X145550000Y-118730000D01*
X145550000Y-116250000D02*
X145550000Y-113073000D01*
X145510000Y-121884000D02*
X145510000Y-118730000D01*
X145510000Y-116250000D02*
X145510000Y-113096000D01*
X145470000Y-121861000D02*
X145470000Y-118730000D01*
X145470000Y-116250000D02*
X145470000Y-113119000D01*
X145430000Y-121837000D02*
X145430000Y-118730000D01*
X145430000Y-116250000D02*
X145430000Y-113143000D01*
X145390000Y-121813000D02*
X145390000Y-118730000D01*
X145390000Y-116250000D02*
X145390000Y-113167000D01*
X145350000Y-121788000D02*
X145350000Y-118730000D01*
X145350000Y-116250000D02*
X145350000Y-113192000D01*
X145310000Y-121762000D02*
X145310000Y-118730000D01*
X145310000Y-116250000D02*
X145310000Y-113218000D01*
X145270000Y-121737000D02*
X145270000Y-118730000D01*
X145270000Y-116250000D02*
X145270000Y-113243000D01*
X145230000Y-121710000D02*
X145230000Y-118730000D01*
X145230000Y-116250000D02*
X145230000Y-113270000D01*
X145190000Y-121683000D02*
X145190000Y-118730000D01*
X145190000Y-116250000D02*
X145190000Y-113297000D01*
X145150000Y-121656000D02*
X145150000Y-118730000D01*
X145150000Y-116250000D02*
X145150000Y-113324000D01*
X145110000Y-121628000D02*
X145110000Y-118730000D01*
X145110000Y-116250000D02*
X145110000Y-113352000D01*
X145070000Y-121599000D02*
X145070000Y-118730000D01*
X145070000Y-116250000D02*
X145070000Y-113381000D01*
X145030000Y-121570000D02*
X145030000Y-118730000D01*
X145030000Y-116250000D02*
X145030000Y-113410000D01*
X144990000Y-121540000D02*
X144990000Y-118730000D01*
X144990000Y-116250000D02*
X144990000Y-113440000D01*
X144950000Y-121510000D02*
X144950000Y-118730000D01*
X144950000Y-116250000D02*
X144950000Y-113470000D01*
X144910000Y-121478000D02*
X144910000Y-118730000D01*
X144910000Y-116250000D02*
X144910000Y-113502000D01*
X144870000Y-121447000D02*
X144870000Y-118730000D01*
X144870000Y-116250000D02*
X144870000Y-113533000D01*
X144830000Y-121414000D02*
X144830000Y-118730000D01*
X144830000Y-116250000D02*
X144830000Y-113566000D01*
X144790000Y-121381000D02*
X144790000Y-118730000D01*
X144790000Y-116250000D02*
X144790000Y-113599000D01*
X144750000Y-121348000D02*
X144750000Y-118730000D01*
X144750000Y-116250000D02*
X144750000Y-113632000D01*
X144710000Y-121313000D02*
X144710000Y-118730000D01*
X144710000Y-116250000D02*
X144710000Y-113667000D01*
X144670000Y-121278000D02*
X144670000Y-118730000D01*
X144670000Y-116250000D02*
X144670000Y-113702000D01*
X144630000Y-121242000D02*
X144630000Y-118730000D01*
X144630000Y-116250000D02*
X144630000Y-113738000D01*
X144590000Y-121206000D02*
X144590000Y-118730000D01*
X144590000Y-116250000D02*
X144590000Y-113774000D01*
X144550000Y-121168000D02*
X144550000Y-118730000D01*
X144550000Y-116250000D02*
X144550000Y-113812000D01*
X144510000Y-121130000D02*
X144510000Y-118730000D01*
X144510000Y-116250000D02*
X144510000Y-113850000D01*
X144470000Y-121091000D02*
X144470000Y-118730000D01*
X144470000Y-116250000D02*
X144470000Y-113889000D01*
X144430000Y-121051000D02*
X144430000Y-118730000D01*
X144430000Y-116250000D02*
X144430000Y-113929000D01*
X144390000Y-121010000D02*
X144390000Y-118730000D01*
X144390000Y-116250000D02*
X144390000Y-113970000D01*
X144350000Y-120968000D02*
X144350000Y-118730000D01*
X144350000Y-116250000D02*
X144350000Y-114012000D01*
X144310000Y-120925000D02*
X144310000Y-114055000D01*
X144270000Y-120881000D02*
X144270000Y-114099000D01*
X144230000Y-120837000D02*
X144230000Y-114143000D01*
X144190000Y-120791000D02*
X144190000Y-114189000D01*
X144150000Y-120744000D02*
X144150000Y-114236000D01*
X144110000Y-120695000D02*
X144110000Y-114285000D01*
X144070000Y-120646000D02*
X144070000Y-114334000D01*
X144030000Y-120595000D02*
X144030000Y-114385000D01*
X143990000Y-120543000D02*
X143990000Y-114437000D01*
X143950000Y-120490000D02*
X143950000Y-114490000D01*
X143910000Y-120435000D02*
X143910000Y-114545000D01*
X143870000Y-120378000D02*
X143870000Y-114602000D01*
X143830000Y-120320000D02*
X143830000Y-114660000D01*
X143790000Y-120260000D02*
X143790000Y-114720000D01*
X143750000Y-120198000D02*
X143750000Y-114782000D01*
X143710000Y-120134000D02*
X143710000Y-114846000D01*
X143670000Y-120068000D02*
X143670000Y-114912000D01*
X143630000Y-120000000D02*
X143630000Y-114980000D01*
X143590000Y-119929000D02*
X143590000Y-115051000D01*
X143550000Y-119855000D02*
X143550000Y-115125000D01*
X143510000Y-119778000D02*
X143510000Y-115202000D01*
X143470000Y-119698000D02*
X143470000Y-115282000D01*
X143430000Y-119614000D02*
X143430000Y-115366000D01*
X143390000Y-119527000D02*
X143390000Y-115453000D01*
X143350000Y-119434000D02*
X143350000Y-115546000D01*
X143310000Y-119336000D02*
X143310000Y-115644000D01*
X143270000Y-119232000D02*
X143270000Y-115748000D01*
X143230000Y-119120000D02*
X143230000Y-115860000D01*
X143190000Y-118999000D02*
X143190000Y-115981000D01*
X143150000Y-118867000D02*
X143150000Y-116113000D01*
X143110000Y-118720000D02*
X143110000Y-116260000D01*
X143070000Y-118552000D02*
X143070000Y-116428000D01*
X143030000Y-118352000D02*
X143030000Y-116628000D01*
X142990000Y-118089000D02*
X142990000Y-116891000D01*
X153190000Y-117490000D02*
G75*
G02*
X142950000Y-117490000I-5120000J0D01*
G01*
X142950000Y-117490000D02*
G75*
G02*
X153190000Y-117490000I5120000J0D01*
G01*
%TO.C,C3*%
X177647323Y-94655000D02*
X176647323Y-94655000D01*
X177147323Y-95155000D02*
X177147323Y-94155000D01*
X172167677Y-96860000D02*
X172167677Y-86700000D01*
X172127677Y-96860000D02*
X172127677Y-86700000D01*
X172087677Y-96859000D02*
X172087677Y-86701000D01*
X172047677Y-96859000D02*
X172047677Y-86701000D01*
X172007677Y-96857000D02*
X172007677Y-86703000D01*
X171967677Y-96856000D02*
X171967677Y-86704000D01*
X171927677Y-96854000D02*
X171927677Y-86706000D01*
X171887677Y-96852000D02*
X171887677Y-86708000D01*
X171847677Y-96850000D02*
X171847677Y-86710000D01*
X171807677Y-96847000D02*
X171807677Y-86713000D01*
X171767677Y-96844000D02*
X171767677Y-86716000D01*
X171727677Y-96841000D02*
X171727677Y-86719000D01*
X171687677Y-96837000D02*
X171687677Y-86723000D01*
X171647677Y-96834000D02*
X171647677Y-86726000D01*
X171607677Y-96829000D02*
X171607677Y-86731000D01*
X171567677Y-96825000D02*
X171567677Y-86735000D01*
X171527677Y-96820000D02*
X171527677Y-86740000D01*
X171487677Y-96815000D02*
X171487677Y-86745000D01*
X171447677Y-96809000D02*
X171447677Y-86751000D01*
X171407677Y-96803000D02*
X171407677Y-86757000D01*
X171367677Y-96797000D02*
X171367677Y-86763000D01*
X171327677Y-96791000D02*
X171327677Y-86769000D01*
X171287677Y-96784000D02*
X171287677Y-86776000D01*
X171247677Y-96777000D02*
X171247677Y-86783000D01*
X171207677Y-96769000D02*
X171207677Y-86791000D01*
X171167677Y-96761000D02*
X171167677Y-86799000D01*
X171127677Y-96753000D02*
X171127677Y-86807000D01*
X171087677Y-96745000D02*
X171087677Y-86815000D01*
X171047677Y-96736000D02*
X171047677Y-86824000D01*
X171007677Y-96727000D02*
X171007677Y-86833000D01*
X170967677Y-96717000D02*
X170967677Y-86843000D01*
X170927677Y-96708000D02*
X170927677Y-86852000D01*
X170887677Y-96697000D02*
X170887677Y-93020000D01*
X170887677Y-90540000D02*
X170887677Y-86863000D01*
X170847677Y-96687000D02*
X170847677Y-93020000D01*
X170847677Y-90540000D02*
X170847677Y-86873000D01*
X170807677Y-96676000D02*
X170807677Y-93020000D01*
X170807677Y-90540000D02*
X170807677Y-86884000D01*
X170767677Y-96665000D02*
X170767677Y-93020000D01*
X170767677Y-90540000D02*
X170767677Y-86895000D01*
X170727677Y-96653000D02*
X170727677Y-93020000D01*
X170727677Y-90540000D02*
X170727677Y-86907000D01*
X170687677Y-96641000D02*
X170687677Y-93020000D01*
X170687677Y-90540000D02*
X170687677Y-86919000D01*
X170647677Y-96629000D02*
X170647677Y-93020000D01*
X170647677Y-90540000D02*
X170647677Y-86931000D01*
X170607677Y-96617000D02*
X170607677Y-93020000D01*
X170607677Y-90540000D02*
X170607677Y-86943000D01*
X170567677Y-96604000D02*
X170567677Y-93020000D01*
X170567677Y-90540000D02*
X170567677Y-86956000D01*
X170527677Y-96590000D02*
X170527677Y-93020000D01*
X170527677Y-90540000D02*
X170527677Y-86970000D01*
X170487677Y-96577000D02*
X170487677Y-93020000D01*
X170487677Y-90540000D02*
X170487677Y-86983000D01*
X170447677Y-96562000D02*
X170447677Y-93020000D01*
X170447677Y-90540000D02*
X170447677Y-86998000D01*
X170407677Y-96548000D02*
X170407677Y-93020000D01*
X170407677Y-90540000D02*
X170407677Y-87012000D01*
X170367677Y-96533000D02*
X170367677Y-93020000D01*
X170367677Y-90540000D02*
X170367677Y-87027000D01*
X170327677Y-96518000D02*
X170327677Y-93020000D01*
X170327677Y-90540000D02*
X170327677Y-87042000D01*
X170287677Y-96502000D02*
X170287677Y-93020000D01*
X170287677Y-90540000D02*
X170287677Y-87058000D01*
X170247677Y-96486000D02*
X170247677Y-93020000D01*
X170247677Y-90540000D02*
X170247677Y-87074000D01*
X170207677Y-96470000D02*
X170207677Y-93020000D01*
X170207677Y-90540000D02*
X170207677Y-87090000D01*
X170167677Y-96453000D02*
X170167677Y-93020000D01*
X170167677Y-90540000D02*
X170167677Y-87107000D01*
X170127677Y-96436000D02*
X170127677Y-93020000D01*
X170127677Y-90540000D02*
X170127677Y-87124000D01*
X170087677Y-96418000D02*
X170087677Y-93020000D01*
X170087677Y-90540000D02*
X170087677Y-87142000D01*
X170047677Y-96400000D02*
X170047677Y-93020000D01*
X170047677Y-90540000D02*
X170047677Y-87160000D01*
X170007677Y-96382000D02*
X170007677Y-93020000D01*
X170007677Y-90540000D02*
X170007677Y-87178000D01*
X169967677Y-96363000D02*
X169967677Y-93020000D01*
X169967677Y-90540000D02*
X169967677Y-87197000D01*
X169927677Y-96344000D02*
X169927677Y-93020000D01*
X169927677Y-90540000D02*
X169927677Y-87216000D01*
X169887677Y-96324000D02*
X169887677Y-93020000D01*
X169887677Y-90540000D02*
X169887677Y-87236000D01*
X169847677Y-96304000D02*
X169847677Y-93020000D01*
X169847677Y-90540000D02*
X169847677Y-87256000D01*
X169807677Y-96284000D02*
X169807677Y-93020000D01*
X169807677Y-90540000D02*
X169807677Y-87276000D01*
X169767677Y-96263000D02*
X169767677Y-93020000D01*
X169767677Y-90540000D02*
X169767677Y-87297000D01*
X169727677Y-96241000D02*
X169727677Y-93020000D01*
X169727677Y-90540000D02*
X169727677Y-87319000D01*
X169687677Y-96219000D02*
X169687677Y-93020000D01*
X169687677Y-90540000D02*
X169687677Y-87341000D01*
X169647677Y-96197000D02*
X169647677Y-93020000D01*
X169647677Y-90540000D02*
X169647677Y-87363000D01*
X169607677Y-96174000D02*
X169607677Y-93020000D01*
X169607677Y-90540000D02*
X169607677Y-87386000D01*
X169567677Y-96151000D02*
X169567677Y-93020000D01*
X169567677Y-90540000D02*
X169567677Y-87409000D01*
X169527677Y-96127000D02*
X169527677Y-93020000D01*
X169527677Y-90540000D02*
X169527677Y-87433000D01*
X169487677Y-96103000D02*
X169487677Y-93020000D01*
X169487677Y-90540000D02*
X169487677Y-87457000D01*
X169447677Y-96078000D02*
X169447677Y-93020000D01*
X169447677Y-90540000D02*
X169447677Y-87482000D01*
X169407677Y-96052000D02*
X169407677Y-93020000D01*
X169407677Y-90540000D02*
X169407677Y-87508000D01*
X169367677Y-96027000D02*
X169367677Y-93020000D01*
X169367677Y-90540000D02*
X169367677Y-87533000D01*
X169327677Y-96000000D02*
X169327677Y-93020000D01*
X169327677Y-90540000D02*
X169327677Y-87560000D01*
X169287677Y-95973000D02*
X169287677Y-93020000D01*
X169287677Y-90540000D02*
X169287677Y-87587000D01*
X169247677Y-95946000D02*
X169247677Y-93020000D01*
X169247677Y-90540000D02*
X169247677Y-87614000D01*
X169207677Y-95918000D02*
X169207677Y-93020000D01*
X169207677Y-90540000D02*
X169207677Y-87642000D01*
X169167677Y-95889000D02*
X169167677Y-93020000D01*
X169167677Y-90540000D02*
X169167677Y-87671000D01*
X169127677Y-95860000D02*
X169127677Y-93020000D01*
X169127677Y-90540000D02*
X169127677Y-87700000D01*
X169087677Y-95830000D02*
X169087677Y-93020000D01*
X169087677Y-90540000D02*
X169087677Y-87730000D01*
X169047677Y-95800000D02*
X169047677Y-93020000D01*
X169047677Y-90540000D02*
X169047677Y-87760000D01*
X169007677Y-95768000D02*
X169007677Y-93020000D01*
X169007677Y-90540000D02*
X169007677Y-87792000D01*
X168967677Y-95737000D02*
X168967677Y-93020000D01*
X168967677Y-90540000D02*
X168967677Y-87823000D01*
X168927677Y-95704000D02*
X168927677Y-93020000D01*
X168927677Y-90540000D02*
X168927677Y-87856000D01*
X168887677Y-95671000D02*
X168887677Y-93020000D01*
X168887677Y-90540000D02*
X168887677Y-87889000D01*
X168847677Y-95638000D02*
X168847677Y-93020000D01*
X168847677Y-90540000D02*
X168847677Y-87922000D01*
X168807677Y-95603000D02*
X168807677Y-93020000D01*
X168807677Y-90540000D02*
X168807677Y-87957000D01*
X168767677Y-95568000D02*
X168767677Y-93020000D01*
X168767677Y-90540000D02*
X168767677Y-87992000D01*
X168727677Y-95532000D02*
X168727677Y-93020000D01*
X168727677Y-90540000D02*
X168727677Y-88028000D01*
X168687677Y-95496000D02*
X168687677Y-93020000D01*
X168687677Y-90540000D02*
X168687677Y-88064000D01*
X168647677Y-95458000D02*
X168647677Y-93020000D01*
X168647677Y-90540000D02*
X168647677Y-88102000D01*
X168607677Y-95420000D02*
X168607677Y-93020000D01*
X168607677Y-90540000D02*
X168607677Y-88140000D01*
X168567677Y-95381000D02*
X168567677Y-93020000D01*
X168567677Y-90540000D02*
X168567677Y-88179000D01*
X168527677Y-95341000D02*
X168527677Y-93020000D01*
X168527677Y-90540000D02*
X168527677Y-88219000D01*
X168487677Y-95300000D02*
X168487677Y-93020000D01*
X168487677Y-90540000D02*
X168487677Y-88260000D01*
X168447677Y-95258000D02*
X168447677Y-93020000D01*
X168447677Y-90540000D02*
X168447677Y-88302000D01*
X168407677Y-95215000D02*
X168407677Y-88345000D01*
X168367677Y-95171000D02*
X168367677Y-88389000D01*
X168327677Y-95127000D02*
X168327677Y-88433000D01*
X168287677Y-95081000D02*
X168287677Y-88479000D01*
X168247677Y-95034000D02*
X168247677Y-88526000D01*
X168207677Y-94985000D02*
X168207677Y-88575000D01*
X168167677Y-94936000D02*
X168167677Y-88624000D01*
X168127677Y-94885000D02*
X168127677Y-88675000D01*
X168087677Y-94833000D02*
X168087677Y-88727000D01*
X168047677Y-94780000D02*
X168047677Y-88780000D01*
X168007677Y-94725000D02*
X168007677Y-88835000D01*
X167967677Y-94668000D02*
X167967677Y-88892000D01*
X167927677Y-94610000D02*
X167927677Y-88950000D01*
X167887677Y-94550000D02*
X167887677Y-89010000D01*
X167847677Y-94488000D02*
X167847677Y-89072000D01*
X167807677Y-94424000D02*
X167807677Y-89136000D01*
X167767677Y-94358000D02*
X167767677Y-89202000D01*
X167727677Y-94290000D02*
X167727677Y-89270000D01*
X167687677Y-94219000D02*
X167687677Y-89341000D01*
X167647677Y-94145000D02*
X167647677Y-89415000D01*
X167607677Y-94068000D02*
X167607677Y-89492000D01*
X167567677Y-93988000D02*
X167567677Y-89572000D01*
X167527677Y-93904000D02*
X167527677Y-89656000D01*
X167487677Y-93817000D02*
X167487677Y-89743000D01*
X167447677Y-93724000D02*
X167447677Y-89836000D01*
X167407677Y-93626000D02*
X167407677Y-89934000D01*
X167367677Y-93522000D02*
X167367677Y-90038000D01*
X167327677Y-93410000D02*
X167327677Y-90150000D01*
X167287677Y-93289000D02*
X167287677Y-90271000D01*
X167247677Y-93157000D02*
X167247677Y-90403000D01*
X167207677Y-93010000D02*
X167207677Y-90550000D01*
X167167677Y-92842000D02*
X167167677Y-90718000D01*
X167127677Y-92642000D02*
X167127677Y-90918000D01*
X167087677Y-92379000D02*
X167087677Y-91181000D01*
X177287677Y-91780000D02*
G75*
G02*
X167047677Y-91780000I-5120000J0D01*
G01*
X167047677Y-91780000D02*
G75*
G02*
X177287677Y-91780000I5120000J0D01*
G01*
%TO.C,U4*%
X161740000Y-123330000D02*
X161740000Y-113050000D01*
X161740000Y-113050000D02*
X156440000Y-113050000D01*
X160090000Y-123330000D02*
X161740000Y-123330000D01*
X156440000Y-123330000D02*
X158090000Y-123330000D01*
X156440000Y-113050000D02*
X156440000Y-123330000D01*
X164230000Y-123390000D02*
X153950000Y-123390000D01*
X153950000Y-112990000D01*
X164230000Y-112990000D01*
X164230000Y-123390000D01*
X158090000Y-123330000D02*
G75*
G02*
X160090000Y-123330000I1000000J0D01*
G01*
%TO.C,R1*%
X147355000Y-77023737D02*
X147355000Y-75576263D01*
X144645000Y-77023737D02*
X144645000Y-75576263D01*
%TO.C,J5*%
X101320000Y-118670000D02*
X102700000Y-118670000D01*
X101320000Y-120050000D02*
X101320000Y-118670000D01*
X101320000Y-121320000D02*
X101320000Y-123970000D01*
X101320000Y-121320000D02*
X104080000Y-121320000D01*
X101320000Y-123970000D02*
X104080000Y-123970000D01*
X104080000Y-121320000D02*
X104080000Y-123970000D01*
%TO.C,D2*%
X176050000Y-83210000D02*
X177320000Y-83210000D01*
X177350000Y-80090000D02*
X176050000Y-80090000D01*
X177940000Y-83490000D02*
X177460000Y-83490000D01*
X177700000Y-83160000D01*
X177940000Y-83490000D01*
G36*
X177940000Y-83490000D02*
G01*
X177460000Y-83490000D01*
X177700000Y-83160000D01*
X177940000Y-83490000D01*
G37*
%TO.C,C13*%
X146761252Y-126765000D02*
X146238748Y-126765000D01*
X146761252Y-128235000D02*
X146238748Y-128235000D01*
%TO.C,C14*%
X146761252Y-131665000D02*
X146238748Y-131665000D01*
X146761252Y-133135000D02*
X146238748Y-133135000D01*
%TO.C,C6*%
X156261252Y-131765000D02*
X155738748Y-131765000D01*
X156261252Y-133235000D02*
X155738748Y-133235000D01*
%TO.C,C10*%
X142011252Y-123165000D02*
X141488748Y-123165000D01*
X142011252Y-124635000D02*
X141488748Y-124635000D01*
%TO.C,D1*%
X176050000Y-77860000D02*
X177350000Y-77860000D01*
X177350000Y-74740000D02*
X176080000Y-74740000D01*
X175700000Y-74790000D02*
X175460000Y-74460000D01*
X175940000Y-74460000D01*
X175700000Y-74790000D01*
G36*
X175700000Y-74790000D02*
G01*
X175460000Y-74460000D01*
X175940000Y-74460000D01*
X175700000Y-74790000D01*
G37*
%TO.C,R10*%
X169762742Y-126822500D02*
X170237258Y-126822500D01*
X169762742Y-125777500D02*
X170237258Y-125777500D01*
D10*
%TO.C,U5*%
X170625000Y-99375000D02*
X170625000Y-99600000D01*
X170625000Y-99375000D02*
X173875000Y-99375000D01*
X170625000Y-102625000D02*
X170625000Y-102400000D01*
X170625000Y-102625000D02*
X173875000Y-102625000D01*
X173875000Y-99375000D02*
X173875000Y-99600000D01*
X173875000Y-102625000D02*
X173875000Y-102400000D01*
D13*
X170150000Y-99600000D02*
X169910000Y-99270000D01*
X170390000Y-99270000D01*
X170150000Y-99600000D01*
G36*
X170150000Y-99600000D02*
G01*
X169910000Y-99270000D01*
X170390000Y-99270000D01*
X170150000Y-99600000D01*
G37*
%TO.C,R6*%
X174762742Y-114477500D02*
X175237258Y-114477500D01*
X174762742Y-115522500D02*
X175237258Y-115522500D01*
%TO.C,D4*%
X142060000Y-134400000D02*
X138050000Y-134400000D01*
X142060000Y-136400000D02*
X138050000Y-136400000D01*
X142060000Y-136400000D02*
X142060000Y-134400000D01*
%TO.C,F1*%
X168560000Y-59400000D02*
X168560000Y-59400000D01*
D14*
X143560000Y-53300000D02*
X167560000Y-53300000D01*
X167560000Y-59300000D01*
X143560000Y-59300000D01*
X143560000Y-53300000D01*
D13*
%TO.C,U2*%
X146829000Y-88420000D02*
X146829000Y-98660000D01*
X149960000Y-88420000D02*
X149960000Y-98660000D01*
X151470000Y-88420000D02*
X146829000Y-88420000D01*
X151470000Y-88420000D02*
X151470000Y-98660000D01*
X151470000Y-91690000D02*
X149960000Y-91690000D01*
X151470000Y-95391000D02*
X149960000Y-95391000D01*
X151470000Y-98660000D02*
X146829000Y-98660000D01*
%TO.C,R4*%
X169762742Y-122477500D02*
X170237258Y-122477500D01*
X169762742Y-123522500D02*
X170237258Y-123522500D01*
%TO.C,C1*%
X143865000Y-102876248D02*
X143865000Y-103398752D01*
X145335000Y-102876248D02*
X145335000Y-103398752D01*
%TO.C,R7*%
X174762742Y-118477500D02*
X175237258Y-118477500D01*
X174762742Y-119522500D02*
X175237258Y-119522500D01*
%TO.C,R13*%
X137462742Y-123377500D02*
X137937258Y-123377500D01*
X137462742Y-124422500D02*
X137937258Y-124422500D01*
%TO.C,C5*%
X156261252Y-126765000D02*
X155738748Y-126765000D01*
X156261252Y-128235000D02*
X155738748Y-128235000D01*
%TO.C,R2*%
X169762742Y-114477500D02*
X170237258Y-114477500D01*
X169762742Y-115522500D02*
X170237258Y-115522500D01*
%TO.C,R3*%
X169762742Y-118477500D02*
X170237258Y-118477500D01*
X169762742Y-119522500D02*
X170237258Y-119522500D01*
D10*
%TO.C,U3*%
X155575000Y-102825000D02*
X155575000Y-103050000D01*
X155575000Y-102825000D02*
X155900000Y-102825000D01*
X155575000Y-110075000D02*
X155575000Y-109750000D01*
X155575000Y-110075000D02*
X155900000Y-110075000D01*
X162825000Y-102825000D02*
X162500000Y-102825000D01*
X162825000Y-102825000D02*
X162825000Y-103150000D01*
X162825000Y-110075000D02*
X162500000Y-110075000D01*
X162825000Y-110075000D02*
X162825000Y-109750000D01*
D13*
X154810000Y-103110000D02*
X154470000Y-102640000D01*
X155150000Y-102640000D01*
X154810000Y-103110000D01*
G36*
X154810000Y-103110000D02*
G01*
X154470000Y-102640000D01*
X155150000Y-102640000D01*
X154810000Y-103110000D01*
G37*
%TO.C,R5*%
X172737258Y-110477500D02*
X172262742Y-110477500D01*
X172737258Y-111522500D02*
X172262742Y-111522500D01*
%TO.C,R14*%
X137937258Y-126977500D02*
X137462742Y-126977500D01*
X137937258Y-128022500D02*
X137462742Y-128022500D01*
D10*
%TO.C,U6*%
X170625000Y-104875000D02*
X170625000Y-105100000D01*
X170625000Y-104875000D02*
X173875000Y-104875000D01*
X170625000Y-108125000D02*
X170625000Y-107900000D01*
X170625000Y-108125000D02*
X173875000Y-108125000D01*
X173875000Y-104875000D02*
X173875000Y-105100000D01*
X173875000Y-108125000D02*
X173875000Y-107900000D01*
D13*
X170150000Y-105100000D02*
X169910000Y-104770000D01*
X170390000Y-104770000D01*
X170150000Y-105100000D01*
G36*
X170150000Y-105100000D02*
G01*
X169910000Y-104770000D01*
X170390000Y-104770000D01*
X170150000Y-105100000D01*
G37*
%TO.C,R16*%
X151002742Y-131877500D02*
X151477258Y-131877500D01*
X151002742Y-132922500D02*
X151477258Y-132922500D01*
%TO.C,C2*%
X143865000Y-109998752D02*
X143865000Y-109476248D01*
X145335000Y-109998752D02*
X145335000Y-109476248D01*
%TO.C,U1*%
X146829000Y-101340000D02*
X146829000Y-111580000D01*
X149960000Y-101340000D02*
X149960000Y-111580000D01*
X151470000Y-101340000D02*
X146829000Y-101340000D01*
X151470000Y-101340000D02*
X151470000Y-111580000D01*
X151470000Y-104610000D02*
X149960000Y-104610000D01*
X151470000Y-108311000D02*
X149960000Y-108311000D01*
X151470000Y-111580000D02*
X146829000Y-111580000D01*
%TO.C,R11*%
X174762742Y-125777500D02*
X175237258Y-125777500D01*
X174762742Y-126822500D02*
X175237258Y-126822500D01*
%TO.C,R15*%
X137637258Y-131877500D02*
X137162742Y-131877500D01*
X137637258Y-132922500D02*
X137162742Y-132922500D01*
%TO.C,C7*%
X162561252Y-131765000D02*
X162038748Y-131765000D01*
X162561252Y-133235000D02*
X162038748Y-133235000D01*
%TO.C,C12*%
X142011252Y-131665000D02*
X141488748Y-131665000D01*
X142011252Y-133135000D02*
X141488748Y-133135000D01*
%TO.C,R12*%
X137462742Y-120177500D02*
X137937258Y-120177500D01*
X137462742Y-121222500D02*
X137937258Y-121222500D01*
%TO.C,C11*%
X142011252Y-126765000D02*
X141488748Y-126765000D01*
X142011252Y-128235000D02*
X141488748Y-128235000D01*
%TO.C,D3*%
X142060000Y-116300000D02*
X138050000Y-116300000D01*
X142060000Y-118300000D02*
X138050000Y-118300000D01*
X142060000Y-118300000D02*
X142060000Y-116300000D01*
%TO.C,C8*%
X150978748Y-126765000D02*
X151501252Y-126765000D01*
X150978748Y-128235000D02*
X151501252Y-128235000D01*
%TO.C,R9*%
X141462742Y-120177500D02*
X141937258Y-120177500D01*
X141462742Y-121222500D02*
X141937258Y-121222500D01*
%TO.C,J7*%
X175320000Y-69930000D02*
X175320000Y-62200000D01*
X178080000Y-62200000D02*
X175320000Y-62200000D01*
X178080000Y-69930000D02*
X175320000Y-69930000D01*
X178080000Y-69930000D02*
X178080000Y-62200000D01*
X178080000Y-71200000D02*
X178080000Y-72580000D01*
X178080000Y-72580000D02*
X176700000Y-72580000D01*
%TO.C,C9*%
X161901248Y-126765000D02*
X162423752Y-126765000D01*
X161901248Y-128235000D02*
X162423752Y-128235000D01*
%TO.C,R8*%
X174762742Y-122477500D02*
X175237258Y-122477500D01*
X174762742Y-123522500D02*
X175237258Y-123522500D01*
D11*
%TO.C,T1*%
X102884600Y-64327500D02*
X102884600Y-111952500D01*
X102884600Y-64327500D02*
X142559400Y-64327500D01*
X102884600Y-111952500D02*
X142559400Y-111952500D01*
X142559400Y-64327500D02*
X142559400Y-111952500D01*
D15*
X101692712Y-78070500D02*
G75*
G02*
X101376488Y-78070500I-158112J0D01*
G01*
X101376488Y-78070500D02*
G75*
G02*
X101692712Y-78070500I158112J0D01*
G01*
%TD*%
M02*
