%TF.GenerationSoftware,KiCad,Pcbnew,9.0.1*%
%TF.CreationDate,2025-04-03T12:43:54-07:00*%
%TF.ProjectId,Final_Board-v3B,46696e61-6c5f-4426-9f61-72642d763342,rev?*%
%TF.SameCoordinates,Original*%
%TF.FileFunction,Soldermask,Top*%
%TF.FilePolarity,Negative*%
%FSLAX46Y46*%
G04 Gerber Fmt 4.6, Leading zero omitted, Abs format (unit mm)*
G04 Created by KiCad (PCBNEW 9.0.1) date 2025-04-03 12:43:54*
%MOMM*%
%LPD*%
G01*
G04 APERTURE LIST*
G04 Aperture macros list*
%AMRoundRect*
0 Rectangle with rounded corners*
0 $1 Rounding radius*
0 $2 $3 $4 $5 $6 $7 $8 $9 X,Y pos of 4 corners*
0 Add a 4 corners polygon primitive as box body*
4,1,4,$2,$3,$4,$5,$6,$7,$8,$9,$2,$3,0*
0 Add four circle primitives for the rounded corners*
1,1,$1+$1,$2,$3*
1,1,$1+$1,$4,$5*
1,1,$1+$1,$6,$7*
1,1,$1+$1,$8,$9*
0 Add four rect primitives between the rounded corners*
20,1,$1+$1,$2,$3,$4,$5,0*
20,1,$1+$1,$4,$5,$6,$7,0*
20,1,$1+$1,$6,$7,$8,$9,0*
20,1,$1+$1,$8,$9,$2,$3,0*%
%AMFreePoly0*
4,1,5,2.250000,-4.000000,-2.250000,-4.000000,-2.250000,4.000000,2.250000,4.000000,2.250000,-4.000000,2.250000,-4.000000,$1*%
%AMFreePoly1*
4,1,5,1.500000,-2.250000,-1.500000,-2.250000,-1.500000,2.250000,1.500000,2.250000,1.500000,-2.250000,1.500000,-2.250000,$1*%
%AMFreePoly2*
4,1,5,4.000000,-2.250000,-4.000000,-2.250000,-4.000000,2.250000,4.000000,2.250000,4.000000,-2.250000,4.000000,-2.250000,$1*%
G04 Aperture macros list end*
%ADD10C,2.600000*%
%ADD11C,3.500000*%
%ADD12RoundRect,0.250002X-1.699998X-1.699998X1.699998X-1.699998X1.699998X1.699998X-1.699998X1.699998X0*%
%ADD13RoundRect,0.102000X-1.125000X-1.125000X1.125000X-1.125000X1.125000X1.125000X-1.125000X1.125000X0*%
%ADD14C,2.454000*%
%ADD15C,1.440000*%
%ADD16R,2.000000X2.000000*%
%ADD17C,2.000000*%
%ADD18RoundRect,0.250000X0.550000X0.550000X-0.550000X0.550000X-0.550000X-0.550000X0.550000X-0.550000X0*%
%ADD19C,1.600000*%
%ADD20RoundRect,0.250000X1.075000X-0.312500X1.075000X0.312500X-1.075000X0.312500X-1.075000X-0.312500X0*%
%ADD21R,1.700000X1.700000*%
%ADD22C,1.700000*%
%ADD23RoundRect,0.175000X0.175000X0.325000X-0.175000X0.325000X-0.175000X-0.325000X0.175000X-0.325000X0*%
%ADD24RoundRect,0.150000X0.200000X0.150000X-0.200000X0.150000X-0.200000X-0.150000X0.200000X-0.150000X0*%
%ADD25RoundRect,0.250000X0.337500X0.475000X-0.337500X0.475000X-0.337500X-0.475000X0.337500X-0.475000X0*%
%ADD26RoundRect,0.175000X-0.175000X-0.325000X0.175000X-0.325000X0.175000X0.325000X-0.175000X0.325000X0*%
%ADD27RoundRect,0.150000X-0.200000X-0.150000X0.200000X-0.150000X0.200000X0.150000X-0.200000X0.150000X0*%
%ADD28RoundRect,0.200000X-0.200000X-0.275000X0.200000X-0.275000X0.200000X0.275000X-0.200000X0.275000X0*%
%ADD29R,1.100000X0.250000*%
%ADD30RoundRect,0.225000X0.225000X0.375000X-0.225000X0.375000X-0.225000X-0.375000X0.225000X-0.375000X0*%
%ADD31FreePoly0,90.000000*%
%ADD32FreePoly1,0.000000*%
%ADD33FreePoly2,0.000000*%
%ADD34R,2.000000X1.905000*%
%ADD35O,2.000000X1.905000*%
%ADD36RoundRect,0.250000X-0.475000X0.337500X-0.475000X-0.337500X0.475000X-0.337500X0.475000X0.337500X0*%
%ADD37R,1.600000X0.550000*%
%ADD38R,0.550000X1.600000*%
%ADD39RoundRect,0.200000X0.200000X0.275000X-0.200000X0.275000X-0.200000X-0.275000X0.200000X-0.275000X0*%
%ADD40RoundRect,0.250000X0.475000X-0.337500X0.475000X0.337500X-0.475000X0.337500X-0.475000X-0.337500X0*%
%ADD41RoundRect,0.250000X-0.337500X-0.475000X0.337500X-0.475000X0.337500X0.475000X-0.337500X0.475000X0*%
%ADD42C,3.098800*%
%ADD43RoundRect,0.102000X-1.143000X-1.143000X1.143000X-1.143000X1.143000X1.143000X-1.143000X1.143000X0*%
%ADD44C,2.490000*%
G04 APERTURE END LIST*
D10*
%TO.C,E3*%
X130010000Y-55768000D03*
D11*
X130010000Y-55768000D03*
%TD*%
%TO.C,E1*%
X115200000Y-55768000D03*
D10*
X115200000Y-55768000D03*
%TD*%
%TO.C,E6*%
X130000000Y-132431000D03*
D11*
X130000000Y-132431000D03*
%TD*%
D10*
%TO.C,E5*%
X122480000Y-132431000D03*
D11*
X122480000Y-132431000D03*
%TD*%
D10*
%TO.C,E4*%
X115000000Y-132431000D03*
D11*
X115000000Y-132431000D03*
%TD*%
D10*
%TO.C,E2*%
X122480000Y-55768000D03*
D11*
X122480000Y-55768000D03*
%TD*%
D12*
%TO.C,H3*%
X174659000Y-132431000D03*
%TD*%
%TO.C,H4*%
X106659000Y-132431000D03*
%TD*%
%TO.C,H2*%
X174603000Y-55768000D03*
%TD*%
%TO.C,H1*%
X106659000Y-55768000D03*
%TD*%
D13*
%TO.C,T2*%
X154500000Y-68400000D03*
D14*
X154500000Y-72200000D03*
X154500000Y-77200000D03*
X154500000Y-82200000D03*
X167500000Y-82200000D03*
X167500000Y-77200000D03*
X167500000Y-72200000D03*
X167500000Y-67200000D03*
%TD*%
D15*
%TO.C,RV2*%
X163710000Y-90880000D03*
X163710000Y-93420000D03*
X163710000Y-95960000D03*
%TD*%
%TO.C,RV1*%
X156290000Y-90980000D03*
X156290000Y-93520000D03*
X156290000Y-96060000D03*
%TD*%
D16*
%TO.C,C4*%
X150570000Y-117490000D03*
D17*
X145570000Y-117490000D03*
%TD*%
D16*
%TO.C,C3*%
X174667677Y-91780000D03*
D17*
X169667677Y-91780000D03*
%TD*%
D18*
%TO.C,U4*%
X162900000Y-122000000D03*
D19*
X162900000Y-119460000D03*
X162900000Y-116920000D03*
X162900000Y-114380000D03*
X155280000Y-114380000D03*
X155280000Y-116920000D03*
X155280000Y-119460000D03*
X155280000Y-122000000D03*
%TD*%
D20*
%TO.C,R1*%
X146000000Y-74837500D03*
X146000000Y-77762500D03*
%TD*%
D21*
%TO.C,J5*%
X102700000Y-120050000D03*
D22*
X102700000Y-122590000D03*
%TD*%
D23*
%TO.C,D2*%
X177700000Y-82400000D03*
D24*
X177700000Y-80700000D03*
X175700000Y-80700000D03*
X175700000Y-82600000D03*
%TD*%
D25*
%TO.C,C13*%
X147537500Y-127500000D03*
X145462500Y-127500000D03*
%TD*%
%TO.C,C14*%
X147537500Y-132400000D03*
X145462500Y-132400000D03*
%TD*%
%TO.C,C6*%
X157037500Y-132500000D03*
X154962500Y-132500000D03*
%TD*%
%TO.C,C10*%
X142787500Y-123900000D03*
X140712500Y-123900000D03*
%TD*%
D26*
%TO.C,D1*%
X175700000Y-75550000D03*
D27*
X175700000Y-77250000D03*
X177700000Y-77250000D03*
X177700000Y-75350000D03*
%TD*%
D28*
%TO.C,R10*%
X169175000Y-126300000D03*
X170825000Y-126300000D03*
%TD*%
D29*
%TO.C,U5*%
X170100000Y-100000000D03*
X170100000Y-100500000D03*
X170100000Y-101000000D03*
X170100000Y-101500000D03*
X170100000Y-102000000D03*
X174400000Y-102000000D03*
X174400000Y-101500000D03*
X174400000Y-101000000D03*
X174400000Y-100500000D03*
X174400000Y-100000000D03*
%TD*%
D28*
%TO.C,R6*%
X174175000Y-115000000D03*
X175825000Y-115000000D03*
%TD*%
D30*
%TO.C,D4*%
X141350000Y-135400000D03*
X138050000Y-135400000D03*
%TD*%
D31*
%TO.C,F1*%
X148340000Y-56400000D03*
D32*
X153420000Y-56400000D03*
X157480000Y-56400000D03*
D33*
X162560000Y-56400000D03*
%TD*%
D34*
%TO.C,U2*%
X148200000Y-91000000D03*
D35*
X148200000Y-93540000D03*
X148200000Y-96080000D03*
%TD*%
D28*
%TO.C,R4*%
X169175000Y-123000000D03*
X170825000Y-123000000D03*
%TD*%
D36*
%TO.C,C1*%
X144600000Y-102100000D03*
X144600000Y-104175000D03*
%TD*%
D28*
%TO.C,R7*%
X174175000Y-119000000D03*
X175825000Y-119000000D03*
%TD*%
%TO.C,R13*%
X136875000Y-123900000D03*
X138525000Y-123900000D03*
%TD*%
D25*
%TO.C,C5*%
X157037500Y-127500000D03*
X154962500Y-127500000D03*
%TD*%
D28*
%TO.C,R2*%
X169175000Y-115000000D03*
X170825000Y-115000000D03*
%TD*%
%TO.C,R3*%
X169175000Y-119000000D03*
X170825000Y-119000000D03*
%TD*%
D37*
%TO.C,U3*%
X154950000Y-103650000D03*
X154950000Y-104450000D03*
X154950000Y-105250000D03*
X154950000Y-106050000D03*
X154950000Y-106850000D03*
X154950000Y-107650000D03*
X154950000Y-108450000D03*
X154950000Y-109250000D03*
D38*
X156400000Y-110700000D03*
X157200000Y-110700000D03*
X158000000Y-110700000D03*
X158800000Y-110700000D03*
X159600000Y-110700000D03*
X160400000Y-110700000D03*
X161200000Y-110700000D03*
X162000000Y-110700000D03*
D37*
X163450000Y-109250000D03*
X163450000Y-108450000D03*
X163450000Y-107650000D03*
X163450000Y-106850000D03*
X163450000Y-106050000D03*
X163450000Y-105250000D03*
X163450000Y-104450000D03*
X163450000Y-103650000D03*
D38*
X162000000Y-102200000D03*
X161200000Y-102200000D03*
X160400000Y-102200000D03*
X159600000Y-102200000D03*
X158800000Y-102200000D03*
X158000000Y-102200000D03*
X157200000Y-102200000D03*
X156400000Y-102200000D03*
%TD*%
D39*
%TO.C,R5*%
X173325000Y-111000000D03*
X171675000Y-111000000D03*
%TD*%
%TO.C,R14*%
X138525000Y-127500000D03*
X136875000Y-127500000D03*
%TD*%
D29*
%TO.C,U6*%
X170100000Y-105500000D03*
X170100000Y-106000000D03*
X170100000Y-106500000D03*
X170100000Y-107000000D03*
X170100000Y-107500000D03*
X174400000Y-107500000D03*
X174400000Y-107000000D03*
X174400000Y-106500000D03*
X174400000Y-106000000D03*
X174400000Y-105500000D03*
%TD*%
D28*
%TO.C,R16*%
X150415000Y-132400000D03*
X152065000Y-132400000D03*
%TD*%
D40*
%TO.C,C2*%
X144600000Y-110775000D03*
X144600000Y-108700000D03*
%TD*%
D34*
%TO.C,U1*%
X148200000Y-103920000D03*
D35*
X148200000Y-106460000D03*
X148200000Y-109000000D03*
%TD*%
D28*
%TO.C,R11*%
X174175000Y-126300000D03*
X175825000Y-126300000D03*
%TD*%
D39*
%TO.C,R15*%
X138225000Y-132400000D03*
X136575000Y-132400000D03*
%TD*%
D25*
%TO.C,C7*%
X163337500Y-132500000D03*
X161262500Y-132500000D03*
%TD*%
%TO.C,C12*%
X142787500Y-132400000D03*
X140712500Y-132400000D03*
%TD*%
D28*
%TO.C,R12*%
X136875000Y-120700000D03*
X138525000Y-120700000D03*
%TD*%
D25*
%TO.C,C11*%
X142787500Y-127500000D03*
X140712500Y-127500000D03*
%TD*%
D30*
%TO.C,D3*%
X141350000Y-117300000D03*
X138050000Y-117300000D03*
%TD*%
D41*
%TO.C,C8*%
X150202500Y-127500000D03*
X152277500Y-127500000D03*
%TD*%
D28*
%TO.C,R9*%
X140875000Y-120700000D03*
X142525000Y-120700000D03*
%TD*%
D21*
%TO.C,J7*%
X176700000Y-71200000D03*
D22*
X176700000Y-68660000D03*
X176700000Y-66120000D03*
X176700000Y-63580000D03*
%TD*%
D41*
%TO.C,C9*%
X161125000Y-127500000D03*
X163200000Y-127500000D03*
%TD*%
D28*
%TO.C,R8*%
X174175000Y-123000000D03*
X175825000Y-123000000D03*
%TD*%
D42*
%TO.C,T1*%
X106847000Y-88140000D03*
X138597000Y-88140000D03*
D43*
X108244000Y-77980000D03*
D44*
X108244000Y-83060000D03*
X108244000Y-93220000D03*
X108244000Y-98300000D03*
X137200000Y-77980000D03*
X137200000Y-83060000D03*
X137200000Y-93220000D03*
X137200000Y-98300000D03*
%TD*%
M02*
