%TF.GenerationSoftware,KiCad,Pcbnew,8.0.6*%
%TF.CreationDate,2025-02-10T12:59:46-08:00*%
%TF.ProjectId,LPF-v2,4c50462d-7632-42e6-9b69-6361645f7063,rev?*%
%TF.SameCoordinates,Original*%
%TF.FileFunction,Soldermask,Top*%
%TF.FilePolarity,Negative*%
%FSLAX46Y46*%
G04 Gerber Fmt 4.6, Leading zero omitted, Abs format (unit mm)*
G04 Created by KiCad (PCBNEW 8.0.6) date 2025-02-10 12:59:46*
%MOMM*%
%LPD*%
G01*
G04 APERTURE LIST*
%ADD10C,1.600000*%
%ADD11C,2.000000*%
%ADD12R,1.700000X1.700000*%
%ADD13R,1.800000X1.800000*%
%ADD14O,1.800000X1.800000*%
%ADD15O,1.600000X1.600000*%
%ADD16C,3.600000*%
%ADD17C,5.600000*%
%ADD18R,1.600000X1.600000*%
G04 APERTURE END LIST*
D10*
%TO.C,C8*%
X139250000Y-116500000D03*
X144250000Y-116500000D03*
%TD*%
D11*
%TO.C,C3*%
X109630000Y-110250000D03*
X104630000Y-110250000D03*
%TD*%
D12*
%TO.C,J7*%
X142750000Y-91000000D03*
%TD*%
D13*
%TO.C,D2*%
X142670000Y-96500000D03*
D14*
X152830000Y-96500000D03*
%TD*%
D10*
%TO.C,R14*%
X142420000Y-100500000D03*
D15*
X152580000Y-100500000D03*
%TD*%
D10*
%TO.C,R5*%
X101250000Y-94580000D03*
D15*
X101250000Y-84420000D03*
%TD*%
D10*
%TO.C,R7*%
X91080000Y-107250000D03*
D15*
X80920000Y-107250000D03*
%TD*%
D10*
%TO.C,R13*%
X142340000Y-104250000D03*
D15*
X152500000Y-104250000D03*
%TD*%
D10*
%TO.C,R12*%
X142340000Y-108750000D03*
D15*
X152500000Y-108750000D03*
%TD*%
D10*
%TO.C,R8*%
X80920000Y-111250000D03*
D15*
X91080000Y-111250000D03*
%TD*%
D12*
%TO.C,J3*%
X124000000Y-82750000D03*
%TD*%
D10*
%TO.C,C1*%
X91380000Y-99750000D03*
X96380000Y-99750000D03*
%TD*%
D16*
%TO.C,H1*%
X75500000Y-82500000D03*
D17*
X75500000Y-82500000D03*
%TD*%
D10*
%TO.C,C6*%
X128250000Y-116500000D03*
X133250000Y-116500000D03*
%TD*%
%TO.C,R1*%
X92000000Y-94580000D03*
D15*
X92000000Y-84420000D03*
%TD*%
D10*
%TO.C,R6*%
X106000000Y-84420000D03*
D15*
X106000000Y-94580000D03*
%TD*%
D16*
%TO.C,H3*%
X75500000Y-118000000D03*
D17*
X75500000Y-118000000D03*
%TD*%
D16*
%TO.C,H2*%
X151750000Y-82500000D03*
D17*
X151750000Y-82500000D03*
%TD*%
D10*
%TO.C,R10*%
X131000000Y-89170000D03*
D15*
X131000000Y-99330000D03*
%TD*%
D10*
%TO.C,R3*%
X100920000Y-100420000D03*
D15*
X111080000Y-100420000D03*
%TD*%
D12*
%TO.C,J1*%
X76000000Y-94500000D03*
%TD*%
D18*
%TO.C,U1*%
X114380000Y-92670000D03*
D15*
X114380000Y-95210000D03*
X114380000Y-97750000D03*
X114380000Y-100290000D03*
X122000000Y-100290000D03*
X122000000Y-97750000D03*
X122000000Y-95210000D03*
X122000000Y-92670000D03*
%TD*%
D12*
%TO.C,J6*%
X128750000Y-82750000D03*
%TD*%
D10*
%TO.C,R4*%
X109920000Y-87750000D03*
D15*
X120080000Y-87750000D03*
%TD*%
D10*
%TO.C,R9*%
X136000000Y-89170000D03*
D15*
X136000000Y-99330000D03*
%TD*%
D12*
%TO.C,J2*%
X76000000Y-100250000D03*
%TD*%
D10*
%TO.C,C4*%
X94750000Y-110000000D03*
X99750000Y-110000000D03*
%TD*%
%TO.C,C2*%
X121880000Y-110250000D03*
X116880000Y-110250000D03*
%TD*%
%TO.C,C7*%
X128250000Y-104750000D03*
X133250000Y-104750000D03*
%TD*%
D12*
%TO.C,J5*%
X76000000Y-109750000D03*
%TD*%
D10*
%TO.C,R11*%
X126420000Y-111000000D03*
D15*
X136580000Y-111000000D03*
%TD*%
D16*
%TO.C,H4*%
X151750000Y-118000000D03*
D17*
X151750000Y-118000000D03*
%TD*%
D10*
%TO.C,C5*%
X133500000Y-82750000D03*
X138500000Y-82750000D03*
%TD*%
D13*
%TO.C,D1*%
X91080000Y-115250000D03*
D14*
X80920000Y-115250000D03*
%TD*%
D10*
%TO.C,R2*%
X97000000Y-84420000D03*
D15*
X97000000Y-94580000D03*
%TD*%
D12*
%TO.C,J4*%
X113250000Y-116500000D03*
%TD*%
M02*
