%TF.GenerationSoftware,KiCad,Pcbnew,8.0.6*%
%TF.CreationDate,2025-02-10T12:59:46-08:00*%
%TF.ProjectId,LPF-v2,4c50462d-7632-42e6-9b69-6361645f7063,rev?*%
%TF.SameCoordinates,Original*%
%TF.FileFunction,Legend,Top*%
%TF.FilePolarity,Positive*%
%FSLAX46Y46*%
G04 Gerber Fmt 4.6, Leading zero omitted, Abs format (unit mm)*
G04 Created by KiCad (PCBNEW 8.0.6) date 2025-02-10 12:59:46*
%MOMM*%
%LPD*%
G01*
G04 APERTURE LIST*
%ADD10C,0.150000*%
%ADD11C,0.120000*%
G04 APERTURE END LIST*
D10*
X141583333Y-112359580D02*
X141535714Y-112407200D01*
X141535714Y-112407200D02*
X141392857Y-112454819D01*
X141392857Y-112454819D02*
X141297619Y-112454819D01*
X141297619Y-112454819D02*
X141154762Y-112407200D01*
X141154762Y-112407200D02*
X141059524Y-112311961D01*
X141059524Y-112311961D02*
X141011905Y-112216723D01*
X141011905Y-112216723D02*
X140964286Y-112026247D01*
X140964286Y-112026247D02*
X140964286Y-111883390D01*
X140964286Y-111883390D02*
X141011905Y-111692914D01*
X141011905Y-111692914D02*
X141059524Y-111597676D01*
X141059524Y-111597676D02*
X141154762Y-111502438D01*
X141154762Y-111502438D02*
X141297619Y-111454819D01*
X141297619Y-111454819D02*
X141392857Y-111454819D01*
X141392857Y-111454819D02*
X141535714Y-111502438D01*
X141535714Y-111502438D02*
X141583333Y-111550057D01*
X142154762Y-111883390D02*
X142059524Y-111835771D01*
X142059524Y-111835771D02*
X142011905Y-111788152D01*
X142011905Y-111788152D02*
X141964286Y-111692914D01*
X141964286Y-111692914D02*
X141964286Y-111645295D01*
X141964286Y-111645295D02*
X142011905Y-111550057D01*
X142011905Y-111550057D02*
X142059524Y-111502438D01*
X142059524Y-111502438D02*
X142154762Y-111454819D01*
X142154762Y-111454819D02*
X142345238Y-111454819D01*
X142345238Y-111454819D02*
X142440476Y-111502438D01*
X142440476Y-111502438D02*
X142488095Y-111550057D01*
X142488095Y-111550057D02*
X142535714Y-111645295D01*
X142535714Y-111645295D02*
X142535714Y-111692914D01*
X142535714Y-111692914D02*
X142488095Y-111788152D01*
X142488095Y-111788152D02*
X142440476Y-111835771D01*
X142440476Y-111835771D02*
X142345238Y-111883390D01*
X142345238Y-111883390D02*
X142154762Y-111883390D01*
X142154762Y-111883390D02*
X142059524Y-111931009D01*
X142059524Y-111931009D02*
X142011905Y-111978628D01*
X142011905Y-111978628D02*
X141964286Y-112073866D01*
X141964286Y-112073866D02*
X141964286Y-112264342D01*
X141964286Y-112264342D02*
X142011905Y-112359580D01*
X142011905Y-112359580D02*
X142059524Y-112407200D01*
X142059524Y-112407200D02*
X142154762Y-112454819D01*
X142154762Y-112454819D02*
X142345238Y-112454819D01*
X142345238Y-112454819D02*
X142440476Y-112407200D01*
X142440476Y-112407200D02*
X142488095Y-112359580D01*
X142488095Y-112359580D02*
X142535714Y-112264342D01*
X142535714Y-112264342D02*
X142535714Y-112073866D01*
X142535714Y-112073866D02*
X142488095Y-111978628D01*
X142488095Y-111978628D02*
X142440476Y-111931009D01*
X142440476Y-111931009D02*
X142345238Y-111883390D01*
X106963333Y-114359580D02*
X106915714Y-114407200D01*
X106915714Y-114407200D02*
X106772857Y-114454819D01*
X106772857Y-114454819D02*
X106677619Y-114454819D01*
X106677619Y-114454819D02*
X106534762Y-114407200D01*
X106534762Y-114407200D02*
X106439524Y-114311961D01*
X106439524Y-114311961D02*
X106391905Y-114216723D01*
X106391905Y-114216723D02*
X106344286Y-114026247D01*
X106344286Y-114026247D02*
X106344286Y-113883390D01*
X106344286Y-113883390D02*
X106391905Y-113692914D01*
X106391905Y-113692914D02*
X106439524Y-113597676D01*
X106439524Y-113597676D02*
X106534762Y-113502438D01*
X106534762Y-113502438D02*
X106677619Y-113454819D01*
X106677619Y-113454819D02*
X106772857Y-113454819D01*
X106772857Y-113454819D02*
X106915714Y-113502438D01*
X106915714Y-113502438D02*
X106963333Y-113550057D01*
X107296667Y-113454819D02*
X107915714Y-113454819D01*
X107915714Y-113454819D02*
X107582381Y-113835771D01*
X107582381Y-113835771D02*
X107725238Y-113835771D01*
X107725238Y-113835771D02*
X107820476Y-113883390D01*
X107820476Y-113883390D02*
X107868095Y-113931009D01*
X107868095Y-113931009D02*
X107915714Y-114026247D01*
X107915714Y-114026247D02*
X107915714Y-114264342D01*
X107915714Y-114264342D02*
X107868095Y-114359580D01*
X107868095Y-114359580D02*
X107820476Y-114407200D01*
X107820476Y-114407200D02*
X107725238Y-114454819D01*
X107725238Y-114454819D02*
X107439524Y-114454819D01*
X107439524Y-114454819D02*
X107344286Y-114407200D01*
X107344286Y-114407200D02*
X107296667Y-114359580D01*
X142416666Y-88124819D02*
X142416666Y-88839104D01*
X142416666Y-88839104D02*
X142369047Y-88981961D01*
X142369047Y-88981961D02*
X142273809Y-89077200D01*
X142273809Y-89077200D02*
X142130952Y-89124819D01*
X142130952Y-89124819D02*
X142035714Y-89124819D01*
X142797619Y-88124819D02*
X143464285Y-88124819D01*
X143464285Y-88124819D02*
X143035714Y-89124819D01*
X147011905Y-94484819D02*
X147011905Y-93484819D01*
X147011905Y-93484819D02*
X147250000Y-93484819D01*
X147250000Y-93484819D02*
X147392857Y-93532438D01*
X147392857Y-93532438D02*
X147488095Y-93627676D01*
X147488095Y-93627676D02*
X147535714Y-93722914D01*
X147535714Y-93722914D02*
X147583333Y-93913390D01*
X147583333Y-93913390D02*
X147583333Y-94056247D01*
X147583333Y-94056247D02*
X147535714Y-94246723D01*
X147535714Y-94246723D02*
X147488095Y-94341961D01*
X147488095Y-94341961D02*
X147392857Y-94437200D01*
X147392857Y-94437200D02*
X147250000Y-94484819D01*
X147250000Y-94484819D02*
X147011905Y-94484819D01*
X147964286Y-93580057D02*
X148011905Y-93532438D01*
X148011905Y-93532438D02*
X148107143Y-93484819D01*
X148107143Y-93484819D02*
X148345238Y-93484819D01*
X148345238Y-93484819D02*
X148440476Y-93532438D01*
X148440476Y-93532438D02*
X148488095Y-93580057D01*
X148488095Y-93580057D02*
X148535714Y-93675295D01*
X148535714Y-93675295D02*
X148535714Y-93770533D01*
X148535714Y-93770533D02*
X148488095Y-93913390D01*
X148488095Y-93913390D02*
X147916667Y-94484819D01*
X147916667Y-94484819D02*
X148535714Y-94484819D01*
X142408095Y-95054819D02*
X142408095Y-94054819D01*
X142979523Y-95054819D02*
X142550952Y-94483390D01*
X142979523Y-94054819D02*
X142408095Y-94626247D01*
X123836666Y-79624819D02*
X123836666Y-80339104D01*
X123836666Y-80339104D02*
X123789047Y-80481961D01*
X123789047Y-80481961D02*
X123693809Y-80577200D01*
X123693809Y-80577200D02*
X123550952Y-80624819D01*
X123550952Y-80624819D02*
X123455714Y-80624819D01*
X124217619Y-79624819D02*
X124836666Y-79624819D01*
X124836666Y-79624819D02*
X124503333Y-80005771D01*
X124503333Y-80005771D02*
X124646190Y-80005771D01*
X124646190Y-80005771D02*
X124741428Y-80053390D01*
X124741428Y-80053390D02*
X124789047Y-80101009D01*
X124789047Y-80101009D02*
X124836666Y-80196247D01*
X124836666Y-80196247D02*
X124836666Y-80434342D01*
X124836666Y-80434342D02*
X124789047Y-80529580D01*
X124789047Y-80529580D02*
X124741428Y-80577200D01*
X124741428Y-80577200D02*
X124646190Y-80624819D01*
X124646190Y-80624819D02*
X124360476Y-80624819D01*
X124360476Y-80624819D02*
X124265238Y-80577200D01*
X124265238Y-80577200D02*
X124217619Y-80529580D01*
X93583333Y-96529580D02*
X93535714Y-96577200D01*
X93535714Y-96577200D02*
X93392857Y-96624819D01*
X93392857Y-96624819D02*
X93297619Y-96624819D01*
X93297619Y-96624819D02*
X93154762Y-96577200D01*
X93154762Y-96577200D02*
X93059524Y-96481961D01*
X93059524Y-96481961D02*
X93011905Y-96386723D01*
X93011905Y-96386723D02*
X92964286Y-96196247D01*
X92964286Y-96196247D02*
X92964286Y-96053390D01*
X92964286Y-96053390D02*
X93011905Y-95862914D01*
X93011905Y-95862914D02*
X93059524Y-95767676D01*
X93059524Y-95767676D02*
X93154762Y-95672438D01*
X93154762Y-95672438D02*
X93297619Y-95624819D01*
X93297619Y-95624819D02*
X93392857Y-95624819D01*
X93392857Y-95624819D02*
X93535714Y-95672438D01*
X93535714Y-95672438D02*
X93583333Y-95720057D01*
X94535714Y-96624819D02*
X93964286Y-96624819D01*
X94250000Y-96624819D02*
X94250000Y-95624819D01*
X94250000Y-95624819D02*
X94154762Y-95767676D01*
X94154762Y-95767676D02*
X94059524Y-95862914D01*
X94059524Y-95862914D02*
X93964286Y-95910533D01*
X78988095Y-82704819D02*
X78988095Y-81704819D01*
X78988095Y-82181009D02*
X79559523Y-82181009D01*
X79559523Y-82704819D02*
X79559523Y-81704819D01*
X80559523Y-82704819D02*
X79988095Y-82704819D01*
X80273809Y-82704819D02*
X80273809Y-81704819D01*
X80273809Y-81704819D02*
X80178571Y-81847676D01*
X80178571Y-81847676D02*
X80083333Y-81942914D01*
X80083333Y-81942914D02*
X79988095Y-81990533D01*
X90084819Y-89666666D02*
X89608628Y-89999999D01*
X90084819Y-90238094D02*
X89084819Y-90238094D01*
X89084819Y-90238094D02*
X89084819Y-89857142D01*
X89084819Y-89857142D02*
X89132438Y-89761904D01*
X89132438Y-89761904D02*
X89180057Y-89714285D01*
X89180057Y-89714285D02*
X89275295Y-89666666D01*
X89275295Y-89666666D02*
X89418152Y-89666666D01*
X89418152Y-89666666D02*
X89513390Y-89714285D01*
X89513390Y-89714285D02*
X89561009Y-89761904D01*
X89561009Y-89761904D02*
X89608628Y-89857142D01*
X89608628Y-89857142D02*
X89608628Y-90238094D01*
X90084819Y-88714285D02*
X90084819Y-89285713D01*
X90084819Y-88999999D02*
X89084819Y-88999999D01*
X89084819Y-88999999D02*
X89227676Y-89095237D01*
X89227676Y-89095237D02*
X89322914Y-89190475D01*
X89322914Y-89190475D02*
X89370533Y-89285713D01*
X108824819Y-89666666D02*
X108348628Y-89999999D01*
X108824819Y-90238094D02*
X107824819Y-90238094D01*
X107824819Y-90238094D02*
X107824819Y-89857142D01*
X107824819Y-89857142D02*
X107872438Y-89761904D01*
X107872438Y-89761904D02*
X107920057Y-89714285D01*
X107920057Y-89714285D02*
X108015295Y-89666666D01*
X108015295Y-89666666D02*
X108158152Y-89666666D01*
X108158152Y-89666666D02*
X108253390Y-89714285D01*
X108253390Y-89714285D02*
X108301009Y-89761904D01*
X108301009Y-89761904D02*
X108348628Y-89857142D01*
X108348628Y-89857142D02*
X108348628Y-90238094D01*
X107824819Y-88809523D02*
X107824819Y-88999999D01*
X107824819Y-88999999D02*
X107872438Y-89095237D01*
X107872438Y-89095237D02*
X107920057Y-89142856D01*
X107920057Y-89142856D02*
X108062914Y-89238094D01*
X108062914Y-89238094D02*
X108253390Y-89285713D01*
X108253390Y-89285713D02*
X108634342Y-89285713D01*
X108634342Y-89285713D02*
X108729580Y-89238094D01*
X108729580Y-89238094D02*
X108777200Y-89190475D01*
X108777200Y-89190475D02*
X108824819Y-89095237D01*
X108824819Y-89095237D02*
X108824819Y-88904761D01*
X108824819Y-88904761D02*
X108777200Y-88809523D01*
X108777200Y-88809523D02*
X108729580Y-88761904D01*
X108729580Y-88761904D02*
X108634342Y-88714285D01*
X108634342Y-88714285D02*
X108396247Y-88714285D01*
X108396247Y-88714285D02*
X108301009Y-88761904D01*
X108301009Y-88761904D02*
X108253390Y-88809523D01*
X108253390Y-88809523D02*
X108205771Y-88904761D01*
X108205771Y-88904761D02*
X108205771Y-89095237D01*
X108205771Y-89095237D02*
X108253390Y-89190475D01*
X108253390Y-89190475D02*
X108301009Y-89238094D01*
X108301009Y-89238094D02*
X108396247Y-89285713D01*
X74738095Y-114654819D02*
X74738095Y-113654819D01*
X74738095Y-114131009D02*
X75309523Y-114131009D01*
X75309523Y-114654819D02*
X75309523Y-113654819D01*
X75690476Y-113654819D02*
X76309523Y-113654819D01*
X76309523Y-113654819D02*
X75976190Y-114035771D01*
X75976190Y-114035771D02*
X76119047Y-114035771D01*
X76119047Y-114035771D02*
X76214285Y-114083390D01*
X76214285Y-114083390D02*
X76261904Y-114131009D01*
X76261904Y-114131009D02*
X76309523Y-114226247D01*
X76309523Y-114226247D02*
X76309523Y-114464342D01*
X76309523Y-114464342D02*
X76261904Y-114559580D01*
X76261904Y-114559580D02*
X76214285Y-114607200D01*
X76214285Y-114607200D02*
X76119047Y-114654819D01*
X76119047Y-114654819D02*
X75833333Y-114654819D01*
X75833333Y-114654819D02*
X75738095Y-114607200D01*
X75738095Y-114607200D02*
X75690476Y-114559580D01*
X105833333Y-98504819D02*
X105500000Y-98028628D01*
X105261905Y-98504819D02*
X105261905Y-97504819D01*
X105261905Y-97504819D02*
X105642857Y-97504819D01*
X105642857Y-97504819D02*
X105738095Y-97552438D01*
X105738095Y-97552438D02*
X105785714Y-97600057D01*
X105785714Y-97600057D02*
X105833333Y-97695295D01*
X105833333Y-97695295D02*
X105833333Y-97838152D01*
X105833333Y-97838152D02*
X105785714Y-97933390D01*
X105785714Y-97933390D02*
X105738095Y-97981009D01*
X105738095Y-97981009D02*
X105642857Y-98028628D01*
X105642857Y-98028628D02*
X105261905Y-98028628D01*
X106166667Y-97504819D02*
X106785714Y-97504819D01*
X106785714Y-97504819D02*
X106452381Y-97885771D01*
X106452381Y-97885771D02*
X106595238Y-97885771D01*
X106595238Y-97885771D02*
X106690476Y-97933390D01*
X106690476Y-97933390D02*
X106738095Y-97981009D01*
X106738095Y-97981009D02*
X106785714Y-98076247D01*
X106785714Y-98076247D02*
X106785714Y-98314342D01*
X106785714Y-98314342D02*
X106738095Y-98409580D01*
X106738095Y-98409580D02*
X106690476Y-98457200D01*
X106690476Y-98457200D02*
X106595238Y-98504819D01*
X106595238Y-98504819D02*
X106309524Y-98504819D01*
X106309524Y-98504819D02*
X106214286Y-98457200D01*
X106214286Y-98457200D02*
X106166667Y-98409580D01*
X75666666Y-91124819D02*
X75666666Y-91839104D01*
X75666666Y-91839104D02*
X75619047Y-91981961D01*
X75619047Y-91981961D02*
X75523809Y-92077200D01*
X75523809Y-92077200D02*
X75380952Y-92124819D01*
X75380952Y-92124819D02*
X75285714Y-92124819D01*
X76666666Y-92124819D02*
X76095238Y-92124819D01*
X76380952Y-92124819D02*
X76380952Y-91124819D01*
X76380952Y-91124819D02*
X76285714Y-91267676D01*
X76285714Y-91267676D02*
X76190476Y-91362914D01*
X76190476Y-91362914D02*
X76095238Y-91410533D01*
X117428095Y-89794819D02*
X117428095Y-90604342D01*
X117428095Y-90604342D02*
X117475714Y-90699580D01*
X117475714Y-90699580D02*
X117523333Y-90747200D01*
X117523333Y-90747200D02*
X117618571Y-90794819D01*
X117618571Y-90794819D02*
X117809047Y-90794819D01*
X117809047Y-90794819D02*
X117904285Y-90747200D01*
X117904285Y-90747200D02*
X117951904Y-90699580D01*
X117951904Y-90699580D02*
X117999523Y-90604342D01*
X117999523Y-90604342D02*
X117999523Y-89794819D01*
X118999523Y-90794819D02*
X118428095Y-90794819D01*
X118713809Y-90794819D02*
X118713809Y-89794819D01*
X118713809Y-89794819D02*
X118618571Y-89937676D01*
X118618571Y-89937676D02*
X118523333Y-90032914D01*
X118523333Y-90032914D02*
X118428095Y-90080533D01*
X128416666Y-79874819D02*
X128416666Y-80589104D01*
X128416666Y-80589104D02*
X128369047Y-80731961D01*
X128369047Y-80731961D02*
X128273809Y-80827200D01*
X128273809Y-80827200D02*
X128130952Y-80874819D01*
X128130952Y-80874819D02*
X128035714Y-80874819D01*
X129321428Y-79874819D02*
X129130952Y-79874819D01*
X129130952Y-79874819D02*
X129035714Y-79922438D01*
X129035714Y-79922438D02*
X128988095Y-79970057D01*
X128988095Y-79970057D02*
X128892857Y-80112914D01*
X128892857Y-80112914D02*
X128845238Y-80303390D01*
X128845238Y-80303390D02*
X128845238Y-80684342D01*
X128845238Y-80684342D02*
X128892857Y-80779580D01*
X128892857Y-80779580D02*
X128940476Y-80827200D01*
X128940476Y-80827200D02*
X129035714Y-80874819D01*
X129035714Y-80874819D02*
X129226190Y-80874819D01*
X129226190Y-80874819D02*
X129321428Y-80827200D01*
X129321428Y-80827200D02*
X129369047Y-80779580D01*
X129369047Y-80779580D02*
X129416666Y-80684342D01*
X129416666Y-80684342D02*
X129416666Y-80446247D01*
X129416666Y-80446247D02*
X129369047Y-80351009D01*
X129369047Y-80351009D02*
X129321428Y-80303390D01*
X129321428Y-80303390D02*
X129226190Y-80255771D01*
X129226190Y-80255771D02*
X129035714Y-80255771D01*
X129035714Y-80255771D02*
X128940476Y-80303390D01*
X128940476Y-80303390D02*
X128892857Y-80351009D01*
X128892857Y-80351009D02*
X128845238Y-80446247D01*
X114833333Y-85834819D02*
X114500000Y-85358628D01*
X114261905Y-85834819D02*
X114261905Y-84834819D01*
X114261905Y-84834819D02*
X114642857Y-84834819D01*
X114642857Y-84834819D02*
X114738095Y-84882438D01*
X114738095Y-84882438D02*
X114785714Y-84930057D01*
X114785714Y-84930057D02*
X114833333Y-85025295D01*
X114833333Y-85025295D02*
X114833333Y-85168152D01*
X114833333Y-85168152D02*
X114785714Y-85263390D01*
X114785714Y-85263390D02*
X114738095Y-85311009D01*
X114738095Y-85311009D02*
X114642857Y-85358628D01*
X114642857Y-85358628D02*
X114261905Y-85358628D01*
X115690476Y-85168152D02*
X115690476Y-85834819D01*
X115452381Y-84787200D02*
X115214286Y-85501485D01*
X115214286Y-85501485D02*
X115833333Y-85501485D01*
X138824819Y-94416666D02*
X138348628Y-94749999D01*
X138824819Y-94988094D02*
X137824819Y-94988094D01*
X137824819Y-94988094D02*
X137824819Y-94607142D01*
X137824819Y-94607142D02*
X137872438Y-94511904D01*
X137872438Y-94511904D02*
X137920057Y-94464285D01*
X137920057Y-94464285D02*
X138015295Y-94416666D01*
X138015295Y-94416666D02*
X138158152Y-94416666D01*
X138158152Y-94416666D02*
X138253390Y-94464285D01*
X138253390Y-94464285D02*
X138301009Y-94511904D01*
X138301009Y-94511904D02*
X138348628Y-94607142D01*
X138348628Y-94607142D02*
X138348628Y-94988094D01*
X138824819Y-93940475D02*
X138824819Y-93749999D01*
X138824819Y-93749999D02*
X138777200Y-93654761D01*
X138777200Y-93654761D02*
X138729580Y-93607142D01*
X138729580Y-93607142D02*
X138586723Y-93511904D01*
X138586723Y-93511904D02*
X138396247Y-93464285D01*
X138396247Y-93464285D02*
X138015295Y-93464285D01*
X138015295Y-93464285D02*
X137920057Y-93511904D01*
X137920057Y-93511904D02*
X137872438Y-93559523D01*
X137872438Y-93559523D02*
X137824819Y-93654761D01*
X137824819Y-93654761D02*
X137824819Y-93845237D01*
X137824819Y-93845237D02*
X137872438Y-93940475D01*
X137872438Y-93940475D02*
X137920057Y-93988094D01*
X137920057Y-93988094D02*
X138015295Y-94035713D01*
X138015295Y-94035713D02*
X138253390Y-94035713D01*
X138253390Y-94035713D02*
X138348628Y-93988094D01*
X138348628Y-93988094D02*
X138396247Y-93940475D01*
X138396247Y-93940475D02*
X138443866Y-93845237D01*
X138443866Y-93845237D02*
X138443866Y-93654761D01*
X138443866Y-93654761D02*
X138396247Y-93559523D01*
X138396247Y-93559523D02*
X138348628Y-93511904D01*
X138348628Y-93511904D02*
X138253390Y-93464285D01*
X75666666Y-97374819D02*
X75666666Y-98089104D01*
X75666666Y-98089104D02*
X75619047Y-98231961D01*
X75619047Y-98231961D02*
X75523809Y-98327200D01*
X75523809Y-98327200D02*
X75380952Y-98374819D01*
X75380952Y-98374819D02*
X75285714Y-98374819D01*
X76095238Y-97470057D02*
X76142857Y-97422438D01*
X76142857Y-97422438D02*
X76238095Y-97374819D01*
X76238095Y-97374819D02*
X76476190Y-97374819D01*
X76476190Y-97374819D02*
X76571428Y-97422438D01*
X76571428Y-97422438D02*
X76619047Y-97470057D01*
X76619047Y-97470057D02*
X76666666Y-97565295D01*
X76666666Y-97565295D02*
X76666666Y-97660533D01*
X76666666Y-97660533D02*
X76619047Y-97803390D01*
X76619047Y-97803390D02*
X76047619Y-98374819D01*
X76047619Y-98374819D02*
X76666666Y-98374819D01*
X97083333Y-106359580D02*
X97035714Y-106407200D01*
X97035714Y-106407200D02*
X96892857Y-106454819D01*
X96892857Y-106454819D02*
X96797619Y-106454819D01*
X96797619Y-106454819D02*
X96654762Y-106407200D01*
X96654762Y-106407200D02*
X96559524Y-106311961D01*
X96559524Y-106311961D02*
X96511905Y-106216723D01*
X96511905Y-106216723D02*
X96464286Y-106026247D01*
X96464286Y-106026247D02*
X96464286Y-105883390D01*
X96464286Y-105883390D02*
X96511905Y-105692914D01*
X96511905Y-105692914D02*
X96559524Y-105597676D01*
X96559524Y-105597676D02*
X96654762Y-105502438D01*
X96654762Y-105502438D02*
X96797619Y-105454819D01*
X96797619Y-105454819D02*
X96892857Y-105454819D01*
X96892857Y-105454819D02*
X97035714Y-105502438D01*
X97035714Y-105502438D02*
X97083333Y-105550057D01*
X97940476Y-105788152D02*
X97940476Y-106454819D01*
X97702381Y-105407200D02*
X97464286Y-106121485D01*
X97464286Y-106121485D02*
X98083333Y-106121485D01*
X119213333Y-115109580D02*
X119165714Y-115157200D01*
X119165714Y-115157200D02*
X119022857Y-115204819D01*
X119022857Y-115204819D02*
X118927619Y-115204819D01*
X118927619Y-115204819D02*
X118784762Y-115157200D01*
X118784762Y-115157200D02*
X118689524Y-115061961D01*
X118689524Y-115061961D02*
X118641905Y-114966723D01*
X118641905Y-114966723D02*
X118594286Y-114776247D01*
X118594286Y-114776247D02*
X118594286Y-114633390D01*
X118594286Y-114633390D02*
X118641905Y-114442914D01*
X118641905Y-114442914D02*
X118689524Y-114347676D01*
X118689524Y-114347676D02*
X118784762Y-114252438D01*
X118784762Y-114252438D02*
X118927619Y-114204819D01*
X118927619Y-114204819D02*
X119022857Y-114204819D01*
X119022857Y-114204819D02*
X119165714Y-114252438D01*
X119165714Y-114252438D02*
X119213333Y-114300057D01*
X119594286Y-114300057D02*
X119641905Y-114252438D01*
X119641905Y-114252438D02*
X119737143Y-114204819D01*
X119737143Y-114204819D02*
X119975238Y-114204819D01*
X119975238Y-114204819D02*
X120070476Y-114252438D01*
X120070476Y-114252438D02*
X120118095Y-114300057D01*
X120118095Y-114300057D02*
X120165714Y-114395295D01*
X120165714Y-114395295D02*
X120165714Y-114490533D01*
X120165714Y-114490533D02*
X120118095Y-114633390D01*
X120118095Y-114633390D02*
X119546667Y-115204819D01*
X119546667Y-115204819D02*
X120165714Y-115204819D01*
X75666666Y-106874819D02*
X75666666Y-107589104D01*
X75666666Y-107589104D02*
X75619047Y-107731961D01*
X75619047Y-107731961D02*
X75523809Y-107827200D01*
X75523809Y-107827200D02*
X75380952Y-107874819D01*
X75380952Y-107874819D02*
X75285714Y-107874819D01*
X76619047Y-106874819D02*
X76142857Y-106874819D01*
X76142857Y-106874819D02*
X76095238Y-107351009D01*
X76095238Y-107351009D02*
X76142857Y-107303390D01*
X76142857Y-107303390D02*
X76238095Y-107255771D01*
X76238095Y-107255771D02*
X76476190Y-107255771D01*
X76476190Y-107255771D02*
X76571428Y-107303390D01*
X76571428Y-107303390D02*
X76619047Y-107351009D01*
X76619047Y-107351009D02*
X76666666Y-107446247D01*
X76666666Y-107446247D02*
X76666666Y-107684342D01*
X76666666Y-107684342D02*
X76619047Y-107779580D01*
X76619047Y-107779580D02*
X76571428Y-107827200D01*
X76571428Y-107827200D02*
X76476190Y-107874819D01*
X76476190Y-107874819D02*
X76238095Y-107874819D01*
X76238095Y-107874819D02*
X76142857Y-107827200D01*
X76142857Y-107827200D02*
X76095238Y-107779580D01*
X150988095Y-114654819D02*
X150988095Y-113654819D01*
X150988095Y-114131009D02*
X151559523Y-114131009D01*
X151559523Y-114654819D02*
X151559523Y-113654819D01*
X152464285Y-113988152D02*
X152464285Y-114654819D01*
X152226190Y-113607200D02*
X151988095Y-114321485D01*
X151988095Y-114321485D02*
X152607142Y-114321485D01*
X112916666Y-113624819D02*
X112916666Y-114339104D01*
X112916666Y-114339104D02*
X112869047Y-114481961D01*
X112869047Y-114481961D02*
X112773809Y-114577200D01*
X112773809Y-114577200D02*
X112630952Y-114624819D01*
X112630952Y-114624819D02*
X112535714Y-114624819D01*
X113821428Y-113958152D02*
X113821428Y-114624819D01*
X113583333Y-113577200D02*
X113345238Y-114291485D01*
X113345238Y-114291485D02*
X113964285Y-114291485D01*
D11*
%TO.C,C8*%
X137880000Y-113130000D02*
X137880000Y-119870000D01*
X137880000Y-113130000D02*
X145620000Y-113130000D01*
X137880000Y-119870000D02*
X145620000Y-119870000D01*
X145620000Y-113130000D02*
X145620000Y-119870000D01*
%TO.C,C3*%
X111000000Y-112870000D02*
X111000000Y-107630000D01*
X111000000Y-112870000D02*
X103260000Y-112870000D01*
X111000000Y-107630000D02*
X103260000Y-107630000D01*
X103260000Y-112870000D02*
X103260000Y-107630000D01*
%TO.C,J7*%
X141420000Y-89670000D02*
X142750000Y-89670000D01*
X141420000Y-91000000D02*
X141420000Y-89670000D01*
X141420000Y-92270000D02*
X141420000Y-92330000D01*
X141420000Y-92270000D02*
X144080000Y-92270000D01*
X141420000Y-92330000D02*
X144080000Y-92330000D01*
X144080000Y-92270000D02*
X144080000Y-92330000D01*
%TO.C,D2*%
X143810000Y-96500000D02*
X145030000Y-96500000D01*
X145030000Y-95030000D02*
X145030000Y-97970000D01*
X145030000Y-97970000D02*
X150470000Y-97970000D01*
X145810000Y-95030000D02*
X145810000Y-97970000D01*
X145930000Y-95030000D02*
X145930000Y-97970000D01*
X146050000Y-95030000D02*
X146050000Y-97970000D01*
X150470000Y-95030000D02*
X145030000Y-95030000D01*
X150470000Y-97970000D02*
X150470000Y-95030000D01*
X151690000Y-96500000D02*
X150470000Y-96500000D01*
%TO.C,R14*%
X143460000Y-100500000D02*
X144230000Y-100500000D01*
X144230000Y-99130000D02*
X144230000Y-101870000D01*
X144230000Y-101870000D02*
X150770000Y-101870000D01*
X150770000Y-99130000D02*
X144230000Y-99130000D01*
X150770000Y-101870000D02*
X150770000Y-99130000D01*
X151540000Y-100500000D02*
X150770000Y-100500000D01*
%TO.C,R5*%
X99880000Y-86230000D02*
X99880000Y-92770000D01*
X99880000Y-92770000D02*
X102620000Y-92770000D01*
X101250000Y-85460000D02*
X101250000Y-86230000D01*
X101250000Y-93540000D02*
X101250000Y-92770000D01*
X102620000Y-86230000D02*
X99880000Y-86230000D01*
X102620000Y-92770000D02*
X102620000Y-86230000D01*
%TO.C,R7*%
X81960000Y-107250000D02*
X82730000Y-107250000D01*
X82730000Y-105880000D02*
X82730000Y-108620000D01*
X82730000Y-108620000D02*
X89270000Y-108620000D01*
X89270000Y-105880000D02*
X82730000Y-105880000D01*
X89270000Y-108620000D02*
X89270000Y-105880000D01*
X90040000Y-107250000D02*
X89270000Y-107250000D01*
%TO.C,R13*%
X143380000Y-104250000D02*
X144150000Y-104250000D01*
X144150000Y-102880000D02*
X144150000Y-105620000D01*
X144150000Y-105620000D02*
X150690000Y-105620000D01*
X150690000Y-102880000D02*
X144150000Y-102880000D01*
X150690000Y-105620000D02*
X150690000Y-102880000D01*
X151460000Y-104250000D02*
X150690000Y-104250000D01*
%TO.C,R12*%
X143380000Y-108750000D02*
X144150000Y-108750000D01*
X144150000Y-107380000D02*
X144150000Y-110120000D01*
X144150000Y-110120000D02*
X150690000Y-110120000D01*
X150690000Y-107380000D02*
X144150000Y-107380000D01*
X150690000Y-110120000D02*
X150690000Y-107380000D01*
X151460000Y-108750000D02*
X150690000Y-108750000D01*
%TO.C,R8*%
X81960000Y-111250000D02*
X82730000Y-111250000D01*
X82730000Y-109880000D02*
X82730000Y-112620000D01*
X82730000Y-112620000D02*
X89270000Y-112620000D01*
X89270000Y-109880000D02*
X82730000Y-109880000D01*
X89270000Y-112620000D02*
X89270000Y-109880000D01*
X90040000Y-111250000D02*
X89270000Y-111250000D01*
%TO.C,J3*%
X122670000Y-81420000D02*
X124000000Y-81420000D01*
X122670000Y-82750000D02*
X122670000Y-81420000D01*
X122670000Y-84020000D02*
X122670000Y-84080000D01*
X122670000Y-84020000D02*
X125330000Y-84020000D01*
X122670000Y-84080000D02*
X125330000Y-84080000D01*
X125330000Y-84020000D02*
X125330000Y-84080000D01*
%TO.C,C1*%
X90160000Y-96880000D02*
X90160000Y-102620000D01*
X90160000Y-96880000D02*
X97600000Y-96880000D01*
X90160000Y-102620000D02*
X97600000Y-102620000D01*
X97600000Y-96880000D02*
X97600000Y-102620000D01*
%TO.C,C6*%
X127030000Y-113630000D02*
X127030000Y-119370000D01*
X127030000Y-113630000D02*
X134470000Y-113630000D01*
X127030000Y-119370000D02*
X134470000Y-119370000D01*
X134470000Y-113630000D02*
X134470000Y-119370000D01*
%TO.C,R1*%
X90630000Y-86230000D02*
X90630000Y-92770000D01*
X90630000Y-92770000D02*
X93370000Y-92770000D01*
X92000000Y-85460000D02*
X92000000Y-86230000D01*
X92000000Y-93540000D02*
X92000000Y-92770000D01*
X93370000Y-86230000D02*
X90630000Y-86230000D01*
X93370000Y-92770000D02*
X93370000Y-86230000D01*
%TO.C,R6*%
X104630000Y-86230000D02*
X104630000Y-92770000D01*
X104630000Y-92770000D02*
X107370000Y-92770000D01*
X106000000Y-85460000D02*
X106000000Y-86230000D01*
X106000000Y-93540000D02*
X106000000Y-92770000D01*
X107370000Y-86230000D02*
X104630000Y-86230000D01*
X107370000Y-92770000D02*
X107370000Y-86230000D01*
%TO.C,R10*%
X129630000Y-90980000D02*
X129630000Y-97520000D01*
X129630000Y-97520000D02*
X132370000Y-97520000D01*
X131000000Y-90210000D02*
X131000000Y-90980000D01*
X131000000Y-98290000D02*
X131000000Y-97520000D01*
X132370000Y-90980000D02*
X129630000Y-90980000D01*
X132370000Y-97520000D02*
X132370000Y-90980000D01*
%TO.C,R3*%
X101960000Y-100420000D02*
X102730000Y-100420000D01*
X102730000Y-99050000D02*
X102730000Y-101790000D01*
X102730000Y-101790000D02*
X109270000Y-101790000D01*
X109270000Y-99050000D02*
X102730000Y-99050000D01*
X109270000Y-101790000D02*
X109270000Y-99050000D01*
X110040000Y-100420000D02*
X109270000Y-100420000D01*
%TO.C,J1*%
X74670000Y-93170000D02*
X76000000Y-93170000D01*
X74670000Y-94500000D02*
X74670000Y-93170000D01*
X74670000Y-95770000D02*
X74670000Y-95830000D01*
X74670000Y-95770000D02*
X77330000Y-95770000D01*
X74670000Y-95830000D02*
X77330000Y-95830000D01*
X77330000Y-95770000D02*
X77330000Y-95830000D01*
%TO.C,U1*%
X115540000Y-91340000D02*
X115540000Y-101620000D01*
X115540000Y-101620000D02*
X120840000Y-101620000D01*
X117190000Y-91340000D02*
X115540000Y-91340000D01*
X120840000Y-91340000D02*
X119190000Y-91340000D01*
X120840000Y-101620000D02*
X120840000Y-91340000D01*
X119190000Y-91340000D02*
G75*
G02*
X117190000Y-91340000I-1000000J0D01*
G01*
%TO.C,J6*%
X127420000Y-81420000D02*
X128750000Y-81420000D01*
X127420000Y-82750000D02*
X127420000Y-81420000D01*
X127420000Y-84020000D02*
X127420000Y-84080000D01*
X127420000Y-84020000D02*
X130080000Y-84020000D01*
X127420000Y-84080000D02*
X130080000Y-84080000D01*
X130080000Y-84020000D02*
X130080000Y-84080000D01*
%TO.C,R4*%
X110960000Y-87750000D02*
X111730000Y-87750000D01*
X111730000Y-86380000D02*
X111730000Y-89120000D01*
X111730000Y-89120000D02*
X118270000Y-89120000D01*
X118270000Y-86380000D02*
X111730000Y-86380000D01*
X118270000Y-89120000D02*
X118270000Y-86380000D01*
X119040000Y-87750000D02*
X118270000Y-87750000D01*
%TO.C,R9*%
X134630000Y-90980000D02*
X134630000Y-97520000D01*
X134630000Y-97520000D02*
X137370000Y-97520000D01*
X136000000Y-90210000D02*
X136000000Y-90980000D01*
X136000000Y-98290000D02*
X136000000Y-97520000D01*
X137370000Y-90980000D02*
X134630000Y-90980000D01*
X137370000Y-97520000D02*
X137370000Y-90980000D01*
%TO.C,J2*%
X74670000Y-98920000D02*
X76000000Y-98920000D01*
X74670000Y-100250000D02*
X74670000Y-98920000D01*
X74670000Y-101520000D02*
X74670000Y-101580000D01*
X74670000Y-101520000D02*
X77330000Y-101520000D01*
X74670000Y-101580000D02*
X77330000Y-101580000D01*
X77330000Y-101520000D02*
X77330000Y-101580000D01*
%TO.C,C4*%
X93530000Y-107130000D02*
X93530000Y-112870000D01*
X93530000Y-107130000D02*
X100970000Y-107130000D01*
X93530000Y-112870000D02*
X100970000Y-112870000D01*
X100970000Y-107130000D02*
X100970000Y-112870000D01*
%TO.C,C2*%
X115510000Y-113620000D02*
X115510000Y-106880000D01*
X123250000Y-106880000D02*
X115510000Y-106880000D01*
X123250000Y-113620000D02*
X115510000Y-113620000D01*
X123250000Y-113620000D02*
X123250000Y-106880000D01*
%TO.C,C7*%
X127030000Y-101880000D02*
X127030000Y-107620000D01*
X127030000Y-101880000D02*
X134470000Y-101880000D01*
X127030000Y-107620000D02*
X134470000Y-107620000D01*
X134470000Y-101880000D02*
X134470000Y-107620000D01*
%TO.C,J5*%
X74670000Y-108420000D02*
X76000000Y-108420000D01*
X74670000Y-109750000D02*
X74670000Y-108420000D01*
X74670000Y-111020000D02*
X74670000Y-111080000D01*
X74670000Y-111020000D02*
X77330000Y-111020000D01*
X74670000Y-111080000D02*
X77330000Y-111080000D01*
X77330000Y-111020000D02*
X77330000Y-111080000D01*
%TO.C,R11*%
X127460000Y-111000000D02*
X128230000Y-111000000D01*
X128230000Y-109630000D02*
X128230000Y-112370000D01*
X128230000Y-112370000D02*
X134770000Y-112370000D01*
X134770000Y-109630000D02*
X128230000Y-109630000D01*
X134770000Y-112370000D02*
X134770000Y-109630000D01*
X135540000Y-111000000D02*
X134770000Y-111000000D01*
%TO.C,C5*%
X132280000Y-79880000D02*
X132280000Y-85620000D01*
X132280000Y-79880000D02*
X139720000Y-79880000D01*
X132280000Y-85620000D02*
X139720000Y-85620000D01*
X139720000Y-79880000D02*
X139720000Y-85620000D01*
%TO.C,D1*%
X82060000Y-115250000D02*
X83280000Y-115250000D01*
X83280000Y-113780000D02*
X83280000Y-116720000D01*
X83280000Y-116720000D02*
X88720000Y-116720000D01*
X87700000Y-116720000D02*
X87700000Y-113780000D01*
X87820000Y-116720000D02*
X87820000Y-113780000D01*
X87940000Y-116720000D02*
X87940000Y-113780000D01*
X88720000Y-113780000D02*
X83280000Y-113780000D01*
X88720000Y-116720000D02*
X88720000Y-113780000D01*
X89940000Y-115250000D02*
X88720000Y-115250000D01*
%TO.C,R2*%
X95630000Y-86230000D02*
X95630000Y-92770000D01*
X95630000Y-92770000D02*
X98370000Y-92770000D01*
X97000000Y-85460000D02*
X97000000Y-86230000D01*
X97000000Y-93540000D02*
X97000000Y-92770000D01*
X98370000Y-86230000D02*
X95630000Y-86230000D01*
X98370000Y-92770000D02*
X98370000Y-86230000D01*
%TO.C,J4*%
X111920000Y-115170000D02*
X113250000Y-115170000D01*
X111920000Y-116500000D02*
X111920000Y-115170000D01*
X111920000Y-117770000D02*
X111920000Y-117830000D01*
X111920000Y-117770000D02*
X114580000Y-117770000D01*
X111920000Y-117830000D02*
X114580000Y-117830000D01*
X114580000Y-117770000D02*
X114580000Y-117830000D01*
%TD*%
M02*
