%TF.GenerationSoftware,KiCad,Pcbnew,8.0.6*%
%TF.CreationDate,2025-02-10T12:59:46-08:00*%
%TF.ProjectId,LPF-v2,4c50462d-7632-42e6-9b69-6361645f7063,rev?*%
%TF.SameCoordinates,Original*%
%TF.FileFunction,Copper,L2,Bot*%
%TF.FilePolarity,Positive*%
%FSLAX46Y46*%
G04 Gerber Fmt 4.6, Leading zero omitted, Abs format (unit mm)*
G04 Created by KiCad (PCBNEW 8.0.6) date 2025-02-10 12:59:46*
%MOMM*%
%LPD*%
G01*
G04 APERTURE LIST*
%TA.AperFunction,ComponentPad*%
%ADD10C,1.600000*%
%TD*%
%TA.AperFunction,ComponentPad*%
%ADD11C,2.000000*%
%TD*%
%TA.AperFunction,ComponentPad*%
%ADD12R,1.700000X1.700000*%
%TD*%
%TA.AperFunction,ComponentPad*%
%ADD13R,1.800000X1.800000*%
%TD*%
%TA.AperFunction,ComponentPad*%
%ADD14O,1.800000X1.800000*%
%TD*%
%TA.AperFunction,ComponentPad*%
%ADD15O,1.600000X1.600000*%
%TD*%
%TA.AperFunction,ComponentPad*%
%ADD16C,3.600000*%
%TD*%
%TA.AperFunction,ConnectorPad*%
%ADD17C,5.600000*%
%TD*%
%TA.AperFunction,ComponentPad*%
%ADD18R,1.600000X1.600000*%
%TD*%
%TA.AperFunction,ViaPad*%
%ADD19C,0.600000*%
%TD*%
%TA.AperFunction,Conductor*%
%ADD20C,0.500000*%
%TD*%
%TA.AperFunction,Conductor*%
%ADD21C,1.500000*%
%TD*%
G04 APERTURE END LIST*
D10*
%TO.P,C8,1*%
%TO.N,Net-(U1B-+)*%
X139250000Y-116500000D03*
%TO.P,C8,2*%
%TO.N,GND*%
X144250000Y-116500000D03*
%TD*%
D11*
%TO.P,C3,1*%
%TO.N,Net-(U1A-+)*%
X109630000Y-110250000D03*
%TO.P,C3,2*%
%TO.N,Net-(C3-Pad2)*%
X104630000Y-110250000D03*
%TD*%
D12*
%TO.P,J7,1,Pin_1*%
%TO.N,Net-(J7-Pin_1)*%
X142750000Y-91000000D03*
%TD*%
D13*
%TO.P,D2,1,K*%
%TO.N,Net-(D2-K)*%
X142670000Y-96500000D03*
D14*
%TO.P,D2,2,A*%
%TO.N,GND*%
X152830000Y-96500000D03*
%TD*%
D10*
%TO.P,R14,1*%
%TO.N,Net-(C5-Pad2)*%
X142420000Y-100500000D03*
D15*
%TO.P,R14,2*%
%TO.N,Net-(U1B-+)*%
X152580000Y-100500000D03*
%TD*%
D10*
%TO.P,R5,1*%
%TO.N,Net-(U1A--)*%
X101250000Y-94580000D03*
D15*
%TO.P,R5,2*%
%TO.N,Net-(R1-Pad2)*%
X101250000Y-84420000D03*
%TD*%
D10*
%TO.P,R7,1*%
%TO.N,Net-(D1-K)*%
X91080000Y-107250000D03*
D15*
%TO.P,R7,2*%
%TO.N,GND*%
X80920000Y-107250000D03*
%TD*%
D10*
%TO.P,R13,1*%
%TO.N,Net-(J7-Pin_1)*%
X142340000Y-104250000D03*
D15*
%TO.P,R13,2*%
%TO.N,Net-(D2-K)*%
X152500000Y-104250000D03*
%TD*%
D10*
%TO.P,R12,1*%
%TO.N,Net-(D2-K)*%
X142340000Y-108750000D03*
D15*
%TO.P,R12,2*%
%TO.N,GND*%
X152500000Y-108750000D03*
%TD*%
D10*
%TO.P,R8,1*%
%TO.N,Net-(J5-Pin_1)*%
X80920000Y-111250000D03*
D15*
%TO.P,R8,2*%
%TO.N,Net-(D1-K)*%
X91080000Y-111250000D03*
%TD*%
D12*
%TO.P,J3,1,Pin_1*%
%TO.N,Net-(J3-Pin_1)*%
X124000000Y-82750000D03*
%TD*%
D10*
%TO.P,C1,1*%
%TO.N,Net-(J2-Pin_1)*%
X91380000Y-99750000D03*
%TO.P,C1,2*%
%TO.N,Net-(C1-Pad2)*%
X96380000Y-99750000D03*
%TD*%
D16*
%TO.P,H1,1,1*%
%TO.N,GND*%
X75500000Y-82500000D03*
D17*
X75500000Y-82500000D03*
%TD*%
D10*
%TO.P,C6,1*%
%TO.N,Net-(U1B-+)*%
X128250000Y-116500000D03*
%TO.P,C6,2*%
%TO.N,Net-(C6-Pad2)*%
X133250000Y-116500000D03*
%TD*%
%TO.P,R1,1*%
%TO.N,Net-(J1-Pin_1)*%
X92000000Y-94580000D03*
D15*
%TO.P,R1,2*%
%TO.N,Net-(R1-Pad2)*%
X92000000Y-84420000D03*
%TD*%
D10*
%TO.P,R6,1*%
%TO.N,Net-(U1A--)*%
X106000000Y-84420000D03*
D15*
%TO.P,R6,2*%
%TO.N,Net-(C3-Pad2)*%
X106000000Y-94580000D03*
%TD*%
D16*
%TO.P,H3,1,1*%
%TO.N,GND*%
X75500000Y-118000000D03*
D17*
X75500000Y-118000000D03*
%TD*%
D16*
%TO.P,H2,1,1*%
%TO.N,GND*%
X151750000Y-82500000D03*
D17*
X151750000Y-82500000D03*
%TD*%
D10*
%TO.P,R10,1*%
%TO.N,Net-(R1-Pad2)*%
X131000000Y-89170000D03*
D15*
%TO.P,R10,2*%
%TO.N,Net-(U1B--)*%
X131000000Y-99330000D03*
%TD*%
D10*
%TO.P,R3,1*%
%TO.N,Net-(C1-Pad2)*%
X100920000Y-100420000D03*
D15*
%TO.P,R3,2*%
%TO.N,Net-(U1A-+)*%
X111080000Y-100420000D03*
%TD*%
D12*
%TO.P,J1,1,Pin_1*%
%TO.N,Net-(J1-Pin_1)*%
X76000000Y-94500000D03*
%TD*%
D18*
%TO.P,U1,1*%
%TO.N,Net-(C3-Pad2)*%
X114380000Y-92670000D03*
D15*
%TO.P,U1,2,-*%
%TO.N,Net-(U1A--)*%
X114380000Y-95210000D03*
%TO.P,U1,3,+*%
%TO.N,Net-(U1A-+)*%
X114380000Y-97750000D03*
%TO.P,U1,4,V-*%
%TO.N,GND*%
X114380000Y-100290000D03*
%TO.P,U1,5,+*%
%TO.N,Net-(U1B-+)*%
X122000000Y-100290000D03*
%TO.P,U1,6,-*%
%TO.N,Net-(U1B--)*%
X122000000Y-97750000D03*
%TO.P,U1,7*%
%TO.N,Net-(C6-Pad2)*%
X122000000Y-95210000D03*
%TO.P,U1,8,V+*%
%TO.N,Net-(J3-Pin_1)*%
X122000000Y-92670000D03*
%TD*%
D12*
%TO.P,J6,1,Pin_1*%
%TO.N,Net-(J6-Pin_1)*%
X128750000Y-82750000D03*
%TD*%
D10*
%TO.P,R4,1*%
%TO.N,Net-(R1-Pad2)*%
X109920000Y-87750000D03*
D15*
%TO.P,R4,2*%
%TO.N,GND*%
X120080000Y-87750000D03*
%TD*%
D10*
%TO.P,R9,1*%
%TO.N,Net-(R1-Pad2)*%
X136000000Y-89170000D03*
D15*
%TO.P,R9,2*%
%TO.N,Net-(C5-Pad2)*%
X136000000Y-99330000D03*
%TD*%
D12*
%TO.P,J2,1,Pin_1*%
%TO.N,Net-(J2-Pin_1)*%
X76000000Y-100250000D03*
%TD*%
D10*
%TO.P,C4,1*%
%TO.N,Net-(C3-Pad2)*%
X94750000Y-110000000D03*
%TO.P,C4,2*%
%TO.N,Net-(D1-K)*%
X99750000Y-110000000D03*
%TD*%
%TO.P,C2,1*%
%TO.N,GND*%
X121880000Y-110250000D03*
%TO.P,C2,2*%
%TO.N,Net-(U1A-+)*%
X116880000Y-110250000D03*
%TD*%
%TO.P,C7,1*%
%TO.N,Net-(C6-Pad2)*%
X128250000Y-104750000D03*
%TO.P,C7,2*%
%TO.N,Net-(D2-K)*%
X133250000Y-104750000D03*
%TD*%
D12*
%TO.P,J5,1,Pin_1*%
%TO.N,Net-(J5-Pin_1)*%
X76000000Y-109750000D03*
%TD*%
D10*
%TO.P,R11,1*%
%TO.N,Net-(U1B--)*%
X126420000Y-111000000D03*
D15*
%TO.P,R11,2*%
%TO.N,Net-(C6-Pad2)*%
X136580000Y-111000000D03*
%TD*%
D16*
%TO.P,H4,1,1*%
%TO.N,GND*%
X151750000Y-118000000D03*
D17*
X151750000Y-118000000D03*
%TD*%
D10*
%TO.P,C5,1*%
%TO.N,Net-(J6-Pin_1)*%
X133500000Y-82750000D03*
%TO.P,C5,2*%
%TO.N,Net-(C5-Pad2)*%
X138500000Y-82750000D03*
%TD*%
D13*
%TO.P,D1,1,K*%
%TO.N,Net-(D1-K)*%
X91080000Y-115250000D03*
D14*
%TO.P,D1,2,A*%
%TO.N,GND*%
X80920000Y-115250000D03*
%TD*%
D10*
%TO.P,R2,1*%
%TO.N,Net-(R1-Pad2)*%
X97000000Y-84420000D03*
D15*
%TO.P,R2,2*%
%TO.N,Net-(C1-Pad2)*%
X97000000Y-94580000D03*
%TD*%
D12*
%TO.P,J4,1,Pin_1*%
%TO.N,GND*%
X113250000Y-116500000D03*
%TD*%
D19*
%TO.N,GND*%
X133750000Y-107500000D03*
X118750000Y-93750000D03*
X109750000Y-91000000D03*
X109500000Y-95250000D03*
X127000000Y-101000000D03*
X126500000Y-92000000D03*
X138000000Y-104500000D03*
%TD*%
D20*
%TO.N,Net-(C3-Pad2)*%
X114597717Y-92670000D02*
X114380000Y-92670000D01*
X117387717Y-112500000D02*
X119000000Y-110887717D01*
X119000000Y-110887717D02*
X119000000Y-97072283D01*
X106880000Y-112500000D02*
X117387717Y-112500000D01*
X104630000Y-110250000D02*
X106880000Y-112500000D01*
X119000000Y-97072283D02*
X114597717Y-92670000D01*
D21*
%TO.N,Net-(J1-Pin_1)*%
X76000000Y-94500000D02*
X91920000Y-94500000D01*
D20*
X91920000Y-94500000D02*
X92000000Y-94580000D01*
D21*
%TO.N,Net-(J2-Pin_1)*%
X76080000Y-100170000D02*
X76000000Y-100250000D01*
X91250000Y-100170000D02*
X76080000Y-100170000D01*
D20*
%TO.N,Net-(R1-Pad2)*%
X103420000Y-82250000D02*
X101250000Y-84420000D01*
X122100000Y-84750000D02*
X121000000Y-83650000D01*
X107250000Y-82250000D02*
X103420000Y-82250000D01*
X121000000Y-81000000D02*
X122250000Y-79750000D01*
X122250000Y-79750000D02*
X125000000Y-79750000D01*
X126750000Y-84920000D02*
X131000000Y-89170000D01*
X109920000Y-87750000D02*
X109920000Y-84920000D01*
X97000000Y-84420000D02*
X92000000Y-84420000D01*
X111870000Y-89700000D02*
X120887717Y-89700000D01*
X109920000Y-84920000D02*
X107250000Y-82250000D01*
X122100000Y-88487717D02*
X122100000Y-84750000D01*
X109920000Y-87750000D02*
X111870000Y-89700000D01*
X121000000Y-83650000D02*
X121000000Y-81000000D01*
X126750000Y-81500000D02*
X126750000Y-84920000D01*
X120887717Y-89700000D02*
X122100000Y-88487717D01*
X101250000Y-84420000D02*
X97000000Y-84420000D01*
X136000000Y-89170000D02*
X131000000Y-89170000D01*
X125000000Y-79750000D02*
X126750000Y-81500000D01*
%TO.N,Net-(C1-Pad2)*%
X100920000Y-100420000D02*
X96500000Y-100420000D01*
X97000000Y-99130000D02*
X96380000Y-99750000D01*
X96500000Y-100420000D02*
X96250000Y-100170000D01*
X97000000Y-94580000D02*
X97000000Y-99130000D01*
%TO.N,Net-(U1A--)*%
X106000000Y-89830000D02*
X101250000Y-94580000D01*
X106000000Y-84420000D02*
X106000000Y-89830000D01*
X110190101Y-97250000D02*
X112230101Y-95210000D01*
X101250000Y-94580000D02*
X103920000Y-97250000D01*
X103920000Y-97250000D02*
X110190101Y-97250000D01*
X112230101Y-95210000D02*
X114380000Y-95210000D01*
%TO.N,Net-(U1A-+)*%
X111080000Y-102050000D02*
X109630000Y-103500000D01*
X109630000Y-103500000D02*
X109630000Y-110250000D01*
X111670000Y-97750000D02*
X114380000Y-97750000D01*
X111080000Y-100420000D02*
X111080000Y-102050000D01*
X116880000Y-110250000D02*
X109630000Y-110250000D01*
X111080000Y-98340000D02*
X111670000Y-97750000D01*
X111080000Y-100420000D02*
X111080000Y-98340000D01*
%TO.N,Net-(C3-Pad2)*%
X94750000Y-110000000D02*
X94750000Y-111500000D01*
X107910000Y-92670000D02*
X114380000Y-92670000D01*
X94750000Y-111500000D02*
X97250000Y-114000000D01*
X106000000Y-94580000D02*
X107910000Y-92670000D01*
X97250000Y-114000000D02*
X100880000Y-114000000D01*
X100880000Y-114000000D02*
X104630000Y-110250000D01*
D21*
%TO.N,Net-(J3-Pin_1)*%
X124000000Y-82750000D02*
X124000000Y-90670000D01*
X124000000Y-90670000D02*
X122000000Y-92670000D01*
D20*
%TO.N,Net-(C6-Pad2)*%
X134500000Y-111000000D02*
X128250000Y-104750000D01*
X133250000Y-97750000D02*
X130710000Y-95210000D01*
X129500000Y-104750000D02*
X133250000Y-101000000D01*
X136580000Y-111000000D02*
X136580000Y-113170000D01*
X133250000Y-101000000D02*
X133250000Y-97750000D01*
X128250000Y-104750000D02*
X129500000Y-104750000D01*
X122000000Y-95210000D02*
X130710000Y-95210000D01*
X136580000Y-111000000D02*
X134500000Y-111000000D01*
X136580000Y-113170000D02*
X133250000Y-116500000D01*
%TO.N,Net-(J5-Pin_1)*%
X77500000Y-111250000D02*
X76000000Y-109750000D01*
X80920000Y-111250000D02*
X77500000Y-111250000D01*
%TO.N,Net-(C5-Pad2)*%
X142420000Y-100500000D02*
X137170000Y-100500000D01*
X138500000Y-82750000D02*
X138500000Y-96830000D01*
X137170000Y-100500000D02*
X136000000Y-99330000D01*
X138500000Y-96830000D02*
X136000000Y-99330000D01*
%TO.N,Net-(U1B-+)*%
X139250000Y-116500000D02*
X137250000Y-118500000D01*
X151007717Y-113000000D02*
X142750000Y-113000000D01*
X154450000Y-102370000D02*
X154450000Y-109557717D01*
X152580000Y-100500000D02*
X154450000Y-102370000D01*
X130250000Y-118500000D02*
X128250000Y-116500000D01*
X123830000Y-112080000D02*
X123830000Y-107830000D01*
X137250000Y-118500000D02*
X130250000Y-118500000D01*
X123830000Y-107830000D02*
X122000000Y-106000000D01*
X154450000Y-109557717D02*
X151007717Y-113000000D01*
X128250000Y-116500000D02*
X123830000Y-112080000D01*
X142750000Y-113000000D02*
X139250000Y-116500000D01*
X122000000Y-106000000D02*
X122000000Y-100290000D01*
%TO.N,Net-(D1-K)*%
X92500000Y-105830000D02*
X91080000Y-107250000D01*
X92500000Y-105750000D02*
X92500000Y-105830000D01*
X99750000Y-106500000D02*
X99000000Y-105750000D01*
X99000000Y-105750000D02*
X92500000Y-105750000D01*
X91080000Y-107250000D02*
X91080000Y-111250000D01*
X99750000Y-110000000D02*
X99750000Y-106500000D01*
X91080000Y-111250000D02*
X91080000Y-115250000D01*
%TO.N,Net-(D2-K)*%
X147000000Y-104250000D02*
X152500000Y-104250000D01*
X142340000Y-108750000D02*
X137250000Y-108750000D01*
X142670000Y-96500000D02*
X144750000Y-96500000D01*
X142500000Y-108750000D02*
X147000000Y-104250000D01*
X137250000Y-108750000D02*
X133250000Y-104750000D01*
X142340000Y-108750000D02*
X142500000Y-108750000D01*
X144750000Y-96500000D02*
X152500000Y-104250000D01*
D21*
%TO.N,Net-(J6-Pin_1)*%
X128750000Y-82750000D02*
X133500000Y-82750000D01*
D20*
%TO.N,Net-(J7-Pin_1)*%
X140620000Y-93130000D02*
X140620000Y-98550000D01*
X140620000Y-98550000D02*
X143300000Y-98550000D01*
X144370000Y-102220000D02*
X142340000Y-104250000D01*
X142750000Y-91000000D02*
X140620000Y-93130000D01*
X144370000Y-99620000D02*
X144370000Y-102220000D01*
X143300000Y-98550000D02*
X144370000Y-99620000D01*
%TO.N,Net-(U1B--)*%
X122500000Y-97750000D02*
X124114949Y-99364949D01*
X126420000Y-108440102D02*
X126420000Y-111000000D01*
X122000000Y-97750000D02*
X122500000Y-97750000D01*
X124114949Y-106135051D02*
X126420000Y-108440102D01*
X129420000Y-97750000D02*
X122000000Y-97750000D01*
X124114949Y-99364949D02*
X124114949Y-106135051D01*
X131000000Y-99330000D02*
X129420000Y-97750000D01*
%TD*%
%TA.AperFunction,Conductor*%
%TO.N,GND*%
G36*
X74279588Y-119042330D02*
G01*
X74457670Y-119220412D01*
X74559300Y-119294251D01*
X73347257Y-120506294D01*
X73360495Y-120518836D01*
X73645367Y-120735388D01*
X73645370Y-120735390D01*
X73951990Y-120919876D01*
X74153189Y-121012961D01*
X74205767Y-121058975D01*
X74225121Y-121126111D01*
X74205107Y-121193052D01*
X74152078Y-121238547D01*
X74101123Y-121249500D01*
X72374500Y-121249500D01*
X72307461Y-121229815D01*
X72261706Y-121177011D01*
X72250500Y-121125500D01*
X72250500Y-119406187D01*
X72270185Y-119339148D01*
X72322989Y-119293393D01*
X72392147Y-119283449D01*
X72455703Y-119312474D01*
X72489694Y-119360291D01*
X72500602Y-119387668D01*
X72500606Y-119387677D01*
X72668218Y-119703827D01*
X72869024Y-119999994D01*
X72869035Y-120000008D01*
X72996441Y-120150002D01*
X72996442Y-120150002D01*
X74205747Y-118940697D01*
X74279588Y-119042330D01*
G37*
%TD.AperFunction*%
%TA.AperFunction,Conductor*%
G36*
X120890124Y-79270185D02*
G01*
X120935879Y-79322989D01*
X120945823Y-79392147D01*
X120916798Y-79455703D01*
X120910769Y-79462177D01*
X120391783Y-79981163D01*
X120250502Y-80122444D01*
X120122445Y-80250500D01*
X120122441Y-80250504D01*
X120029937Y-80377828D01*
X120029937Y-80377829D01*
X120016004Y-80397005D01*
X119933788Y-80558360D01*
X119933787Y-80558363D01*
X119877829Y-80730589D01*
X119877829Y-80730591D01*
X119850997Y-80900000D01*
X119849499Y-80909455D01*
X119849499Y-81095656D01*
X119849500Y-81095681D01*
X119849500Y-83555038D01*
X119849499Y-83555053D01*
X119849499Y-83559454D01*
X119849499Y-83740546D01*
X119868466Y-83860291D01*
X119870391Y-83872447D01*
X119870391Y-83872448D01*
X119877829Y-83919410D01*
X119933787Y-84091636D01*
X119933788Y-84091639D01*
X119971598Y-84165843D01*
X120002661Y-84226808D01*
X120016006Y-84252997D01*
X120122440Y-84399493D01*
X120122444Y-84399497D01*
X120122447Y-84399501D01*
X120201306Y-84478360D01*
X120254829Y-84531883D01*
X120254840Y-84531893D01*
X120913181Y-85190234D01*
X120946666Y-85251557D01*
X120949500Y-85277915D01*
X120949500Y-86533621D01*
X120929815Y-86600660D01*
X120877011Y-86646415D01*
X120807853Y-86656359D01*
X120754377Y-86635196D01*
X120732487Y-86619868D01*
X120732483Y-86619866D01*
X120526328Y-86523734D01*
X120330000Y-86471127D01*
X120330000Y-87434314D01*
X120325606Y-87429920D01*
X120234394Y-87377259D01*
X120132661Y-87350000D01*
X120027339Y-87350000D01*
X119925606Y-87377259D01*
X119834394Y-87429920D01*
X119830000Y-87434314D01*
X119830000Y-86471127D01*
X119633671Y-86523734D01*
X119427517Y-86619865D01*
X119241179Y-86750342D01*
X119080342Y-86911179D01*
X118949865Y-87097517D01*
X118853734Y-87303673D01*
X118853730Y-87303682D01*
X118801127Y-87499999D01*
X118801128Y-87500000D01*
X119764314Y-87500000D01*
X119759920Y-87504394D01*
X119707259Y-87595606D01*
X119680000Y-87697339D01*
X119680000Y-87802661D01*
X119707259Y-87904394D01*
X119759920Y-87995606D01*
X119764314Y-88000000D01*
X118801128Y-88000000D01*
X118853730Y-88196317D01*
X118853735Y-88196331D01*
X118936162Y-88373096D01*
X118946654Y-88442173D01*
X118918134Y-88505957D01*
X118859657Y-88544196D01*
X118823780Y-88549500D01*
X112397915Y-88549500D01*
X112330876Y-88529815D01*
X112310234Y-88513181D01*
X111660038Y-87862985D01*
X111626553Y-87801662D01*
X111624066Y-87766035D01*
X111625268Y-87750000D01*
X111625268Y-87749996D01*
X111606863Y-87504394D01*
X111606222Y-87495843D01*
X111549508Y-87247363D01*
X111456393Y-87010112D01*
X111328959Y-86789388D01*
X111170050Y-86590123D01*
X111170049Y-86590122D01*
X111170046Y-86590118D01*
X111110159Y-86534552D01*
X111074404Y-86474524D01*
X111070500Y-86443653D01*
X111070500Y-85015681D01*
X111070501Y-85015656D01*
X111070501Y-84829454D01*
X111051926Y-84712180D01*
X111042171Y-84650591D01*
X110993404Y-84500498D01*
X110986212Y-84478363D01*
X110986211Y-84478360D01*
X110944319Y-84396145D01*
X110903996Y-84317006D01*
X110876804Y-84279579D01*
X110797553Y-84170499D01*
X110669501Y-84042447D01*
X110669500Y-84042446D01*
X110666389Y-84039335D01*
X110666374Y-84039321D01*
X108131893Y-81504840D01*
X108131884Y-81504830D01*
X108071814Y-81444760D01*
X107999501Y-81372447D01*
X107999497Y-81372444D01*
X107999493Y-81372440D01*
X107852997Y-81266006D01*
X107852996Y-81266005D01*
X107852994Y-81266004D01*
X107801300Y-81239664D01*
X107691639Y-81183788D01*
X107691636Y-81183787D01*
X107519410Y-81127829D01*
X107421505Y-81112322D01*
X107340546Y-81099499D01*
X107159454Y-81099499D01*
X107154343Y-81099499D01*
X107154319Y-81099500D01*
X103515681Y-81099500D01*
X103515657Y-81099499D01*
X103510546Y-81099499D01*
X103329453Y-81099499D01*
X103269832Y-81108942D01*
X103150589Y-81127829D01*
X102978363Y-81183787D01*
X102978360Y-81183788D01*
X102817002Y-81266006D01*
X102670505Y-81372441D01*
X102670500Y-81372445D01*
X102542444Y-81500502D01*
X101359766Y-82683181D01*
X101298443Y-82716666D01*
X101272085Y-82719500D01*
X101122559Y-82719500D01*
X100965609Y-82743157D01*
X100870542Y-82757487D01*
X100870539Y-82757488D01*
X100870533Y-82757489D01*
X100626992Y-82832612D01*
X100397373Y-82943190D01*
X100397372Y-82943191D01*
X100186782Y-83086768D01*
X100157232Y-83114187D01*
X100025517Y-83236399D01*
X99962987Y-83267567D01*
X99941178Y-83269500D01*
X98308822Y-83269500D01*
X98241783Y-83249815D01*
X98224484Y-83236401D01*
X98063217Y-83086768D01*
X97852634Y-82943195D01*
X97852630Y-82943193D01*
X97852627Y-82943191D01*
X97852626Y-82943190D01*
X97623006Y-82832612D01*
X97623008Y-82832612D01*
X97379466Y-82757489D01*
X97379462Y-82757488D01*
X97379458Y-82757487D01*
X97258231Y-82739214D01*
X97127440Y-82719500D01*
X97127435Y-82719500D01*
X96872565Y-82719500D01*
X96872559Y-82719500D01*
X96715609Y-82743157D01*
X96620542Y-82757487D01*
X96620539Y-82757488D01*
X96620533Y-82757489D01*
X96376992Y-82832612D01*
X96147373Y-82943190D01*
X96147372Y-82943191D01*
X95936782Y-83086768D01*
X95907232Y-83114187D01*
X95775517Y-83236399D01*
X95712987Y-83267567D01*
X95691178Y-83269500D01*
X93308822Y-83269500D01*
X93241783Y-83249815D01*
X93224484Y-83236401D01*
X93063217Y-83086768D01*
X92852634Y-82943195D01*
X92852630Y-82943193D01*
X92852627Y-82943191D01*
X92852626Y-82943190D01*
X92623006Y-82832612D01*
X92623008Y-82832612D01*
X92379466Y-82757489D01*
X92379462Y-82757488D01*
X92379458Y-82757487D01*
X92258231Y-82739214D01*
X92127440Y-82719500D01*
X92127435Y-82719500D01*
X91872565Y-82719500D01*
X91872559Y-82719500D01*
X91715609Y-82743157D01*
X91620542Y-82757487D01*
X91620539Y-82757488D01*
X91620533Y-82757489D01*
X91376992Y-82832612D01*
X91147373Y-82943190D01*
X91147372Y-82943191D01*
X90936782Y-83086768D01*
X90749952Y-83260121D01*
X90749950Y-83260123D01*
X90591041Y-83459388D01*
X90463608Y-83680109D01*
X90370492Y-83917362D01*
X90370490Y-83917369D01*
X90313777Y-84165845D01*
X90294732Y-84419995D01*
X90294732Y-84420004D01*
X90313777Y-84674154D01*
X90349223Y-84829454D01*
X90370492Y-84922637D01*
X90463607Y-85159888D01*
X90591041Y-85380612D01*
X90749950Y-85579877D01*
X90936783Y-85753232D01*
X91147366Y-85896805D01*
X91147371Y-85896807D01*
X91147372Y-85896808D01*
X91147373Y-85896809D01*
X91269328Y-85955538D01*
X91376992Y-86007387D01*
X91376993Y-86007387D01*
X91376996Y-86007389D01*
X91620542Y-86082513D01*
X91872565Y-86120500D01*
X92127435Y-86120500D01*
X92379458Y-86082513D01*
X92623004Y-86007389D01*
X92852634Y-85896805D01*
X93063217Y-85753232D01*
X93224482Y-85603600D01*
X93287013Y-85572433D01*
X93308822Y-85570500D01*
X95691178Y-85570500D01*
X95758217Y-85590185D01*
X95775515Y-85603598D01*
X95936783Y-85753232D01*
X96147366Y-85896805D01*
X96147371Y-85896807D01*
X96147372Y-85896808D01*
X96147373Y-85896809D01*
X96269328Y-85955538D01*
X96376992Y-86007387D01*
X96376993Y-86007387D01*
X96376996Y-86007389D01*
X96620542Y-86082513D01*
X96872565Y-86120500D01*
X97127435Y-86120500D01*
X97379458Y-86082513D01*
X97623004Y-86007389D01*
X97852634Y-85896805D01*
X98063217Y-85753232D01*
X98224482Y-85603600D01*
X98287013Y-85572433D01*
X98308822Y-85570500D01*
X99941178Y-85570500D01*
X100008217Y-85590185D01*
X100025515Y-85603598D01*
X100186783Y-85753232D01*
X100397366Y-85896805D01*
X100397371Y-85896807D01*
X100397372Y-85896808D01*
X100397373Y-85896809D01*
X100519328Y-85955538D01*
X100626992Y-86007387D01*
X100626993Y-86007387D01*
X100626996Y-86007389D01*
X100870542Y-86082513D01*
X101122565Y-86120500D01*
X101377435Y-86120500D01*
X101629458Y-86082513D01*
X101873004Y-86007389D01*
X102102634Y-85896805D01*
X102313217Y-85753232D01*
X102500050Y-85579877D01*
X102658959Y-85380612D01*
X102786393Y-85159888D01*
X102879508Y-84922637D01*
X102936222Y-84674157D01*
X102949236Y-84500498D01*
X102955268Y-84420004D01*
X102955268Y-84419998D01*
X102954066Y-84403962D01*
X102968685Y-84335639D01*
X102990034Y-84307017D01*
X103860234Y-83436819D01*
X103921557Y-83403334D01*
X103947915Y-83400500D01*
X104410266Y-83400500D01*
X104477305Y-83420185D01*
X104523060Y-83472989D01*
X104533004Y-83542147D01*
X104517653Y-83586499D01*
X104463610Y-83680105D01*
X104463609Y-83680106D01*
X104370492Y-83917362D01*
X104370490Y-83917369D01*
X104313777Y-84165845D01*
X104294732Y-84419995D01*
X104294732Y-84420004D01*
X104313777Y-84674154D01*
X104349223Y-84829454D01*
X104370492Y-84922637D01*
X104463607Y-85159888D01*
X104591041Y-85380612D01*
X104749950Y-85579877D01*
X104809841Y-85635447D01*
X104845596Y-85695475D01*
X104849500Y-85726346D01*
X104849500Y-89302085D01*
X104829815Y-89369124D01*
X104813181Y-89389766D01*
X101359766Y-92843181D01*
X101298443Y-92876666D01*
X101272085Y-92879500D01*
X101122559Y-92879500D01*
X100965609Y-92903157D01*
X100870542Y-92917487D01*
X100870539Y-92917488D01*
X100870533Y-92917489D01*
X100626992Y-92992612D01*
X100397373Y-93103190D01*
X100397372Y-93103191D01*
X100186782Y-93246768D01*
X99999952Y-93420121D01*
X99999950Y-93420123D01*
X99841041Y-93619388D01*
X99713608Y-93840109D01*
X99620492Y-94077362D01*
X99620490Y-94077369D01*
X99563777Y-94325845D01*
X99544732Y-94579995D01*
X99544732Y-94580004D01*
X99563777Y-94834154D01*
X99591552Y-94955845D01*
X99620492Y-95082637D01*
X99671861Y-95213523D01*
X99713608Y-95319890D01*
X99715953Y-95323952D01*
X99841041Y-95540612D01*
X99999950Y-95739877D01*
X100186783Y-95913232D01*
X100397366Y-96056805D01*
X100397371Y-96056807D01*
X100397372Y-96056808D01*
X100397373Y-96056809D01*
X100480138Y-96096666D01*
X100626992Y-96167387D01*
X100626993Y-96167387D01*
X100626996Y-96167389D01*
X100870542Y-96242513D01*
X101122565Y-96280500D01*
X101272085Y-96280500D01*
X101339124Y-96300185D01*
X101359766Y-96316819D01*
X103039321Y-97996374D01*
X103039335Y-97996389D01*
X103042446Y-97999500D01*
X103042447Y-97999501D01*
X103170499Y-98127553D01*
X103170502Y-98127555D01*
X103170505Y-98127558D01*
X103218754Y-98162612D01*
X103262581Y-98194454D01*
X103317006Y-98233996D01*
X103356162Y-98253947D01*
X103478360Y-98316211D01*
X103478363Y-98316212D01*
X103548204Y-98338904D01*
X103650591Y-98372171D01*
X103829453Y-98400501D01*
X103829454Y-98400501D01*
X104015657Y-98400501D01*
X104015681Y-98400500D01*
X109805500Y-98400500D01*
X109872539Y-98420185D01*
X109918294Y-98472989D01*
X109929500Y-98524500D01*
X109929500Y-99113653D01*
X109909815Y-99180692D01*
X109889841Y-99204552D01*
X109829953Y-99260118D01*
X109671041Y-99459388D01*
X109543608Y-99680109D01*
X109450492Y-99917362D01*
X109450490Y-99917369D01*
X109393777Y-100165845D01*
X109374732Y-100419995D01*
X109374732Y-100420004D01*
X109393777Y-100674154D01*
X109449293Y-100917387D01*
X109450492Y-100922637D01*
X109543607Y-101159888D01*
X109671041Y-101380612D01*
X109802173Y-101545046D01*
X109828581Y-101609732D01*
X109815826Y-101678427D01*
X109792907Y-101710039D01*
X108752448Y-102750497D01*
X108752443Y-102750503D01*
X108699776Y-102822994D01*
X108646006Y-102897002D01*
X108563788Y-103058360D01*
X108563787Y-103058363D01*
X108507829Y-103230589D01*
X108501081Y-103273195D01*
X108485362Y-103372441D01*
X108479499Y-103409455D01*
X108479499Y-103595656D01*
X108479500Y-103595681D01*
X108479500Y-108675164D01*
X108459815Y-108742203D01*
X108429811Y-108774431D01*
X108382259Y-108810028D01*
X108382247Y-108810038D01*
X108190038Y-109002247D01*
X108190028Y-109002259D01*
X108027110Y-109219891D01*
X108027109Y-109219892D01*
X107896830Y-109458480D01*
X107862882Y-109549500D01*
X107801825Y-109713199D01*
X107801824Y-109713202D01*
X107801823Y-109713206D01*
X107744040Y-109978832D01*
X107744039Y-109978839D01*
X107724645Y-110249998D01*
X107724645Y-110250001D01*
X107744039Y-110521160D01*
X107744040Y-110521167D01*
X107793246Y-110747363D01*
X107801825Y-110786801D01*
X107872196Y-110975472D01*
X107896830Y-111041519D01*
X107964842Y-111166073D01*
X107979694Y-111234346D01*
X107955277Y-111299811D01*
X107899343Y-111341682D01*
X107856010Y-111349500D01*
X107407914Y-111349500D01*
X107340875Y-111329815D01*
X107320233Y-111313181D01*
X106556821Y-110549769D01*
X106523336Y-110488446D01*
X106520818Y-110453241D01*
X106535355Y-110249999D01*
X106535355Y-110249998D01*
X106531940Y-110202251D01*
X106515961Y-109978840D01*
X106458175Y-109713199D01*
X106363172Y-109458487D01*
X106363170Y-109458484D01*
X106363169Y-109458480D01*
X106232890Y-109219892D01*
X106232889Y-109219891D01*
X106232887Y-109219887D01*
X106069971Y-109002258D01*
X106069966Y-109002253D01*
X106069961Y-109002247D01*
X105877752Y-108810038D01*
X105877746Y-108810033D01*
X105877742Y-108810029D01*
X105660113Y-108647113D01*
X105660108Y-108647110D01*
X105660107Y-108647109D01*
X105421518Y-108516830D01*
X105421519Y-108516830D01*
X105371920Y-108498330D01*
X105166801Y-108421825D01*
X105166794Y-108421823D01*
X105166793Y-108421823D01*
X104901167Y-108364040D01*
X104901160Y-108364039D01*
X104630001Y-108344645D01*
X104629999Y-108344645D01*
X104358839Y-108364039D01*
X104358832Y-108364040D01*
X104093206Y-108421823D01*
X104093202Y-108421824D01*
X104093199Y-108421825D01*
X103976244Y-108465447D01*
X103838480Y-108516830D01*
X103599892Y-108647109D01*
X103599891Y-108647110D01*
X103382259Y-108810028D01*
X103382247Y-108810038D01*
X103190038Y-109002247D01*
X103190028Y-109002259D01*
X103027110Y-109219891D01*
X103027109Y-109219892D01*
X102896830Y-109458480D01*
X102862882Y-109549500D01*
X102801825Y-109713199D01*
X102801824Y-109713202D01*
X102801823Y-109713206D01*
X102744040Y-109978832D01*
X102744039Y-109978839D01*
X102724645Y-110249998D01*
X102724645Y-110250001D01*
X102739181Y-110453240D01*
X102724329Y-110521513D01*
X102703178Y-110549767D01*
X100439766Y-112813181D01*
X100378443Y-112846666D01*
X100352085Y-112849500D01*
X97777915Y-112849500D01*
X97710876Y-112829815D01*
X97690234Y-112813181D01*
X96094769Y-111217716D01*
X96061284Y-111156393D01*
X96066268Y-111086701D01*
X96085503Y-111052722D01*
X96094442Y-111041513D01*
X96158959Y-110960612D01*
X96286393Y-110739888D01*
X96379508Y-110502637D01*
X96436222Y-110254157D01*
X96447957Y-110097567D01*
X96455268Y-110000004D01*
X96455268Y-109999995D01*
X96436222Y-109745845D01*
X96433954Y-109735909D01*
X96379508Y-109497363D01*
X96286393Y-109260112D01*
X96158959Y-109039388D01*
X96000050Y-108840123D01*
X95813217Y-108666768D01*
X95602634Y-108523195D01*
X95602630Y-108523193D01*
X95602627Y-108523191D01*
X95602626Y-108523190D01*
X95373006Y-108412612D01*
X95373008Y-108412612D01*
X95129466Y-108337489D01*
X95129462Y-108337488D01*
X95129458Y-108337487D01*
X95008231Y-108319214D01*
X94877440Y-108299500D01*
X94877435Y-108299500D01*
X94622565Y-108299500D01*
X94622559Y-108299500D01*
X94465609Y-108323157D01*
X94370542Y-108337487D01*
X94370539Y-108337488D01*
X94370533Y-108337489D01*
X94126992Y-108412612D01*
X93897373Y-108523190D01*
X93897372Y-108523191D01*
X93897366Y-108523194D01*
X93897366Y-108523195D01*
X93886426Y-108530654D01*
X93686782Y-108666768D01*
X93499952Y-108840121D01*
X93499950Y-108840123D01*
X93341041Y-109039388D01*
X93213608Y-109260109D01*
X93120492Y-109497362D01*
X93120490Y-109497369D01*
X93063777Y-109745845D01*
X93044732Y-109999995D01*
X93044732Y-110000004D01*
X93063777Y-110254154D01*
X93119289Y-110497369D01*
X93120492Y-110502637D01*
X93213607Y-110739888D01*
X93341041Y-110960612D01*
X93499950Y-111159877D01*
X93559841Y-111215447D01*
X93595596Y-111275475D01*
X93599500Y-111306346D01*
X93599500Y-111405038D01*
X93599499Y-111405053D01*
X93599499Y-111590545D01*
X93624183Y-111746396D01*
X93627173Y-111765270D01*
X93627829Y-111769409D01*
X93627830Y-111769415D01*
X93683787Y-111941636D01*
X93683788Y-111941639D01*
X93766006Y-112102997D01*
X93872440Y-112249493D01*
X93872444Y-112249497D01*
X93872447Y-112249501D01*
X93939155Y-112316209D01*
X94004829Y-112381883D01*
X94004840Y-112381893D01*
X96369321Y-114746374D01*
X96369335Y-114746389D01*
X96372446Y-114749500D01*
X96372447Y-114749501D01*
X96500499Y-114877553D01*
X96500502Y-114877555D01*
X96500505Y-114877558D01*
X96517507Y-114889910D01*
X96577858Y-114933757D01*
X96647006Y-114983996D01*
X96723928Y-115023190D01*
X96808360Y-115066211D01*
X96808363Y-115066212D01*
X96851178Y-115080123D01*
X96980591Y-115122171D01*
X97159454Y-115150501D01*
X97159455Y-115150501D01*
X97345658Y-115150501D01*
X97345682Y-115150500D01*
X100784319Y-115150500D01*
X100784343Y-115150501D01*
X100789454Y-115150501D01*
X100970545Y-115150501D01*
X100970546Y-115150501D01*
X101149409Y-115122171D01*
X101321639Y-115066211D01*
X101482994Y-114983996D01*
X101552142Y-114933757D01*
X101629501Y-114877553D01*
X101757553Y-114749501D01*
X101757554Y-114749499D01*
X101764614Y-114742439D01*
X101764620Y-114742432D01*
X104330232Y-112176819D01*
X104391553Y-112143336D01*
X104426757Y-112140818D01*
X104630000Y-112155355D01*
X104833241Y-112140818D01*
X104901514Y-112155670D01*
X104929769Y-112176821D01*
X105999315Y-113246367D01*
X105999342Y-113246396D01*
X106002446Y-113249500D01*
X106002447Y-113249501D01*
X106130499Y-113377553D01*
X106130502Y-113377555D01*
X106130506Y-113377559D01*
X106263364Y-113474084D01*
X106277006Y-113483996D01*
X106422955Y-113558361D01*
X106438361Y-113566211D01*
X106554629Y-113603988D01*
X106610590Y-113622172D01*
X106789449Y-113650501D01*
X106789454Y-113650501D01*
X106975658Y-113650501D01*
X106975682Y-113650500D01*
X117292036Y-113650500D01*
X117292060Y-113650501D01*
X117297171Y-113650501D01*
X117478262Y-113650501D01*
X117478263Y-113650501D01*
X117657126Y-113622171D01*
X117829356Y-113566211D01*
X117990711Y-113483996D01*
X118137218Y-113377553D01*
X118265270Y-113249501D01*
X118265270Y-113249499D01*
X118272331Y-113242439D01*
X118272337Y-113242432D01*
X119742432Y-111772337D01*
X119742439Y-111772331D01*
X119749499Y-111765271D01*
X119749501Y-111765270D01*
X119877553Y-111637218D01*
X119983996Y-111490711D01*
X120066211Y-111329356D01*
X120122171Y-111157126D01*
X120126855Y-111127553D01*
X120150501Y-110978264D01*
X120150501Y-110797171D01*
X120150501Y-110792770D01*
X120150500Y-110792755D01*
X120150500Y-100887461D01*
X120170185Y-100820422D01*
X120222989Y-100774667D01*
X120292147Y-100764723D01*
X120355703Y-100793748D01*
X120389927Y-100842157D01*
X120448938Y-100992513D01*
X120463608Y-101029890D01*
X120475325Y-101050185D01*
X120591041Y-101250612D01*
X120749950Y-101449877D01*
X120809841Y-101505447D01*
X120845596Y-101565475D01*
X120849500Y-101596346D01*
X120849500Y-105905038D01*
X120849499Y-105905053D01*
X120849499Y-106090544D01*
X120856970Y-106137713D01*
X120856970Y-106137714D01*
X120877829Y-106269410D01*
X120933787Y-106441636D01*
X120933788Y-106441639D01*
X120968676Y-106510109D01*
X121013213Y-106597517D01*
X121016006Y-106602997D01*
X121122440Y-106749493D01*
X121122444Y-106749497D01*
X121122447Y-106749501D01*
X121222946Y-106850000D01*
X121254829Y-106881883D01*
X121254840Y-106881893D01*
X122643181Y-108270234D01*
X122676666Y-108331557D01*
X122679500Y-108357915D01*
X122679500Y-108993780D01*
X122659815Y-109060819D01*
X122607011Y-109106574D01*
X122537853Y-109116518D01*
X122503096Y-109106162D01*
X122326331Y-109023735D01*
X122326317Y-109023730D01*
X122106610Y-108964860D01*
X122106599Y-108964858D01*
X121880002Y-108945034D01*
X121879998Y-108945034D01*
X121653400Y-108964858D01*
X121653389Y-108964860D01*
X121433682Y-109023730D01*
X121433673Y-109023734D01*
X121227516Y-109119866D01*
X121227512Y-109119868D01*
X121154526Y-109170973D01*
X121154526Y-109170974D01*
X121833553Y-109850000D01*
X121827339Y-109850000D01*
X121725606Y-109877259D01*
X121634394Y-109929920D01*
X121559920Y-110004394D01*
X121507259Y-110095606D01*
X121480000Y-110197339D01*
X121480000Y-110203552D01*
X120800974Y-109524526D01*
X120800973Y-109524526D01*
X120749868Y-109597512D01*
X120749866Y-109597516D01*
X120653734Y-109803673D01*
X120653730Y-109803682D01*
X120594860Y-110023389D01*
X120594858Y-110023400D01*
X120575034Y-110249997D01*
X120575034Y-110250002D01*
X120594858Y-110476599D01*
X120594860Y-110476610D01*
X120653730Y-110696317D01*
X120653735Y-110696331D01*
X120749863Y-110902478D01*
X120800974Y-110975472D01*
X121480000Y-110296446D01*
X121480000Y-110302661D01*
X121507259Y-110404394D01*
X121559920Y-110495606D01*
X121634394Y-110570080D01*
X121725606Y-110622741D01*
X121827339Y-110650000D01*
X121833551Y-110650000D01*
X121154526Y-111329025D01*
X121227513Y-111380132D01*
X121227521Y-111380136D01*
X121433668Y-111476264D01*
X121433682Y-111476269D01*
X121653389Y-111535139D01*
X121653400Y-111535141D01*
X121879998Y-111554966D01*
X121880002Y-111554966D01*
X122106599Y-111535141D01*
X122106610Y-111535139D01*
X122326317Y-111476269D01*
X122326326Y-111476266D01*
X122503095Y-111393837D01*
X122572172Y-111383345D01*
X122635956Y-111411865D01*
X122674196Y-111470341D01*
X122679500Y-111506219D01*
X122679500Y-111985038D01*
X122679499Y-111985053D01*
X122679499Y-111989454D01*
X122679499Y-112170546D01*
X122692005Y-112249501D01*
X122702571Y-112316212D01*
X122707829Y-112349410D01*
X122763787Y-112521636D01*
X122763788Y-112521639D01*
X122819664Y-112631300D01*
X122835568Y-112662513D01*
X122846006Y-112682997D01*
X122952440Y-112829493D01*
X122952444Y-112829497D01*
X122952447Y-112829501D01*
X123035127Y-112912181D01*
X123084829Y-112961883D01*
X123084840Y-112961893D01*
X126509961Y-116387014D01*
X126543446Y-116448337D01*
X126545934Y-116483957D01*
X126544733Y-116499996D01*
X126544732Y-116500003D01*
X126544732Y-116500004D01*
X126563777Y-116754154D01*
X126618821Y-116995319D01*
X126620492Y-117002637D01*
X126713607Y-117239888D01*
X126841041Y-117460612D01*
X126999950Y-117659877D01*
X127186783Y-117833232D01*
X127397366Y-117976805D01*
X127397371Y-117976807D01*
X127397372Y-117976808D01*
X127397373Y-117976809D01*
X127519328Y-118035538D01*
X127626992Y-118087387D01*
X127626993Y-118087387D01*
X127626996Y-118087389D01*
X127870542Y-118162513D01*
X128122565Y-118200500D01*
X128272085Y-118200500D01*
X128339124Y-118220185D01*
X128359766Y-118236819D01*
X129369321Y-119246374D01*
X129369335Y-119246389D01*
X129372446Y-119249500D01*
X129372447Y-119249501D01*
X129500499Y-119377553D01*
X129500502Y-119377555D01*
X129500506Y-119377559D01*
X129633364Y-119474084D01*
X129647006Y-119483996D01*
X129752484Y-119537740D01*
X129808360Y-119566211D01*
X129808363Y-119566212D01*
X129894476Y-119594191D01*
X129980591Y-119622171D01*
X130159453Y-119650501D01*
X130159454Y-119650501D01*
X130345657Y-119650501D01*
X130345681Y-119650500D01*
X137154319Y-119650500D01*
X137154343Y-119650501D01*
X137159454Y-119650501D01*
X137340545Y-119650501D01*
X137340546Y-119650501D01*
X137519409Y-119622171D01*
X137691639Y-119566211D01*
X137852994Y-119483996D01*
X137999501Y-119377553D01*
X138127553Y-119249501D01*
X138127554Y-119249499D01*
X138134614Y-119242439D01*
X138134619Y-119242432D01*
X139140234Y-118236819D01*
X139201557Y-118203334D01*
X139227915Y-118200500D01*
X139377435Y-118200500D01*
X139629458Y-118162513D01*
X139873004Y-118087389D01*
X140102634Y-117976805D01*
X140313217Y-117833232D01*
X140500050Y-117659877D01*
X140658959Y-117460612D01*
X140786393Y-117239888D01*
X140879508Y-117002637D01*
X140936222Y-116754157D01*
X140944541Y-116643146D01*
X140955268Y-116500004D01*
X140955268Y-116499998D01*
X140955268Y-116499997D01*
X142945034Y-116499997D01*
X142945034Y-116500002D01*
X142964858Y-116726599D01*
X142964860Y-116726610D01*
X143023730Y-116946317D01*
X143023735Y-116946331D01*
X143119863Y-117152478D01*
X143170974Y-117225472D01*
X143850000Y-116546446D01*
X143850000Y-116552661D01*
X143877259Y-116654394D01*
X143929920Y-116745606D01*
X144004394Y-116820080D01*
X144095606Y-116872741D01*
X144197339Y-116900000D01*
X144203553Y-116900000D01*
X143524526Y-117579025D01*
X143597513Y-117630132D01*
X143597521Y-117630136D01*
X143803668Y-117726264D01*
X143803682Y-117726269D01*
X144023389Y-117785139D01*
X144023400Y-117785141D01*
X144249998Y-117804966D01*
X144250002Y-117804966D01*
X144476599Y-117785141D01*
X144476610Y-117785139D01*
X144696317Y-117726269D01*
X144696331Y-117726264D01*
X144902478Y-117630136D01*
X144975471Y-117579024D01*
X144296447Y-116900000D01*
X144302661Y-116900000D01*
X144404394Y-116872741D01*
X144495606Y-116820080D01*
X144570080Y-116745606D01*
X144622741Y-116654394D01*
X144650000Y-116552661D01*
X144650000Y-116546447D01*
X145329024Y-117225471D01*
X145380136Y-117152478D01*
X145476264Y-116946331D01*
X145476269Y-116946317D01*
X145535139Y-116726610D01*
X145535141Y-116726599D01*
X145554966Y-116500002D01*
X145554966Y-116499997D01*
X145535141Y-116273400D01*
X145535139Y-116273389D01*
X145476269Y-116053682D01*
X145476264Y-116053668D01*
X145380136Y-115847521D01*
X145380132Y-115847513D01*
X145329025Y-115774526D01*
X144650000Y-116453551D01*
X144650000Y-116447339D01*
X144622741Y-116345606D01*
X144570080Y-116254394D01*
X144495606Y-116179920D01*
X144404394Y-116127259D01*
X144302661Y-116100000D01*
X144296448Y-116100000D01*
X144975472Y-115420974D01*
X144902478Y-115369863D01*
X144696331Y-115273735D01*
X144696317Y-115273730D01*
X144476610Y-115214860D01*
X144476599Y-115214858D01*
X144250002Y-115195034D01*
X144249998Y-115195034D01*
X144023400Y-115214858D01*
X144023389Y-115214860D01*
X143803682Y-115273730D01*
X143803673Y-115273734D01*
X143597516Y-115369866D01*
X143597512Y-115369868D01*
X143524526Y-115420973D01*
X143524526Y-115420974D01*
X144203553Y-116100000D01*
X144197339Y-116100000D01*
X144095606Y-116127259D01*
X144004394Y-116179920D01*
X143929920Y-116254394D01*
X143877259Y-116345606D01*
X143850000Y-116447339D01*
X143850000Y-116453552D01*
X143170974Y-115774526D01*
X143170973Y-115774526D01*
X143119868Y-115847512D01*
X143119866Y-115847516D01*
X143023734Y-116053673D01*
X143023730Y-116053682D01*
X142964860Y-116273389D01*
X142964858Y-116273400D01*
X142945034Y-116499997D01*
X140955268Y-116499997D01*
X140954066Y-116483962D01*
X140968685Y-116415639D01*
X140990035Y-116387017D01*
X143190234Y-114186819D01*
X143251557Y-114153334D01*
X143277915Y-114150500D01*
X150912036Y-114150500D01*
X150912060Y-114150501D01*
X150917171Y-114150501D01*
X151098262Y-114150501D01*
X151098263Y-114150501D01*
X151277126Y-114122171D01*
X151449356Y-114066211D01*
X151610711Y-113983996D01*
X151757218Y-113877553D01*
X151885270Y-113749501D01*
X151885271Y-113749499D01*
X151892331Y-113742439D01*
X151892336Y-113742432D01*
X154787821Y-110846948D01*
X154849142Y-110813465D01*
X154918834Y-110818449D01*
X154974767Y-110860321D01*
X154999184Y-110925785D01*
X154999500Y-110934631D01*
X154999500Y-116593812D01*
X154979815Y-116660851D01*
X154927011Y-116706606D01*
X154857853Y-116716550D01*
X154794297Y-116687525D01*
X154760307Y-116639709D01*
X154749402Y-116612341D01*
X154749393Y-116612322D01*
X154581781Y-116296172D01*
X154380975Y-116000005D01*
X154380964Y-115999991D01*
X154253556Y-115849996D01*
X153044251Y-117059301D01*
X152970412Y-116957670D01*
X152792330Y-116779588D01*
X152690698Y-116705748D01*
X153902742Y-115493704D01*
X153889504Y-115481163D01*
X153604632Y-115264611D01*
X153604629Y-115264609D01*
X153298009Y-115080123D01*
X152973260Y-114929877D01*
X152973255Y-114929876D01*
X152634144Y-114815616D01*
X152284660Y-114738688D01*
X151928924Y-114700000D01*
X151571075Y-114700000D01*
X151215339Y-114738688D01*
X150865855Y-114815616D01*
X150526744Y-114929876D01*
X150526739Y-114929877D01*
X150201990Y-115080123D01*
X149895370Y-115264609D01*
X149895367Y-115264611D01*
X149610486Y-115481170D01*
X149610485Y-115481171D01*
X149597257Y-115493702D01*
X149597256Y-115493703D01*
X150809301Y-116705748D01*
X150707670Y-116779588D01*
X150529588Y-116957670D01*
X150455748Y-117059301D01*
X149246442Y-115849995D01*
X149246441Y-115849996D01*
X149119033Y-115999992D01*
X148918218Y-116296172D01*
X148750606Y-116612322D01*
X148750597Y-116612340D01*
X148618149Y-116944760D01*
X148618147Y-116944767D01*
X148522421Y-117289542D01*
X148522415Y-117289568D01*
X148464527Y-117642668D01*
X148464526Y-117642685D01*
X148445153Y-117999997D01*
X148445153Y-118000002D01*
X148464526Y-118357314D01*
X148464527Y-118357331D01*
X148522415Y-118710431D01*
X148522421Y-118710457D01*
X148618147Y-119055232D01*
X148618149Y-119055239D01*
X148750597Y-119387659D01*
X148750606Y-119387677D01*
X148918218Y-119703827D01*
X149119024Y-119999994D01*
X149119035Y-120000008D01*
X149246441Y-120150002D01*
X149246442Y-120150002D01*
X150455747Y-118940697D01*
X150529588Y-119042330D01*
X150707670Y-119220412D01*
X150809300Y-119294251D01*
X149597257Y-120506294D01*
X149610495Y-120518836D01*
X149895367Y-120735388D01*
X149895370Y-120735390D01*
X150201990Y-120919876D01*
X150403189Y-121012961D01*
X150455767Y-121058975D01*
X150475121Y-121126111D01*
X150455107Y-121193052D01*
X150402078Y-121238547D01*
X150351123Y-121249500D01*
X76898877Y-121249500D01*
X76831838Y-121229815D01*
X76786083Y-121177011D01*
X76776139Y-121107853D01*
X76805164Y-121044297D01*
X76846811Y-121012961D01*
X77048009Y-120919876D01*
X77354629Y-120735390D01*
X77354632Y-120735388D01*
X77639509Y-120518831D01*
X77652742Y-120506295D01*
X77652742Y-120506294D01*
X76440699Y-119294251D01*
X76542330Y-119220412D01*
X76720412Y-119042330D01*
X76794251Y-118940698D01*
X78003556Y-120150002D01*
X78130972Y-119999998D01*
X78130975Y-119999994D01*
X78331781Y-119703827D01*
X78499393Y-119387677D01*
X78499402Y-119387659D01*
X78631850Y-119055239D01*
X78631852Y-119055232D01*
X78727578Y-118710457D01*
X78727584Y-118710431D01*
X78785472Y-118357331D01*
X78785473Y-118357314D01*
X78804847Y-118000002D01*
X78804847Y-117999997D01*
X78785473Y-117642685D01*
X78785472Y-117642668D01*
X78727584Y-117289568D01*
X78727578Y-117289542D01*
X78631852Y-116944767D01*
X78631850Y-116944760D01*
X78499402Y-116612340D01*
X78499393Y-116612322D01*
X78331781Y-116296172D01*
X78130975Y-116000005D01*
X78130964Y-115999991D01*
X78003556Y-115849996D01*
X76794251Y-117059301D01*
X76720412Y-116957670D01*
X76542330Y-116779588D01*
X76440698Y-116705748D01*
X77652742Y-115493704D01*
X77639504Y-115481163D01*
X77354632Y-115264611D01*
X77354629Y-115264609D01*
X77048009Y-115080123D01*
X76874827Y-115000000D01*
X79539117Y-115000000D01*
X80544722Y-115000000D01*
X80500667Y-115076306D01*
X80470000Y-115190756D01*
X80470000Y-115309244D01*
X80500667Y-115423694D01*
X80544722Y-115500000D01*
X79539117Y-115500000D01*
X79591317Y-115706135D01*
X79684516Y-115918609D01*
X79811414Y-116112842D01*
X79968558Y-116283545D01*
X79968562Y-116283548D01*
X80151644Y-116426047D01*
X80151648Y-116426050D01*
X80355697Y-116536476D01*
X80355706Y-116536479D01*
X80575139Y-116611811D01*
X80669999Y-116627640D01*
X80670000Y-116627639D01*
X80670000Y-115625277D01*
X80746306Y-115669333D01*
X80860756Y-115700000D01*
X80979244Y-115700000D01*
X81093694Y-115669333D01*
X81170000Y-115625277D01*
X81170000Y-116627640D01*
X81264860Y-116611811D01*
X81484293Y-116536479D01*
X81484302Y-116536476D01*
X81688351Y-116426050D01*
X81688355Y-116426047D01*
X81871437Y-116283548D01*
X81871441Y-116283545D01*
X82028585Y-116112842D01*
X82155483Y-115918609D01*
X82248682Y-115706135D01*
X82300883Y-115500000D01*
X81295278Y-115500000D01*
X81339333Y-115423694D01*
X81370000Y-115309244D01*
X81370000Y-115190756D01*
X81339333Y-115076306D01*
X81295278Y-115000000D01*
X82300883Y-115000000D01*
X82248682Y-114793864D01*
X82155483Y-114581390D01*
X82028585Y-114387157D01*
X81936359Y-114286973D01*
X89279500Y-114286973D01*
X89279500Y-116213010D01*
X89279501Y-116213029D01*
X89285687Y-116291643D01*
X89311241Y-116387013D01*
X89334680Y-116474488D01*
X89347679Y-116500000D01*
X89420614Y-116643146D01*
X89456552Y-116687525D01*
X89539743Y-116790257D01*
X89617907Y-116853553D01*
X89686853Y-116909385D01*
X89770371Y-116951938D01*
X89855512Y-116995320D01*
X90038355Y-117044312D01*
X90116979Y-117050500D01*
X92043020Y-117050499D01*
X92121645Y-117044312D01*
X92304488Y-116995320D01*
X92433008Y-116929835D01*
X92473146Y-116909385D01*
X92473147Y-116909383D01*
X92473149Y-116909383D01*
X92620257Y-116790257D01*
X92739383Y-116643149D01*
X92745290Y-116631557D01*
X92778781Y-116565826D01*
X92825320Y-116474488D01*
X92874312Y-116291645D01*
X92880500Y-116213021D01*
X92880500Y-115602155D01*
X111900000Y-115602155D01*
X111900000Y-116250000D01*
X112816988Y-116250000D01*
X112784075Y-116307007D01*
X112750000Y-116434174D01*
X112750000Y-116565826D01*
X112784075Y-116692993D01*
X112816988Y-116750000D01*
X111900000Y-116750000D01*
X111900000Y-117397844D01*
X111906401Y-117457372D01*
X111906403Y-117457379D01*
X111956645Y-117592086D01*
X111956649Y-117592093D01*
X112042809Y-117707187D01*
X112042812Y-117707190D01*
X112157906Y-117793350D01*
X112157913Y-117793354D01*
X112292620Y-117843596D01*
X112292627Y-117843598D01*
X112352155Y-117849999D01*
X112352172Y-117850000D01*
X113000000Y-117850000D01*
X113000000Y-116933012D01*
X113057007Y-116965925D01*
X113184174Y-117000000D01*
X113315826Y-117000000D01*
X113442993Y-116965925D01*
X113500000Y-116933012D01*
X113500000Y-117850000D01*
X114147828Y-117850000D01*
X114147844Y-117849999D01*
X114207372Y-117843598D01*
X114207379Y-117843596D01*
X114342086Y-117793354D01*
X114342093Y-117793350D01*
X114457187Y-117707190D01*
X114457190Y-117707187D01*
X114543350Y-117592093D01*
X114543354Y-117592086D01*
X114593596Y-117457379D01*
X114593598Y-117457372D01*
X114599999Y-117397844D01*
X114600000Y-117397827D01*
X114600000Y-116750000D01*
X113683012Y-116750000D01*
X113715925Y-116692993D01*
X113750000Y-116565826D01*
X113750000Y-116434174D01*
X113715925Y-116307007D01*
X113683012Y-116250000D01*
X114600000Y-116250000D01*
X114600000Y-115602172D01*
X114599999Y-115602155D01*
X114593598Y-115542627D01*
X114593596Y-115542620D01*
X114543354Y-115407913D01*
X114543350Y-115407906D01*
X114457190Y-115292812D01*
X114457187Y-115292809D01*
X114342093Y-115206649D01*
X114342086Y-115206645D01*
X114207379Y-115156403D01*
X114207372Y-115156401D01*
X114147844Y-115150000D01*
X113500000Y-115150000D01*
X113500000Y-116066988D01*
X113442993Y-116034075D01*
X113315826Y-116000000D01*
X113184174Y-116000000D01*
X113057007Y-116034075D01*
X113000000Y-116066988D01*
X113000000Y-115150000D01*
X112352155Y-115150000D01*
X112292627Y-115156401D01*
X112292620Y-115156403D01*
X112157913Y-115206645D01*
X112157906Y-115206649D01*
X112042812Y-115292809D01*
X112042809Y-115292812D01*
X111956649Y-115407906D01*
X111956645Y-115407913D01*
X111906403Y-115542620D01*
X111906401Y-115542627D01*
X111900000Y-115602155D01*
X92880500Y-115602155D01*
X92880499Y-114286980D01*
X92874312Y-114208355D01*
X92825320Y-114025512D01*
X92771301Y-113919494D01*
X92739385Y-113856853D01*
X92671479Y-113772997D01*
X92620257Y-113709743D01*
X92473149Y-113590617D01*
X92304488Y-113504680D01*
X92304487Y-113504679D01*
X92298698Y-113501730D01*
X92300000Y-113499174D01*
X92254432Y-113464284D01*
X92230727Y-113398558D01*
X92230500Y-113391055D01*
X92230500Y-112556346D01*
X92250185Y-112489307D01*
X92270159Y-112465447D01*
X92330050Y-112409877D01*
X92488959Y-112210612D01*
X92616393Y-111989888D01*
X92709508Y-111752637D01*
X92766222Y-111504157D01*
X92779321Y-111329356D01*
X92785268Y-111250004D01*
X92785268Y-111249995D01*
X92766534Y-111000004D01*
X92766222Y-110995843D01*
X92709508Y-110747363D01*
X92616393Y-110510112D01*
X92488959Y-110289388D01*
X92330050Y-110090123D01*
X92330048Y-110090121D01*
X92330046Y-110090118D01*
X92270159Y-110034552D01*
X92234404Y-109974524D01*
X92230500Y-109943653D01*
X92230500Y-108556346D01*
X92250185Y-108489307D01*
X92270159Y-108465447D01*
X92330050Y-108409877D01*
X92488959Y-108210612D01*
X92616393Y-107989888D01*
X92709508Y-107752637D01*
X92766222Y-107504157D01*
X92785268Y-107250000D01*
X92784066Y-107233961D01*
X92798685Y-107165639D01*
X92820031Y-107137020D01*
X93020235Y-106936816D01*
X93081558Y-106903334D01*
X93107915Y-106900500D01*
X98472085Y-106900500D01*
X98539124Y-106920185D01*
X98559766Y-106936819D01*
X98563181Y-106940234D01*
X98596666Y-107001557D01*
X98599500Y-107027915D01*
X98599500Y-108693653D01*
X98579815Y-108760692D01*
X98559841Y-108784552D01*
X98499953Y-108840118D01*
X98341041Y-109039388D01*
X98213608Y-109260109D01*
X98120492Y-109497362D01*
X98120490Y-109497369D01*
X98063777Y-109745845D01*
X98044732Y-109999995D01*
X98044732Y-110000004D01*
X98063777Y-110254154D01*
X98119289Y-110497369D01*
X98120492Y-110502637D01*
X98213607Y-110739888D01*
X98341041Y-110960612D01*
X98499950Y-111159877D01*
X98686783Y-111333232D01*
X98897366Y-111476805D01*
X98897371Y-111476807D01*
X98897372Y-111476808D01*
X98897373Y-111476809D01*
X98987441Y-111520183D01*
X99126992Y-111587387D01*
X99126993Y-111587387D01*
X99126996Y-111587389D01*
X99370542Y-111662513D01*
X99622565Y-111700500D01*
X99877435Y-111700500D01*
X100129458Y-111662513D01*
X100373004Y-111587389D01*
X100602634Y-111476805D01*
X100813217Y-111333232D01*
X101000050Y-111159877D01*
X101158959Y-110960612D01*
X101286393Y-110739888D01*
X101379508Y-110502637D01*
X101436222Y-110254157D01*
X101447957Y-110097567D01*
X101455268Y-110000004D01*
X101455268Y-109999995D01*
X101436222Y-109745845D01*
X101433954Y-109735909D01*
X101379508Y-109497363D01*
X101286393Y-109260112D01*
X101158959Y-109039388D01*
X101000050Y-108840123D01*
X101000048Y-108840121D01*
X101000046Y-108840118D01*
X100940159Y-108784552D01*
X100904404Y-108724524D01*
X100900500Y-108693653D01*
X100900500Y-106595681D01*
X100900501Y-106595656D01*
X100900501Y-106409454D01*
X100900501Y-106409453D01*
X100872171Y-106230591D01*
X100836195Y-106119865D01*
X100816212Y-106058363D01*
X100816211Y-106058360D01*
X100741896Y-105912511D01*
X100733996Y-105897006D01*
X100708771Y-105862287D01*
X100708771Y-105862286D01*
X100708769Y-105862285D01*
X100671372Y-105810811D01*
X100627558Y-105750505D01*
X100627555Y-105750502D01*
X100627553Y-105750499D01*
X100499501Y-105622447D01*
X100499500Y-105622446D01*
X100496389Y-105619335D01*
X100496374Y-105619321D01*
X99881893Y-105004840D01*
X99881884Y-105004830D01*
X99866942Y-104989888D01*
X99749501Y-104872447D01*
X99749497Y-104872444D01*
X99749493Y-104872440D01*
X99602997Y-104766006D01*
X99602996Y-104766005D01*
X99602994Y-104766004D01*
X99551300Y-104739664D01*
X99441639Y-104683788D01*
X99441636Y-104683787D01*
X99269410Y-104627829D01*
X99179744Y-104613627D01*
X99090546Y-104599499D01*
X98909454Y-104599499D01*
X98904343Y-104599499D01*
X98904319Y-104599500D01*
X92409449Y-104599500D01*
X92230589Y-104627829D01*
X92058363Y-104683787D01*
X92058360Y-104683788D01*
X91897002Y-104766006D01*
X91750505Y-104872441D01*
X91750500Y-104872445D01*
X91622445Y-105000500D01*
X91622441Y-105000505D01*
X91516004Y-105147004D01*
X91483430Y-105210933D01*
X91460627Y-105242318D01*
X91189764Y-105513182D01*
X91128444Y-105546666D01*
X91102085Y-105549500D01*
X90952559Y-105549500D01*
X90795609Y-105573157D01*
X90700542Y-105587487D01*
X90700539Y-105587488D01*
X90700533Y-105587489D01*
X90456992Y-105662612D01*
X90227373Y-105773190D01*
X90227372Y-105773191D01*
X90016782Y-105916768D01*
X89829952Y-106090121D01*
X89829950Y-106090123D01*
X89671041Y-106289388D01*
X89543608Y-106510109D01*
X89450492Y-106747362D01*
X89450490Y-106747369D01*
X89393777Y-106995845D01*
X89374732Y-107249995D01*
X89374732Y-107250004D01*
X89393777Y-107504154D01*
X89436332Y-107690601D01*
X89450492Y-107752637D01*
X89543607Y-107989888D01*
X89671041Y-108210612D01*
X89829950Y-108409877D01*
X89889841Y-108465447D01*
X89925596Y-108525475D01*
X89929500Y-108556346D01*
X89929500Y-109943653D01*
X89909815Y-110010692D01*
X89889841Y-110034552D01*
X89829953Y-110090118D01*
X89671041Y-110289388D01*
X89543608Y-110510109D01*
X89450492Y-110747362D01*
X89450490Y-110747369D01*
X89393777Y-110995845D01*
X89374732Y-111249995D01*
X89374732Y-111250004D01*
X89393777Y-111504154D01*
X89449067Y-111746396D01*
X89450492Y-111752637D01*
X89543607Y-111989888D01*
X89671041Y-112210612D01*
X89829950Y-112409877D01*
X89855519Y-112433601D01*
X89889841Y-112465447D01*
X89925596Y-112525475D01*
X89929500Y-112556346D01*
X89929500Y-113391055D01*
X89909815Y-113458094D01*
X89860736Y-113500620D01*
X89861302Y-113501730D01*
X89686852Y-113590616D01*
X89539743Y-113709743D01*
X89420614Y-113856853D01*
X89334680Y-114025512D01*
X89285687Y-114208356D01*
X89285687Y-114208357D01*
X89279500Y-114286973D01*
X81936359Y-114286973D01*
X81871441Y-114216454D01*
X81871437Y-114216451D01*
X81688355Y-114073952D01*
X81688351Y-114073949D01*
X81484302Y-113963523D01*
X81484293Y-113963520D01*
X81264861Y-113888188D01*
X81170000Y-113872359D01*
X81170000Y-114874722D01*
X81093694Y-114830667D01*
X80979244Y-114800000D01*
X80860756Y-114800000D01*
X80746306Y-114830667D01*
X80670000Y-114874722D01*
X80670000Y-113872359D01*
X80669999Y-113872359D01*
X80575138Y-113888188D01*
X80355706Y-113963520D01*
X80355697Y-113963523D01*
X80151648Y-114073949D01*
X80151644Y-114073952D01*
X79968562Y-114216451D01*
X79968558Y-114216454D01*
X79811414Y-114387157D01*
X79684516Y-114581390D01*
X79591317Y-114793864D01*
X79539117Y-115000000D01*
X76874827Y-115000000D01*
X76723260Y-114929877D01*
X76723255Y-114929876D01*
X76384144Y-114815616D01*
X76034660Y-114738688D01*
X75678924Y-114700000D01*
X75321075Y-114700000D01*
X74965339Y-114738688D01*
X74615855Y-114815616D01*
X74276744Y-114929876D01*
X74276739Y-114929877D01*
X73951990Y-115080123D01*
X73645370Y-115264609D01*
X73645367Y-115264611D01*
X73360486Y-115481170D01*
X73360485Y-115481171D01*
X73347257Y-115493702D01*
X73347256Y-115493703D01*
X74559301Y-116705748D01*
X74457670Y-116779588D01*
X74279588Y-116957670D01*
X74205748Y-117059301D01*
X72996442Y-115849995D01*
X72996441Y-115849996D01*
X72869033Y-115999992D01*
X72668218Y-116296172D01*
X72500606Y-116612322D01*
X72500597Y-116612341D01*
X72489693Y-116639709D01*
X72446593Y-116694701D01*
X72380603Y-116717662D01*
X72312676Y-116701301D01*
X72264378Y-116650813D01*
X72250500Y-116593812D01*
X72250500Y-108836973D01*
X74249500Y-108836973D01*
X74249500Y-110663010D01*
X74249501Y-110663029D01*
X74255687Y-110741643D01*
X74270564Y-110797164D01*
X74304680Y-110924488D01*
X74323086Y-110960611D01*
X74390614Y-111093146D01*
X74428037Y-111139359D01*
X74509743Y-111240257D01*
X74616311Y-111326554D01*
X74656853Y-111359385D01*
X74740371Y-111401938D01*
X74825512Y-111445320D01*
X75008355Y-111494312D01*
X75086979Y-111500500D01*
X76072084Y-111500499D01*
X76139123Y-111520183D01*
X76159765Y-111536818D01*
X76619321Y-111996374D01*
X76619335Y-111996389D01*
X76622446Y-111999500D01*
X76622447Y-111999501D01*
X76750499Y-112127553D01*
X76750502Y-112127555D01*
X76750506Y-112127559D01*
X76871475Y-112215447D01*
X76897006Y-112233996D01*
X76978413Y-112275475D01*
X77011724Y-112292448D01*
X77011725Y-112292449D01*
X77058355Y-112316209D01*
X77058363Y-112316212D01*
X77110744Y-112333231D01*
X77230591Y-112372171D01*
X77409453Y-112400501D01*
X77409454Y-112400501D01*
X77595657Y-112400501D01*
X77595681Y-112400500D01*
X79611178Y-112400500D01*
X79678217Y-112420185D01*
X79695515Y-112433598D01*
X79856783Y-112583232D01*
X80067366Y-112726805D01*
X80067371Y-112726807D01*
X80067372Y-112726808D01*
X80067373Y-112726809D01*
X80180248Y-112781166D01*
X80296992Y-112837387D01*
X80296993Y-112837387D01*
X80296996Y-112837389D01*
X80540542Y-112912513D01*
X80792565Y-112950500D01*
X81047435Y-112950500D01*
X81299458Y-112912513D01*
X81543004Y-112837389D01*
X81724458Y-112750005D01*
X81772626Y-112726809D01*
X81772626Y-112726808D01*
X81772634Y-112726805D01*
X81983217Y-112583232D01*
X82170050Y-112409877D01*
X82328959Y-112210612D01*
X82456393Y-111989888D01*
X82549508Y-111752637D01*
X82606222Y-111504157D01*
X82619321Y-111329356D01*
X82625268Y-111250004D01*
X82625268Y-111249995D01*
X82606534Y-111000004D01*
X82606222Y-110995843D01*
X82549508Y-110747363D01*
X82456393Y-110510112D01*
X82328959Y-110289388D01*
X82170050Y-110090123D01*
X81983217Y-109916768D01*
X81772634Y-109773195D01*
X81772630Y-109773193D01*
X81772627Y-109773191D01*
X81772626Y-109773190D01*
X81543006Y-109662612D01*
X81543008Y-109662612D01*
X81299466Y-109587489D01*
X81299462Y-109587488D01*
X81299458Y-109587487D01*
X81178231Y-109569214D01*
X81047440Y-109549500D01*
X81047435Y-109549500D01*
X80792565Y-109549500D01*
X80792559Y-109549500D01*
X80635609Y-109573157D01*
X80540542Y-109587487D01*
X80540539Y-109587488D01*
X80540533Y-109587489D01*
X80296992Y-109662612D01*
X80067373Y-109773190D01*
X80067372Y-109773191D01*
X79856782Y-109916768D01*
X79762344Y-110004394D01*
X79695517Y-110066399D01*
X79632987Y-110097567D01*
X79611178Y-110099500D01*
X78027915Y-110099500D01*
X77960876Y-110079815D01*
X77940234Y-110063181D01*
X77786818Y-109909765D01*
X77753333Y-109848442D01*
X77750499Y-109822084D01*
X77750499Y-108836989D01*
X77750498Y-108836979D01*
X77744312Y-108758355D01*
X77695320Y-108575512D01*
X77639239Y-108465447D01*
X77609385Y-108406853D01*
X77562986Y-108349556D01*
X77490257Y-108259743D01*
X77380287Y-108170691D01*
X77343146Y-108140614D01*
X77217868Y-108076783D01*
X77174488Y-108054680D01*
X77107562Y-108036747D01*
X76991643Y-108005687D01*
X76919736Y-108000028D01*
X76913021Y-107999500D01*
X76913020Y-107999500D01*
X75086989Y-107999500D01*
X75086970Y-107999501D01*
X75008356Y-108005687D01*
X74825512Y-108054680D01*
X74656853Y-108140614D01*
X74509743Y-108259743D01*
X74390614Y-108406853D01*
X74304680Y-108575512D01*
X74255687Y-108758356D01*
X74255687Y-108758357D01*
X74249500Y-108836973D01*
X72250500Y-108836973D01*
X72250500Y-106999999D01*
X79641127Y-106999999D01*
X79641128Y-107000000D01*
X80604314Y-107000000D01*
X80599920Y-107004394D01*
X80547259Y-107095606D01*
X80520000Y-107197339D01*
X80520000Y-107302661D01*
X80547259Y-107404394D01*
X80599920Y-107495606D01*
X80604314Y-107500000D01*
X79641128Y-107500000D01*
X79693730Y-107696317D01*
X79693734Y-107696326D01*
X79789865Y-107902482D01*
X79920342Y-108088820D01*
X80081179Y-108249657D01*
X80267517Y-108380134D01*
X80473673Y-108476265D01*
X80473682Y-108476269D01*
X80669999Y-108528872D01*
X80670000Y-108528871D01*
X80670000Y-107565686D01*
X80674394Y-107570080D01*
X80765606Y-107622741D01*
X80867339Y-107650000D01*
X80972661Y-107650000D01*
X81074394Y-107622741D01*
X81165606Y-107570080D01*
X81170000Y-107565686D01*
X81170000Y-108528872D01*
X81366317Y-108476269D01*
X81366326Y-108476265D01*
X81572482Y-108380134D01*
X81758820Y-108249657D01*
X81919657Y-108088820D01*
X82050134Y-107902482D01*
X82146265Y-107696326D01*
X82146269Y-107696317D01*
X82198872Y-107500000D01*
X81235686Y-107500000D01*
X81240080Y-107495606D01*
X81292741Y-107404394D01*
X81320000Y-107302661D01*
X81320000Y-107197339D01*
X81292741Y-107095606D01*
X81240080Y-107004394D01*
X81235686Y-107000000D01*
X82198872Y-107000000D01*
X82198872Y-106999999D01*
X82146269Y-106803682D01*
X82146265Y-106803673D01*
X82050134Y-106597517D01*
X81919657Y-106411179D01*
X81758820Y-106250342D01*
X81572482Y-106119865D01*
X81366328Y-106023734D01*
X81170000Y-105971127D01*
X81170000Y-106934314D01*
X81165606Y-106929920D01*
X81074394Y-106877259D01*
X80972661Y-106850000D01*
X80867339Y-106850000D01*
X80765606Y-106877259D01*
X80674394Y-106929920D01*
X80670000Y-106934314D01*
X80670000Y-105971127D01*
X80473671Y-106023734D01*
X80267517Y-106119865D01*
X80081179Y-106250342D01*
X79920342Y-106411179D01*
X79789865Y-106597517D01*
X79693734Y-106803673D01*
X79693730Y-106803682D01*
X79641127Y-106999999D01*
X72250500Y-106999999D01*
X72250500Y-99336973D01*
X74249500Y-99336973D01*
X74249500Y-101163010D01*
X74249501Y-101163029D01*
X74255687Y-101241643D01*
X74269300Y-101292447D01*
X74304680Y-101424488D01*
X74317617Y-101449878D01*
X74390614Y-101593146D01*
X74424869Y-101635447D01*
X74509743Y-101740257D01*
X74558649Y-101779860D01*
X74656853Y-101859385D01*
X74740371Y-101901938D01*
X74825512Y-101945320D01*
X75008355Y-101994312D01*
X75086979Y-102000500D01*
X76913020Y-102000499D01*
X76991645Y-101994312D01*
X77174488Y-101945320D01*
X77343149Y-101859383D01*
X77350704Y-101853264D01*
X77357041Y-101848134D01*
X77421528Y-101821242D01*
X77435077Y-101820500D01*
X91379902Y-101820500D01*
X91493298Y-101802539D01*
X91636493Y-101779860D01*
X91883572Y-101699579D01*
X92115051Y-101581634D01*
X92325229Y-101428931D01*
X92508931Y-101245229D01*
X92661634Y-101035051D01*
X92779579Y-100803572D01*
X92780192Y-100801687D01*
X92816480Y-100690000D01*
X92832561Y-100640505D01*
X92843099Y-100616834D01*
X92916393Y-100489888D01*
X93009508Y-100252637D01*
X93066222Y-100004157D01*
X93079076Y-99832630D01*
X93085268Y-99750004D01*
X93085268Y-99749995D01*
X94674732Y-99749995D01*
X94674732Y-99750004D01*
X94693777Y-100004154D01*
X94748941Y-100245845D01*
X94750492Y-100252637D01*
X94843607Y-100489888D01*
X94971041Y-100710612D01*
X95129950Y-100909877D01*
X95316783Y-101083232D01*
X95527366Y-101226805D01*
X95527371Y-101226807D01*
X95527372Y-101226808D01*
X95527373Y-101226809D01*
X95615834Y-101269409D01*
X95756996Y-101337389D01*
X95821313Y-101357228D01*
X95857645Y-101375399D01*
X95897006Y-101403996D01*
X96027525Y-101470499D01*
X96058361Y-101486211D01*
X96230591Y-101542171D01*
X96409453Y-101570501D01*
X96409454Y-101570501D01*
X96595657Y-101570501D01*
X96595681Y-101570500D01*
X99611178Y-101570500D01*
X99678217Y-101590185D01*
X99695515Y-101603598D01*
X99856783Y-101753232D01*
X100067366Y-101896805D01*
X100067371Y-101896807D01*
X100067372Y-101896808D01*
X100067373Y-101896809D01*
X100168106Y-101945319D01*
X100296992Y-102007387D01*
X100296993Y-102007387D01*
X100296996Y-102007389D01*
X100540542Y-102082513D01*
X100792565Y-102120500D01*
X101047435Y-102120500D01*
X101299458Y-102082513D01*
X101543004Y-102007389D01*
X101772634Y-101896805D01*
X101983217Y-101753232D01*
X102170050Y-101579877D01*
X102328959Y-101380612D01*
X102456393Y-101159888D01*
X102549508Y-100922637D01*
X102606222Y-100674157D01*
X102615964Y-100544157D01*
X102625268Y-100420004D01*
X102625268Y-100419995D01*
X102606222Y-100165845D01*
X102599320Y-100135606D01*
X102549508Y-99917363D01*
X102456393Y-99680112D01*
X102328959Y-99459388D01*
X102170050Y-99260123D01*
X101983217Y-99086768D01*
X101772634Y-98943195D01*
X101772630Y-98943193D01*
X101772627Y-98943191D01*
X101772626Y-98943190D01*
X101543006Y-98832612D01*
X101543008Y-98832612D01*
X101299466Y-98757489D01*
X101299462Y-98757488D01*
X101299458Y-98757487D01*
X101178231Y-98739214D01*
X101047440Y-98719500D01*
X101047435Y-98719500D01*
X100792565Y-98719500D01*
X100792559Y-98719500D01*
X100640364Y-98742441D01*
X100540542Y-98757487D01*
X100540539Y-98757488D01*
X100540533Y-98757489D01*
X100296992Y-98832612D01*
X100067373Y-98943190D01*
X100067372Y-98943191D01*
X99856782Y-99086768D01*
X99762926Y-99173854D01*
X99695517Y-99236399D01*
X99632987Y-99267567D01*
X99611178Y-99269500D01*
X98274501Y-99269500D01*
X98207462Y-99249815D01*
X98161707Y-99197011D01*
X98150501Y-99145500D01*
X98150501Y-99035053D01*
X98150500Y-99035038D01*
X98150500Y-95886346D01*
X98170185Y-95819307D01*
X98190159Y-95795447D01*
X98250050Y-95739877D01*
X98408959Y-95540612D01*
X98536393Y-95319888D01*
X98629508Y-95082637D01*
X98686222Y-94834157D01*
X98697788Y-94679815D01*
X98705268Y-94580004D01*
X98705268Y-94579995D01*
X98686222Y-94325845D01*
X98668771Y-94249388D01*
X98629508Y-94077363D01*
X98536393Y-93840112D01*
X98408959Y-93619388D01*
X98250050Y-93420123D01*
X98063217Y-93246768D01*
X97852634Y-93103195D01*
X97852630Y-93103193D01*
X97852627Y-93103191D01*
X97852626Y-93103190D01*
X97623006Y-92992612D01*
X97623008Y-92992612D01*
X97379466Y-92917489D01*
X97379462Y-92917488D01*
X97379458Y-92917487D01*
X97258231Y-92899214D01*
X97127440Y-92879500D01*
X97127435Y-92879500D01*
X96872565Y-92879500D01*
X96872559Y-92879500D01*
X96715609Y-92903157D01*
X96620542Y-92917487D01*
X96620539Y-92917488D01*
X96620533Y-92917489D01*
X96376992Y-92992612D01*
X96147373Y-93103190D01*
X96147372Y-93103191D01*
X95936782Y-93246768D01*
X95749952Y-93420121D01*
X95749950Y-93420123D01*
X95591041Y-93619388D01*
X95463608Y-93840109D01*
X95370492Y-94077362D01*
X95370490Y-94077369D01*
X95313777Y-94325845D01*
X95294732Y-94579995D01*
X95294732Y-94580004D01*
X95313777Y-94834154D01*
X95341552Y-94955845D01*
X95370492Y-95082637D01*
X95421861Y-95213523D01*
X95463608Y-95319890D01*
X95465953Y-95323952D01*
X95591041Y-95540612D01*
X95749950Y-95739877D01*
X95809841Y-95795447D01*
X95845596Y-95855475D01*
X95849500Y-95886346D01*
X95849500Y-98042561D01*
X95829815Y-98109600D01*
X95777011Y-98155355D01*
X95762056Y-98161049D01*
X95756996Y-98162611D01*
X95756993Y-98162612D01*
X95527373Y-98273190D01*
X95527372Y-98273191D01*
X95316782Y-98416768D01*
X95129952Y-98590121D01*
X95129950Y-98590123D01*
X94971041Y-98789388D01*
X94843608Y-99010109D01*
X94750492Y-99247362D01*
X94750490Y-99247369D01*
X94693777Y-99495845D01*
X94674732Y-99749995D01*
X93085268Y-99749995D01*
X93066222Y-99495845D01*
X93056028Y-99451183D01*
X93009508Y-99247363D01*
X92916393Y-99010112D01*
X92788959Y-98789388D01*
X92630050Y-98590123D01*
X92443217Y-98416768D01*
X92232634Y-98273195D01*
X92232630Y-98273193D01*
X92232627Y-98273191D01*
X92232626Y-98273190D01*
X92003006Y-98162612D01*
X92003008Y-98162612D01*
X91759466Y-98087489D01*
X91759462Y-98087488D01*
X91759458Y-98087487D01*
X91638231Y-98069214D01*
X91507440Y-98049500D01*
X91507435Y-98049500D01*
X91252565Y-98049500D01*
X91252559Y-98049500D01*
X91095609Y-98073157D01*
X91000542Y-98087487D01*
X91000539Y-98087488D01*
X91000533Y-98087489D01*
X90756992Y-98162612D01*
X90527373Y-98273190D01*
X90527372Y-98273191D01*
X90316782Y-98416768D01*
X90301927Y-98430552D01*
X90241737Y-98486399D01*
X90179207Y-98517567D01*
X90157398Y-98519500D01*
X77059518Y-98519500D01*
X77027426Y-98515275D01*
X76991645Y-98505687D01*
X76918756Y-98499951D01*
X76913021Y-98499500D01*
X76913020Y-98499500D01*
X75086989Y-98499500D01*
X75086970Y-98499501D01*
X75008356Y-98505687D01*
X74825512Y-98554680D01*
X74656853Y-98640614D01*
X74509743Y-98759743D01*
X74390614Y-98906853D01*
X74304680Y-99075512D01*
X74255687Y-99258356D01*
X74255687Y-99258357D01*
X74249500Y-99336973D01*
X72250500Y-99336973D01*
X72250500Y-93586973D01*
X74249500Y-93586973D01*
X74249500Y-95413010D01*
X74249501Y-95413029D01*
X74255687Y-95491643D01*
X74255688Y-95491645D01*
X74304680Y-95674488D01*
X74322544Y-95709548D01*
X74390614Y-95843146D01*
X74391168Y-95843830D01*
X74509743Y-95990257D01*
X74610587Y-96071919D01*
X74656853Y-96109385D01*
X74737548Y-96150500D01*
X74825512Y-96195320D01*
X75008355Y-96244312D01*
X75086979Y-96250500D01*
X76913020Y-96250499D01*
X76991645Y-96244312D01*
X77174488Y-96195320D01*
X77235927Y-96164014D01*
X77292222Y-96150500D01*
X91313623Y-96150500D01*
X91367422Y-96162778D01*
X91376996Y-96167389D01*
X91620542Y-96242513D01*
X91872565Y-96280500D01*
X92127435Y-96280500D01*
X92379458Y-96242513D01*
X92623004Y-96167389D01*
X92804853Y-96079815D01*
X92852626Y-96056809D01*
X92852626Y-96056808D01*
X92852634Y-96056805D01*
X93063217Y-95913232D01*
X93250050Y-95739877D01*
X93408959Y-95540612D01*
X93536393Y-95319888D01*
X93629508Y-95082637D01*
X93686222Y-94834157D01*
X93697788Y-94679815D01*
X93705268Y-94580004D01*
X93705268Y-94579995D01*
X93686222Y-94325845D01*
X93668771Y-94249388D01*
X93629508Y-94077363D01*
X93536393Y-93840112D01*
X93408959Y-93619388D01*
X93250050Y-93420123D01*
X93063217Y-93246768D01*
X92852634Y-93103195D01*
X92852630Y-93103193D01*
X92852627Y-93103191D01*
X92852626Y-93103190D01*
X92623009Y-92992613D01*
X92622987Y-92992604D01*
X92566433Y-92975161D01*
X92555524Y-92971229D01*
X92553575Y-92970421D01*
X92306495Y-92890140D01*
X92049902Y-92849500D01*
X92049897Y-92849500D01*
X77292222Y-92849500D01*
X77235927Y-92835985D01*
X77174490Y-92804681D01*
X77174485Y-92804679D01*
X76991643Y-92755687D01*
X76919736Y-92750028D01*
X76913021Y-92749500D01*
X76913020Y-92749500D01*
X75086989Y-92749500D01*
X75086970Y-92749501D01*
X75008356Y-92755687D01*
X74825512Y-92804680D01*
X74656853Y-92890614D01*
X74509743Y-93009743D01*
X74390614Y-93156853D01*
X74304680Y-93325512D01*
X74255687Y-93508356D01*
X74255687Y-93508357D01*
X74249500Y-93586973D01*
X72250500Y-93586973D01*
X72250500Y-83906187D01*
X72270185Y-83839148D01*
X72322989Y-83793393D01*
X72392147Y-83783449D01*
X72455703Y-83812474D01*
X72489694Y-83860291D01*
X72500602Y-83887668D01*
X72500606Y-83887677D01*
X72668218Y-84203827D01*
X72869024Y-84499994D01*
X72869035Y-84500008D01*
X72996441Y-84650002D01*
X72996442Y-84650002D01*
X74205747Y-83440697D01*
X74279588Y-83542330D01*
X74457670Y-83720412D01*
X74559300Y-83794251D01*
X73347257Y-85006294D01*
X73360495Y-85018836D01*
X73645367Y-85235388D01*
X73645370Y-85235390D01*
X73951990Y-85419876D01*
X74276739Y-85570122D01*
X74276744Y-85570123D01*
X74615855Y-85684383D01*
X74965339Y-85761311D01*
X75321075Y-85799999D01*
X75321085Y-85800000D01*
X75678915Y-85800000D01*
X75678924Y-85799999D01*
X76034660Y-85761311D01*
X76384144Y-85684383D01*
X76723255Y-85570123D01*
X76723260Y-85570122D01*
X77048009Y-85419876D01*
X77354629Y-85235390D01*
X77354632Y-85235388D01*
X77639509Y-85018831D01*
X77652742Y-85006295D01*
X77652742Y-85006294D01*
X76440699Y-83794251D01*
X76542330Y-83720412D01*
X76720412Y-83542330D01*
X76794251Y-83440698D01*
X78003556Y-84650002D01*
X78130972Y-84499998D01*
X78130975Y-84499994D01*
X78331781Y-84203827D01*
X78499393Y-83887677D01*
X78499402Y-83887659D01*
X78631850Y-83555239D01*
X78631852Y-83555232D01*
X78727578Y-83210457D01*
X78727584Y-83210431D01*
X78785472Y-82857331D01*
X78785473Y-82857314D01*
X78804847Y-82500002D01*
X78804847Y-82499997D01*
X78785473Y-82142685D01*
X78785472Y-82142668D01*
X78727584Y-81789568D01*
X78727578Y-81789542D01*
X78631852Y-81444767D01*
X78631850Y-81444760D01*
X78499402Y-81112340D01*
X78499393Y-81112322D01*
X78331781Y-80796172D01*
X78130975Y-80500005D01*
X78130964Y-80499991D01*
X78003556Y-80349996D01*
X76794251Y-81559301D01*
X76720412Y-81457670D01*
X76542330Y-81279588D01*
X76440698Y-81205748D01*
X77652742Y-79993704D01*
X77639504Y-79981163D01*
X77354632Y-79764611D01*
X77354629Y-79764609D01*
X77048009Y-79580123D01*
X76846811Y-79487039D01*
X76794233Y-79441025D01*
X76774879Y-79373889D01*
X76794893Y-79306948D01*
X76847922Y-79261453D01*
X76898877Y-79250500D01*
X120823085Y-79250500D01*
X120890124Y-79270185D01*
G37*
%TD.AperFunction*%
%TA.AperFunction,Conductor*%
G36*
X154253556Y-120150002D02*
G01*
X154380972Y-119999998D01*
X154380975Y-119999994D01*
X154581781Y-119703827D01*
X154749393Y-119387677D01*
X154749397Y-119387668D01*
X154760306Y-119360291D01*
X154803406Y-119305298D01*
X154869395Y-119282337D01*
X154937323Y-119298698D01*
X154985622Y-119349185D01*
X154999500Y-119406187D01*
X154999500Y-121125500D01*
X154979815Y-121192539D01*
X154927011Y-121238294D01*
X154875500Y-121249500D01*
X153148877Y-121249500D01*
X153081838Y-121229815D01*
X153036083Y-121177011D01*
X153026139Y-121107853D01*
X153055164Y-121044297D01*
X153096811Y-121012961D01*
X153298009Y-120919876D01*
X153604629Y-120735390D01*
X153604632Y-120735388D01*
X153889509Y-120518831D01*
X153902742Y-120506295D01*
X153902742Y-120506294D01*
X152690699Y-119294251D01*
X152792330Y-119220412D01*
X152970412Y-119042330D01*
X153044251Y-118940698D01*
X154253556Y-120150002D01*
G37*
%TD.AperFunction*%
%TA.AperFunction,Conductor*%
G36*
X128959124Y-98920185D02*
G01*
X128979766Y-98936819D01*
X129259961Y-99217014D01*
X129293446Y-99278337D01*
X129295934Y-99313957D01*
X129294732Y-99330003D01*
X129294732Y-99330004D01*
X129313777Y-99584154D01*
X129366775Y-99816355D01*
X129370492Y-99832637D01*
X129463607Y-100069888D01*
X129591041Y-100290612D01*
X129749950Y-100489877D01*
X129936783Y-100663232D01*
X130147366Y-100806805D01*
X130147371Y-100806807D01*
X130147372Y-100806808D01*
X130147373Y-100806809D01*
X130220777Y-100842158D01*
X130376992Y-100917387D01*
X130376993Y-100917387D01*
X130376996Y-100917389D01*
X130620542Y-100992513D01*
X130872565Y-101030500D01*
X131127435Y-101030500D01*
X131302355Y-101004134D01*
X131371576Y-101013606D01*
X131424690Y-101059001D01*
X131444831Y-101125904D01*
X131425604Y-101193076D01*
X131408515Y-101214430D01*
X129322217Y-103300728D01*
X129260894Y-103334213D01*
X129191202Y-103329229D01*
X129164690Y-103315504D01*
X129102634Y-103273195D01*
X129102630Y-103273193D01*
X129102627Y-103273191D01*
X129102626Y-103273190D01*
X128873006Y-103162612D01*
X128873008Y-103162612D01*
X128629466Y-103087489D01*
X128629462Y-103087488D01*
X128629458Y-103087487D01*
X128508231Y-103069214D01*
X128377440Y-103049500D01*
X128377435Y-103049500D01*
X128122565Y-103049500D01*
X128122559Y-103049500D01*
X127965609Y-103073157D01*
X127870542Y-103087487D01*
X127870539Y-103087488D01*
X127870533Y-103087489D01*
X127626992Y-103162612D01*
X127397373Y-103273190D01*
X127397372Y-103273191D01*
X127186782Y-103416768D01*
X126999952Y-103590121D01*
X126999950Y-103590123D01*
X126841041Y-103789388D01*
X126713608Y-104010109D01*
X126620492Y-104247362D01*
X126620490Y-104247369D01*
X126563777Y-104495845D01*
X126544732Y-104749995D01*
X126544732Y-104750004D01*
X126563777Y-105004154D01*
X126618136Y-105242318D01*
X126620492Y-105252637D01*
X126713607Y-105489888D01*
X126841041Y-105710612D01*
X126999950Y-105909877D01*
X127186783Y-106083232D01*
X127397366Y-106226805D01*
X127397371Y-106226807D01*
X127397372Y-106226808D01*
X127397373Y-106226809D01*
X127485834Y-106269409D01*
X127626992Y-106337387D01*
X127626993Y-106337387D01*
X127626996Y-106337389D01*
X127870542Y-106412513D01*
X128122565Y-106450500D01*
X128272085Y-106450500D01*
X128339124Y-106470185D01*
X128359766Y-106486819D01*
X133619315Y-111746367D01*
X133619342Y-111746396D01*
X133622446Y-111749500D01*
X133622447Y-111749501D01*
X133750499Y-111877553D01*
X133750502Y-111877555D01*
X133750505Y-111877558D01*
X133824178Y-111931083D01*
X133838702Y-111941636D01*
X133855620Y-111953927D01*
X133855622Y-111953929D01*
X133897001Y-111983993D01*
X133897003Y-111983994D01*
X133897006Y-111983996D01*
X133959825Y-112016004D01*
X134058356Y-112066209D01*
X134058358Y-112066209D01*
X134058361Y-112066211D01*
X134150680Y-112096207D01*
X134230590Y-112122172D01*
X134409449Y-112150501D01*
X134409454Y-112150501D01*
X134595658Y-112150501D01*
X134595682Y-112150500D01*
X135271178Y-112150500D01*
X135338217Y-112170185D01*
X135355519Y-112183601D01*
X135389841Y-112215447D01*
X135425596Y-112275475D01*
X135429500Y-112306346D01*
X135429500Y-112642085D01*
X135409815Y-112709124D01*
X135393181Y-112729766D01*
X133359766Y-114763181D01*
X133298443Y-114796666D01*
X133272085Y-114799500D01*
X133122559Y-114799500D01*
X132965609Y-114823157D01*
X132870542Y-114837487D01*
X132870539Y-114837488D01*
X132870533Y-114837489D01*
X132626992Y-114912612D01*
X132397373Y-115023190D01*
X132397372Y-115023191D01*
X132186782Y-115166768D01*
X131999952Y-115340121D01*
X131999950Y-115340123D01*
X131841041Y-115539388D01*
X131713608Y-115760109D01*
X131620492Y-115997362D01*
X131620490Y-115997369D01*
X131563777Y-116245845D01*
X131544732Y-116499995D01*
X131544732Y-116500004D01*
X131563777Y-116754154D01*
X131620490Y-117002630D01*
X131620492Y-117002637D01*
X131690180Y-117180197D01*
X131696349Y-117249794D01*
X131663911Y-117311678D01*
X131603166Y-117346201D01*
X131574752Y-117349500D01*
X130777915Y-117349500D01*
X130710876Y-117329815D01*
X130690234Y-117313181D01*
X129990038Y-116612985D01*
X129956553Y-116551662D01*
X129954066Y-116516035D01*
X129955268Y-116500000D01*
X129955268Y-116499996D01*
X129936863Y-116254394D01*
X129936222Y-116245843D01*
X129879508Y-115997363D01*
X129786393Y-115760112D01*
X129658959Y-115539388D01*
X129500050Y-115340123D01*
X129313217Y-115166768D01*
X129102634Y-115023195D01*
X129102630Y-115023193D01*
X129102627Y-115023191D01*
X129102626Y-115023190D01*
X128873006Y-114912612D01*
X128873008Y-114912612D01*
X128629466Y-114837489D01*
X128629462Y-114837488D01*
X128629458Y-114837487D01*
X128508231Y-114819214D01*
X128377440Y-114799500D01*
X128377435Y-114799500D01*
X128227915Y-114799500D01*
X128160876Y-114779815D01*
X128140234Y-114763181D01*
X126289234Y-112912181D01*
X126255749Y-112850858D01*
X126260733Y-112781166D01*
X126302605Y-112725233D01*
X126368069Y-112700816D01*
X126376915Y-112700500D01*
X126547435Y-112700500D01*
X126799458Y-112662513D01*
X127043004Y-112587389D01*
X127272634Y-112476805D01*
X127483217Y-112333232D01*
X127670050Y-112159877D01*
X127828959Y-111960612D01*
X127956393Y-111739888D01*
X128049508Y-111502637D01*
X128106222Y-111254157D01*
X128125268Y-111000000D01*
X128124956Y-110995843D01*
X128106222Y-110745845D01*
X128105263Y-110741645D01*
X128049508Y-110497363D01*
X127956393Y-110260112D01*
X127828959Y-110039388D01*
X127670050Y-109840123D01*
X127670049Y-109840122D01*
X127670046Y-109840118D01*
X127610159Y-109784552D01*
X127574404Y-109724524D01*
X127570500Y-109693653D01*
X127570500Y-108535783D01*
X127570501Y-108535758D01*
X127570501Y-108349556D01*
X127568590Y-108337488D01*
X127542171Y-108170693D01*
X127486211Y-107998463D01*
X127452147Y-107931610D01*
X127403996Y-107837108D01*
X127342625Y-107752637D01*
X127297559Y-107690608D01*
X127297555Y-107690604D01*
X127297553Y-107690601D01*
X127169501Y-107562549D01*
X127169500Y-107562548D01*
X127166389Y-107559437D01*
X127166374Y-107559423D01*
X125301768Y-105694817D01*
X125268283Y-105633494D01*
X125265449Y-105607136D01*
X125265449Y-99460631D01*
X125265450Y-99460606D01*
X125265450Y-99274397D01*
X125243817Y-99137819D01*
X125237121Y-99095540D01*
X125237119Y-99095536D01*
X125237119Y-99095531D01*
X125226490Y-99062817D01*
X125224495Y-98992976D01*
X125260576Y-98933143D01*
X125323277Y-98902316D01*
X125344421Y-98900500D01*
X128892085Y-98900500D01*
X128959124Y-98920185D01*
G37*
%TD.AperFunction*%
%TA.AperFunction,Conductor*%
G36*
X151258217Y-105420185D02*
G01*
X151275515Y-105433598D01*
X151436783Y-105583232D01*
X151647366Y-105726805D01*
X151647371Y-105726807D01*
X151647372Y-105726808D01*
X151647373Y-105726809D01*
X151743696Y-105773195D01*
X151876992Y-105837387D01*
X151876993Y-105837387D01*
X151876996Y-105837389D01*
X152120542Y-105912513D01*
X152372565Y-105950500D01*
X152627435Y-105950500D01*
X152879458Y-105912513D01*
X153123004Y-105837389D01*
X153123021Y-105837380D01*
X153127330Y-105835691D01*
X153127848Y-105837011D01*
X153190607Y-105826661D01*
X153254749Y-105854366D01*
X153293730Y-105912351D01*
X153299500Y-105949737D01*
X153299500Y-107493780D01*
X153279815Y-107560819D01*
X153227011Y-107606574D01*
X153157853Y-107616518D01*
X153123096Y-107606162D01*
X152946330Y-107523735D01*
X152750000Y-107471127D01*
X152750000Y-108434314D01*
X152745606Y-108429920D01*
X152654394Y-108377259D01*
X152552661Y-108350000D01*
X152447339Y-108350000D01*
X152345606Y-108377259D01*
X152254394Y-108429920D01*
X152250000Y-108434314D01*
X152250000Y-107471127D01*
X152053671Y-107523734D01*
X151847517Y-107619865D01*
X151661179Y-107750342D01*
X151500342Y-107911179D01*
X151369865Y-108097517D01*
X151273734Y-108303673D01*
X151273730Y-108303682D01*
X151221127Y-108499999D01*
X151221128Y-108500000D01*
X152184314Y-108500000D01*
X152179920Y-108504394D01*
X152127259Y-108595606D01*
X152100000Y-108697339D01*
X152100000Y-108802661D01*
X152127259Y-108904394D01*
X152179920Y-108995606D01*
X152184314Y-109000000D01*
X151221128Y-109000000D01*
X151273730Y-109196317D01*
X151273734Y-109196326D01*
X151369865Y-109402482D01*
X151500342Y-109588820D01*
X151661179Y-109749657D01*
X151847517Y-109880134D01*
X152053673Y-109976265D01*
X152053682Y-109976269D01*
X152122823Y-109994795D01*
X152182483Y-110031160D01*
X152213013Y-110094006D01*
X152204719Y-110163382D01*
X152178411Y-110202251D01*
X150567483Y-111813181D01*
X150506160Y-111846666D01*
X150479802Y-111849500D01*
X142845681Y-111849500D01*
X142845657Y-111849499D01*
X142840546Y-111849499D01*
X142659453Y-111849499D01*
X142643717Y-111851991D01*
X142482355Y-111877548D01*
X142482356Y-111877549D01*
X142480593Y-111877828D01*
X142480587Y-111877829D01*
X142308363Y-111933787D01*
X142308360Y-111933788D01*
X142147002Y-112016006D01*
X142000505Y-112122441D01*
X142000500Y-112122445D01*
X141872444Y-112250502D01*
X139359766Y-114763181D01*
X139298443Y-114796666D01*
X139272085Y-114799500D01*
X139122559Y-114799500D01*
X138965609Y-114823157D01*
X138870542Y-114837487D01*
X138870539Y-114837488D01*
X138870533Y-114837489D01*
X138626992Y-114912612D01*
X138397373Y-115023190D01*
X138397372Y-115023191D01*
X138186782Y-115166768D01*
X137999952Y-115340121D01*
X137999950Y-115340123D01*
X137841041Y-115539388D01*
X137713608Y-115760109D01*
X137620492Y-115997362D01*
X137620490Y-115997369D01*
X137563777Y-116245845D01*
X137544732Y-116499995D01*
X137544732Y-116500000D01*
X137545934Y-116516040D01*
X137531312Y-116584362D01*
X137509961Y-116612984D01*
X136809766Y-117313181D01*
X136748443Y-117346666D01*
X136722085Y-117349500D01*
X134925248Y-117349500D01*
X134858209Y-117329815D01*
X134812454Y-117277011D01*
X134802510Y-117207853D01*
X134809820Y-117180197D01*
X134820699Y-117152478D01*
X134879508Y-117002637D01*
X134936222Y-116754157D01*
X134944541Y-116643146D01*
X134955268Y-116500004D01*
X134955268Y-116499998D01*
X134954066Y-116483962D01*
X134968685Y-116415639D01*
X134990035Y-116387016D01*
X137322432Y-114054620D01*
X137322439Y-114054614D01*
X137329499Y-114047554D01*
X137329501Y-114047553D01*
X137457553Y-113919501D01*
X137563996Y-113772994D01*
X137646211Y-113611639D01*
X137702171Y-113439409D01*
X137711968Y-113377553D01*
X137730501Y-113260547D01*
X137730501Y-113079454D01*
X137730501Y-113075053D01*
X137730500Y-113075038D01*
X137730500Y-112306346D01*
X137750185Y-112239307D01*
X137770159Y-112215447D01*
X137775371Y-112210611D01*
X137830050Y-112159877D01*
X137988959Y-111960612D01*
X138116393Y-111739888D01*
X138209508Y-111502637D01*
X138266222Y-111254157D01*
X138285268Y-111000000D01*
X138284956Y-110995843D01*
X138266222Y-110745845D01*
X138265263Y-110741645D01*
X138209508Y-110497363D01*
X138116393Y-110260112D01*
X138021416Y-110095606D01*
X138016159Y-110086500D01*
X137999686Y-110018599D01*
X138022539Y-109952573D01*
X138077460Y-109909382D01*
X138123546Y-109900500D01*
X141031178Y-109900500D01*
X141098217Y-109920185D01*
X141115515Y-109933598D01*
X141276783Y-110083232D01*
X141487366Y-110226805D01*
X141487371Y-110226807D01*
X141487372Y-110226808D01*
X141487373Y-110226809D01*
X141609328Y-110285538D01*
X141716992Y-110337387D01*
X141716993Y-110337387D01*
X141716996Y-110337389D01*
X141960542Y-110412513D01*
X142212565Y-110450500D01*
X142467435Y-110450500D01*
X142719458Y-110412513D01*
X142963004Y-110337389D01*
X143192634Y-110226805D01*
X143403217Y-110083232D01*
X143590050Y-109909877D01*
X143748959Y-109710612D01*
X143876393Y-109489888D01*
X143969508Y-109252637D01*
X144026222Y-109004157D01*
X144035204Y-108884291D01*
X144059842Y-108818910D01*
X144071169Y-108805882D01*
X147440234Y-105436819D01*
X147501557Y-105403334D01*
X147527915Y-105400500D01*
X151191178Y-105400500D01*
X151258217Y-105420185D01*
G37*
%TD.AperFunction*%
%TA.AperFunction,Conductor*%
G36*
X131473273Y-104506291D02*
G01*
X131529207Y-104548163D01*
X131553624Y-104613627D01*
X131553593Y-104631738D01*
X131544732Y-104749994D01*
X131544732Y-104750004D01*
X131563777Y-105004154D01*
X131618136Y-105242318D01*
X131620492Y-105252637D01*
X131713607Y-105489888D01*
X131841041Y-105710612D01*
X131999950Y-105909877D01*
X132186783Y-106083232D01*
X132397366Y-106226805D01*
X132397371Y-106226807D01*
X132397372Y-106226808D01*
X132397373Y-106226809D01*
X132485834Y-106269409D01*
X132626992Y-106337387D01*
X132626993Y-106337387D01*
X132626996Y-106337389D01*
X132870542Y-106412513D01*
X133122565Y-106450500D01*
X133272085Y-106450500D01*
X133339124Y-106470185D01*
X133359766Y-106486819D01*
X136062587Y-109189640D01*
X136096072Y-109250963D01*
X136091088Y-109320655D01*
X136049216Y-109376588D01*
X136011456Y-109395812D01*
X135989834Y-109402482D01*
X135956990Y-109412613D01*
X135727373Y-109523190D01*
X135727372Y-109523191D01*
X135516782Y-109666768D01*
X135415557Y-109760692D01*
X135355517Y-109816399D01*
X135292987Y-109847567D01*
X135271178Y-109849500D01*
X135027914Y-109849500D01*
X134960875Y-109829815D01*
X134940233Y-109813181D01*
X130589733Y-105462681D01*
X130556248Y-105401358D01*
X130561232Y-105331666D01*
X130589733Y-105287319D01*
X130887164Y-104989888D01*
X131342261Y-104534790D01*
X131403582Y-104501307D01*
X131473273Y-104506291D01*
G37*
%TD.AperFunction*%
%TA.AperFunction,Conductor*%
G36*
X116118081Y-95823705D02*
G01*
X116144494Y-95843830D01*
X117813181Y-97512517D01*
X117846666Y-97573840D01*
X117849500Y-97600198D01*
X117849500Y-108632129D01*
X117829815Y-108699168D01*
X117777011Y-108744923D01*
X117707853Y-108754867D01*
X117671699Y-108743849D01*
X117503006Y-108662612D01*
X117503008Y-108662612D01*
X117259466Y-108587489D01*
X117259462Y-108587488D01*
X117259458Y-108587487D01*
X117138231Y-108569214D01*
X117007440Y-108549500D01*
X117007435Y-108549500D01*
X116752565Y-108549500D01*
X116752559Y-108549500D01*
X116595609Y-108573157D01*
X116500542Y-108587487D01*
X116500539Y-108587488D01*
X116500533Y-108587489D01*
X116256992Y-108662612D01*
X116027373Y-108773190D01*
X116027372Y-108773191D01*
X115816782Y-108916768D01*
X115727080Y-109000000D01*
X115655517Y-109066399D01*
X115592987Y-109097567D01*
X115571178Y-109099500D01*
X111204836Y-109099500D01*
X111137797Y-109079815D01*
X111105569Y-109049811D01*
X111097766Y-109039388D01*
X111069971Y-109002258D01*
X111069966Y-109002253D01*
X111069961Y-109002247D01*
X110877752Y-108810038D01*
X110877746Y-108810033D01*
X110877742Y-108810029D01*
X110830189Y-108774431D01*
X110788318Y-108718497D01*
X110780500Y-108675164D01*
X110780500Y-104027913D01*
X110800185Y-103960874D01*
X110816814Y-103940236D01*
X111824518Y-102932532D01*
X111824537Y-102932516D01*
X111829498Y-102927554D01*
X111829501Y-102927553D01*
X111957553Y-102799501D01*
X112063996Y-102652994D01*
X112146211Y-102491639D01*
X112156314Y-102460546D01*
X112174134Y-102405703D01*
X112202172Y-102319410D01*
X112230501Y-102140551D01*
X112230501Y-101955052D01*
X112230500Y-101955037D01*
X112230500Y-101726346D01*
X112250185Y-101659307D01*
X112270159Y-101635447D01*
X112284467Y-101622171D01*
X112330050Y-101579877D01*
X112488959Y-101380612D01*
X112616393Y-101159888D01*
X112709508Y-100922637D01*
X112766222Y-100674157D01*
X112775964Y-100544157D01*
X112785268Y-100420004D01*
X112785268Y-100419995D01*
X112766222Y-100165845D01*
X112759320Y-100135606D01*
X112709508Y-99917363D01*
X112616393Y-99680112D01*
X112488959Y-99459388D01*
X112330050Y-99260123D01*
X112330048Y-99260121D01*
X112330046Y-99260118D01*
X112270159Y-99204552D01*
X112234404Y-99144524D01*
X112230500Y-99113653D01*
X112230500Y-99024500D01*
X112250185Y-98957461D01*
X112302989Y-98911706D01*
X112354500Y-98900500D01*
X113071178Y-98900500D01*
X113138217Y-98920185D01*
X113155515Y-98933598D01*
X113316783Y-99083232D01*
X113449703Y-99173855D01*
X113494004Y-99227883D01*
X113502064Y-99297286D01*
X113471321Y-99360029D01*
X113467533Y-99363989D01*
X113380339Y-99451183D01*
X113249865Y-99637517D01*
X113153734Y-99843673D01*
X113153730Y-99843682D01*
X113101127Y-100039999D01*
X113101128Y-100040000D01*
X114064314Y-100040000D01*
X114059920Y-100044394D01*
X114007259Y-100135606D01*
X113980000Y-100237339D01*
X113980000Y-100342661D01*
X114007259Y-100444394D01*
X114059920Y-100535606D01*
X114064314Y-100540000D01*
X113101128Y-100540000D01*
X113153730Y-100736317D01*
X113153734Y-100736326D01*
X113249865Y-100942482D01*
X113380342Y-101128820D01*
X113541179Y-101289657D01*
X113727517Y-101420134D01*
X113933673Y-101516265D01*
X113933682Y-101516269D01*
X114129999Y-101568872D01*
X114130000Y-101568871D01*
X114130000Y-100605686D01*
X114134394Y-100610080D01*
X114225606Y-100662741D01*
X114327339Y-100690000D01*
X114432661Y-100690000D01*
X114534394Y-100662741D01*
X114625606Y-100610080D01*
X114630000Y-100605686D01*
X114630000Y-101568872D01*
X114826317Y-101516269D01*
X114826326Y-101516265D01*
X115032482Y-101420134D01*
X115218820Y-101289657D01*
X115379657Y-101128820D01*
X115510134Y-100942482D01*
X115606265Y-100736326D01*
X115606269Y-100736317D01*
X115658872Y-100540000D01*
X114695686Y-100540000D01*
X114700080Y-100535606D01*
X114752741Y-100444394D01*
X114780000Y-100342661D01*
X114780000Y-100237339D01*
X114752741Y-100135606D01*
X114700080Y-100044394D01*
X114695686Y-100040000D01*
X115658872Y-100040000D01*
X115658872Y-100039999D01*
X115606269Y-99843682D01*
X115606265Y-99843673D01*
X115510134Y-99637517D01*
X115379657Y-99451179D01*
X115292467Y-99363989D01*
X115258982Y-99302666D01*
X115263966Y-99232974D01*
X115305838Y-99177041D01*
X115310258Y-99173881D01*
X115443217Y-99083232D01*
X115630050Y-98909877D01*
X115788959Y-98710612D01*
X115916393Y-98489888D01*
X116009508Y-98252637D01*
X116066222Y-98004157D01*
X116082502Y-97786916D01*
X116085268Y-97750004D01*
X116085268Y-97749995D01*
X116071663Y-97568459D01*
X116066222Y-97495843D01*
X116009508Y-97247363D01*
X115916393Y-97010112D01*
X115788959Y-96789388D01*
X115630050Y-96590123D01*
X115609330Y-96570898D01*
X115573576Y-96510870D01*
X115575951Y-96441041D01*
X115609331Y-96389101D01*
X115630050Y-96369877D01*
X115788959Y-96170612D01*
X115916393Y-95949888D01*
X115941385Y-95886207D01*
X115984200Y-95830995D01*
X116050070Y-95807694D01*
X116118081Y-95823705D01*
G37*
%TD.AperFunction*%
%TA.AperFunction,Conductor*%
G36*
X145610528Y-98987581D02*
G01*
X149510766Y-102887819D01*
X149544251Y-102949142D01*
X149539267Y-103018834D01*
X149497395Y-103074767D01*
X149431931Y-103099184D01*
X149423085Y-103099500D01*
X147095681Y-103099500D01*
X147095657Y-103099499D01*
X147090546Y-103099499D01*
X146909454Y-103099499D01*
X146849833Y-103108942D01*
X146730589Y-103127829D01*
X146558363Y-103183787D01*
X146558360Y-103183788D01*
X146397002Y-103266006D01*
X146250505Y-103372441D01*
X146250500Y-103372445D01*
X146122444Y-103500502D01*
X142603824Y-107019121D01*
X142542501Y-107052606D01*
X142497664Y-107054055D01*
X142467447Y-107049501D01*
X142467436Y-107049500D01*
X142467435Y-107049500D01*
X142212565Y-107049500D01*
X142212559Y-107049500D01*
X142055609Y-107073157D01*
X141960542Y-107087487D01*
X141960539Y-107087488D01*
X141960533Y-107087489D01*
X141716992Y-107162612D01*
X141487373Y-107273190D01*
X141487372Y-107273191D01*
X141276782Y-107416768D01*
X141187080Y-107500000D01*
X141115517Y-107566399D01*
X141052987Y-107597567D01*
X141031178Y-107599500D01*
X137777915Y-107599500D01*
X137710876Y-107579815D01*
X137690234Y-107563181D01*
X134990038Y-104862985D01*
X134956553Y-104801662D01*
X134954066Y-104766035D01*
X134954069Y-104766004D01*
X134955268Y-104750000D01*
X134945048Y-104613627D01*
X134936222Y-104495844D01*
X134882228Y-104259281D01*
X134879508Y-104247363D01*
X134786393Y-104010112D01*
X134658959Y-103789388D01*
X134500050Y-103590123D01*
X134313217Y-103416768D01*
X134102634Y-103273195D01*
X134102630Y-103273193D01*
X134102627Y-103273191D01*
X134102626Y-103273190D01*
X133873006Y-103162612D01*
X133873008Y-103162612D01*
X133629466Y-103087489D01*
X133629462Y-103087488D01*
X133629458Y-103087487D01*
X133508231Y-103069214D01*
X133377440Y-103049500D01*
X133377435Y-103049500D01*
X133126914Y-103049500D01*
X133059875Y-103029815D01*
X133014120Y-102977011D01*
X133004176Y-102907853D01*
X133033201Y-102844297D01*
X133039233Y-102837819D01*
X133476648Y-102400404D01*
X133992432Y-101884620D01*
X133992439Y-101884614D01*
X133999499Y-101877554D01*
X133999501Y-101877553D01*
X134127553Y-101749501D01*
X134233996Y-101602994D01*
X134316211Y-101441639D01*
X134372171Y-101269409D01*
X134376001Y-101245229D01*
X134400501Y-101090546D01*
X134400501Y-100909453D01*
X134400501Y-100905052D01*
X134400500Y-100905037D01*
X134400500Y-100406052D01*
X134420185Y-100339013D01*
X134472989Y-100293258D01*
X134542147Y-100283314D01*
X134605703Y-100312339D01*
X134621443Y-100328735D01*
X134749950Y-100489877D01*
X134936783Y-100663232D01*
X135147366Y-100806805D01*
X135147371Y-100806807D01*
X135147372Y-100806808D01*
X135147373Y-100806809D01*
X135220777Y-100842158D01*
X135376992Y-100917387D01*
X135376993Y-100917387D01*
X135376996Y-100917389D01*
X135620542Y-100992513D01*
X135872565Y-101030500D01*
X136022085Y-101030500D01*
X136089124Y-101050185D01*
X136109766Y-101066819D01*
X136289321Y-101246374D01*
X136289335Y-101246389D01*
X136292446Y-101249500D01*
X136292447Y-101249501D01*
X136420499Y-101377553D01*
X136420502Y-101377555D01*
X136420505Y-101377558D01*
X136424709Y-101380612D01*
X136534819Y-101460610D01*
X136534820Y-101460612D01*
X136547664Y-101469943D01*
X136567006Y-101483996D01*
X136609106Y-101505447D01*
X136728360Y-101566211D01*
X136728363Y-101566212D01*
X136811260Y-101593146D01*
X136900591Y-101622171D01*
X137079454Y-101650501D01*
X137079455Y-101650501D01*
X137265658Y-101650501D01*
X137265682Y-101650500D01*
X141111178Y-101650500D01*
X141178217Y-101670185D01*
X141195515Y-101683598D01*
X141356783Y-101833232D01*
X141567366Y-101976805D01*
X141567371Y-101976807D01*
X141567372Y-101976808D01*
X141567373Y-101976809D01*
X141630870Y-102007387D01*
X141796992Y-102087387D01*
X141796993Y-102087387D01*
X141796996Y-102087389D01*
X142040542Y-102162513D01*
X142292565Y-102200500D01*
X142463085Y-102200500D01*
X142530124Y-102220185D01*
X142575879Y-102272989D01*
X142585823Y-102342147D01*
X142556798Y-102405703D01*
X142550766Y-102412181D01*
X142449766Y-102513181D01*
X142388443Y-102546666D01*
X142362085Y-102549500D01*
X142212559Y-102549500D01*
X142055609Y-102573157D01*
X141960542Y-102587487D01*
X141960539Y-102587488D01*
X141960533Y-102587489D01*
X141716992Y-102662612D01*
X141487373Y-102773190D01*
X141487372Y-102773191D01*
X141276782Y-102916768D01*
X141089952Y-103090121D01*
X141089950Y-103090123D01*
X140931041Y-103289388D01*
X140803608Y-103510109D01*
X140710492Y-103747362D01*
X140710490Y-103747369D01*
X140653777Y-103995845D01*
X140634732Y-104249995D01*
X140634732Y-104250004D01*
X140653777Y-104504154D01*
X140709888Y-104749994D01*
X140710492Y-104752637D01*
X140803607Y-104989888D01*
X140931041Y-105210612D01*
X141089950Y-105409877D01*
X141276783Y-105583232D01*
X141487366Y-105726805D01*
X141487371Y-105726807D01*
X141487372Y-105726808D01*
X141487373Y-105726809D01*
X141583696Y-105773195D01*
X141716992Y-105837387D01*
X141716993Y-105837387D01*
X141716996Y-105837389D01*
X141960542Y-105912513D01*
X142212565Y-105950500D01*
X142467435Y-105950500D01*
X142719458Y-105912513D01*
X142963004Y-105837389D01*
X143192634Y-105726805D01*
X143403217Y-105583232D01*
X143590050Y-105409877D01*
X143748959Y-105210612D01*
X143876393Y-104989888D01*
X143969508Y-104752637D01*
X144026222Y-104504157D01*
X144045268Y-104250000D01*
X144044066Y-104233961D01*
X144058685Y-104165639D01*
X144080035Y-104137016D01*
X145114518Y-103102532D01*
X145114537Y-103102516D01*
X145119498Y-103097554D01*
X145119501Y-103097553D01*
X145247553Y-102969501D01*
X145353996Y-102822994D01*
X145436211Y-102661639D01*
X145460304Y-102587488D01*
X145472647Y-102549501D01*
X145491447Y-102491639D01*
X145492172Y-102489409D01*
X145506269Y-102400404D01*
X145520501Y-102310551D01*
X145520501Y-102125052D01*
X145520500Y-102125037D01*
X145520500Y-99715682D01*
X145520501Y-99715657D01*
X145520501Y-99529448D01*
X145492172Y-99350590D01*
X145467415Y-99274397D01*
X145436211Y-99178361D01*
X145412362Y-99131557D01*
X145399466Y-99062889D01*
X145425741Y-98998148D01*
X145482847Y-98957891D01*
X145552653Y-98954897D01*
X145610528Y-98987581D01*
G37*
%TD.AperFunction*%
%TA.AperFunction,Conductor*%
G36*
X150418162Y-79270185D02*
G01*
X150463917Y-79322989D01*
X150473861Y-79392147D01*
X150444836Y-79455703D01*
X150403189Y-79487039D01*
X150201990Y-79580123D01*
X149895370Y-79764609D01*
X149895367Y-79764611D01*
X149610486Y-79981170D01*
X149610485Y-79981171D01*
X149597257Y-79993702D01*
X149597256Y-79993703D01*
X150809301Y-81205748D01*
X150707670Y-81279588D01*
X150529588Y-81457670D01*
X150455748Y-81559301D01*
X149246442Y-80349995D01*
X149246441Y-80349996D01*
X149119033Y-80499992D01*
X148918218Y-80796172D01*
X148750606Y-81112322D01*
X148750597Y-81112340D01*
X148618149Y-81444760D01*
X148618147Y-81444767D01*
X148522421Y-81789542D01*
X148522415Y-81789568D01*
X148464527Y-82142668D01*
X148464526Y-82142685D01*
X148445153Y-82499997D01*
X148445153Y-82500002D01*
X148464526Y-82857314D01*
X148464527Y-82857331D01*
X148522415Y-83210431D01*
X148522421Y-83210457D01*
X148618147Y-83555232D01*
X148618149Y-83555239D01*
X148750597Y-83887659D01*
X148750606Y-83887677D01*
X148918218Y-84203827D01*
X149119024Y-84499994D01*
X149119035Y-84500008D01*
X149246441Y-84650002D01*
X149246442Y-84650002D01*
X150455747Y-83440697D01*
X150529588Y-83542330D01*
X150707670Y-83720412D01*
X150809300Y-83794251D01*
X149597257Y-85006294D01*
X149610495Y-85018836D01*
X149895367Y-85235388D01*
X149895370Y-85235390D01*
X150201990Y-85419876D01*
X150526739Y-85570122D01*
X150526744Y-85570123D01*
X150865855Y-85684383D01*
X151215339Y-85761311D01*
X151571075Y-85799999D01*
X151571085Y-85800000D01*
X151928915Y-85800000D01*
X151928924Y-85799999D01*
X152284660Y-85761311D01*
X152634144Y-85684383D01*
X152973255Y-85570123D01*
X152973260Y-85570122D01*
X153298009Y-85419876D01*
X153604629Y-85235390D01*
X153604632Y-85235388D01*
X153889509Y-85018831D01*
X153902742Y-85006295D01*
X153902742Y-85006294D01*
X152690699Y-83794251D01*
X152792330Y-83720412D01*
X152970412Y-83542330D01*
X153044251Y-83440698D01*
X154253556Y-84650002D01*
X154380972Y-84499998D01*
X154380975Y-84499994D01*
X154581781Y-84203827D01*
X154749393Y-83887677D01*
X154749397Y-83887668D01*
X154760306Y-83860291D01*
X154803406Y-83805298D01*
X154869395Y-83782337D01*
X154937323Y-83798698D01*
X154985622Y-83849185D01*
X154999500Y-83906187D01*
X154999500Y-100993085D01*
X154979815Y-101060124D01*
X154927011Y-101105879D01*
X154857853Y-101115823D01*
X154794297Y-101086798D01*
X154787819Y-101080766D01*
X154320038Y-100612985D01*
X154286553Y-100551662D01*
X154284066Y-100516035D01*
X154285268Y-100500000D01*
X154285268Y-100499996D01*
X154266222Y-100245844D01*
X154247963Y-100165845D01*
X154209508Y-99997363D01*
X154116393Y-99760112D01*
X153988959Y-99539388D01*
X153830050Y-99340123D01*
X153643217Y-99166768D01*
X153432634Y-99023195D01*
X153432630Y-99023193D01*
X153432627Y-99023191D01*
X153432626Y-99023190D01*
X153203006Y-98912612D01*
X153203008Y-98912612D01*
X152959466Y-98837489D01*
X152959462Y-98837488D01*
X152959458Y-98837487D01*
X152838231Y-98819214D01*
X152707440Y-98799500D01*
X152707435Y-98799500D01*
X152452565Y-98799500D01*
X152452559Y-98799500D01*
X152295609Y-98823157D01*
X152200542Y-98837487D01*
X152200539Y-98837488D01*
X152200533Y-98837489D01*
X151956992Y-98912612D01*
X151727373Y-99023190D01*
X151727372Y-99023191D01*
X151516782Y-99166768D01*
X151329952Y-99340121D01*
X151329950Y-99340123D01*
X151171041Y-99539388D01*
X151043608Y-99760109D01*
X150950492Y-99997362D01*
X150950490Y-99997369D01*
X150893777Y-100245845D01*
X150874732Y-100499995D01*
X150874732Y-100500004D01*
X150890074Y-100704740D01*
X150875454Y-100773063D01*
X150826217Y-100822636D01*
X150757995Y-100837719D01*
X150692448Y-100813525D01*
X150678740Y-100801687D01*
X146127053Y-96250000D01*
X151449117Y-96250000D01*
X152454722Y-96250000D01*
X152410667Y-96326306D01*
X152380000Y-96440756D01*
X152380000Y-96559244D01*
X152410667Y-96673694D01*
X152454722Y-96750000D01*
X151449117Y-96750000D01*
X151501317Y-96956135D01*
X151594516Y-97168609D01*
X151721414Y-97362842D01*
X151878558Y-97533545D01*
X151878562Y-97533548D01*
X152061644Y-97676047D01*
X152061648Y-97676050D01*
X152265697Y-97786476D01*
X152265706Y-97786479D01*
X152485139Y-97861811D01*
X152579999Y-97877640D01*
X152580000Y-97877639D01*
X152580000Y-96875277D01*
X152656306Y-96919333D01*
X152770756Y-96950000D01*
X152889244Y-96950000D01*
X153003694Y-96919333D01*
X153080000Y-96875277D01*
X153080000Y-97877640D01*
X153174860Y-97861811D01*
X153394293Y-97786479D01*
X153394302Y-97786476D01*
X153598351Y-97676050D01*
X153598355Y-97676047D01*
X153781437Y-97533548D01*
X153781441Y-97533545D01*
X153938585Y-97362842D01*
X154065483Y-97168609D01*
X154158682Y-96956135D01*
X154210883Y-96750000D01*
X153205278Y-96750000D01*
X153249333Y-96673694D01*
X153280000Y-96559244D01*
X153280000Y-96440756D01*
X153249333Y-96326306D01*
X153205278Y-96250000D01*
X154210883Y-96250000D01*
X154158682Y-96043864D01*
X154065483Y-95831390D01*
X153938585Y-95637157D01*
X153781441Y-95466454D01*
X153781437Y-95466451D01*
X153598355Y-95323952D01*
X153598351Y-95323949D01*
X153394302Y-95213523D01*
X153394293Y-95213520D01*
X153174861Y-95138188D01*
X153080000Y-95122359D01*
X153080000Y-96124722D01*
X153003694Y-96080667D01*
X152889244Y-96050000D01*
X152770756Y-96050000D01*
X152656306Y-96080667D01*
X152580000Y-96124722D01*
X152580000Y-95122359D01*
X152579999Y-95122359D01*
X152485138Y-95138188D01*
X152265706Y-95213520D01*
X152265697Y-95213523D01*
X152061648Y-95323949D01*
X152061644Y-95323952D01*
X151878562Y-95466451D01*
X151878558Y-95466454D01*
X151721414Y-95637157D01*
X151594516Y-95831390D01*
X151501317Y-96043864D01*
X151449117Y-96250000D01*
X146127053Y-96250000D01*
X145631893Y-95754840D01*
X145631884Y-95754830D01*
X145586602Y-95709548D01*
X145499501Y-95622447D01*
X145499497Y-95622444D01*
X145499493Y-95622440D01*
X145352997Y-95516006D01*
X145352996Y-95516005D01*
X145352994Y-95516004D01*
X145301300Y-95489664D01*
X145191639Y-95433788D01*
X145191636Y-95433787D01*
X145019410Y-95377829D01*
X144929977Y-95363664D01*
X144840546Y-95349499D01*
X144659454Y-95349499D01*
X144654343Y-95349499D01*
X144654319Y-95349500D01*
X144528944Y-95349500D01*
X144461905Y-95329815D01*
X144419378Y-95280737D01*
X144418270Y-95281302D01*
X144383735Y-95213523D01*
X144329383Y-95106851D01*
X144210257Y-94959743D01*
X144123958Y-94889859D01*
X144063146Y-94840614D01*
X143937868Y-94776783D01*
X143894488Y-94754680D01*
X143827562Y-94736747D01*
X143711643Y-94705687D01*
X143633026Y-94699500D01*
X143633021Y-94699500D01*
X141894500Y-94699500D01*
X141827461Y-94679815D01*
X141781706Y-94627011D01*
X141770500Y-94575500D01*
X141770500Y-93657914D01*
X141790185Y-93590875D01*
X141806815Y-93570237D01*
X142590234Y-92786817D01*
X142651557Y-92753333D01*
X142677915Y-92750499D01*
X143663011Y-92750499D01*
X143663020Y-92750499D01*
X143741645Y-92744312D01*
X143924488Y-92695320D01*
X144053008Y-92629835D01*
X144093146Y-92609385D01*
X144093147Y-92609383D01*
X144093149Y-92609383D01*
X144240257Y-92490257D01*
X144359383Y-92343149D01*
X144445320Y-92174488D01*
X144494312Y-91991645D01*
X144500500Y-91913021D01*
X144500499Y-90086980D01*
X144494312Y-90008355D01*
X144445320Y-89825512D01*
X144399221Y-89735038D01*
X144359385Y-89656853D01*
X144326554Y-89616311D01*
X144240257Y-89509743D01*
X144153958Y-89439859D01*
X144093146Y-89390614D01*
X143967868Y-89326783D01*
X143924488Y-89304680D01*
X143857562Y-89286747D01*
X143741643Y-89255687D01*
X143669736Y-89250028D01*
X143663021Y-89249500D01*
X143663020Y-89249500D01*
X141836989Y-89249500D01*
X141836970Y-89249501D01*
X141758356Y-89255687D01*
X141575512Y-89304680D01*
X141406853Y-89390614D01*
X141259743Y-89509743D01*
X141140614Y-89656853D01*
X141054680Y-89825512D01*
X141005687Y-90008356D01*
X141005687Y-90008357D01*
X140999500Y-90086973D01*
X140999500Y-91072084D01*
X140979815Y-91139123D01*
X140963181Y-91159765D01*
X139862181Y-92260765D01*
X139800858Y-92294250D01*
X139731166Y-92289266D01*
X139675233Y-92247394D01*
X139650816Y-92181930D01*
X139650500Y-92173084D01*
X139650500Y-84056346D01*
X139670185Y-83989307D01*
X139690159Y-83965447D01*
X139750050Y-83909877D01*
X139908959Y-83710612D01*
X140036393Y-83489888D01*
X140129508Y-83252637D01*
X140186222Y-83004157D01*
X140205268Y-82750000D01*
X140202982Y-82719500D01*
X140186534Y-82500002D01*
X140186222Y-82495843D01*
X140129508Y-82247363D01*
X140036393Y-82010112D01*
X139908959Y-81789388D01*
X139750050Y-81590123D01*
X139563217Y-81416768D01*
X139352634Y-81273195D01*
X139352630Y-81273193D01*
X139352627Y-81273191D01*
X139352626Y-81273190D01*
X139123006Y-81162612D01*
X139123008Y-81162612D01*
X138879466Y-81087489D01*
X138879462Y-81087488D01*
X138879458Y-81087487D01*
X138758231Y-81069214D01*
X138627440Y-81049500D01*
X138627435Y-81049500D01*
X138372565Y-81049500D01*
X138372559Y-81049500D01*
X138215609Y-81073157D01*
X138120542Y-81087487D01*
X138120539Y-81087488D01*
X138120533Y-81087489D01*
X137876992Y-81162612D01*
X137647373Y-81273190D01*
X137647372Y-81273191D01*
X137436782Y-81416768D01*
X137249952Y-81590121D01*
X137249950Y-81590123D01*
X137091041Y-81789388D01*
X136963608Y-82010109D01*
X136870492Y-82247362D01*
X136870490Y-82247369D01*
X136813777Y-82495845D01*
X136794732Y-82749995D01*
X136794732Y-82750004D01*
X136813777Y-83004154D01*
X136869847Y-83249815D01*
X136870492Y-83252637D01*
X136963607Y-83489888D01*
X137091041Y-83710612D01*
X137249950Y-83909877D01*
X137309841Y-83965447D01*
X137345596Y-84025475D01*
X137349500Y-84056346D01*
X137349500Y-87818188D01*
X137329815Y-87885227D01*
X137277011Y-87930982D01*
X137207853Y-87940926D01*
X137144297Y-87911901D01*
X137141159Y-87909087D01*
X137063217Y-87836768D01*
X137011726Y-87801662D01*
X136852634Y-87693195D01*
X136852630Y-87693193D01*
X136852627Y-87693191D01*
X136852626Y-87693190D01*
X136623006Y-87582612D01*
X136623008Y-87582612D01*
X136379466Y-87507489D01*
X136379462Y-87507488D01*
X136379458Y-87507487D01*
X136258231Y-87489214D01*
X136127440Y-87469500D01*
X136127435Y-87469500D01*
X135872565Y-87469500D01*
X135872559Y-87469500D01*
X135715609Y-87493157D01*
X135620542Y-87507487D01*
X135620539Y-87507488D01*
X135620533Y-87507489D01*
X135376992Y-87582612D01*
X135147373Y-87693190D01*
X135147372Y-87693191D01*
X134936782Y-87836768D01*
X134835244Y-87930982D01*
X134775517Y-87986399D01*
X134712987Y-88017567D01*
X134691178Y-88019500D01*
X132308822Y-88019500D01*
X132241783Y-87999815D01*
X132224484Y-87986401D01*
X132063217Y-87836768D01*
X131852634Y-87693195D01*
X131852630Y-87693193D01*
X131852627Y-87693191D01*
X131852626Y-87693190D01*
X131623006Y-87582612D01*
X131623008Y-87582612D01*
X131379466Y-87507489D01*
X131379462Y-87507488D01*
X131379458Y-87507487D01*
X131258231Y-87489214D01*
X131127440Y-87469500D01*
X131127435Y-87469500D01*
X130977914Y-87469500D01*
X130910875Y-87449815D01*
X130890233Y-87433181D01*
X128169233Y-84712180D01*
X128135748Y-84650857D01*
X128140732Y-84581165D01*
X128182604Y-84525232D01*
X128248068Y-84500815D01*
X128256914Y-84500499D01*
X129663011Y-84500499D01*
X129663020Y-84500499D01*
X129741645Y-84494312D01*
X129924488Y-84445320D01*
X129985927Y-84414014D01*
X130042222Y-84400500D01*
X133062906Y-84400500D01*
X133099456Y-84406009D01*
X133109434Y-84409086D01*
X133120542Y-84412513D01*
X133372565Y-84450500D01*
X133627435Y-84450500D01*
X133879458Y-84412513D01*
X134123004Y-84337389D01*
X134352634Y-84226805D01*
X134563217Y-84083232D01*
X134750050Y-83909877D01*
X134908959Y-83710612D01*
X135036393Y-83489888D01*
X135129508Y-83252637D01*
X135186222Y-83004157D01*
X135205268Y-82750000D01*
X135202982Y-82719500D01*
X135186534Y-82500002D01*
X135186222Y-82495843D01*
X135129508Y-82247363D01*
X135036393Y-82010112D01*
X134908959Y-81789388D01*
X134750050Y-81590123D01*
X134563217Y-81416768D01*
X134352634Y-81273195D01*
X134352630Y-81273193D01*
X134352627Y-81273191D01*
X134352626Y-81273190D01*
X134123006Y-81162612D01*
X134123008Y-81162612D01*
X133879466Y-81087489D01*
X133879462Y-81087488D01*
X133879458Y-81087487D01*
X133758231Y-81069214D01*
X133627440Y-81049500D01*
X133627435Y-81049500D01*
X133372565Y-81049500D01*
X133372559Y-81049500D01*
X133215609Y-81073157D01*
X133120542Y-81087487D01*
X133120539Y-81087488D01*
X133120533Y-81087489D01*
X133099456Y-81093991D01*
X133062906Y-81099500D01*
X130042222Y-81099500D01*
X129985927Y-81085985D01*
X129924490Y-81054681D01*
X129924485Y-81054679D01*
X129741643Y-81005687D01*
X129663026Y-80999500D01*
X127862207Y-80999500D01*
X127795168Y-80979815D01*
X127751722Y-80931795D01*
X127740339Y-80909455D01*
X127733996Y-80897006D01*
X127715952Y-80872171D01*
X127660736Y-80796172D01*
X127627558Y-80750505D01*
X127627555Y-80750502D01*
X127627553Y-80750499D01*
X127499501Y-80622447D01*
X127499500Y-80622446D01*
X127496396Y-80619342D01*
X127496367Y-80619315D01*
X126339234Y-79462181D01*
X126305749Y-79400858D01*
X126310733Y-79331166D01*
X126352605Y-79275233D01*
X126418069Y-79250816D01*
X126426915Y-79250500D01*
X150351123Y-79250500D01*
X150418162Y-79270185D01*
G37*
%TD.AperFunction*%
%TA.AperFunction,Conductor*%
G36*
X125855703Y-85651937D02*
G01*
X125868788Y-85666203D01*
X125869275Y-85665788D01*
X125872439Y-85669492D01*
X125872444Y-85669497D01*
X125872447Y-85669501D01*
X125948596Y-85745650D01*
X126004829Y-85801883D01*
X126004840Y-85801893D01*
X127636128Y-87433181D01*
X129259961Y-89057013D01*
X129293446Y-89118336D01*
X129295934Y-89153956D01*
X129294732Y-89170003D01*
X129294732Y-89170004D01*
X129313777Y-89424154D01*
X129324283Y-89470185D01*
X129370492Y-89672637D01*
X129463607Y-89909888D01*
X129591041Y-90130612D01*
X129749950Y-90329877D01*
X129936783Y-90503232D01*
X130147366Y-90646805D01*
X130147371Y-90646807D01*
X130147372Y-90646808D01*
X130147373Y-90646809D01*
X130269328Y-90705538D01*
X130376992Y-90757387D01*
X130376993Y-90757387D01*
X130376996Y-90757389D01*
X130620542Y-90832513D01*
X130872565Y-90870500D01*
X131127435Y-90870500D01*
X131379458Y-90832513D01*
X131623004Y-90757389D01*
X131852634Y-90646805D01*
X132063217Y-90503232D01*
X132224482Y-90353600D01*
X132287013Y-90322433D01*
X132308822Y-90320500D01*
X134691178Y-90320500D01*
X134758217Y-90340185D01*
X134775515Y-90353598D01*
X134936783Y-90503232D01*
X135147366Y-90646805D01*
X135147371Y-90646807D01*
X135147372Y-90646808D01*
X135147373Y-90646809D01*
X135269328Y-90705538D01*
X135376992Y-90757387D01*
X135376993Y-90757387D01*
X135376996Y-90757389D01*
X135620542Y-90832513D01*
X135872565Y-90870500D01*
X136127435Y-90870500D01*
X136379458Y-90832513D01*
X136623004Y-90757389D01*
X136852634Y-90646805D01*
X137063217Y-90503232D01*
X137141160Y-90430911D01*
X137203691Y-90399744D01*
X137273148Y-90407331D01*
X137327476Y-90451264D01*
X137349428Y-90517596D01*
X137349500Y-90521811D01*
X137349500Y-96302085D01*
X137329815Y-96369124D01*
X137313181Y-96389766D01*
X136109766Y-97593181D01*
X136048443Y-97626666D01*
X136022085Y-97629500D01*
X135872559Y-97629500D01*
X135715609Y-97653157D01*
X135620542Y-97667487D01*
X135620539Y-97667488D01*
X135620533Y-97667489D01*
X135376992Y-97742612D01*
X135147373Y-97853190D01*
X135147372Y-97853191D01*
X134936782Y-97996768D01*
X134749952Y-98170121D01*
X134749950Y-98170123D01*
X134621447Y-98331260D01*
X134564258Y-98371400D01*
X134494447Y-98374250D01*
X134434177Y-98338904D01*
X134402584Y-98276585D01*
X134400500Y-98253947D01*
X134400500Y-97845681D01*
X134400501Y-97845656D01*
X134400501Y-97659454D01*
X134397572Y-97640960D01*
X134372171Y-97480591D01*
X134316211Y-97308361D01*
X134316211Y-97308360D01*
X134266146Y-97210104D01*
X134233996Y-97147006D01*
X134224084Y-97133364D01*
X134127559Y-97000506D01*
X134127555Y-97000502D01*
X134127553Y-97000499D01*
X133999501Y-96872447D01*
X133999500Y-96872446D01*
X133996389Y-96869335D01*
X133996374Y-96869321D01*
X131591893Y-94464840D01*
X131591884Y-94464830D01*
X131587553Y-94460499D01*
X131459501Y-94332447D01*
X131459497Y-94332444D01*
X131459493Y-94332440D01*
X131312997Y-94226006D01*
X131312996Y-94226005D01*
X131312994Y-94226004D01*
X131261300Y-94199664D01*
X131151639Y-94143788D01*
X131151633Y-94143786D01*
X130979410Y-94087829D01*
X130979353Y-94087819D01*
X130823404Y-94063119D01*
X130800546Y-94059499D01*
X130619454Y-94059499D01*
X130614343Y-94059499D01*
X130614319Y-94059500D01*
X123318522Y-94059500D01*
X123251483Y-94039815D01*
X123205728Y-93987011D01*
X123195784Y-93917853D01*
X123224809Y-93854297D01*
X123234180Y-93844602D01*
X123250050Y-93829877D01*
X123408959Y-93630612D01*
X123449168Y-93560964D01*
X123468871Y-93535287D01*
X125258931Y-91745229D01*
X125411635Y-91535051D01*
X125529579Y-91303573D01*
X125549266Y-91242979D01*
X125609860Y-91056493D01*
X125641044Y-90859603D01*
X125650500Y-90799902D01*
X125650500Y-85745650D01*
X125670185Y-85678611D01*
X125722989Y-85632856D01*
X125792147Y-85622912D01*
X125855703Y-85651937D01*
G37*
%TD.AperFunction*%
%TA.AperFunction,Conductor*%
G36*
X121323728Y-90844257D02*
G01*
X121354557Y-90906957D01*
X121346593Y-90976372D01*
X121320054Y-91015784D01*
X121140751Y-91195087D01*
X121122922Y-91209859D01*
X120936786Y-91336764D01*
X120749952Y-91510121D01*
X120749950Y-91510123D01*
X120591041Y-91709388D01*
X120463608Y-91930109D01*
X120370492Y-92167362D01*
X120370490Y-92167369D01*
X120313777Y-92415845D01*
X120294732Y-92669995D01*
X120294732Y-92670004D01*
X120313777Y-92924154D01*
X120329402Y-92992613D01*
X120370492Y-93172637D01*
X120463607Y-93409888D01*
X120591041Y-93630612D01*
X120612814Y-93657914D01*
X120749954Y-93829882D01*
X120770669Y-93849103D01*
X120806422Y-93909132D01*
X120804046Y-93978961D01*
X120770669Y-94030897D01*
X120749954Y-94050117D01*
X120591041Y-94249388D01*
X120463608Y-94470109D01*
X120370492Y-94707362D01*
X120370490Y-94707369D01*
X120313777Y-94955845D01*
X120294732Y-95209995D01*
X120294732Y-95210004D01*
X120313777Y-95464154D01*
X120361784Y-95674488D01*
X120370492Y-95712637D01*
X120449220Y-95913232D01*
X120463608Y-95949890D01*
X120486913Y-95990256D01*
X120591041Y-96170612D01*
X120742472Y-96360500D01*
X120749954Y-96369882D01*
X120770669Y-96389103D01*
X120806422Y-96449132D01*
X120804046Y-96518961D01*
X120770669Y-96570897D01*
X120749954Y-96590117D01*
X120591041Y-96789388D01*
X120463608Y-97010109D01*
X120389929Y-97197839D01*
X120347113Y-97253052D01*
X120281243Y-97276353D01*
X120213232Y-97260342D01*
X120164674Y-97210104D01*
X120150501Y-97152536D01*
X120150501Y-96981737D01*
X120140617Y-96919333D01*
X120122171Y-96802874D01*
X120066211Y-96630644D01*
X120066211Y-96630643D01*
X120030517Y-96560591D01*
X120008679Y-96517732D01*
X119983996Y-96469289D01*
X119931344Y-96396819D01*
X119877559Y-96322789D01*
X119877555Y-96322785D01*
X119877553Y-96322782D01*
X119749501Y-96194730D01*
X119749500Y-96194729D01*
X119746389Y-96191618D01*
X119746374Y-96191604D01*
X116116818Y-92562048D01*
X116083333Y-92500725D01*
X116080499Y-92474367D01*
X116080499Y-91806989D01*
X116080498Y-91806970D01*
X116074312Y-91728356D01*
X116069230Y-91709388D01*
X116025320Y-91545512D01*
X115977569Y-91451795D01*
X115939385Y-91376853D01*
X115906554Y-91336311D01*
X115820257Y-91229743D01*
X115708351Y-91139123D01*
X115673146Y-91110614D01*
X115622844Y-91084985D01*
X115572047Y-91037011D01*
X115555252Y-90969190D01*
X115577789Y-90903055D01*
X115632504Y-90859603D01*
X115679138Y-90850500D01*
X120792036Y-90850500D01*
X120792060Y-90850501D01*
X120797171Y-90850501D01*
X120978262Y-90850501D01*
X120978263Y-90850501D01*
X121157126Y-90822171D01*
X121194055Y-90810171D01*
X121263895Y-90808177D01*
X121323728Y-90844257D01*
G37*
%TD.AperFunction*%
%TA.AperFunction,Conductor*%
G36*
X107902515Y-84529568D02*
G01*
X108733181Y-85360234D01*
X108766666Y-85421557D01*
X108769500Y-85447915D01*
X108769500Y-86443653D01*
X108749815Y-86510692D01*
X108729841Y-86534552D01*
X108669953Y-86590118D01*
X108511041Y-86789388D01*
X108383608Y-87010109D01*
X108290492Y-87247362D01*
X108290490Y-87247369D01*
X108233777Y-87495845D01*
X108214732Y-87749995D01*
X108214732Y-87750004D01*
X108233777Y-88004154D01*
X108277640Y-88196331D01*
X108290492Y-88252637D01*
X108383607Y-88489888D01*
X108511041Y-88710612D01*
X108669950Y-88909877D01*
X108856783Y-89083232D01*
X109067366Y-89226805D01*
X109067371Y-89226807D01*
X109067372Y-89226808D01*
X109067373Y-89226809D01*
X109189328Y-89285538D01*
X109296992Y-89337387D01*
X109296993Y-89337387D01*
X109296996Y-89337389D01*
X109540542Y-89412513D01*
X109792565Y-89450500D01*
X109942085Y-89450500D01*
X110009124Y-89470185D01*
X110029766Y-89486819D01*
X110989321Y-90446374D01*
X110989335Y-90446389D01*
X110992446Y-90449500D01*
X110992447Y-90449501D01*
X111120499Y-90577553D01*
X111120502Y-90577555D01*
X111120506Y-90577559D01*
X111215822Y-90646809D01*
X111267006Y-90683996D01*
X111411043Y-90757387D01*
X111411047Y-90757389D01*
X111411048Y-90757390D01*
X111428356Y-90766209D01*
X111428363Y-90766212D01*
X111514476Y-90794191D01*
X111600591Y-90822171D01*
X111779453Y-90850501D01*
X111779454Y-90850501D01*
X111965657Y-90850501D01*
X111965681Y-90850500D01*
X113080862Y-90850500D01*
X113147901Y-90870185D01*
X113193656Y-90922989D01*
X113203600Y-90992147D01*
X113174575Y-91055703D01*
X113137156Y-91084985D01*
X113086853Y-91110614D01*
X112939743Y-91229743D01*
X112820616Y-91376852D01*
X112782431Y-91451795D01*
X112734456Y-91502591D01*
X112671946Y-91519500D01*
X108005682Y-91519500D01*
X108005658Y-91519499D01*
X108000547Y-91519499D01*
X107819454Y-91519499D01*
X107737337Y-91532505D01*
X107655219Y-91545512D01*
X107640589Y-91547829D01*
X107468363Y-91603787D01*
X107468360Y-91603788D01*
X107307002Y-91686006D01*
X107160505Y-91792441D01*
X107160500Y-91792445D01*
X107032444Y-91920502D01*
X106109766Y-92843181D01*
X106048443Y-92876666D01*
X106022085Y-92879500D01*
X105872559Y-92879500D01*
X105715609Y-92903157D01*
X105620542Y-92917487D01*
X105620539Y-92917488D01*
X105620533Y-92917489D01*
X105376992Y-92992612D01*
X105147373Y-93103190D01*
X105147372Y-93103191D01*
X104936782Y-93246768D01*
X104749952Y-93420121D01*
X104749950Y-93420123D01*
X104591041Y-93619388D01*
X104463608Y-93840109D01*
X104370492Y-94077362D01*
X104370490Y-94077369D01*
X104313777Y-94325845D01*
X104294732Y-94579995D01*
X104294732Y-94580004D01*
X104313777Y-94834154D01*
X104341552Y-94955845D01*
X104370492Y-95082637D01*
X104421861Y-95213523D01*
X104463608Y-95319890D01*
X104465953Y-95323952D01*
X104591041Y-95540612D01*
X104749950Y-95739877D01*
X104905928Y-95884603D01*
X104941682Y-95944629D01*
X104939307Y-96014459D01*
X104899557Y-96071919D01*
X104835051Y-96098767D01*
X104821586Y-96099500D01*
X104447915Y-96099500D01*
X104380876Y-96079815D01*
X104360234Y-96063181D01*
X102990038Y-94692985D01*
X102956553Y-94631662D01*
X102954066Y-94596035D01*
X102955268Y-94580000D01*
X102955268Y-94579998D01*
X102954066Y-94563962D01*
X102968685Y-94495639D01*
X102990035Y-94467016D01*
X106742432Y-90714620D01*
X106742439Y-90714614D01*
X106749499Y-90707554D01*
X106749501Y-90707553D01*
X106877553Y-90579501D01*
X106983996Y-90432994D01*
X107066211Y-90271639D01*
X107122171Y-90099409D01*
X107130384Y-90047553D01*
X107150501Y-89920547D01*
X107150501Y-89739454D01*
X107150501Y-89735053D01*
X107150500Y-89735038D01*
X107150500Y-85726346D01*
X107170185Y-85659307D01*
X107190159Y-85635447D01*
X107250050Y-85579877D01*
X107408959Y-85380612D01*
X107536393Y-85159888D01*
X107629508Y-84922637D01*
X107686222Y-84674157D01*
X107691181Y-84607984D01*
X107715819Y-84542603D01*
X107771894Y-84500921D01*
X107841603Y-84496173D01*
X107902515Y-84529568D01*
G37*
%TD.AperFunction*%
%TA.AperFunction,Conductor*%
G36*
X112140003Y-93840185D02*
G01*
X112185758Y-93892989D01*
X112195702Y-93962147D01*
X112166677Y-94025703D01*
X112107899Y-94063477D01*
X112092362Y-94066973D01*
X111960691Y-94087827D01*
X111835797Y-94128408D01*
X111805168Y-94138361D01*
X111799316Y-94140262D01*
X111788460Y-94143789D01*
X111627103Y-94226006D01*
X111480606Y-94332441D01*
X111480601Y-94332445D01*
X111350852Y-94462195D01*
X109749867Y-96063181D01*
X109688544Y-96096666D01*
X109662186Y-96099500D01*
X107178414Y-96099500D01*
X107111375Y-96079815D01*
X107065620Y-96027011D01*
X107055676Y-95957853D01*
X107084701Y-95894297D01*
X107094064Y-95884610D01*
X107250050Y-95739877D01*
X107408959Y-95540612D01*
X107536393Y-95319888D01*
X107629508Y-95082637D01*
X107686222Y-94834157D01*
X107697788Y-94679815D01*
X107705268Y-94580004D01*
X107705268Y-94579998D01*
X107704066Y-94563962D01*
X107718685Y-94495639D01*
X107740034Y-94467017D01*
X108350234Y-93856819D01*
X108411557Y-93823334D01*
X108437915Y-93820500D01*
X112072964Y-93820500D01*
X112140003Y-93840185D01*
G37*
%TD.AperFunction*%
%TA.AperFunction,Conductor*%
G36*
X74168162Y-79270185D02*
G01*
X74213917Y-79322989D01*
X74223861Y-79392147D01*
X74194836Y-79455703D01*
X74153189Y-79487039D01*
X73951990Y-79580123D01*
X73645370Y-79764609D01*
X73645367Y-79764611D01*
X73360486Y-79981170D01*
X73360485Y-79981171D01*
X73347257Y-79993702D01*
X73347256Y-79993703D01*
X74559301Y-81205748D01*
X74457670Y-81279588D01*
X74279588Y-81457670D01*
X74205748Y-81559301D01*
X72996442Y-80349995D01*
X72996441Y-80349996D01*
X72869033Y-80499992D01*
X72668218Y-80796172D01*
X72500606Y-81112322D01*
X72500597Y-81112341D01*
X72489693Y-81139709D01*
X72446593Y-81194701D01*
X72380603Y-81217662D01*
X72312676Y-81201301D01*
X72264378Y-81150813D01*
X72250500Y-81093812D01*
X72250500Y-79374500D01*
X72270185Y-79307461D01*
X72322989Y-79261706D01*
X72374500Y-79250500D01*
X74101123Y-79250500D01*
X74168162Y-79270185D01*
G37*
%TD.AperFunction*%
%TA.AperFunction,Conductor*%
G36*
X154942539Y-79270185D02*
G01*
X154988294Y-79322989D01*
X154999500Y-79374500D01*
X154999500Y-81093812D01*
X154979815Y-81160851D01*
X154927011Y-81206606D01*
X154857853Y-81216550D01*
X154794297Y-81187525D01*
X154760307Y-81139709D01*
X154749402Y-81112341D01*
X154749393Y-81112322D01*
X154581781Y-80796172D01*
X154380975Y-80500005D01*
X154380964Y-80499991D01*
X154253556Y-80349996D01*
X153044251Y-81559301D01*
X152970412Y-81457670D01*
X152792330Y-81279588D01*
X152690698Y-81205748D01*
X153902742Y-79993704D01*
X153889504Y-79981163D01*
X153604632Y-79764611D01*
X153604629Y-79764609D01*
X153298009Y-79580123D01*
X153096811Y-79487039D01*
X153044233Y-79441025D01*
X153024879Y-79373889D01*
X153044893Y-79306948D01*
X153097922Y-79261453D01*
X153148877Y-79250500D01*
X154875500Y-79250500D01*
X154942539Y-79270185D01*
G37*
%TD.AperFunction*%
%TD*%
M02*
