M48
; DRILL file {KiCad 8.0.6} date 2025-02-10T12:59:44-0800
; FORMAT={-:-/ absolute / inch / decimal}
; #@! TF.CreationDate,2025-02-10T12:59:44-08:00
; #@! TF.GenerationSoftware,Kicad,Pcbnew,8.0.6
; #@! TF.FileFunction,Plated,1,2,PTH
FMAT,2
INCH
; #@! TA.AperFunction,Plated,PTH,ViaDrill
T1C0.0118
; #@! TA.AperFunction,Plated,PTH,ComponentDrill
T2C0.0315
; #@! TA.AperFunction,Plated,PTH,ComponentDrill
T3C0.0354
; #@! TA.AperFunction,Plated,PTH,ComponentDrill
T4C0.0394
; #@! TA.AperFunction,Plated,PTH,ComponentDrill
T5C0.1260
%
G90
G05
T1
X4.311Y-3.75
X4.3209Y-3.5827
X4.6752Y-3.6909
X4.9803Y-3.622
X5.0Y-3.9764
X5.2657Y-4.2323
X5.4331Y-4.1142
T2
X3.1858Y-4.2224
X3.1858Y-4.3799
X3.5858Y-4.2224
X3.5858Y-4.3799
X3.5976Y-3.9272
X3.622Y-3.3236
X3.622Y-3.7236
X3.7303Y-4.3307
X3.7945Y-3.9272
X3.8189Y-3.3236
X3.8189Y-3.7236
X3.9272Y-4.3307
X3.9732Y-3.9535
X3.9862Y-3.3236
X3.9862Y-3.7236
X4.1732Y-3.3236
X4.1732Y-3.7236
X4.3276Y-3.4547
X4.3732Y-3.9535
X4.5031Y-3.6484
X4.5031Y-3.7484
X4.5031Y-3.8484
X4.5031Y-3.9484
X4.6016Y-4.3406
X4.7276Y-3.4547
X4.7984Y-4.3406
X4.8031Y-3.6484
X4.8031Y-3.7484
X4.8031Y-3.8484
X4.8031Y-3.9484
X4.9772Y-4.3701
X5.0492Y-4.124
X5.0492Y-4.5866
X5.1575Y-3.5106
X5.1575Y-3.9106
X5.2461Y-4.124
X5.2461Y-4.5866
X5.2559Y-3.2579
X5.3543Y-3.5106
X5.3543Y-3.9106
X5.3772Y-4.3701
X5.4528Y-3.2579
X5.4823Y-4.5866
X5.6039Y-4.1043
X5.6039Y-4.2815
X5.6071Y-3.9567
X5.6791Y-4.5866
X6.0039Y-4.1043
X6.0039Y-4.2815
X6.0071Y-3.9567
T3
X3.1858Y-4.5374
X3.5858Y-4.5374
X5.6169Y-3.7992
X6.0169Y-3.7992
T4
X2.9921Y-3.7205
X2.9921Y-3.9469
X2.9921Y-4.3209
X4.1193Y-4.3406
X4.3161Y-4.3406
X4.4587Y-4.5866
X4.8819Y-3.2579
X5.0689Y-3.2579
X5.6201Y-3.5827
T5
X2.9724Y-3.248
X2.9724Y-4.6457
X5.9744Y-3.248
X5.9744Y-4.6457
M30
