%TF.GenerationSoftware,KiCad,Pcbnew,9.0.1*%
%TF.CreationDate,2025-04-03T14:44:02-07:00*%
%TF.ProjectId,Final_Board-v3C,46696e61-6c5f-4426-9f61-72642d763343,rev?*%
%TF.SameCoordinates,Original*%
%TF.FileFunction,Copper,L4,Bot*%
%TF.FilePolarity,Positive*%
%FSLAX46Y46*%
G04 Gerber Fmt 4.6, Leading zero omitted, Abs format (unit mm)*
G04 Created by KiCad (PCBNEW 9.0.1) date 2025-04-03 14:44:02*
%MOMM*%
%LPD*%
G01*
G04 APERTURE LIST*
G04 Aperture macros list*
%AMRoundRect*
0 Rectangle with rounded corners*
0 $1 Rounding radius*
0 $2 $3 $4 $5 $6 $7 $8 $9 X,Y pos of 4 corners*
0 Add a 4 corners polygon primitive as box body*
4,1,4,$2,$3,$4,$5,$6,$7,$8,$9,$2,$3,0*
0 Add four circle primitives for the rounded corners*
1,1,$1+$1,$2,$3*
1,1,$1+$1,$4,$5*
1,1,$1+$1,$6,$7*
1,1,$1+$1,$8,$9*
0 Add four rect primitives between the rounded corners*
20,1,$1+$1,$2,$3,$4,$5,0*
20,1,$1+$1,$4,$5,$6,$7,0*
20,1,$1+$1,$6,$7,$8,$9,0*
20,1,$1+$1,$8,$9,$2,$3,0*%
%AMFreePoly0*
4,1,5,2.250000,-4.000000,-2.250000,-4.000000,-2.250000,4.000000,2.250000,4.000000,2.250000,-4.000000,2.250000,-4.000000,$1*%
%AMFreePoly1*
4,1,5,1.500000,-2.250000,-1.500000,-2.250000,-1.500000,2.250000,1.500000,2.250000,1.500000,-2.250000,1.500000,-2.250000,$1*%
%AMFreePoly2*
4,1,5,4.000000,-2.250000,-4.000000,-2.250000,-4.000000,2.250000,4.000000,2.250000,4.000000,-2.250000,4.000000,-2.250000,$1*%
G04 Aperture macros list end*
%TA.AperFunction,ComponentPad*%
%ADD10R,1.700000X1.700000*%
%TD*%
%TA.AperFunction,ComponentPad*%
%ADD11C,1.700000*%
%TD*%
%TA.AperFunction,ComponentPad*%
%ADD12C,2.600000*%
%TD*%
%TA.AperFunction,ConnectorPad*%
%ADD13C,3.500000*%
%TD*%
%TA.AperFunction,ComponentPad*%
%ADD14FreePoly0,90.000000*%
%TD*%
%TA.AperFunction,ComponentPad*%
%ADD15FreePoly1,0.000000*%
%TD*%
%TA.AperFunction,ComponentPad*%
%ADD16FreePoly2,0.000000*%
%TD*%
%TA.AperFunction,ComponentPad*%
%ADD17R,2.000000X1.905000*%
%TD*%
%TA.AperFunction,ComponentPad*%
%ADD18O,2.000000X1.905000*%
%TD*%
%TA.AperFunction,ComponentPad*%
%ADD19RoundRect,0.250002X-1.699998X-1.699998X1.699998X-1.699998X1.699998X1.699998X-1.699998X1.699998X0*%
%TD*%
%TA.AperFunction,ComponentPad*%
%ADD20R,2.000000X2.000000*%
%TD*%
%TA.AperFunction,ComponentPad*%
%ADD21C,2.000000*%
%TD*%
%TA.AperFunction,ComponentPad*%
%ADD22C,1.440000*%
%TD*%
%TA.AperFunction,ComponentPad*%
%ADD23R,2.250000X2.250000*%
%TD*%
%TA.AperFunction,ComponentPad*%
%ADD24C,2.250000*%
%TD*%
%TA.AperFunction,ComponentPad*%
%ADD25R,2.286000X2.286000*%
%TD*%
%TA.AperFunction,ComponentPad*%
%ADD26C,2.286000*%
%TD*%
%TA.AperFunction,ComponentPad*%
%ADD27RoundRect,0.250000X0.550000X0.550000X-0.550000X0.550000X-0.550000X-0.550000X0.550000X-0.550000X0*%
%TD*%
%TA.AperFunction,ComponentPad*%
%ADD28C,1.600000*%
%TD*%
%TA.AperFunction,ViaPad*%
%ADD29C,1.000000*%
%TD*%
%TA.AperFunction,ViaPad*%
%ADD30C,2.000000*%
%TD*%
%TA.AperFunction,Conductor*%
%ADD31C,0.300000*%
%TD*%
%TA.AperFunction,Conductor*%
%ADD32C,1.500000*%
%TD*%
%TA.AperFunction,Conductor*%
%ADD33C,0.254000*%
%TD*%
%TA.AperFunction,Conductor*%
%ADD34C,2.000000*%
%TD*%
%TA.AperFunction,Conductor*%
%ADD35C,1.000000*%
%TD*%
G04 APERTURE END LIST*
D10*
%TO.P,J5,1,Pin_1*%
%TO.N,Net-(J5-Pin_1)*%
X102700000Y-120050000D03*
D11*
%TO.P,J5,2,Pin_2*%
%TO.N,GND*%
X102700000Y-122590000D03*
%TD*%
D12*
%TO.P,E2,1,1*%
%TO.N,GND*%
X122480000Y-55768000D03*
D13*
X122480000Y-55768000D03*
%TD*%
D14*
%TO.P,F1,1*%
%TO.N,Net-(P1-L)*%
X148340000Y-56400000D03*
D15*
X153420000Y-56400000D03*
%TO.P,F1,2*%
%TO.N,Net-(F1-Pad2)*%
X157480000Y-56400000D03*
D16*
X162560000Y-56400000D03*
%TD*%
D17*
%TO.P,U2,1,VI*%
%TO.N,Net-(D2-+)*%
X148200000Y-91000000D03*
D18*
%TO.P,U2,2,GND*%
%TO.N,GND*%
X148200000Y-93540000D03*
%TO.P,U2,3,VO*%
%TO.N,5v*%
X148200000Y-96080000D03*
%TD*%
D12*
%TO.P,E4,1,1*%
%TO.N,Net-(J1-L)*%
X115000000Y-132431000D03*
D13*
X115000000Y-132431000D03*
%TD*%
D12*
%TO.P,E3,1,1*%
%TO.N,Net-(J1-N)*%
X130010000Y-55768000D03*
D13*
X130010000Y-55768000D03*
%TD*%
D19*
%TO.P,H3,1,Pin_1*%
%TO.N,GND*%
X174659000Y-132431000D03*
%TD*%
D20*
%TO.P,C4,1*%
%TO.N,Net-(D2-+)*%
X150570000Y-117490000D03*
D21*
%TO.P,C4,2*%
%TO.N,GND*%
X145570000Y-117490000D03*
%TD*%
D19*
%TO.P,H1,1,Pin_1*%
%TO.N,GND*%
X106659000Y-55768000D03*
%TD*%
D22*
%TO.P,RV2,1,1*%
%TO.N,Net-(R14-Pad2)*%
X163710000Y-90880000D03*
%TO.P,RV2,2,2*%
%TO.N,Net-(C12-Pad1)*%
X163710000Y-93420000D03*
%TO.P,RV2,3,3*%
%TO.N,GND*%
X163710000Y-95960000D03*
%TD*%
D12*
%TO.P,E1,1,1*%
%TO.N,Net-(P1-L)*%
X115200000Y-55768000D03*
D13*
X115200000Y-55768000D03*
%TD*%
D17*
%TO.P,U1,1,VI*%
%TO.N,Net-(D1-+)*%
X148200000Y-103920000D03*
D18*
%TO.P,U1,2,GND*%
%TO.N,GND*%
X148200000Y-106460000D03*
%TO.P,U1,3,VO*%
%TO.N,VCC*%
X148200000Y-109000000D03*
%TD*%
D12*
%TO.P,E6,1,1*%
%TO.N,Net-(J1-N)*%
X130000000Y-132431000D03*
D13*
X130000000Y-132431000D03*
%TD*%
D22*
%TO.P,RV1,1,1*%
%TO.N,Net-(R1-Pad1)*%
X156290000Y-90980000D03*
%TO.P,RV1,2,2*%
%TO.N,Net-(C9-Pad1)*%
X156290000Y-93520000D03*
%TO.P,RV1,3,3*%
%TO.N,GND*%
X156290000Y-96060000D03*
%TD*%
D23*
%TO.P,T2,1*%
%TO.N,N/C*%
X154500000Y-68400000D03*
D24*
%TO.P,T2,2*%
%TO.N,Net-(F1-Pad2)*%
X154500000Y-72200000D03*
%TO.P,T2,3*%
%TO.N,Net-(J1-L)*%
X154500000Y-77200000D03*
%TO.P,T2,4*%
%TO.N,N/C*%
X154500000Y-82200000D03*
%TO.P,T2,5*%
%TO.N,GND*%
X167500000Y-82200000D03*
%TO.P,T2,6*%
%TO.N,N/C*%
X167500000Y-77200000D03*
%TO.P,T2,7*%
X167500000Y-72200000D03*
%TO.P,T2,8*%
%TO.N,Net-(R14-Pad2)*%
X167500000Y-67200000D03*
%TD*%
D20*
%TO.P,C3,1*%
%TO.N,Net-(D1-+)*%
X174667677Y-91780000D03*
D21*
%TO.P,C3,2*%
%TO.N,GND*%
X169667677Y-91780000D03*
%TD*%
D19*
%TO.P,H2,1,Pin_1*%
%TO.N,GND*%
X174603000Y-55768000D03*
%TD*%
D25*
%TO.P,T1,1*%
%TO.N,GND*%
X108244000Y-77980000D03*
D26*
%TO.P,T1,3*%
%TO.N,Net-(R1-Pad2)*%
X108244000Y-83060000D03*
%TO.P,T1,4*%
%TO.N,Net-(J1-N)*%
X108244000Y-93220000D03*
%TO.P,T1,6*%
%TO.N,Net-(F1-Pad2)*%
X108244000Y-98300000D03*
%TO.P,T1,7*%
%TO.N,Net-(D1-Pad2)*%
X137200000Y-77980000D03*
%TO.P,T1,9*%
%TO.N,Net-(D2-Pad4)*%
X137200000Y-83060000D03*
%TO.P,T1,10*%
X137200000Y-93220000D03*
%TO.P,T1,12*%
%TO.N,Net-(D1-Pad4)*%
X137200000Y-98300000D03*
%TD*%
D12*
%TO.P,E5,1,1*%
%TO.N,GND*%
X122480000Y-132431000D03*
D13*
X122480000Y-132431000D03*
%TD*%
D19*
%TO.P,H4,1,Pin_1*%
%TO.N,unconnected-(H4-Pin_1-Pad1)*%
X106659000Y-132431000D03*
%TD*%
D10*
%TO.P,J7,1,Pin_1*%
%TO.N,Net-(J7-Pin_1)*%
X176700000Y-71200000D03*
D11*
%TO.P,J7,2,Pin_2*%
%TO.N,SDA*%
X176700000Y-68660000D03*
%TO.P,J7,3,Pin_3*%
%TO.N,5v*%
X176700000Y-66120000D03*
%TO.P,J7,4,Pin_4*%
%TO.N,GND*%
X176700000Y-63580000D03*
%TD*%
D27*
%TO.P,U4,1*%
%TO.N,Net-(C10-Pad1)*%
X162900000Y-122000000D03*
D28*
%TO.P,U4,2,-*%
%TO.N,Net-(U4A--)*%
X162900000Y-119460000D03*
%TO.P,U4,3,+*%
%TO.N,Net-(U4A-+)*%
X162900000Y-116920000D03*
%TO.P,U4,4,V-*%
%TO.N,GND*%
X162900000Y-114380000D03*
%TO.P,U4,5,+*%
%TO.N,Net-(U4B-+)*%
X155280000Y-114380000D03*
%TO.P,U4,6,-*%
%TO.N,Net-(U4B--)*%
X155280000Y-116920000D03*
%TO.P,U4,7*%
%TO.N,Net-(C11-Pad1)*%
X155280000Y-119460000D03*
%TO.P,U4,8,V+*%
%TO.N,VCC*%
X155280000Y-122000000D03*
%TD*%
D29*
%TO.N,GND*%
X172250000Y-106750000D03*
X152600000Y-91300000D03*
X168200000Y-101350000D03*
X172150000Y-120080000D03*
X164900000Y-131200000D03*
X135850000Y-117260000D03*
X159420000Y-121330000D03*
X161400000Y-108600000D03*
X176900000Y-113100000D03*
X154650000Y-130750000D03*
X165200000Y-105400000D03*
X122480000Y-118100000D03*
X152600000Y-93550000D03*
X155860000Y-128820000D03*
X141700000Y-119300000D03*
X151100000Y-130500000D03*
X171640000Y-113110000D03*
X165720000Y-119140000D03*
X177500000Y-105100000D03*
X139300000Y-133600000D03*
X161750000Y-91250000D03*
X152940000Y-125720000D03*
%TO.N,Net-(U4B--)*%
X168160000Y-124510000D03*
X140500000Y-122100000D03*
%TO.N,Net-(U4A-+)*%
X167710000Y-116510000D03*
X171490000Y-116510000D03*
%TO.N,Net-(D3-K)*%
X174100000Y-116700000D03*
X173500000Y-112800000D03*
X172110000Y-101500000D03*
X151550000Y-122850000D03*
%TO.N,VCC*%
X172100000Y-124700000D03*
%TO.N,Net-(U4B-+)*%
X146500000Y-124000000D03*
X148600000Y-134400000D03*
X145700000Y-135800000D03*
%TO.N,Net-(U4A--)*%
X172400000Y-117900000D03*
D30*
%TO.N,Net-(F1-Pad2)*%
X137480000Y-70800000D03*
D29*
%TO.N,5v*%
X141000000Y-129300000D03*
X166600000Y-112400000D03*
X152330000Y-102470000D03*
X156900000Y-130100000D03*
X158600000Y-125700000D03*
%TO.N,Net-(C10-Pad1)*%
X159500000Y-127200000D03*
X176340000Y-121090000D03*
%TO.N,Net-(C11-Pad1)*%
X172380000Y-126300000D03*
X150114984Y-135102417D03*
X166650000Y-129400000D03*
X166650000Y-125750000D03*
%TO.N,Net-(U3-PC5)*%
X174900000Y-103800000D03*
X175700000Y-98700000D03*
%TO.N,Net-(J7-Pin_1)*%
X159600000Y-107600000D03*
%TO.N,Net-(J5-Pin_1)*%
X157300000Y-105550000D03*
%TO.N,SDA*%
X153600000Y-101800000D03*
%TO.N,Net-(D2-+)*%
X176870000Y-85590000D03*
%TO.N,Net-(C9-Pad2)*%
X165500000Y-126800000D03*
X165500000Y-123100000D03*
%TO.N,Net-(C9-Pad1)*%
X158900000Y-124400000D03*
%TO.N,Net-(D4-K)*%
X144100000Y-134900000D03*
X177900000Y-125530000D03*
X143600000Y-130400000D03*
X155170000Y-135600000D03*
%TO.N,Net-(C12-Pad1)*%
X139160000Y-130300000D03*
X142494000Y-110998000D03*
%TO.N,Net-(D1-Pad4)*%
X170200000Y-74100000D03*
%TO.N,Net-(D2-Pad4)*%
X175690000Y-83940000D03*
%TO.N,Net-(R11-Pad1)*%
X142500000Y-115640000D03*
X170300000Y-109600000D03*
X168159000Y-122980000D03*
X174910000Y-124540000D03*
%TO.N,Net-(R14-Pad2)*%
X135700000Y-126600000D03*
X160200000Y-87600000D03*
%TO.N,Net-(D1-Pad2)*%
X174110000Y-77250000D03*
X161700000Y-79300000D03*
%TO.N,Net-(R1-Pad2)*%
X141857500Y-74837500D03*
D30*
%TO.N,Net-(J1-N)*%
X130000000Y-80820000D03*
X130000000Y-66040000D03*
%TD*%
D31*
%TO.N,GND*%
X123320000Y-117260000D02*
X122480000Y-118100000D01*
X135660000Y-117260000D02*
X123320000Y-117260000D01*
X151770000Y-106880000D02*
X154210000Y-106880000D01*
D32*
X152590000Y-93540000D02*
X152600000Y-93550000D01*
X148200000Y-106460000D02*
X151350000Y-106460000D01*
D31*
X151350000Y-106460000D02*
X151740000Y-106850000D01*
X151740000Y-106850000D02*
X151770000Y-106880000D01*
D32*
X148200000Y-93540000D02*
X152590000Y-93540000D01*
D31*
%TO.N,Net-(U4B--)*%
X147180000Y-125300000D02*
X146541934Y-125300000D01*
X141700000Y-122700000D02*
X141100000Y-122100000D01*
X153690000Y-116920000D02*
X152781000Y-117829000D01*
X146539934Y-125300000D02*
X142300000Y-125300000D01*
X146541934Y-125300000D02*
X146540934Y-125301000D01*
X141100000Y-122100000D02*
X140500000Y-122100000D01*
X155280000Y-116920000D02*
X153690000Y-116920000D01*
X152781000Y-117829000D02*
X152781000Y-119699000D01*
X146540934Y-125301000D02*
X146539934Y-125300000D01*
X142300000Y-125300000D02*
X141700000Y-124700000D01*
X152781000Y-119699000D02*
X147180000Y-125300000D01*
X141700000Y-124700000D02*
X141700000Y-122700000D01*
%TO.N,Net-(U4A-+)*%
X167710000Y-116510000D02*
X171490000Y-116510000D01*
%TO.N,Net-(D3-K)*%
X158750000Y-129460000D02*
X165300000Y-129460000D01*
X152140000Y-122850000D02*
X158750000Y-129460000D01*
D33*
X172110000Y-101500000D02*
X172900000Y-101500000D01*
D31*
X173800000Y-127410000D02*
X177500000Y-123710000D01*
X177500000Y-120100000D02*
X174100000Y-116700000D01*
D33*
X172900000Y-101500000D02*
X173500000Y-102100000D01*
D31*
X167350000Y-127410000D02*
X173800000Y-127410000D01*
X151550000Y-122850000D02*
X152140000Y-122850000D01*
X165300000Y-129460000D02*
X167350000Y-127410000D01*
X177500000Y-123710000D02*
X177500000Y-120100000D01*
D33*
X173500000Y-102100000D02*
X173500000Y-112800000D01*
D31*
%TO.N,VCC*%
X155280000Y-124280000D02*
X159900000Y-128900000D01*
X155280000Y-122000000D02*
X155280000Y-124280000D01*
X165055000Y-128900000D02*
X169255000Y-124700000D01*
X159900000Y-128900000D02*
X165055000Y-128900000D01*
X169255000Y-124700000D02*
X172100000Y-124700000D01*
%TO.N,Net-(U4B-+)*%
X146500000Y-121110000D02*
X146500000Y-124000000D01*
X147150000Y-120460000D02*
X146500000Y-121110000D01*
X150490000Y-120460000D02*
X147150000Y-120460000D01*
X155280000Y-114380000D02*
X153580000Y-114380000D01*
X148600000Y-134400000D02*
X147200000Y-135800000D01*
X147200000Y-135800000D02*
X145700000Y-135800000D01*
X152240000Y-118710000D02*
X150490000Y-120460000D01*
X153580000Y-114380000D02*
X152240000Y-115720000D01*
X152240000Y-115720000D02*
X152240000Y-118710000D01*
D34*
%TO.N,Net-(F1-Pad2)*%
X137480000Y-70800000D02*
X144780000Y-63500000D01*
X160000000Y-61234000D02*
X160000000Y-56380000D01*
X157734000Y-63500000D02*
X160000000Y-61234000D01*
X144780000Y-63500000D02*
X157734000Y-63500000D01*
D31*
%TO.N,5v*%
X162420000Y-118180000D02*
X160500000Y-120100000D01*
X159100000Y-125700000D02*
X158600000Y-125700000D01*
X154770000Y-129300000D02*
X141000000Y-129300000D01*
X160500000Y-120100000D02*
X160500000Y-124300000D01*
X160500000Y-124300000D02*
X159100000Y-125700000D01*
X156900000Y-130100000D02*
X155570000Y-130100000D01*
X163470000Y-118180000D02*
X162420000Y-118180000D01*
X155570000Y-130100000D02*
X154770000Y-129300000D01*
X166610000Y-112330000D02*
X166610000Y-115040000D01*
X166610000Y-115040000D02*
X163470000Y-118180000D01*
D35*
%TO.N,Net-(D1-+)*%
X161700000Y-103920000D02*
X173820000Y-91800000D01*
X173820000Y-91800000D02*
X174767677Y-91800000D01*
X148200000Y-103920000D02*
X161700000Y-103920000D01*
D31*
%TO.N,Net-(C10-Pad1)*%
X162900000Y-122000000D02*
X162900000Y-123800000D01*
X162900000Y-123800000D02*
X159500000Y-127200000D01*
%TO.N,Net-(C11-Pad1)*%
X150948783Y-135102417D02*
X150114984Y-135102417D01*
X166650000Y-129400000D02*
X166650000Y-131650000D01*
X166650000Y-131650000D02*
X163700000Y-134600000D01*
X163700000Y-134600000D02*
X151451200Y-134600000D01*
X151451200Y-134600000D02*
X150948783Y-135102417D01*
D33*
%TO.N,Net-(U3-PC5)*%
X175700000Y-103000000D02*
X175700000Y-98700000D01*
X174900000Y-103800000D02*
X175700000Y-103000000D01*
D31*
%TO.N,Net-(J7-Pin_1)*%
X178629000Y-94551000D02*
X178629000Y-71749000D01*
X160110000Y-107600000D02*
X172550000Y-95160000D01*
X178080000Y-71200000D02*
X176700000Y-71200000D01*
X178629000Y-71749000D02*
X178080000Y-71200000D01*
X172550000Y-95160000D02*
X178020000Y-95160000D01*
X178020000Y-95160000D02*
X178629000Y-94551000D01*
X159600000Y-107600000D02*
X160110000Y-107600000D01*
%TO.N,SDA*%
X166900000Y-90450000D02*
X166900000Y-88600000D01*
X175000000Y-80500000D02*
X175000000Y-69230000D01*
X165210000Y-92140000D02*
X166900000Y-90450000D01*
X153600000Y-101800000D02*
X153600000Y-100910000D01*
X175000000Y-69230000D02*
X175570000Y-68660000D01*
X162370000Y-92140000D02*
X165210000Y-92140000D01*
X153600000Y-100910000D02*
X162370000Y-92140000D01*
X175570000Y-68660000D02*
X176700000Y-68660000D01*
X166900000Y-88600000D02*
X175000000Y-80500000D01*
D33*
%TO.N,Net-(D4-K)*%
X153945800Y-136824200D02*
X144724200Y-136824200D01*
X144724200Y-136824200D02*
X144100000Y-136200000D01*
X155170000Y-135600000D02*
X153945800Y-136824200D01*
X144100000Y-136200000D02*
X144100000Y-134900000D01*
D31*
X143600000Y-130400000D02*
X144100000Y-130900000D01*
X144100000Y-130900000D02*
X144100000Y-134900000D01*
D34*
%TO.N,Net-(D2-Pad4)*%
X134950000Y-83060000D02*
X137200000Y-83060000D01*
X137200000Y-93220000D02*
X134720000Y-93220000D01*
X132950000Y-91450000D02*
X132950000Y-85060000D01*
X132950000Y-85060000D02*
X134950000Y-83060000D01*
X134720000Y-93220000D02*
X132950000Y-91450000D01*
D35*
%TO.N,Net-(D1-Pad2)*%
X174110000Y-78700000D02*
X173510000Y-79300000D01*
X174110000Y-77290000D02*
X174110000Y-78700000D01*
X173510000Y-79300000D02*
X161700000Y-79300000D01*
D34*
%TO.N,Net-(P1-L)*%
X139065000Y-61595000D02*
X117475000Y-61595000D01*
X148340000Y-56400000D02*
X144260000Y-56400000D01*
X117475000Y-61595000D02*
X115200000Y-59320000D01*
X144260000Y-56400000D02*
X139065000Y-61595000D01*
X115200000Y-59320000D02*
X115200000Y-55880000D01*
%TO.N,Net-(J1-N)*%
X117600000Y-93220000D02*
X108244000Y-93220000D01*
X130000000Y-80820000D02*
X117600000Y-93220000D01*
X130000000Y-66040000D02*
X130000000Y-80820000D01*
%TO.N,Net-(J1-L)*%
X119476000Y-104394000D02*
X115000000Y-108870000D01*
X143398500Y-83450000D02*
X143398500Y-98308000D01*
X115000000Y-108870000D02*
X115000000Y-131572200D01*
X149760000Y-77200000D02*
X143398500Y-83450000D01*
X154500000Y-77200000D02*
X149760000Y-77200000D01*
X137414000Y-104394000D02*
X119476000Y-104394000D01*
X143398500Y-98328000D02*
X137414000Y-104394000D01*
%TD*%
%TA.AperFunction,Conductor*%
%TO.N,GND*%
G36*
X178698833Y-95503626D02*
G01*
X178754767Y-95545497D01*
X178779184Y-95610961D01*
X178779500Y-95619808D01*
X178779500Y-124695216D01*
X178759815Y-124762255D01*
X178707011Y-124808010D01*
X178637853Y-124817954D01*
X178574297Y-124788929D01*
X178567819Y-124782897D01*
X178537785Y-124752863D01*
X178537781Y-124752860D01*
X178373920Y-124643371D01*
X178373907Y-124643364D01*
X178191839Y-124567950D01*
X178191829Y-124567947D01*
X177998543Y-124529500D01*
X177998541Y-124529500D01*
X177899807Y-124529500D01*
X177832768Y-124509815D01*
X177787013Y-124457011D01*
X177777069Y-124387853D01*
X177806094Y-124324297D01*
X177812126Y-124317819D01*
X178005273Y-124124672D01*
X178005273Y-124124671D01*
X178005276Y-124124669D01*
X178076465Y-124018127D01*
X178125501Y-123899744D01*
X178128368Y-123885331D01*
X178142945Y-123812049D01*
X178150500Y-123774071D01*
X178150500Y-120035928D01*
X178125502Y-119910261D01*
X178125501Y-119910260D01*
X178125501Y-119910256D01*
X178083766Y-119809500D01*
X178076466Y-119791875D01*
X178076460Y-119791864D01*
X178053943Y-119758166D01*
X178053941Y-119758164D01*
X178005277Y-119685331D01*
X178005275Y-119685329D01*
X178005273Y-119685326D01*
X175136819Y-116816872D01*
X175103334Y-116755549D01*
X175100500Y-116729191D01*
X175100500Y-116601456D01*
X175062052Y-116408170D01*
X175062051Y-116408169D01*
X175062051Y-116408165D01*
X175062049Y-116408160D01*
X174986635Y-116226092D01*
X174986628Y-116226079D01*
X174877139Y-116062218D01*
X174877136Y-116062214D01*
X174737785Y-115922863D01*
X174737781Y-115922860D01*
X174573920Y-115813371D01*
X174573907Y-115813364D01*
X174391839Y-115737950D01*
X174391829Y-115737947D01*
X174198543Y-115699500D01*
X174198541Y-115699500D01*
X174001459Y-115699500D01*
X174001457Y-115699500D01*
X173808170Y-115737947D01*
X173808160Y-115737950D01*
X173626092Y-115813364D01*
X173626079Y-115813371D01*
X173462218Y-115922860D01*
X173462214Y-115922863D01*
X173322863Y-116062214D01*
X173322860Y-116062218D01*
X173213371Y-116226079D01*
X173213364Y-116226092D01*
X173137950Y-116408160D01*
X173137947Y-116408170D01*
X173099500Y-116601456D01*
X173099500Y-116798545D01*
X173124956Y-116926522D01*
X173118729Y-116996114D01*
X173075866Y-117051291D01*
X173009976Y-117074535D01*
X172941979Y-117058467D01*
X172934448Y-117053815D01*
X172873920Y-117013371D01*
X172873907Y-117013364D01*
X172691839Y-116937950D01*
X172691829Y-116937947D01*
X172556749Y-116911078D01*
X172494838Y-116878693D01*
X172460264Y-116817977D01*
X172459324Y-116765271D01*
X172490500Y-116608541D01*
X172490500Y-116411459D01*
X172490500Y-116411456D01*
X172452052Y-116218170D01*
X172452051Y-116218169D01*
X172452051Y-116218165D01*
X172416548Y-116132452D01*
X172376635Y-116036092D01*
X172376628Y-116036079D01*
X172267139Y-115872218D01*
X172267136Y-115872214D01*
X172127785Y-115732863D01*
X172127781Y-115732860D01*
X171963920Y-115623371D01*
X171963907Y-115623364D01*
X171781839Y-115547950D01*
X171781829Y-115547947D01*
X171588543Y-115509500D01*
X171588541Y-115509500D01*
X171391459Y-115509500D01*
X171391457Y-115509500D01*
X171198170Y-115547947D01*
X171198160Y-115547950D01*
X171016092Y-115623364D01*
X171016079Y-115623371D01*
X170852219Y-115732859D01*
X170824876Y-115760203D01*
X170761896Y-115823182D01*
X170700576Y-115856666D01*
X170674217Y-115859500D01*
X168525783Y-115859500D01*
X168458744Y-115839815D01*
X168438106Y-115823185D01*
X168347782Y-115732861D01*
X168347781Y-115732860D01*
X168347780Y-115732859D01*
X168183920Y-115623371D01*
X168183907Y-115623364D01*
X168001839Y-115547950D01*
X168001829Y-115547947D01*
X167808543Y-115509500D01*
X167808541Y-115509500D01*
X167611459Y-115509500D01*
X167611457Y-115509500D01*
X167418170Y-115547947D01*
X167418160Y-115547950D01*
X167290843Y-115600686D01*
X167221373Y-115608155D01*
X167158894Y-115576879D01*
X167123243Y-115516790D01*
X167125737Y-115446965D01*
X167140286Y-115417239D01*
X167186466Y-115348126D01*
X167235501Y-115229743D01*
X167252650Y-115143535D01*
X167260500Y-115104069D01*
X167260500Y-113205783D01*
X167280185Y-113138744D01*
X167296814Y-113118106D01*
X167377139Y-113037782D01*
X167486632Y-112873914D01*
X167562051Y-112691835D01*
X167600500Y-112498541D01*
X167600500Y-112301459D01*
X167600500Y-112301456D01*
X167562052Y-112108170D01*
X167562051Y-112108169D01*
X167562051Y-112108165D01*
X167537502Y-112048897D01*
X167486635Y-111926092D01*
X167486628Y-111926079D01*
X167377139Y-111762218D01*
X167377136Y-111762214D01*
X167237785Y-111622863D01*
X167237781Y-111622860D01*
X167073920Y-111513371D01*
X167073907Y-111513364D01*
X166891839Y-111437950D01*
X166891829Y-111437947D01*
X166698543Y-111399500D01*
X166698541Y-111399500D01*
X166501459Y-111399500D01*
X166501457Y-111399500D01*
X166308170Y-111437947D01*
X166308160Y-111437950D01*
X166126092Y-111513364D01*
X166126079Y-111513371D01*
X165962218Y-111622860D01*
X165962214Y-111622863D01*
X165822863Y-111762214D01*
X165822860Y-111762218D01*
X165713371Y-111926079D01*
X165713364Y-111926092D01*
X165637950Y-112108160D01*
X165637947Y-112108170D01*
X165599500Y-112301456D01*
X165599500Y-112301459D01*
X165599500Y-112498541D01*
X165599500Y-112498543D01*
X165599499Y-112498543D01*
X165637947Y-112691829D01*
X165637950Y-112691839D01*
X165713364Y-112873907D01*
X165713371Y-112873920D01*
X165822859Y-113037780D01*
X165822860Y-113037781D01*
X165822861Y-113037782D01*
X165923182Y-113138103D01*
X165956666Y-113199424D01*
X165959500Y-113225783D01*
X165959500Y-114719191D01*
X165939815Y-114786230D01*
X165923181Y-114806872D01*
X164294778Y-116435274D01*
X164233455Y-116468759D01*
X164163763Y-116463775D01*
X164107830Y-116421903D01*
X164096615Y-116403893D01*
X164012287Y-116238390D01*
X164012285Y-116238387D01*
X164012284Y-116238385D01*
X163891971Y-116072786D01*
X163747213Y-115928028D01*
X163581611Y-115807713D01*
X163488369Y-115760203D01*
X163437574Y-115712229D01*
X163420779Y-115644407D01*
X163443317Y-115578273D01*
X163488371Y-115539234D01*
X163581346Y-115491861D01*
X163581347Y-115491861D01*
X163625921Y-115459474D01*
X162946447Y-114780000D01*
X162952661Y-114780000D01*
X163054394Y-114752741D01*
X163145606Y-114700080D01*
X163220080Y-114625606D01*
X163272741Y-114534394D01*
X163300000Y-114432661D01*
X163300000Y-114426447D01*
X163979474Y-115105921D01*
X164011859Y-115061349D01*
X164104755Y-114879031D01*
X164167990Y-114684417D01*
X164200000Y-114482317D01*
X164200000Y-114277682D01*
X164167990Y-114075582D01*
X164104755Y-113880968D01*
X164011859Y-113698650D01*
X163979474Y-113654077D01*
X163979474Y-113654076D01*
X163300000Y-114333551D01*
X163300000Y-114327339D01*
X163272741Y-114225606D01*
X163220080Y-114134394D01*
X163145606Y-114059920D01*
X163054394Y-114007259D01*
X162952661Y-113980000D01*
X162946446Y-113980000D01*
X163625922Y-113300524D01*
X163625921Y-113300523D01*
X163581359Y-113268147D01*
X163581350Y-113268141D01*
X163399031Y-113175244D01*
X163204417Y-113112009D01*
X163002317Y-113080000D01*
X162797683Y-113080000D01*
X162595582Y-113112009D01*
X162400968Y-113175244D01*
X162218644Y-113268143D01*
X162174077Y-113300523D01*
X162174077Y-113300524D01*
X162853554Y-113980000D01*
X162847339Y-113980000D01*
X162745606Y-114007259D01*
X162654394Y-114059920D01*
X162579920Y-114134394D01*
X162527259Y-114225606D01*
X162500000Y-114327339D01*
X162500000Y-114333553D01*
X161820524Y-113654077D01*
X161820523Y-113654077D01*
X161788143Y-113698644D01*
X161695244Y-113880968D01*
X161632009Y-114075582D01*
X161600000Y-114277682D01*
X161600000Y-114482317D01*
X161632009Y-114684417D01*
X161695244Y-114879031D01*
X161788141Y-115061350D01*
X161788147Y-115061359D01*
X161820523Y-115105921D01*
X161820524Y-115105922D01*
X162500000Y-114426446D01*
X162500000Y-114432661D01*
X162527259Y-114534394D01*
X162579920Y-114625606D01*
X162654394Y-114700080D01*
X162745606Y-114752741D01*
X162847339Y-114780000D01*
X162853553Y-114780000D01*
X162174076Y-115459474D01*
X162218652Y-115491861D01*
X162311628Y-115539234D01*
X162362425Y-115587208D01*
X162379220Y-115655029D01*
X162356683Y-115721164D01*
X162311630Y-115760203D01*
X162218388Y-115807713D01*
X162052786Y-115928028D01*
X161908028Y-116072786D01*
X161787715Y-116238386D01*
X161694781Y-116420776D01*
X161631522Y-116615465D01*
X161599500Y-116817648D01*
X161599500Y-117022351D01*
X161631522Y-117224534D01*
X161694781Y-117419223D01*
X161751891Y-117531305D01*
X161782827Y-117592021D01*
X161787715Y-117601613D01*
X161847804Y-117684320D01*
X161871284Y-117750127D01*
X161855458Y-117818180D01*
X161835167Y-117844886D01*
X159994724Y-119685329D01*
X159946059Y-119758164D01*
X159946057Y-119758166D01*
X159923539Y-119791864D01*
X159923533Y-119791875D01*
X159874499Y-119910255D01*
X159874497Y-119910261D01*
X159849500Y-120035928D01*
X159849500Y-123635216D01*
X159829815Y-123702255D01*
X159777011Y-123748010D01*
X159707853Y-123757954D01*
X159644297Y-123728929D01*
X159637819Y-123722897D01*
X159537785Y-123622863D01*
X159537781Y-123622860D01*
X159373920Y-123513371D01*
X159373907Y-123513364D01*
X159191839Y-123437950D01*
X159191829Y-123437947D01*
X158998543Y-123399500D01*
X158998541Y-123399500D01*
X158801459Y-123399500D01*
X158801457Y-123399500D01*
X158608170Y-123437947D01*
X158608160Y-123437950D01*
X158426092Y-123513364D01*
X158426079Y-123513371D01*
X158262218Y-123622860D01*
X158262214Y-123622863D01*
X158122863Y-123762214D01*
X158122860Y-123762218D01*
X158013371Y-123926079D01*
X158013364Y-123926092D01*
X157937950Y-124108160D01*
X157937947Y-124108170D01*
X157899500Y-124301456D01*
X157899500Y-124301459D01*
X157899500Y-124498541D01*
X157899500Y-124498543D01*
X157899499Y-124498543D01*
X157937947Y-124691829D01*
X157937949Y-124691835D01*
X157978166Y-124788929D01*
X157981016Y-124795808D01*
X157988485Y-124865278D01*
X157957210Y-124927757D01*
X157954136Y-124930942D01*
X157822863Y-125062214D01*
X157822860Y-125062218D01*
X157713371Y-125226079D01*
X157713364Y-125226092D01*
X157637950Y-125408160D01*
X157637947Y-125408169D01*
X157631801Y-125439069D01*
X157599415Y-125500980D01*
X157538698Y-125535553D01*
X157468929Y-125531812D01*
X157422503Y-125502557D01*
X155966819Y-124046873D01*
X155933334Y-123985550D01*
X155930500Y-123959192D01*
X155930500Y-123198070D01*
X155950185Y-123131031D01*
X155981613Y-123097753D01*
X156127219Y-122991966D01*
X156271966Y-122847219D01*
X156271968Y-122847215D01*
X156271971Y-122847213D01*
X156324732Y-122774590D01*
X156392287Y-122681610D01*
X156485220Y-122499219D01*
X156548477Y-122304534D01*
X156580500Y-122102352D01*
X156580500Y-121897648D01*
X156553596Y-121727785D01*
X156548477Y-121695465D01*
X156492613Y-121523535D01*
X156485220Y-121500781D01*
X156485218Y-121500778D01*
X156485218Y-121500776D01*
X156433865Y-121399991D01*
X156392287Y-121318390D01*
X156376892Y-121297200D01*
X156271971Y-121152786D01*
X156127213Y-121008028D01*
X155961614Y-120887715D01*
X155955006Y-120884348D01*
X155868917Y-120840483D01*
X155818123Y-120792511D01*
X155801328Y-120724690D01*
X155823865Y-120658555D01*
X155868917Y-120619516D01*
X155961610Y-120572287D01*
X156033550Y-120520020D01*
X156127213Y-120451971D01*
X156127215Y-120451968D01*
X156127219Y-120451966D01*
X156271966Y-120307219D01*
X156271968Y-120307215D01*
X156271971Y-120307213D01*
X156347415Y-120203371D01*
X156392287Y-120141610D01*
X156485220Y-119959219D01*
X156548477Y-119764534D01*
X156580500Y-119562352D01*
X156580500Y-119357648D01*
X156548477Y-119155466D01*
X156485220Y-118960781D01*
X156485218Y-118960778D01*
X156485218Y-118960776D01*
X156427524Y-118847547D01*
X156392287Y-118778390D01*
X156361650Y-118736221D01*
X156271971Y-118612786D01*
X156127213Y-118468028D01*
X155961614Y-118347715D01*
X155955006Y-118344348D01*
X155868917Y-118300483D01*
X155818123Y-118252511D01*
X155801328Y-118184690D01*
X155823865Y-118118555D01*
X155868917Y-118079516D01*
X155961610Y-118032287D01*
X156019814Y-117990000D01*
X156127213Y-117911971D01*
X156127215Y-117911968D01*
X156127219Y-117911966D01*
X156271966Y-117767219D01*
X156271968Y-117767215D01*
X156271971Y-117767213D01*
X156340072Y-117673478D01*
X156392287Y-117601610D01*
X156485220Y-117419219D01*
X156548477Y-117224534D01*
X156580500Y-117022352D01*
X156580500Y-116817648D01*
X156548477Y-116615466D01*
X156539511Y-116587873D01*
X156500809Y-116468759D01*
X156485220Y-116420781D01*
X156485218Y-116420778D01*
X156485218Y-116420776D01*
X156420876Y-116294499D01*
X156392287Y-116238390D01*
X156377753Y-116218385D01*
X156271971Y-116072786D01*
X156127213Y-115928028D01*
X155961614Y-115807715D01*
X155955006Y-115804348D01*
X155868917Y-115760483D01*
X155818123Y-115712511D01*
X155801328Y-115644690D01*
X155823865Y-115578555D01*
X155868917Y-115539516D01*
X155961610Y-115492287D01*
X156023991Y-115446965D01*
X156127213Y-115371971D01*
X156127215Y-115371968D01*
X156127219Y-115371966D01*
X156271966Y-115227219D01*
X156271968Y-115227215D01*
X156271971Y-115227213D01*
X156332765Y-115143535D01*
X156392287Y-115061610D01*
X156485220Y-114879219D01*
X156548477Y-114684534D01*
X156580500Y-114482352D01*
X156580500Y-114277648D01*
X156572257Y-114225606D01*
X156548477Y-114075465D01*
X156517458Y-113980000D01*
X156485220Y-113880781D01*
X156485218Y-113880778D01*
X156485218Y-113880776D01*
X156424724Y-113762051D01*
X156392287Y-113698390D01*
X156360092Y-113654077D01*
X156271971Y-113532786D01*
X156127213Y-113388028D01*
X155961613Y-113267715D01*
X155961612Y-113267714D01*
X155961610Y-113267713D01*
X155879318Y-113225783D01*
X155779223Y-113174781D01*
X155584534Y-113111522D01*
X155409995Y-113083878D01*
X155382352Y-113079500D01*
X155177648Y-113079500D01*
X155153329Y-113083351D01*
X154975465Y-113111522D01*
X154780776Y-113174781D01*
X154598386Y-113267715D01*
X154432786Y-113388028D01*
X154288034Y-113532780D01*
X154288030Y-113532786D01*
X154182246Y-113678386D01*
X154126918Y-113721051D01*
X154081929Y-113729500D01*
X153515929Y-113729500D01*
X153390261Y-113754497D01*
X153390255Y-113754499D01*
X153271875Y-113803533D01*
X153271866Y-113803538D01*
X153165331Y-113874723D01*
X153165327Y-113874726D01*
X151734720Y-115305333D01*
X151714264Y-115335949D01*
X151706103Y-115348165D01*
X151689052Y-115373683D01*
X151663534Y-115411873D01*
X151614499Y-115530255D01*
X151614497Y-115530261D01*
X151589500Y-115655928D01*
X151589500Y-115865500D01*
X151569815Y-115932539D01*
X151517011Y-115978294D01*
X151465500Y-115989500D01*
X149522129Y-115989500D01*
X149522123Y-115989501D01*
X149462516Y-115995908D01*
X149327671Y-116046202D01*
X149327664Y-116046206D01*
X149212455Y-116132452D01*
X149212452Y-116132455D01*
X149126206Y-116247664D01*
X149126202Y-116247671D01*
X149075908Y-116382517D01*
X149069501Y-116442116D01*
X149069500Y-116442135D01*
X149069500Y-118537870D01*
X149069501Y-118537876D01*
X149075908Y-118597483D01*
X149126202Y-118732328D01*
X149126206Y-118732335D01*
X149212452Y-118847544D01*
X149212455Y-118847547D01*
X149327664Y-118933793D01*
X149327671Y-118933797D01*
X149462517Y-118984091D01*
X149462516Y-118984091D01*
X149469444Y-118984835D01*
X149522127Y-118990500D01*
X150740192Y-118990499D01*
X150807231Y-119010184D01*
X150852986Y-119062987D01*
X150862930Y-119132146D01*
X150833905Y-119195702D01*
X150827873Y-119202180D01*
X150256873Y-119773181D01*
X150195550Y-119806666D01*
X150169192Y-119809500D01*
X147085929Y-119809500D01*
X146960261Y-119834497D01*
X146960255Y-119834499D01*
X146841874Y-119883534D01*
X146735325Y-119954727D01*
X145994724Y-120695328D01*
X145948047Y-120765187D01*
X145923535Y-120801871D01*
X145874499Y-120920255D01*
X145874497Y-120920261D01*
X145849500Y-121045928D01*
X145849500Y-123184216D01*
X145829815Y-123251255D01*
X145813181Y-123271897D01*
X145722863Y-123362214D01*
X145722860Y-123362218D01*
X145613371Y-123526079D01*
X145613364Y-123526092D01*
X145537950Y-123708160D01*
X145537947Y-123708170D01*
X145499500Y-123901456D01*
X145499500Y-123901459D01*
X145499500Y-124098541D01*
X145499500Y-124098543D01*
X145499499Y-124098543D01*
X145537947Y-124291829D01*
X145537950Y-124291839D01*
X145615080Y-124478048D01*
X145622549Y-124547517D01*
X145591274Y-124609996D01*
X145531185Y-124645648D01*
X145500519Y-124649500D01*
X142620807Y-124649500D01*
X142591366Y-124640855D01*
X142561380Y-124634332D01*
X142556364Y-124630577D01*
X142553768Y-124629815D01*
X142533131Y-124613185D01*
X142386816Y-124466871D01*
X142353334Y-124405550D01*
X142350500Y-124379192D01*
X142350500Y-122635928D01*
X142325502Y-122510261D01*
X142325501Y-122510260D01*
X142325501Y-122510256D01*
X142276465Y-122391873D01*
X142276464Y-122391872D01*
X142276461Y-122391866D01*
X142205277Y-122285332D01*
X142160723Y-122240778D01*
X142114669Y-122194724D01*
X141971994Y-122052049D01*
X141514674Y-121594727D01*
X141514673Y-121594726D01*
X141408124Y-121523533D01*
X141311978Y-121483708D01*
X141271750Y-121456828D01*
X141137785Y-121322863D01*
X141137781Y-121322860D01*
X140973920Y-121213371D01*
X140973907Y-121213364D01*
X140791839Y-121137950D01*
X140791829Y-121137947D01*
X140598543Y-121099500D01*
X140598541Y-121099500D01*
X140401459Y-121099500D01*
X140401457Y-121099500D01*
X140208170Y-121137947D01*
X140208160Y-121137950D01*
X140026092Y-121213364D01*
X140026079Y-121213371D01*
X139862218Y-121322860D01*
X139862214Y-121322863D01*
X139722863Y-121462214D01*
X139722860Y-121462218D01*
X139613371Y-121626079D01*
X139613364Y-121626092D01*
X139537950Y-121808160D01*
X139537947Y-121808170D01*
X139499500Y-122001456D01*
X139499500Y-122001459D01*
X139499500Y-122198541D01*
X139499500Y-122198543D01*
X139499499Y-122198543D01*
X139537947Y-122391829D01*
X139537950Y-122391839D01*
X139613364Y-122573907D01*
X139613371Y-122573920D01*
X139722860Y-122737781D01*
X139722863Y-122737785D01*
X139862214Y-122877136D01*
X139862218Y-122877139D01*
X140026079Y-122986628D01*
X140026092Y-122986635D01*
X140132621Y-123030760D01*
X140208165Y-123062051D01*
X140208169Y-123062051D01*
X140208170Y-123062052D01*
X140401456Y-123100500D01*
X140401459Y-123100500D01*
X140598543Y-123100500D01*
X140728582Y-123074632D01*
X140791835Y-123062051D01*
X140867379Y-123030760D01*
X140878048Y-123026341D01*
X140947517Y-123018872D01*
X141009996Y-123050147D01*
X141045648Y-123110236D01*
X141049500Y-123140902D01*
X141049500Y-124764069D01*
X141049500Y-124764071D01*
X141049499Y-124764071D01*
X141069251Y-124863364D01*
X141071350Y-124873914D01*
X141074499Y-124889744D01*
X141123535Y-125008127D01*
X141194723Y-125114669D01*
X141194726Y-125114673D01*
X141194727Y-125114674D01*
X141794724Y-125714669D01*
X141868349Y-125788294D01*
X141885332Y-125805277D01*
X141991866Y-125876461D01*
X141991872Y-125876464D01*
X141991873Y-125876465D01*
X142110256Y-125925501D01*
X142110260Y-125925501D01*
X142110261Y-125925502D01*
X142235928Y-125950500D01*
X142235931Y-125950500D01*
X146471843Y-125950500D01*
X146476865Y-125951499D01*
X146605003Y-125951499D01*
X146610025Y-125950500D01*
X147244069Y-125950500D01*
X147244071Y-125950500D01*
X147328615Y-125933682D01*
X147369744Y-125925501D01*
X147488127Y-125876465D01*
X147594669Y-125805277D01*
X150369185Y-123030759D01*
X150430508Y-122997275D01*
X150500200Y-123002259D01*
X150556133Y-123044131D01*
X150578483Y-123094249D01*
X150587947Y-123141829D01*
X150587950Y-123141839D01*
X150663364Y-123323907D01*
X150663371Y-123323920D01*
X150772860Y-123487781D01*
X150772863Y-123487785D01*
X150912214Y-123627136D01*
X150912218Y-123627139D01*
X151076079Y-123736628D01*
X151076092Y-123736635D01*
X151215044Y-123794190D01*
X151258165Y-123812051D01*
X151258169Y-123812051D01*
X151258170Y-123812052D01*
X151451456Y-123850500D01*
X151451459Y-123850500D01*
X151648543Y-123850500D01*
X151806528Y-123819074D01*
X151841835Y-123812051D01*
X152005897Y-123744094D01*
X152075365Y-123736626D01*
X152137844Y-123767901D01*
X152141029Y-123770975D01*
X157297461Y-128927408D01*
X157330946Y-128988731D01*
X157325962Y-129058423D01*
X157284090Y-129114356D01*
X157218626Y-129138773D01*
X157185588Y-129136706D01*
X156998543Y-129099500D01*
X156998541Y-129099500D01*
X156801459Y-129099500D01*
X156801457Y-129099500D01*
X156608170Y-129137947D01*
X156608160Y-129137950D01*
X156426092Y-129213364D01*
X156426079Y-129213371D01*
X156262219Y-129322859D01*
X156217059Y-129368020D01*
X156171896Y-129413182D01*
X156144965Y-129427888D01*
X156119152Y-129444477D01*
X156112952Y-129445368D01*
X156110576Y-129446666D01*
X156084217Y-129449500D01*
X155890808Y-129449500D01*
X155823769Y-129429815D01*
X155803127Y-129413181D01*
X155184674Y-128794727D01*
X155184673Y-128794726D01*
X155136015Y-128762214D01*
X155078127Y-128723535D01*
X154959744Y-128674499D01*
X154959738Y-128674497D01*
X154834071Y-128649500D01*
X154834069Y-128649500D01*
X141815783Y-128649500D01*
X141748744Y-128629815D01*
X141728106Y-128613185D01*
X141637782Y-128522861D01*
X141637781Y-128522860D01*
X141637780Y-128522859D01*
X141473920Y-128413371D01*
X141473907Y-128413364D01*
X141291839Y-128337950D01*
X141291829Y-128337947D01*
X141098543Y-128299500D01*
X141098541Y-128299500D01*
X140901459Y-128299500D01*
X140901457Y-128299500D01*
X140708170Y-128337947D01*
X140708160Y-128337950D01*
X140526092Y-128413364D01*
X140526079Y-128413371D01*
X140362218Y-128522860D01*
X140362214Y-128522863D01*
X140222863Y-128662214D01*
X140222860Y-128662218D01*
X140113371Y-128826079D01*
X140113364Y-128826092D01*
X140037950Y-129008160D01*
X140037947Y-129008170D01*
X139999500Y-129201456D01*
X139999500Y-129398541D01*
X140000797Y-129405064D01*
X139994566Y-129474655D01*
X139951700Y-129529830D01*
X139885809Y-129553072D01*
X139817813Y-129537000D01*
X139800512Y-129525101D01*
X139797783Y-129522861D01*
X139633920Y-129413371D01*
X139633907Y-129413364D01*
X139451839Y-129337950D01*
X139451829Y-129337947D01*
X139258543Y-129299500D01*
X139258541Y-129299500D01*
X139061459Y-129299500D01*
X139061457Y-129299500D01*
X138868170Y-129337947D01*
X138868160Y-129337950D01*
X138686092Y-129413364D01*
X138686079Y-129413371D01*
X138522218Y-129522860D01*
X138522214Y-129522863D01*
X138382863Y-129662214D01*
X138382860Y-129662218D01*
X138273371Y-129826079D01*
X138273364Y-129826092D01*
X138197950Y-130008160D01*
X138197947Y-130008170D01*
X138159500Y-130201456D01*
X138159500Y-130201457D01*
X138159500Y-130201459D01*
X138159500Y-130398541D01*
X138159500Y-130398543D01*
X138159499Y-130398543D01*
X138197947Y-130591829D01*
X138197950Y-130591839D01*
X138273364Y-130773907D01*
X138273371Y-130773920D01*
X138382860Y-130937781D01*
X138382863Y-130937785D01*
X138522214Y-131077136D01*
X138522218Y-131077139D01*
X138686079Y-131186628D01*
X138686092Y-131186635D01*
X138868160Y-131262049D01*
X138868165Y-131262051D01*
X138868169Y-131262051D01*
X138868170Y-131262052D01*
X139061456Y-131300500D01*
X139061459Y-131300500D01*
X139258543Y-131300500D01*
X139398903Y-131272580D01*
X139451835Y-131262051D01*
X139633914Y-131186632D01*
X139797782Y-131077139D01*
X139937139Y-130937782D01*
X140046632Y-130773914D01*
X140122051Y-130591835D01*
X140143236Y-130485331D01*
X140160500Y-130398543D01*
X140160500Y-130201457D01*
X140159204Y-130194943D01*
X140165431Y-130125351D01*
X140208293Y-130070173D01*
X140274182Y-130046928D01*
X140342179Y-130062995D01*
X140359488Y-130074899D01*
X140362216Y-130077138D01*
X140526079Y-130186628D01*
X140526092Y-130186635D01*
X140708160Y-130262049D01*
X140708165Y-130262051D01*
X140708169Y-130262051D01*
X140708170Y-130262052D01*
X140901456Y-130300500D01*
X140901459Y-130300500D01*
X141098543Y-130300500D01*
X141228582Y-130274632D01*
X141291835Y-130262051D01*
X141453849Y-130194943D01*
X141473907Y-130186635D01*
X141473907Y-130186634D01*
X141473914Y-130186632D01*
X141637782Y-130077139D01*
X141728103Y-129986817D01*
X141789424Y-129953334D01*
X141815783Y-129950500D01*
X142518582Y-129950500D01*
X142585621Y-129970185D01*
X142631376Y-130022989D01*
X142641320Y-130092147D01*
X142639089Y-130102181D01*
X142639137Y-130102191D01*
X142599500Y-130301456D01*
X142599500Y-130301459D01*
X142599500Y-130498541D01*
X142599500Y-130498543D01*
X142599499Y-130498543D01*
X142637947Y-130691829D01*
X142637950Y-130691839D01*
X142713364Y-130873907D01*
X142713371Y-130873920D01*
X142822860Y-131037781D01*
X142822863Y-131037785D01*
X142962214Y-131177136D01*
X142962218Y-131177139D01*
X143126079Y-131286628D01*
X143126092Y-131286635D01*
X143211250Y-131321908D01*
X143308165Y-131362051D01*
X143349692Y-131370311D01*
X143411601Y-131402695D01*
X143446176Y-131463410D01*
X143449500Y-131491928D01*
X143449500Y-134084216D01*
X143429815Y-134151255D01*
X143413181Y-134171897D01*
X143322863Y-134262214D01*
X143322860Y-134262218D01*
X143213371Y-134426079D01*
X143213364Y-134426092D01*
X143137950Y-134608160D01*
X143137947Y-134608170D01*
X143099500Y-134801456D01*
X143099500Y-134801459D01*
X143099500Y-134998541D01*
X143099500Y-134998543D01*
X143099499Y-134998543D01*
X143137947Y-135191829D01*
X143137950Y-135191839D01*
X143213364Y-135373907D01*
X143213371Y-135373920D01*
X143322859Y-135537780D01*
X143322860Y-135537781D01*
X143322861Y-135537782D01*
X143436182Y-135651103D01*
X143469666Y-135712424D01*
X143472500Y-135738783D01*
X143472500Y-136261807D01*
X143496612Y-136383027D01*
X143496614Y-136383035D01*
X143524559Y-136450499D01*
X143543915Y-136497230D01*
X143543920Y-136497239D01*
X143612588Y-136600007D01*
X143612591Y-136600011D01*
X143752599Y-136740019D01*
X143786084Y-136801342D01*
X143781100Y-136871034D01*
X143739228Y-136926967D01*
X143673764Y-136951384D01*
X143664918Y-136951700D01*
X134826272Y-136951700D01*
X134759233Y-136932015D01*
X134713478Y-136879211D01*
X134702273Y-136827208D01*
X134702619Y-136740019D01*
X134739865Y-127353652D01*
X134759815Y-127286695D01*
X134812801Y-127241150D01*
X134881998Y-127231481D01*
X134945438Y-127260758D01*
X134951545Y-127266467D01*
X135062214Y-127377136D01*
X135062218Y-127377139D01*
X135226079Y-127486628D01*
X135226092Y-127486635D01*
X135408160Y-127562049D01*
X135408165Y-127562051D01*
X135408169Y-127562051D01*
X135408170Y-127562052D01*
X135601456Y-127600500D01*
X135601459Y-127600500D01*
X135798543Y-127600500D01*
X135928582Y-127574632D01*
X135991835Y-127562051D01*
X136173914Y-127486632D01*
X136337782Y-127377139D01*
X136477139Y-127237782D01*
X136586632Y-127073914D01*
X136662051Y-126891835D01*
X136674632Y-126828582D01*
X136700500Y-126698543D01*
X136700500Y-126501456D01*
X136662052Y-126308170D01*
X136662051Y-126308169D01*
X136662051Y-126308165D01*
X136649185Y-126277103D01*
X136586635Y-126126092D01*
X136586628Y-126126079D01*
X136477139Y-125962218D01*
X136477136Y-125962214D01*
X136337785Y-125822863D01*
X136337781Y-125822860D01*
X136173920Y-125713371D01*
X136173907Y-125713364D01*
X135991839Y-125637950D01*
X135991829Y-125637947D01*
X135798543Y-125599500D01*
X135798541Y-125599500D01*
X135601459Y-125599500D01*
X135601457Y-125599500D01*
X135408170Y-125637947D01*
X135408160Y-125637950D01*
X135226092Y-125713364D01*
X135226079Y-125713371D01*
X135062218Y-125822860D01*
X134957554Y-125927524D01*
X134896231Y-125961008D01*
X134826539Y-125956024D01*
X134770606Y-125914152D01*
X134746189Y-125848687D01*
X134745874Y-125839369D01*
X134779476Y-117371947D01*
X144070000Y-117371947D01*
X144070000Y-117608052D01*
X144106934Y-117841247D01*
X144179897Y-118065802D01*
X144287087Y-118276174D01*
X144347338Y-118359104D01*
X144347340Y-118359105D01*
X145087037Y-117619408D01*
X145104075Y-117682993D01*
X145169901Y-117797007D01*
X145262993Y-117890099D01*
X145377007Y-117955925D01*
X145440590Y-117972962D01*
X144700893Y-118712658D01*
X144783828Y-118772914D01*
X144994197Y-118880102D01*
X145218752Y-118953065D01*
X145218751Y-118953065D01*
X145451948Y-118990000D01*
X145688052Y-118990000D01*
X145921247Y-118953065D01*
X146145802Y-118880102D01*
X146356163Y-118772918D01*
X146356169Y-118772914D01*
X146439104Y-118712658D01*
X146439105Y-118712658D01*
X145699408Y-117972962D01*
X145762993Y-117955925D01*
X145877007Y-117890099D01*
X145970099Y-117797007D01*
X146035925Y-117682993D01*
X146052962Y-117619409D01*
X146792658Y-118359105D01*
X146792658Y-118359104D01*
X146852914Y-118276169D01*
X146852918Y-118276163D01*
X146960102Y-118065802D01*
X147033065Y-117841247D01*
X147070000Y-117608052D01*
X147070000Y-117371947D01*
X147033065Y-117138752D01*
X146960102Y-116914197D01*
X146852914Y-116703828D01*
X146792658Y-116620894D01*
X146792658Y-116620893D01*
X146052962Y-117360590D01*
X146035925Y-117297007D01*
X145970099Y-117182993D01*
X145877007Y-117089901D01*
X145762993Y-117024075D01*
X145699409Y-117007037D01*
X146439105Y-116267340D01*
X146439104Y-116267338D01*
X146356174Y-116207087D01*
X146145802Y-116099897D01*
X145921247Y-116026934D01*
X145921248Y-116026934D01*
X145688052Y-115990000D01*
X145451948Y-115990000D01*
X145218752Y-116026934D01*
X144994197Y-116099897D01*
X144783830Y-116207084D01*
X144700894Y-116267340D01*
X145440591Y-117007037D01*
X145377007Y-117024075D01*
X145262993Y-117089901D01*
X145169901Y-117182993D01*
X145104075Y-117297007D01*
X145087037Y-117360590D01*
X144347340Y-116620894D01*
X144287084Y-116703830D01*
X144179897Y-116914197D01*
X144106934Y-117138752D01*
X144070000Y-117371947D01*
X134779476Y-117371947D01*
X134785958Y-115738543D01*
X141499499Y-115738543D01*
X141537947Y-115931829D01*
X141537950Y-115931839D01*
X141613364Y-116113907D01*
X141613371Y-116113920D01*
X141722860Y-116277781D01*
X141722863Y-116277785D01*
X141862214Y-116417136D01*
X141862218Y-116417139D01*
X142026079Y-116526628D01*
X142026092Y-116526635D01*
X142206736Y-116601459D01*
X142208165Y-116602051D01*
X142208169Y-116602051D01*
X142208170Y-116602052D01*
X142401456Y-116640500D01*
X142401459Y-116640500D01*
X142598543Y-116640500D01*
X142728582Y-116614632D01*
X142791835Y-116602051D01*
X142973914Y-116526632D01*
X143137782Y-116417139D01*
X143277139Y-116277782D01*
X143386632Y-116113914D01*
X143462051Y-115931835D01*
X143475246Y-115865500D01*
X143500500Y-115738543D01*
X143500500Y-115541456D01*
X143462052Y-115348170D01*
X143462051Y-115348166D01*
X143462051Y-115348165D01*
X143444309Y-115305331D01*
X143386635Y-115166092D01*
X143386628Y-115166079D01*
X143277139Y-115002218D01*
X143277136Y-115002214D01*
X143137785Y-114862863D01*
X143137781Y-114862860D01*
X142973920Y-114753371D01*
X142973907Y-114753364D01*
X142791839Y-114677950D01*
X142791829Y-114677947D01*
X142598543Y-114639500D01*
X142598541Y-114639500D01*
X142401459Y-114639500D01*
X142401457Y-114639500D01*
X142208170Y-114677947D01*
X142208160Y-114677950D01*
X142026092Y-114753364D01*
X142026079Y-114753371D01*
X141862218Y-114862860D01*
X141862214Y-114862863D01*
X141722863Y-115002214D01*
X141722860Y-115002218D01*
X141613371Y-115166079D01*
X141613364Y-115166092D01*
X141537950Y-115348160D01*
X141537947Y-115348170D01*
X141499500Y-115541456D01*
X141499500Y-115541459D01*
X141499500Y-115738541D01*
X141499500Y-115738543D01*
X141499499Y-115738543D01*
X134785958Y-115738543D01*
X134799516Y-112321913D01*
X134819466Y-112254953D01*
X134872452Y-112209408D01*
X134921901Y-112198416D01*
X142499230Y-112100010D01*
X142500840Y-112100000D01*
X147320001Y-112100000D01*
X147320000Y-112099999D01*
X147318742Y-111987574D01*
X147300977Y-110400598D01*
X147319910Y-110333345D01*
X147372198Y-110287002D01*
X147441241Y-110276285D01*
X147481264Y-110288728D01*
X147594744Y-110346549D01*
X147812251Y-110417221D01*
X147812252Y-110417221D01*
X147812255Y-110417222D01*
X148038146Y-110453000D01*
X148038147Y-110453000D01*
X148361853Y-110453000D01*
X148361854Y-110453000D01*
X148587745Y-110417222D01*
X148587748Y-110417221D01*
X148587749Y-110417221D01*
X148805255Y-110346549D01*
X148805255Y-110346548D01*
X148805258Y-110346548D01*
X149009038Y-110242717D01*
X149194066Y-110108286D01*
X149355786Y-109946566D01*
X149490217Y-109761538D01*
X149522315Y-109698543D01*
X169299499Y-109698543D01*
X169337947Y-109891829D01*
X169337950Y-109891839D01*
X169413364Y-110073907D01*
X169413371Y-110073920D01*
X169522860Y-110237781D01*
X169522863Y-110237785D01*
X169662214Y-110377136D01*
X169662218Y-110377139D01*
X169826079Y-110486628D01*
X169826092Y-110486635D01*
X170008160Y-110562049D01*
X170008165Y-110562051D01*
X170008169Y-110562051D01*
X170008170Y-110562052D01*
X170201456Y-110600500D01*
X170201459Y-110600500D01*
X170398543Y-110600500D01*
X170528582Y-110574632D01*
X170591835Y-110562051D01*
X170773914Y-110486632D01*
X170937782Y-110377139D01*
X171077139Y-110237782D01*
X171186632Y-110073914D01*
X171262051Y-109891835D01*
X171300500Y-109698541D01*
X171300500Y-109501459D01*
X171300500Y-109501456D01*
X171262052Y-109308170D01*
X171262051Y-109308169D01*
X171262051Y-109308165D01*
X171262049Y-109308160D01*
X171186635Y-109126092D01*
X171186628Y-109126079D01*
X171077139Y-108962218D01*
X171077136Y-108962214D01*
X170937785Y-108822863D01*
X170937781Y-108822860D01*
X170773920Y-108713371D01*
X170773907Y-108713364D01*
X170591839Y-108637950D01*
X170591829Y-108637947D01*
X170398543Y-108599500D01*
X170398541Y-108599500D01*
X170201459Y-108599500D01*
X170201457Y-108599500D01*
X170008170Y-108637947D01*
X170008160Y-108637950D01*
X169826092Y-108713364D01*
X169826079Y-108713371D01*
X169662218Y-108822860D01*
X169662214Y-108822863D01*
X169522863Y-108962214D01*
X169522860Y-108962218D01*
X169413371Y-109126079D01*
X169413364Y-109126092D01*
X169337950Y-109308160D01*
X169337947Y-109308170D01*
X169299500Y-109501456D01*
X169299500Y-109501459D01*
X169299500Y-109698541D01*
X169299500Y-109698543D01*
X169299499Y-109698543D01*
X149522315Y-109698543D01*
X149594048Y-109557758D01*
X149612342Y-109501456D01*
X149626771Y-109457049D01*
X149664721Y-109340249D01*
X149664721Y-109340248D01*
X149664722Y-109340245D01*
X149700500Y-109114354D01*
X149700500Y-108885646D01*
X149664722Y-108659755D01*
X149664721Y-108659751D01*
X149664721Y-108659750D01*
X149594049Y-108442244D01*
X149490216Y-108238461D01*
X149460090Y-108196996D01*
X149355786Y-108053434D01*
X149194066Y-107891714D01*
X149109134Y-107830007D01*
X149066470Y-107774678D01*
X149060491Y-107705064D01*
X149093097Y-107643269D01*
X149109137Y-107629371D01*
X149193739Y-107567905D01*
X149355402Y-107406242D01*
X149489788Y-107221276D01*
X149593582Y-107017570D01*
X149664234Y-106800128D01*
X149678509Y-106710000D01*
X148690748Y-106710000D01*
X148712518Y-106672292D01*
X148750000Y-106532409D01*
X148750000Y-106387591D01*
X148712518Y-106247708D01*
X148690748Y-106210000D01*
X149678509Y-106210000D01*
X149664234Y-106119871D01*
X149593582Y-105902429D01*
X149489788Y-105698723D01*
X149356988Y-105515940D01*
X149333508Y-105450133D01*
X149349333Y-105382079D01*
X149399439Y-105333384D01*
X149413966Y-105326875D01*
X149442331Y-105316296D01*
X149557546Y-105230046D01*
X149643796Y-105114831D01*
X149686190Y-105001167D01*
X149728061Y-104945233D01*
X149793525Y-104920816D01*
X149802372Y-104920500D01*
X156292235Y-104920500D01*
X156359274Y-104940185D01*
X156405029Y-104992989D01*
X156414973Y-105062147D01*
X156406796Y-105091952D01*
X156337950Y-105258160D01*
X156337947Y-105258170D01*
X156299500Y-105451456D01*
X156299500Y-105451459D01*
X156299500Y-105648541D01*
X156299500Y-105648543D01*
X156299499Y-105648543D01*
X156337947Y-105841829D01*
X156337950Y-105841839D01*
X156413364Y-106023907D01*
X156413371Y-106023920D01*
X156522860Y-106187781D01*
X156522863Y-106187785D01*
X156662214Y-106327136D01*
X156662218Y-106327139D01*
X156826079Y-106436628D01*
X156826092Y-106436635D01*
X157008160Y-106512049D01*
X157008165Y-106512051D01*
X157008169Y-106512051D01*
X157008170Y-106512052D01*
X157201456Y-106550500D01*
X157201459Y-106550500D01*
X157398543Y-106550500D01*
X157528582Y-106524632D01*
X157591835Y-106512051D01*
X157773914Y-106436632D01*
X157937782Y-106327139D01*
X158077139Y-106187782D01*
X158186632Y-106023914D01*
X158262051Y-105841835D01*
X158300500Y-105648541D01*
X158300500Y-105451459D01*
X158300500Y-105451456D01*
X158262052Y-105258170D01*
X158262051Y-105258169D01*
X158262051Y-105258165D01*
X158193204Y-105091952D01*
X158185735Y-105022483D01*
X158217010Y-104960004D01*
X158277099Y-104924352D01*
X158307765Y-104920500D01*
X161570191Y-104920500D01*
X161637230Y-104940185D01*
X161682985Y-104992989D01*
X161692929Y-105062147D01*
X161663904Y-105125703D01*
X161657872Y-105132181D01*
X160134459Y-106655593D01*
X160073136Y-106689078D01*
X160003444Y-106684094D01*
X159999350Y-106682483D01*
X159891835Y-106637949D01*
X159891829Y-106637947D01*
X159698543Y-106599500D01*
X159698541Y-106599500D01*
X159501459Y-106599500D01*
X159501457Y-106599500D01*
X159308170Y-106637947D01*
X159308160Y-106637950D01*
X159126092Y-106713364D01*
X159126079Y-106713371D01*
X158962218Y-106822860D01*
X158962214Y-106822863D01*
X158822863Y-106962214D01*
X158822860Y-106962218D01*
X158713371Y-107126079D01*
X158713364Y-107126092D01*
X158637950Y-107308160D01*
X158637947Y-107308170D01*
X158599500Y-107501456D01*
X158599500Y-107501459D01*
X158599500Y-107698541D01*
X158599500Y-107698543D01*
X158599499Y-107698543D01*
X158637947Y-107891829D01*
X158637950Y-107891839D01*
X158713364Y-108073907D01*
X158713371Y-108073920D01*
X158822860Y-108237781D01*
X158822863Y-108237785D01*
X158962214Y-108377136D01*
X158962218Y-108377139D01*
X159126079Y-108486628D01*
X159126092Y-108486635D01*
X159308160Y-108562049D01*
X159308165Y-108562051D01*
X159308169Y-108562051D01*
X159308170Y-108562052D01*
X159501456Y-108600500D01*
X159501459Y-108600500D01*
X159698543Y-108600500D01*
X159828582Y-108574632D01*
X159891835Y-108562051D01*
X160073914Y-108486632D01*
X160237782Y-108377139D01*
X160377139Y-108237782D01*
X160404394Y-108196990D01*
X160438601Y-108162784D01*
X160524669Y-108105277D01*
X167031403Y-101598543D01*
X171109499Y-101598543D01*
X171147947Y-101791829D01*
X171147950Y-101791839D01*
X171223364Y-101973907D01*
X171223371Y-101973920D01*
X171332860Y-102137781D01*
X171332863Y-102137785D01*
X171472214Y-102277136D01*
X171472218Y-102277139D01*
X171636079Y-102386628D01*
X171636092Y-102386635D01*
X171818160Y-102462049D01*
X171818165Y-102462051D01*
X171818169Y-102462051D01*
X171818170Y-102462052D01*
X172011456Y-102500500D01*
X172011459Y-102500500D01*
X172208543Y-102500500D01*
X172344740Y-102473408D01*
X172401835Y-102462051D01*
X172583914Y-102386632D01*
X172679609Y-102322691D01*
X172746286Y-102301813D01*
X172813667Y-102320297D01*
X172860357Y-102372276D01*
X172872500Y-102425793D01*
X172872500Y-111961216D01*
X172852815Y-112028255D01*
X172836181Y-112048897D01*
X172722863Y-112162214D01*
X172722860Y-112162218D01*
X172613371Y-112326079D01*
X172613364Y-112326092D01*
X172537950Y-112508160D01*
X172537947Y-112508170D01*
X172499500Y-112701456D01*
X172499500Y-112701459D01*
X172499500Y-112898541D01*
X172499500Y-112898543D01*
X172499499Y-112898543D01*
X172537947Y-113091829D01*
X172537950Y-113091839D01*
X172613364Y-113273907D01*
X172613371Y-113273920D01*
X172722860Y-113437781D01*
X172722863Y-113437785D01*
X172862214Y-113577136D01*
X172862218Y-113577139D01*
X173026079Y-113686628D01*
X173026092Y-113686635D01*
X173208160Y-113762049D01*
X173208165Y-113762051D01*
X173208169Y-113762051D01*
X173208170Y-113762052D01*
X173401456Y-113800500D01*
X173401459Y-113800500D01*
X173598543Y-113800500D01*
X173728582Y-113774632D01*
X173791835Y-113762051D01*
X173944914Y-113698644D01*
X173973907Y-113686635D01*
X173973907Y-113686634D01*
X173973914Y-113686632D01*
X174137782Y-113577139D01*
X174277139Y-113437782D01*
X174386632Y-113273914D01*
X174462051Y-113091835D01*
X174500500Y-112898541D01*
X174500500Y-112701459D01*
X174500500Y-112701456D01*
X174462052Y-112508170D01*
X174462051Y-112508169D01*
X174462051Y-112508165D01*
X174462049Y-112508160D01*
X174386635Y-112326092D01*
X174386628Y-112326079D01*
X174277139Y-112162218D01*
X174277136Y-112162214D01*
X174163819Y-112048897D01*
X174130334Y-111987574D01*
X174127500Y-111961216D01*
X174127500Y-104719111D01*
X174147185Y-104652072D01*
X174199989Y-104606317D01*
X174269147Y-104596373D01*
X174320391Y-104616009D01*
X174426079Y-104686628D01*
X174426092Y-104686635D01*
X174608160Y-104762049D01*
X174608165Y-104762051D01*
X174608169Y-104762051D01*
X174608170Y-104762052D01*
X174801456Y-104800500D01*
X174801459Y-104800500D01*
X174998543Y-104800500D01*
X175128582Y-104774632D01*
X175191835Y-104762051D01*
X175373914Y-104686632D01*
X175537782Y-104577139D01*
X175677139Y-104437782D01*
X175786632Y-104273914D01*
X175862051Y-104091835D01*
X175900500Y-103898541D01*
X175900500Y-103738280D01*
X175920185Y-103671241D01*
X175936814Y-103650603D01*
X176187411Y-103400008D01*
X176236804Y-103326086D01*
X176256083Y-103297233D01*
X176276832Y-103247139D01*
X176303386Y-103183034D01*
X176327500Y-103061803D01*
X176327500Y-102938197D01*
X176327500Y-99538783D01*
X176347185Y-99471744D01*
X176363814Y-99451106D01*
X176477139Y-99337782D01*
X176586632Y-99173914D01*
X176662051Y-98991835D01*
X176700500Y-98798541D01*
X176700500Y-98601459D01*
X176700500Y-98601456D01*
X176662052Y-98408170D01*
X176662051Y-98408169D01*
X176662051Y-98408165D01*
X176662049Y-98408160D01*
X176586635Y-98226092D01*
X176586628Y-98226079D01*
X176477139Y-98062218D01*
X176477136Y-98062214D01*
X176337785Y-97922863D01*
X176337781Y-97922860D01*
X176173920Y-97813371D01*
X176173907Y-97813364D01*
X175991839Y-97737950D01*
X175991829Y-97737947D01*
X175798543Y-97699500D01*
X175798541Y-97699500D01*
X175601459Y-97699500D01*
X175601457Y-97699500D01*
X175408170Y-97737947D01*
X175408160Y-97737950D01*
X175226092Y-97813364D01*
X175226079Y-97813371D01*
X175062218Y-97922860D01*
X175062214Y-97922863D01*
X174922863Y-98062214D01*
X174922860Y-98062218D01*
X174813371Y-98226079D01*
X174813364Y-98226092D01*
X174737950Y-98408160D01*
X174737947Y-98408170D01*
X174699500Y-98601456D01*
X174699500Y-98601459D01*
X174699500Y-98798541D01*
X174699500Y-98798543D01*
X174699499Y-98798543D01*
X174737947Y-98991829D01*
X174737950Y-98991839D01*
X174813364Y-99173907D01*
X174813371Y-99173920D01*
X174922859Y-99337780D01*
X174922860Y-99337781D01*
X174922861Y-99337782D01*
X175036182Y-99451103D01*
X175069666Y-99512424D01*
X175072500Y-99538783D01*
X175072500Y-102675500D01*
X175052815Y-102742539D01*
X175000011Y-102788294D01*
X174948500Y-102799500D01*
X174801457Y-102799500D01*
X174608170Y-102837947D01*
X174608160Y-102837950D01*
X174426092Y-102913364D01*
X174426074Y-102913374D01*
X174320390Y-102983990D01*
X174253713Y-103004868D01*
X174186333Y-102986383D01*
X174139643Y-102934404D01*
X174127500Y-102880888D01*
X174127500Y-102038194D01*
X174103386Y-101916970D01*
X174103385Y-101916969D01*
X174103385Y-101916965D01*
X174103383Y-101916960D01*
X174056086Y-101802773D01*
X174056079Y-101802760D01*
X173987412Y-101699993D01*
X173980279Y-101692860D01*
X173900008Y-101612589D01*
X173613498Y-101326079D01*
X173300011Y-101012591D01*
X173300010Y-101012590D01*
X173292331Y-101007459D01*
X173280419Y-100999500D01*
X173197233Y-100943917D01*
X173163784Y-100930062D01*
X173155909Y-100926800D01*
X173155904Y-100926797D01*
X173083035Y-100896614D01*
X173083027Y-100896612D01*
X172961807Y-100872500D01*
X172961803Y-100872500D01*
X172948783Y-100872500D01*
X172881744Y-100852815D01*
X172861106Y-100836185D01*
X172747782Y-100722861D01*
X172747781Y-100722860D01*
X172747780Y-100722859D01*
X172583920Y-100613371D01*
X172583907Y-100613364D01*
X172401839Y-100537950D01*
X172401829Y-100537947D01*
X172208543Y-100499500D01*
X172208541Y-100499500D01*
X172011459Y-100499500D01*
X172011457Y-100499500D01*
X171818170Y-100537947D01*
X171818160Y-100537950D01*
X171636092Y-100613364D01*
X171636079Y-100613371D01*
X171472218Y-100722860D01*
X171472214Y-100722863D01*
X171332863Y-100862214D01*
X171332860Y-100862218D01*
X171223371Y-101026079D01*
X171223364Y-101026092D01*
X171147950Y-101208160D01*
X171147947Y-101208170D01*
X171109500Y-101401456D01*
X171109500Y-101401459D01*
X171109500Y-101598541D01*
X171109500Y-101598543D01*
X171109499Y-101598543D01*
X167031403Y-101598543D01*
X172783127Y-95846819D01*
X172844450Y-95813334D01*
X172870808Y-95810500D01*
X178084071Y-95810500D01*
X178168615Y-95793682D01*
X178209744Y-95785501D01*
X178328127Y-95736465D01*
X178434669Y-95665277D01*
X178567820Y-95532125D01*
X178629141Y-95498642D01*
X178698833Y-95503626D01*
G37*
%TD.AperFunction*%
%TA.AperFunction,Conductor*%
G36*
X176818833Y-125413624D02*
G01*
X176874767Y-125455496D01*
X176899184Y-125520960D01*
X176899500Y-125529806D01*
X176899500Y-125628541D01*
X176899500Y-125628543D01*
X176899499Y-125628543D01*
X176937947Y-125821829D01*
X176937950Y-125821839D01*
X177013364Y-126003907D01*
X177013371Y-126003920D01*
X177122860Y-126167781D01*
X177122863Y-126167785D01*
X177262214Y-126307136D01*
X177262218Y-126307139D01*
X177426079Y-126416628D01*
X177426092Y-126416635D01*
X177608160Y-126492049D01*
X177608165Y-126492051D01*
X177608169Y-126492051D01*
X177608170Y-126492052D01*
X177801456Y-126530500D01*
X177801459Y-126530500D01*
X177998543Y-126530500D01*
X178144553Y-126501456D01*
X178191835Y-126492051D01*
X178373914Y-126416632D01*
X178537782Y-126307139D01*
X178551543Y-126293378D01*
X178567819Y-126277103D01*
X178629142Y-126243618D01*
X178698834Y-126248602D01*
X178754767Y-126290474D01*
X178779184Y-126355938D01*
X178779500Y-126364784D01*
X178779500Y-136827700D01*
X178759815Y-136894739D01*
X178707011Y-136940494D01*
X178655500Y-136951700D01*
X155005080Y-136951700D01*
X154983834Y-136945461D01*
X154961746Y-136943882D01*
X154950962Y-136935809D01*
X154938041Y-136932015D01*
X154923541Y-136915281D01*
X154905813Y-136902010D01*
X154901105Y-136889389D01*
X154892286Y-136879211D01*
X154889134Y-136857293D01*
X154881396Y-136836546D01*
X154884258Y-136823385D01*
X154882342Y-136810053D01*
X154891541Y-136789909D01*
X154896248Y-136768273D01*
X154909516Y-136750547D01*
X154911367Y-136746497D01*
X154917399Y-136740019D01*
X155020599Y-136636819D01*
X155081922Y-136603334D01*
X155108280Y-136600500D01*
X155268543Y-136600500D01*
X155398582Y-136574632D01*
X155461835Y-136562051D01*
X155643914Y-136486632D01*
X155807782Y-136377139D01*
X155947139Y-136237782D01*
X156056632Y-136073914D01*
X156132051Y-135891835D01*
X156144632Y-135828582D01*
X156170500Y-135698543D01*
X156170500Y-135501456D01*
X156170499Y-135501454D01*
X156150059Y-135398691D01*
X156156286Y-135329099D01*
X156199149Y-135273922D01*
X156265039Y-135250678D01*
X156271676Y-135250500D01*
X163764071Y-135250500D01*
X163848615Y-135233682D01*
X163889744Y-135225501D01*
X164008127Y-135176465D01*
X164029449Y-135162218D01*
X164114669Y-135105277D01*
X165306765Y-133913181D01*
X166677990Y-132541957D01*
X167155272Y-132064674D01*
X167155273Y-132064673D01*
X167155277Y-132064669D01*
X167226465Y-131958127D01*
X167275501Y-131839744D01*
X167300500Y-131714069D01*
X167300500Y-130681015D01*
X172209000Y-130681015D01*
X172209000Y-132181000D01*
X173433015Y-132181000D01*
X173409000Y-132332623D01*
X173409000Y-132529377D01*
X173433015Y-132681000D01*
X172209001Y-132681000D01*
X172209001Y-134180984D01*
X172219494Y-134283695D01*
X172274641Y-134450117D01*
X172274643Y-134450122D01*
X172366684Y-134599344D01*
X172490655Y-134723315D01*
X172639877Y-134815356D01*
X172639882Y-134815358D01*
X172806304Y-134870505D01*
X172806311Y-134870506D01*
X172909021Y-134880999D01*
X174408999Y-134880999D01*
X174409000Y-134880998D01*
X174409000Y-133656985D01*
X174560623Y-133681000D01*
X174757377Y-133681000D01*
X174909000Y-133656985D01*
X174909000Y-134880999D01*
X176408970Y-134880999D01*
X176408984Y-134880998D01*
X176511695Y-134870505D01*
X176678117Y-134815358D01*
X176678122Y-134815356D01*
X176827344Y-134723315D01*
X176951315Y-134599344D01*
X177043356Y-134450122D01*
X177043358Y-134450117D01*
X177098505Y-134283695D01*
X177098506Y-134283688D01*
X177108999Y-134180984D01*
X177109000Y-134180971D01*
X177109000Y-132681000D01*
X175884985Y-132681000D01*
X175909000Y-132529377D01*
X175909000Y-132332623D01*
X175884985Y-132181000D01*
X177108999Y-132181000D01*
X177108999Y-130681030D01*
X177108998Y-130681015D01*
X177098505Y-130578304D01*
X177043358Y-130411882D01*
X177043356Y-130411877D01*
X176951315Y-130262655D01*
X176827344Y-130138684D01*
X176678122Y-130046643D01*
X176678117Y-130046641D01*
X176511695Y-129991494D01*
X176511688Y-129991493D01*
X176408984Y-129981000D01*
X174909000Y-129981000D01*
X174909000Y-131205014D01*
X174757377Y-131181000D01*
X174560623Y-131181000D01*
X174409000Y-131205014D01*
X174409000Y-129981000D01*
X172909030Y-129981000D01*
X172909014Y-129981001D01*
X172806304Y-129991494D01*
X172639882Y-130046641D01*
X172639877Y-130046643D01*
X172490655Y-130138684D01*
X172366684Y-130262655D01*
X172274643Y-130411877D01*
X172274641Y-130411882D01*
X172219494Y-130578304D01*
X172219493Y-130578311D01*
X172209000Y-130681015D01*
X167300500Y-130681015D01*
X167300500Y-130215783D01*
X167320185Y-130148744D01*
X167336814Y-130128106D01*
X167427139Y-130037782D01*
X167536632Y-129873914D01*
X167612051Y-129691835D01*
X167625129Y-129626086D01*
X167650500Y-129498543D01*
X167650500Y-129301456D01*
X167612052Y-129108170D01*
X167612051Y-129108169D01*
X167612051Y-129108165D01*
X167608462Y-129099500D01*
X167536635Y-128926092D01*
X167536628Y-128926079D01*
X167427139Y-128762218D01*
X167427136Y-128762214D01*
X167287784Y-128622862D01*
X167275119Y-128614400D01*
X167230313Y-128560788D01*
X167221606Y-128491463D01*
X167251760Y-128428435D01*
X167256287Y-128423657D01*
X167583129Y-128096816D01*
X167644450Y-128063334D01*
X167670808Y-128060500D01*
X173864071Y-128060500D01*
X173948615Y-128043682D01*
X173989744Y-128035501D01*
X174108127Y-127986465D01*
X174214669Y-127915277D01*
X176687819Y-125442124D01*
X176749142Y-125408640D01*
X176818833Y-125413624D01*
G37*
%TD.AperFunction*%
%TA.AperFunction,Conductor*%
G36*
X158046269Y-129682464D02*
G01*
X158072591Y-129702538D01*
X158335325Y-129965272D01*
X158335332Y-129965278D01*
X158441863Y-130036459D01*
X158441865Y-130036460D01*
X158441874Y-130036466D01*
X158465341Y-130046186D01*
X158465343Y-130046187D01*
X158465342Y-130046187D01*
X158560251Y-130085499D01*
X158560256Y-130085501D01*
X158560260Y-130085501D01*
X158560261Y-130085502D01*
X158685928Y-130110500D01*
X158685931Y-130110500D01*
X165364071Y-130110500D01*
X165456333Y-130092147D01*
X165489744Y-130085501D01*
X165548935Y-130060983D01*
X165608123Y-130036467D01*
X165608124Y-130036466D01*
X165608127Y-130036465D01*
X165608926Y-130035931D01*
X165687443Y-129983468D01*
X165754115Y-129962593D01*
X165821495Y-129981078D01*
X165859429Y-130017680D01*
X165872861Y-130037782D01*
X165963182Y-130128103D01*
X165996666Y-130189424D01*
X165999500Y-130215783D01*
X165999500Y-131329192D01*
X165979815Y-131396231D01*
X165963181Y-131416873D01*
X163466873Y-133913181D01*
X163405550Y-133946666D01*
X163379192Y-133949500D01*
X151387129Y-133949500D01*
X151261461Y-133974497D01*
X151261455Y-133974499D01*
X151143074Y-134023534D01*
X151036526Y-134094726D01*
X151036525Y-134094727D01*
X150856621Y-134274632D01*
X150795298Y-134308117D01*
X150725606Y-134303133D01*
X150700049Y-134290053D01*
X150588904Y-134215788D01*
X150588891Y-134215781D01*
X150406823Y-134140367D01*
X150406813Y-134140364D01*
X150213527Y-134101917D01*
X150213525Y-134101917D01*
X150016443Y-134101917D01*
X150016441Y-134101917D01*
X149823154Y-134140364D01*
X149823153Y-134140364D01*
X149726232Y-134180510D01*
X149656762Y-134187978D01*
X149594283Y-134156702D01*
X149564219Y-134113400D01*
X149486635Y-133926092D01*
X149486628Y-133926079D01*
X149377139Y-133762218D01*
X149377136Y-133762214D01*
X149237785Y-133622863D01*
X149237781Y-133622860D01*
X149073920Y-133513371D01*
X149073907Y-133513364D01*
X148891839Y-133437950D01*
X148891829Y-133437947D01*
X148698543Y-133399500D01*
X148698541Y-133399500D01*
X148501459Y-133399500D01*
X148501457Y-133399500D01*
X148308170Y-133437947D01*
X148308160Y-133437950D01*
X148126092Y-133513364D01*
X148126079Y-133513371D01*
X147962218Y-133622860D01*
X147962214Y-133622863D01*
X147822863Y-133762214D01*
X147822860Y-133762218D01*
X147713371Y-133926079D01*
X147713364Y-133926092D01*
X147637950Y-134108160D01*
X147637947Y-134108170D01*
X147599500Y-134301456D01*
X147599500Y-134429192D01*
X147579815Y-134496231D01*
X147563181Y-134516873D01*
X146966873Y-135113181D01*
X146905550Y-135146666D01*
X146879192Y-135149500D01*
X146515783Y-135149500D01*
X146448744Y-135129815D01*
X146428106Y-135113185D01*
X146337782Y-135022861D01*
X146337781Y-135022860D01*
X146337780Y-135022859D01*
X146173920Y-134913371D01*
X146173907Y-134913364D01*
X145991839Y-134837950D01*
X145991829Y-134837947D01*
X145798543Y-134799500D01*
X145798541Y-134799500D01*
X145601459Y-134799500D01*
X145601457Y-134799500D01*
X145408170Y-134837947D01*
X145408169Y-134837948D01*
X145408168Y-134837948D01*
X145408165Y-134837949D01*
X145329567Y-134870505D01*
X145270217Y-134895088D01*
X145200747Y-134902556D01*
X145138268Y-134871280D01*
X145102616Y-134811191D01*
X145101148Y-134804717D01*
X145062052Y-134608172D01*
X145062052Y-134608170D01*
X145062051Y-134608165D01*
X145015687Y-134496231D01*
X144986635Y-134426092D01*
X144986628Y-134426079D01*
X144877139Y-134262218D01*
X144877136Y-134262214D01*
X144786819Y-134171897D01*
X144753334Y-134110574D01*
X144750500Y-134084216D01*
X144750500Y-130835928D01*
X144725502Y-130710261D01*
X144725501Y-130710260D01*
X144725501Y-130710256D01*
X144676465Y-130591873D01*
X144664465Y-130573914D01*
X144664464Y-130573912D01*
X144621397Y-130509456D01*
X144600520Y-130442779D01*
X144600500Y-130440567D01*
X144600500Y-130301456D01*
X144560863Y-130102191D01*
X144562684Y-130101828D01*
X144562129Y-130040647D01*
X144599368Y-129981528D01*
X144662657Y-129951927D01*
X144681418Y-129950500D01*
X154449192Y-129950500D01*
X154516231Y-129970185D01*
X154536873Y-129986819D01*
X155155325Y-130605272D01*
X155155328Y-130605275D01*
X155239188Y-130661308D01*
X155239187Y-130661308D01*
X155261871Y-130676464D01*
X155261872Y-130676464D01*
X155261873Y-130676465D01*
X155380256Y-130725501D01*
X155380260Y-130725501D01*
X155380261Y-130725502D01*
X155505928Y-130750500D01*
X155505931Y-130750500D01*
X156084217Y-130750500D01*
X156151256Y-130770185D01*
X156171893Y-130786814D01*
X156221007Y-130835928D01*
X156262219Y-130877140D01*
X156426079Y-130986628D01*
X156426092Y-130986635D01*
X156549581Y-131037785D01*
X156608165Y-131062051D01*
X156608169Y-131062051D01*
X156608170Y-131062052D01*
X156801456Y-131100500D01*
X156801459Y-131100500D01*
X156998543Y-131100500D01*
X157128582Y-131074632D01*
X157191835Y-131062051D01*
X157373914Y-130986632D01*
X157537782Y-130877139D01*
X157677139Y-130737782D01*
X157786632Y-130573914D01*
X157862051Y-130391835D01*
X157887867Y-130262051D01*
X157900500Y-130198543D01*
X157900500Y-130001456D01*
X157865617Y-129826092D01*
X157863293Y-129814409D01*
X157869520Y-129744819D01*
X157912383Y-129689642D01*
X157978272Y-129666397D01*
X158046269Y-129682464D01*
G37*
%TD.AperFunction*%
%TA.AperFunction,Conductor*%
G36*
X166694065Y-115952434D02*
G01*
X166718293Y-115954167D01*
X166727314Y-115960920D01*
X166738232Y-115963707D01*
X166754783Y-115981483D01*
X166774226Y-115996039D01*
X166778163Y-116006595D01*
X166785843Y-116014844D01*
X166790156Y-116038748D01*
X166798643Y-116061503D01*
X166796569Y-116074296D01*
X166798249Y-116083603D01*
X166789520Y-116117801D01*
X166747950Y-116218160D01*
X166747947Y-116218170D01*
X166709500Y-116411456D01*
X166709500Y-116411459D01*
X166709500Y-116608541D01*
X166709500Y-116608543D01*
X166709499Y-116608543D01*
X166747947Y-116801829D01*
X166747950Y-116801839D01*
X166823364Y-116983907D01*
X166823371Y-116983920D01*
X166932860Y-117147781D01*
X166932863Y-117147785D01*
X167072214Y-117287136D01*
X167072218Y-117287139D01*
X167236079Y-117396628D01*
X167236092Y-117396635D01*
X167418160Y-117472049D01*
X167418165Y-117472051D01*
X167418169Y-117472051D01*
X167418170Y-117472052D01*
X167611456Y-117510500D01*
X167611459Y-117510500D01*
X167808543Y-117510500D01*
X167976256Y-117477139D01*
X168001835Y-117472051D01*
X168183914Y-117396632D01*
X168347782Y-117287139D01*
X168438103Y-117196817D01*
X168499424Y-117163334D01*
X168525783Y-117160500D01*
X170674217Y-117160500D01*
X170741256Y-117180185D01*
X170761893Y-117196814D01*
X170827297Y-117262218D01*
X170852219Y-117287140D01*
X171016079Y-117396628D01*
X171016092Y-117396635D01*
X171198160Y-117472049D01*
X171198165Y-117472051D01*
X171333249Y-117498921D01*
X171395160Y-117531305D01*
X171429734Y-117592021D01*
X171430675Y-117644729D01*
X171399500Y-117801454D01*
X171399500Y-117801459D01*
X171399500Y-117998541D01*
X171399500Y-117998543D01*
X171399499Y-117998543D01*
X171437947Y-118191829D01*
X171437950Y-118191839D01*
X171513364Y-118373907D01*
X171513371Y-118373920D01*
X171622860Y-118537781D01*
X171622863Y-118537785D01*
X171762214Y-118677136D01*
X171762218Y-118677139D01*
X171926079Y-118786628D01*
X171926092Y-118786635D01*
X172073149Y-118847547D01*
X172108165Y-118862051D01*
X172108169Y-118862051D01*
X172108170Y-118862052D01*
X172301456Y-118900500D01*
X172301459Y-118900500D01*
X172498543Y-118900500D01*
X172628582Y-118874632D01*
X172691835Y-118862051D01*
X172873914Y-118786632D01*
X173037782Y-118677139D01*
X173177139Y-118537782D01*
X173286632Y-118373914D01*
X173292767Y-118359104D01*
X173333217Y-118261446D01*
X173362051Y-118191835D01*
X173387852Y-118062126D01*
X173400500Y-117998543D01*
X173400500Y-117801456D01*
X173375043Y-117673478D01*
X173381270Y-117603886D01*
X173424133Y-117548709D01*
X173490023Y-117525464D01*
X173558020Y-117541532D01*
X173565551Y-117546184D01*
X173601943Y-117570500D01*
X173626086Y-117586632D01*
X173626088Y-117586633D01*
X173626092Y-117586635D01*
X173808160Y-117662049D01*
X173808165Y-117662051D01*
X173808169Y-117662051D01*
X173808170Y-117662052D01*
X174001456Y-117700500D01*
X174001459Y-117700500D01*
X174129192Y-117700500D01*
X174196231Y-117720185D01*
X174216873Y-117736819D01*
X176357873Y-119877819D01*
X176391358Y-119939142D01*
X176386374Y-120008834D01*
X176344502Y-120064767D01*
X176279038Y-120089184D01*
X176270192Y-120089500D01*
X176241457Y-120089500D01*
X176048170Y-120127947D01*
X176048160Y-120127950D01*
X175866092Y-120203364D01*
X175866079Y-120203371D01*
X175702218Y-120312860D01*
X175702214Y-120312863D01*
X175562863Y-120452214D01*
X175562860Y-120452218D01*
X175453371Y-120616079D01*
X175453364Y-120616092D01*
X175377950Y-120798160D01*
X175377947Y-120798170D01*
X175339500Y-120991456D01*
X175339500Y-120991459D01*
X175339500Y-121188541D01*
X175339500Y-121188543D01*
X175339499Y-121188543D01*
X175377947Y-121381829D01*
X175377950Y-121381839D01*
X175453364Y-121563907D01*
X175453371Y-121563920D01*
X175562860Y-121727781D01*
X175562863Y-121727785D01*
X175702214Y-121867136D01*
X175702218Y-121867139D01*
X175866079Y-121976628D01*
X175866092Y-121976635D01*
X176048160Y-122052049D01*
X176048165Y-122052051D01*
X176048169Y-122052051D01*
X176048170Y-122052052D01*
X176241456Y-122090500D01*
X176241459Y-122090500D01*
X176438543Y-122090500D01*
X176568582Y-122064632D01*
X176631835Y-122052051D01*
X176678048Y-122032908D01*
X176747516Y-122025440D01*
X176809996Y-122056715D01*
X176845648Y-122116804D01*
X176849500Y-122147470D01*
X176849500Y-123389192D01*
X176829815Y-123456231D01*
X176813181Y-123476873D01*
X176053019Y-124237034D01*
X175991696Y-124270519D01*
X175922004Y-124265535D01*
X175866071Y-124223663D01*
X175850777Y-124196805D01*
X175796635Y-124066092D01*
X175796628Y-124066079D01*
X175687139Y-123902218D01*
X175687136Y-123902214D01*
X175547785Y-123762863D01*
X175547781Y-123762860D01*
X175383920Y-123653371D01*
X175383907Y-123653364D01*
X175201839Y-123577950D01*
X175201829Y-123577947D01*
X175008543Y-123539500D01*
X175008541Y-123539500D01*
X174811459Y-123539500D01*
X174811457Y-123539500D01*
X174618170Y-123577947D01*
X174618160Y-123577950D01*
X174436092Y-123653364D01*
X174436079Y-123653371D01*
X174272218Y-123762860D01*
X174272214Y-123762863D01*
X174132863Y-123902214D01*
X174132860Y-123902218D01*
X174023371Y-124066079D01*
X174023364Y-124066092D01*
X173947950Y-124248160D01*
X173947947Y-124248170D01*
X173909500Y-124441456D01*
X173909500Y-124441459D01*
X173909500Y-124638541D01*
X173909500Y-124638543D01*
X173909499Y-124638543D01*
X173947947Y-124831829D01*
X173947950Y-124831839D01*
X174023364Y-125013907D01*
X174023371Y-125013920D01*
X174132860Y-125177781D01*
X174132863Y-125177785D01*
X174272214Y-125317136D01*
X174272218Y-125317139D01*
X174436079Y-125426628D01*
X174436092Y-125426635D01*
X174566805Y-125480777D01*
X174621209Y-125524617D01*
X174643274Y-125590911D01*
X174625995Y-125658611D01*
X174607034Y-125683019D01*
X173566873Y-126723181D01*
X173539945Y-126737884D01*
X173514127Y-126754477D01*
X173507926Y-126755368D01*
X173505550Y-126756666D01*
X173479192Y-126759500D01*
X173458181Y-126759500D01*
X173391142Y-126739815D01*
X173345387Y-126687011D01*
X173335443Y-126617853D01*
X173340927Y-126597857D01*
X173340283Y-126597662D01*
X173342047Y-126591842D01*
X173342051Y-126591835D01*
X173361899Y-126492052D01*
X173380500Y-126398543D01*
X173380500Y-126201456D01*
X173342052Y-126008170D01*
X173342051Y-126008169D01*
X173342051Y-126008165D01*
X173320454Y-125956024D01*
X173266635Y-125826092D01*
X173266628Y-125826079D01*
X173157139Y-125662218D01*
X173157136Y-125662214D01*
X173017785Y-125522863D01*
X173017781Y-125522860D01*
X172938156Y-125469656D01*
X172893351Y-125416044D01*
X172884644Y-125346719D01*
X172903944Y-125297665D01*
X172986632Y-125173914D01*
X173062051Y-124991835D01*
X173081866Y-124892218D01*
X173100500Y-124798543D01*
X173100500Y-124601456D01*
X173062052Y-124408170D01*
X173062051Y-124408169D01*
X173062051Y-124408165D01*
X173024629Y-124317819D01*
X172986635Y-124226092D01*
X172986628Y-124226079D01*
X172877139Y-124062218D01*
X172877136Y-124062214D01*
X172737785Y-123922863D01*
X172737781Y-123922860D01*
X172573920Y-123813371D01*
X172573907Y-123813364D01*
X172391839Y-123737950D01*
X172391829Y-123737947D01*
X172198543Y-123699500D01*
X172198541Y-123699500D01*
X172001459Y-123699500D01*
X172001457Y-123699500D01*
X171808170Y-123737947D01*
X171808160Y-123737950D01*
X171626092Y-123813364D01*
X171626079Y-123813371D01*
X171462219Y-123922859D01*
X171425887Y-123959192D01*
X171371896Y-124013182D01*
X171310576Y-124046666D01*
X171284217Y-124049500D01*
X169190926Y-124049500D01*
X169152734Y-124057097D01*
X169136219Y-124055619D01*
X169120026Y-124059187D01*
X169102139Y-124052569D01*
X169083142Y-124050870D01*
X169069498Y-124040494D01*
X169054497Y-124034944D01*
X169034408Y-124013807D01*
X169029474Y-124010054D01*
X169027373Y-124007263D01*
X168937139Y-123872218D01*
X168890947Y-123826026D01*
X168885714Y-123819074D01*
X168876357Y-123794190D01*
X168863617Y-123770859D01*
X168864250Y-123761993D01*
X168861123Y-123753675D01*
X168866704Y-123727683D01*
X168868601Y-123701168D01*
X168874304Y-123692292D01*
X168875793Y-123685363D01*
X168884171Y-123676939D01*
X168897103Y-123656818D01*
X168936136Y-123617785D01*
X168936139Y-123617782D01*
X169045632Y-123453914D01*
X169052245Y-123437950D01*
X169071348Y-123391829D01*
X169121051Y-123271835D01*
X169144673Y-123153081D01*
X169159500Y-123078543D01*
X169159500Y-122881456D01*
X169121052Y-122688170D01*
X169121051Y-122688169D01*
X169121051Y-122688165D01*
X169095337Y-122626086D01*
X169045635Y-122506092D01*
X169045628Y-122506079D01*
X168936139Y-122342218D01*
X168936136Y-122342214D01*
X168796785Y-122202863D01*
X168796781Y-122202860D01*
X168632920Y-122093371D01*
X168632907Y-122093364D01*
X168450839Y-122017950D01*
X168450829Y-122017947D01*
X168257543Y-121979500D01*
X168257541Y-121979500D01*
X168060459Y-121979500D01*
X168060457Y-121979500D01*
X167867170Y-122017947D01*
X167867160Y-122017950D01*
X167685092Y-122093364D01*
X167685079Y-122093371D01*
X167521218Y-122202860D01*
X167521214Y-122202863D01*
X167381863Y-122342214D01*
X167381860Y-122342218D01*
X167272371Y-122506079D01*
X167272364Y-122506092D01*
X167196950Y-122688160D01*
X167196947Y-122688170D01*
X167158500Y-122881456D01*
X167158500Y-122881459D01*
X167158500Y-123078541D01*
X167158500Y-123078543D01*
X167158499Y-123078543D01*
X167196947Y-123271829D01*
X167196950Y-123271839D01*
X167272364Y-123453907D01*
X167272371Y-123453920D01*
X167381860Y-123617781D01*
X167381863Y-123617785D01*
X167421896Y-123657817D01*
X167455382Y-123719140D01*
X167450398Y-123788831D01*
X167421898Y-123833179D01*
X167382864Y-123872213D01*
X167382860Y-123872218D01*
X167273371Y-124036079D01*
X167273364Y-124036092D01*
X167197950Y-124218160D01*
X167197947Y-124218170D01*
X167159500Y-124411456D01*
X167159500Y-124411459D01*
X167159500Y-124608541D01*
X167160423Y-124613181D01*
X167172676Y-124674784D01*
X167166447Y-124744375D01*
X167123584Y-124799552D01*
X167057694Y-124822796D01*
X167003605Y-124813535D01*
X166941835Y-124787949D01*
X166941829Y-124787947D01*
X166748543Y-124749500D01*
X166748541Y-124749500D01*
X166551459Y-124749500D01*
X166551457Y-124749500D01*
X166358170Y-124787947D01*
X166358160Y-124787950D01*
X166176092Y-124863364D01*
X166176079Y-124863371D01*
X166012218Y-124972860D01*
X166012214Y-124972863D01*
X165872863Y-125112214D01*
X165872860Y-125112218D01*
X165763371Y-125276079D01*
X165763364Y-125276092D01*
X165687950Y-125458160D01*
X165687947Y-125458170D01*
X165649500Y-125651456D01*
X165649500Y-125675500D01*
X165629815Y-125742539D01*
X165577011Y-125788294D01*
X165525500Y-125799500D01*
X165401457Y-125799500D01*
X165208170Y-125837947D01*
X165208160Y-125837950D01*
X165026092Y-125913364D01*
X165026079Y-125913371D01*
X164862218Y-126022860D01*
X164862214Y-126022863D01*
X164722863Y-126162214D01*
X164722860Y-126162218D01*
X164613371Y-126326079D01*
X164613364Y-126326092D01*
X164537950Y-126508160D01*
X164537947Y-126508170D01*
X164499500Y-126701456D01*
X164499500Y-126701459D01*
X164499500Y-126898541D01*
X164499500Y-126898543D01*
X164499499Y-126898543D01*
X164537947Y-127091829D01*
X164537950Y-127091839D01*
X164613364Y-127273907D01*
X164613371Y-127273920D01*
X164722860Y-127437781D01*
X164722863Y-127437785D01*
X164862214Y-127577136D01*
X164862218Y-127577139D01*
X165026079Y-127686628D01*
X165026086Y-127686632D01*
X165082559Y-127710023D01*
X165136961Y-127753862D01*
X165159027Y-127820156D01*
X165141749Y-127887856D01*
X165122788Y-127912265D01*
X164821871Y-128213182D01*
X164760550Y-128246666D01*
X164734192Y-128249500D01*
X160220808Y-128249500D01*
X160191367Y-128240855D01*
X160161381Y-128234332D01*
X160156365Y-128230577D01*
X160153769Y-128229815D01*
X160133127Y-128213181D01*
X160100334Y-128180388D01*
X160066849Y-128119065D01*
X160071833Y-128049373D01*
X160113705Y-127993440D01*
X160119116Y-127989611D01*
X160137782Y-127977139D01*
X160277139Y-127837782D01*
X160386632Y-127673914D01*
X160462051Y-127491835D01*
X160500500Y-127298541D01*
X160500500Y-127170808D01*
X160520185Y-127103769D01*
X160536819Y-127083127D01*
X163405273Y-124214673D01*
X163405277Y-124214669D01*
X163476465Y-124108127D01*
X163525501Y-123989744D01*
X163534988Y-123942051D01*
X163538805Y-123922861D01*
X163550500Y-123864071D01*
X163550500Y-123396869D01*
X163570185Y-123329830D01*
X163622989Y-123284075D01*
X163635486Y-123279166D01*
X163769334Y-123234814D01*
X163828139Y-123198543D01*
X164499499Y-123198543D01*
X164537947Y-123391829D01*
X164537950Y-123391839D01*
X164613364Y-123573907D01*
X164613371Y-123573920D01*
X164722860Y-123737781D01*
X164722863Y-123737785D01*
X164862214Y-123877136D01*
X164862218Y-123877139D01*
X165026079Y-123986628D01*
X165026092Y-123986635D01*
X165208160Y-124062049D01*
X165208165Y-124062051D01*
X165208169Y-124062051D01*
X165208170Y-124062052D01*
X165401456Y-124100500D01*
X165401459Y-124100500D01*
X165598543Y-124100500D01*
X165729255Y-124074499D01*
X165791835Y-124062051D01*
X165973914Y-123986632D01*
X166137782Y-123877139D01*
X166277139Y-123737782D01*
X166386632Y-123573914D01*
X166389549Y-123566873D01*
X166406446Y-123526079D01*
X166462051Y-123391835D01*
X166484463Y-123279163D01*
X166500500Y-123198543D01*
X166500500Y-123001456D01*
X166462052Y-122808170D01*
X166462051Y-122808169D01*
X166462051Y-122808165D01*
X166462049Y-122808160D01*
X166386635Y-122626092D01*
X166386628Y-122626079D01*
X166277139Y-122462218D01*
X166277136Y-122462214D01*
X166137785Y-122322863D01*
X166137781Y-122322860D01*
X165973920Y-122213371D01*
X165973907Y-122213364D01*
X165791839Y-122137950D01*
X165791829Y-122137947D01*
X165598543Y-122099500D01*
X165598541Y-122099500D01*
X165401459Y-122099500D01*
X165401457Y-122099500D01*
X165208170Y-122137947D01*
X165208160Y-122137950D01*
X165026092Y-122213364D01*
X165026079Y-122213371D01*
X164862218Y-122322860D01*
X164862214Y-122322863D01*
X164722863Y-122462214D01*
X164722860Y-122462218D01*
X164613371Y-122626079D01*
X164613364Y-122626092D01*
X164537950Y-122808160D01*
X164537947Y-122808170D01*
X164499500Y-123001456D01*
X164499500Y-123001459D01*
X164499500Y-123198541D01*
X164499500Y-123198543D01*
X164499499Y-123198543D01*
X163828139Y-123198543D01*
X163918656Y-123142712D01*
X164042712Y-123018656D01*
X164134814Y-122869334D01*
X164189999Y-122702797D01*
X164200500Y-122600009D01*
X164200499Y-121399992D01*
X164189999Y-121297203D01*
X164134814Y-121130666D01*
X164042712Y-120981344D01*
X163918656Y-120857288D01*
X163769334Y-120765186D01*
X163687427Y-120738044D01*
X163629984Y-120698272D01*
X163603161Y-120633756D01*
X163615476Y-120564980D01*
X163653547Y-120520021D01*
X163747219Y-120451966D01*
X163891966Y-120307219D01*
X163891968Y-120307215D01*
X163891971Y-120307213D01*
X163967415Y-120203371D01*
X164012287Y-120141610D01*
X164105220Y-119959219D01*
X164168477Y-119764534D01*
X164200500Y-119562352D01*
X164200500Y-119357648D01*
X164168477Y-119155466D01*
X164105220Y-118960781D01*
X164105218Y-118960778D01*
X164105218Y-118960776D01*
X164016488Y-118786635D01*
X164012287Y-118778390D01*
X163981650Y-118736221D01*
X163958171Y-118670414D01*
X163973997Y-118602361D01*
X163994284Y-118575660D01*
X166587278Y-115982668D01*
X166597166Y-115977268D01*
X166604238Y-115968493D01*
X166627286Y-115960821D01*
X166648601Y-115949183D01*
X166659839Y-115949986D01*
X166670532Y-115946428D01*
X166694065Y-115952434D01*
G37*
%TD.AperFunction*%
%TA.AperFunction,Conductor*%
G36*
X174280002Y-80062389D02*
G01*
X174331567Y-80109536D01*
X174349500Y-80173769D01*
X174349500Y-80179191D01*
X174329815Y-80246230D01*
X174313181Y-80266872D01*
X166394727Y-88185325D01*
X166394724Y-88185328D01*
X166359676Y-88237781D01*
X166359677Y-88237782D01*
X166323534Y-88291874D01*
X166274499Y-88410255D01*
X166274497Y-88410261D01*
X166249500Y-88535928D01*
X166249500Y-90129192D01*
X166229815Y-90196231D01*
X166213181Y-90216873D01*
X165090564Y-91339489D01*
X165029241Y-91372974D01*
X164959549Y-91367990D01*
X164903616Y-91326118D01*
X164879199Y-91260654D01*
X164884952Y-91213489D01*
X164900447Y-91165802D01*
X164900447Y-91165801D01*
X164930500Y-90976055D01*
X164930500Y-90783945D01*
X164900447Y-90594199D01*
X164868893Y-90497084D01*
X164841083Y-90411493D01*
X164802720Y-90336202D01*
X164753865Y-90240319D01*
X164640945Y-90084898D01*
X164505102Y-89949055D01*
X164349681Y-89836135D01*
X164288907Y-89805169D01*
X164178506Y-89748916D01*
X163995802Y-89689553D01*
X163900928Y-89674526D01*
X163806055Y-89659500D01*
X163613945Y-89659500D01*
X163550696Y-89669517D01*
X163424197Y-89689553D01*
X163241493Y-89748916D01*
X163070318Y-89836135D01*
X162981645Y-89900560D01*
X162914898Y-89949055D01*
X162914896Y-89949057D01*
X162914895Y-89949057D01*
X162779057Y-90084895D01*
X162779057Y-90084896D01*
X162779055Y-90084898D01*
X162746874Y-90129192D01*
X162666135Y-90240318D01*
X162578916Y-90411493D01*
X162519553Y-90594197D01*
X162489500Y-90783945D01*
X162489500Y-90976054D01*
X162519553Y-91165802D01*
X162571988Y-91327182D01*
X162573983Y-91397023D01*
X162537902Y-91456856D01*
X162475201Y-91487684D01*
X162454057Y-91489500D01*
X162305929Y-91489500D01*
X162180261Y-91514497D01*
X162180255Y-91514499D01*
X162061874Y-91563534D01*
X161955326Y-91634726D01*
X161955325Y-91634727D01*
X157697953Y-95892100D01*
X157636630Y-95925585D01*
X157566938Y-95920601D01*
X157511005Y-95878729D01*
X157487799Y-95823816D01*
X157479959Y-95774315D01*
X157420616Y-95591678D01*
X157333434Y-95420577D01*
X157312201Y-95391352D01*
X157312200Y-95391351D01*
X156690000Y-96013553D01*
X156690000Y-96007339D01*
X156662741Y-95905606D01*
X156610080Y-95814394D01*
X156535606Y-95739920D01*
X156444394Y-95687259D01*
X156342661Y-95660000D01*
X156336447Y-95660000D01*
X156958646Y-95037798D01*
X156929415Y-95016561D01*
X156758321Y-94929383D01*
X156693107Y-94908194D01*
X156635432Y-94868756D01*
X156608234Y-94804397D01*
X156620149Y-94735551D01*
X156667394Y-94684075D01*
X156693109Y-94672332D01*
X156758504Y-94651084D01*
X156758506Y-94651082D01*
X156758509Y-94651082D01*
X156929681Y-94563865D01*
X157085102Y-94450945D01*
X157220945Y-94315102D01*
X157333865Y-94159681D01*
X157421082Y-93988509D01*
X157480447Y-93805801D01*
X157510500Y-93616055D01*
X157510500Y-93423945D01*
X157480447Y-93234199D01*
X157421082Y-93051491D01*
X157333865Y-92880319D01*
X157220945Y-92724898D01*
X157085102Y-92589055D01*
X156929681Y-92476135D01*
X156902095Y-92462079D01*
X156758504Y-92388915D01*
X156693919Y-92367931D01*
X156636243Y-92328494D01*
X156609044Y-92264136D01*
X156620958Y-92195289D01*
X156668202Y-92143813D01*
X156693919Y-92132069D01*
X156758504Y-92111084D01*
X156758506Y-92111082D01*
X156758509Y-92111082D01*
X156929681Y-92023865D01*
X157085102Y-91910945D01*
X157220945Y-91775102D01*
X157333865Y-91619681D01*
X157421082Y-91448509D01*
X157480447Y-91265801D01*
X157510500Y-91076055D01*
X157510500Y-90883945D01*
X157480447Y-90694199D01*
X157435979Y-90557340D01*
X157421083Y-90511493D01*
X157413741Y-90497084D01*
X157333865Y-90340319D01*
X157220945Y-90184898D01*
X157085102Y-90049055D01*
X156929681Y-89936135D01*
X156758506Y-89848916D01*
X156575802Y-89789553D01*
X156480928Y-89774526D01*
X156386055Y-89759500D01*
X156193945Y-89759500D01*
X156130696Y-89769517D01*
X156004197Y-89789553D01*
X155821493Y-89848916D01*
X155650318Y-89936135D01*
X155632533Y-89949057D01*
X155494898Y-90049055D01*
X155494896Y-90049057D01*
X155494895Y-90049057D01*
X155359057Y-90184895D01*
X155359057Y-90184896D01*
X155359055Y-90184898D01*
X155335824Y-90216873D01*
X155246135Y-90340318D01*
X155158916Y-90511493D01*
X155099553Y-90694197D01*
X155069500Y-90883945D01*
X155069500Y-91076054D01*
X155099553Y-91265802D01*
X155158916Y-91448506D01*
X155217527Y-91563535D01*
X155246135Y-91619681D01*
X155359055Y-91775102D01*
X155494898Y-91910945D01*
X155650319Y-92023865D01*
X155821491Y-92111082D01*
X155821493Y-92111083D01*
X155886081Y-92132069D01*
X155943756Y-92171506D01*
X155970955Y-92235865D01*
X155959041Y-92304711D01*
X155911797Y-92356187D01*
X155886081Y-92367931D01*
X155821493Y-92388916D01*
X155650318Y-92476135D01*
X155575997Y-92530133D01*
X155494898Y-92589055D01*
X155494896Y-92589057D01*
X155494895Y-92589057D01*
X155359057Y-92724895D01*
X155359057Y-92724896D01*
X155359055Y-92724898D01*
X155319949Y-92778723D01*
X155246135Y-92880318D01*
X155158916Y-93051493D01*
X155099553Y-93234197D01*
X155069500Y-93423945D01*
X155069500Y-93616054D01*
X155099553Y-93805802D01*
X155158916Y-93988506D01*
X155214488Y-94097570D01*
X155246135Y-94159681D01*
X155359055Y-94315102D01*
X155494898Y-94450945D01*
X155650319Y-94563865D01*
X155774228Y-94627000D01*
X155821495Y-94651084D01*
X155886890Y-94672332D01*
X155944566Y-94711769D01*
X155971765Y-94776127D01*
X155959851Y-94844974D01*
X155912607Y-94896450D01*
X155886893Y-94908194D01*
X155821677Y-94929384D01*
X155650578Y-95016564D01*
X155621352Y-95037798D01*
X155621351Y-95037798D01*
X156243554Y-95660000D01*
X156237339Y-95660000D01*
X156135606Y-95687259D01*
X156044394Y-95739920D01*
X155969920Y-95814394D01*
X155917259Y-95905606D01*
X155890000Y-96007339D01*
X155890000Y-96013553D01*
X155267798Y-95391351D01*
X155267798Y-95391352D01*
X155246564Y-95420578D01*
X155159383Y-95591678D01*
X155100040Y-95774315D01*
X155070000Y-95963984D01*
X155070000Y-96156015D01*
X155100040Y-96345684D01*
X155159383Y-96528321D01*
X155246561Y-96699415D01*
X155267798Y-96728646D01*
X155890000Y-96106445D01*
X155890000Y-96112661D01*
X155917259Y-96214394D01*
X155969920Y-96305606D01*
X156044394Y-96380080D01*
X156135606Y-96432741D01*
X156237339Y-96460000D01*
X156243553Y-96460000D01*
X155621351Y-97082200D01*
X155621352Y-97082201D01*
X155650577Y-97103434D01*
X155821678Y-97190616D01*
X156004315Y-97249959D01*
X156053816Y-97257799D01*
X156116951Y-97287728D01*
X156153883Y-97347039D01*
X156152885Y-97416901D01*
X156122100Y-97467953D01*
X153094727Y-100495325D01*
X153094726Y-100495326D01*
X153023534Y-100601874D01*
X152974499Y-100720255D01*
X152974497Y-100720261D01*
X152949500Y-100845928D01*
X152949500Y-100984216D01*
X152929815Y-101051255D01*
X152913181Y-101071897D01*
X152822863Y-101162214D01*
X152822860Y-101162218D01*
X152713371Y-101326079D01*
X152713366Y-101326089D01*
X152675748Y-101416908D01*
X152631907Y-101471311D01*
X152565613Y-101493376D01*
X152536996Y-101491072D01*
X152428545Y-101469500D01*
X152428541Y-101469500D01*
X152231459Y-101469500D01*
X152231457Y-101469500D01*
X152038170Y-101507947D01*
X152038160Y-101507950D01*
X151856092Y-101583364D01*
X151856079Y-101583371D01*
X151692218Y-101692860D01*
X151692214Y-101692863D01*
X151552863Y-101832214D01*
X151552860Y-101832218D01*
X151443371Y-101996079D01*
X151443364Y-101996092D01*
X151367950Y-102178160D01*
X151367947Y-102178170D01*
X151329500Y-102371456D01*
X151329500Y-102371459D01*
X151329500Y-102568541D01*
X151329500Y-102568543D01*
X151329499Y-102568543D01*
X151369137Y-102767809D01*
X151367315Y-102768171D01*
X151367871Y-102829353D01*
X151330632Y-102888472D01*
X151267343Y-102918073D01*
X151248582Y-102919500D01*
X149802372Y-102919500D01*
X149735333Y-102899815D01*
X149689578Y-102847011D01*
X149686190Y-102838833D01*
X149643797Y-102725171D01*
X149643793Y-102725164D01*
X149557547Y-102609955D01*
X149557544Y-102609952D01*
X149442335Y-102523706D01*
X149442328Y-102523702D01*
X149307482Y-102473408D01*
X149307483Y-102473408D01*
X149247883Y-102467001D01*
X149247881Y-102467000D01*
X149247873Y-102467000D01*
X149247865Y-102467000D01*
X147334794Y-102467000D01*
X147267755Y-102447315D01*
X147222000Y-102394511D01*
X147210802Y-102344388D01*
X147191426Y-100613368D01*
X147155415Y-97396324D01*
X147174348Y-97329072D01*
X147226636Y-97282729D01*
X147295679Y-97272012D01*
X147352292Y-97294621D01*
X147390962Y-97322717D01*
X147438697Y-97347039D01*
X147594744Y-97426549D01*
X147812251Y-97497221D01*
X147812252Y-97497221D01*
X147812255Y-97497222D01*
X148038146Y-97533000D01*
X148038147Y-97533000D01*
X148361853Y-97533000D01*
X148361854Y-97533000D01*
X148587745Y-97497222D01*
X148587748Y-97497221D01*
X148587749Y-97497221D01*
X148805255Y-97426549D01*
X148805255Y-97426548D01*
X148805258Y-97426548D01*
X149009038Y-97322717D01*
X149194066Y-97188286D01*
X149355786Y-97026566D01*
X149490217Y-96841538D01*
X149594048Y-96637758D01*
X149664722Y-96420245D01*
X149700500Y-96194354D01*
X149700500Y-95965646D01*
X149664722Y-95739755D01*
X149664721Y-95739751D01*
X149664721Y-95739750D01*
X149594049Y-95522244D01*
X149578475Y-95491678D01*
X149490217Y-95318462D01*
X149355786Y-95133434D01*
X149194066Y-94971714D01*
X149109134Y-94910007D01*
X149066470Y-94854678D01*
X149060491Y-94785064D01*
X149093097Y-94723269D01*
X149109137Y-94709371D01*
X149193739Y-94647905D01*
X149355402Y-94486242D01*
X149489788Y-94301276D01*
X149593582Y-94097570D01*
X149664234Y-93880128D01*
X149678509Y-93790000D01*
X148690748Y-93790000D01*
X148712518Y-93752292D01*
X148750000Y-93612409D01*
X148750000Y-93467591D01*
X148712518Y-93327708D01*
X148690748Y-93290000D01*
X149678509Y-93290000D01*
X149664234Y-93199871D01*
X149593582Y-92982429D01*
X149489788Y-92778723D01*
X149356988Y-92595940D01*
X149333508Y-92530133D01*
X149349333Y-92462079D01*
X149399439Y-92413384D01*
X149413966Y-92406875D01*
X149442331Y-92396296D01*
X149557546Y-92310046D01*
X149643796Y-92194831D01*
X149694091Y-92059983D01*
X149700500Y-92000373D01*
X149700499Y-89999628D01*
X149694091Y-89940017D01*
X149660113Y-89848918D01*
X149643797Y-89805171D01*
X149643793Y-89805164D01*
X149557547Y-89689955D01*
X149557544Y-89689952D01*
X149479150Y-89631266D01*
X149437279Y-89575332D01*
X149432295Y-89505641D01*
X149465781Y-89444318D01*
X149527104Y-89410834D01*
X149553461Y-89408000D01*
X154940000Y-89408000D01*
X154940000Y-87698543D01*
X159199499Y-87698543D01*
X159237947Y-87891829D01*
X159237950Y-87891839D01*
X159313364Y-88073907D01*
X159313371Y-88073920D01*
X159422860Y-88237781D01*
X159422863Y-88237785D01*
X159562214Y-88377136D01*
X159562218Y-88377139D01*
X159726079Y-88486628D01*
X159726092Y-88486635D01*
X159845105Y-88535931D01*
X159908165Y-88562051D01*
X159908169Y-88562051D01*
X159908170Y-88562052D01*
X160101456Y-88600500D01*
X160101459Y-88600500D01*
X160298543Y-88600500D01*
X160428582Y-88574632D01*
X160491835Y-88562051D01*
X160673914Y-88486632D01*
X160837782Y-88377139D01*
X160977139Y-88237782D01*
X161086632Y-88073914D01*
X161162051Y-87891835D01*
X161200500Y-87698541D01*
X161200500Y-87501459D01*
X161200500Y-87501456D01*
X161162052Y-87308170D01*
X161162051Y-87308169D01*
X161162051Y-87308165D01*
X161162049Y-87308160D01*
X161086635Y-87126092D01*
X161086628Y-87126079D01*
X160977139Y-86962218D01*
X160977136Y-86962214D01*
X160837785Y-86822863D01*
X160837781Y-86822860D01*
X160673920Y-86713371D01*
X160673907Y-86713364D01*
X160491839Y-86637950D01*
X160491829Y-86637947D01*
X160298543Y-86599500D01*
X160298541Y-86599500D01*
X160101459Y-86599500D01*
X160101457Y-86599500D01*
X159908170Y-86637947D01*
X159908160Y-86637950D01*
X159726092Y-86713364D01*
X159726079Y-86713371D01*
X159562218Y-86822860D01*
X159562214Y-86822863D01*
X159422863Y-86962214D01*
X159422860Y-86962218D01*
X159313371Y-87126079D01*
X159313364Y-87126092D01*
X159237950Y-87308160D01*
X159237947Y-87308170D01*
X159199500Y-87501456D01*
X159199500Y-87501459D01*
X159199500Y-87698541D01*
X159199500Y-87698543D01*
X159199499Y-87698543D01*
X154940000Y-87698543D01*
X154940000Y-85274000D01*
X154959685Y-85206961D01*
X155012489Y-85161206D01*
X155064000Y-85150000D01*
X162850000Y-85150000D01*
X162850000Y-85149999D01*
X162821818Y-84487724D01*
X162663995Y-80778902D01*
X162680812Y-80711089D01*
X162731623Y-80663131D01*
X162754481Y-80654216D01*
X162771227Y-80649531D01*
X162850000Y-80650000D01*
X162832416Y-80632416D01*
X162918502Y-80608338D01*
X162933550Y-80608531D01*
X162947844Y-80603821D01*
X162952314Y-80603756D01*
X166533342Y-80616763D01*
X166600307Y-80636691D01*
X166645870Y-80689661D01*
X166655562Y-80758855D01*
X166626306Y-80822305D01*
X166605775Y-80841080D01*
X166541403Y-80887849D01*
X166541402Y-80887850D01*
X167175974Y-81522421D01*
X167144742Y-81535359D01*
X167021903Y-81617437D01*
X166917437Y-81721903D01*
X166835359Y-81844742D01*
X166822421Y-81875974D01*
X166187850Y-81241402D01*
X166187849Y-81241403D01*
X166110177Y-81348310D01*
X165994052Y-81576215D01*
X165994051Y-81576218D01*
X165915013Y-81819476D01*
X165875000Y-82072110D01*
X165875000Y-82327889D01*
X165915013Y-82580523D01*
X165994051Y-82823781D01*
X165994052Y-82823784D01*
X166110175Y-83051686D01*
X166187850Y-83158595D01*
X166187850Y-83158596D01*
X166822421Y-82524024D01*
X166835359Y-82555258D01*
X166917437Y-82678097D01*
X167021903Y-82782563D01*
X167144742Y-82864641D01*
X167175974Y-82877577D01*
X166541402Y-83512148D01*
X166648313Y-83589824D01*
X166876215Y-83705947D01*
X166876218Y-83705948D01*
X167119476Y-83784986D01*
X167372111Y-83825000D01*
X167627889Y-83825000D01*
X167880523Y-83784986D01*
X168123781Y-83705948D01*
X168123784Y-83705947D01*
X168351685Y-83589825D01*
X168458595Y-83512148D01*
X168458596Y-83512148D01*
X167824025Y-82877578D01*
X167855258Y-82864641D01*
X167978097Y-82782563D01*
X168082563Y-82678097D01*
X168164641Y-82555258D01*
X168177577Y-82524025D01*
X168812148Y-83158596D01*
X168812148Y-83158595D01*
X168889825Y-83051685D01*
X169005947Y-82823784D01*
X169005948Y-82823781D01*
X169084986Y-82580523D01*
X169125000Y-82327889D01*
X169125000Y-82072110D01*
X169084986Y-81819476D01*
X169005948Y-81576218D01*
X169005947Y-81576215D01*
X168889824Y-81348313D01*
X168812148Y-81241403D01*
X168812148Y-81241402D01*
X168177577Y-81875973D01*
X168164641Y-81844742D01*
X168082563Y-81721903D01*
X167978097Y-81617437D01*
X167855258Y-81535359D01*
X167824024Y-81522421D01*
X168458596Y-80887850D01*
X168403941Y-80848141D01*
X168361276Y-80792811D01*
X168355297Y-80723197D01*
X168387903Y-80661403D01*
X168448742Y-80627045D01*
X168477269Y-80623824D01*
X171150014Y-80633533D01*
X171150014Y-80633532D01*
X171149925Y-80424553D01*
X171169581Y-80357505D01*
X171222365Y-80311728D01*
X171273925Y-80300500D01*
X173608542Y-80300500D01*
X173639566Y-80294328D01*
X173705188Y-80281275D01*
X173801836Y-80262051D01*
X173855165Y-80239961D01*
X173983914Y-80186632D01*
X174147782Y-80077139D01*
X174147781Y-80077139D01*
X174152847Y-80073755D01*
X174153685Y-80075009D01*
X174211133Y-80050604D01*
X174280002Y-80062389D01*
G37*
%TD.AperFunction*%
%TA.AperFunction,Conductor*%
G36*
X177928808Y-72501862D02*
G01*
X177970681Y-72557794D01*
X177978500Y-72601131D01*
X177978500Y-85039360D01*
X177958815Y-85106399D01*
X177906011Y-85152154D01*
X177836853Y-85162098D01*
X177773297Y-85133073D01*
X177751398Y-85108251D01*
X177647139Y-84952218D01*
X177647136Y-84952214D01*
X177507785Y-84812863D01*
X177507781Y-84812860D01*
X177343920Y-84703371D01*
X177343907Y-84703364D01*
X177161839Y-84627950D01*
X177161829Y-84627947D01*
X176968543Y-84589500D01*
X176968541Y-84589500D01*
X176771459Y-84589500D01*
X176771454Y-84589500D01*
X176705073Y-84602704D01*
X176635481Y-84596477D01*
X176580304Y-84553613D01*
X176557060Y-84487724D01*
X176573128Y-84419727D01*
X176576073Y-84414958D01*
X176576628Y-84413919D01*
X176576632Y-84413914D01*
X176652051Y-84231835D01*
X176690500Y-84038541D01*
X176690500Y-83841459D01*
X176690500Y-83841456D01*
X176652052Y-83648170D01*
X176652051Y-83648169D01*
X176652051Y-83648165D01*
X176627886Y-83589824D01*
X176576635Y-83466092D01*
X176576628Y-83466079D01*
X176467139Y-83302218D01*
X176467136Y-83302214D01*
X176327785Y-83162863D01*
X176327781Y-83162860D01*
X176163920Y-83053371D01*
X176163907Y-83053364D01*
X175981839Y-82977950D01*
X175981829Y-82977947D01*
X175788543Y-82939500D01*
X175788541Y-82939500D01*
X175591459Y-82939500D01*
X175591457Y-82939500D01*
X175398170Y-82977947D01*
X175398160Y-82977950D01*
X175216092Y-83053364D01*
X175216079Y-83053371D01*
X175052218Y-83162860D01*
X175052214Y-83162863D01*
X174912863Y-83302214D01*
X174912860Y-83302218D01*
X174803371Y-83466079D01*
X174803364Y-83466092D01*
X174727950Y-83648160D01*
X174727947Y-83648170D01*
X174689500Y-83841456D01*
X174689500Y-83841459D01*
X174689500Y-84038541D01*
X174689500Y-84038543D01*
X174689499Y-84038543D01*
X174727947Y-84231829D01*
X174727950Y-84231839D01*
X174803364Y-84413907D01*
X174803371Y-84413920D01*
X174912860Y-84577781D01*
X174912863Y-84577785D01*
X175052214Y-84717136D01*
X175052218Y-84717139D01*
X175216079Y-84826628D01*
X175216092Y-84826635D01*
X175398160Y-84902049D01*
X175398165Y-84902051D01*
X175398169Y-84902051D01*
X175398170Y-84902052D01*
X175591456Y-84940500D01*
X175591459Y-84940500D01*
X175788542Y-84940500D01*
X175823621Y-84933522D01*
X175854925Y-84927295D01*
X175924516Y-84933522D01*
X175979694Y-84976384D01*
X176002939Y-85042274D01*
X175986872Y-85110271D01*
X175983932Y-85115029D01*
X175983364Y-85116092D01*
X175907950Y-85298160D01*
X175907947Y-85298170D01*
X175869500Y-85491456D01*
X175869500Y-85491459D01*
X175869500Y-85688541D01*
X175869500Y-85688543D01*
X175869499Y-85688543D01*
X175907947Y-85881829D01*
X175907950Y-85881839D01*
X175983364Y-86063907D01*
X175983371Y-86063920D01*
X176092860Y-86227781D01*
X176092863Y-86227785D01*
X176232214Y-86367136D01*
X176232218Y-86367139D01*
X176396079Y-86476628D01*
X176396092Y-86476635D01*
X176578160Y-86552049D01*
X176578165Y-86552051D01*
X176578169Y-86552051D01*
X176578170Y-86552052D01*
X176771456Y-86590500D01*
X176771459Y-86590500D01*
X176968543Y-86590500D01*
X177098582Y-86564632D01*
X177161835Y-86552051D01*
X177343914Y-86476632D01*
X177507782Y-86367139D01*
X177647139Y-86227782D01*
X177706427Y-86139050D01*
X177751398Y-86071748D01*
X177805010Y-86026943D01*
X177874335Y-86018236D01*
X177937363Y-86048390D01*
X177974082Y-86107833D01*
X177978500Y-86140639D01*
X177978500Y-94230192D01*
X177969855Y-94259632D01*
X177963332Y-94289619D01*
X177959577Y-94294634D01*
X177958815Y-94297231D01*
X177942181Y-94317873D01*
X177786873Y-94473181D01*
X177725550Y-94506666D01*
X177699192Y-94509500D01*
X172824783Y-94509500D01*
X172757744Y-94489815D01*
X172711989Y-94437011D01*
X172702045Y-94367853D01*
X172731070Y-94304297D01*
X172737102Y-94297819D01*
X173718101Y-93316818D01*
X173779424Y-93283333D01*
X173805782Y-93280499D01*
X175715548Y-93280499D01*
X175715549Y-93280499D01*
X175775160Y-93274091D01*
X175910008Y-93223796D01*
X176025223Y-93137546D01*
X176111473Y-93022331D01*
X176161768Y-92887483D01*
X176168177Y-92827873D01*
X176168176Y-90732128D01*
X176161768Y-90672517D01*
X176149544Y-90639744D01*
X176111474Y-90537671D01*
X176111470Y-90537664D01*
X176025224Y-90422455D01*
X176025221Y-90422452D01*
X175910012Y-90336206D01*
X175910005Y-90336202D01*
X175775159Y-90285908D01*
X175775160Y-90285908D01*
X175715560Y-90279501D01*
X175715558Y-90279500D01*
X175715550Y-90279500D01*
X175715541Y-90279500D01*
X173619806Y-90279500D01*
X173619800Y-90279501D01*
X173560193Y-90285908D01*
X173425348Y-90336202D01*
X173425341Y-90336206D01*
X173310132Y-90422452D01*
X173310129Y-90422455D01*
X173223883Y-90537664D01*
X173223879Y-90537671D01*
X173173585Y-90672517D01*
X173167178Y-90732116D01*
X173167178Y-90732123D01*
X173167177Y-90732135D01*
X173167177Y-90986539D01*
X173147492Y-91053578D01*
X173130858Y-91074220D01*
X161321899Y-102883181D01*
X161260576Y-102916666D01*
X161234218Y-102919500D01*
X154133285Y-102919500D01*
X154066246Y-102899815D01*
X154020491Y-102847011D01*
X154010547Y-102777853D01*
X154039572Y-102714297D01*
X154069242Y-102690605D01*
X154068849Y-102690017D01*
X154188669Y-102609955D01*
X154237782Y-102577139D01*
X154377139Y-102437782D01*
X154486632Y-102273914D01*
X154562051Y-102091835D01*
X154585509Y-101973907D01*
X154600500Y-101898543D01*
X154600500Y-101701456D01*
X154562052Y-101508170D01*
X154562051Y-101508169D01*
X154562051Y-101508165D01*
X154546036Y-101469500D01*
X154486635Y-101326092D01*
X154486628Y-101326079D01*
X154389852Y-101181243D01*
X154368974Y-101114565D01*
X154387459Y-101047185D01*
X154405269Y-101024675D01*
X162291818Y-93138127D01*
X162353139Y-93104644D01*
X162422831Y-93109628D01*
X162478764Y-93151500D01*
X162503181Y-93216964D01*
X162501971Y-93245206D01*
X162489500Y-93323945D01*
X162489500Y-93323950D01*
X162489500Y-93516054D01*
X162519553Y-93705802D01*
X162578916Y-93888506D01*
X162578918Y-93888509D01*
X162666135Y-94059681D01*
X162779055Y-94215102D01*
X162914898Y-94350945D01*
X163070319Y-94463865D01*
X163241491Y-94551082D01*
X163241495Y-94551084D01*
X163306890Y-94572332D01*
X163364566Y-94611769D01*
X163391765Y-94676127D01*
X163379851Y-94744974D01*
X163332607Y-94796450D01*
X163306893Y-94808194D01*
X163241677Y-94829384D01*
X163070578Y-94916564D01*
X163041352Y-94937798D01*
X163041351Y-94937798D01*
X163663554Y-95560000D01*
X163657339Y-95560000D01*
X163555606Y-95587259D01*
X163464394Y-95639920D01*
X163389920Y-95714394D01*
X163337259Y-95805606D01*
X163310000Y-95907339D01*
X163310000Y-95913553D01*
X162687798Y-95291351D01*
X162687798Y-95291352D01*
X162666564Y-95320578D01*
X162579383Y-95491678D01*
X162520040Y-95674315D01*
X162490000Y-95863984D01*
X162490000Y-96056015D01*
X162520040Y-96245684D01*
X162579383Y-96428321D01*
X162666561Y-96599415D01*
X162687798Y-96628646D01*
X163310000Y-96006445D01*
X163310000Y-96012661D01*
X163337259Y-96114394D01*
X163389920Y-96205606D01*
X163464394Y-96280080D01*
X163555606Y-96332741D01*
X163657339Y-96360000D01*
X163663554Y-96360000D01*
X163041351Y-96982200D01*
X163041352Y-96982201D01*
X163070577Y-97003434D01*
X163241678Y-97090616D01*
X163424315Y-97149959D01*
X163613985Y-97180000D01*
X163806015Y-97180000D01*
X163995684Y-97149959D01*
X164178321Y-97090616D01*
X164349419Y-97003436D01*
X164378646Y-96982201D01*
X164378646Y-96982200D01*
X163756447Y-96360000D01*
X163762661Y-96360000D01*
X163864394Y-96332741D01*
X163955606Y-96280080D01*
X164030080Y-96205606D01*
X164082741Y-96114394D01*
X164110000Y-96012661D01*
X164110000Y-96006446D01*
X164732200Y-96628646D01*
X164732201Y-96628646D01*
X164753436Y-96599419D01*
X164840616Y-96428321D01*
X164899959Y-96245684D01*
X164930000Y-96056015D01*
X164930000Y-95863984D01*
X164899959Y-95674315D01*
X164840616Y-95491678D01*
X164753434Y-95320577D01*
X164732201Y-95291352D01*
X164732200Y-95291351D01*
X164110000Y-95913552D01*
X164110000Y-95907339D01*
X164082741Y-95805606D01*
X164030080Y-95714394D01*
X163955606Y-95639920D01*
X163864394Y-95587259D01*
X163762661Y-95560000D01*
X163756447Y-95560000D01*
X164378646Y-94937798D01*
X164349415Y-94916561D01*
X164178321Y-94829383D01*
X164113107Y-94808194D01*
X164055432Y-94768756D01*
X164028234Y-94704397D01*
X164040149Y-94635551D01*
X164087394Y-94584075D01*
X164113109Y-94572332D01*
X164178504Y-94551084D01*
X164178506Y-94551082D01*
X164178509Y-94551082D01*
X164349681Y-94463865D01*
X164505102Y-94350945D01*
X164640945Y-94215102D01*
X164753865Y-94059681D01*
X164841082Y-93888509D01*
X164900447Y-93705801D01*
X164930500Y-93516055D01*
X164930500Y-93323945D01*
X164900447Y-93134199D01*
X164900446Y-93134195D01*
X164854803Y-92993717D01*
X164841514Y-92952818D01*
X164839519Y-92882977D01*
X164875599Y-92823144D01*
X164938300Y-92792316D01*
X164959445Y-92790500D01*
X165274071Y-92790500D01*
X165358615Y-92773682D01*
X165399744Y-92765501D01*
X165518127Y-92716465D01*
X165624669Y-92645277D01*
X166158864Y-92111082D01*
X166608000Y-91661947D01*
X168167677Y-91661947D01*
X168167677Y-91898052D01*
X168204611Y-92131247D01*
X168277574Y-92355802D01*
X168384764Y-92566174D01*
X168445015Y-92649104D01*
X168445017Y-92649105D01*
X169184714Y-91909408D01*
X169201752Y-91972993D01*
X169267578Y-92087007D01*
X169360670Y-92180099D01*
X169474684Y-92245925D01*
X169538267Y-92262962D01*
X168798570Y-93002658D01*
X168881505Y-93062914D01*
X169091874Y-93170102D01*
X169316429Y-93243065D01*
X169316428Y-93243065D01*
X169549625Y-93280000D01*
X169785729Y-93280000D01*
X170018924Y-93243065D01*
X170243479Y-93170102D01*
X170453840Y-93062918D01*
X170453846Y-93062914D01*
X170536781Y-93002658D01*
X170536782Y-93002658D01*
X169797085Y-92262962D01*
X169860670Y-92245925D01*
X169974684Y-92180099D01*
X170067776Y-92087007D01*
X170133602Y-91972993D01*
X170150639Y-91909409D01*
X170890335Y-92649105D01*
X170890335Y-92649104D01*
X170950591Y-92566169D01*
X170950595Y-92566163D01*
X171057779Y-92355802D01*
X171130742Y-92131247D01*
X171167677Y-91898052D01*
X171167677Y-91661947D01*
X171130742Y-91428752D01*
X171057779Y-91204197D01*
X170950591Y-90993828D01*
X170890335Y-90910894D01*
X170890335Y-90910893D01*
X170150639Y-91650590D01*
X170133602Y-91587007D01*
X170067776Y-91472993D01*
X169974684Y-91379901D01*
X169860670Y-91314075D01*
X169797086Y-91297037D01*
X170536782Y-90557340D01*
X170536781Y-90557338D01*
X170453851Y-90497087D01*
X170243479Y-90389897D01*
X170018924Y-90316934D01*
X170018925Y-90316934D01*
X169785729Y-90280000D01*
X169549625Y-90280000D01*
X169316429Y-90316934D01*
X169091874Y-90389897D01*
X168881507Y-90497084D01*
X168798571Y-90557340D01*
X169538268Y-91297037D01*
X169474684Y-91314075D01*
X169360670Y-91379901D01*
X169267578Y-91472993D01*
X169201752Y-91587007D01*
X169184714Y-91650590D01*
X168445017Y-90910894D01*
X168384761Y-90993830D01*
X168277574Y-91204197D01*
X168204611Y-91428752D01*
X168167677Y-91661947D01*
X166608000Y-91661947D01*
X166700553Y-91569394D01*
X167405272Y-90864674D01*
X167405273Y-90864673D01*
X167405277Y-90864669D01*
X167476465Y-90758127D01*
X167525501Y-90639744D01*
X167529959Y-90617334D01*
X167550500Y-90514069D01*
X167550500Y-88920808D01*
X167570185Y-88853769D01*
X167586819Y-88833127D01*
X175505273Y-80914673D01*
X175505277Y-80914669D01*
X175576465Y-80808127D01*
X175625501Y-80689744D01*
X175642910Y-80602227D01*
X175650500Y-80564071D01*
X175650500Y-72672243D01*
X175670185Y-72605204D01*
X175722989Y-72559449D01*
X175787756Y-72548954D01*
X175802127Y-72550500D01*
X177597872Y-72550499D01*
X177657483Y-72544091D01*
X177792331Y-72493796D01*
X177792339Y-72493789D01*
X177795070Y-72492300D01*
X177798125Y-72491635D01*
X177800641Y-72490697D01*
X177800775Y-72491058D01*
X177863343Y-72477447D01*
X177928808Y-72501862D01*
G37*
%TD.AperFunction*%
%TA.AperFunction,Conductor*%
G36*
X178722539Y-50520185D02*
G01*
X178768294Y-50572989D01*
X178779500Y-50624500D01*
X178779500Y-70680191D01*
X178759815Y-70747230D01*
X178707011Y-70792985D01*
X178637853Y-70802929D01*
X178574297Y-70773904D01*
X178567819Y-70767872D01*
X178494673Y-70694726D01*
X178494669Y-70694723D01*
X178388127Y-70623535D01*
X178269744Y-70574499D01*
X178269738Y-70574497D01*
X178150307Y-70550740D01*
X178088396Y-70518355D01*
X178053822Y-70457638D01*
X178050499Y-70429123D01*
X178050499Y-70302129D01*
X178050498Y-70302123D01*
X178044091Y-70242516D01*
X177993797Y-70107671D01*
X177993793Y-70107664D01*
X177907547Y-69992455D01*
X177907544Y-69992452D01*
X177792335Y-69906206D01*
X177792328Y-69906202D01*
X177660917Y-69857189D01*
X177604983Y-69815318D01*
X177580566Y-69749853D01*
X177595418Y-69681580D01*
X177616563Y-69653332D01*
X177730104Y-69539792D01*
X177749501Y-69513095D01*
X177855048Y-69367820D01*
X177855047Y-69367820D01*
X177855051Y-69367816D01*
X177951557Y-69178412D01*
X178017246Y-68976243D01*
X178050500Y-68766287D01*
X178050500Y-68553713D01*
X178017246Y-68343757D01*
X177951557Y-68141588D01*
X177855051Y-67952184D01*
X177855049Y-67952181D01*
X177855048Y-67952179D01*
X177730109Y-67780213D01*
X177579786Y-67629890D01*
X177407820Y-67504951D01*
X177407115Y-67504591D01*
X177399054Y-67500485D01*
X177348259Y-67452512D01*
X177331463Y-67384692D01*
X177353999Y-67318556D01*
X177399054Y-67279515D01*
X177407816Y-67275051D01*
X177429789Y-67259086D01*
X177579786Y-67150109D01*
X177579788Y-67150106D01*
X177579792Y-67150104D01*
X177730104Y-66999792D01*
X177730106Y-66999788D01*
X177730109Y-66999786D01*
X177855048Y-66827820D01*
X177855047Y-66827820D01*
X177855051Y-66827816D01*
X177951557Y-66638412D01*
X178017246Y-66436243D01*
X178050500Y-66226287D01*
X178050500Y-66013713D01*
X178017246Y-65803757D01*
X177951557Y-65601588D01*
X177855051Y-65412184D01*
X177855049Y-65412181D01*
X177855048Y-65412179D01*
X177730109Y-65240213D01*
X177579786Y-65089890D01*
X177407817Y-64964949D01*
X177398504Y-64960204D01*
X177347707Y-64912230D01*
X177330912Y-64844409D01*
X177353449Y-64778274D01*
X177398507Y-64739232D01*
X177407555Y-64734622D01*
X177461716Y-64695270D01*
X177461717Y-64695270D01*
X176829408Y-64062962D01*
X176892993Y-64045925D01*
X177007007Y-63980099D01*
X177100099Y-63887007D01*
X177165925Y-63772993D01*
X177182962Y-63709409D01*
X177815270Y-64341717D01*
X177815270Y-64341716D01*
X177854622Y-64287554D01*
X177951095Y-64098217D01*
X178016757Y-63896130D01*
X178016757Y-63896127D01*
X178050000Y-63686246D01*
X178050000Y-63473753D01*
X178016757Y-63263872D01*
X178016757Y-63263869D01*
X177951095Y-63061782D01*
X177854624Y-62872449D01*
X177815270Y-62818282D01*
X177815269Y-62818282D01*
X177182962Y-63450590D01*
X177165925Y-63387007D01*
X177100099Y-63272993D01*
X177007007Y-63179901D01*
X176892993Y-63114075D01*
X176829409Y-63097037D01*
X177461716Y-62464728D01*
X177407550Y-62425375D01*
X177218217Y-62328904D01*
X177016129Y-62263242D01*
X176806246Y-62230000D01*
X176593754Y-62230000D01*
X176383872Y-62263242D01*
X176383869Y-62263242D01*
X176181782Y-62328904D01*
X175992439Y-62425380D01*
X175938282Y-62464727D01*
X175938282Y-62464728D01*
X176570591Y-63097037D01*
X176507007Y-63114075D01*
X176392993Y-63179901D01*
X176299901Y-63272993D01*
X176234075Y-63387007D01*
X176217037Y-63450591D01*
X175584728Y-62818282D01*
X175584727Y-62818282D01*
X175545380Y-62872439D01*
X175448904Y-63061782D01*
X175383242Y-63263869D01*
X175383242Y-63263872D01*
X175350000Y-63473753D01*
X175350000Y-63686246D01*
X175383242Y-63896127D01*
X175383242Y-63896130D01*
X175448904Y-64098217D01*
X175545375Y-64287550D01*
X175584728Y-64341716D01*
X176217037Y-63709408D01*
X176234075Y-63772993D01*
X176299901Y-63887007D01*
X176392993Y-63980099D01*
X176507007Y-64045925D01*
X176570590Y-64062962D01*
X175938282Y-64695269D01*
X175938282Y-64695270D01*
X175992452Y-64734626D01*
X175992451Y-64734626D01*
X176001495Y-64739234D01*
X176052292Y-64787208D01*
X176069087Y-64855029D01*
X176046550Y-64921164D01*
X176001499Y-64960202D01*
X175992182Y-64964949D01*
X175820213Y-65089890D01*
X175669890Y-65240213D01*
X175544951Y-65412179D01*
X175448444Y-65601585D01*
X175382753Y-65803760D01*
X175349500Y-66013713D01*
X175349500Y-66226286D01*
X175382753Y-66436239D01*
X175448444Y-66638414D01*
X175544951Y-66827820D01*
X175669890Y-66999786D01*
X175820213Y-67150109D01*
X175992182Y-67275050D01*
X176000946Y-67279516D01*
X176051742Y-67327491D01*
X176068536Y-67395312D01*
X176045998Y-67461447D01*
X176000946Y-67500484D01*
X175992182Y-67504949D01*
X175820213Y-67629890D01*
X175669890Y-67780213D01*
X175544948Y-67952184D01*
X175544944Y-67952190D01*
X175544149Y-67953751D01*
X175543690Y-67954235D01*
X175542404Y-67956336D01*
X175541962Y-67956065D01*
X175496169Y-68004542D01*
X175457863Y-68019061D01*
X175380261Y-68034497D01*
X175380255Y-68034499D01*
X175261874Y-68083534D01*
X175155326Y-68154726D01*
X175155325Y-68154727D01*
X174494722Y-68815331D01*
X174494718Y-68815336D01*
X174451498Y-68880023D01*
X174451496Y-68880026D01*
X174423539Y-68921864D01*
X174423533Y-68921875D01*
X174374499Y-69040255D01*
X174374497Y-69040261D01*
X174349500Y-69165928D01*
X174349500Y-76126570D01*
X174329815Y-76193609D01*
X174277011Y-76239364D01*
X174213349Y-76249973D01*
X174208545Y-76249500D01*
X174208541Y-76249500D01*
X174011459Y-76249500D01*
X174011457Y-76249500D01*
X173818170Y-76287947D01*
X173818160Y-76287950D01*
X173636092Y-76363364D01*
X173636079Y-76363371D01*
X173472218Y-76472860D01*
X173472214Y-76472863D01*
X173332863Y-76612214D01*
X173332860Y-76612218D01*
X173223371Y-76776079D01*
X173223364Y-76776092D01*
X173147950Y-76958160D01*
X173147947Y-76958170D01*
X173109500Y-77151456D01*
X173109500Y-78175500D01*
X173089815Y-78242539D01*
X173037011Y-78288294D01*
X172985500Y-78299500D01*
X171272967Y-78299500D01*
X171205928Y-78279815D01*
X171160173Y-78227011D01*
X171148967Y-78175553D01*
X171148677Y-77494253D01*
X171147380Y-74451967D01*
X171156821Y-74404460D01*
X171162051Y-74391835D01*
X171200500Y-74198541D01*
X171200500Y-74001459D01*
X171200500Y-74001456D01*
X171162052Y-73808170D01*
X171162050Y-73808163D01*
X171156520Y-73794813D01*
X171147080Y-73747413D01*
X171139460Y-55854572D01*
X171138678Y-54018015D01*
X172153000Y-54018015D01*
X172153000Y-55518000D01*
X173377015Y-55518000D01*
X173353000Y-55669623D01*
X173353000Y-55866377D01*
X173377015Y-56018000D01*
X172153001Y-56018000D01*
X172153001Y-57517984D01*
X172163494Y-57620695D01*
X172218641Y-57787117D01*
X172218643Y-57787122D01*
X172310684Y-57936344D01*
X172434655Y-58060315D01*
X172583877Y-58152356D01*
X172583882Y-58152358D01*
X172750304Y-58207505D01*
X172750311Y-58207506D01*
X172853021Y-58217999D01*
X174352999Y-58217999D01*
X174353000Y-58217998D01*
X174353000Y-56993985D01*
X174504623Y-57018000D01*
X174701377Y-57018000D01*
X174853000Y-56993985D01*
X174853000Y-58217999D01*
X176352970Y-58217999D01*
X176352984Y-58217998D01*
X176455695Y-58207505D01*
X176622117Y-58152358D01*
X176622122Y-58152356D01*
X176771344Y-58060315D01*
X176895315Y-57936344D01*
X176987356Y-57787122D01*
X176987358Y-57787117D01*
X177042505Y-57620695D01*
X177042506Y-57620688D01*
X177052999Y-57517984D01*
X177053000Y-57517971D01*
X177053000Y-56018000D01*
X175828985Y-56018000D01*
X175853000Y-55866377D01*
X175853000Y-55669623D01*
X175828985Y-55518000D01*
X177052999Y-55518000D01*
X177052999Y-54018030D01*
X177052998Y-54018015D01*
X177042505Y-53915304D01*
X176987358Y-53748882D01*
X176987356Y-53748877D01*
X176895315Y-53599655D01*
X176771344Y-53475684D01*
X176622122Y-53383643D01*
X176622117Y-53383641D01*
X176455695Y-53328494D01*
X176455688Y-53328493D01*
X176352984Y-53318000D01*
X174853000Y-53318000D01*
X174853000Y-54542014D01*
X174701377Y-54518000D01*
X174504623Y-54518000D01*
X174353000Y-54542014D01*
X174353000Y-53318000D01*
X172853030Y-53318000D01*
X172853014Y-53318001D01*
X172750304Y-53328494D01*
X172583882Y-53383641D01*
X172583877Y-53383643D01*
X172434655Y-53475684D01*
X172310684Y-53599655D01*
X172218643Y-53748877D01*
X172218641Y-53748882D01*
X172163494Y-53915304D01*
X172163493Y-53915311D01*
X172153000Y-54018015D01*
X171138678Y-54018015D01*
X171138677Y-54014919D01*
X171137233Y-50624553D01*
X171156889Y-50557505D01*
X171209674Y-50511728D01*
X171261233Y-50500500D01*
X178655500Y-50500500D01*
X178722539Y-50520185D01*
G37*
%TD.AperFunction*%
%TD*%
M02*
