M48
; DRILL file {KiCad 9.0.1} date 2025-04-03T14:43:57-0700
; FORMAT={-:-/ absolute / inch / decimal}
; #@! TF.CreationDate,2025-04-03T14:43:57-07:00
; #@! TF.GenerationSoftware,Kicad,Pcbnew,9.0.1
; #@! TF.FileFunction,Plated,1,4,PTH
FMAT,2
INCH
; #@! TA.AperFunction,Plated,PTH,ViaDrill
T1C0.0236
; #@! TA.AperFunction,Plated,PTH,ComponentDrill
T2C0.0315
; #@! TA.AperFunction,Plated,PTH,ViaDrill
T3C0.0394
; #@! TA.AperFunction,Plated,PTH,ComponentDrill
T4C0.0394
; #@! TA.AperFunction,Plated,PTH,ComponentDrill
T5C0.0433
; #@! TA.AperFunction,Plated,PTH,ComponentDrill
T6C0.0591
; #@! TA.AperFunction,Plated,PTH,ComponentDrill
T7C0.0600
; #@! TA.AperFunction,Plated,PTH,ComponentDrill
T8C0.0866
; #@! TA.AperFunction,Plated,PTH,ComponentDrill
T9C0.0984
; #@! TA.AperFunction,Plated,PTH,ComponentDrill
T10C0.1000
%
G90
G05
T1
X4.822Y-4.6496
X5.3425Y-4.9843
X5.3484Y-4.6165
X5.4787Y-5.1299
X5.4843Y-5.2598
X5.5315Y-4.8071
X5.5512Y-5.0906
X5.5787Y-4.6969
X5.5849Y-2.9464
X5.61Y-4.37
X5.6102Y-4.5528
X5.6535Y-5.1339
X5.6732Y-5.311
X5.7362Y-5.3465
X5.7677Y-4.8819
X5.8504Y-5.2913
X5.91Y-5.319
X5.9488Y-5.1378
X5.9665Y-4.8366
X5.9972Y-4.0343
X6.0079Y-3.5945
X6.0079Y-3.6831
X6.0213Y-4.9496
X6.0472Y-4.0079
X6.0886Y-5.1476
X6.1091Y-5.3386
X6.1362Y-5.0717
X6.1772Y-5.122
X6.1929Y-4.1555
X6.2441Y-4.9488
X6.2559Y-4.8976
X6.2764Y-4.7768
X6.2795Y-5.0079
X6.2835Y-4.2362
X6.3071Y-3.4488
X6.3543Y-4.2756
X6.3661Y-3.122
X6.3681Y-3.5925
X6.4921Y-5.1654
X6.5039Y-4.1496
X6.5157Y-4.8465
X6.5157Y-4.9921
X6.5244Y-4.6906
X6.5591Y-4.4252
X6.561Y-4.9508
X6.561Y-5.0945
X6.6028Y-4.587
X6.6204Y-4.8417
X6.6205Y-4.902
X6.622Y-3.9902
X6.7008Y-2.9173
X6.7047Y-4.315
X6.7516Y-4.587
X6.7575Y-4.4531
X6.7756Y-4.9094
X6.776Y-3.9961
X6.7776Y-4.7276
X6.7815Y-4.2028
X6.7866Y-4.9724
X6.7874Y-4.6417
X6.8307Y-4.4409
X6.8543Y-4.5945
X6.8547Y-3.0413
X6.8858Y-4.0866
X6.8862Y-4.9031
X6.9169Y-3.3047
X6.9173Y-3.8858
X6.9425Y-4.7673
X6.9634Y-3.3697
X6.9646Y-4.4528
X6.9882Y-4.1378
X7.0039Y-4.9421
T2
X6.1134Y-4.5031
X6.1134Y-4.6031
X6.1134Y-4.7031
X6.1134Y-4.8031
X6.1531Y-3.5819
X6.1531Y-3.6819
X6.1531Y-3.7819
X6.4134Y-4.5031
X6.4134Y-4.6031
X6.4134Y-4.7031
X6.4134Y-4.8031
X6.4453Y-3.578
X6.4453Y-3.678
X6.4453Y-3.778
T3
X5.1181Y-2.6
X5.1181Y-3.1819
X5.4126Y-2.7874
T4
X4.0433Y-4.7264
X4.0433Y-4.8264
X5.7311Y-4.6256
X5.928Y-4.6256
X6.6798Y-3.6134
X6.8767Y-3.6134
X6.9567Y-2.5031
X6.9567Y-2.6031
X6.9567Y-2.7031
X6.9567Y-2.8031
T5
X5.8346Y-3.5827
X5.8346Y-3.6827
X5.8346Y-3.7827
X5.8346Y-4.0913
X5.8346Y-4.1913
X5.8346Y-4.2913
T6
X6.0827Y-2.6929
X6.0827Y-2.8425
X6.0827Y-3.0394
X6.0827Y-3.2362
X6.5945Y-2.6457
X6.5945Y-2.8425
X6.5945Y-3.0394
X6.5945Y-3.2362
T7
X4.2616Y-3.0701
X4.2616Y-3.2701
X4.2616Y-3.6701
X4.2616Y-3.8701
X5.4016Y-3.0701
X5.4016Y-3.2701
X5.4016Y-3.6701
X5.4016Y-3.8701
T8
X4.5276Y-5.2138
X4.5354Y-2.1956
X4.822Y-2.1956
X4.822Y-5.2138
X5.1181Y-5.2138
X5.1185Y-2.1956
T9
X4.1992Y-2.1956
X4.1992Y-5.2138
X6.8741Y-2.1956
X6.8763Y-5.2138
T10
X5.8402Y-2.2205
X6.0402Y-2.2205
X6.2Y-2.2205
X6.4Y-2.2205
M30
