%TF.GenerationSoftware,KiCad,Pcbnew,9.0.1*%
%TF.CreationDate,2025-04-03T14:44:02-07:00*%
%TF.ProjectId,Final_Board-v3C,46696e61-6c5f-4426-9f61-72642d763343,rev?*%
%TF.SameCoordinates,Original*%
%TF.FileFunction,Copper,L2,Inr*%
%TF.FilePolarity,Positive*%
%FSLAX46Y46*%
G04 Gerber Fmt 4.6, Leading zero omitted, Abs format (unit mm)*
G04 Created by KiCad (PCBNEW 9.0.1) date 2025-04-03 14:44:02*
%MOMM*%
%LPD*%
G01*
G04 APERTURE LIST*
G04 Aperture macros list*
%AMRoundRect*
0 Rectangle with rounded corners*
0 $1 Rounding radius*
0 $2 $3 $4 $5 $6 $7 $8 $9 X,Y pos of 4 corners*
0 Add a 4 corners polygon primitive as box body*
4,1,4,$2,$3,$4,$5,$6,$7,$8,$9,$2,$3,0*
0 Add four circle primitives for the rounded corners*
1,1,$1+$1,$2,$3*
1,1,$1+$1,$4,$5*
1,1,$1+$1,$6,$7*
1,1,$1+$1,$8,$9*
0 Add four rect primitives between the rounded corners*
20,1,$1+$1,$2,$3,$4,$5,0*
20,1,$1+$1,$4,$5,$6,$7,0*
20,1,$1+$1,$6,$7,$8,$9,0*
20,1,$1+$1,$8,$9,$2,$3,0*%
%AMFreePoly0*
4,1,5,2.250000,-4.000000,-2.250000,-4.000000,-2.250000,4.000000,2.250000,4.000000,2.250000,-4.000000,2.250000,-4.000000,$1*%
%AMFreePoly1*
4,1,5,1.500000,-2.250000,-1.500000,-2.250000,-1.500000,2.250000,1.500000,2.250000,1.500000,-2.250000,1.500000,-2.250000,$1*%
%AMFreePoly2*
4,1,5,4.000000,-2.250000,-4.000000,-2.250000,-4.000000,2.250000,4.000000,2.250000,4.000000,-2.250000,4.000000,-2.250000,$1*%
G04 Aperture macros list end*
%TA.AperFunction,ComponentPad*%
%ADD10R,1.700000X1.700000*%
%TD*%
%TA.AperFunction,ComponentPad*%
%ADD11C,1.700000*%
%TD*%
%TA.AperFunction,ComponentPad*%
%ADD12C,2.600000*%
%TD*%
%TA.AperFunction,ComponentPad*%
%ADD13FreePoly0,90.000000*%
%TD*%
%TA.AperFunction,ComponentPad*%
%ADD14FreePoly1,0.000000*%
%TD*%
%TA.AperFunction,ComponentPad*%
%ADD15FreePoly2,0.000000*%
%TD*%
%TA.AperFunction,ComponentPad*%
%ADD16R,2.000000X1.905000*%
%TD*%
%TA.AperFunction,ComponentPad*%
%ADD17O,2.000000X1.905000*%
%TD*%
%TA.AperFunction,ComponentPad*%
%ADD18RoundRect,0.250002X-1.699998X-1.699998X1.699998X-1.699998X1.699998X1.699998X-1.699998X1.699998X0*%
%TD*%
%TA.AperFunction,ComponentPad*%
%ADD19R,2.000000X2.000000*%
%TD*%
%TA.AperFunction,ComponentPad*%
%ADD20C,2.000000*%
%TD*%
%TA.AperFunction,ComponentPad*%
%ADD21C,1.440000*%
%TD*%
%TA.AperFunction,ComponentPad*%
%ADD22R,2.250000X2.250000*%
%TD*%
%TA.AperFunction,ComponentPad*%
%ADD23C,2.250000*%
%TD*%
%TA.AperFunction,ComponentPad*%
%ADD24R,2.286000X2.286000*%
%TD*%
%TA.AperFunction,ComponentPad*%
%ADD25C,2.286000*%
%TD*%
%TA.AperFunction,ComponentPad*%
%ADD26RoundRect,0.250000X0.550000X0.550000X-0.550000X0.550000X-0.550000X-0.550000X0.550000X-0.550000X0*%
%TD*%
%TA.AperFunction,ComponentPad*%
%ADD27C,1.600000*%
%TD*%
%TA.AperFunction,ViaPad*%
%ADD28C,1.000000*%
%TD*%
%TA.AperFunction,ViaPad*%
%ADD29C,2.000000*%
%TD*%
%TA.AperFunction,Conductor*%
%ADD30C,2.000000*%
%TD*%
%TA.AperFunction,Conductor*%
%ADD31C,1.000000*%
%TD*%
%TA.AperFunction,Conductor*%
%ADD32C,0.300000*%
%TD*%
%TA.AperFunction,Conductor*%
%ADD33C,0.254000*%
%TD*%
G04 APERTURE END LIST*
D10*
%TO.N,Net-(J5-Pin_1)*%
%TO.C,J5*%
X102700000Y-120050000D03*
D11*
%TO.N,GND*%
X102700000Y-122590000D03*
%TD*%
D12*
%TO.N,GND*%
%TO.C,E2*%
X122480000Y-55768000D03*
%TD*%
D13*
%TO.N,Net-(P1-L)*%
%TO.C,F1*%
X148340000Y-56400000D03*
D14*
X153420000Y-56400000D03*
%TO.N,Net-(F1-Pad2)*%
X157480000Y-56400000D03*
D15*
X162560000Y-56400000D03*
%TD*%
D16*
%TO.N,Net-(D2-+)*%
%TO.C,U2*%
X148200000Y-91000000D03*
D17*
%TO.N,GND*%
X148200000Y-93540000D03*
%TO.N,5v*%
X148200000Y-96080000D03*
%TD*%
D12*
%TO.N,Net-(J1-L)*%
%TO.C,E4*%
X115000000Y-132431000D03*
%TD*%
%TO.N,Net-(J1-N)*%
%TO.C,E3*%
X130010000Y-55768000D03*
%TD*%
D18*
%TO.N,GND*%
%TO.C,H3*%
X174659000Y-132431000D03*
%TD*%
D19*
%TO.N,Net-(D2-+)*%
%TO.C,C4*%
X150570000Y-117490000D03*
D20*
%TO.N,GND*%
X145570000Y-117490000D03*
%TD*%
D18*
%TO.N,GND*%
%TO.C,H1*%
X106659000Y-55768000D03*
%TD*%
D21*
%TO.N,Net-(R14-Pad2)*%
%TO.C,RV2*%
X163710000Y-90880000D03*
%TO.N,Net-(C12-Pad1)*%
X163710000Y-93420000D03*
%TO.N,GND*%
X163710000Y-95960000D03*
%TD*%
D12*
%TO.N,Net-(P1-L)*%
%TO.C,E1*%
X115200000Y-55768000D03*
%TD*%
D16*
%TO.N,Net-(D1-+)*%
%TO.C,U1*%
X148200000Y-103920000D03*
D17*
%TO.N,GND*%
X148200000Y-106460000D03*
%TO.N,VCC*%
X148200000Y-109000000D03*
%TD*%
D12*
%TO.N,Net-(J1-N)*%
%TO.C,E6*%
X130000000Y-132431000D03*
%TD*%
D21*
%TO.N,Net-(R1-Pad1)*%
%TO.C,RV1*%
X156290000Y-90980000D03*
%TO.N,Net-(C9-Pad1)*%
X156290000Y-93520000D03*
%TO.N,GND*%
X156290000Y-96060000D03*
%TD*%
D22*
%TO.N,N/C*%
%TO.C,T2*%
X154500000Y-68400000D03*
D23*
%TO.N,Net-(F1-Pad2)*%
X154500000Y-72200000D03*
%TO.N,Net-(J1-L)*%
X154500000Y-77200000D03*
%TO.N,N/C*%
X154500000Y-82200000D03*
%TO.N,GND*%
X167500000Y-82200000D03*
%TO.N,N/C*%
X167500000Y-77200000D03*
X167500000Y-72200000D03*
%TO.N,Net-(R14-Pad2)*%
X167500000Y-67200000D03*
%TD*%
D19*
%TO.N,Net-(D1-+)*%
%TO.C,C3*%
X174667677Y-91780000D03*
D20*
%TO.N,GND*%
X169667677Y-91780000D03*
%TD*%
D18*
%TO.N,GND*%
%TO.C,H2*%
X174603000Y-55768000D03*
%TD*%
D24*
%TO.N,GND*%
%TO.C,T1*%
X108244000Y-77980000D03*
D25*
%TO.N,Net-(R1-Pad2)*%
X108244000Y-83060000D03*
%TO.N,Net-(J1-N)*%
X108244000Y-93220000D03*
%TO.N,Net-(F1-Pad2)*%
X108244000Y-98300000D03*
%TO.N,Net-(D1-Pad2)*%
X137200000Y-77980000D03*
%TO.N,Net-(D2-Pad4)*%
X137200000Y-83060000D03*
X137200000Y-93220000D03*
%TO.N,Net-(D1-Pad4)*%
X137200000Y-98300000D03*
%TD*%
D12*
%TO.N,GND*%
%TO.C,E5*%
X122480000Y-132431000D03*
%TD*%
D18*
%TO.N,unconnected-(H4-Pin_1-Pad1)*%
%TO.C,H4*%
X106659000Y-132431000D03*
%TD*%
D10*
%TO.N,Net-(J7-Pin_1)*%
%TO.C,J7*%
X176700000Y-71200000D03*
D11*
%TO.N,SDA*%
X176700000Y-68660000D03*
%TO.N,5v*%
X176700000Y-66120000D03*
%TO.N,GND*%
X176700000Y-63580000D03*
%TD*%
D26*
%TO.N,Net-(C10-Pad1)*%
%TO.C,U4*%
X162900000Y-122000000D03*
D27*
%TO.N,Net-(U4A--)*%
X162900000Y-119460000D03*
%TO.N,Net-(U4A-+)*%
X162900000Y-116920000D03*
%TO.N,GND*%
X162900000Y-114380000D03*
%TO.N,Net-(U4B-+)*%
X155280000Y-114380000D03*
%TO.N,Net-(U4B--)*%
X155280000Y-116920000D03*
%TO.N,Net-(C11-Pad1)*%
X155280000Y-119460000D03*
%TO.N,VCC*%
X155280000Y-122000000D03*
%TD*%
D28*
%TO.N,GND*%
X172250000Y-106750000D03*
X152600000Y-91300000D03*
X168200000Y-101350000D03*
X172150000Y-120080000D03*
X164900000Y-131200000D03*
X135850000Y-117260000D03*
X159420000Y-121330000D03*
X161400000Y-108600000D03*
X176900000Y-113100000D03*
X154650000Y-130750000D03*
X165200000Y-105400000D03*
X122480000Y-118100000D03*
X152600000Y-93550000D03*
X155860000Y-128820000D03*
X141700000Y-119300000D03*
X151100000Y-130500000D03*
X171640000Y-113110000D03*
X165720000Y-119140000D03*
X177500000Y-105100000D03*
X139300000Y-133600000D03*
X161750000Y-91250000D03*
X152940000Y-125720000D03*
%TO.N,Net-(U4B--)*%
X168160000Y-124510000D03*
X140500000Y-122100000D03*
%TO.N,Net-(U4A-+)*%
X167710000Y-116510000D03*
X171490000Y-116510000D03*
%TO.N,Net-(D3-K)*%
X174100000Y-116700000D03*
X173500000Y-112800000D03*
X172110000Y-101500000D03*
X151550000Y-122850000D03*
%TO.N,VCC*%
X172100000Y-124700000D03*
%TO.N,Net-(U4B-+)*%
X146500000Y-124000000D03*
X148600000Y-134400000D03*
X145700000Y-135800000D03*
%TO.N,Net-(U4A--)*%
X172400000Y-117900000D03*
D29*
%TO.N,Net-(F1-Pad2)*%
X137480000Y-70800000D03*
D28*
%TO.N,5v*%
X141000000Y-129300000D03*
X166600000Y-112400000D03*
X152330000Y-102470000D03*
X156900000Y-130100000D03*
X158600000Y-125700000D03*
%TO.N,Net-(C10-Pad1)*%
X159500000Y-127200000D03*
X176340000Y-121090000D03*
%TO.N,Net-(C11-Pad1)*%
X172380000Y-126300000D03*
X150114984Y-135102417D03*
X166650000Y-129400000D03*
X166650000Y-125750000D03*
%TO.N,Net-(U3-PC5)*%
X174900000Y-103800000D03*
X175700000Y-98700000D03*
%TO.N,Net-(J7-Pin_1)*%
X159600000Y-107600000D03*
%TO.N,Net-(J5-Pin_1)*%
X157300000Y-105550000D03*
%TO.N,SDA*%
X153600000Y-101800000D03*
%TO.N,Net-(D2-+)*%
X176870000Y-85590000D03*
%TO.N,Net-(C9-Pad2)*%
X165500000Y-126800000D03*
X165500000Y-123100000D03*
%TO.N,Net-(C9-Pad1)*%
X158900000Y-124400000D03*
%TO.N,Net-(D4-K)*%
X144100000Y-134900000D03*
X177900000Y-125530000D03*
X143600000Y-130400000D03*
X155170000Y-135600000D03*
%TO.N,Net-(C12-Pad1)*%
X139160000Y-130300000D03*
X142494000Y-110998000D03*
%TO.N,Net-(D1-Pad4)*%
X170200000Y-74100000D03*
%TO.N,Net-(D2-Pad4)*%
X175690000Y-83940000D03*
%TO.N,Net-(R11-Pad1)*%
X142500000Y-115640000D03*
X170300000Y-109600000D03*
X168159000Y-122980000D03*
X174910000Y-124540000D03*
%TO.N,Net-(R14-Pad2)*%
X135700000Y-126600000D03*
X160200000Y-87600000D03*
%TO.N,Net-(D1-Pad2)*%
X174110000Y-77250000D03*
X161700000Y-79300000D03*
%TO.N,Net-(R1-Pad2)*%
X141857500Y-74837500D03*
D29*
%TO.N,Net-(J1-N)*%
X130000000Y-80820000D03*
X130000000Y-66040000D03*
%TD*%
D30*
%TO.N,GND*%
X120500000Y-77980000D02*
X122480000Y-76000000D01*
X108244000Y-77980000D02*
X120500000Y-77980000D01*
X108244000Y-68064000D02*
X108244000Y-77980000D01*
X122480000Y-132431000D02*
X122480000Y-55768000D01*
X106630000Y-66450000D02*
X108244000Y-68064000D01*
X106659000Y-55768000D02*
X106659000Y-66450000D01*
D31*
%TO.N,VCC*%
X153450000Y-115350000D02*
X153450000Y-121220000D01*
X153450000Y-121220000D02*
X154230000Y-122000000D01*
X148200000Y-110100000D02*
X153450000Y-115350000D01*
X148200000Y-109000000D02*
X148200000Y-110100000D01*
X154230000Y-122000000D02*
X155280000Y-122000000D01*
D32*
%TO.N,Net-(U4A--)*%
X162900000Y-119460000D02*
X164560000Y-117800000D01*
X164560000Y-117800000D02*
X172300000Y-117800000D01*
D31*
%TO.N,5v*%
X148200000Y-99100000D02*
X148200000Y-96080000D01*
X151570000Y-102470000D02*
X148200000Y-99100000D01*
X152330000Y-102470000D02*
X151570000Y-102470000D01*
D32*
%TO.N,Net-(C10-Pad1)*%
X175900000Y-122000000D02*
X162900000Y-122000000D01*
X176340000Y-121560000D02*
X175900000Y-122000000D01*
X176340000Y-121090000D02*
X176340000Y-121560000D01*
%TO.N,Net-(C11-Pad1)*%
X171830000Y-125750000D02*
X172380000Y-126300000D01*
X166650000Y-125750000D02*
X171830000Y-125750000D01*
D31*
%TO.N,Net-(D2-+)*%
X176870000Y-85590000D02*
X176870000Y-86130000D01*
X146400000Y-91000000D02*
X144526000Y-92874000D01*
X176870000Y-86130000D02*
X173640000Y-89360000D01*
X173640000Y-89360000D02*
X149840000Y-89360000D01*
X149840000Y-89360000D02*
X148200000Y-91000000D01*
X148200000Y-91000000D02*
X146400000Y-91000000D01*
X144526000Y-92874000D02*
X144526000Y-111358323D01*
X144526000Y-111358323D02*
X150567677Y-117400000D01*
D32*
%TO.N,Net-(C9-Pad2)*%
X165500000Y-126800000D02*
X165500000Y-123100000D01*
%TO.N,Net-(C9-Pad1)*%
X158900000Y-124400000D02*
X158300000Y-123800000D01*
X158300000Y-123800000D02*
X158300000Y-95440000D01*
X158300000Y-95440000D02*
X156300000Y-93440000D01*
D33*
%TO.N,Net-(D4-K)*%
X162900000Y-135630000D02*
X155200000Y-135630000D01*
X177900000Y-125530000D02*
X176010000Y-127420000D01*
X176010000Y-127420000D02*
X171110000Y-127420000D01*
X171110000Y-127420000D02*
X162900000Y-135630000D01*
D32*
%TO.N,Net-(C12-Pad1)*%
X139150000Y-129150000D02*
X139150000Y-114342000D01*
X139150000Y-114342000D02*
X142494000Y-110998000D01*
X139160000Y-129160000D02*
X139150000Y-129150000D01*
X139160000Y-130300000D02*
X139160000Y-129160000D01*
D31*
%TO.N,Net-(D2-Pad4)*%
X175690000Y-83940000D02*
X175690000Y-83950000D01*
X142960000Y-83060000D02*
X137200000Y-83060000D01*
X173490000Y-86150000D02*
X146050000Y-86150000D01*
X175690000Y-83950000D02*
X173490000Y-86150000D01*
X146050000Y-86150000D02*
X142960000Y-83060000D01*
D32*
%TO.N,Net-(R11-Pad1)*%
X174910000Y-124540000D02*
X173350000Y-122980000D01*
X173350000Y-122980000D02*
X168159000Y-122980000D01*
%TO.N,Net-(R14-Pad2)*%
X135700000Y-126600000D02*
X138430000Y-123870000D01*
X143002000Y-91440000D02*
X146842000Y-87600000D01*
X146842000Y-87600000D02*
X160200000Y-87600000D01*
X138430000Y-123870000D02*
X138430000Y-113538000D01*
X143002000Y-108966000D02*
X143002000Y-91440000D01*
X138430000Y-113538000D02*
X143002000Y-108966000D01*
D31*
%TO.N,Net-(D1-Pad2)*%
X137200000Y-77980000D02*
X139320000Y-80100000D01*
X139320000Y-80100000D02*
X160900000Y-80100000D01*
X160900000Y-80100000D02*
X161700000Y-79300000D01*
%TD*%
%TA.AperFunction,Conductor*%
%TO.N,GND*%
G36*
X178722539Y-50520185D02*
G01*
X178768294Y-50572989D01*
X178779500Y-50624500D01*
X178779500Y-124695216D01*
X178759815Y-124762255D01*
X178707011Y-124808010D01*
X178637853Y-124817954D01*
X178574297Y-124788929D01*
X178567819Y-124782897D01*
X178537785Y-124752863D01*
X178537781Y-124752860D01*
X178373920Y-124643371D01*
X178373907Y-124643364D01*
X178191839Y-124567950D01*
X178191829Y-124567947D01*
X177998543Y-124529500D01*
X177998541Y-124529500D01*
X177801459Y-124529500D01*
X177801457Y-124529500D01*
X177608170Y-124567947D01*
X177608160Y-124567950D01*
X177426092Y-124643364D01*
X177426079Y-124643371D01*
X177262218Y-124752860D01*
X177262214Y-124752863D01*
X177122863Y-124892214D01*
X177122860Y-124892218D01*
X177013371Y-125056079D01*
X177013364Y-125056092D01*
X176937950Y-125238160D01*
X176937947Y-125238170D01*
X176899500Y-125431456D01*
X176899500Y-125591718D01*
X176879815Y-125658757D01*
X176863181Y-125679399D01*
X175786400Y-126756181D01*
X175725077Y-126789666D01*
X175698719Y-126792500D01*
X173444512Y-126792500D01*
X173377473Y-126772815D01*
X173331718Y-126720011D01*
X173321774Y-126650853D01*
X173329951Y-126621048D01*
X173342049Y-126591839D01*
X173342051Y-126591835D01*
X173361899Y-126492052D01*
X173380500Y-126398543D01*
X173380500Y-126201456D01*
X173342052Y-126008170D01*
X173342051Y-126008169D01*
X173342051Y-126008165D01*
X173335287Y-125991835D01*
X173266635Y-125826092D01*
X173266628Y-125826079D01*
X173157139Y-125662218D01*
X173157136Y-125662214D01*
X173017785Y-125522863D01*
X173017781Y-125522860D01*
X172938156Y-125469656D01*
X172893351Y-125416044D01*
X172884644Y-125346719D01*
X172903944Y-125297665D01*
X172986632Y-125173914D01*
X173062051Y-124991835D01*
X173079597Y-124903626D01*
X173100500Y-124798543D01*
X173100500Y-124601456D01*
X173062052Y-124408170D01*
X173062051Y-124408169D01*
X173062051Y-124408165D01*
X173062049Y-124408160D01*
X172986635Y-124226092D01*
X172986628Y-124226079D01*
X172877139Y-124062218D01*
X172877136Y-124062214D01*
X172737785Y-123922863D01*
X172737781Y-123922860D01*
X172640116Y-123857602D01*
X172595311Y-123803990D01*
X172586604Y-123734665D01*
X172616759Y-123671637D01*
X172676202Y-123634918D01*
X172709007Y-123630500D01*
X173029192Y-123630500D01*
X173096231Y-123650185D01*
X173116873Y-123666819D01*
X173873181Y-124423126D01*
X173906666Y-124484449D01*
X173909500Y-124510807D01*
X173909500Y-124638541D01*
X173909500Y-124638543D01*
X173909499Y-124638543D01*
X173947947Y-124831829D01*
X173947950Y-124831839D01*
X174023364Y-125013907D01*
X174023371Y-125013920D01*
X174132860Y-125177781D01*
X174132863Y-125177785D01*
X174272214Y-125317136D01*
X174272218Y-125317139D01*
X174436079Y-125426628D01*
X174436092Y-125426635D01*
X174618160Y-125502049D01*
X174618165Y-125502051D01*
X174618169Y-125502051D01*
X174618170Y-125502052D01*
X174811456Y-125540500D01*
X174811459Y-125540500D01*
X175008543Y-125540500D01*
X175138582Y-125514632D01*
X175201835Y-125502051D01*
X175342655Y-125443721D01*
X175383907Y-125426635D01*
X175383907Y-125426634D01*
X175383914Y-125426632D01*
X175547782Y-125317139D01*
X175687139Y-125177782D01*
X175796632Y-125013914D01*
X175872051Y-124831835D01*
X175894208Y-124720446D01*
X175910500Y-124638543D01*
X175910500Y-124441456D01*
X175872052Y-124248170D01*
X175872051Y-124248169D01*
X175872051Y-124248165D01*
X175814062Y-124108165D01*
X175796635Y-124066092D01*
X175796628Y-124066079D01*
X175687139Y-123902218D01*
X175687136Y-123902214D01*
X175547785Y-123762863D01*
X175547781Y-123762860D01*
X175383920Y-123653371D01*
X175383907Y-123653364D01*
X175201839Y-123577950D01*
X175201829Y-123577947D01*
X175008543Y-123539500D01*
X175008541Y-123539500D01*
X174880807Y-123539500D01*
X174813768Y-123519815D01*
X174793126Y-123503181D01*
X174152127Y-122862181D01*
X174118642Y-122800858D01*
X174123626Y-122731166D01*
X174165498Y-122675233D01*
X174230962Y-122650816D01*
X174239808Y-122650500D01*
X175964071Y-122650500D01*
X176048615Y-122633682D01*
X176089744Y-122625501D01*
X176208127Y-122576465D01*
X176235515Y-122558165D01*
X176314669Y-122505277D01*
X176845277Y-121974669D01*
X176854500Y-121960864D01*
X176888704Y-121926658D01*
X176977782Y-121867139D01*
X177117139Y-121727782D01*
X177226632Y-121563914D01*
X177302051Y-121381835D01*
X177325390Y-121264505D01*
X177340500Y-121188543D01*
X177340500Y-120991456D01*
X177302052Y-120798170D01*
X177302051Y-120798169D01*
X177302051Y-120798165D01*
X177274447Y-120731523D01*
X177226635Y-120616092D01*
X177226628Y-120616079D01*
X177117139Y-120452218D01*
X177117136Y-120452214D01*
X176977785Y-120312863D01*
X176977781Y-120312860D01*
X176813920Y-120203371D01*
X176813907Y-120203364D01*
X176631839Y-120127950D01*
X176631829Y-120127947D01*
X176438543Y-120089500D01*
X176438541Y-120089500D01*
X176241459Y-120089500D01*
X176241457Y-120089500D01*
X176048170Y-120127947D01*
X176048160Y-120127950D01*
X175866092Y-120203364D01*
X175866079Y-120203371D01*
X175702218Y-120312860D01*
X175702214Y-120312863D01*
X175562863Y-120452214D01*
X175562860Y-120452218D01*
X175453371Y-120616079D01*
X175453364Y-120616092D01*
X175377950Y-120798160D01*
X175377947Y-120798170D01*
X175339500Y-120991456D01*
X175339500Y-121188545D01*
X175342039Y-121201309D01*
X175335812Y-121270900D01*
X175292949Y-121326078D01*
X175227059Y-121349322D01*
X175220422Y-121349500D01*
X164296870Y-121349500D01*
X164229831Y-121329815D01*
X164184076Y-121277011D01*
X164179164Y-121264505D01*
X164169458Y-121235214D01*
X164134814Y-121130666D01*
X164042712Y-120981344D01*
X163918656Y-120857288D01*
X163769334Y-120765186D01*
X163687427Y-120738044D01*
X163629984Y-120698272D01*
X163603161Y-120633756D01*
X163615476Y-120564980D01*
X163653547Y-120520021D01*
X163747219Y-120451966D01*
X163891966Y-120307219D01*
X163891968Y-120307215D01*
X163891971Y-120307213D01*
X163967415Y-120203371D01*
X164012287Y-120141610D01*
X164105220Y-119959219D01*
X164168477Y-119764534D01*
X164200500Y-119562352D01*
X164200500Y-119357648D01*
X164172345Y-119179886D01*
X164181300Y-119110593D01*
X164207134Y-119072810D01*
X164793127Y-118486819D01*
X164854450Y-118453334D01*
X164880808Y-118450500D01*
X171498261Y-118450500D01*
X171565300Y-118470185D01*
X171601363Y-118505609D01*
X171622860Y-118537781D01*
X171622863Y-118537785D01*
X171762214Y-118677136D01*
X171762218Y-118677139D01*
X171926079Y-118786628D01*
X171926092Y-118786635D01*
X172073149Y-118847547D01*
X172108165Y-118862051D01*
X172108169Y-118862051D01*
X172108170Y-118862052D01*
X172301456Y-118900500D01*
X172301459Y-118900500D01*
X172498543Y-118900500D01*
X172628582Y-118874632D01*
X172691835Y-118862051D01*
X172873914Y-118786632D01*
X173037782Y-118677139D01*
X173177139Y-118537782D01*
X173286632Y-118373914D01*
X173292767Y-118359104D01*
X173333217Y-118261446D01*
X173362051Y-118191835D01*
X173387121Y-118065802D01*
X173400500Y-117998543D01*
X173400500Y-117801456D01*
X173375043Y-117673478D01*
X173381270Y-117603886D01*
X173424133Y-117548709D01*
X173490023Y-117525464D01*
X173558020Y-117541532D01*
X173565551Y-117546184D01*
X173626080Y-117586628D01*
X173626086Y-117586632D01*
X173626088Y-117586633D01*
X173626092Y-117586635D01*
X173808160Y-117662049D01*
X173808165Y-117662051D01*
X173808169Y-117662051D01*
X173808170Y-117662052D01*
X174001456Y-117700500D01*
X174001459Y-117700500D01*
X174198543Y-117700500D01*
X174334388Y-117673478D01*
X174391835Y-117662051D01*
X174573914Y-117586632D01*
X174737782Y-117477139D01*
X174877139Y-117337782D01*
X174986632Y-117173914D01*
X174995758Y-117151883D01*
X175048697Y-117024075D01*
X175062051Y-116991835D01*
X175096634Y-116817977D01*
X175100500Y-116798543D01*
X175100500Y-116601456D01*
X175062052Y-116408170D01*
X175062051Y-116408169D01*
X175062051Y-116408165D01*
X175051427Y-116382516D01*
X174986635Y-116226092D01*
X174986628Y-116226079D01*
X174877139Y-116062218D01*
X174877136Y-116062214D01*
X174737785Y-115922863D01*
X174737781Y-115922860D01*
X174573920Y-115813371D01*
X174573907Y-115813364D01*
X174391839Y-115737950D01*
X174391829Y-115737947D01*
X174198543Y-115699500D01*
X174198541Y-115699500D01*
X174001459Y-115699500D01*
X174001457Y-115699500D01*
X173808170Y-115737947D01*
X173808160Y-115737950D01*
X173626092Y-115813364D01*
X173626079Y-115813371D01*
X173462218Y-115922860D01*
X173462214Y-115922863D01*
X173322863Y-116062214D01*
X173322860Y-116062218D01*
X173213371Y-116226079D01*
X173213364Y-116226092D01*
X173137950Y-116408160D01*
X173137947Y-116408170D01*
X173099500Y-116601456D01*
X173099500Y-116798545D01*
X173124956Y-116926522D01*
X173118729Y-116996114D01*
X173075866Y-117051291D01*
X173009976Y-117074535D01*
X172941979Y-117058467D01*
X172934448Y-117053815D01*
X172873920Y-117013371D01*
X172873907Y-117013364D01*
X172691839Y-116937950D01*
X172691829Y-116937947D01*
X172556749Y-116911078D01*
X172494838Y-116878693D01*
X172460264Y-116817977D01*
X172459324Y-116765271D01*
X172490500Y-116608541D01*
X172490500Y-116411459D01*
X172490500Y-116411456D01*
X172452052Y-116218170D01*
X172452051Y-116218169D01*
X172452051Y-116218165D01*
X172408869Y-116113914D01*
X172376635Y-116036092D01*
X172376628Y-116036079D01*
X172267139Y-115872218D01*
X172267136Y-115872214D01*
X172127785Y-115732863D01*
X172127781Y-115732860D01*
X171963920Y-115623371D01*
X171963907Y-115623364D01*
X171781839Y-115547950D01*
X171781829Y-115547947D01*
X171588543Y-115509500D01*
X171588541Y-115509500D01*
X171391459Y-115509500D01*
X171391457Y-115509500D01*
X171198170Y-115547947D01*
X171198160Y-115547950D01*
X171016092Y-115623364D01*
X171016079Y-115623371D01*
X170852218Y-115732860D01*
X170852214Y-115732863D01*
X170712863Y-115872214D01*
X170712860Y-115872218D01*
X170603371Y-116036079D01*
X170603364Y-116036092D01*
X170527950Y-116218160D01*
X170527947Y-116218170D01*
X170489500Y-116411456D01*
X170489500Y-116411459D01*
X170489500Y-116608541D01*
X170489500Y-116608543D01*
X170489499Y-116608543D01*
X170527947Y-116801829D01*
X170527950Y-116801839D01*
X170600938Y-116978048D01*
X170608407Y-117047517D01*
X170577132Y-117109996D01*
X170517043Y-117145648D01*
X170486377Y-117149500D01*
X168713623Y-117149500D01*
X168646584Y-117129815D01*
X168600829Y-117077011D01*
X168590885Y-117007853D01*
X168599062Y-116978048D01*
X168672049Y-116801839D01*
X168672051Y-116801835D01*
X168710500Y-116608541D01*
X168710500Y-116411459D01*
X168710500Y-116411456D01*
X168672052Y-116218170D01*
X168672051Y-116218169D01*
X168672051Y-116218165D01*
X168628869Y-116113914D01*
X168596635Y-116036092D01*
X168596628Y-116036079D01*
X168487139Y-115872218D01*
X168487136Y-115872214D01*
X168347785Y-115732863D01*
X168347781Y-115732860D01*
X168183920Y-115623371D01*
X168183907Y-115623364D01*
X168001839Y-115547950D01*
X168001829Y-115547947D01*
X167808543Y-115509500D01*
X167808541Y-115509500D01*
X167611459Y-115509500D01*
X167611457Y-115509500D01*
X167418170Y-115547947D01*
X167418160Y-115547950D01*
X167236092Y-115623364D01*
X167236079Y-115623371D01*
X167072218Y-115732860D01*
X167072214Y-115732863D01*
X166932863Y-115872214D01*
X166932860Y-115872218D01*
X166823371Y-116036079D01*
X166823364Y-116036092D01*
X166747950Y-116218160D01*
X166747947Y-116218170D01*
X166709500Y-116411456D01*
X166709500Y-116411459D01*
X166709500Y-116608541D01*
X166709500Y-116608543D01*
X166709499Y-116608543D01*
X166747947Y-116801829D01*
X166747950Y-116801839D01*
X166820938Y-116978048D01*
X166828407Y-117047517D01*
X166797132Y-117109996D01*
X166737043Y-117145648D01*
X166706377Y-117149500D01*
X164495929Y-117149500D01*
X164370261Y-117174497D01*
X164370249Y-117174501D01*
X164367340Y-117175706D01*
X164365696Y-117175882D01*
X164364429Y-117176267D01*
X164364356Y-117176026D01*
X164297869Y-117183166D01*
X164235394Y-117151883D01*
X164199749Y-117091790D01*
X164197428Y-117041744D01*
X164200500Y-117022352D01*
X164200500Y-116817648D01*
X164168477Y-116615466D01*
X164105220Y-116420781D01*
X164105218Y-116420778D01*
X164105218Y-116420776D01*
X164071503Y-116354607D01*
X164012287Y-116238390D01*
X164003343Y-116226079D01*
X163891971Y-116072786D01*
X163747213Y-115928028D01*
X163581611Y-115807713D01*
X163488369Y-115760203D01*
X163437574Y-115712229D01*
X163420779Y-115644407D01*
X163443317Y-115578273D01*
X163488371Y-115539234D01*
X163581346Y-115491861D01*
X163581347Y-115491861D01*
X163625921Y-115459474D01*
X162946447Y-114780000D01*
X162952661Y-114780000D01*
X163054394Y-114752741D01*
X163145606Y-114700080D01*
X163220080Y-114625606D01*
X163272741Y-114534394D01*
X163300000Y-114432661D01*
X163300000Y-114426447D01*
X163979474Y-115105921D01*
X164011859Y-115061349D01*
X164104755Y-114879031D01*
X164167990Y-114684417D01*
X164200000Y-114482317D01*
X164200000Y-114277682D01*
X164167990Y-114075582D01*
X164104755Y-113880968D01*
X164011859Y-113698650D01*
X163979474Y-113654077D01*
X163979474Y-113654076D01*
X163300000Y-114333551D01*
X163300000Y-114327339D01*
X163272741Y-114225606D01*
X163220080Y-114134394D01*
X163145606Y-114059920D01*
X163054394Y-114007259D01*
X162952661Y-113980000D01*
X162946446Y-113980000D01*
X163625922Y-113300524D01*
X163625921Y-113300523D01*
X163581359Y-113268147D01*
X163581350Y-113268141D01*
X163399031Y-113175244D01*
X163204417Y-113112009D01*
X163002317Y-113080000D01*
X162797683Y-113080000D01*
X162595582Y-113112009D01*
X162400968Y-113175244D01*
X162218644Y-113268143D01*
X162174077Y-113300523D01*
X162174077Y-113300524D01*
X162853554Y-113980000D01*
X162847339Y-113980000D01*
X162745606Y-114007259D01*
X162654394Y-114059920D01*
X162579920Y-114134394D01*
X162527259Y-114225606D01*
X162500000Y-114327339D01*
X162500000Y-114333553D01*
X161820524Y-113654077D01*
X161820523Y-113654077D01*
X161788143Y-113698644D01*
X161695244Y-113880968D01*
X161632009Y-114075582D01*
X161600000Y-114277682D01*
X161600000Y-114482317D01*
X161632009Y-114684417D01*
X161695244Y-114879031D01*
X161788141Y-115061350D01*
X161788147Y-115061359D01*
X161820523Y-115105921D01*
X161820524Y-115105922D01*
X162500000Y-114426446D01*
X162500000Y-114432661D01*
X162527259Y-114534394D01*
X162579920Y-114625606D01*
X162654394Y-114700080D01*
X162745606Y-114752741D01*
X162847339Y-114780000D01*
X162853553Y-114780000D01*
X162174076Y-115459474D01*
X162218652Y-115491861D01*
X162311628Y-115539234D01*
X162362425Y-115587208D01*
X162379220Y-115655029D01*
X162356683Y-115721164D01*
X162311630Y-115760203D01*
X162218388Y-115807713D01*
X162052786Y-115928028D01*
X161908028Y-116072786D01*
X161787715Y-116238386D01*
X161694781Y-116420776D01*
X161631522Y-116615465D01*
X161599500Y-116817648D01*
X161599500Y-117022351D01*
X161631522Y-117224534D01*
X161694781Y-117419223D01*
X161757102Y-117541532D01*
X161780081Y-117586632D01*
X161787715Y-117601613D01*
X161908028Y-117767213D01*
X162052786Y-117911971D01*
X162160186Y-117990000D01*
X162218390Y-118032287D01*
X162284167Y-118065802D01*
X162311080Y-118079515D01*
X162361876Y-118127490D01*
X162378671Y-118195311D01*
X162356134Y-118261446D01*
X162311080Y-118300485D01*
X162218386Y-118347715D01*
X162052786Y-118468028D01*
X161908028Y-118612786D01*
X161787715Y-118778386D01*
X161694781Y-118960776D01*
X161631522Y-119155465D01*
X161599500Y-119357648D01*
X161599500Y-119562351D01*
X161631522Y-119764534D01*
X161694781Y-119959223D01*
X161758691Y-120084653D01*
X161780752Y-120127949D01*
X161787715Y-120141613D01*
X161908028Y-120307213D01*
X161908034Y-120307219D01*
X162052781Y-120451966D01*
X162146452Y-120520021D01*
X162189117Y-120575350D01*
X162195096Y-120644963D01*
X162162491Y-120706759D01*
X162112571Y-120738045D01*
X162030666Y-120765186D01*
X162030663Y-120765187D01*
X161881342Y-120857289D01*
X161757289Y-120981342D01*
X161665187Y-121130663D01*
X161665185Y-121130668D01*
X161662772Y-121137950D01*
X161610001Y-121297203D01*
X161610001Y-121297204D01*
X161610000Y-121297204D01*
X161599500Y-121399983D01*
X161599500Y-122600001D01*
X161599501Y-122600018D01*
X161610000Y-122702796D01*
X161610001Y-122702799D01*
X161665185Y-122869331D01*
X161665187Y-122869336D01*
X161672665Y-122881459D01*
X161757288Y-123018656D01*
X161881344Y-123142712D01*
X162030666Y-123234814D01*
X162197203Y-123289999D01*
X162299991Y-123300500D01*
X163500008Y-123300499D01*
X163602797Y-123289999D01*
X163769334Y-123234814D01*
X163918656Y-123142712D01*
X164042712Y-123018656D01*
X164134814Y-122869334D01*
X164179164Y-122735494D01*
X164193033Y-122715463D01*
X164203156Y-122693297D01*
X164212568Y-122687248D01*
X164218936Y-122678051D01*
X164241435Y-122668696D01*
X164261934Y-122655523D01*
X164279034Y-122653064D01*
X164283451Y-122651228D01*
X164296869Y-122650500D01*
X164418582Y-122650500D01*
X164485621Y-122670185D01*
X164531376Y-122722989D01*
X164541320Y-122792147D01*
X164539089Y-122802181D01*
X164539137Y-122802191D01*
X164499500Y-123001456D01*
X164499500Y-123001459D01*
X164499500Y-123198541D01*
X164499500Y-123198543D01*
X164499499Y-123198543D01*
X164537947Y-123391829D01*
X164537950Y-123391839D01*
X164613364Y-123573907D01*
X164613371Y-123573920D01*
X164722859Y-123737780D01*
X164722860Y-123737781D01*
X164722861Y-123737782D01*
X164813182Y-123828103D01*
X164846666Y-123889424D01*
X164849500Y-123915783D01*
X164849500Y-125984216D01*
X164829815Y-126051255D01*
X164813181Y-126071897D01*
X164722863Y-126162214D01*
X164722860Y-126162218D01*
X164613371Y-126326079D01*
X164613364Y-126326092D01*
X164537950Y-126508160D01*
X164537947Y-126508170D01*
X164499500Y-126701456D01*
X164499500Y-126701459D01*
X164499500Y-126898541D01*
X164499500Y-126898543D01*
X164499499Y-126898543D01*
X164537947Y-127091829D01*
X164537950Y-127091839D01*
X164613364Y-127273907D01*
X164613371Y-127273920D01*
X164722860Y-127437781D01*
X164722863Y-127437785D01*
X164862214Y-127577136D01*
X164862218Y-127577139D01*
X165026079Y-127686628D01*
X165026092Y-127686635D01*
X165208160Y-127762049D01*
X165208165Y-127762051D01*
X165208169Y-127762051D01*
X165208170Y-127762052D01*
X165401456Y-127800500D01*
X165401459Y-127800500D01*
X165598543Y-127800500D01*
X165728582Y-127774632D01*
X165791835Y-127762051D01*
X165973914Y-127686632D01*
X166137782Y-127577139D01*
X166277139Y-127437782D01*
X166386632Y-127273914D01*
X166462051Y-127091835D01*
X166493727Y-126932591D01*
X166500500Y-126898543D01*
X166500500Y-126874500D01*
X166520185Y-126807461D01*
X166572989Y-126761706D01*
X166624500Y-126750500D01*
X166748543Y-126750500D01*
X166878582Y-126724632D01*
X166941835Y-126712051D01*
X167123914Y-126636632D01*
X167287782Y-126527139D01*
X167378103Y-126436817D01*
X167439424Y-126403334D01*
X167465783Y-126400500D01*
X171278126Y-126400500D01*
X171305297Y-126408478D01*
X171333191Y-126413397D01*
X171338384Y-126418193D01*
X171345165Y-126420185D01*
X171363709Y-126441586D01*
X171384516Y-126460805D01*
X171387844Y-126469439D01*
X171390920Y-126472989D01*
X171398152Y-126493358D01*
X171399046Y-126496804D01*
X171417949Y-126591835D01*
X171433349Y-126629014D01*
X171435514Y-126637358D01*
X171434667Y-126664011D01*
X171437517Y-126690518D01*
X171433576Y-126698390D01*
X171433297Y-126707193D01*
X171418175Y-126729157D01*
X171406242Y-126752997D01*
X171398669Y-126757489D01*
X171393676Y-126764743D01*
X171369082Y-126775043D01*
X171346152Y-126788649D01*
X171332511Y-126790362D01*
X171329231Y-126791736D01*
X171326044Y-126791174D01*
X171315488Y-126792500D01*
X171048195Y-126792500D01*
X170926970Y-126816613D01*
X170926960Y-126816616D01*
X170812773Y-126863913D01*
X170812760Y-126863920D01*
X170709992Y-126932588D01*
X170709988Y-126932591D01*
X167813360Y-129829219D01*
X167752037Y-129862704D01*
X167682345Y-129857720D01*
X167626412Y-129815848D01*
X167601995Y-129750384D01*
X167610528Y-129697736D01*
X167610283Y-129697662D01*
X167610836Y-129695838D01*
X167611121Y-129694079D01*
X167612051Y-129691835D01*
X167631942Y-129591839D01*
X167650500Y-129498543D01*
X167650500Y-129301456D01*
X167612052Y-129108170D01*
X167612051Y-129108169D01*
X167612051Y-129108165D01*
X167570628Y-129008160D01*
X167536635Y-128926092D01*
X167536628Y-128926079D01*
X167427139Y-128762218D01*
X167427136Y-128762214D01*
X167287785Y-128622863D01*
X167287781Y-128622860D01*
X167123920Y-128513371D01*
X167123907Y-128513364D01*
X166941839Y-128437950D01*
X166941829Y-128437947D01*
X166748543Y-128399500D01*
X166748541Y-128399500D01*
X166551459Y-128399500D01*
X166551457Y-128399500D01*
X166358170Y-128437947D01*
X166358160Y-128437950D01*
X166176092Y-128513364D01*
X166176079Y-128513371D01*
X166012218Y-128622860D01*
X166012214Y-128622863D01*
X165872863Y-128762214D01*
X165872860Y-128762218D01*
X165763371Y-128926079D01*
X165763364Y-128926092D01*
X165687950Y-129108160D01*
X165687947Y-129108170D01*
X165649500Y-129301456D01*
X165649500Y-129301459D01*
X165649500Y-129498541D01*
X165649500Y-129498543D01*
X165649499Y-129498543D01*
X165687947Y-129691829D01*
X165687950Y-129691839D01*
X165763364Y-129873907D01*
X165763371Y-129873920D01*
X165872860Y-130037781D01*
X165872863Y-130037785D01*
X166012214Y-130177136D01*
X166012218Y-130177139D01*
X166176079Y-130286628D01*
X166176092Y-130286635D01*
X166354954Y-130360721D01*
X166358165Y-130362051D01*
X166358169Y-130362051D01*
X166358170Y-130362052D01*
X166551456Y-130400500D01*
X166551459Y-130400500D01*
X166748543Y-130400500D01*
X166878582Y-130374632D01*
X166941835Y-130362051D01*
X166944078Y-130361121D01*
X166945347Y-130360985D01*
X166947662Y-130360283D01*
X166947795Y-130360721D01*
X167013544Y-130353647D01*
X167076026Y-130384917D01*
X167111683Y-130445002D01*
X167109196Y-130514828D01*
X167079219Y-130563360D01*
X162676400Y-134966181D01*
X162615077Y-134999666D01*
X162588719Y-135002500D01*
X156038784Y-135002500D01*
X155971745Y-134982815D01*
X155951103Y-134966181D01*
X155807785Y-134822863D01*
X155807781Y-134822860D01*
X155643920Y-134713371D01*
X155643907Y-134713364D01*
X155461839Y-134637950D01*
X155461829Y-134637947D01*
X155268543Y-134599500D01*
X155268541Y-134599500D01*
X155071459Y-134599500D01*
X155071457Y-134599500D01*
X154878170Y-134637947D01*
X154878160Y-134637950D01*
X154696092Y-134713364D01*
X154696079Y-134713371D01*
X154532218Y-134822860D01*
X154532214Y-134822863D01*
X154392863Y-134962214D01*
X154392860Y-134962218D01*
X154283371Y-135126079D01*
X154283364Y-135126092D01*
X154207950Y-135308160D01*
X154207947Y-135308170D01*
X154169500Y-135501456D01*
X154169500Y-135501459D01*
X154169500Y-135698541D01*
X154169500Y-135698543D01*
X154169499Y-135698543D01*
X154207947Y-135891829D01*
X154207950Y-135891839D01*
X154283364Y-136073907D01*
X154283371Y-136073920D01*
X154392860Y-136237781D01*
X154392863Y-136237785D01*
X154532214Y-136377136D01*
X154532218Y-136377139D01*
X154696079Y-136486628D01*
X154696092Y-136486635D01*
X154878160Y-136562049D01*
X154878165Y-136562051D01*
X154878169Y-136562051D01*
X154878170Y-136562052D01*
X155071456Y-136600500D01*
X155071459Y-136600500D01*
X155268543Y-136600500D01*
X155398582Y-136574632D01*
X155461835Y-136562051D01*
X155643914Y-136486632D01*
X155807782Y-136377139D01*
X155891103Y-136293817D01*
X155952424Y-136260334D01*
X155978783Y-136257500D01*
X162961804Y-136257500D01*
X162961805Y-136257499D01*
X163083035Y-136233386D01*
X163163784Y-136199937D01*
X163197233Y-136186083D01*
X163300008Y-136117411D01*
X163387411Y-136030008D01*
X168736404Y-130681015D01*
X172209000Y-130681015D01*
X172209000Y-132181000D01*
X173433015Y-132181000D01*
X173409000Y-132332623D01*
X173409000Y-132529377D01*
X173433015Y-132681000D01*
X172209001Y-132681000D01*
X172209001Y-134180984D01*
X172219494Y-134283695D01*
X172274641Y-134450117D01*
X172274643Y-134450122D01*
X172366684Y-134599344D01*
X172490655Y-134723315D01*
X172639877Y-134815356D01*
X172639882Y-134815358D01*
X172806304Y-134870505D01*
X172806311Y-134870506D01*
X172909021Y-134880999D01*
X174408999Y-134880999D01*
X174409000Y-134880998D01*
X174409000Y-133656985D01*
X174560623Y-133681000D01*
X174757377Y-133681000D01*
X174909000Y-133656985D01*
X174909000Y-134880999D01*
X176408970Y-134880999D01*
X176408984Y-134880998D01*
X176511695Y-134870505D01*
X176678117Y-134815358D01*
X176678122Y-134815356D01*
X176827344Y-134723315D01*
X176951315Y-134599344D01*
X177043356Y-134450122D01*
X177043358Y-134450117D01*
X177098505Y-134283695D01*
X177098506Y-134283688D01*
X177108999Y-134180984D01*
X177109000Y-134180971D01*
X177109000Y-132681000D01*
X175884985Y-132681000D01*
X175909000Y-132529377D01*
X175909000Y-132332623D01*
X175884985Y-132181000D01*
X177108999Y-132181000D01*
X177108999Y-130681030D01*
X177108998Y-130681015D01*
X177098505Y-130578304D01*
X177043358Y-130411882D01*
X177043356Y-130411877D01*
X176951315Y-130262655D01*
X176827344Y-130138684D01*
X176678122Y-130046643D01*
X176678117Y-130046641D01*
X176511695Y-129991494D01*
X176511688Y-129991493D01*
X176408984Y-129981000D01*
X174909000Y-129981000D01*
X174909000Y-131205014D01*
X174757377Y-131181000D01*
X174560623Y-131181000D01*
X174409000Y-131205014D01*
X174409000Y-129981000D01*
X172909030Y-129981000D01*
X172909014Y-129981001D01*
X172806304Y-129991494D01*
X172639882Y-130046641D01*
X172639877Y-130046643D01*
X172490655Y-130138684D01*
X172366684Y-130262655D01*
X172274643Y-130411877D01*
X172274641Y-130411882D01*
X172219494Y-130578304D01*
X172219493Y-130578311D01*
X172209000Y-130681015D01*
X168736404Y-130681015D01*
X171333600Y-128083819D01*
X171394923Y-128050334D01*
X171421281Y-128047500D01*
X176071804Y-128047500D01*
X176071805Y-128047499D01*
X176193035Y-128023386D01*
X176273784Y-127989937D01*
X176307233Y-127976083D01*
X176410008Y-127907411D01*
X176497411Y-127820008D01*
X177750599Y-126566818D01*
X177811922Y-126533334D01*
X177838280Y-126530500D01*
X177998543Y-126530500D01*
X178132925Y-126503769D01*
X178191835Y-126492051D01*
X178365336Y-126420185D01*
X178373907Y-126416635D01*
X178373907Y-126416634D01*
X178373914Y-126416632D01*
X178537782Y-126307139D01*
X178551543Y-126293378D01*
X178567819Y-126277103D01*
X178629142Y-126243618D01*
X178698834Y-126248602D01*
X178754767Y-126290474D01*
X178779184Y-126355938D01*
X178779500Y-126364784D01*
X178779500Y-136827700D01*
X178759815Y-136894739D01*
X178707011Y-136940494D01*
X178655500Y-136951700D01*
X146157373Y-136951700D01*
X146090334Y-136932015D01*
X146044579Y-136879211D01*
X146034635Y-136810053D01*
X146063660Y-136746497D01*
X146109921Y-136713139D01*
X146173907Y-136686635D01*
X146173907Y-136686634D01*
X146173914Y-136686632D01*
X146337782Y-136577139D01*
X146477139Y-136437782D01*
X146586632Y-136273914D01*
X146662051Y-136091835D01*
X146682497Y-135989049D01*
X146700500Y-135898543D01*
X146700500Y-135701456D01*
X146662052Y-135508170D01*
X146662051Y-135508169D01*
X146662051Y-135508165D01*
X146614865Y-135394246D01*
X146586635Y-135326092D01*
X146586628Y-135326079D01*
X146477139Y-135162218D01*
X146477136Y-135162214D01*
X146337785Y-135022863D01*
X146337781Y-135022860D01*
X146173920Y-134913371D01*
X146173907Y-134913364D01*
X145991839Y-134837950D01*
X145991829Y-134837947D01*
X145798543Y-134799500D01*
X145798541Y-134799500D01*
X145601459Y-134799500D01*
X145601457Y-134799500D01*
X145408170Y-134837947D01*
X145408169Y-134837948D01*
X145408168Y-134837948D01*
X145408165Y-134837949D01*
X145329567Y-134870505D01*
X145270217Y-134895088D01*
X145200747Y-134902556D01*
X145138268Y-134871280D01*
X145102616Y-134811191D01*
X145101148Y-134804717D01*
X145082977Y-134713368D01*
X145062051Y-134608165D01*
X145058397Y-134599344D01*
X145016645Y-134498543D01*
X147599499Y-134498543D01*
X147637947Y-134691829D01*
X147637950Y-134691839D01*
X147713364Y-134873907D01*
X147713371Y-134873920D01*
X147822860Y-135037781D01*
X147822863Y-135037785D01*
X147962214Y-135177136D01*
X147962218Y-135177139D01*
X148126079Y-135286628D01*
X148126092Y-135286635D01*
X148268721Y-135345713D01*
X148308165Y-135362051D01*
X148308169Y-135362051D01*
X148308170Y-135362052D01*
X148501456Y-135400500D01*
X148501459Y-135400500D01*
X148698543Y-135400500D01*
X148832196Y-135373914D01*
X148891835Y-135362051D01*
X148988752Y-135321906D01*
X149058219Y-135314438D01*
X149120699Y-135345713D01*
X149150764Y-135389016D01*
X149228348Y-135576324D01*
X149228355Y-135576337D01*
X149337844Y-135740198D01*
X149337847Y-135740202D01*
X149477198Y-135879553D01*
X149477202Y-135879556D01*
X149641063Y-135989045D01*
X149641076Y-135989052D01*
X149823144Y-136064466D01*
X149823149Y-136064468D01*
X149823153Y-136064468D01*
X149823154Y-136064469D01*
X150016440Y-136102917D01*
X150016443Y-136102917D01*
X150213527Y-136102917D01*
X150359366Y-136073907D01*
X150406819Y-136064468D01*
X150588898Y-135989049D01*
X150752766Y-135879556D01*
X150892123Y-135740199D01*
X151001616Y-135576331D01*
X151077035Y-135394252D01*
X151090596Y-135326079D01*
X151115484Y-135200960D01*
X151115484Y-135003873D01*
X151077036Y-134810587D01*
X151077035Y-134810586D01*
X151077035Y-134810582D01*
X151040888Y-134723315D01*
X151001619Y-134628509D01*
X151001612Y-134628496D01*
X150892123Y-134464635D01*
X150892120Y-134464631D01*
X150752769Y-134325280D01*
X150752765Y-134325277D01*
X150588904Y-134215788D01*
X150588891Y-134215781D01*
X150406823Y-134140367D01*
X150406813Y-134140364D01*
X150213527Y-134101917D01*
X150213525Y-134101917D01*
X150016443Y-134101917D01*
X150016441Y-134101917D01*
X149823154Y-134140364D01*
X149823153Y-134140364D01*
X149726232Y-134180510D01*
X149656762Y-134187978D01*
X149594283Y-134156702D01*
X149564219Y-134113400D01*
X149486635Y-133926092D01*
X149486628Y-133926079D01*
X149377139Y-133762218D01*
X149377136Y-133762214D01*
X149237785Y-133622863D01*
X149237781Y-133622860D01*
X149073920Y-133513371D01*
X149073907Y-133513364D01*
X148891839Y-133437950D01*
X148891829Y-133437947D01*
X148698543Y-133399500D01*
X148698541Y-133399500D01*
X148501459Y-133399500D01*
X148501457Y-133399500D01*
X148308170Y-133437947D01*
X148308160Y-133437950D01*
X148126092Y-133513364D01*
X148126079Y-133513371D01*
X147962218Y-133622860D01*
X147962214Y-133622863D01*
X147822863Y-133762214D01*
X147822860Y-133762218D01*
X147713371Y-133926079D01*
X147713364Y-133926092D01*
X147637950Y-134108160D01*
X147637947Y-134108170D01*
X147599500Y-134301456D01*
X147599500Y-134301459D01*
X147599500Y-134498541D01*
X147599500Y-134498543D01*
X147599499Y-134498543D01*
X145016645Y-134498543D01*
X144986635Y-134426092D01*
X144986633Y-134426088D01*
X144986632Y-134426086D01*
X144919276Y-134325280D01*
X144877139Y-134262217D01*
X144737785Y-134122863D01*
X144737781Y-134122860D01*
X144573920Y-134013371D01*
X144573907Y-134013364D01*
X144391839Y-133937950D01*
X144391829Y-133937947D01*
X144198543Y-133899500D01*
X144198541Y-133899500D01*
X144001459Y-133899500D01*
X144001457Y-133899500D01*
X143808170Y-133937947D01*
X143808160Y-133937950D01*
X143626092Y-134013364D01*
X143626079Y-134013371D01*
X143462218Y-134122860D01*
X143462214Y-134122863D01*
X143322863Y-134262214D01*
X143322860Y-134262218D01*
X143213371Y-134426079D01*
X143213364Y-134426092D01*
X143137950Y-134608160D01*
X143137947Y-134608170D01*
X143099500Y-134801456D01*
X143099500Y-134801459D01*
X143099500Y-134998541D01*
X143099500Y-134998543D01*
X143099499Y-134998543D01*
X143137947Y-135191829D01*
X143137950Y-135191839D01*
X143213364Y-135373907D01*
X143213371Y-135373920D01*
X143322860Y-135537781D01*
X143322863Y-135537785D01*
X143462214Y-135677136D01*
X143462218Y-135677139D01*
X143626079Y-135786628D01*
X143626092Y-135786635D01*
X143727691Y-135828718D01*
X143808165Y-135862051D01*
X143808169Y-135862051D01*
X143808170Y-135862052D01*
X144001456Y-135900500D01*
X144001459Y-135900500D01*
X144198543Y-135900500D01*
X144328582Y-135874632D01*
X144391835Y-135862051D01*
X144529782Y-135804911D01*
X144599251Y-135797443D01*
X144661730Y-135828718D01*
X144697382Y-135888807D01*
X144698851Y-135895281D01*
X144737947Y-136091829D01*
X144737950Y-136091839D01*
X144813364Y-136273907D01*
X144813371Y-136273920D01*
X144922860Y-136437781D01*
X144922863Y-136437785D01*
X145062214Y-136577136D01*
X145062218Y-136577139D01*
X145226079Y-136686628D01*
X145226092Y-136686635D01*
X145290079Y-136713139D01*
X145344483Y-136756980D01*
X145366548Y-136823274D01*
X145349269Y-136890973D01*
X145298132Y-136938584D01*
X145242627Y-136951700D01*
X134826272Y-136951700D01*
X134759233Y-136932015D01*
X134713478Y-136879211D01*
X134702273Y-136827208D01*
X134708762Y-135191839D01*
X134739865Y-127353652D01*
X134759815Y-127286695D01*
X134812801Y-127241150D01*
X134881998Y-127231481D01*
X134945438Y-127260758D01*
X134951545Y-127266467D01*
X135062214Y-127377136D01*
X135062218Y-127377139D01*
X135226079Y-127486628D01*
X135226092Y-127486635D01*
X135408160Y-127562049D01*
X135408165Y-127562051D01*
X135408169Y-127562051D01*
X135408170Y-127562052D01*
X135601456Y-127600500D01*
X135601459Y-127600500D01*
X135798543Y-127600500D01*
X135928582Y-127574632D01*
X135991835Y-127562051D01*
X136173914Y-127486632D01*
X136337782Y-127377139D01*
X136477139Y-127237782D01*
X136586632Y-127073914D01*
X136662051Y-126891835D01*
X136682074Y-126791174D01*
X136700500Y-126698543D01*
X136700500Y-126570808D01*
X136720185Y-126503769D01*
X136736819Y-126483127D01*
X138287819Y-124932127D01*
X138349142Y-124898642D01*
X138418834Y-124903626D01*
X138474767Y-124945498D01*
X138499184Y-125010962D01*
X138499500Y-125019808D01*
X138499500Y-129214070D01*
X138507117Y-129252360D01*
X138509500Y-129276553D01*
X138509500Y-129484216D01*
X138489815Y-129551255D01*
X138473181Y-129571897D01*
X138382863Y-129662214D01*
X138382860Y-129662218D01*
X138273371Y-129826079D01*
X138273364Y-129826092D01*
X138197950Y-130008160D01*
X138197947Y-130008170D01*
X138159500Y-130201456D01*
X138159500Y-130201457D01*
X138159500Y-130201459D01*
X138159500Y-130398541D01*
X138159500Y-130398543D01*
X138159499Y-130398543D01*
X138197947Y-130591829D01*
X138197950Y-130591839D01*
X138273364Y-130773907D01*
X138273371Y-130773920D01*
X138382860Y-130937781D01*
X138382863Y-130937785D01*
X138522214Y-131077136D01*
X138522218Y-131077139D01*
X138686079Y-131186628D01*
X138686092Y-131186635D01*
X138868160Y-131262049D01*
X138868165Y-131262051D01*
X138868169Y-131262051D01*
X138868170Y-131262052D01*
X139061456Y-131300500D01*
X139061459Y-131300500D01*
X139258543Y-131300500D01*
X139398903Y-131272580D01*
X139451835Y-131262051D01*
X139633914Y-131186632D01*
X139797782Y-131077139D01*
X139937139Y-130937782D01*
X140046632Y-130773914D01*
X140122051Y-130591835D01*
X140140608Y-130498543D01*
X142599499Y-130498543D01*
X142637947Y-130691829D01*
X142637950Y-130691839D01*
X142713364Y-130873907D01*
X142713371Y-130873920D01*
X142822860Y-131037781D01*
X142822863Y-131037785D01*
X142962214Y-131177136D01*
X142962218Y-131177139D01*
X143126079Y-131286628D01*
X143126092Y-131286635D01*
X143307810Y-131361904D01*
X143308165Y-131362051D01*
X143308169Y-131362051D01*
X143308170Y-131362052D01*
X143501456Y-131400500D01*
X143501459Y-131400500D01*
X143698543Y-131400500D01*
X143828582Y-131374632D01*
X143891835Y-131362051D01*
X144073914Y-131286632D01*
X144237782Y-131177139D01*
X144377139Y-131037782D01*
X144486632Y-130873914D01*
X144562051Y-130691835D01*
X144581942Y-130591839D01*
X144600500Y-130498543D01*
X144600500Y-130301456D01*
X144580029Y-130198543D01*
X155899499Y-130198543D01*
X155937947Y-130391829D01*
X155937950Y-130391839D01*
X156013364Y-130573907D01*
X156013371Y-130573920D01*
X156122860Y-130737781D01*
X156122863Y-130737785D01*
X156262214Y-130877136D01*
X156262218Y-130877139D01*
X156426079Y-130986628D01*
X156426092Y-130986635D01*
X156549581Y-131037785D01*
X156608165Y-131062051D01*
X156608169Y-131062051D01*
X156608170Y-131062052D01*
X156801456Y-131100500D01*
X156801459Y-131100500D01*
X156998543Y-131100500D01*
X157128582Y-131074632D01*
X157191835Y-131062051D01*
X157373914Y-130986632D01*
X157537782Y-130877139D01*
X157677139Y-130737782D01*
X157786632Y-130573914D01*
X157862051Y-130391835D01*
X157882977Y-130286635D01*
X157900500Y-130198543D01*
X157900500Y-130001456D01*
X157862052Y-129808170D01*
X157862051Y-129808169D01*
X157862051Y-129808165D01*
X157862049Y-129808160D01*
X157786635Y-129626092D01*
X157786628Y-129626079D01*
X157677139Y-129462218D01*
X157677136Y-129462214D01*
X157537785Y-129322863D01*
X157537781Y-129322860D01*
X157373920Y-129213371D01*
X157373907Y-129213364D01*
X157191839Y-129137950D01*
X157191829Y-129137947D01*
X156998543Y-129099500D01*
X156998541Y-129099500D01*
X156801459Y-129099500D01*
X156801457Y-129099500D01*
X156608170Y-129137947D01*
X156608160Y-129137950D01*
X156426092Y-129213364D01*
X156426079Y-129213371D01*
X156262218Y-129322860D01*
X156262214Y-129322863D01*
X156122863Y-129462214D01*
X156122860Y-129462218D01*
X156013371Y-129626079D01*
X156013364Y-129626092D01*
X155937950Y-129808160D01*
X155937947Y-129808170D01*
X155899500Y-130001456D01*
X155899500Y-130001459D01*
X155899500Y-130198541D01*
X155899500Y-130198543D01*
X155899499Y-130198543D01*
X144580029Y-130198543D01*
X144562052Y-130108170D01*
X144562051Y-130108169D01*
X144562051Y-130108165D01*
X144491477Y-129937782D01*
X144486635Y-129926092D01*
X144486628Y-129926079D01*
X144377139Y-129762218D01*
X144377136Y-129762214D01*
X144237785Y-129622863D01*
X144237781Y-129622860D01*
X144073920Y-129513371D01*
X144073907Y-129513364D01*
X143891839Y-129437950D01*
X143891829Y-129437947D01*
X143698543Y-129399500D01*
X143698541Y-129399500D01*
X143501459Y-129399500D01*
X143501457Y-129399500D01*
X143308170Y-129437947D01*
X143308160Y-129437950D01*
X143126092Y-129513364D01*
X143126079Y-129513371D01*
X142962218Y-129622860D01*
X142962214Y-129622863D01*
X142822863Y-129762214D01*
X142822860Y-129762218D01*
X142713371Y-129926079D01*
X142713364Y-129926092D01*
X142637950Y-130108160D01*
X142637947Y-130108170D01*
X142599500Y-130301456D01*
X142599500Y-130301459D01*
X142599500Y-130498541D01*
X142599500Y-130498543D01*
X142599499Y-130498543D01*
X140140608Y-130498543D01*
X140151258Y-130445002D01*
X140160500Y-130398543D01*
X140160500Y-130201457D01*
X140159204Y-130194943D01*
X140165431Y-130125351D01*
X140208293Y-130070173D01*
X140274182Y-130046928D01*
X140342179Y-130062995D01*
X140359488Y-130074899D01*
X140362216Y-130077138D01*
X140526079Y-130186628D01*
X140526092Y-130186635D01*
X140708160Y-130262049D01*
X140708165Y-130262051D01*
X140708169Y-130262051D01*
X140708170Y-130262052D01*
X140901456Y-130300500D01*
X140901459Y-130300500D01*
X141098543Y-130300500D01*
X141228582Y-130274632D01*
X141291835Y-130262051D01*
X141473914Y-130186632D01*
X141637782Y-130077139D01*
X141777139Y-129937782D01*
X141886632Y-129773914D01*
X141962051Y-129591835D01*
X141992662Y-129437947D01*
X142000500Y-129398543D01*
X142000500Y-129201456D01*
X141962052Y-129008170D01*
X141962051Y-129008169D01*
X141962051Y-129008165D01*
X141962049Y-129008160D01*
X141886635Y-128826092D01*
X141886628Y-128826079D01*
X141777139Y-128662218D01*
X141777136Y-128662214D01*
X141637785Y-128522863D01*
X141637781Y-128522860D01*
X141473920Y-128413371D01*
X141473907Y-128413364D01*
X141291839Y-128337950D01*
X141291829Y-128337947D01*
X141098543Y-128299500D01*
X141098541Y-128299500D01*
X140901459Y-128299500D01*
X140901457Y-128299500D01*
X140708170Y-128337947D01*
X140708160Y-128337950D01*
X140526092Y-128413364D01*
X140526079Y-128413371D01*
X140362218Y-128522860D01*
X140362214Y-128522863D01*
X140222863Y-128662214D01*
X140222860Y-128662218D01*
X140113371Y-128826079D01*
X140113364Y-128826092D01*
X140039061Y-129005479D01*
X139995220Y-129059883D01*
X139928926Y-129081948D01*
X139861227Y-129064669D01*
X139813616Y-129013532D01*
X139800500Y-128958027D01*
X139800500Y-124098543D01*
X145499499Y-124098543D01*
X145537947Y-124291829D01*
X145537950Y-124291839D01*
X145613364Y-124473907D01*
X145613371Y-124473920D01*
X145722860Y-124637781D01*
X145722863Y-124637785D01*
X145862214Y-124777136D01*
X145862218Y-124777139D01*
X146026079Y-124886628D01*
X146026092Y-124886635D01*
X146168202Y-124945498D01*
X146208165Y-124962051D01*
X146208169Y-124962051D01*
X146208170Y-124962052D01*
X146401456Y-125000500D01*
X146401459Y-125000500D01*
X146598543Y-125000500D01*
X146728582Y-124974632D01*
X146791835Y-124962051D01*
X146973914Y-124886632D01*
X147137782Y-124777139D01*
X147277139Y-124637782D01*
X147386632Y-124473914D01*
X147462051Y-124291835D01*
X147498587Y-124108160D01*
X147500500Y-124098543D01*
X147500500Y-123901456D01*
X147462052Y-123708170D01*
X147462051Y-123708169D01*
X147462051Y-123708165D01*
X147444925Y-123666819D01*
X147386635Y-123526092D01*
X147386628Y-123526079D01*
X147277139Y-123362218D01*
X147277136Y-123362214D01*
X147137785Y-123222863D01*
X147137781Y-123222860D01*
X146973920Y-123113371D01*
X146973907Y-123113364D01*
X146791839Y-123037950D01*
X146791829Y-123037947D01*
X146598543Y-122999500D01*
X146598541Y-122999500D01*
X146401459Y-122999500D01*
X146401457Y-122999500D01*
X146208170Y-123037947D01*
X146208160Y-123037950D01*
X146026092Y-123113364D01*
X146026079Y-123113371D01*
X145862218Y-123222860D01*
X145862214Y-123222863D01*
X145722863Y-123362214D01*
X145722860Y-123362218D01*
X145613371Y-123526079D01*
X145613364Y-123526092D01*
X145537950Y-123708160D01*
X145537947Y-123708170D01*
X145499500Y-123901456D01*
X145499500Y-123901459D01*
X145499500Y-124098541D01*
X145499500Y-124098543D01*
X145499499Y-124098543D01*
X139800500Y-124098543D01*
X139800500Y-123067888D01*
X139820185Y-123000849D01*
X139872989Y-122955094D01*
X139942147Y-122945150D01*
X139993389Y-122964785D01*
X140026086Y-122986632D01*
X140026088Y-122986633D01*
X140026092Y-122986635D01*
X140193375Y-123055925D01*
X140208165Y-123062051D01*
X140208169Y-123062051D01*
X140208170Y-123062052D01*
X140401456Y-123100500D01*
X140401459Y-123100500D01*
X140598543Y-123100500D01*
X140728582Y-123074632D01*
X140791835Y-123062051D01*
X140942848Y-122999500D01*
X140973907Y-122986635D01*
X140973907Y-122986634D01*
X140973914Y-122986632D01*
X141030918Y-122948543D01*
X150549499Y-122948543D01*
X150587947Y-123141829D01*
X150587950Y-123141839D01*
X150663364Y-123323907D01*
X150663371Y-123323920D01*
X150772860Y-123487781D01*
X150772863Y-123487785D01*
X150912214Y-123627136D01*
X150912218Y-123627139D01*
X151076079Y-123736628D01*
X151076092Y-123736635D01*
X151238704Y-123803990D01*
X151258165Y-123812051D01*
X151258169Y-123812051D01*
X151258170Y-123812052D01*
X151451456Y-123850500D01*
X151451459Y-123850500D01*
X151648543Y-123850500D01*
X151778582Y-123824632D01*
X151841835Y-123812051D01*
X152004919Y-123744500D01*
X152023907Y-123736635D01*
X152023907Y-123736634D01*
X152023914Y-123736632D01*
X152187782Y-123627139D01*
X152327139Y-123487782D01*
X152436632Y-123323914D01*
X152512051Y-123141835D01*
X152532715Y-123037950D01*
X152550500Y-122948543D01*
X152550500Y-122751456D01*
X152512052Y-122558170D01*
X152512051Y-122558169D01*
X152512051Y-122558165D01*
X152445298Y-122397007D01*
X152436635Y-122376092D01*
X152436628Y-122376079D01*
X152327139Y-122212218D01*
X152327136Y-122212214D01*
X152187785Y-122072863D01*
X152187781Y-122072860D01*
X152023920Y-121963371D01*
X152023907Y-121963364D01*
X151841839Y-121887950D01*
X151841829Y-121887947D01*
X151648543Y-121849500D01*
X151648541Y-121849500D01*
X151451459Y-121849500D01*
X151451457Y-121849500D01*
X151258170Y-121887947D01*
X151258160Y-121887950D01*
X151076092Y-121963364D01*
X151076079Y-121963371D01*
X150912218Y-122072860D01*
X150912214Y-122072863D01*
X150772863Y-122212214D01*
X150772860Y-122212218D01*
X150663371Y-122376079D01*
X150663364Y-122376092D01*
X150587950Y-122558160D01*
X150587947Y-122558170D01*
X150549500Y-122751456D01*
X150549500Y-122751459D01*
X150549500Y-122948541D01*
X150549500Y-122948543D01*
X150549499Y-122948543D01*
X141030918Y-122948543D01*
X141137782Y-122877139D01*
X141277139Y-122737782D01*
X141314727Y-122681528D01*
X141318103Y-122676476D01*
X141386628Y-122573920D01*
X141386628Y-122573919D01*
X141386632Y-122573914D01*
X141393158Y-122558160D01*
X141417571Y-122499219D01*
X141462051Y-122391835D01*
X141474632Y-122328582D01*
X141500500Y-122198543D01*
X141500500Y-122001456D01*
X141462052Y-121808170D01*
X141462051Y-121808169D01*
X141462051Y-121808165D01*
X141415370Y-121695466D01*
X141386635Y-121626092D01*
X141386628Y-121626079D01*
X141277139Y-121462218D01*
X141277136Y-121462214D01*
X141137785Y-121322863D01*
X141137781Y-121322860D01*
X140973920Y-121213371D01*
X140973907Y-121213364D01*
X140791839Y-121137950D01*
X140791829Y-121137947D01*
X140598543Y-121099500D01*
X140598541Y-121099500D01*
X140401459Y-121099500D01*
X140401457Y-121099500D01*
X140208170Y-121137947D01*
X140208160Y-121137950D01*
X140026092Y-121213364D01*
X140026081Y-121213370D01*
X139993390Y-121235214D01*
X139926712Y-121256091D01*
X139859332Y-121237606D01*
X139812643Y-121185627D01*
X139800500Y-121132111D01*
X139800500Y-117371947D01*
X144070000Y-117371947D01*
X144070000Y-117608052D01*
X144106934Y-117841247D01*
X144179897Y-118065802D01*
X144287087Y-118276174D01*
X144347338Y-118359104D01*
X144347340Y-118359105D01*
X145087037Y-117619408D01*
X145104075Y-117682993D01*
X145169901Y-117797007D01*
X145262993Y-117890099D01*
X145377007Y-117955925D01*
X145440590Y-117972962D01*
X144700893Y-118712658D01*
X144783828Y-118772914D01*
X144994197Y-118880102D01*
X145218752Y-118953065D01*
X145218751Y-118953065D01*
X145451948Y-118990000D01*
X145688052Y-118990000D01*
X145921247Y-118953065D01*
X146145802Y-118880102D01*
X146356163Y-118772918D01*
X146356169Y-118772914D01*
X146439104Y-118712658D01*
X146439105Y-118712658D01*
X145699408Y-117972962D01*
X145762993Y-117955925D01*
X145877007Y-117890099D01*
X145970099Y-117797007D01*
X146035925Y-117682993D01*
X146052962Y-117619409D01*
X146792658Y-118359105D01*
X146792658Y-118359104D01*
X146852914Y-118276169D01*
X146852918Y-118276163D01*
X146960102Y-118065802D01*
X147033065Y-117841247D01*
X147070000Y-117608052D01*
X147070000Y-117371947D01*
X147033065Y-117138752D01*
X146960102Y-116914197D01*
X146852914Y-116703828D01*
X146792658Y-116620894D01*
X146792658Y-116620893D01*
X146052962Y-117360590D01*
X146035925Y-117297007D01*
X145970099Y-117182993D01*
X145877007Y-117089901D01*
X145762993Y-117024075D01*
X145699409Y-117007037D01*
X146439105Y-116267340D01*
X146439104Y-116267338D01*
X146356174Y-116207087D01*
X146145802Y-116099897D01*
X145921247Y-116026934D01*
X145921248Y-116026934D01*
X145688052Y-115990000D01*
X145451948Y-115990000D01*
X145218752Y-116026934D01*
X144994197Y-116099897D01*
X144783830Y-116207084D01*
X144700894Y-116267340D01*
X145440591Y-117007037D01*
X145377007Y-117024075D01*
X145262993Y-117089901D01*
X145169901Y-117182993D01*
X145104075Y-117297007D01*
X145087037Y-117360590D01*
X144347340Y-116620894D01*
X144287084Y-116703830D01*
X144179897Y-116914197D01*
X144106934Y-117138752D01*
X144070000Y-117371947D01*
X139800500Y-117371947D01*
X139800500Y-115738543D01*
X141499499Y-115738543D01*
X141537947Y-115931829D01*
X141537950Y-115931839D01*
X141613364Y-116113907D01*
X141613371Y-116113920D01*
X141722860Y-116277781D01*
X141722863Y-116277785D01*
X141862214Y-116417136D01*
X141862218Y-116417139D01*
X142026079Y-116526628D01*
X142026092Y-116526635D01*
X142206736Y-116601459D01*
X142208165Y-116602051D01*
X142208169Y-116602051D01*
X142208170Y-116602052D01*
X142401456Y-116640500D01*
X142401459Y-116640500D01*
X142598543Y-116640500D01*
X142728582Y-116614632D01*
X142791835Y-116602051D01*
X142973914Y-116526632D01*
X143137782Y-116417139D01*
X143277139Y-116277782D01*
X143386632Y-116113914D01*
X143462051Y-115931835D01*
X143490379Y-115789424D01*
X143500500Y-115738543D01*
X143500500Y-115541456D01*
X143462052Y-115348170D01*
X143462051Y-115348169D01*
X143462051Y-115348165D01*
X143411954Y-115227219D01*
X143386635Y-115166092D01*
X143386628Y-115166079D01*
X143277139Y-115002218D01*
X143277136Y-115002214D01*
X143137785Y-114862863D01*
X143137781Y-114862860D01*
X142973920Y-114753371D01*
X142973907Y-114753364D01*
X142791839Y-114677950D01*
X142791829Y-114677947D01*
X142598543Y-114639500D01*
X142598541Y-114639500D01*
X142401459Y-114639500D01*
X142401457Y-114639500D01*
X142208170Y-114677947D01*
X142208160Y-114677950D01*
X142026092Y-114753364D01*
X142026079Y-114753371D01*
X141862218Y-114862860D01*
X141862214Y-114862863D01*
X141722863Y-115002214D01*
X141722860Y-115002218D01*
X141613371Y-115166079D01*
X141613364Y-115166092D01*
X141537950Y-115348160D01*
X141537947Y-115348170D01*
X141499500Y-115541456D01*
X141499500Y-115541459D01*
X141499500Y-115738541D01*
X141499500Y-115738543D01*
X141499499Y-115738543D01*
X139800500Y-115738543D01*
X139800500Y-114662806D01*
X139820185Y-114595767D01*
X139836814Y-114575130D01*
X142273817Y-112138126D01*
X142335138Y-112104643D01*
X142359882Y-112101819D01*
X142500000Y-112100000D01*
X142500000Y-112099998D01*
X142507652Y-112092276D01*
X142519872Y-112051246D01*
X142572851Y-112005695D01*
X142599737Y-111997069D01*
X142724068Y-111972337D01*
X142785835Y-111960051D01*
X142967914Y-111884632D01*
X143131782Y-111775139D01*
X143271139Y-111635782D01*
X143328257Y-111550299D01*
X143381869Y-111505494D01*
X143451194Y-111496787D01*
X143514221Y-111526941D01*
X143550941Y-111586384D01*
X143552976Y-111594998D01*
X143559990Y-111630261D01*
X143559991Y-111630261D01*
X143563950Y-111650161D01*
X143639364Y-111832230D01*
X143639371Y-111832243D01*
X143748859Y-111996103D01*
X143748860Y-111996104D01*
X143748861Y-111996105D01*
X143888218Y-112135462D01*
X143888219Y-112135462D01*
X143895286Y-112142529D01*
X143895285Y-112142529D01*
X143895289Y-112142532D01*
X149033181Y-117280425D01*
X149066666Y-117341748D01*
X149069500Y-117368106D01*
X149069500Y-118537870D01*
X149069501Y-118537876D01*
X149075908Y-118597483D01*
X149126202Y-118732328D01*
X149126206Y-118732335D01*
X149212452Y-118847544D01*
X149212455Y-118847547D01*
X149327664Y-118933793D01*
X149327671Y-118933797D01*
X149462517Y-118984091D01*
X149462516Y-118984091D01*
X149469444Y-118984835D01*
X149522127Y-118990500D01*
X151617872Y-118990499D01*
X151677483Y-118984091D01*
X151812331Y-118933796D01*
X151927546Y-118847546D01*
X152013796Y-118732331D01*
X152064091Y-118597483D01*
X152070500Y-118537873D01*
X152070499Y-116442128D01*
X152064091Y-116382517D01*
X152025027Y-116277782D01*
X152013797Y-116247671D01*
X152013793Y-116247664D01*
X151927547Y-116132455D01*
X151927544Y-116132452D01*
X151812335Y-116046206D01*
X151812328Y-116046202D01*
X151677482Y-115995908D01*
X151677483Y-115995908D01*
X151617883Y-115989501D01*
X151617881Y-115989500D01*
X151617873Y-115989500D01*
X151617865Y-115989500D01*
X150623460Y-115989500D01*
X150556421Y-115969815D01*
X150535779Y-115953181D01*
X145562819Y-110980221D01*
X145529334Y-110918898D01*
X145526500Y-110892540D01*
X145526500Y-102919635D01*
X146699500Y-102919635D01*
X146699500Y-104920370D01*
X146699501Y-104920376D01*
X146705908Y-104979983D01*
X146756202Y-105114828D01*
X146756206Y-105114835D01*
X146842452Y-105230044D01*
X146842455Y-105230047D01*
X146957664Y-105316293D01*
X146957667Y-105316295D01*
X146957668Y-105316295D01*
X146957669Y-105316296D01*
X146986025Y-105326872D01*
X147041958Y-105368742D01*
X147066376Y-105434206D01*
X147051525Y-105502479D01*
X147043010Y-105515939D01*
X146910213Y-105698719D01*
X146806417Y-105902429D01*
X146735765Y-106119871D01*
X146721491Y-106210000D01*
X147709252Y-106210000D01*
X147687482Y-106247708D01*
X147650000Y-106387591D01*
X147650000Y-106532409D01*
X147687482Y-106672292D01*
X147709252Y-106710000D01*
X146721491Y-106710000D01*
X146735765Y-106800128D01*
X146806417Y-107017570D01*
X146910211Y-107221276D01*
X147044597Y-107406242D01*
X147206257Y-107567902D01*
X147206263Y-107567907D01*
X147290863Y-107629372D01*
X147333529Y-107684701D01*
X147339508Y-107754315D01*
X147306903Y-107816110D01*
X147290864Y-107830007D01*
X147205940Y-107891709D01*
X147205931Y-107891716D01*
X147044216Y-108053431D01*
X147044216Y-108053432D01*
X147044214Y-108053434D01*
X147029330Y-108073920D01*
X146909783Y-108238461D01*
X146805950Y-108442244D01*
X146735278Y-108659750D01*
X146735278Y-108659753D01*
X146699500Y-108885646D01*
X146699500Y-109114353D01*
X146735278Y-109340246D01*
X146735278Y-109340249D01*
X146805950Y-109557755D01*
X146877684Y-109698541D01*
X146909783Y-109761538D01*
X147044214Y-109946566D01*
X147044216Y-109946568D01*
X147163181Y-110065533D01*
X147175499Y-110088092D01*
X147191154Y-110108490D01*
X147193498Y-110121056D01*
X147196666Y-110126856D01*
X147199069Y-110142885D01*
X147199500Y-110148041D01*
X147199500Y-110198541D01*
X147205412Y-110228263D01*
X147206779Y-110235139D01*
X147206780Y-110235142D01*
X147237947Y-110391828D01*
X147237950Y-110391840D01*
X147250250Y-110421534D01*
X147250251Y-110421536D01*
X147313364Y-110573907D01*
X147313371Y-110573920D01*
X147422860Y-110737781D01*
X147422863Y-110737785D01*
X147566537Y-110881459D01*
X147566559Y-110881479D01*
X152413181Y-115728101D01*
X152446666Y-115789424D01*
X152449500Y-115815782D01*
X152449500Y-121318541D01*
X152449500Y-121318543D01*
X152449499Y-121318543D01*
X152487947Y-121511829D01*
X152487950Y-121511839D01*
X152563364Y-121693907D01*
X152563371Y-121693920D01*
X152672859Y-121857780D01*
X152672860Y-121857781D01*
X152672861Y-121857782D01*
X152812218Y-121997139D01*
X152812219Y-121997139D01*
X152819286Y-122004206D01*
X152819285Y-122004206D01*
X152819289Y-122004209D01*
X153592215Y-122777137D01*
X153592219Y-122777140D01*
X153756079Y-122886628D01*
X153756085Y-122886631D01*
X153756086Y-122886632D01*
X153938165Y-122962052D01*
X154126428Y-122999500D01*
X154131455Y-123000500D01*
X154131458Y-123000501D01*
X154131460Y-123000501D01*
X154334655Y-123000501D01*
X154334675Y-123000500D01*
X154404238Y-123000500D01*
X154471277Y-123020185D01*
X154477119Y-123024179D01*
X154598390Y-123112287D01*
X154714607Y-123171503D01*
X154780776Y-123205218D01*
X154780778Y-123205218D01*
X154780781Y-123205220D01*
X154835081Y-123222863D01*
X154975465Y-123268477D01*
X154996692Y-123271839D01*
X155177648Y-123300500D01*
X155177649Y-123300500D01*
X155382351Y-123300500D01*
X155382352Y-123300500D01*
X155584534Y-123268477D01*
X155779219Y-123205220D01*
X155961610Y-123112287D01*
X156090482Y-123018657D01*
X156127213Y-122991971D01*
X156127215Y-122991968D01*
X156127219Y-122991966D01*
X156271966Y-122847219D01*
X156271968Y-122847215D01*
X156271971Y-122847213D01*
X156349394Y-122740647D01*
X156392287Y-122681610D01*
X156485220Y-122499219D01*
X156548477Y-122304534D01*
X156580500Y-122102352D01*
X156580500Y-121897648D01*
X156553596Y-121727785D01*
X156548477Y-121695465D01*
X156488813Y-121511839D01*
X156485220Y-121500781D01*
X156485218Y-121500778D01*
X156485218Y-121500776D01*
X156433865Y-121399991D01*
X156392287Y-121318390D01*
X156353138Y-121264505D01*
X156271971Y-121152786D01*
X156127213Y-121008028D01*
X155961614Y-120887715D01*
X155955006Y-120884348D01*
X155868917Y-120840483D01*
X155818123Y-120792511D01*
X155801328Y-120724690D01*
X155823865Y-120658555D01*
X155868917Y-120619516D01*
X155961610Y-120572287D01*
X156109501Y-120464839D01*
X156127213Y-120451971D01*
X156127215Y-120451968D01*
X156127219Y-120451966D01*
X156271966Y-120307219D01*
X156271968Y-120307215D01*
X156271971Y-120307213D01*
X156347415Y-120203371D01*
X156392287Y-120141610D01*
X156485220Y-119959219D01*
X156548477Y-119764534D01*
X156580500Y-119562352D01*
X156580500Y-119357648D01*
X156548477Y-119155466D01*
X156485220Y-118960781D01*
X156485218Y-118960778D01*
X156485218Y-118960776D01*
X156427524Y-118847547D01*
X156392287Y-118778390D01*
X156384556Y-118767749D01*
X156271971Y-118612786D01*
X156127213Y-118468028D01*
X155961614Y-118347715D01*
X155955006Y-118344348D01*
X155868917Y-118300483D01*
X155818123Y-118252511D01*
X155801328Y-118184690D01*
X155823865Y-118118555D01*
X155868917Y-118079516D01*
X155961610Y-118032287D01*
X156019814Y-117990000D01*
X156127213Y-117911971D01*
X156127215Y-117911968D01*
X156127219Y-117911966D01*
X156271966Y-117767219D01*
X156271968Y-117767215D01*
X156271971Y-117767213D01*
X156340072Y-117673478D01*
X156392287Y-117601610D01*
X156485220Y-117419219D01*
X156548477Y-117224534D01*
X156580500Y-117022352D01*
X156580500Y-116817648D01*
X156548477Y-116615466D01*
X156485220Y-116420781D01*
X156485218Y-116420778D01*
X156485218Y-116420776D01*
X156451503Y-116354607D01*
X156392287Y-116238390D01*
X156383343Y-116226079D01*
X156271971Y-116072786D01*
X156127213Y-115928028D01*
X155961614Y-115807715D01*
X155925716Y-115789424D01*
X155868917Y-115760483D01*
X155818123Y-115712511D01*
X155801328Y-115644690D01*
X155823865Y-115578555D01*
X155868917Y-115539516D01*
X155961610Y-115492287D01*
X156109501Y-115384839D01*
X156127213Y-115371971D01*
X156127215Y-115371968D01*
X156127219Y-115371966D01*
X156271966Y-115227219D01*
X156271968Y-115227215D01*
X156271971Y-115227213D01*
X156324732Y-115154590D01*
X156392287Y-115061610D01*
X156485220Y-114879219D01*
X156548477Y-114684534D01*
X156580500Y-114482352D01*
X156580500Y-114277648D01*
X156567989Y-114198655D01*
X156548477Y-114075465D01*
X156517458Y-113980000D01*
X156485220Y-113880781D01*
X156485218Y-113880778D01*
X156485218Y-113880776D01*
X156424724Y-113762051D01*
X156392287Y-113698390D01*
X156360092Y-113654077D01*
X156271971Y-113532786D01*
X156127213Y-113388028D01*
X155961613Y-113267715D01*
X155961612Y-113267714D01*
X155961610Y-113267713D01*
X155887341Y-113229871D01*
X155779223Y-113174781D01*
X155584534Y-113111522D01*
X155409995Y-113083878D01*
X155382352Y-113079500D01*
X155177648Y-113079500D01*
X155153329Y-113083351D01*
X154975465Y-113111522D01*
X154780776Y-113174781D01*
X154598386Y-113267715D01*
X154432786Y-113388028D01*
X154288028Y-113532786D01*
X154167715Y-113698386D01*
X154074781Y-113880776D01*
X154011523Y-114075464D01*
X153992011Y-114198655D01*
X153962081Y-114261789D01*
X153902770Y-114298720D01*
X153832907Y-114297722D01*
X153781857Y-114266937D01*
X149475152Y-109960232D01*
X149441667Y-109898909D01*
X149446651Y-109829217D01*
X149462514Y-109799666D01*
X149490217Y-109761538D01*
X149594048Y-109557758D01*
X149651587Y-109380670D01*
X149664721Y-109340249D01*
X149664721Y-109340248D01*
X149664722Y-109340245D01*
X149700500Y-109114354D01*
X149700500Y-108885646D01*
X149664722Y-108659755D01*
X149664721Y-108659751D01*
X149664721Y-108659750D01*
X149594049Y-108442244D01*
X149490216Y-108238461D01*
X149489722Y-108237781D01*
X149355786Y-108053434D01*
X149194066Y-107891714D01*
X149109134Y-107830007D01*
X149066470Y-107774678D01*
X149060491Y-107705064D01*
X149093097Y-107643269D01*
X149109137Y-107629371D01*
X149193739Y-107567905D01*
X149355402Y-107406242D01*
X149489788Y-107221276D01*
X149593582Y-107017570D01*
X149664234Y-106800128D01*
X149678509Y-106710000D01*
X148690748Y-106710000D01*
X148712518Y-106672292D01*
X148750000Y-106532409D01*
X148750000Y-106387591D01*
X148712518Y-106247708D01*
X148690748Y-106210000D01*
X149678509Y-106210000D01*
X149664234Y-106119871D01*
X149593582Y-105902429D01*
X149489788Y-105698723D01*
X149356988Y-105515940D01*
X149333508Y-105450133D01*
X149349333Y-105382079D01*
X149399439Y-105333384D01*
X149413966Y-105326875D01*
X149442331Y-105316296D01*
X149557546Y-105230046D01*
X149643796Y-105114831D01*
X149694091Y-104979983D01*
X149700500Y-104920373D01*
X149700499Y-102919628D01*
X149694091Y-102860017D01*
X149685860Y-102837949D01*
X149643797Y-102725171D01*
X149643793Y-102725164D01*
X149557547Y-102609955D01*
X149557544Y-102609952D01*
X149442335Y-102523706D01*
X149442328Y-102523702D01*
X149307482Y-102473408D01*
X149307483Y-102473408D01*
X149247883Y-102467001D01*
X149247881Y-102467000D01*
X149247873Y-102467000D01*
X149247864Y-102467000D01*
X147152129Y-102467000D01*
X147152123Y-102467001D01*
X147092516Y-102473408D01*
X146957671Y-102523702D01*
X146957664Y-102523706D01*
X146842455Y-102609952D01*
X146842452Y-102609955D01*
X146756206Y-102725164D01*
X146756202Y-102725171D01*
X146705908Y-102860017D01*
X146699501Y-102919616D01*
X146699501Y-102919623D01*
X146699500Y-102919635D01*
X145526500Y-102919635D01*
X145526500Y-93339781D01*
X145546185Y-93272742D01*
X145562814Y-93252104D01*
X146596743Y-92218175D01*
X146658064Y-92184692D01*
X146727756Y-92189676D01*
X146783688Y-92231546D01*
X146842455Y-92310047D01*
X146957664Y-92396293D01*
X146957667Y-92396295D01*
X146957668Y-92396295D01*
X146957669Y-92396296D01*
X146986025Y-92406872D01*
X147041958Y-92448742D01*
X147066376Y-92514206D01*
X147051525Y-92582479D01*
X147043010Y-92595939D01*
X146910213Y-92778719D01*
X146806417Y-92982429D01*
X146735765Y-93199871D01*
X146721491Y-93290000D01*
X147709252Y-93290000D01*
X147687482Y-93327708D01*
X147650000Y-93467591D01*
X147650000Y-93612409D01*
X147687482Y-93752292D01*
X147709252Y-93790000D01*
X146721491Y-93790000D01*
X146735765Y-93880128D01*
X146806417Y-94097570D01*
X146910211Y-94301276D01*
X147044597Y-94486242D01*
X147206257Y-94647902D01*
X147206263Y-94647907D01*
X147290863Y-94709372D01*
X147333529Y-94764701D01*
X147339508Y-94834315D01*
X147306903Y-94896110D01*
X147290864Y-94910007D01*
X147205940Y-94971709D01*
X147205931Y-94971716D01*
X147044216Y-95133431D01*
X147044216Y-95133432D01*
X147044214Y-95133434D01*
X146986480Y-95212896D01*
X146909783Y-95318461D01*
X146805950Y-95522244D01*
X146735278Y-95739750D01*
X146735278Y-95739753D01*
X146699500Y-95965646D01*
X146699500Y-96194353D01*
X146735278Y-96420246D01*
X146735278Y-96420249D01*
X146805950Y-96637755D01*
X146909783Y-96841538D01*
X147044214Y-97026566D01*
X147044216Y-97026568D01*
X147163181Y-97145533D01*
X147196666Y-97206856D01*
X147199500Y-97233214D01*
X147199500Y-99198544D01*
X147233737Y-99370665D01*
X147237948Y-99391831D01*
X147237950Y-99391839D01*
X147313364Y-99573907D01*
X147313371Y-99573920D01*
X147422859Y-99737780D01*
X147422860Y-99737781D01*
X147422861Y-99737782D01*
X147562218Y-99877139D01*
X147562219Y-99877139D01*
X147569286Y-99884206D01*
X147569285Y-99884206D01*
X147569289Y-99884209D01*
X150932215Y-103247137D01*
X150932219Y-103247140D01*
X151096079Y-103356628D01*
X151096085Y-103356631D01*
X151096086Y-103356632D01*
X151278165Y-103432052D01*
X151439389Y-103464121D01*
X151471457Y-103470499D01*
X151471458Y-103470500D01*
X151471459Y-103470500D01*
X152428543Y-103470500D01*
X152558582Y-103444632D01*
X152621835Y-103432051D01*
X152803914Y-103356632D01*
X152967782Y-103247139D01*
X153107139Y-103107782D01*
X153216632Y-102943914D01*
X153254252Y-102853090D01*
X153298091Y-102798689D01*
X153364385Y-102776623D01*
X153393004Y-102778927D01*
X153501456Y-102800500D01*
X153501459Y-102800500D01*
X153698543Y-102800500D01*
X153828582Y-102774632D01*
X153891835Y-102762051D01*
X154073914Y-102686632D01*
X154237782Y-102577139D01*
X154377139Y-102437782D01*
X154486632Y-102273914D01*
X154562051Y-102091835D01*
X154600500Y-101898541D01*
X154600500Y-101701459D01*
X154600500Y-101701456D01*
X154562052Y-101508170D01*
X154562051Y-101508169D01*
X154562051Y-101508165D01*
X154530992Y-101433181D01*
X154486635Y-101326092D01*
X154486628Y-101326079D01*
X154377139Y-101162218D01*
X154377136Y-101162214D01*
X154237785Y-101022863D01*
X154237781Y-101022860D01*
X154073920Y-100913371D01*
X154073907Y-100913364D01*
X153891839Y-100837950D01*
X153891829Y-100837947D01*
X153698543Y-100799500D01*
X153698541Y-100799500D01*
X153501459Y-100799500D01*
X153501457Y-100799500D01*
X153308170Y-100837947D01*
X153308160Y-100837950D01*
X153126092Y-100913364D01*
X153126079Y-100913371D01*
X152962218Y-101022860D01*
X152962214Y-101022863D01*
X152822863Y-101162214D01*
X152822860Y-101162218D01*
X152713371Y-101326079D01*
X152713366Y-101326089D01*
X152675748Y-101416908D01*
X152631907Y-101471311D01*
X152565613Y-101493376D01*
X152536996Y-101491072D01*
X152428545Y-101469500D01*
X152428541Y-101469500D01*
X152035783Y-101469500D01*
X151968744Y-101449815D01*
X151948102Y-101433181D01*
X149236819Y-98721898D01*
X149203334Y-98660575D01*
X149200500Y-98634217D01*
X149200500Y-97233214D01*
X149220185Y-97166175D01*
X149236819Y-97145533D01*
X149291736Y-97090616D01*
X149355786Y-97026566D01*
X149490217Y-96841538D01*
X149594048Y-96637758D01*
X149629606Y-96528321D01*
X149664721Y-96420249D01*
X149664721Y-96420248D01*
X149664722Y-96420245D01*
X149700500Y-96194354D01*
X149700500Y-95965646D01*
X149664722Y-95739755D01*
X149664721Y-95739751D01*
X149664721Y-95739750D01*
X149594049Y-95522244D01*
X149578475Y-95491678D01*
X149490217Y-95318462D01*
X149355786Y-95133434D01*
X149194066Y-94971714D01*
X149109134Y-94910007D01*
X149066470Y-94854678D01*
X149060491Y-94785064D01*
X149093097Y-94723269D01*
X149109137Y-94709371D01*
X149193739Y-94647905D01*
X149355402Y-94486242D01*
X149489788Y-94301276D01*
X149593582Y-94097570D01*
X149664234Y-93880128D01*
X149678509Y-93790000D01*
X148690748Y-93790000D01*
X148712518Y-93752292D01*
X148750000Y-93612409D01*
X148750000Y-93467591D01*
X148712518Y-93327708D01*
X148690748Y-93290000D01*
X149678509Y-93290000D01*
X149664234Y-93199871D01*
X149593582Y-92982429D01*
X149489788Y-92778723D01*
X149356988Y-92595940D01*
X149333508Y-92530133D01*
X149349333Y-92462079D01*
X149399439Y-92413384D01*
X149413966Y-92406875D01*
X149442331Y-92396296D01*
X149557546Y-92310046D01*
X149643796Y-92194831D01*
X149694091Y-92059983D01*
X149700500Y-92000373D01*
X149700499Y-90965781D01*
X149720183Y-90898743D01*
X149736818Y-90878101D01*
X150218101Y-90396819D01*
X150279424Y-90363334D01*
X150305782Y-90360500D01*
X155037306Y-90360500D01*
X155104345Y-90380185D01*
X155150100Y-90432989D01*
X155160044Y-90502147D01*
X155155237Y-90522818D01*
X155099553Y-90694197D01*
X155069500Y-90883945D01*
X155069500Y-91076054D01*
X155099553Y-91265802D01*
X155158916Y-91448506D01*
X155158918Y-91448509D01*
X155246135Y-91619681D01*
X155359055Y-91775102D01*
X155494898Y-91910945D01*
X155650319Y-92023865D01*
X155790496Y-92095289D01*
X155821493Y-92111083D01*
X155886081Y-92132069D01*
X155943756Y-92171506D01*
X155970955Y-92235865D01*
X155959041Y-92304711D01*
X155911797Y-92356187D01*
X155886081Y-92367931D01*
X155821493Y-92388916D01*
X155650318Y-92476135D01*
X155575997Y-92530133D01*
X155494898Y-92589055D01*
X155494896Y-92589057D01*
X155494895Y-92589057D01*
X155359057Y-92724895D01*
X155359057Y-92724896D01*
X155359055Y-92724898D01*
X155319952Y-92778719D01*
X155246135Y-92880318D01*
X155158916Y-93051493D01*
X155099553Y-93234197D01*
X155082830Y-93339781D01*
X155069500Y-93423945D01*
X155069500Y-93616055D01*
X155082519Y-93698251D01*
X155099553Y-93805802D01*
X155158916Y-93988506D01*
X155214488Y-94097570D01*
X155246135Y-94159681D01*
X155359055Y-94315102D01*
X155494898Y-94450945D01*
X155650319Y-94563865D01*
X155774228Y-94627000D01*
X155821495Y-94651084D01*
X155886890Y-94672332D01*
X155944566Y-94711769D01*
X155971765Y-94776127D01*
X155959851Y-94844974D01*
X155912607Y-94896450D01*
X155886893Y-94908194D01*
X155821677Y-94929384D01*
X155650578Y-95016564D01*
X155621352Y-95037798D01*
X155621351Y-95037798D01*
X156243554Y-95660000D01*
X156237339Y-95660000D01*
X156135606Y-95687259D01*
X156044394Y-95739920D01*
X155969920Y-95814394D01*
X155917259Y-95905606D01*
X155890000Y-96007339D01*
X155890000Y-96013553D01*
X155267798Y-95391351D01*
X155267798Y-95391352D01*
X155246564Y-95420578D01*
X155159383Y-95591678D01*
X155100040Y-95774315D01*
X155070000Y-95963984D01*
X155070000Y-96156015D01*
X155100040Y-96345684D01*
X155159383Y-96528321D01*
X155246561Y-96699415D01*
X155267798Y-96728646D01*
X155890000Y-96106445D01*
X155890000Y-96112661D01*
X155917259Y-96214394D01*
X155969920Y-96305606D01*
X156044394Y-96380080D01*
X156135606Y-96432741D01*
X156237339Y-96460000D01*
X156243554Y-96460000D01*
X155621351Y-97082200D01*
X155621352Y-97082201D01*
X155650577Y-97103434D01*
X155821678Y-97190616D01*
X156004315Y-97249959D01*
X156193985Y-97280000D01*
X156386015Y-97280000D01*
X156575684Y-97249959D01*
X156758321Y-97190616D01*
X156929419Y-97103436D01*
X156958646Y-97082201D01*
X156958646Y-97082200D01*
X156336447Y-96460000D01*
X156342661Y-96460000D01*
X156444394Y-96432741D01*
X156535606Y-96380080D01*
X156610080Y-96305606D01*
X156662741Y-96214394D01*
X156690000Y-96112661D01*
X156690000Y-96106446D01*
X157312200Y-96728646D01*
X157312201Y-96728646D01*
X157333436Y-96699419D01*
X157415015Y-96539313D01*
X157462990Y-96488517D01*
X157530811Y-96471722D01*
X157596945Y-96494259D01*
X157640397Y-96548974D01*
X157649500Y-96595608D01*
X157649500Y-104448324D01*
X157629815Y-104515363D01*
X157577011Y-104561118D01*
X157507853Y-104571062D01*
X157501309Y-104569941D01*
X157398545Y-104549500D01*
X157398541Y-104549500D01*
X157201459Y-104549500D01*
X157201457Y-104549500D01*
X157008170Y-104587947D01*
X157008160Y-104587950D01*
X156826092Y-104663364D01*
X156826079Y-104663371D01*
X156662218Y-104772860D01*
X156662214Y-104772863D01*
X156522863Y-104912214D01*
X156522860Y-104912218D01*
X156413371Y-105076079D01*
X156413364Y-105076092D01*
X156337950Y-105258160D01*
X156337947Y-105258170D01*
X156299500Y-105451456D01*
X156299500Y-105451459D01*
X156299500Y-105648541D01*
X156299500Y-105648543D01*
X156299499Y-105648543D01*
X156337947Y-105841829D01*
X156337950Y-105841839D01*
X156413364Y-106023907D01*
X156413371Y-106023920D01*
X156522860Y-106187781D01*
X156522863Y-106187785D01*
X156662214Y-106327136D01*
X156662218Y-106327139D01*
X156826079Y-106436628D01*
X156826092Y-106436635D01*
X157008160Y-106512049D01*
X157008165Y-106512051D01*
X157008169Y-106512051D01*
X157008170Y-106512052D01*
X157201456Y-106550500D01*
X157201459Y-106550500D01*
X157398543Y-106550500D01*
X157474191Y-106535452D01*
X157501308Y-106530058D01*
X157570899Y-106536285D01*
X157626077Y-106579147D01*
X157649322Y-106645037D01*
X157649500Y-106651675D01*
X157649500Y-123864071D01*
X157665012Y-123942051D01*
X157665012Y-123942052D01*
X157674497Y-123989736D01*
X157674499Y-123989744D01*
X157693694Y-124036086D01*
X157723535Y-124108127D01*
X157794723Y-124214669D01*
X157863181Y-124283126D01*
X157896666Y-124344449D01*
X157899500Y-124370808D01*
X157899500Y-124498541D01*
X157899500Y-124498543D01*
X157899499Y-124498543D01*
X157937947Y-124691829D01*
X157937949Y-124691835D01*
X157978166Y-124788929D01*
X157981016Y-124795808D01*
X157988485Y-124865278D01*
X157957210Y-124927757D01*
X157954136Y-124930942D01*
X157822863Y-125062214D01*
X157822860Y-125062218D01*
X157713371Y-125226079D01*
X157713364Y-125226092D01*
X157637950Y-125408160D01*
X157637947Y-125408170D01*
X157599500Y-125601456D01*
X157599500Y-125601459D01*
X157599500Y-125798541D01*
X157599500Y-125798543D01*
X157599499Y-125798543D01*
X157637947Y-125991829D01*
X157637950Y-125991839D01*
X157713364Y-126173907D01*
X157713371Y-126173920D01*
X157822860Y-126337781D01*
X157822863Y-126337785D01*
X157962214Y-126477136D01*
X157962218Y-126477139D01*
X158126079Y-126586628D01*
X158126092Y-126586635D01*
X158248550Y-126637358D01*
X158308165Y-126662051D01*
X158451277Y-126690518D01*
X158466449Y-126693536D01*
X158528360Y-126725921D01*
X158562934Y-126786636D01*
X158559195Y-126856406D01*
X158556820Y-126862603D01*
X158537950Y-126908160D01*
X158537947Y-126908170D01*
X158499500Y-127101456D01*
X158499500Y-127101459D01*
X158499500Y-127298541D01*
X158499500Y-127298543D01*
X158499499Y-127298543D01*
X158537947Y-127491829D01*
X158537950Y-127491839D01*
X158613364Y-127673907D01*
X158613371Y-127673920D01*
X158722860Y-127837781D01*
X158722863Y-127837785D01*
X158862214Y-127977136D01*
X158862218Y-127977139D01*
X159026079Y-128086628D01*
X159026092Y-128086635D01*
X159208160Y-128162049D01*
X159208165Y-128162051D01*
X159208169Y-128162051D01*
X159208170Y-128162052D01*
X159401456Y-128200500D01*
X159401459Y-128200500D01*
X159598543Y-128200500D01*
X159728582Y-128174632D01*
X159791835Y-128162051D01*
X159973914Y-128086632D01*
X160137782Y-127977139D01*
X160277139Y-127837782D01*
X160386632Y-127673914D01*
X160462051Y-127491835D01*
X160500500Y-127298541D01*
X160500500Y-127101459D01*
X160500500Y-127101456D01*
X160462052Y-126908170D01*
X160462051Y-126908169D01*
X160462051Y-126908165D01*
X160459001Y-126900802D01*
X160386635Y-126726092D01*
X160386628Y-126726079D01*
X160277139Y-126562218D01*
X160277136Y-126562214D01*
X160137785Y-126422863D01*
X160137781Y-126422860D01*
X159973920Y-126313371D01*
X159973907Y-126313364D01*
X159791839Y-126237950D01*
X159791829Y-126237947D01*
X159633549Y-126206463D01*
X159571638Y-126174078D01*
X159537064Y-126113362D01*
X159540804Y-126043593D01*
X159543180Y-126037393D01*
X159562051Y-125991835D01*
X159590525Y-125848687D01*
X159600500Y-125798543D01*
X159600500Y-125601456D01*
X159562052Y-125408170D01*
X159562051Y-125408169D01*
X159562051Y-125408165D01*
X159562049Y-125408160D01*
X159518984Y-125304190D01*
X159511515Y-125234721D01*
X159542790Y-125172242D01*
X159545836Y-125169084D01*
X159677139Y-125037782D01*
X159786632Y-124873914D01*
X159862051Y-124691835D01*
X159900500Y-124498541D01*
X159900500Y-124301459D01*
X159900500Y-124301456D01*
X159862052Y-124108170D01*
X159862051Y-124108169D01*
X159862051Y-124108165D01*
X159862035Y-124108127D01*
X159786635Y-123926092D01*
X159786628Y-123926079D01*
X159677139Y-123762218D01*
X159677136Y-123762214D01*
X159537785Y-123622863D01*
X159537781Y-123622860D01*
X159373920Y-123513371D01*
X159373907Y-123513364D01*
X159191839Y-123437950D01*
X159191829Y-123437947D01*
X159050308Y-123409796D01*
X158988397Y-123377411D01*
X158953823Y-123316695D01*
X158950500Y-123288179D01*
X158950500Y-112498543D01*
X165599499Y-112498543D01*
X165637947Y-112691829D01*
X165637950Y-112691839D01*
X165713364Y-112873907D01*
X165713371Y-112873920D01*
X165822860Y-113037781D01*
X165822863Y-113037785D01*
X165962214Y-113177136D01*
X165962218Y-113177139D01*
X166126079Y-113286628D01*
X166126092Y-113286635D01*
X166308160Y-113362049D01*
X166308165Y-113362051D01*
X166308169Y-113362051D01*
X166308170Y-113362052D01*
X166501456Y-113400500D01*
X166501459Y-113400500D01*
X166698543Y-113400500D01*
X166828582Y-113374632D01*
X166891835Y-113362051D01*
X167032655Y-113303721D01*
X167073907Y-113286635D01*
X167073907Y-113286634D01*
X167073914Y-113286632D01*
X167237782Y-113177139D01*
X167377139Y-113037782D01*
X167470175Y-112898543D01*
X172499499Y-112898543D01*
X172537947Y-113091829D01*
X172537950Y-113091839D01*
X172613364Y-113273907D01*
X172613371Y-113273920D01*
X172722860Y-113437781D01*
X172722863Y-113437785D01*
X172862214Y-113577136D01*
X172862218Y-113577139D01*
X173026079Y-113686628D01*
X173026092Y-113686635D01*
X173208160Y-113762049D01*
X173208165Y-113762051D01*
X173208169Y-113762051D01*
X173208170Y-113762052D01*
X173401456Y-113800500D01*
X173401459Y-113800500D01*
X173598543Y-113800500D01*
X173728582Y-113774632D01*
X173791835Y-113762051D01*
X173944914Y-113698644D01*
X173973907Y-113686635D01*
X173973907Y-113686634D01*
X173973914Y-113686632D01*
X174137782Y-113577139D01*
X174277139Y-113437782D01*
X174386632Y-113273914D01*
X174462051Y-113091835D01*
X174500500Y-112898541D01*
X174500500Y-112701459D01*
X174500500Y-112701456D01*
X174462052Y-112508170D01*
X174462051Y-112508169D01*
X174462051Y-112508165D01*
X174462049Y-112508160D01*
X174386635Y-112326092D01*
X174386628Y-112326079D01*
X174277139Y-112162218D01*
X174277136Y-112162214D01*
X174137785Y-112022863D01*
X174137781Y-112022860D01*
X173973920Y-111913371D01*
X173973907Y-111913364D01*
X173791839Y-111837950D01*
X173791829Y-111837947D01*
X173598543Y-111799500D01*
X173598541Y-111799500D01*
X173401459Y-111799500D01*
X173401457Y-111799500D01*
X173208170Y-111837947D01*
X173208160Y-111837950D01*
X173026092Y-111913364D01*
X173026079Y-111913371D01*
X172862218Y-112022860D01*
X172862214Y-112022863D01*
X172722863Y-112162214D01*
X172722860Y-112162218D01*
X172613371Y-112326079D01*
X172613364Y-112326092D01*
X172537950Y-112508160D01*
X172537947Y-112508170D01*
X172499500Y-112701456D01*
X172499500Y-112701459D01*
X172499500Y-112898541D01*
X172499500Y-112898543D01*
X172499499Y-112898543D01*
X167470175Y-112898543D01*
X167486632Y-112873914D01*
X167562051Y-112691835D01*
X167600500Y-112498541D01*
X167600500Y-112301459D01*
X167600500Y-112301456D01*
X167562052Y-112108170D01*
X167562051Y-112108169D01*
X167562051Y-112108165D01*
X167559694Y-112102474D01*
X167486635Y-111926092D01*
X167486628Y-111926079D01*
X167377139Y-111762218D01*
X167377136Y-111762214D01*
X167237785Y-111622863D01*
X167237781Y-111622860D01*
X167073920Y-111513371D01*
X167073907Y-111513364D01*
X166891839Y-111437950D01*
X166891829Y-111437947D01*
X166698543Y-111399500D01*
X166698541Y-111399500D01*
X166501459Y-111399500D01*
X166501457Y-111399500D01*
X166308170Y-111437947D01*
X166308160Y-111437950D01*
X166126092Y-111513364D01*
X166126079Y-111513371D01*
X165962218Y-111622860D01*
X165962214Y-111622863D01*
X165822863Y-111762214D01*
X165822860Y-111762218D01*
X165713371Y-111926079D01*
X165713364Y-111926092D01*
X165637950Y-112108160D01*
X165637947Y-112108170D01*
X165599500Y-112301456D01*
X165599500Y-112301459D01*
X165599500Y-112498541D01*
X165599500Y-112498543D01*
X165599499Y-112498543D01*
X158950500Y-112498543D01*
X158950500Y-109698543D01*
X169299499Y-109698543D01*
X169337947Y-109891829D01*
X169337950Y-109891839D01*
X169413364Y-110073907D01*
X169413371Y-110073920D01*
X169522860Y-110237781D01*
X169522863Y-110237785D01*
X169662214Y-110377136D01*
X169662218Y-110377139D01*
X169826079Y-110486628D01*
X169826092Y-110486635D01*
X170008160Y-110562049D01*
X170008165Y-110562051D01*
X170008169Y-110562051D01*
X170008170Y-110562052D01*
X170201456Y-110600500D01*
X170201459Y-110600500D01*
X170398543Y-110600500D01*
X170532196Y-110573914D01*
X170591835Y-110562051D01*
X170773914Y-110486632D01*
X170937782Y-110377139D01*
X171077139Y-110237782D01*
X171186632Y-110073914D01*
X171190104Y-110065533D01*
X171203721Y-110032655D01*
X171262051Y-109891835D01*
X171300500Y-109698541D01*
X171300500Y-109501459D01*
X171300500Y-109501456D01*
X171262052Y-109308170D01*
X171262051Y-109308169D01*
X171262051Y-109308165D01*
X171262049Y-109308160D01*
X171186635Y-109126092D01*
X171186628Y-109126079D01*
X171077139Y-108962218D01*
X171077136Y-108962214D01*
X170937785Y-108822863D01*
X170937781Y-108822860D01*
X170773920Y-108713371D01*
X170773907Y-108713364D01*
X170591839Y-108637950D01*
X170591829Y-108637947D01*
X170398543Y-108599500D01*
X170398541Y-108599500D01*
X170201459Y-108599500D01*
X170201457Y-108599500D01*
X170008170Y-108637947D01*
X170008160Y-108637950D01*
X169826092Y-108713364D01*
X169826079Y-108713371D01*
X169662218Y-108822860D01*
X169662214Y-108822863D01*
X169522863Y-108962214D01*
X169522860Y-108962218D01*
X169413371Y-109126079D01*
X169413364Y-109126092D01*
X169337950Y-109308160D01*
X169337947Y-109308170D01*
X169299500Y-109501456D01*
X169299500Y-109501459D01*
X169299500Y-109698541D01*
X169299500Y-109698543D01*
X169299499Y-109698543D01*
X158950500Y-109698543D01*
X158950500Y-108599481D01*
X158970185Y-108532442D01*
X159022989Y-108486687D01*
X159092147Y-108476743D01*
X159121952Y-108484920D01*
X159236682Y-108532442D01*
X159308165Y-108562051D01*
X159308169Y-108562051D01*
X159308170Y-108562052D01*
X159501456Y-108600500D01*
X159501459Y-108600500D01*
X159698543Y-108600500D01*
X159828582Y-108574632D01*
X159891835Y-108562051D01*
X160073914Y-108486632D01*
X160237782Y-108377139D01*
X160377139Y-108237782D01*
X160486632Y-108073914D01*
X160562051Y-107891835D01*
X160585355Y-107774678D01*
X160600500Y-107698543D01*
X160600500Y-107501456D01*
X160562052Y-107308170D01*
X160562051Y-107308169D01*
X160562051Y-107308165D01*
X160526061Y-107221276D01*
X160486635Y-107126092D01*
X160486628Y-107126079D01*
X160377139Y-106962218D01*
X160377136Y-106962214D01*
X160237785Y-106822863D01*
X160237781Y-106822860D01*
X160073920Y-106713371D01*
X160073907Y-106713364D01*
X159891839Y-106637950D01*
X159891829Y-106637947D01*
X159698543Y-106599500D01*
X159698541Y-106599500D01*
X159501459Y-106599500D01*
X159501457Y-106599500D01*
X159308170Y-106637947D01*
X159308160Y-106637950D01*
X159121952Y-106715079D01*
X159052482Y-106722548D01*
X158990003Y-106691272D01*
X158954352Y-106631183D01*
X158950500Y-106600518D01*
X158950500Y-103898543D01*
X173899499Y-103898543D01*
X173937947Y-104091829D01*
X173937950Y-104091839D01*
X174013364Y-104273907D01*
X174013371Y-104273920D01*
X174122860Y-104437781D01*
X174122863Y-104437785D01*
X174262214Y-104577136D01*
X174262218Y-104577139D01*
X174426079Y-104686628D01*
X174426092Y-104686635D01*
X174608160Y-104762049D01*
X174608165Y-104762051D01*
X174608169Y-104762051D01*
X174608170Y-104762052D01*
X174801456Y-104800500D01*
X174801459Y-104800500D01*
X174998543Y-104800500D01*
X175137495Y-104772860D01*
X175191835Y-104762051D01*
X175373914Y-104686632D01*
X175537782Y-104577139D01*
X175677139Y-104437782D01*
X175786632Y-104273914D01*
X175862051Y-104091835D01*
X175900500Y-103898541D01*
X175900500Y-103701459D01*
X175900500Y-103701456D01*
X175862052Y-103508170D01*
X175862051Y-103508169D01*
X175862051Y-103508165D01*
X175846450Y-103470500D01*
X175786635Y-103326092D01*
X175786628Y-103326079D01*
X175677139Y-103162218D01*
X175677136Y-103162214D01*
X175537785Y-103022863D01*
X175537781Y-103022860D01*
X175373920Y-102913371D01*
X175373907Y-102913364D01*
X175191839Y-102837950D01*
X175191829Y-102837947D01*
X174998543Y-102799500D01*
X174998541Y-102799500D01*
X174801459Y-102799500D01*
X174801457Y-102799500D01*
X174608170Y-102837947D01*
X174608160Y-102837950D01*
X174426092Y-102913364D01*
X174426079Y-102913371D01*
X174262218Y-103022860D01*
X174262214Y-103022863D01*
X174122863Y-103162214D01*
X174122860Y-103162218D01*
X174013371Y-103326079D01*
X174013364Y-103326092D01*
X173937950Y-103508160D01*
X173937947Y-103508170D01*
X173899500Y-103701456D01*
X173899500Y-103701459D01*
X173899500Y-103898541D01*
X173899500Y-103898543D01*
X173899499Y-103898543D01*
X158950500Y-103898543D01*
X158950500Y-101598543D01*
X171109499Y-101598543D01*
X171147947Y-101791829D01*
X171147950Y-101791839D01*
X171223364Y-101973907D01*
X171223371Y-101973920D01*
X171332860Y-102137781D01*
X171332863Y-102137785D01*
X171472214Y-102277136D01*
X171472218Y-102277139D01*
X171636079Y-102386628D01*
X171636092Y-102386635D01*
X171759581Y-102437785D01*
X171818165Y-102462051D01*
X171818169Y-102462051D01*
X171818170Y-102462052D01*
X172011456Y-102500500D01*
X172011459Y-102500500D01*
X172208543Y-102500500D01*
X172344740Y-102473408D01*
X172401835Y-102462051D01*
X172583914Y-102386632D01*
X172747782Y-102277139D01*
X172887139Y-102137782D01*
X172996632Y-101973914D01*
X173072051Y-101791835D01*
X173110500Y-101598541D01*
X173110500Y-101401459D01*
X173110500Y-101401456D01*
X173072052Y-101208170D01*
X173072051Y-101208169D01*
X173072051Y-101208165D01*
X173053018Y-101162214D01*
X172996635Y-101026092D01*
X172996628Y-101026079D01*
X172887139Y-100862218D01*
X172887136Y-100862214D01*
X172747785Y-100722863D01*
X172747781Y-100722860D01*
X172583920Y-100613371D01*
X172583907Y-100613364D01*
X172401839Y-100537950D01*
X172401829Y-100537947D01*
X172208543Y-100499500D01*
X172208541Y-100499500D01*
X172011459Y-100499500D01*
X172011457Y-100499500D01*
X171818170Y-100537947D01*
X171818160Y-100537950D01*
X171636092Y-100613364D01*
X171636079Y-100613371D01*
X171472218Y-100722860D01*
X171472214Y-100722863D01*
X171332863Y-100862214D01*
X171332860Y-100862218D01*
X171223371Y-101026079D01*
X171223364Y-101026092D01*
X171147950Y-101208160D01*
X171147947Y-101208170D01*
X171109500Y-101401456D01*
X171109500Y-101401459D01*
X171109500Y-101598541D01*
X171109500Y-101598543D01*
X171109499Y-101598543D01*
X158950500Y-101598543D01*
X158950500Y-98798543D01*
X174699499Y-98798543D01*
X174737947Y-98991829D01*
X174737950Y-98991839D01*
X174813364Y-99173907D01*
X174813371Y-99173920D01*
X174922860Y-99337781D01*
X174922863Y-99337785D01*
X175062214Y-99477136D01*
X175062218Y-99477139D01*
X175226079Y-99586628D01*
X175226092Y-99586635D01*
X175408160Y-99662049D01*
X175408165Y-99662051D01*
X175408169Y-99662051D01*
X175408170Y-99662052D01*
X175601456Y-99700500D01*
X175601459Y-99700500D01*
X175798543Y-99700500D01*
X175928582Y-99674632D01*
X175991835Y-99662051D01*
X176173914Y-99586632D01*
X176337782Y-99477139D01*
X176477139Y-99337782D01*
X176586632Y-99173914D01*
X176662051Y-98991835D01*
X176700500Y-98798541D01*
X176700500Y-98601459D01*
X176700500Y-98601456D01*
X176662052Y-98408170D01*
X176662051Y-98408169D01*
X176662051Y-98408165D01*
X176662049Y-98408160D01*
X176586635Y-98226092D01*
X176586628Y-98226079D01*
X176477139Y-98062218D01*
X176477136Y-98062214D01*
X176337785Y-97922863D01*
X176337781Y-97922860D01*
X176173920Y-97813371D01*
X176173907Y-97813364D01*
X175991839Y-97737950D01*
X175991829Y-97737947D01*
X175798543Y-97699500D01*
X175798541Y-97699500D01*
X175601459Y-97699500D01*
X175601457Y-97699500D01*
X175408170Y-97737947D01*
X175408160Y-97737950D01*
X175226092Y-97813364D01*
X175226079Y-97813371D01*
X175062218Y-97922860D01*
X175062214Y-97922863D01*
X174922863Y-98062214D01*
X174922860Y-98062218D01*
X174813371Y-98226079D01*
X174813364Y-98226092D01*
X174737950Y-98408160D01*
X174737947Y-98408170D01*
X174699500Y-98601456D01*
X174699500Y-98601459D01*
X174699500Y-98798541D01*
X174699500Y-98798543D01*
X174699499Y-98798543D01*
X158950500Y-98798543D01*
X158950500Y-95375928D01*
X158925502Y-95250261D01*
X158925501Y-95250260D01*
X158925501Y-95250256D01*
X158877111Y-95133432D01*
X158876466Y-95131875D01*
X158876461Y-95131866D01*
X158805277Y-95025332D01*
X158796509Y-95016564D01*
X158714669Y-94934724D01*
X157539520Y-93759574D01*
X157506035Y-93698251D01*
X157504728Y-93652494D01*
X157510500Y-93616053D01*
X157510500Y-93423945D01*
X157480447Y-93234199D01*
X157421082Y-93051491D01*
X157333865Y-92880319D01*
X157220945Y-92724898D01*
X157085102Y-92589055D01*
X156929681Y-92476135D01*
X156902095Y-92462079D01*
X156758504Y-92388915D01*
X156693919Y-92367931D01*
X156636243Y-92328494D01*
X156609044Y-92264136D01*
X156620958Y-92195289D01*
X156668202Y-92143813D01*
X156693919Y-92132069D01*
X156758504Y-92111084D01*
X156758506Y-92111082D01*
X156758509Y-92111082D01*
X156929681Y-92023865D01*
X157085102Y-91910945D01*
X157220945Y-91775102D01*
X157333865Y-91619681D01*
X157421082Y-91448509D01*
X157480447Y-91265801D01*
X157510500Y-91076055D01*
X157510500Y-90883945D01*
X157480447Y-90694199D01*
X157461165Y-90634856D01*
X157424763Y-90522818D01*
X157422768Y-90452976D01*
X157458849Y-90393144D01*
X157521550Y-90362316D01*
X157542694Y-90360500D01*
X162424815Y-90360500D01*
X162491854Y-90380185D01*
X162537609Y-90432989D01*
X162547553Y-90502147D01*
X162542746Y-90522818D01*
X162519553Y-90594198D01*
X162489500Y-90783945D01*
X162489500Y-90976054D01*
X162519553Y-91165802D01*
X162578916Y-91348506D01*
X162578918Y-91348509D01*
X162666135Y-91519681D01*
X162779055Y-91675102D01*
X162914898Y-91810945D01*
X163070319Y-91923865D01*
X163166738Y-91972993D01*
X163241493Y-92011083D01*
X163306081Y-92032069D01*
X163363756Y-92071506D01*
X163390955Y-92135865D01*
X163379041Y-92204711D01*
X163331797Y-92256187D01*
X163306081Y-92267931D01*
X163241493Y-92288916D01*
X163070318Y-92376135D01*
X163019050Y-92413384D01*
X162914898Y-92489055D01*
X162914896Y-92489057D01*
X162914895Y-92489057D01*
X162779057Y-92624895D01*
X162779057Y-92624896D01*
X162779055Y-92624898D01*
X162761468Y-92649105D01*
X162666135Y-92780318D01*
X162578916Y-92951493D01*
X162519553Y-93134197D01*
X162489500Y-93323945D01*
X162489500Y-93516054D01*
X162519553Y-93705802D01*
X162578916Y-93888506D01*
X162578918Y-93888509D01*
X162666135Y-94059681D01*
X162779055Y-94215102D01*
X162914898Y-94350945D01*
X163070319Y-94463865D01*
X163241491Y-94551082D01*
X163241495Y-94551084D01*
X163306890Y-94572332D01*
X163364566Y-94611769D01*
X163391765Y-94676127D01*
X163379851Y-94744974D01*
X163332607Y-94796450D01*
X163306893Y-94808194D01*
X163241677Y-94829384D01*
X163070578Y-94916564D01*
X163041352Y-94937798D01*
X163041351Y-94937798D01*
X163663554Y-95560000D01*
X163657339Y-95560000D01*
X163555606Y-95587259D01*
X163464394Y-95639920D01*
X163389920Y-95714394D01*
X163337259Y-95805606D01*
X163310000Y-95907339D01*
X163310000Y-95913553D01*
X162687798Y-95291351D01*
X162687798Y-95291352D01*
X162666564Y-95320578D01*
X162579383Y-95491678D01*
X162520040Y-95674315D01*
X162490000Y-95863984D01*
X162490000Y-96056015D01*
X162520040Y-96245684D01*
X162579383Y-96428321D01*
X162666561Y-96599415D01*
X162687798Y-96628646D01*
X163310000Y-96006445D01*
X163310000Y-96012661D01*
X163337259Y-96114394D01*
X163389920Y-96205606D01*
X163464394Y-96280080D01*
X163555606Y-96332741D01*
X163657339Y-96360000D01*
X163663554Y-96360000D01*
X163041351Y-96982200D01*
X163041352Y-96982201D01*
X163070577Y-97003434D01*
X163241678Y-97090616D01*
X163424315Y-97149959D01*
X163613985Y-97180000D01*
X163806015Y-97180000D01*
X163995684Y-97149959D01*
X164178321Y-97090616D01*
X164349419Y-97003436D01*
X164378646Y-96982201D01*
X164378646Y-96982200D01*
X163756447Y-96360000D01*
X163762661Y-96360000D01*
X163864394Y-96332741D01*
X163955606Y-96280080D01*
X164030080Y-96205606D01*
X164082741Y-96114394D01*
X164110000Y-96012661D01*
X164110000Y-96006446D01*
X164732200Y-96628646D01*
X164732201Y-96628646D01*
X164753436Y-96599419D01*
X164840616Y-96428321D01*
X164899959Y-96245684D01*
X164930000Y-96056015D01*
X164930000Y-95863984D01*
X164899959Y-95674315D01*
X164840616Y-95491678D01*
X164753434Y-95320577D01*
X164732201Y-95291352D01*
X164732200Y-95291351D01*
X164110000Y-95913552D01*
X164110000Y-95907339D01*
X164082741Y-95805606D01*
X164030080Y-95714394D01*
X163955606Y-95639920D01*
X163864394Y-95587259D01*
X163762661Y-95560000D01*
X163756447Y-95560000D01*
X164378646Y-94937798D01*
X164349415Y-94916561D01*
X164178321Y-94829383D01*
X164113107Y-94808194D01*
X164055432Y-94768756D01*
X164028234Y-94704397D01*
X164040149Y-94635551D01*
X164087394Y-94584075D01*
X164113109Y-94572332D01*
X164178504Y-94551084D01*
X164178506Y-94551082D01*
X164178509Y-94551082D01*
X164349681Y-94463865D01*
X164505102Y-94350945D01*
X164640945Y-94215102D01*
X164753865Y-94059681D01*
X164841082Y-93888509D01*
X164900447Y-93705801D01*
X164930500Y-93516055D01*
X164930500Y-93323945D01*
X164900447Y-93134199D01*
X164900446Y-93134195D01*
X164854806Y-92993728D01*
X164854803Y-92993718D01*
X164845369Y-92964686D01*
X164841082Y-92951491D01*
X164753865Y-92780319D01*
X164640945Y-92624898D01*
X164505102Y-92489055D01*
X164349681Y-92376135D01*
X164310531Y-92356187D01*
X164178504Y-92288915D01*
X164113919Y-92267931D01*
X164056243Y-92228494D01*
X164029044Y-92164136D01*
X164040958Y-92095289D01*
X164088202Y-92043813D01*
X164113919Y-92032069D01*
X164178504Y-92011084D01*
X164178506Y-92011082D01*
X164178509Y-92011082D01*
X164349681Y-91923865D01*
X164505102Y-91810945D01*
X164640945Y-91675102D01*
X164753865Y-91519681D01*
X164841082Y-91348509D01*
X164900447Y-91165801D01*
X164930500Y-90976055D01*
X164930500Y-90783945D01*
X164900447Y-90594199D01*
X164877253Y-90522817D01*
X164875259Y-90452977D01*
X164911339Y-90393144D01*
X164974040Y-90362316D01*
X164995185Y-90360500D01*
X168687865Y-90360500D01*
X168754904Y-90380185D01*
X168800659Y-90432989D01*
X168810603Y-90502147D01*
X168801314Y-90522485D01*
X168798571Y-90557340D01*
X169538268Y-91297037D01*
X169474684Y-91314075D01*
X169360670Y-91379901D01*
X169267578Y-91472993D01*
X169201752Y-91587007D01*
X169184714Y-91650590D01*
X168445017Y-90910894D01*
X168384761Y-90993830D01*
X168277574Y-91204197D01*
X168204611Y-91428752D01*
X168167677Y-91661947D01*
X168167677Y-91898052D01*
X168204611Y-92131247D01*
X168277574Y-92355802D01*
X168384764Y-92566174D01*
X168445015Y-92649104D01*
X168445017Y-92649105D01*
X169184714Y-91909408D01*
X169201752Y-91972993D01*
X169267578Y-92087007D01*
X169360670Y-92180099D01*
X169474684Y-92245925D01*
X169538267Y-92262962D01*
X168798570Y-93002658D01*
X168881505Y-93062914D01*
X169091874Y-93170102D01*
X169316429Y-93243065D01*
X169316428Y-93243065D01*
X169549625Y-93280000D01*
X169785729Y-93280000D01*
X170018924Y-93243065D01*
X170243479Y-93170102D01*
X170453840Y-93062918D01*
X170453846Y-93062914D01*
X170536781Y-93002658D01*
X170536782Y-93002658D01*
X169797085Y-92262962D01*
X169860670Y-92245925D01*
X169974684Y-92180099D01*
X170067776Y-92087007D01*
X170133602Y-91972993D01*
X170150639Y-91909409D01*
X170890335Y-92649105D01*
X170890335Y-92649104D01*
X170950591Y-92566169D01*
X170950595Y-92566163D01*
X171057779Y-92355802D01*
X171130742Y-92131247D01*
X171167677Y-91898052D01*
X171167677Y-91661947D01*
X171130742Y-91428752D01*
X171057779Y-91204197D01*
X170950591Y-90993828D01*
X170890335Y-90910894D01*
X170890335Y-90910893D01*
X170150639Y-91650590D01*
X170133602Y-91587007D01*
X170067776Y-91472993D01*
X169974684Y-91379901D01*
X169860670Y-91314075D01*
X169797086Y-91297037D01*
X170536782Y-90557340D01*
X170534891Y-90533318D01*
X170531937Y-90529487D01*
X170525959Y-90459873D01*
X170558566Y-90398079D01*
X170619405Y-90363722D01*
X170647489Y-90360500D01*
X173111631Y-90360500D01*
X173178670Y-90380185D01*
X173224425Y-90432989D01*
X173234369Y-90502147D01*
X173225497Y-90528806D01*
X173226980Y-90529359D01*
X173173585Y-90672517D01*
X173169093Y-90714303D01*
X173167178Y-90732123D01*
X173167177Y-90732135D01*
X173167177Y-92827870D01*
X173167178Y-92827876D01*
X173173585Y-92887483D01*
X173223879Y-93022328D01*
X173223883Y-93022335D01*
X173310129Y-93137544D01*
X173310132Y-93137547D01*
X173425341Y-93223793D01*
X173425348Y-93223797D01*
X173560194Y-93274091D01*
X173560193Y-93274091D01*
X173567121Y-93274835D01*
X173619804Y-93280500D01*
X175715549Y-93280499D01*
X175775160Y-93274091D01*
X175910008Y-93223796D01*
X176025223Y-93137546D01*
X176111473Y-93022331D01*
X176161768Y-92887483D01*
X176168177Y-92827873D01*
X176168176Y-90732128D01*
X176161768Y-90672517D01*
X176132557Y-90594199D01*
X176111474Y-90537671D01*
X176111470Y-90537664D01*
X176025224Y-90422455D01*
X176025221Y-90422452D01*
X175910012Y-90336206D01*
X175910005Y-90336202D01*
X175775159Y-90285908D01*
X175775160Y-90285908D01*
X175715560Y-90279501D01*
X175715558Y-90279500D01*
X175715550Y-90279500D01*
X175715542Y-90279500D01*
X174434784Y-90279500D01*
X174413540Y-90273262D01*
X174391453Y-90271683D01*
X174380667Y-90263609D01*
X174367745Y-90259815D01*
X174353247Y-90243083D01*
X174335519Y-90229813D01*
X174330810Y-90217190D01*
X174321990Y-90207011D01*
X174318838Y-90185095D01*
X174311100Y-90164349D01*
X174313963Y-90151185D01*
X174312046Y-90137853D01*
X174321243Y-90117712D01*
X174325950Y-90096076D01*
X174339221Y-90078346D01*
X174341071Y-90074297D01*
X174347100Y-90067821D01*
X174354884Y-90060037D01*
X174417139Y-89997782D01*
X174417141Y-89997778D01*
X177507778Y-86907141D01*
X177507782Y-86907139D01*
X177647139Y-86767782D01*
X177756632Y-86603914D01*
X177809961Y-86475165D01*
X177832051Y-86421836D01*
X177870500Y-86228540D01*
X177870500Y-86031460D01*
X177870500Y-85491459D01*
X177870500Y-85491456D01*
X177832052Y-85298170D01*
X177832051Y-85298169D01*
X177832051Y-85298165D01*
X177794107Y-85206559D01*
X177756635Y-85116092D01*
X177756628Y-85116079D01*
X177647139Y-84952218D01*
X177647136Y-84952214D01*
X177507785Y-84812863D01*
X177507781Y-84812860D01*
X177343920Y-84703371D01*
X177343907Y-84703364D01*
X177161839Y-84627950D01*
X177161829Y-84627947D01*
X176968543Y-84589500D01*
X176968541Y-84589500D01*
X176771459Y-84589500D01*
X176771454Y-84589500D01*
X176711554Y-84601415D01*
X176641962Y-84595188D01*
X176586785Y-84552325D01*
X176563541Y-84486435D01*
X176576030Y-84430259D01*
X176574301Y-84429543D01*
X176652049Y-84241839D01*
X176652051Y-84241835D01*
X176690500Y-84048541D01*
X176690500Y-83841459D01*
X176690500Y-83841456D01*
X176652052Y-83648170D01*
X176652051Y-83648169D01*
X176652051Y-83648165D01*
X176627886Y-83589824D01*
X176576635Y-83466092D01*
X176576628Y-83466079D01*
X176467139Y-83302218D01*
X176467136Y-83302214D01*
X176327785Y-83162863D01*
X176327781Y-83162860D01*
X176163920Y-83053371D01*
X176163907Y-83053364D01*
X175981839Y-82977950D01*
X175981829Y-82977947D01*
X175788543Y-82939500D01*
X175788541Y-82939500D01*
X175591459Y-82939500D01*
X175591457Y-82939500D01*
X175398170Y-82977947D01*
X175398160Y-82977950D01*
X175216092Y-83053364D01*
X175216079Y-83053371D01*
X175052219Y-83162859D01*
X174912859Y-83302220D01*
X174899502Y-83322209D01*
X174884084Y-83340994D01*
X173111899Y-85113181D01*
X173050576Y-85146666D01*
X173024218Y-85149500D01*
X162968815Y-85149500D01*
X162901776Y-85129815D01*
X162856021Y-85077011D01*
X162844927Y-85030772D01*
X162811355Y-84241835D01*
X162663995Y-80778902D01*
X162680812Y-80711089D01*
X162731623Y-80663131D01*
X162754481Y-80654216D01*
X162771227Y-80649531D01*
X162850000Y-80650000D01*
X162832416Y-80632416D01*
X162918502Y-80608338D01*
X162933550Y-80608531D01*
X162947844Y-80603821D01*
X162952314Y-80603756D01*
X166533342Y-80616763D01*
X166600307Y-80636691D01*
X166645870Y-80689661D01*
X166655562Y-80758855D01*
X166626306Y-80822305D01*
X166605775Y-80841080D01*
X166541403Y-80887849D01*
X166541402Y-80887850D01*
X167175974Y-81522421D01*
X167144742Y-81535359D01*
X167021903Y-81617437D01*
X166917437Y-81721903D01*
X166835359Y-81844742D01*
X166822421Y-81875974D01*
X166187850Y-81241402D01*
X166187849Y-81241403D01*
X166110177Y-81348310D01*
X165994052Y-81576215D01*
X165994051Y-81576218D01*
X165915013Y-81819476D01*
X165875000Y-82072110D01*
X165875000Y-82327889D01*
X165915013Y-82580523D01*
X165994051Y-82823781D01*
X165994052Y-82823784D01*
X166110175Y-83051686D01*
X166187850Y-83158595D01*
X166187850Y-83158596D01*
X166822421Y-82524024D01*
X166835359Y-82555258D01*
X166917437Y-82678097D01*
X167021903Y-82782563D01*
X167144742Y-82864641D01*
X167175974Y-82877577D01*
X166541402Y-83512148D01*
X166648313Y-83589824D01*
X166876215Y-83705947D01*
X166876218Y-83705948D01*
X167119476Y-83784986D01*
X167372111Y-83825000D01*
X167627889Y-83825000D01*
X167880523Y-83784986D01*
X168123781Y-83705948D01*
X168123784Y-83705947D01*
X168351685Y-83589825D01*
X168458595Y-83512148D01*
X168458596Y-83512148D01*
X167824025Y-82877578D01*
X167855258Y-82864641D01*
X167978097Y-82782563D01*
X168082563Y-82678097D01*
X168164641Y-82555258D01*
X168177577Y-82524025D01*
X168812148Y-83158596D01*
X168812148Y-83158595D01*
X168889825Y-83051685D01*
X169005947Y-82823784D01*
X169005948Y-82823781D01*
X169084986Y-82580523D01*
X169125000Y-82327889D01*
X169125000Y-82072110D01*
X169084986Y-81819476D01*
X169005948Y-81576218D01*
X169005947Y-81576215D01*
X168889824Y-81348313D01*
X168812148Y-81241403D01*
X168812148Y-81241402D01*
X168177577Y-81875973D01*
X168164641Y-81844742D01*
X168082563Y-81721903D01*
X167978097Y-81617437D01*
X167855258Y-81535359D01*
X167824024Y-81522421D01*
X168458596Y-80887850D01*
X168403941Y-80848141D01*
X168361276Y-80792811D01*
X168355297Y-80723197D01*
X168387903Y-80661403D01*
X168448742Y-80627045D01*
X168477269Y-80623824D01*
X171150014Y-80633533D01*
X171150014Y-80633532D01*
X171148615Y-77348543D01*
X173109499Y-77348543D01*
X173147947Y-77541829D01*
X173147950Y-77541839D01*
X173223364Y-77723907D01*
X173223371Y-77723920D01*
X173332860Y-77887781D01*
X173332863Y-77887785D01*
X173472214Y-78027136D01*
X173472218Y-78027139D01*
X173636079Y-78136628D01*
X173636092Y-78136635D01*
X173794544Y-78202267D01*
X173818165Y-78212051D01*
X173818169Y-78212051D01*
X173818170Y-78212052D01*
X174011456Y-78250500D01*
X174011459Y-78250500D01*
X174208543Y-78250500D01*
X174338582Y-78224632D01*
X174401835Y-78212051D01*
X174583914Y-78136632D01*
X174747782Y-78027139D01*
X174887139Y-77887782D01*
X174996632Y-77723914D01*
X175072051Y-77541835D01*
X175110500Y-77348541D01*
X175110500Y-77151459D01*
X175110500Y-77151456D01*
X175072052Y-76958170D01*
X175072051Y-76958169D01*
X175072051Y-76958165D01*
X175072049Y-76958160D01*
X174996635Y-76776092D01*
X174996628Y-76776079D01*
X174887139Y-76612218D01*
X174887136Y-76612214D01*
X174747785Y-76472863D01*
X174747781Y-76472860D01*
X174583920Y-76363371D01*
X174583907Y-76363364D01*
X174401839Y-76287950D01*
X174401829Y-76287947D01*
X174208543Y-76249500D01*
X174208541Y-76249500D01*
X174011459Y-76249500D01*
X174011457Y-76249500D01*
X173818170Y-76287947D01*
X173818160Y-76287950D01*
X173636092Y-76363364D01*
X173636079Y-76363371D01*
X173472218Y-76472860D01*
X173472214Y-76472863D01*
X173332863Y-76612214D01*
X173332860Y-76612218D01*
X173223371Y-76776079D01*
X173223364Y-76776092D01*
X173147950Y-76958160D01*
X173147947Y-76958170D01*
X173109500Y-77151456D01*
X173109500Y-77151459D01*
X173109500Y-77348541D01*
X173109500Y-77348543D01*
X173109499Y-77348543D01*
X171148615Y-77348543D01*
X171148528Y-77145420D01*
X171148146Y-76249500D01*
X171147380Y-74451967D01*
X171156821Y-74404460D01*
X171162051Y-74391835D01*
X171200500Y-74198541D01*
X171200500Y-74001459D01*
X171200500Y-74001456D01*
X171162052Y-73808170D01*
X171162050Y-73808163D01*
X171156520Y-73794813D01*
X171147080Y-73747413D01*
X171143967Y-66436239D01*
X171143787Y-66013713D01*
X175349500Y-66013713D01*
X175349500Y-66226286D01*
X175382753Y-66436239D01*
X175448444Y-66638414D01*
X175544951Y-66827820D01*
X175669890Y-66999786D01*
X175820213Y-67150109D01*
X175992182Y-67275050D01*
X176000946Y-67279516D01*
X176051742Y-67327491D01*
X176068536Y-67395312D01*
X176045998Y-67461447D01*
X176000946Y-67500484D01*
X175992182Y-67504949D01*
X175820213Y-67629890D01*
X175669890Y-67780213D01*
X175544951Y-67952179D01*
X175448444Y-68141585D01*
X175382753Y-68343760D01*
X175349500Y-68553713D01*
X175349500Y-68766286D01*
X175382753Y-68976239D01*
X175448444Y-69178414D01*
X175544951Y-69367820D01*
X175669890Y-69539786D01*
X175783430Y-69653326D01*
X175816915Y-69714649D01*
X175811931Y-69784341D01*
X175770059Y-69840274D01*
X175739083Y-69857189D01*
X175607669Y-69906203D01*
X175607664Y-69906206D01*
X175492455Y-69992452D01*
X175492452Y-69992455D01*
X175406206Y-70107664D01*
X175406202Y-70107671D01*
X175355908Y-70242517D01*
X175349501Y-70302116D01*
X175349501Y-70302123D01*
X175349500Y-70302135D01*
X175349500Y-72097870D01*
X175349501Y-72097876D01*
X175355908Y-72157483D01*
X175406202Y-72292328D01*
X175406206Y-72292335D01*
X175492452Y-72407544D01*
X175492455Y-72407547D01*
X175607664Y-72493793D01*
X175607671Y-72493797D01*
X175742517Y-72544091D01*
X175742516Y-72544091D01*
X175749444Y-72544835D01*
X175802127Y-72550500D01*
X177597872Y-72550499D01*
X177657483Y-72544091D01*
X177792331Y-72493796D01*
X177907546Y-72407546D01*
X177993796Y-72292331D01*
X178044091Y-72157483D01*
X178050500Y-72097873D01*
X178050499Y-70302128D01*
X178044091Y-70242517D01*
X177993796Y-70107669D01*
X177993795Y-70107668D01*
X177993793Y-70107664D01*
X177907547Y-69992455D01*
X177907544Y-69992452D01*
X177792335Y-69906206D01*
X177792328Y-69906202D01*
X177660917Y-69857189D01*
X177604983Y-69815318D01*
X177580566Y-69749853D01*
X177595418Y-69681580D01*
X177616563Y-69653332D01*
X177730104Y-69539792D01*
X177855051Y-69367816D01*
X177951557Y-69178412D01*
X178017246Y-68976243D01*
X178050500Y-68766287D01*
X178050500Y-68553713D01*
X178017246Y-68343757D01*
X177951557Y-68141588D01*
X177855051Y-67952184D01*
X177855049Y-67952181D01*
X177855048Y-67952179D01*
X177730109Y-67780213D01*
X177579786Y-67629890D01*
X177407820Y-67504951D01*
X177407115Y-67504591D01*
X177399054Y-67500485D01*
X177348259Y-67452512D01*
X177331463Y-67384692D01*
X177353999Y-67318556D01*
X177399054Y-67279515D01*
X177407816Y-67275051D01*
X177429789Y-67259086D01*
X177579786Y-67150109D01*
X177579788Y-67150106D01*
X177579792Y-67150104D01*
X177730104Y-66999792D01*
X177730106Y-66999788D01*
X177730109Y-66999786D01*
X177855048Y-66827820D01*
X177855047Y-66827820D01*
X177855051Y-66827816D01*
X177951557Y-66638412D01*
X178017246Y-66436243D01*
X178050500Y-66226287D01*
X178050500Y-66013713D01*
X178017246Y-65803757D01*
X177951557Y-65601588D01*
X177855051Y-65412184D01*
X177855049Y-65412181D01*
X177855048Y-65412179D01*
X177730109Y-65240213D01*
X177579786Y-65089890D01*
X177407817Y-64964949D01*
X177398504Y-64960204D01*
X177347707Y-64912230D01*
X177330912Y-64844409D01*
X177353449Y-64778274D01*
X177398507Y-64739232D01*
X177407555Y-64734622D01*
X177461716Y-64695270D01*
X177461717Y-64695270D01*
X176829408Y-64062962D01*
X176892993Y-64045925D01*
X177007007Y-63980099D01*
X177100099Y-63887007D01*
X177165925Y-63772993D01*
X177182962Y-63709409D01*
X177815270Y-64341717D01*
X177815270Y-64341716D01*
X177854622Y-64287554D01*
X177951095Y-64098217D01*
X178016757Y-63896130D01*
X178016757Y-63896127D01*
X178050000Y-63686246D01*
X178050000Y-63473753D01*
X178016757Y-63263872D01*
X178016757Y-63263869D01*
X177951095Y-63061782D01*
X177854624Y-62872449D01*
X177815270Y-62818282D01*
X177815269Y-62818282D01*
X177182962Y-63450590D01*
X177165925Y-63387007D01*
X177100099Y-63272993D01*
X177007007Y-63179901D01*
X176892993Y-63114075D01*
X176829409Y-63097037D01*
X177461716Y-62464728D01*
X177407550Y-62425375D01*
X177218217Y-62328904D01*
X177016129Y-62263242D01*
X176806246Y-62230000D01*
X176593754Y-62230000D01*
X176383872Y-62263242D01*
X176383869Y-62263242D01*
X176181782Y-62328904D01*
X175992439Y-62425380D01*
X175938282Y-62464727D01*
X175938282Y-62464728D01*
X176570591Y-63097037D01*
X176507007Y-63114075D01*
X176392993Y-63179901D01*
X176299901Y-63272993D01*
X176234075Y-63387007D01*
X176217037Y-63450591D01*
X175584728Y-62818282D01*
X175584727Y-62818282D01*
X175545380Y-62872439D01*
X175448904Y-63061782D01*
X175383242Y-63263869D01*
X175383242Y-63263872D01*
X175350000Y-63473753D01*
X175350000Y-63686246D01*
X175383242Y-63896127D01*
X175383242Y-63896130D01*
X175448904Y-64098217D01*
X175545375Y-64287550D01*
X175584728Y-64341716D01*
X176217037Y-63709408D01*
X176234075Y-63772993D01*
X176299901Y-63887007D01*
X176392993Y-63980099D01*
X176507007Y-64045925D01*
X176570590Y-64062962D01*
X175938282Y-64695269D01*
X175938282Y-64695270D01*
X175992452Y-64734626D01*
X175992451Y-64734626D01*
X176001495Y-64739234D01*
X176052292Y-64787208D01*
X176069087Y-64855029D01*
X176046550Y-64921164D01*
X176001499Y-64960202D01*
X175992182Y-64964949D01*
X175820213Y-65089890D01*
X175669890Y-65240213D01*
X175544951Y-65412179D01*
X175448444Y-65601585D01*
X175382753Y-65803760D01*
X175349500Y-66013713D01*
X171143787Y-66013713D01*
X171143785Y-66008894D01*
X171142703Y-63468934D01*
X171142668Y-63387007D01*
X171139460Y-55854572D01*
X171138678Y-54018015D01*
X172153000Y-54018015D01*
X172153000Y-55518000D01*
X173377015Y-55518000D01*
X173353000Y-55669623D01*
X173353000Y-55866377D01*
X173377015Y-56018000D01*
X172153001Y-56018000D01*
X172153001Y-57517984D01*
X172163494Y-57620695D01*
X172218641Y-57787117D01*
X172218643Y-57787122D01*
X172310684Y-57936344D01*
X172434655Y-58060315D01*
X172583877Y-58152356D01*
X172583882Y-58152358D01*
X172750304Y-58207505D01*
X172750311Y-58207506D01*
X172853021Y-58217999D01*
X174352999Y-58217999D01*
X174353000Y-58217998D01*
X174353000Y-56993985D01*
X174504623Y-57018000D01*
X174701377Y-57018000D01*
X174853000Y-56993985D01*
X174853000Y-58217999D01*
X176352970Y-58217999D01*
X176352984Y-58217998D01*
X176455695Y-58207505D01*
X176622117Y-58152358D01*
X176622122Y-58152356D01*
X176771344Y-58060315D01*
X176895315Y-57936344D01*
X176987356Y-57787122D01*
X176987358Y-57787117D01*
X177042505Y-57620695D01*
X177042506Y-57620688D01*
X177052999Y-57517984D01*
X177053000Y-57517971D01*
X177053000Y-56018000D01*
X175828985Y-56018000D01*
X175853000Y-55866377D01*
X175853000Y-55669623D01*
X175828985Y-55518000D01*
X177052999Y-55518000D01*
X177052999Y-54018030D01*
X177052998Y-54018015D01*
X177042505Y-53915304D01*
X176987358Y-53748882D01*
X176987356Y-53748877D01*
X176895315Y-53599655D01*
X176771344Y-53475684D01*
X176622122Y-53383643D01*
X176622117Y-53383641D01*
X176455695Y-53328494D01*
X176455688Y-53328493D01*
X176352984Y-53318000D01*
X174853000Y-53318000D01*
X174853000Y-54542014D01*
X174701377Y-54518000D01*
X174504623Y-54518000D01*
X174353000Y-54542014D01*
X174353000Y-53318000D01*
X172853030Y-53318000D01*
X172853014Y-53318001D01*
X172750304Y-53328494D01*
X172583882Y-53383641D01*
X172583877Y-53383643D01*
X172434655Y-53475684D01*
X172310684Y-53599655D01*
X172218643Y-53748877D01*
X172218641Y-53748882D01*
X172163494Y-53915304D01*
X172163493Y-53915311D01*
X172153000Y-54018015D01*
X171138678Y-54018015D01*
X171138677Y-54014919D01*
X171137233Y-50624553D01*
X171156889Y-50557505D01*
X171209674Y-50511728D01*
X171261233Y-50500500D01*
X178655500Y-50500500D01*
X178722539Y-50520185D01*
G37*
%TD.AperFunction*%
%TA.AperFunction,Conductor*%
G36*
X138663683Y-112169509D02*
G01*
X138710120Y-112221714D01*
X138720961Y-112290738D01*
X138692764Y-112354665D01*
X138685685Y-112362367D01*
X137924724Y-113123328D01*
X137873160Y-113200501D01*
X137853535Y-113229871D01*
X137804499Y-113348255D01*
X137804497Y-113348261D01*
X137779500Y-113473928D01*
X137779500Y-123549192D01*
X137759815Y-123616231D01*
X137743181Y-123636873D01*
X135816873Y-125563181D01*
X135755550Y-125596666D01*
X135729192Y-125599500D01*
X135601457Y-125599500D01*
X135408170Y-125637947D01*
X135408160Y-125637950D01*
X135226092Y-125713364D01*
X135226079Y-125713371D01*
X135062218Y-125822860D01*
X134957554Y-125927524D01*
X134896231Y-125961008D01*
X134826539Y-125956024D01*
X134770606Y-125914152D01*
X134746189Y-125848687D01*
X134745874Y-125839369D01*
X134799516Y-112321913D01*
X134819466Y-112254953D01*
X134872452Y-112209408D01*
X134921901Y-112198416D01*
X138596394Y-112150696D01*
X138663683Y-112169509D01*
G37*
%TD.AperFunction*%
%TD*%
M02*
