%TF.GenerationSoftware,KiCad,Pcbnew,9.0.1*%
%TF.CreationDate,2025-04-03T14:44:02-07:00*%
%TF.ProjectId,Final_Board-v3C,46696e61-6c5f-4426-9f61-72642d763343,rev?*%
%TF.SameCoordinates,Original*%
%TF.FileFunction,Soldermask,Bot*%
%TF.FilePolarity,Negative*%
%FSLAX46Y46*%
G04 Gerber Fmt 4.6, Leading zero omitted, Abs format (unit mm)*
G04 Created by KiCad (PCBNEW 9.0.1) date 2025-04-03 14:44:02*
%MOMM*%
%LPD*%
G01*
G04 APERTURE LIST*
G04 Aperture macros list*
%AMRoundRect*
0 Rectangle with rounded corners*
0 $1 Rounding radius*
0 $2 $3 $4 $5 $6 $7 $8 $9 X,Y pos of 4 corners*
0 Add a 4 corners polygon primitive as box body*
4,1,4,$2,$3,$4,$5,$6,$7,$8,$9,$2,$3,0*
0 Add four circle primitives for the rounded corners*
1,1,$1+$1,$2,$3*
1,1,$1+$1,$4,$5*
1,1,$1+$1,$6,$7*
1,1,$1+$1,$8,$9*
0 Add four rect primitives between the rounded corners*
20,1,$1+$1,$2,$3,$4,$5,0*
20,1,$1+$1,$4,$5,$6,$7,0*
20,1,$1+$1,$6,$7,$8,$9,0*
20,1,$1+$1,$8,$9,$2,$3,0*%
%AMFreePoly0*
4,1,5,2.250000,-4.000000,-2.250000,-4.000000,-2.250000,4.000000,2.250000,4.000000,2.250000,-4.000000,2.250000,-4.000000,$1*%
%AMFreePoly1*
4,1,5,1.500000,-2.250000,-1.500000,-2.250000,-1.500000,2.250000,1.500000,2.250000,1.500000,-2.250000,1.500000,-2.250000,$1*%
%AMFreePoly2*
4,1,5,4.000000,-2.250000,-4.000000,-2.250000,-4.000000,2.250000,4.000000,2.250000,4.000000,-2.250000,4.000000,-2.250000,$1*%
G04 Aperture macros list end*
%ADD10R,1.700000X1.700000*%
%ADD11C,1.700000*%
%ADD12C,2.600000*%
%ADD13C,3.500000*%
%ADD14FreePoly0,90.000000*%
%ADD15FreePoly1,0.000000*%
%ADD16FreePoly2,0.000000*%
%ADD17R,2.000000X1.905000*%
%ADD18O,2.000000X1.905000*%
%ADD19RoundRect,0.250002X-1.699998X-1.699998X1.699998X-1.699998X1.699998X1.699998X-1.699998X1.699998X0*%
%ADD20R,2.000000X2.000000*%
%ADD21C,2.000000*%
%ADD22C,1.440000*%
%ADD23RoundRect,0.102000X-1.125000X-1.125000X1.125000X-1.125000X1.125000X1.125000X-1.125000X1.125000X0*%
%ADD24C,2.454000*%
%ADD25C,3.098800*%
%ADD26RoundRect,0.102000X-1.143000X-1.143000X1.143000X-1.143000X1.143000X1.143000X-1.143000X1.143000X0*%
%ADD27C,2.490000*%
%ADD28RoundRect,0.250000X0.550000X0.550000X-0.550000X0.550000X-0.550000X-0.550000X0.550000X-0.550000X0*%
%ADD29C,1.600000*%
G04 APERTURE END LIST*
D10*
%TO.C,J5*%
X102700000Y-120050000D03*
D11*
X102700000Y-122590000D03*
%TD*%
D12*
%TO.C,E2*%
X122480000Y-55768000D03*
D13*
X122480000Y-55768000D03*
%TD*%
D14*
%TO.C,F1*%
X148340000Y-56400000D03*
D15*
X153420000Y-56400000D03*
X157480000Y-56400000D03*
D16*
X162560000Y-56400000D03*
%TD*%
D17*
%TO.C,U2*%
X148200000Y-91000000D03*
D18*
X148200000Y-93540000D03*
X148200000Y-96080000D03*
%TD*%
D12*
%TO.C,E4*%
X115000000Y-132431000D03*
D13*
X115000000Y-132431000D03*
%TD*%
D12*
%TO.C,E3*%
X130010000Y-55768000D03*
D13*
X130010000Y-55768000D03*
%TD*%
D19*
%TO.C,H3*%
X174659000Y-132431000D03*
%TD*%
D20*
%TO.C,C4*%
X150570000Y-117490000D03*
D21*
X145570000Y-117490000D03*
%TD*%
D19*
%TO.C,H1*%
X106659000Y-55768000D03*
%TD*%
D22*
%TO.C,RV2*%
X163710000Y-90880000D03*
X163710000Y-93420000D03*
X163710000Y-95960000D03*
%TD*%
D12*
%TO.C,E1*%
X115200000Y-55768000D03*
D13*
X115200000Y-55768000D03*
%TD*%
D17*
%TO.C,U1*%
X148200000Y-103920000D03*
D18*
X148200000Y-106460000D03*
X148200000Y-109000000D03*
%TD*%
D12*
%TO.C,E6*%
X130000000Y-132431000D03*
D13*
X130000000Y-132431000D03*
%TD*%
D22*
%TO.C,RV1*%
X156290000Y-90980000D03*
X156290000Y-93520000D03*
X156290000Y-96060000D03*
%TD*%
D23*
%TO.C,T2*%
X154500000Y-68400000D03*
D24*
X154500000Y-72200000D03*
X154500000Y-77200000D03*
X154500000Y-82200000D03*
X167500000Y-82200000D03*
X167500000Y-77200000D03*
X167500000Y-72200000D03*
X167500000Y-67200000D03*
%TD*%
D20*
%TO.C,C3*%
X174667677Y-91780000D03*
D21*
X169667677Y-91780000D03*
%TD*%
D19*
%TO.C,H2*%
X174603000Y-55768000D03*
%TD*%
D25*
%TO.C,T1*%
X106847000Y-88140000D03*
X138597000Y-88140000D03*
D26*
X108244000Y-77980000D03*
D27*
X108244000Y-83060000D03*
X108244000Y-93220000D03*
X108244000Y-98300000D03*
X137200000Y-77980000D03*
X137200000Y-83060000D03*
X137200000Y-93220000D03*
X137200000Y-98300000D03*
%TD*%
D12*
%TO.C,E5*%
X122480000Y-132431000D03*
D13*
X122480000Y-132431000D03*
%TD*%
D19*
%TO.C,H4*%
X106659000Y-132431000D03*
%TD*%
D10*
%TO.C,J7*%
X176700000Y-71200000D03*
D11*
X176700000Y-68660000D03*
X176700000Y-66120000D03*
X176700000Y-63580000D03*
%TD*%
D28*
%TO.C,U4*%
X162900000Y-122000000D03*
D29*
X162900000Y-119460000D03*
X162900000Y-116920000D03*
X162900000Y-114380000D03*
X155280000Y-114380000D03*
X155280000Y-116920000D03*
X155280000Y-119460000D03*
X155280000Y-122000000D03*
%TD*%
M02*
