M48
; DRILL file {KiCad 8.0.6} date 2025-02-04T11:31:20-0800
; FORMAT={-:-/ absolute / inch / decimal}
; #@! TF.CreationDate,2025-02-04T11:31:20-08:00
; #@! TF.GenerationSoftware,Kicad,Pcbnew,8.0.6
; #@! TF.FileFunction,Plated,1,2,PTH
FMAT,2
INCH
; #@! TA.AperFunction,Plated,PTH,ComponentDrill
T1C0.0315
; #@! TA.AperFunction,Plated,PTH,ComponentDrill
T2C0.0600
; #@! TA.AperFunction,Plated,PTH,ComponentDrill
T3C0.0984
; #@! TA.AperFunction,Plated,PTH,ComponentDrill
T4C0.1260
%
G90
G05
T1
X5.9449Y-3.1496
X5.9449Y-3.5496
T2
X4.4548Y-2.5169
X4.4548Y-2.7819
X4.4548Y-3.0469
X4.4548Y-3.3119
X5.6748Y-2.5169
X5.6748Y-2.7819
X5.6748Y-3.0469
X5.6748Y-3.3119
T3
X3.8583Y-2.5169
X3.8583Y-3.3071
X6.2992Y-2.3622
X6.2992Y-2.7559
X6.2992Y-3.1496
X6.2992Y-3.5433
T4
X3.8189Y-1.8701
X3.8189Y-3.9469
X6.4764Y-1.8701
X6.4764Y-3.9469
M30
