%TF.GenerationSoftware,KiCad,Pcbnew,8.0.6*%
%TF.CreationDate,2025-02-04T11:31:06-08:00*%
%TF.ProjectId,Voltage_Transformer_test_board,566f6c74-6167-4655-9f54-72616e73666f,rev?*%
%TF.SameCoordinates,Original*%
%TF.FileFunction,Legend,Top*%
%TF.FilePolarity,Positive*%
%FSLAX46Y46*%
G04 Gerber Fmt 4.6, Leading zero omitted, Abs format (unit mm)*
G04 Created by KiCad (PCBNEW 8.0.6) date 2025-02-04 11:31:06*
%MOMM*%
%LPD*%
G01*
G04 APERTURE LIST*
%ADD10C,0.150000*%
%ADD11C,0.120000*%
%ADD12C,0.127000*%
%ADD13C,0.400000*%
G04 APERTURE END LIST*
D10*
X153824819Y-85246666D02*
X153348628Y-85579999D01*
X153824819Y-85818094D02*
X152824819Y-85818094D01*
X152824819Y-85818094D02*
X152824819Y-85437142D01*
X152824819Y-85437142D02*
X152872438Y-85341904D01*
X152872438Y-85341904D02*
X152920057Y-85294285D01*
X152920057Y-85294285D02*
X153015295Y-85246666D01*
X153015295Y-85246666D02*
X153158152Y-85246666D01*
X153158152Y-85246666D02*
X153253390Y-85294285D01*
X153253390Y-85294285D02*
X153301009Y-85341904D01*
X153301009Y-85341904D02*
X153348628Y-85437142D01*
X153348628Y-85437142D02*
X153348628Y-85818094D01*
X153824819Y-84294285D02*
X153824819Y-84865713D01*
X153824819Y-84579999D02*
X152824819Y-84579999D01*
X152824819Y-84579999D02*
X152967676Y-84675237D01*
X152967676Y-84675237D02*
X153062914Y-84770475D01*
X153062914Y-84770475D02*
X153110533Y-84865713D01*
X159666666Y-56304819D02*
X159666666Y-57019104D01*
X159666666Y-57019104D02*
X159619047Y-57161961D01*
X159619047Y-57161961D02*
X159523809Y-57257200D01*
X159523809Y-57257200D02*
X159380952Y-57304819D01*
X159380952Y-57304819D02*
X159285714Y-57304819D01*
X160047619Y-56304819D02*
X160666666Y-56304819D01*
X160666666Y-56304819D02*
X160333333Y-56685771D01*
X160333333Y-56685771D02*
X160476190Y-56685771D01*
X160476190Y-56685771D02*
X160571428Y-56733390D01*
X160571428Y-56733390D02*
X160619047Y-56781009D01*
X160619047Y-56781009D02*
X160666666Y-56876247D01*
X160666666Y-56876247D02*
X160666666Y-57114342D01*
X160666666Y-57114342D02*
X160619047Y-57209580D01*
X160619047Y-57209580D02*
X160571428Y-57257200D01*
X160571428Y-57257200D02*
X160476190Y-57304819D01*
X160476190Y-57304819D02*
X160190476Y-57304819D01*
X160190476Y-57304819D02*
X160095238Y-57257200D01*
X160095238Y-57257200D02*
X160047619Y-57209580D01*
X96238095Y-96904819D02*
X96238095Y-95904819D01*
X96238095Y-96381009D02*
X96809523Y-96381009D01*
X96809523Y-96904819D02*
X96809523Y-95904819D01*
X97238095Y-96000057D02*
X97285714Y-95952438D01*
X97285714Y-95952438D02*
X97380952Y-95904819D01*
X97380952Y-95904819D02*
X97619047Y-95904819D01*
X97619047Y-95904819D02*
X97714285Y-95952438D01*
X97714285Y-95952438D02*
X97761904Y-96000057D01*
X97761904Y-96000057D02*
X97809523Y-96095295D01*
X97809523Y-96095295D02*
X97809523Y-96190533D01*
X97809523Y-96190533D02*
X97761904Y-96333390D01*
X97761904Y-96333390D02*
X97190476Y-96904819D01*
X97190476Y-96904819D02*
X97809523Y-96904819D01*
X118054333Y-53327366D02*
X118854333Y-53327366D01*
X118454333Y-54727366D02*
X118454333Y-53327366D01*
X120054333Y-54727366D02*
X119254333Y-54727366D01*
X119654333Y-54727366D02*
X119654333Y-53327366D01*
X119654333Y-53327366D02*
X119521000Y-53527366D01*
X119521000Y-53527366D02*
X119387667Y-53660700D01*
X119387667Y-53660700D02*
X119254333Y-53727366D01*
X163738095Y-96904819D02*
X163738095Y-95904819D01*
X163738095Y-96381009D02*
X164309523Y-96381009D01*
X164309523Y-96904819D02*
X164309523Y-95904819D01*
X165214285Y-96238152D02*
X165214285Y-96904819D01*
X164976190Y-95857200D02*
X164738095Y-96571485D01*
X164738095Y-96571485D02*
X165357142Y-96571485D01*
X97666666Y-80304819D02*
X97666666Y-81019104D01*
X97666666Y-81019104D02*
X97619047Y-81161961D01*
X97619047Y-81161961D02*
X97523809Y-81257200D01*
X97523809Y-81257200D02*
X97380952Y-81304819D01*
X97380952Y-81304819D02*
X97285714Y-81304819D01*
X98095238Y-80400057D02*
X98142857Y-80352438D01*
X98142857Y-80352438D02*
X98238095Y-80304819D01*
X98238095Y-80304819D02*
X98476190Y-80304819D01*
X98476190Y-80304819D02*
X98571428Y-80352438D01*
X98571428Y-80352438D02*
X98619047Y-80400057D01*
X98619047Y-80400057D02*
X98666666Y-80495295D01*
X98666666Y-80495295D02*
X98666666Y-80590533D01*
X98666666Y-80590533D02*
X98619047Y-80733390D01*
X98619047Y-80733390D02*
X98047619Y-81304819D01*
X98047619Y-81304819D02*
X98666666Y-81304819D01*
X159666666Y-86304819D02*
X159666666Y-87019104D01*
X159666666Y-87019104D02*
X159619047Y-87161961D01*
X159619047Y-87161961D02*
X159523809Y-87257200D01*
X159523809Y-87257200D02*
X159380952Y-87304819D01*
X159380952Y-87304819D02*
X159285714Y-87304819D01*
X160571428Y-86304819D02*
X160380952Y-86304819D01*
X160380952Y-86304819D02*
X160285714Y-86352438D01*
X160285714Y-86352438D02*
X160238095Y-86400057D01*
X160238095Y-86400057D02*
X160142857Y-86542914D01*
X160142857Y-86542914D02*
X160095238Y-86733390D01*
X160095238Y-86733390D02*
X160095238Y-87114342D01*
X160095238Y-87114342D02*
X160142857Y-87209580D01*
X160142857Y-87209580D02*
X160190476Y-87257200D01*
X160190476Y-87257200D02*
X160285714Y-87304819D01*
X160285714Y-87304819D02*
X160476190Y-87304819D01*
X160476190Y-87304819D02*
X160571428Y-87257200D01*
X160571428Y-87257200D02*
X160619047Y-87209580D01*
X160619047Y-87209580D02*
X160666666Y-87114342D01*
X160666666Y-87114342D02*
X160666666Y-86876247D01*
X160666666Y-86876247D02*
X160619047Y-86781009D01*
X160619047Y-86781009D02*
X160571428Y-86733390D01*
X160571428Y-86733390D02*
X160476190Y-86685771D01*
X160476190Y-86685771D02*
X160285714Y-86685771D01*
X160285714Y-86685771D02*
X160190476Y-86733390D01*
X160190476Y-86733390D02*
X160142857Y-86781009D01*
X160142857Y-86781009D02*
X160095238Y-86876247D01*
X159666666Y-76304819D02*
X159666666Y-77019104D01*
X159666666Y-77019104D02*
X159619047Y-77161961D01*
X159619047Y-77161961D02*
X159523809Y-77257200D01*
X159523809Y-77257200D02*
X159380952Y-77304819D01*
X159380952Y-77304819D02*
X159285714Y-77304819D01*
X160619047Y-76304819D02*
X160142857Y-76304819D01*
X160142857Y-76304819D02*
X160095238Y-76781009D01*
X160095238Y-76781009D02*
X160142857Y-76733390D01*
X160142857Y-76733390D02*
X160238095Y-76685771D01*
X160238095Y-76685771D02*
X160476190Y-76685771D01*
X160476190Y-76685771D02*
X160571428Y-76733390D01*
X160571428Y-76733390D02*
X160619047Y-76781009D01*
X160619047Y-76781009D02*
X160666666Y-76876247D01*
X160666666Y-76876247D02*
X160666666Y-77114342D01*
X160666666Y-77114342D02*
X160619047Y-77209580D01*
X160619047Y-77209580D02*
X160571428Y-77257200D01*
X160571428Y-77257200D02*
X160476190Y-77304819D01*
X160476190Y-77304819D02*
X160238095Y-77304819D01*
X160238095Y-77304819D02*
X160142857Y-77257200D01*
X160142857Y-77257200D02*
X160095238Y-77209580D01*
X97666666Y-60234819D02*
X97666666Y-60949104D01*
X97666666Y-60949104D02*
X97619047Y-61091961D01*
X97619047Y-61091961D02*
X97523809Y-61187200D01*
X97523809Y-61187200D02*
X97380952Y-61234819D01*
X97380952Y-61234819D02*
X97285714Y-61234819D01*
X98666666Y-61234819D02*
X98095238Y-61234819D01*
X98380952Y-61234819D02*
X98380952Y-60234819D01*
X98380952Y-60234819D02*
X98285714Y-60377676D01*
X98285714Y-60377676D02*
X98190476Y-60472914D01*
X98190476Y-60472914D02*
X98095238Y-60520533D01*
X96238095Y-44154819D02*
X96238095Y-43154819D01*
X96238095Y-43631009D02*
X96809523Y-43631009D01*
X96809523Y-44154819D02*
X96809523Y-43154819D01*
X97809523Y-44154819D02*
X97238095Y-44154819D01*
X97523809Y-44154819D02*
X97523809Y-43154819D01*
X97523809Y-43154819D02*
X97428571Y-43297676D01*
X97428571Y-43297676D02*
X97333333Y-43392914D01*
X97333333Y-43392914D02*
X97238095Y-43440533D01*
X163738095Y-44154819D02*
X163738095Y-43154819D01*
X163738095Y-43631009D02*
X164309523Y-43631009D01*
X164309523Y-44154819D02*
X164309523Y-43154819D01*
X164690476Y-43154819D02*
X165309523Y-43154819D01*
X165309523Y-43154819D02*
X164976190Y-43535771D01*
X164976190Y-43535771D02*
X165119047Y-43535771D01*
X165119047Y-43535771D02*
X165214285Y-43583390D01*
X165214285Y-43583390D02*
X165261904Y-43631009D01*
X165261904Y-43631009D02*
X165309523Y-43726247D01*
X165309523Y-43726247D02*
X165309523Y-43964342D01*
X165309523Y-43964342D02*
X165261904Y-44059580D01*
X165261904Y-44059580D02*
X165214285Y-44107200D01*
X165214285Y-44107200D02*
X165119047Y-44154819D01*
X165119047Y-44154819D02*
X164833333Y-44154819D01*
X164833333Y-44154819D02*
X164738095Y-44107200D01*
X164738095Y-44107200D02*
X164690476Y-44059580D01*
X159666666Y-66304819D02*
X159666666Y-67019104D01*
X159666666Y-67019104D02*
X159619047Y-67161961D01*
X159619047Y-67161961D02*
X159523809Y-67257200D01*
X159523809Y-67257200D02*
X159380952Y-67304819D01*
X159380952Y-67304819D02*
X159285714Y-67304819D01*
X160571428Y-66638152D02*
X160571428Y-67304819D01*
X160333333Y-66257200D02*
X160095238Y-66971485D01*
X160095238Y-66971485D02*
X160714285Y-66971485D01*
D11*
%TO.C,R1*%
X149630000Y-81810000D02*
X149630000Y-88350000D01*
X149630000Y-88350000D02*
X152370000Y-88350000D01*
X151000000Y-81040000D02*
X151000000Y-81810000D01*
X151000000Y-89120000D02*
X151000000Y-88350000D01*
X152370000Y-81810000D02*
X149630000Y-81810000D01*
X152370000Y-88350000D02*
X152370000Y-81810000D01*
D12*
%TO.C,T1*%
X114142600Y-56030600D02*
X114142600Y-62376500D01*
X114142600Y-56030600D02*
X143149400Y-56030600D01*
X114142600Y-85676500D02*
X114142600Y-92022400D01*
X143149400Y-56030600D02*
X143149400Y-62376500D01*
X143149400Y-85676500D02*
X143149400Y-92022400D01*
X143149400Y-92022400D02*
X114142600Y-92022400D01*
D13*
X111119000Y-64012500D02*
G75*
G02*
X110519000Y-64012500I-300000J0D01*
G01*
X110519000Y-64012500D02*
G75*
G02*
X111119000Y-64012500I300000J0D01*
G01*
%TD*%
M02*
