%TF.GenerationSoftware,KiCad,Pcbnew,8.0.6*%
%TF.CreationDate,2025-02-04T11:31:06-08:00*%
%TF.ProjectId,Voltage_Transformer_test_board,566f6c74-6167-4655-9f54-72616e73666f,rev?*%
%TF.SameCoordinates,Original*%
%TF.FileFunction,Copper,L2,Bot*%
%TF.FilePolarity,Positive*%
%FSLAX46Y46*%
G04 Gerber Fmt 4.6, Leading zero omitted, Abs format (unit mm)*
G04 Created by KiCad (PCBNEW 8.0.6) date 2025-02-04 11:31:06*
%MOMM*%
%LPD*%
G01*
G04 APERTURE LIST*
G04 Aperture macros list*
%AMRoundRect*
0 Rectangle with rounded corners*
0 $1 Rounding radius*
0 $2 $3 $4 $5 $6 $7 $8 $9 X,Y pos of 4 corners*
0 Add a 4 corners polygon primitive as box body*
4,1,4,$2,$3,$4,$5,$6,$7,$8,$9,$2,$3,0*
0 Add four circle primitives for the rounded corners*
1,1,$1+$1,$2,$3*
1,1,$1+$1,$4,$5*
1,1,$1+$1,$6,$7*
1,1,$1+$1,$8,$9*
0 Add four rect primitives between the rounded corners*
20,1,$1+$1,$2,$3,$4,$5,0*
20,1,$1+$1,$4,$5,$6,$7,0*
20,1,$1+$1,$6,$7,$8,$9,0*
20,1,$1+$1,$8,$9,$2,$3,0*%
G04 Aperture macros list end*
%TA.AperFunction,ComponentPad*%
%ADD10C,1.600000*%
%TD*%
%TA.AperFunction,ComponentPad*%
%ADD11O,1.600000X1.600000*%
%TD*%
%TA.AperFunction,ComponentPad*%
%ADD12RoundRect,0.250002X-1.699998X-1.699998X1.699998X-1.699998X1.699998X1.699998X-1.699998X1.699998X0*%
%TD*%
%TA.AperFunction,ComponentPad*%
%ADD13C,3.600000*%
%TD*%
%TA.AperFunction,ConnectorPad*%
%ADD14C,5.600000*%
%TD*%
%TA.AperFunction,ComponentPad*%
%ADD15R,2.286000X2.286000*%
%TD*%
%TA.AperFunction,ComponentPad*%
%ADD16C,2.286000*%
%TD*%
%TA.AperFunction,Conductor*%
%ADD17C,1.000000*%
%TD*%
G04 APERTURE END LIST*
D10*
%TO.P,R1,1*%
%TO.N,Net-(J5-Pin_1)*%
X151000000Y-80000000D03*
D11*
%TO.P,R1,2*%
%TO.N,Net-(J6-Pin_1)*%
X151000000Y-90160000D03*
%TD*%
D12*
%TO.P,J3,1,Pin_1*%
%TO.N,Net-(J3-Pin_1)*%
X160000000Y-60000000D03*
%TD*%
D13*
%TO.P,H2,1,1*%
%TO.N,GND*%
X97000000Y-100250000D03*
D14*
X97000000Y-100250000D03*
%TD*%
D15*
%TO.P,T1,1*%
%TO.N,J1*%
X113152000Y-63930000D03*
D16*
%TO.P,T1,2*%
%TO.N,Net-(J2-Pin_1)*%
X113152000Y-70661000D03*
%TO.P,T1,3*%
%TO.N,J1*%
X113152000Y-77392000D03*
%TO.P,T1,4*%
%TO.N,Net-(J2-Pin_1)*%
X113152000Y-84123000D03*
%TO.P,T1,5*%
%TO.N,Net-(J3-Pin_1)*%
X144140000Y-63930000D03*
%TO.P,T1,6*%
%TO.N,Net-(J4-Pin_1)*%
X144140000Y-70661000D03*
%TO.P,T1,7*%
%TO.N,Net-(J5-Pin_1)*%
X144140000Y-77392000D03*
%TO.P,T1,8*%
%TO.N,Net-(J6-Pin_1)*%
X144140000Y-84123000D03*
%TD*%
D13*
%TO.P,H4,1,1*%
%TO.N,GND*%
X164500000Y-100250000D03*
D14*
X164500000Y-100250000D03*
%TD*%
D12*
%TO.P,J2,1,Pin_1*%
%TO.N,Net-(J2-Pin_1)*%
X98000000Y-84000000D03*
%TD*%
%TO.P,J6,1,Pin_1*%
%TO.N,Net-(J6-Pin_1)*%
X160000000Y-90000000D03*
%TD*%
%TO.P,J5,1,Pin_1*%
%TO.N,Net-(J5-Pin_1)*%
X160000000Y-80000000D03*
%TD*%
%TO.P,J1,1,Pin_1*%
%TO.N,J1*%
X98000000Y-63930000D03*
%TD*%
D13*
%TO.P,H1,1,1*%
%TO.N,GND*%
X97000000Y-47500000D03*
D14*
X97000000Y-47500000D03*
%TD*%
D13*
%TO.P,H3,1,1*%
%TO.N,GND*%
X164500000Y-47500000D03*
D14*
X164500000Y-47500000D03*
%TD*%
D12*
%TO.P,J4,1,Pin_1*%
%TO.N,Net-(J4-Pin_1)*%
X160000000Y-70000000D03*
%TD*%
D17*
%TO.N,J1*%
X109602051Y-77392000D02*
X106800000Y-74589949D01*
X111820000Y-63930000D02*
X113152000Y-63930000D01*
X98000000Y-63930000D02*
X113152000Y-63930000D01*
X106800000Y-74589949D02*
X106800000Y-68950000D01*
X113152000Y-77392000D02*
X109602051Y-77392000D01*
X106800000Y-68950000D02*
X111820000Y-63930000D01*
%TO.N,Net-(J2-Pin_1)*%
X117750000Y-75259000D02*
X117750000Y-79525000D01*
X98123000Y-84123000D02*
X98000000Y-84000000D01*
X113152000Y-70661000D02*
X117750000Y-75259000D01*
X117750000Y-79525000D02*
X113152000Y-84123000D01*
X113152000Y-84123000D02*
X98123000Y-84123000D01*
%TO.N,Net-(J3-Pin_1)*%
X148070000Y-60000000D02*
X144140000Y-63930000D01*
X160000000Y-60000000D02*
X148070000Y-60000000D01*
%TO.N,Net-(J4-Pin_1)*%
X144801000Y-70000000D02*
X160000000Y-70000000D01*
X144140000Y-70661000D02*
X144801000Y-70000000D01*
%TO.N,Net-(J5-Pin_1)*%
X146748000Y-80000000D02*
X150000000Y-80000000D01*
X150000000Y-80000000D02*
X160000000Y-80000000D01*
X144140000Y-77392000D02*
X146748000Y-80000000D01*
%TO.N,Net-(J6-Pin_1)*%
X150000000Y-90160000D02*
X145910000Y-90160000D01*
X150000000Y-90160000D02*
X159840000Y-90160000D01*
X144140000Y-88390000D02*
X144140000Y-84123000D01*
X145910000Y-90160000D02*
X144140000Y-88390000D01*
X159840000Y-90160000D02*
X160000000Y-90000000D01*
%TD*%
%TA.AperFunction,Conductor*%
%TO.N,GND*%
G36*
X170892539Y-43020185D02*
G01*
X170938294Y-43072989D01*
X170949500Y-43124500D01*
X170949500Y-104575500D01*
X170929815Y-104642539D01*
X170877011Y-104688294D01*
X170825500Y-104699500D01*
X90624500Y-104699500D01*
X90557461Y-104679815D01*
X90511706Y-104627011D01*
X90500500Y-104575500D01*
X90500500Y-100249997D01*
X93695153Y-100249997D01*
X93695153Y-100250002D01*
X93714526Y-100607314D01*
X93714527Y-100607331D01*
X93772415Y-100960431D01*
X93772421Y-100960457D01*
X93868147Y-101305232D01*
X93868149Y-101305239D01*
X94000597Y-101637659D01*
X94000606Y-101637677D01*
X94168218Y-101953827D01*
X94369024Y-102249994D01*
X94369035Y-102250008D01*
X94496441Y-102400002D01*
X94496442Y-102400002D01*
X95705747Y-101190697D01*
X95779588Y-101292330D01*
X95957670Y-101470412D01*
X96059300Y-101544251D01*
X94847257Y-102756294D01*
X94860495Y-102768836D01*
X95145367Y-102985388D01*
X95145370Y-102985390D01*
X95451990Y-103169876D01*
X95776739Y-103320122D01*
X95776744Y-103320123D01*
X96115855Y-103434383D01*
X96465339Y-103511311D01*
X96821075Y-103549999D01*
X96821085Y-103550000D01*
X97178915Y-103550000D01*
X97178924Y-103549999D01*
X97534660Y-103511311D01*
X97884144Y-103434383D01*
X98223255Y-103320123D01*
X98223260Y-103320122D01*
X98548009Y-103169876D01*
X98854629Y-102985390D01*
X98854632Y-102985388D01*
X99139509Y-102768831D01*
X99152742Y-102756295D01*
X99152742Y-102756294D01*
X97940699Y-101544251D01*
X98042330Y-101470412D01*
X98220412Y-101292330D01*
X98294251Y-101190698D01*
X99503556Y-102400002D01*
X99630972Y-102249998D01*
X99630975Y-102249994D01*
X99831781Y-101953827D01*
X99999393Y-101637677D01*
X99999402Y-101637659D01*
X100131850Y-101305239D01*
X100131852Y-101305232D01*
X100227578Y-100960457D01*
X100227584Y-100960431D01*
X100285472Y-100607331D01*
X100285473Y-100607314D01*
X100304847Y-100250002D01*
X100304847Y-100249997D01*
X161195153Y-100249997D01*
X161195153Y-100250002D01*
X161214526Y-100607314D01*
X161214527Y-100607331D01*
X161272415Y-100960431D01*
X161272421Y-100960457D01*
X161368147Y-101305232D01*
X161368149Y-101305239D01*
X161500597Y-101637659D01*
X161500606Y-101637677D01*
X161668218Y-101953827D01*
X161869024Y-102249994D01*
X161869035Y-102250008D01*
X161996441Y-102400002D01*
X161996442Y-102400002D01*
X163205747Y-101190697D01*
X163279588Y-101292330D01*
X163457670Y-101470412D01*
X163559300Y-101544251D01*
X162347257Y-102756294D01*
X162360495Y-102768836D01*
X162645367Y-102985388D01*
X162645370Y-102985390D01*
X162951990Y-103169876D01*
X163276739Y-103320122D01*
X163276744Y-103320123D01*
X163615855Y-103434383D01*
X163965339Y-103511311D01*
X164321075Y-103549999D01*
X164321085Y-103550000D01*
X164678915Y-103550000D01*
X164678924Y-103549999D01*
X165034660Y-103511311D01*
X165384144Y-103434383D01*
X165723255Y-103320123D01*
X165723260Y-103320122D01*
X166048009Y-103169876D01*
X166354629Y-102985390D01*
X166354632Y-102985388D01*
X166639509Y-102768831D01*
X166652742Y-102756295D01*
X166652742Y-102756294D01*
X165440699Y-101544251D01*
X165542330Y-101470412D01*
X165720412Y-101292330D01*
X165794251Y-101190698D01*
X167003556Y-102400002D01*
X167130972Y-102249998D01*
X167130975Y-102249994D01*
X167331781Y-101953827D01*
X167499393Y-101637677D01*
X167499402Y-101637659D01*
X167631850Y-101305239D01*
X167631852Y-101305232D01*
X167727578Y-100960457D01*
X167727584Y-100960431D01*
X167785472Y-100607331D01*
X167785473Y-100607314D01*
X167804847Y-100250002D01*
X167804847Y-100249997D01*
X167785473Y-99892685D01*
X167785472Y-99892668D01*
X167727584Y-99539568D01*
X167727578Y-99539542D01*
X167631852Y-99194767D01*
X167631850Y-99194760D01*
X167499402Y-98862340D01*
X167499393Y-98862322D01*
X167331781Y-98546172D01*
X167130975Y-98250005D01*
X167130964Y-98249991D01*
X167003556Y-98099996D01*
X165794251Y-99309301D01*
X165720412Y-99207670D01*
X165542330Y-99029588D01*
X165440698Y-98955748D01*
X166652742Y-97743704D01*
X166639504Y-97731163D01*
X166354632Y-97514611D01*
X166354629Y-97514609D01*
X166048009Y-97330123D01*
X165723260Y-97179877D01*
X165723255Y-97179876D01*
X165384144Y-97065616D01*
X165034660Y-96988688D01*
X164678924Y-96950000D01*
X164321075Y-96950000D01*
X163965339Y-96988688D01*
X163615855Y-97065616D01*
X163276744Y-97179876D01*
X163276739Y-97179877D01*
X162951990Y-97330123D01*
X162645370Y-97514609D01*
X162645367Y-97514611D01*
X162360486Y-97731170D01*
X162360485Y-97731171D01*
X162347257Y-97743702D01*
X162347256Y-97743703D01*
X163559301Y-98955748D01*
X163457670Y-99029588D01*
X163279588Y-99207670D01*
X163205748Y-99309301D01*
X161996442Y-98099995D01*
X161996441Y-98099996D01*
X161869033Y-98249992D01*
X161668218Y-98546172D01*
X161500606Y-98862322D01*
X161500597Y-98862340D01*
X161368149Y-99194760D01*
X161368147Y-99194767D01*
X161272421Y-99539542D01*
X161272415Y-99539568D01*
X161214527Y-99892668D01*
X161214526Y-99892685D01*
X161195153Y-100249997D01*
X100304847Y-100249997D01*
X100285473Y-99892685D01*
X100285472Y-99892668D01*
X100227584Y-99539568D01*
X100227578Y-99539542D01*
X100131852Y-99194767D01*
X100131850Y-99194760D01*
X99999402Y-98862340D01*
X99999393Y-98862322D01*
X99831781Y-98546172D01*
X99630975Y-98250005D01*
X99630964Y-98249991D01*
X99503556Y-98099996D01*
X98294251Y-99309301D01*
X98220412Y-99207670D01*
X98042330Y-99029588D01*
X97940698Y-98955748D01*
X99152742Y-97743704D01*
X99139504Y-97731163D01*
X98854632Y-97514611D01*
X98854629Y-97514609D01*
X98548009Y-97330123D01*
X98223260Y-97179877D01*
X98223255Y-97179876D01*
X97884144Y-97065616D01*
X97534660Y-96988688D01*
X97178924Y-96950000D01*
X96821075Y-96950000D01*
X96465339Y-96988688D01*
X96115855Y-97065616D01*
X95776744Y-97179876D01*
X95776739Y-97179877D01*
X95451990Y-97330123D01*
X95145370Y-97514609D01*
X95145367Y-97514611D01*
X94860486Y-97731170D01*
X94860485Y-97731171D01*
X94847257Y-97743702D01*
X94847256Y-97743703D01*
X96059301Y-98955748D01*
X95957670Y-99029588D01*
X95779588Y-99207670D01*
X95705748Y-99309301D01*
X94496442Y-98099995D01*
X94496441Y-98099996D01*
X94369033Y-98249992D01*
X94168218Y-98546172D01*
X94000606Y-98862322D01*
X94000597Y-98862340D01*
X93868149Y-99194760D01*
X93868147Y-99194767D01*
X93772421Y-99539542D01*
X93772415Y-99539568D01*
X93714527Y-99892668D01*
X93714526Y-99892685D01*
X93695153Y-100249997D01*
X90500500Y-100249997D01*
X90500500Y-62061208D01*
X93509500Y-62061208D01*
X93509500Y-65798792D01*
X93550192Y-66133919D01*
X93573540Y-66228644D01*
X93630983Y-66461703D01*
X93674294Y-66575903D01*
X93750693Y-66777349D01*
X93750695Y-66777353D01*
X93750696Y-66777355D01*
X93750696Y-66777356D01*
X93846293Y-66959500D01*
X93907578Y-67076269D01*
X93907580Y-67076272D01*
X93907582Y-67076275D01*
X94099347Y-67354096D01*
X94099352Y-67354102D01*
X94323211Y-67606786D01*
X94323213Y-67606788D01*
X94575897Y-67830647D01*
X94575903Y-67830652D01*
X94794385Y-67981458D01*
X94853731Y-68022422D01*
X95152651Y-68179307D01*
X95398247Y-68272449D01*
X95468296Y-68299016D01*
X95468298Y-68299016D01*
X95468302Y-68299018D01*
X95796081Y-68379808D01*
X96076428Y-68413848D01*
X96131206Y-68420500D01*
X96131208Y-68420500D01*
X99868794Y-68420500D01*
X99919433Y-68414351D01*
X100203919Y-68379808D01*
X100531698Y-68299018D01*
X100847349Y-68179307D01*
X101146269Y-68022422D01*
X101424099Y-67830650D01*
X101676787Y-67606787D01*
X101900650Y-67354099D01*
X102092422Y-67076269D01*
X102113099Y-67036871D01*
X102161682Y-66986662D01*
X102222894Y-66970500D01*
X104232164Y-66970500D01*
X104299203Y-66990185D01*
X104344958Y-67042989D01*
X104354902Y-67112147D01*
X104329111Y-67171813D01*
X104316379Y-67187778D01*
X104134688Y-67476937D01*
X103986521Y-67784609D01*
X103986515Y-67784623D01*
X103912659Y-67995688D01*
X103912660Y-67995689D01*
X103873727Y-68106954D01*
X103873725Y-68106960D01*
X103797736Y-68439891D01*
X103797734Y-68439907D01*
X103759500Y-68779244D01*
X103759500Y-74760704D01*
X103797734Y-75100041D01*
X103797736Y-75100057D01*
X103873726Y-75432993D01*
X103873730Y-75433005D01*
X103986519Y-75755335D01*
X104134688Y-76063011D01*
X104157521Y-76099350D01*
X104316380Y-76352172D01*
X104475229Y-76551361D01*
X104529302Y-76619167D01*
X107572834Y-79662700D01*
X107572838Y-79662704D01*
X107839824Y-79875617D01*
X107839827Y-79875618D01*
X107839829Y-79875620D01*
X108093651Y-80035108D01*
X108128992Y-80057314D01*
X108436653Y-80205475D01*
X108436662Y-80205478D01*
X108436669Y-80205482D01*
X108436675Y-80205484D01*
X108758994Y-80318269D01*
X108759006Y-80318273D01*
X109091946Y-80394264D01*
X109431296Y-80432499D01*
X109431297Y-80432500D01*
X109431300Y-80432500D01*
X109431301Y-80432500D01*
X109772802Y-80432500D01*
X111034034Y-80432500D01*
X111101073Y-80452185D01*
X111101569Y-80452505D01*
X111291585Y-80575903D01*
X111307722Y-80586382D01*
X111378069Y-80622225D01*
X111426720Y-80647015D01*
X111477516Y-80694990D01*
X111494311Y-80762811D01*
X111471773Y-80828946D01*
X111426721Y-80867984D01*
X111307724Y-80928616D01*
X111307720Y-80928618D01*
X111101570Y-81062495D01*
X111034625Y-81082499D01*
X111034035Y-81082500D01*
X102287450Y-81082500D01*
X102220411Y-81062815D01*
X102177654Y-81016126D01*
X102092423Y-80853733D01*
X102092422Y-80853731D01*
X101982851Y-80694990D01*
X101900652Y-80575903D01*
X101900647Y-80575897D01*
X101676788Y-80323213D01*
X101676786Y-80323211D01*
X101424102Y-80099352D01*
X101424096Y-80099347D01*
X101146275Y-79907582D01*
X101146267Y-79907577D01*
X100847356Y-79750696D01*
X100847351Y-79750694D01*
X100847349Y-79750693D01*
X100702485Y-79695753D01*
X100531703Y-79630983D01*
X100453321Y-79611663D01*
X100203919Y-79550192D01*
X100002842Y-79525776D01*
X99868794Y-79509500D01*
X99868792Y-79509500D01*
X96131208Y-79509500D01*
X96131206Y-79509500D01*
X95963644Y-79529846D01*
X95796081Y-79550192D01*
X95629812Y-79591173D01*
X95468296Y-79630983D01*
X95219882Y-79725195D01*
X95152651Y-79750693D01*
X95152648Y-79750694D01*
X95152644Y-79750696D01*
X95152643Y-79750696D01*
X94853732Y-79907577D01*
X94853724Y-79907582D01*
X94575903Y-80099347D01*
X94575897Y-80099352D01*
X94323213Y-80323211D01*
X94323211Y-80323213D01*
X94099352Y-80575897D01*
X94099347Y-80575903D01*
X93907582Y-80853724D01*
X93907577Y-80853732D01*
X93750696Y-81152643D01*
X93750696Y-81152644D01*
X93630983Y-81468296D01*
X93609805Y-81554219D01*
X93550192Y-81796081D01*
X93509500Y-82131208D01*
X93509500Y-85868792D01*
X93550192Y-86203919D01*
X93611663Y-86453321D01*
X93630983Y-86531703D01*
X93697182Y-86706254D01*
X93750693Y-86847349D01*
X93750695Y-86847353D01*
X93750696Y-86847355D01*
X93750696Y-86847356D01*
X93907577Y-87146267D01*
X93907582Y-87146275D01*
X94099347Y-87424096D01*
X94099352Y-87424102D01*
X94323211Y-87676786D01*
X94323213Y-87676788D01*
X94575897Y-87900647D01*
X94575903Y-87900652D01*
X94794385Y-88051458D01*
X94853731Y-88092422D01*
X95152651Y-88249307D01*
X95398247Y-88342449D01*
X95468296Y-88369016D01*
X95468298Y-88369016D01*
X95468302Y-88369018D01*
X95796081Y-88449808D01*
X96076428Y-88483848D01*
X96131206Y-88490500D01*
X96131208Y-88490500D01*
X99868794Y-88490500D01*
X99919433Y-88484351D01*
X100203919Y-88449808D01*
X100531698Y-88369018D01*
X100847349Y-88249307D01*
X101146269Y-88092422D01*
X101424099Y-87900650D01*
X101676787Y-87676787D01*
X101900650Y-87424099D01*
X102043558Y-87217059D01*
X102097840Y-87173070D01*
X102145608Y-87163500D01*
X111034034Y-87163500D01*
X111101073Y-87183185D01*
X111101569Y-87183505D01*
X111307722Y-87317382D01*
X111651730Y-87492663D01*
X112012174Y-87631024D01*
X112385106Y-87730951D01*
X112766441Y-87791349D01*
X113130675Y-87810437D01*
X113151999Y-87811555D01*
X113152000Y-87811555D01*
X113152001Y-87811555D01*
X113172207Y-87810496D01*
X113537559Y-87791349D01*
X113918894Y-87730951D01*
X114291826Y-87631024D01*
X114652270Y-87492663D01*
X114996278Y-87317382D01*
X115320078Y-87107104D01*
X115620125Y-86864131D01*
X115893131Y-86591125D01*
X116136104Y-86291078D01*
X116346382Y-85967278D01*
X116521663Y-85623270D01*
X116660024Y-85262826D01*
X116759951Y-84889894D01*
X116767749Y-84840652D01*
X116797677Y-84777522D01*
X116802523Y-84772391D01*
X120020697Y-81554219D01*
X120233620Y-81287223D01*
X120415310Y-80998065D01*
X120563482Y-80690383D01*
X120645968Y-80454651D01*
X120676273Y-80368045D01*
X120752264Y-80035105D01*
X120790500Y-79695751D01*
X120790500Y-75088249D01*
X120752264Y-74748895D01*
X120676273Y-74415955D01*
X120673452Y-74407894D01*
X120563486Y-74093629D01*
X120563485Y-74093627D01*
X120563482Y-74093618D01*
X120562906Y-74092422D01*
X120562904Y-74092417D01*
X120415313Y-73785940D01*
X120346728Y-73676788D01*
X120233620Y-73496777D01*
X120020697Y-73229781D01*
X116802541Y-70011625D01*
X116769056Y-69950302D01*
X116767749Y-69943342D01*
X116759951Y-69894106D01*
X116660024Y-69521174D01*
X116521663Y-69160730D01*
X116346382Y-68816723D01*
X116136104Y-68492922D01*
X116093160Y-68439891D01*
X115893134Y-68192879D01*
X115893131Y-68192875D01*
X115620125Y-67919869D01*
X115467262Y-67796083D01*
X115320076Y-67676894D01*
X115255913Y-67635226D01*
X115210410Y-67582204D01*
X115200797Y-67512999D01*
X115230124Y-67449583D01*
X115274198Y-67417432D01*
X115450643Y-67341078D01*
X115725796Y-67178353D01*
X115857394Y-67076275D01*
X115978384Y-66982426D01*
X115978385Y-66982426D01*
X116204426Y-66756385D01*
X116204426Y-66756384D01*
X116400346Y-66503805D01*
X116400351Y-66503798D01*
X116400353Y-66503796D01*
X116563078Y-66228643D01*
X116690034Y-65935265D01*
X116743657Y-65750693D01*
X116779218Y-65628294D01*
X116779220Y-65628286D01*
X116829226Y-65312557D01*
X116829226Y-65312552D01*
X116835500Y-65179518D01*
X116835500Y-63929999D01*
X140451445Y-63929999D01*
X140451445Y-63930000D01*
X140471651Y-64315560D01*
X140532048Y-64696888D01*
X140532048Y-64696890D01*
X140631978Y-65069833D01*
X140770338Y-65430273D01*
X140945620Y-65774282D01*
X141155894Y-66098076D01*
X141371183Y-66363936D01*
X141398869Y-66398125D01*
X141671875Y-66671131D01*
X141803051Y-66777355D01*
X141971923Y-66914105D01*
X142295717Y-67124379D01*
X142295722Y-67124382D01*
X142351187Y-67152643D01*
X142414720Y-67185015D01*
X142465516Y-67232990D01*
X142482311Y-67300811D01*
X142459773Y-67366946D01*
X142414721Y-67405984D01*
X142295724Y-67466616D01*
X142295720Y-67466618D01*
X141971923Y-67676894D01*
X141671879Y-67919865D01*
X141671871Y-67919872D01*
X141398872Y-68192871D01*
X141398865Y-68192879D01*
X141155894Y-68492923D01*
X140945620Y-68816718D01*
X140770338Y-69160726D01*
X140631978Y-69521166D01*
X140532048Y-69894109D01*
X140532048Y-69894111D01*
X140471651Y-70275439D01*
X140451445Y-70660999D01*
X140451445Y-70661000D01*
X140471651Y-71046560D01*
X140532048Y-71427888D01*
X140532048Y-71427890D01*
X140631978Y-71800833D01*
X140770338Y-72161273D01*
X140945620Y-72505282D01*
X141155894Y-72829076D01*
X141343043Y-73060185D01*
X141398869Y-73129125D01*
X141671875Y-73402131D01*
X141838992Y-73537460D01*
X141971923Y-73645105D01*
X142295717Y-73855379D01*
X142295722Y-73855382D01*
X142366069Y-73891225D01*
X142414720Y-73916015D01*
X142465516Y-73963990D01*
X142482311Y-74031811D01*
X142459773Y-74097946D01*
X142414721Y-74136984D01*
X142295724Y-74197616D01*
X142295720Y-74197618D01*
X141971923Y-74407894D01*
X141671879Y-74650865D01*
X141671871Y-74650872D01*
X141398872Y-74923871D01*
X141398865Y-74923879D01*
X141155894Y-75223923D01*
X140945620Y-75547718D01*
X140770338Y-75891726D01*
X140631978Y-76252166D01*
X140532048Y-76625109D01*
X140532048Y-76625111D01*
X140471651Y-77006439D01*
X140451445Y-77391999D01*
X140451445Y-77392000D01*
X140471651Y-77777560D01*
X140532048Y-78158888D01*
X140532048Y-78158890D01*
X140631978Y-78531833D01*
X140770338Y-78892273D01*
X140945620Y-79236282D01*
X141155894Y-79560076D01*
X141239001Y-79662704D01*
X141398869Y-79860125D01*
X141671875Y-80133131D01*
X141761221Y-80205482D01*
X141971923Y-80376105D01*
X142295717Y-80586379D01*
X142295722Y-80586382D01*
X142366069Y-80622225D01*
X142414720Y-80647015D01*
X142465516Y-80694990D01*
X142482311Y-80762811D01*
X142459773Y-80828946D01*
X142414721Y-80867984D01*
X142295724Y-80928616D01*
X142295720Y-80928618D01*
X141971923Y-81138894D01*
X141671879Y-81381865D01*
X141671871Y-81381872D01*
X141398872Y-81654871D01*
X141398865Y-81654879D01*
X141155894Y-81954923D01*
X140945620Y-82278718D01*
X140770338Y-82622726D01*
X140631978Y-82983166D01*
X140532048Y-83356109D01*
X140532048Y-83356111D01*
X140471651Y-83737439D01*
X140451445Y-84122999D01*
X140451445Y-84123000D01*
X140471651Y-84508560D01*
X140532048Y-84889888D01*
X140532048Y-84889890D01*
X140631978Y-85262833D01*
X140770338Y-85623273D01*
X140945617Y-85967277D01*
X140990611Y-86036562D01*
X141079495Y-86173430D01*
X141099499Y-86240374D01*
X141099500Y-86240965D01*
X141099500Y-88560755D01*
X141137734Y-88900092D01*
X141137736Y-88900108D01*
X141213726Y-89233044D01*
X141213730Y-89233056D01*
X141326519Y-89555386D01*
X141474688Y-89863062D01*
X141474690Y-89863065D01*
X141656380Y-90152223D01*
X141869303Y-90419219D01*
X143880781Y-92430697D01*
X144147777Y-92643620D01*
X144436935Y-92825310D01*
X144744617Y-92973482D01*
X144986702Y-93058191D01*
X145066943Y-93086269D01*
X145066955Y-93086273D01*
X145399895Y-93162264D01*
X145739245Y-93200499D01*
X145739246Y-93200500D01*
X145739249Y-93200500D01*
X146080751Y-93200500D01*
X149588969Y-93200500D01*
X149641035Y-93211960D01*
X149699881Y-93239185D01*
X149761731Y-93267801D01*
X149761732Y-93267801D01*
X149761738Y-93267804D01*
X150105009Y-93383466D01*
X150458774Y-93461335D01*
X150818883Y-93500500D01*
X150818888Y-93500500D01*
X151181112Y-93500500D01*
X151181117Y-93500500D01*
X151541226Y-93461335D01*
X151894991Y-93383466D01*
X152238262Y-93267804D01*
X152358964Y-93211960D01*
X152411031Y-93200500D01*
X155879931Y-93200500D01*
X155946970Y-93220185D01*
X155981980Y-93254059D01*
X155991468Y-93267804D01*
X156099347Y-93424096D01*
X156099352Y-93424102D01*
X156323211Y-93676786D01*
X156323213Y-93676788D01*
X156575897Y-93900647D01*
X156575903Y-93900652D01*
X156794385Y-94051458D01*
X156853731Y-94092422D01*
X157152651Y-94249307D01*
X157398247Y-94342449D01*
X157468296Y-94369016D01*
X157468298Y-94369016D01*
X157468302Y-94369018D01*
X157796081Y-94449808D01*
X158076428Y-94483848D01*
X158131206Y-94490500D01*
X158131208Y-94490500D01*
X161868794Y-94490500D01*
X161919433Y-94484351D01*
X162203919Y-94449808D01*
X162531698Y-94369018D01*
X162847349Y-94249307D01*
X163146269Y-94092422D01*
X163424099Y-93900650D01*
X163676787Y-93676787D01*
X163900650Y-93424099D01*
X164092422Y-93146269D01*
X164249307Y-92847349D01*
X164369018Y-92531698D01*
X164449808Y-92203919D01*
X164490500Y-91868792D01*
X164490500Y-88131208D01*
X164449808Y-87796081D01*
X164369018Y-87468302D01*
X164249307Y-87152651D01*
X164245957Y-87146269D01*
X164135880Y-86936534D01*
X164092422Y-86853731D01*
X164051458Y-86794385D01*
X163900652Y-86575903D01*
X163900647Y-86575897D01*
X163676788Y-86323213D01*
X163676786Y-86323211D01*
X163424102Y-86099352D01*
X163424096Y-86099347D01*
X163146275Y-85907582D01*
X163146267Y-85907577D01*
X162847356Y-85750696D01*
X162847351Y-85750694D01*
X162847349Y-85750693D01*
X162759577Y-85717405D01*
X162531703Y-85630983D01*
X162453321Y-85611663D01*
X162203919Y-85550192D01*
X162002842Y-85525776D01*
X161868794Y-85509500D01*
X161868792Y-85509500D01*
X158131208Y-85509500D01*
X158131206Y-85509500D01*
X157963644Y-85529846D01*
X157796081Y-85550192D01*
X157629812Y-85591173D01*
X157468296Y-85630983D01*
X157219882Y-85725195D01*
X157152651Y-85750693D01*
X157152648Y-85750694D01*
X157152644Y-85750696D01*
X157152643Y-85750696D01*
X156853732Y-85907577D01*
X156853724Y-85907582D01*
X156575903Y-86099347D01*
X156575897Y-86099352D01*
X156323213Y-86323211D01*
X156323211Y-86323213D01*
X156099352Y-86575897D01*
X156099347Y-86575903D01*
X155907582Y-86853724D01*
X155907578Y-86853730D01*
X155907578Y-86853731D01*
X155907577Y-86853733D01*
X155802927Y-87053126D01*
X155754343Y-87103338D01*
X155693131Y-87119500D01*
X152411031Y-87119500D01*
X152358964Y-87108039D01*
X152356945Y-87107105D01*
X152331648Y-87095401D01*
X152238268Y-87052198D01*
X151894990Y-86936533D01*
X151541224Y-86858664D01*
X151181118Y-86819500D01*
X151181117Y-86819500D01*
X150818883Y-86819500D01*
X150818881Y-86819500D01*
X150458775Y-86858664D01*
X150105009Y-86936533D01*
X149761731Y-87052198D01*
X149659727Y-87099391D01*
X149643055Y-87107105D01*
X149641036Y-87108039D01*
X149588969Y-87119500D01*
X147304500Y-87119500D01*
X147237461Y-87099815D01*
X147191706Y-87047011D01*
X147180500Y-86995500D01*
X147180500Y-86240965D01*
X147200185Y-86173926D01*
X147200424Y-86173553D01*
X147334382Y-85967278D01*
X147509663Y-85623270D01*
X147648024Y-85262826D01*
X147747951Y-84889894D01*
X147808349Y-84508559D01*
X147828555Y-84123000D01*
X147808349Y-83737441D01*
X147747951Y-83356106D01*
X147705209Y-83196592D01*
X147706872Y-83126744D01*
X147746034Y-83068881D01*
X147810263Y-83041377D01*
X147824984Y-83040500D01*
X149588969Y-83040500D01*
X149641035Y-83051960D01*
X149699881Y-83079185D01*
X149761731Y-83107801D01*
X149761732Y-83107801D01*
X149761738Y-83107804D01*
X150105009Y-83223466D01*
X150458774Y-83301335D01*
X150818883Y-83340500D01*
X150818888Y-83340500D01*
X151181112Y-83340500D01*
X151181117Y-83340500D01*
X151541226Y-83301335D01*
X151894991Y-83223466D01*
X152238262Y-83107804D01*
X152358964Y-83051960D01*
X152411031Y-83040500D01*
X155777106Y-83040500D01*
X155844145Y-83060185D01*
X155886900Y-83106871D01*
X155907578Y-83146269D01*
X155942315Y-83196594D01*
X156099347Y-83424096D01*
X156099352Y-83424102D01*
X156323211Y-83676786D01*
X156323213Y-83676788D01*
X156575897Y-83900647D01*
X156575903Y-83900652D01*
X156794385Y-84051458D01*
X156853731Y-84092422D01*
X157152651Y-84249307D01*
X157398247Y-84342449D01*
X157468296Y-84369016D01*
X157468298Y-84369016D01*
X157468302Y-84369018D01*
X157796081Y-84449808D01*
X158076428Y-84483848D01*
X158131206Y-84490500D01*
X158131208Y-84490500D01*
X161868794Y-84490500D01*
X161919433Y-84484351D01*
X162203919Y-84449808D01*
X162531698Y-84369018D01*
X162847349Y-84249307D01*
X163146269Y-84092422D01*
X163424099Y-83900650D01*
X163676787Y-83676787D01*
X163900650Y-83424099D01*
X164092422Y-83146269D01*
X164249307Y-82847349D01*
X164369018Y-82531698D01*
X164449808Y-82203919D01*
X164490500Y-81868792D01*
X164490500Y-78131208D01*
X164449808Y-77796081D01*
X164369018Y-77468302D01*
X164249307Y-77152651D01*
X164092422Y-76853731D01*
X163968599Y-76674342D01*
X163900652Y-76575903D01*
X163900647Y-76575897D01*
X163676788Y-76323213D01*
X163676786Y-76323211D01*
X163424102Y-76099352D01*
X163424096Y-76099347D01*
X163146275Y-75907582D01*
X163146267Y-75907577D01*
X162847356Y-75750696D01*
X162847351Y-75750694D01*
X162847349Y-75750693D01*
X162759577Y-75717405D01*
X162531703Y-75630983D01*
X162453321Y-75611663D01*
X162203919Y-75550192D01*
X162002842Y-75525776D01*
X161868794Y-75509500D01*
X161868792Y-75509500D01*
X158131208Y-75509500D01*
X158131206Y-75509500D01*
X157963644Y-75529846D01*
X157796081Y-75550192D01*
X157629812Y-75591173D01*
X157468296Y-75630983D01*
X157219882Y-75725195D01*
X157152651Y-75750693D01*
X157152648Y-75750694D01*
X157152644Y-75750696D01*
X157152643Y-75750696D01*
X156853732Y-75907577D01*
X156853724Y-75907582D01*
X156575903Y-76099347D01*
X156575897Y-76099352D01*
X156323213Y-76323211D01*
X156323211Y-76323213D01*
X156099352Y-76575897D01*
X156099347Y-76575903D01*
X155960863Y-76776534D01*
X155907578Y-76853731D01*
X155886900Y-76893128D01*
X155838318Y-76943338D01*
X155777106Y-76959500D01*
X152411031Y-76959500D01*
X152358964Y-76948039D01*
X152341188Y-76939815D01*
X152305235Y-76923181D01*
X152238268Y-76892198D01*
X151894990Y-76776533D01*
X151541224Y-76698664D01*
X151181118Y-76659500D01*
X151181117Y-76659500D01*
X150818883Y-76659500D01*
X150818881Y-76659500D01*
X150458775Y-76698664D01*
X150105009Y-76776533D01*
X149761731Y-76892198D01*
X149641036Y-76948039D01*
X149588969Y-76959500D01*
X148058778Y-76959500D01*
X147991739Y-76939815D01*
X147971097Y-76923181D01*
X147790541Y-76742625D01*
X147757056Y-76681302D01*
X147755749Y-76674342D01*
X147753398Y-76659500D01*
X147747951Y-76625106D01*
X147648024Y-76252174D01*
X147509663Y-75891730D01*
X147334382Y-75547723D01*
X147259884Y-75433005D01*
X147124105Y-75223923D01*
X146881134Y-74923879D01*
X146881131Y-74923875D01*
X146608125Y-74650869D01*
X146318030Y-74415955D01*
X146308076Y-74407894D01*
X145984282Y-74197620D01*
X145865279Y-74136985D01*
X145814483Y-74089011D01*
X145797688Y-74021190D01*
X145820225Y-73955055D01*
X145865279Y-73916015D01*
X145984278Y-73855382D01*
X146308078Y-73645104D01*
X146608125Y-73402131D01*
X146881131Y-73129125D01*
X146892743Y-73114784D01*
X146915677Y-73086465D01*
X146973164Y-73046753D01*
X147012043Y-73040500D01*
X155777106Y-73040500D01*
X155844145Y-73060185D01*
X155886900Y-73106871D01*
X155907578Y-73146269D01*
X155965222Y-73229781D01*
X156099347Y-73424096D01*
X156099352Y-73424102D01*
X156323211Y-73676786D01*
X156323213Y-73676788D01*
X156575897Y-73900647D01*
X156575903Y-73900652D01*
X156758226Y-74026500D01*
X156853731Y-74092422D01*
X157152651Y-74249307D01*
X157370206Y-74331815D01*
X157468296Y-74369016D01*
X157468298Y-74369016D01*
X157468302Y-74369018D01*
X157796081Y-74449808D01*
X158076428Y-74483848D01*
X158131206Y-74490500D01*
X158131208Y-74490500D01*
X161868794Y-74490500D01*
X161919433Y-74484351D01*
X162203919Y-74449808D01*
X162531698Y-74369018D01*
X162847349Y-74249307D01*
X163146269Y-74092422D01*
X163424099Y-73900650D01*
X163676787Y-73676787D01*
X163900650Y-73424099D01*
X164092422Y-73146269D01*
X164249307Y-72847349D01*
X164369018Y-72531698D01*
X164449808Y-72203919D01*
X164490500Y-71868792D01*
X164490500Y-68131208D01*
X164449808Y-67796081D01*
X164369018Y-67468302D01*
X164368916Y-67468034D01*
X164345384Y-67405984D01*
X164249307Y-67152651D01*
X164092422Y-66853731D01*
X164023788Y-66754297D01*
X163900652Y-66575903D01*
X163900647Y-66575897D01*
X163676788Y-66323213D01*
X163676786Y-66323211D01*
X163424102Y-66099352D01*
X163424096Y-66099347D01*
X163146275Y-65907582D01*
X163146267Y-65907577D01*
X162847356Y-65750696D01*
X162847351Y-65750694D01*
X162847349Y-65750693D01*
X162759577Y-65717405D01*
X162531703Y-65630983D01*
X162453321Y-65611663D01*
X162203919Y-65550192D01*
X162002842Y-65525776D01*
X161868794Y-65509500D01*
X161868792Y-65509500D01*
X158131208Y-65509500D01*
X158131206Y-65509500D01*
X157963644Y-65529846D01*
X157796081Y-65550192D01*
X157629812Y-65591173D01*
X157468296Y-65630983D01*
X157219882Y-65725195D01*
X157152651Y-65750693D01*
X157152648Y-65750694D01*
X157152644Y-65750696D01*
X157152643Y-65750696D01*
X156853732Y-65907577D01*
X156853724Y-65907582D01*
X156575903Y-66099347D01*
X156575897Y-66099352D01*
X156323213Y-66323211D01*
X156323211Y-66323213D01*
X156099352Y-66575897D01*
X156099347Y-66575903D01*
X155907583Y-66853724D01*
X155907578Y-66853731D01*
X155886900Y-66893128D01*
X155838318Y-66943338D01*
X155777106Y-66959500D01*
X146602184Y-66959500D01*
X146535145Y-66939815D01*
X146489390Y-66887011D01*
X146479446Y-66817853D01*
X146508471Y-66754297D01*
X146524148Y-66739134D01*
X146608125Y-66671131D01*
X146881131Y-66398125D01*
X147124104Y-66098078D01*
X147334382Y-65774278D01*
X147509663Y-65430270D01*
X147648024Y-65069826D01*
X147747951Y-64696894D01*
X147755749Y-64647652D01*
X147785677Y-64584522D01*
X147790523Y-64579391D01*
X149293097Y-63076819D01*
X149354420Y-63043334D01*
X149380778Y-63040500D01*
X155777106Y-63040500D01*
X155844145Y-63060185D01*
X155886900Y-63106871D01*
X155907578Y-63146269D01*
X155984286Y-63257401D01*
X156099347Y-63424096D01*
X156099352Y-63424102D01*
X156323211Y-63676786D01*
X156323213Y-63676788D01*
X156575897Y-63900647D01*
X156575903Y-63900652D01*
X156794385Y-64051458D01*
X156853731Y-64092422D01*
X157152651Y-64249307D01*
X157398247Y-64342449D01*
X157468296Y-64369016D01*
X157468298Y-64369016D01*
X157468302Y-64369018D01*
X157796081Y-64449808D01*
X158076428Y-64483848D01*
X158131206Y-64490500D01*
X158131208Y-64490500D01*
X161868794Y-64490500D01*
X161919433Y-64484351D01*
X162203919Y-64449808D01*
X162531698Y-64369018D01*
X162847349Y-64249307D01*
X163146269Y-64092422D01*
X163424099Y-63900650D01*
X163676787Y-63676787D01*
X163900650Y-63424099D01*
X164092422Y-63146269D01*
X164249307Y-62847349D01*
X164369018Y-62531698D01*
X164449808Y-62203919D01*
X164490500Y-61868792D01*
X164490500Y-58131208D01*
X164449808Y-57796081D01*
X164369018Y-57468302D01*
X164249307Y-57152651D01*
X164092422Y-56853731D01*
X164051458Y-56794385D01*
X163900652Y-56575903D01*
X163900647Y-56575897D01*
X163676788Y-56323213D01*
X163676786Y-56323211D01*
X163424102Y-56099352D01*
X163424096Y-56099347D01*
X163146275Y-55907582D01*
X163146267Y-55907577D01*
X162847356Y-55750696D01*
X162847351Y-55750694D01*
X162847349Y-55750693D01*
X162759577Y-55717405D01*
X162531703Y-55630983D01*
X162453321Y-55611663D01*
X162203919Y-55550192D01*
X162002842Y-55525776D01*
X161868794Y-55509500D01*
X161868792Y-55509500D01*
X158131208Y-55509500D01*
X158131206Y-55509500D01*
X157963644Y-55529846D01*
X157796081Y-55550192D01*
X157629812Y-55591173D01*
X157468296Y-55630983D01*
X157219882Y-55725195D01*
X157152651Y-55750693D01*
X157152648Y-55750694D01*
X157152644Y-55750696D01*
X157152643Y-55750696D01*
X156853732Y-55907577D01*
X156853724Y-55907582D01*
X156575903Y-56099347D01*
X156575897Y-56099352D01*
X156323213Y-56323211D01*
X156323211Y-56323213D01*
X156099352Y-56575897D01*
X156099347Y-56575903D01*
X155907583Y-56853724D01*
X155907578Y-56853731D01*
X155886900Y-56893128D01*
X155838318Y-56943338D01*
X155777106Y-56959500D01*
X147899244Y-56959500D01*
X147559907Y-56997734D01*
X147559891Y-56997736D01*
X147226955Y-57073726D01*
X147226943Y-57073730D01*
X146904613Y-57186519D01*
X146596937Y-57334688D01*
X146307778Y-57516379D01*
X146040781Y-57729302D01*
X143490624Y-60279458D01*
X143429301Y-60312943D01*
X143422343Y-60314250D01*
X143373107Y-60322048D01*
X143000166Y-60421978D01*
X142639726Y-60560338D01*
X142295718Y-60735620D01*
X141971923Y-60945894D01*
X141671879Y-61188865D01*
X141671871Y-61188872D01*
X141398872Y-61461871D01*
X141398865Y-61461879D01*
X141155894Y-61761923D01*
X140945620Y-62085718D01*
X140770338Y-62429726D01*
X140631978Y-62790166D01*
X140532048Y-63163109D01*
X140532048Y-63163111D01*
X140471651Y-63544439D01*
X140451445Y-63929999D01*
X116835500Y-63929999D01*
X116835500Y-62680481D01*
X116829226Y-62547447D01*
X116829226Y-62547442D01*
X116779220Y-62231713D01*
X116779218Y-62231705D01*
X116690035Y-61924739D01*
X116690034Y-61924735D01*
X116563078Y-61631357D01*
X116563077Y-61631355D01*
X116563075Y-61631351D01*
X116400351Y-61356201D01*
X116400346Y-61356194D01*
X116204426Y-61103615D01*
X115978384Y-60877573D01*
X115725805Y-60681653D01*
X115725798Y-60681648D01*
X115450648Y-60518924D01*
X115450644Y-60518922D01*
X115157260Y-60391964D01*
X114850294Y-60302781D01*
X114850286Y-60302779D01*
X114534554Y-60252773D01*
X114401518Y-60246500D01*
X114401514Y-60246500D01*
X111902486Y-60246500D01*
X111902482Y-60246500D01*
X111769447Y-60252773D01*
X111769442Y-60252773D01*
X111453713Y-60302779D01*
X111453705Y-60302781D01*
X111146739Y-60391964D01*
X110853355Y-60518922D01*
X110853351Y-60518924D01*
X110578201Y-60681648D01*
X110578194Y-60681653D01*
X110343786Y-60863479D01*
X110278750Y-60889014D01*
X110267786Y-60889500D01*
X102222894Y-60889500D01*
X102155855Y-60869815D01*
X102113099Y-60823128D01*
X102092422Y-60783731D01*
X101938225Y-60560338D01*
X101900652Y-60505903D01*
X101900647Y-60505897D01*
X101676788Y-60253213D01*
X101676786Y-60253211D01*
X101424102Y-60029352D01*
X101424096Y-60029347D01*
X101146275Y-59837582D01*
X101146267Y-59837577D01*
X100847356Y-59680696D01*
X100847351Y-59680694D01*
X100847349Y-59680693D01*
X100759577Y-59647405D01*
X100531703Y-59560983D01*
X100453321Y-59541663D01*
X100203919Y-59480192D01*
X100002842Y-59455776D01*
X99868794Y-59439500D01*
X99868792Y-59439500D01*
X96131208Y-59439500D01*
X96131206Y-59439500D01*
X95963644Y-59459846D01*
X95796081Y-59480192D01*
X95629812Y-59521173D01*
X95468296Y-59560983D01*
X95219882Y-59655195D01*
X95152651Y-59680693D01*
X95152648Y-59680694D01*
X95152644Y-59680696D01*
X95152643Y-59680696D01*
X94853732Y-59837577D01*
X94853724Y-59837582D01*
X94575903Y-60029347D01*
X94575897Y-60029352D01*
X94323213Y-60253211D01*
X94323211Y-60253213D01*
X94099352Y-60505897D01*
X94099347Y-60505903D01*
X93907582Y-60783724D01*
X93907577Y-60783732D01*
X93750696Y-61082643D01*
X93750696Y-61082644D01*
X93750694Y-61082648D01*
X93750693Y-61082651D01*
X93725195Y-61149882D01*
X93630983Y-61398296D01*
X93591173Y-61559812D01*
X93550192Y-61726081D01*
X93509500Y-62061208D01*
X90500500Y-62061208D01*
X90500500Y-47499997D01*
X93695153Y-47499997D01*
X93695153Y-47500002D01*
X93714526Y-47857314D01*
X93714527Y-47857331D01*
X93772415Y-48210431D01*
X93772421Y-48210457D01*
X93868147Y-48555232D01*
X93868149Y-48555239D01*
X94000597Y-48887659D01*
X94000606Y-48887677D01*
X94168218Y-49203827D01*
X94369024Y-49499994D01*
X94369035Y-49500008D01*
X94496441Y-49650002D01*
X94496442Y-49650002D01*
X95705747Y-48440697D01*
X95779588Y-48542330D01*
X95957670Y-48720412D01*
X96059300Y-48794251D01*
X94847257Y-50006294D01*
X94860495Y-50018836D01*
X95145367Y-50235388D01*
X95145370Y-50235390D01*
X95451990Y-50419876D01*
X95776739Y-50570122D01*
X95776744Y-50570123D01*
X96115855Y-50684383D01*
X96465339Y-50761311D01*
X96821075Y-50799999D01*
X96821085Y-50800000D01*
X97178915Y-50800000D01*
X97178924Y-50799999D01*
X97534660Y-50761311D01*
X97884144Y-50684383D01*
X98223255Y-50570123D01*
X98223260Y-50570122D01*
X98548009Y-50419876D01*
X98854629Y-50235390D01*
X98854632Y-50235388D01*
X99139509Y-50018831D01*
X99152742Y-50006295D01*
X99152742Y-50006294D01*
X97940699Y-48794251D01*
X98042330Y-48720412D01*
X98220412Y-48542330D01*
X98294251Y-48440698D01*
X99503556Y-49650002D01*
X99630972Y-49499998D01*
X99630975Y-49499994D01*
X99831781Y-49203827D01*
X99999393Y-48887677D01*
X99999402Y-48887659D01*
X100131850Y-48555239D01*
X100131852Y-48555232D01*
X100227578Y-48210457D01*
X100227584Y-48210431D01*
X100285472Y-47857331D01*
X100285473Y-47857314D01*
X100304847Y-47500002D01*
X100304847Y-47499997D01*
X161195153Y-47499997D01*
X161195153Y-47500002D01*
X161214526Y-47857314D01*
X161214527Y-47857331D01*
X161272415Y-48210431D01*
X161272421Y-48210457D01*
X161368147Y-48555232D01*
X161368149Y-48555239D01*
X161500597Y-48887659D01*
X161500606Y-48887677D01*
X161668218Y-49203827D01*
X161869024Y-49499994D01*
X161869035Y-49500008D01*
X161996441Y-49650002D01*
X161996442Y-49650002D01*
X163205747Y-48440697D01*
X163279588Y-48542330D01*
X163457670Y-48720412D01*
X163559300Y-48794251D01*
X162347257Y-50006294D01*
X162360495Y-50018836D01*
X162645367Y-50235388D01*
X162645370Y-50235390D01*
X162951990Y-50419876D01*
X163276739Y-50570122D01*
X163276744Y-50570123D01*
X163615855Y-50684383D01*
X163965339Y-50761311D01*
X164321075Y-50799999D01*
X164321085Y-50800000D01*
X164678915Y-50800000D01*
X164678924Y-50799999D01*
X165034660Y-50761311D01*
X165384144Y-50684383D01*
X165723255Y-50570123D01*
X165723260Y-50570122D01*
X166048009Y-50419876D01*
X166354629Y-50235390D01*
X166354632Y-50235388D01*
X166639509Y-50018831D01*
X166652742Y-50006295D01*
X166652742Y-50006294D01*
X165440699Y-48794251D01*
X165542330Y-48720412D01*
X165720412Y-48542330D01*
X165794251Y-48440698D01*
X167003556Y-49650002D01*
X167130972Y-49499998D01*
X167130975Y-49499994D01*
X167331781Y-49203827D01*
X167499393Y-48887677D01*
X167499402Y-48887659D01*
X167631850Y-48555239D01*
X167631852Y-48555232D01*
X167727578Y-48210457D01*
X167727584Y-48210431D01*
X167785472Y-47857331D01*
X167785473Y-47857314D01*
X167804847Y-47500002D01*
X167804847Y-47499997D01*
X167785473Y-47142685D01*
X167785472Y-47142668D01*
X167727584Y-46789568D01*
X167727578Y-46789542D01*
X167631852Y-46444767D01*
X167631850Y-46444760D01*
X167499402Y-46112340D01*
X167499393Y-46112322D01*
X167331781Y-45796172D01*
X167130975Y-45500005D01*
X167130964Y-45499991D01*
X167003556Y-45349996D01*
X165794251Y-46559301D01*
X165720412Y-46457670D01*
X165542330Y-46279588D01*
X165440698Y-46205748D01*
X166652742Y-44993704D01*
X166639504Y-44981163D01*
X166354632Y-44764611D01*
X166354629Y-44764609D01*
X166048009Y-44580123D01*
X165723260Y-44429877D01*
X165723255Y-44429876D01*
X165384144Y-44315616D01*
X165034660Y-44238688D01*
X164678924Y-44200000D01*
X164321075Y-44200000D01*
X163965339Y-44238688D01*
X163615855Y-44315616D01*
X163276744Y-44429876D01*
X163276739Y-44429877D01*
X162951990Y-44580123D01*
X162645370Y-44764609D01*
X162645367Y-44764611D01*
X162360486Y-44981170D01*
X162360485Y-44981171D01*
X162347257Y-44993702D01*
X162347256Y-44993703D01*
X163559301Y-46205748D01*
X163457670Y-46279588D01*
X163279588Y-46457670D01*
X163205748Y-46559301D01*
X161996442Y-45349995D01*
X161996441Y-45349996D01*
X161869033Y-45499992D01*
X161668218Y-45796172D01*
X161500606Y-46112322D01*
X161500597Y-46112340D01*
X161368149Y-46444760D01*
X161368147Y-46444767D01*
X161272421Y-46789542D01*
X161272415Y-46789568D01*
X161214527Y-47142668D01*
X161214526Y-47142685D01*
X161195153Y-47499997D01*
X100304847Y-47499997D01*
X100285473Y-47142685D01*
X100285472Y-47142668D01*
X100227584Y-46789568D01*
X100227578Y-46789542D01*
X100131852Y-46444767D01*
X100131850Y-46444760D01*
X99999402Y-46112340D01*
X99999393Y-46112322D01*
X99831781Y-45796172D01*
X99630975Y-45500005D01*
X99630964Y-45499991D01*
X99503556Y-45349996D01*
X98294251Y-46559301D01*
X98220412Y-46457670D01*
X98042330Y-46279588D01*
X97940698Y-46205748D01*
X99152742Y-44993704D01*
X99139504Y-44981163D01*
X98854632Y-44764611D01*
X98854629Y-44764609D01*
X98548009Y-44580123D01*
X98223260Y-44429877D01*
X98223255Y-44429876D01*
X97884144Y-44315616D01*
X97534660Y-44238688D01*
X97178924Y-44200000D01*
X96821075Y-44200000D01*
X96465339Y-44238688D01*
X96115855Y-44315616D01*
X95776744Y-44429876D01*
X95776739Y-44429877D01*
X95451990Y-44580123D01*
X95145370Y-44764609D01*
X95145367Y-44764611D01*
X94860486Y-44981170D01*
X94860485Y-44981171D01*
X94847257Y-44993702D01*
X94847256Y-44993703D01*
X96059301Y-46205748D01*
X95957670Y-46279588D01*
X95779588Y-46457670D01*
X95705748Y-46559301D01*
X94496442Y-45349995D01*
X94496441Y-45349996D01*
X94369033Y-45499992D01*
X94168218Y-45796172D01*
X94000606Y-46112322D01*
X94000597Y-46112340D01*
X93868149Y-46444760D01*
X93868147Y-46444767D01*
X93772421Y-46789542D01*
X93772415Y-46789568D01*
X93714527Y-47142668D01*
X93714526Y-47142685D01*
X93695153Y-47499997D01*
X90500500Y-47499997D01*
X90500500Y-43124500D01*
X90520185Y-43057461D01*
X90572989Y-43011706D01*
X90624500Y-43000500D01*
X170825500Y-43000500D01*
X170892539Y-43020185D01*
G37*
%TD.AperFunction*%
%TD*%
M02*
