%TF.GenerationSoftware,KiCad,Pcbnew,8.0.6*%
%TF.CreationDate,2025-02-04T11:33:45-08:00*%
%TF.ProjectId,Current_Transformer_test_Board,43757272-656e-4745-9f54-72616e73666f,rev?*%
%TF.SameCoordinates,Original*%
%TF.FileFunction,Legend,Top*%
%TF.FilePolarity,Positive*%
%FSLAX46Y46*%
G04 Gerber Fmt 4.6, Leading zero omitted, Abs format (unit mm)*
G04 Created by KiCad (PCBNEW 8.0.6) date 2025-02-04 11:33:45*
%MOMM*%
%LPD*%
G01*
G04 APERTURE LIST*
%ADD10C,0.150000*%
%ADD11C,0.127000*%
%ADD12C,0.300000*%
%ADD13C,0.120000*%
G04 APERTURE END LIST*
D10*
X69666666Y-46304819D02*
X69666666Y-47019104D01*
X69666666Y-47019104D02*
X69619047Y-47161961D01*
X69619047Y-47161961D02*
X69523809Y-47257200D01*
X69523809Y-47257200D02*
X69380952Y-47304819D01*
X69380952Y-47304819D02*
X69285714Y-47304819D01*
X70095238Y-46400057D02*
X70142857Y-46352438D01*
X70142857Y-46352438D02*
X70238095Y-46304819D01*
X70238095Y-46304819D02*
X70476190Y-46304819D01*
X70476190Y-46304819D02*
X70571428Y-46352438D01*
X70571428Y-46352438D02*
X70619047Y-46400057D01*
X70619047Y-46400057D02*
X70666666Y-46495295D01*
X70666666Y-46495295D02*
X70666666Y-46590533D01*
X70666666Y-46590533D02*
X70619047Y-46733390D01*
X70619047Y-46733390D02*
X70047619Y-47304819D01*
X70047619Y-47304819D02*
X70666666Y-47304819D01*
X58238095Y-34154819D02*
X58238095Y-33154819D01*
X58238095Y-33631009D02*
X58809523Y-33631009D01*
X58809523Y-34154819D02*
X58809523Y-33154819D01*
X59809523Y-34154819D02*
X59238095Y-34154819D01*
X59523809Y-34154819D02*
X59523809Y-33154819D01*
X59523809Y-33154819D02*
X59428571Y-33297676D01*
X59428571Y-33297676D02*
X59333333Y-33392914D01*
X59333333Y-33392914D02*
X59238095Y-33440533D01*
X125488095Y-33904819D02*
X125488095Y-32904819D01*
X125488095Y-33381009D02*
X126059523Y-33381009D01*
X126059523Y-33904819D02*
X126059523Y-32904819D01*
X126488095Y-33000057D02*
X126535714Y-32952438D01*
X126535714Y-32952438D02*
X126630952Y-32904819D01*
X126630952Y-32904819D02*
X126869047Y-32904819D01*
X126869047Y-32904819D02*
X126964285Y-32952438D01*
X126964285Y-32952438D02*
X127011904Y-33000057D01*
X127011904Y-33000057D02*
X127059523Y-33095295D01*
X127059523Y-33095295D02*
X127059523Y-33190533D01*
X127059523Y-33190533D02*
X127011904Y-33333390D01*
X127011904Y-33333390D02*
X126440476Y-33904819D01*
X126440476Y-33904819D02*
X127059523Y-33904819D01*
X125488095Y-50204819D02*
X125488095Y-49204819D01*
X125488095Y-49681009D02*
X126059523Y-49681009D01*
X126059523Y-50204819D02*
X126059523Y-49204819D01*
X126964285Y-49538152D02*
X126964285Y-50204819D01*
X126726190Y-49157200D02*
X126488095Y-49871485D01*
X126488095Y-49871485D02*
X127107142Y-49871485D01*
X114666666Y-36304819D02*
X114666666Y-37019104D01*
X114666666Y-37019104D02*
X114619047Y-37161961D01*
X114619047Y-37161961D02*
X114523809Y-37257200D01*
X114523809Y-37257200D02*
X114380952Y-37304819D01*
X114380952Y-37304819D02*
X114285714Y-37304819D01*
X115047619Y-36304819D02*
X115666666Y-36304819D01*
X115666666Y-36304819D02*
X115333333Y-36685771D01*
X115333333Y-36685771D02*
X115476190Y-36685771D01*
X115476190Y-36685771D02*
X115571428Y-36733390D01*
X115571428Y-36733390D02*
X115619047Y-36781009D01*
X115619047Y-36781009D02*
X115666666Y-36876247D01*
X115666666Y-36876247D02*
X115666666Y-37114342D01*
X115666666Y-37114342D02*
X115619047Y-37209580D01*
X115619047Y-37209580D02*
X115571428Y-37257200D01*
X115571428Y-37257200D02*
X115476190Y-37304819D01*
X115476190Y-37304819D02*
X115190476Y-37304819D01*
X115190476Y-37304819D02*
X115095238Y-37257200D01*
X115095238Y-37257200D02*
X115047619Y-37209580D01*
X69666666Y-36304819D02*
X69666666Y-37019104D01*
X69666666Y-37019104D02*
X69619047Y-37161961D01*
X69619047Y-37161961D02*
X69523809Y-37257200D01*
X69523809Y-37257200D02*
X69380952Y-37304819D01*
X69380952Y-37304819D02*
X69285714Y-37304819D01*
X70666666Y-37304819D02*
X70095238Y-37304819D01*
X70380952Y-37304819D02*
X70380952Y-36304819D01*
X70380952Y-36304819D02*
X70285714Y-36447676D01*
X70285714Y-36447676D02*
X70190476Y-36542914D01*
X70190476Y-36542914D02*
X70095238Y-36590533D01*
X80983095Y-32389819D02*
X81554523Y-32389819D01*
X81268809Y-33389819D02*
X81268809Y-32389819D01*
X82411666Y-33389819D02*
X81840238Y-33389819D01*
X82125952Y-33389819D02*
X82125952Y-32389819D01*
X82125952Y-32389819D02*
X82030714Y-32532676D01*
X82030714Y-32532676D02*
X81935476Y-32627914D01*
X81935476Y-32627914D02*
X81840238Y-32675533D01*
X58238095Y-49654819D02*
X58238095Y-48654819D01*
X58238095Y-49131009D02*
X58809523Y-49131009D01*
X58809523Y-49654819D02*
X58809523Y-48654819D01*
X59190476Y-48654819D02*
X59809523Y-48654819D01*
X59809523Y-48654819D02*
X59476190Y-49035771D01*
X59476190Y-49035771D02*
X59619047Y-49035771D01*
X59619047Y-49035771D02*
X59714285Y-49083390D01*
X59714285Y-49083390D02*
X59761904Y-49131009D01*
X59761904Y-49131009D02*
X59809523Y-49226247D01*
X59809523Y-49226247D02*
X59809523Y-49464342D01*
X59809523Y-49464342D02*
X59761904Y-49559580D01*
X59761904Y-49559580D02*
X59714285Y-49607200D01*
X59714285Y-49607200D02*
X59619047Y-49654819D01*
X59619047Y-49654819D02*
X59333333Y-49654819D01*
X59333333Y-49654819D02*
X59238095Y-49607200D01*
X59238095Y-49607200D02*
X59190476Y-49559580D01*
X109574819Y-45166666D02*
X109098628Y-45499999D01*
X109574819Y-45738094D02*
X108574819Y-45738094D01*
X108574819Y-45738094D02*
X108574819Y-45357142D01*
X108574819Y-45357142D02*
X108622438Y-45261904D01*
X108622438Y-45261904D02*
X108670057Y-45214285D01*
X108670057Y-45214285D02*
X108765295Y-45166666D01*
X108765295Y-45166666D02*
X108908152Y-45166666D01*
X108908152Y-45166666D02*
X109003390Y-45214285D01*
X109003390Y-45214285D02*
X109051009Y-45261904D01*
X109051009Y-45261904D02*
X109098628Y-45357142D01*
X109098628Y-45357142D02*
X109098628Y-45738094D01*
X109574819Y-44214285D02*
X109574819Y-44785713D01*
X109574819Y-44499999D02*
X108574819Y-44499999D01*
X108574819Y-44499999D02*
X108717676Y-44595237D01*
X108717676Y-44595237D02*
X108812914Y-44690475D01*
X108812914Y-44690475D02*
X108860533Y-44785713D01*
X114666666Y-46304819D02*
X114666666Y-47019104D01*
X114666666Y-47019104D02*
X114619047Y-47161961D01*
X114619047Y-47161961D02*
X114523809Y-47257200D01*
X114523809Y-47257200D02*
X114380952Y-47304819D01*
X114380952Y-47304819D02*
X114285714Y-47304819D01*
X115571428Y-46638152D02*
X115571428Y-47304819D01*
X115333333Y-46257200D02*
X115095238Y-46971485D01*
X115095238Y-46971485D02*
X115714285Y-46971485D01*
D11*
%TO.C,T1*%
X78000000Y-34250000D02*
X102000000Y-34250000D01*
X78000000Y-55750000D02*
X78000000Y-34250000D01*
X102000000Y-34250000D02*
X102000000Y-55750000D01*
X102000000Y-55750000D02*
X78000000Y-55750000D01*
D12*
X76982841Y-38200000D02*
G75*
G02*
X76417159Y-38200000I-282841J0D01*
G01*
X76417159Y-38200000D02*
G75*
G02*
X76982841Y-38200000I282841J0D01*
G01*
D13*
%TO.C,R1*%
X105380000Y-41730000D02*
X105380000Y-48270000D01*
X105380000Y-48270000D02*
X108120000Y-48270000D01*
X106750000Y-40960000D02*
X106750000Y-41730000D01*
X106750000Y-49040000D02*
X106750000Y-48270000D01*
X108120000Y-41730000D02*
X105380000Y-41730000D01*
X108120000Y-48270000D02*
X108120000Y-41730000D01*
%TD*%
M02*
