%TF.GenerationSoftware,KiCad,Pcbnew,8.0.6*%
%TF.CreationDate,2025-03-04T10:23:17-08:00*%
%TF.ProjectId,Final_Board-Analog-v2,46696e61-6c5f-4426-9f61-72642d416e61,rev?*%
%TF.SameCoordinates,Original*%
%TF.FileFunction,Copper,L1,Top*%
%TF.FilePolarity,Positive*%
%FSLAX46Y46*%
G04 Gerber Fmt 4.6, Leading zero omitted, Abs format (unit mm)*
G04 Created by KiCad (PCBNEW 8.0.6) date 2025-03-04 10:23:17*
%MOMM*%
%LPD*%
G01*
G04 APERTURE LIST*
G04 Aperture macros list*
%AMRoundRect*
0 Rectangle with rounded corners*
0 $1 Rounding radius*
0 $2 $3 $4 $5 $6 $7 $8 $9 X,Y pos of 4 corners*
0 Add a 4 corners polygon primitive as box body*
4,1,4,$2,$3,$4,$5,$6,$7,$8,$9,$2,$3,0*
0 Add four circle primitives for the rounded corners*
1,1,$1+$1,$2,$3*
1,1,$1+$1,$4,$5*
1,1,$1+$1,$6,$7*
1,1,$1+$1,$8,$9*
0 Add four rect primitives between the rounded corners*
20,1,$1+$1,$2,$3,$4,$5,0*
20,1,$1+$1,$4,$5,$6,$7,0*
20,1,$1+$1,$6,$7,$8,$9,0*
20,1,$1+$1,$8,$9,$2,$3,0*%
%AMFreePoly0*
4,1,5,2.250000,-4.000000,-2.250000,-4.000000,-2.250000,4.000000,2.250000,4.000000,2.250000,-4.000000,2.250000,-4.000000,$1*%
%AMFreePoly1*
4,1,5,1.500000,-2.250000,-1.500000,-2.250000,-1.500000,2.250000,1.500000,2.250000,1.500000,-2.250000,1.500000,-2.250000,$1*%
%AMFreePoly2*
4,1,5,4.000000,-2.250000,-4.000000,-2.250000,-4.000000,2.250000,4.000000,2.250000,4.000000,-2.250000,4.000000,-2.250000,$1*%
G04 Aperture macros list end*
%TA.AperFunction,ComponentPad*%
%ADD10C,1.600000*%
%TD*%
%TA.AperFunction,ComponentPad*%
%ADD11O,1.600000X1.600000*%
%TD*%
%TA.AperFunction,ComponentPad*%
%ADD12RoundRect,0.250002X-1.699998X-1.699998X1.699998X-1.699998X1.699998X1.699998X-1.699998X1.699998X0*%
%TD*%
%TA.AperFunction,ComponentPad*%
%ADD13C,1.620000*%
%TD*%
%TA.AperFunction,ComponentPad*%
%ADD14R,1.600000X1.600000*%
%TD*%
%TA.AperFunction,ComponentPad*%
%ADD15R,2.286000X2.286000*%
%TD*%
%TA.AperFunction,ComponentPad*%
%ADD16C,2.286000*%
%TD*%
%TA.AperFunction,ComponentPad*%
%ADD17R,2.250000X2.250000*%
%TD*%
%TA.AperFunction,ComponentPad*%
%ADD18C,2.250000*%
%TD*%
%TA.AperFunction,ComponentPad*%
%ADD19FreePoly0,90.000000*%
%TD*%
%TA.AperFunction,ComponentPad*%
%ADD20FreePoly1,0.000000*%
%TD*%
%TA.AperFunction,ComponentPad*%
%ADD21FreePoly2,0.000000*%
%TD*%
%TA.AperFunction,ComponentPad*%
%ADD22R,1.800000X1.800000*%
%TD*%
%TA.AperFunction,ComponentPad*%
%ADD23O,1.800000X1.800000*%
%TD*%
%TA.AperFunction,ComponentPad*%
%ADD24R,2.000000X2.000000*%
%TD*%
%TA.AperFunction,ComponentPad*%
%ADD25O,2.000000X2.000000*%
%TD*%
%TA.AperFunction,ComponentPad*%
%ADD26R,1.905000X2.000000*%
%TD*%
%TA.AperFunction,ComponentPad*%
%ADD27O,1.905000X2.000000*%
%TD*%
%TA.AperFunction,ComponentPad*%
%ADD28C,2.000000*%
%TD*%
%TA.AperFunction,ViaPad*%
%ADD29C,1.000000*%
%TD*%
%TA.AperFunction,ViaPad*%
%ADD30C,2.000000*%
%TD*%
%TA.AperFunction,Conductor*%
%ADD31C,2.000000*%
%TD*%
%TA.AperFunction,Conductor*%
%ADD32C,0.500000*%
%TD*%
%TA.AperFunction,Conductor*%
%ADD33C,1.000000*%
%TD*%
G04 APERTURE END LIST*
D10*
%TO.P,R10,1*%
%TO.N,Net-(U4B-+)*%
X128520000Y-111800000D03*
D11*
%TO.P,R10,2*%
%TO.N,Net-(C13-Pad2)*%
X118360000Y-111800000D03*
%TD*%
D12*
%TO.P,J4,1,Pin_1*%
%TO.N,GND*%
X174603000Y-132431000D03*
%TD*%
D13*
%TO.P,RV1,1,1*%
%TO.N,Net-(RV1-Pad1)*%
X137600000Y-94725000D03*
%TO.P,RV1,2,2*%
%TO.N,Net-(C8-Pad1)*%
X140100000Y-92225000D03*
%TO.P,RV1,3,3*%
%TO.N,GND*%
X142600000Y-94725000D03*
%TD*%
D12*
%TO.P,J14,1,Pin_1*%
%TO.N,5v*%
X175120000Y-91050000D03*
%TD*%
D10*
%TO.P,R2,1*%
%TO.N,Net-(R1-Pad2)*%
X103160000Y-112200000D03*
D11*
%TO.P,R2,2*%
%TO.N,Net-(C8-Pad2)*%
X113320000Y-112200000D03*
%TD*%
D12*
%TO.P,J7,1,Pin_1*%
%TO.N,Net-(J7-Pin_1)*%
X115000000Y-54000000D03*
%TD*%
%TO.P,J6,1,Pin_1*%
%TO.N,5v*%
X168720000Y-98450000D03*
%TD*%
D10*
%TO.P,C4,1*%
%TO.N,Net-(D1-+)*%
X157820000Y-101400000D03*
%TO.P,C4,2*%
%TO.N,GND*%
X162820000Y-101400000D03*
%TD*%
%TO.P,R7,1*%
%TO.N,Net-(R1-Pad2)*%
X128520000Y-115300000D03*
D11*
%TO.P,R7,2*%
%TO.N,Net-(U4A--)*%
X118360000Y-115300000D03*
%TD*%
D10*
%TO.P,C12,1*%
%TO.N,Net-(U4A-+)*%
X144300000Y-128600000D03*
%TO.P,C12,2*%
%TO.N,Net-(C12-Pad2)*%
X149300000Y-128600000D03*
%TD*%
D14*
%TO.P,U4,1*%
%TO.N,Net-(C12-Pad2)*%
X139400000Y-128020000D03*
D11*
%TO.P,U4,2,-*%
%TO.N,Net-(U4A--)*%
X139400000Y-125480000D03*
%TO.P,U4,3,+*%
%TO.N,Net-(U4A-+)*%
X139400000Y-122940000D03*
%TO.P,U4,4,V-*%
%TO.N,GND*%
X139400000Y-120400000D03*
%TO.P,U4,5,+*%
%TO.N,Net-(U4B-+)*%
X131780000Y-120400000D03*
%TO.P,U4,6,-*%
%TO.N,Net-(U4B--)*%
X131780000Y-122940000D03*
%TO.P,U4,7*%
%TO.N,Net-(C13-Pad2)*%
X131780000Y-125480000D03*
%TO.P,U4,8,V+*%
%TO.N,VCC*%
X131780000Y-128020000D03*
%TD*%
D10*
%TO.P,C8,1*%
%TO.N,Net-(C8-Pad1)*%
X137420000Y-106200000D03*
%TO.P,C8,2*%
%TO.N,Net-(C8-Pad2)*%
X132420000Y-106200000D03*
%TD*%
D15*
%TO.P,T1,1*%
%TO.N,Net-(F1-Pad2)*%
X103012000Y-71607000D03*
D16*
%TO.P,T1,2*%
%TO.N,Neutral*%
X103012000Y-78338000D03*
%TO.P,T1,3*%
%TO.N,Net-(F1-Pad2)*%
X103012000Y-85069000D03*
%TO.P,T1,4*%
%TO.N,Neutral*%
X103012000Y-91800000D03*
%TO.P,T1,5*%
%TO.N,Net-(D1-Pad4)*%
X134000000Y-71607000D03*
%TO.P,T1,6*%
%TO.N,Net-(D1-Pad2)*%
X134000000Y-78338000D03*
%TO.P,T1,7*%
%TO.N,Net-(RV1-Pad1)*%
X134000000Y-85069000D03*
%TO.P,T1,8*%
%TO.N,GND*%
X134000000Y-91800000D03*
%TD*%
D13*
%TO.P,RV2,1,1*%
%TO.N,Net-(R15-Pad2)*%
X137700000Y-100325000D03*
%TO.P,RV2,2,2*%
%TO.N,Net-(C9-Pad1)*%
X140200000Y-97825000D03*
%TO.P,RV2,3,3*%
%TO.N,GND*%
X142700000Y-100325000D03*
%TD*%
D17*
%TO.P,T2,1*%
%TO.N,N/C*%
X144400000Y-72000000D03*
D18*
%TO.P,T2,2*%
%TO.N,Net-(F1-Pad2)*%
X144400000Y-75800000D03*
%TO.P,T2,3*%
%TO.N,Net-(J10-Pin_1)*%
X144400000Y-80800000D03*
%TO.P,T2,4*%
%TO.N,N/C*%
X144400000Y-85800000D03*
%TO.P,T2,5*%
%TO.N,GND*%
X157400000Y-85800000D03*
%TO.P,T2,6*%
%TO.N,N/C*%
X157400000Y-80800000D03*
%TO.P,T2,7*%
X157400000Y-75800000D03*
%TO.P,T2,8*%
%TO.N,Net-(R15-Pad2)*%
X157400000Y-70800000D03*
%TD*%
D10*
%TO.P,R6,1*%
%TO.N,Net-(U4B-+)*%
X128490000Y-108000000D03*
D11*
%TO.P,R6,2*%
%TO.N,Net-(R1-Pad2)*%
X118330000Y-108000000D03*
%TD*%
D12*
%TO.P,J1,1,Pin_1*%
%TO.N,GND*%
X106659000Y-55768000D03*
%TD*%
%TO.P,J2,1,Pin_1*%
%TO.N,GND*%
X174603000Y-55768000D03*
%TD*%
D10*
%TO.P,C5,1*%
%TO.N,5v*%
X157920000Y-105800000D03*
%TO.P,C5,2*%
%TO.N,GND*%
X162920000Y-105800000D03*
%TD*%
%TO.P,R11,1*%
%TO.N,5v*%
X154320000Y-120000000D03*
D11*
%TO.P,R11,2*%
%TO.N,Net-(D2-K)*%
X144160000Y-120000000D03*
%TD*%
D19*
%TO.P,F1,1*%
%TO.N,Net-(J7-Pin_1)*%
X141860000Y-54600000D03*
D20*
X146940000Y-54600000D03*
%TO.P,F1,2*%
%TO.N,Net-(F1-Pad2)*%
X151000000Y-54600000D03*
D21*
X156080000Y-54600000D03*
%TD*%
D10*
%TO.P,C14,1*%
%TO.N,Net-(C12-Pad2)*%
X163020000Y-120400000D03*
%TO.P,C14,2*%
%TO.N,Net-(D2-K)*%
X158020000Y-120400000D03*
%TD*%
D22*
%TO.P,D2,1,K*%
%TO.N,Net-(D2-K)*%
X128200000Y-127950000D03*
D23*
%TO.P,D2,2,A*%
%TO.N,GND*%
X118040000Y-127950000D03*
%TD*%
D10*
%TO.P,R13,1*%
%TO.N,5v*%
X144240000Y-111000000D03*
D11*
%TO.P,R13,2*%
%TO.N,Net-(D3-K)*%
X154400000Y-111000000D03*
%TD*%
D12*
%TO.P,J3,1,Pin_1*%
%TO.N,GND*%
X106659000Y-132431000D03*
%TD*%
D10*
%TO.P,C3,1*%
%TO.N,VCC*%
X157820000Y-96800000D03*
%TO.P,C3,2*%
%TO.N,GND*%
X162820000Y-96800000D03*
%TD*%
%TO.P,C13,1*%
%TO.N,Net-(U4B--)*%
X153000000Y-123900000D03*
%TO.P,C13,2*%
%TO.N,Net-(C13-Pad2)*%
X153000000Y-128900000D03*
%TD*%
%TO.P,R12,1*%
%TO.N,Net-(D2-K)*%
X154400000Y-107000000D03*
D11*
%TO.P,R12,2*%
%TO.N,GND*%
X144240000Y-107000000D03*
%TD*%
D10*
%TO.P,C9,1*%
%TO.N,Net-(C9-Pad1)*%
X137520000Y-113800000D03*
%TO.P,C9,2*%
%TO.N,Net-(C9-Pad2)*%
X132520000Y-113800000D03*
%TD*%
D12*
%TO.P,J16,1,Pin_1*%
%TO.N,5v*%
X175120000Y-105050000D03*
%TD*%
D24*
%TO.P,D1,1,+*%
%TO.N,Net-(D1-+)*%
X168120000Y-67320000D03*
D25*
%TO.P,D1,2*%
%TO.N,Net-(D1-Pad2)*%
X168120000Y-72400000D03*
%TO.P,D1,3,-*%
%TO.N,GND*%
X173200000Y-72400000D03*
%TO.P,D1,4*%
%TO.N,Net-(D1-Pad4)*%
X173200000Y-67320000D03*
%TD*%
D12*
%TO.P,J13,1,Pin_1*%
%TO.N,5v*%
X168720000Y-105050000D03*
%TD*%
D22*
%TO.P,D3,1,K*%
%TO.N,Net-(D3-K)*%
X128200000Y-132200000D03*
D23*
%TO.P,D3,2,A*%
%TO.N,GND*%
X118040000Y-132200000D03*
%TD*%
D10*
%TO.P,C10,1*%
%TO.N,GND*%
X144300000Y-124400000D03*
%TO.P,C10,2*%
%TO.N,Net-(U4B--)*%
X149300000Y-124400000D03*
%TD*%
D12*
%TO.P,J12,1,Pin_1*%
%TO.N,5v*%
X168920000Y-91000000D03*
%TD*%
D26*
%TO.P,U2,1,VI*%
%TO.N,Net-(D1-+)*%
X147440000Y-101400000D03*
D27*
%TO.P,U2,2,GND*%
%TO.N,GND*%
X149980000Y-101400000D03*
%TO.P,U2,3,VO*%
%TO.N,5v*%
X152520000Y-101400000D03*
%TD*%
D10*
%TO.P,R14,1*%
%TO.N,Net-(D3-K)*%
X103220000Y-124600000D03*
D11*
%TO.P,R14,2*%
%TO.N,GND*%
X113380000Y-124600000D03*
%TD*%
D12*
%TO.P,J15,1,Pin_1*%
%TO.N,5v*%
X175120000Y-98450000D03*
%TD*%
%TO.P,J11,1,Pin_1*%
%TO.N,Net-(D3-K)*%
X168720000Y-111400000D03*
%TD*%
D10*
%TO.P,C15,1*%
%TO.N,Net-(C13-Pad2)*%
X158120000Y-128000000D03*
%TO.P,C15,2*%
%TO.N,Net-(D3-K)*%
X163120000Y-128000000D03*
%TD*%
%TO.P,R5,1*%
%TO.N,Net-(C9-Pad2)*%
X113320000Y-120000000D03*
D11*
%TO.P,R5,2*%
%TO.N,Net-(U4B--)*%
X103160000Y-120000000D03*
%TD*%
D10*
%TO.P,R4,1*%
%TO.N,Net-(C8-Pad2)*%
X113240000Y-108250000D03*
D11*
%TO.P,R4,2*%
%TO.N,Net-(U4A-+)*%
X103080000Y-108250000D03*
%TD*%
D10*
%TO.P,C2,1*%
%TO.N,Net-(D1-+)*%
X157820000Y-92400000D03*
%TO.P,C2,2*%
%TO.N,GND*%
X162820000Y-92400000D03*
%TD*%
%TO.P,R8,1*%
%TO.N,Net-(R1-Pad2)*%
X154320000Y-115500000D03*
D11*
%TO.P,R8,2*%
%TO.N,GND*%
X144160000Y-115500000D03*
%TD*%
D10*
%TO.P,C11,1*%
%TO.N,Net-(U4A-+)*%
X158020000Y-112400000D03*
%TO.P,C11,2*%
%TO.N,GND*%
X163020000Y-112400000D03*
%TD*%
%TO.P,R9,1*%
%TO.N,Net-(U4A--)*%
X118320000Y-120400000D03*
D11*
%TO.P,R9,2*%
%TO.N,Net-(C12-Pad2)*%
X128480000Y-120400000D03*
%TD*%
D24*
%TO.P,C1,1*%
%TO.N,Net-(D1-+)*%
X168000000Y-81400000D03*
D28*
%TO.P,C1,2*%
%TO.N,GND*%
X173000000Y-81400000D03*
%TD*%
D26*
%TO.P,U1,1,VI*%
%TO.N,Net-(D1-+)*%
X152580000Y-92455000D03*
D27*
%TO.P,U1,2,GND*%
%TO.N,GND*%
X150040000Y-92455000D03*
%TO.P,U1,3,VO*%
%TO.N,VCC*%
X147500000Y-92455000D03*
%TD*%
D12*
%TO.P,J10,1,Pin_1*%
%TO.N,Net-(J10-Pin_1)*%
X131000000Y-54000000D03*
%TD*%
%TO.P,J8,1,Pin_1*%
%TO.N,Neutral*%
X123000000Y-54000000D03*
%TD*%
%TO.P,J5,1,Pin_1*%
%TO.N,Net-(D2-K)*%
X175120000Y-111400000D03*
%TD*%
D10*
%TO.P,R3,1*%
%TO.N,Net-(R1-Pad2)*%
X103160000Y-116250000D03*
D11*
%TO.P,R3,2*%
%TO.N,Net-(C9-Pad2)*%
X113320000Y-116250000D03*
%TD*%
D10*
%TO.P,R15,1*%
%TO.N,GND*%
X113320000Y-104250000D03*
D11*
%TO.P,R15,2*%
%TO.N,Net-(R15-Pad2)*%
X103160000Y-104250000D03*
%TD*%
D10*
%TO.P,R1,1*%
%TO.N,VCC*%
X118330000Y-104250000D03*
D11*
%TO.P,R1,2*%
%TO.N,Net-(R1-Pad2)*%
X128490000Y-104250000D03*
%TD*%
D29*
%TO.N,Net-(C9-Pad2)*%
X117521321Y-117873533D03*
%TO.N,GND*%
X149200000Y-96700000D03*
%TO.N,Net-(U4A-+)*%
X129196000Y-117746000D03*
%TO.N,Net-(C12-Pad2)*%
X142400000Y-129000000D03*
X129600000Y-124230000D03*
%TO.N,VCC*%
X132800000Y-101600000D03*
X127000000Y-123400000D03*
%TO.N,Net-(R1-Pad2)*%
X116200000Y-107600000D03*
D30*
%TO.N,Net-(J10-Pin_1)*%
X158300000Y-62800000D03*
%TD*%
D31*
%TO.N,Net-(F1-Pad2)*%
X141400000Y-64400000D02*
X143100000Y-64400000D01*
X139600000Y-66200000D02*
X141400000Y-64400000D01*
X139600000Y-74982248D02*
X139600000Y-66200000D01*
X140417752Y-75800000D02*
X139600000Y-74982248D01*
X144400000Y-75800000D02*
X140417752Y-75800000D01*
X110100000Y-83200000D02*
X110100000Y-78695000D01*
X110100000Y-78695000D02*
X103012000Y-71607000D01*
X108231000Y-85069000D02*
X110100000Y-83200000D01*
X103012000Y-85069000D02*
X108231000Y-85069000D01*
D32*
%TO.N,Net-(C9-Pad2)*%
X129578000Y-116742000D02*
X132520000Y-113800000D01*
X117521321Y-117873533D02*
X118652854Y-116742000D01*
X118652854Y-116742000D02*
X129578000Y-116742000D01*
%TO.N,Net-(U4A-+)*%
X129250000Y-117800000D02*
X134260000Y-117800000D01*
X134260000Y-117800000D02*
X139400000Y-122940000D01*
X129196000Y-117746000D02*
X129250000Y-117800000D01*
%TO.N,Net-(C12-Pad2)*%
X143600000Y-130200000D02*
X147700000Y-130200000D01*
X128480000Y-123110000D02*
X128480000Y-120400000D01*
X142400000Y-129000000D02*
X143600000Y-130200000D01*
X129600000Y-124230000D02*
X128480000Y-123110000D01*
X147700000Y-130200000D02*
X149300000Y-128600000D01*
%TO.N,Net-(C13-Pad2)*%
X126400000Y-106200000D02*
X128983832Y-106200000D01*
X119400000Y-125400000D02*
X131700000Y-125400000D01*
X130400000Y-103400000D02*
X128600000Y-101600000D01*
X115571683Y-121571683D02*
X119400000Y-125400000D01*
X110371683Y-121571683D02*
X115571683Y-121571683D01*
X130400000Y-104783832D02*
X130400000Y-103400000D01*
X128600000Y-101600000D02*
X111800000Y-101600000D01*
X118360000Y-111800000D02*
X122707767Y-111800000D01*
X128983832Y-106200000D02*
X130400000Y-104783832D01*
X101400000Y-112600000D02*
X110371683Y-121571683D01*
X111800000Y-101600000D02*
X101400000Y-112000000D01*
X122707767Y-111800000D02*
X124000000Y-110507767D01*
X131700000Y-125400000D02*
X131780000Y-125480000D01*
X101400000Y-112000000D02*
X101400000Y-112600000D01*
X124000000Y-108600000D02*
X126400000Y-106200000D01*
X124000000Y-110507767D02*
X124000000Y-108600000D01*
%TO.N,Net-(D2-K)*%
X141200000Y-122960000D02*
X141200000Y-129600000D01*
X128200000Y-127950000D02*
X130450000Y-130200000D01*
X141200000Y-129600000D02*
X140600000Y-130200000D01*
D33*
X175120000Y-111400000D02*
X170920000Y-115600000D01*
X170920000Y-115600000D02*
X162820000Y-115600000D01*
D32*
X140600000Y-130200000D02*
X130450000Y-130200000D01*
D33*
X162820000Y-115600000D02*
X158020000Y-120400000D01*
D32*
X144160000Y-120000000D02*
X141200000Y-122960000D01*
D33*
%TO.N,Net-(D3-K)*%
X167520000Y-110200000D02*
X168720000Y-111400000D01*
X155200000Y-110200000D02*
X167520000Y-110200000D01*
X154400000Y-111000000D02*
X155200000Y-110200000D01*
D32*
%TO.N,VCC*%
X132800000Y-101600000D02*
X133427941Y-102227941D01*
X127000000Y-123400000D02*
X118600000Y-123400000D01*
X147500000Y-98300000D02*
X147500000Y-92455000D01*
X118600000Y-123400000D02*
X115200000Y-120000000D01*
X120600000Y-109200000D02*
X120600000Y-106520000D01*
X115200000Y-112600000D02*
X117800000Y-110000000D01*
X119800000Y-110000000D02*
X120600000Y-109200000D01*
X117800000Y-110000000D02*
X119800000Y-110000000D01*
X120600000Y-106520000D02*
X118330000Y-104250000D01*
X133427941Y-102227941D02*
X143572059Y-102227941D01*
X143572059Y-102227941D02*
X147500000Y-98300000D01*
X115200000Y-120000000D02*
X115200000Y-112600000D01*
%TO.N,Net-(R1-Pad2)*%
X131270000Y-112550000D02*
X131270000Y-112530000D01*
X132400000Y-111400000D02*
X141800000Y-111400000D01*
X115930000Y-110400000D02*
X118330000Y-108000000D01*
X142950000Y-112550000D02*
X151370000Y-112550000D01*
X126640000Y-102400000D02*
X128490000Y-104250000D01*
X116200000Y-103400000D02*
X117200000Y-102400000D01*
X131270000Y-112530000D02*
X132400000Y-111400000D01*
X104960000Y-110400000D02*
X115930000Y-110400000D01*
X141800000Y-111400000D02*
X142950000Y-112550000D01*
X103160000Y-112200000D02*
X104960000Y-110400000D01*
X128520000Y-115300000D02*
X131270000Y-112550000D01*
X116200000Y-107600000D02*
X116200000Y-103400000D01*
X151370000Y-112550000D02*
X154320000Y-115500000D01*
X117200000Y-102400000D02*
X126640000Y-102400000D01*
%TO.N,Net-(U4A--)*%
X117800000Y-120400000D02*
X118320000Y-120400000D01*
X119970000Y-118750000D02*
X132670000Y-118750000D01*
X118360000Y-115300000D02*
X116900000Y-115300000D01*
X116200000Y-116000000D02*
X116200000Y-118800000D01*
X116900000Y-115300000D02*
X116200000Y-116000000D01*
X116200000Y-118800000D02*
X117800000Y-120400000D01*
X118320000Y-120400000D02*
X119970000Y-118750000D01*
X132670000Y-118750000D02*
X139400000Y-125480000D01*
D31*
%TO.N,Net-(F1-Pad2)*%
X115000000Y-64400000D02*
X107793000Y-71607000D01*
X147200000Y-64400000D02*
X151000000Y-60600000D01*
X143100000Y-64400000D02*
X115000000Y-64400000D01*
X107793000Y-71607000D02*
X103012000Y-71607000D01*
X147200000Y-64400000D02*
X143100000Y-64400000D01*
X151000000Y-60600000D02*
X151000000Y-54600000D01*
D32*
%TO.N,Net-(R15-Pad2)*%
X137700000Y-100325000D02*
X137700000Y-96900000D01*
X154400000Y-73800000D02*
X157400000Y-70800000D01*
X154400000Y-80200000D02*
X154400000Y-73800000D01*
X137700000Y-96900000D02*
X154400000Y-80200000D01*
D31*
%TO.N,Net-(J7-Pin_1)*%
X115000000Y-54000000D02*
X115000000Y-57500000D01*
X115000000Y-57500000D02*
X117100000Y-59600000D01*
X117100000Y-59600000D02*
X136860000Y-59600000D01*
X136860000Y-59600000D02*
X141860000Y-54600000D01*
%TO.N,Net-(J10-Pin_1)*%
X158300000Y-62800000D02*
X150085415Y-71014585D01*
X150085415Y-77914585D02*
X147200000Y-80800000D01*
X147200000Y-80800000D02*
X144400000Y-80800000D01*
X150085415Y-71014585D02*
X150085415Y-77914585D01*
D32*
%TO.N,Net-(D1-+)*%
X152580000Y-95520000D02*
X152580000Y-92455000D01*
X163300000Y-72140000D02*
X168120000Y-67320000D01*
X163300000Y-83100000D02*
X165000000Y-81400000D01*
X147440000Y-101400000D02*
X147440000Y-100660000D01*
X147440000Y-103640000D02*
X147440000Y-101400000D01*
X163300000Y-83100000D02*
X163300000Y-72140000D01*
X154032500Y-92455000D02*
X158493750Y-87993750D01*
X157820000Y-101400000D02*
X154420000Y-104800000D01*
X157820000Y-92400000D02*
X157820000Y-88667500D01*
X163300000Y-83187500D02*
X163300000Y-83100000D01*
X148600000Y-104800000D02*
X147440000Y-103640000D01*
X152580000Y-92455000D02*
X154032500Y-92455000D01*
X165000000Y-81400000D02*
X168000000Y-81400000D01*
X154420000Y-104800000D02*
X148600000Y-104800000D01*
X147440000Y-100660000D02*
X152580000Y-95520000D01*
X157820000Y-88667500D02*
X158493750Y-87993750D01*
X158493750Y-87993750D02*
X163300000Y-83187500D01*
X157820000Y-92400000D02*
X157420000Y-92000000D01*
%TD*%
%TA.AperFunction,Conductor*%
%TO.N,GND*%
G36*
X178722539Y-50520185D02*
G01*
X178768294Y-50572989D01*
X178779500Y-50624500D01*
X178779500Y-136827700D01*
X178759815Y-136894739D01*
X178707011Y-136940494D01*
X178655500Y-136951700D01*
X100624500Y-136951700D01*
X100557461Y-136932015D01*
X100511706Y-136879211D01*
X100500500Y-136827700D01*
X100500500Y-130681015D01*
X104209000Y-130681015D01*
X104209000Y-132181000D01*
X105433015Y-132181000D01*
X105409000Y-132332623D01*
X105409000Y-132529377D01*
X105433015Y-132681000D01*
X104209001Y-132681000D01*
X104209001Y-134180984D01*
X104219494Y-134283695D01*
X104274641Y-134450117D01*
X104274643Y-134450122D01*
X104366684Y-134599344D01*
X104490655Y-134723315D01*
X104639877Y-134815356D01*
X104639882Y-134815358D01*
X104806304Y-134870505D01*
X104806311Y-134870506D01*
X104909021Y-134880999D01*
X106408999Y-134880999D01*
X106409000Y-134880998D01*
X106409000Y-133656985D01*
X106560623Y-133681000D01*
X106757377Y-133681000D01*
X106909000Y-133656985D01*
X106909000Y-134880999D01*
X108408970Y-134880999D01*
X108408984Y-134880998D01*
X108511695Y-134870505D01*
X108678117Y-134815358D01*
X108678122Y-134815356D01*
X108827344Y-134723315D01*
X108951315Y-134599344D01*
X109043356Y-134450122D01*
X109043358Y-134450117D01*
X109098505Y-134283695D01*
X109098506Y-134283688D01*
X109108999Y-134180984D01*
X109109000Y-134180971D01*
X109109000Y-132681000D01*
X107884985Y-132681000D01*
X107909000Y-132529377D01*
X107909000Y-132332623D01*
X107884985Y-132181000D01*
X109108999Y-132181000D01*
X109108999Y-131950000D01*
X116659117Y-131950000D01*
X117664722Y-131950000D01*
X117620667Y-132026306D01*
X117590000Y-132140756D01*
X117590000Y-132259244D01*
X117620667Y-132373694D01*
X117664722Y-132450000D01*
X116659117Y-132450000D01*
X116711317Y-132656135D01*
X116804516Y-132868609D01*
X116931414Y-133062842D01*
X117088558Y-133233545D01*
X117088562Y-133233548D01*
X117271644Y-133376047D01*
X117271648Y-133376050D01*
X117475697Y-133486476D01*
X117475706Y-133486479D01*
X117695139Y-133561811D01*
X117789999Y-133577640D01*
X117790000Y-133577639D01*
X117790000Y-132575277D01*
X117866306Y-132619333D01*
X117980756Y-132650000D01*
X118099244Y-132650000D01*
X118213694Y-132619333D01*
X118290000Y-132575277D01*
X118290000Y-133577640D01*
X118384860Y-133561811D01*
X118604293Y-133486479D01*
X118604302Y-133486476D01*
X118808351Y-133376050D01*
X118808355Y-133376047D01*
X118991437Y-133233548D01*
X118991441Y-133233545D01*
X119148585Y-133062842D01*
X119275483Y-132868609D01*
X119368682Y-132656135D01*
X119420883Y-132450000D01*
X118415278Y-132450000D01*
X118459333Y-132373694D01*
X118490000Y-132259244D01*
X118490000Y-132140756D01*
X118459333Y-132026306D01*
X118415278Y-131950000D01*
X119420883Y-131950000D01*
X119368682Y-131743864D01*
X119275483Y-131531390D01*
X119148585Y-131337157D01*
X119070316Y-131252135D01*
X126799500Y-131252135D01*
X126799500Y-133147870D01*
X126799501Y-133147876D01*
X126805908Y-133207483D01*
X126856202Y-133342328D01*
X126856206Y-133342335D01*
X126942452Y-133457544D01*
X126942455Y-133457547D01*
X127057664Y-133543793D01*
X127057671Y-133543797D01*
X127192517Y-133594091D01*
X127192516Y-133594091D01*
X127199444Y-133594835D01*
X127252127Y-133600500D01*
X129147872Y-133600499D01*
X129207483Y-133594091D01*
X129342331Y-133543796D01*
X129457546Y-133457546D01*
X129543796Y-133342331D01*
X129594091Y-133207483D01*
X129600500Y-133147873D01*
X129600499Y-131252128D01*
X129594091Y-131192517D01*
X129589795Y-131181000D01*
X129543797Y-131057671D01*
X129543793Y-131057664D01*
X129457546Y-130942454D01*
X129457544Y-130942452D01*
X129342335Y-130856206D01*
X129342328Y-130856202D01*
X129207482Y-130805908D01*
X129207483Y-130805908D01*
X129147883Y-130799501D01*
X129147881Y-130799500D01*
X129147873Y-130799500D01*
X129147864Y-130799500D01*
X127252129Y-130799500D01*
X127252123Y-130799501D01*
X127192516Y-130805908D01*
X127057671Y-130856202D01*
X127057664Y-130856206D01*
X126942455Y-130942452D01*
X126942454Y-130942454D01*
X126856206Y-131057664D01*
X126856202Y-131057671D01*
X126805908Y-131192517D01*
X126799501Y-131252116D01*
X126799501Y-131252123D01*
X126799500Y-131252135D01*
X119070316Y-131252135D01*
X118991441Y-131166454D01*
X118991437Y-131166451D01*
X118808355Y-131023952D01*
X118808351Y-131023949D01*
X118604302Y-130913523D01*
X118604293Y-130913520D01*
X118384861Y-130838188D01*
X118290000Y-130822359D01*
X118290000Y-131824722D01*
X118213694Y-131780667D01*
X118099244Y-131750000D01*
X117980756Y-131750000D01*
X117866306Y-131780667D01*
X117790000Y-131824722D01*
X117790000Y-130822359D01*
X117789999Y-130822359D01*
X117695138Y-130838188D01*
X117475706Y-130913520D01*
X117475697Y-130913523D01*
X117271648Y-131023949D01*
X117271644Y-131023952D01*
X117088562Y-131166451D01*
X117088558Y-131166454D01*
X116931414Y-131337157D01*
X116804516Y-131531390D01*
X116711317Y-131743864D01*
X116659117Y-131950000D01*
X109108999Y-131950000D01*
X109108999Y-130681030D01*
X109108998Y-130681015D01*
X109098505Y-130578304D01*
X109043358Y-130411882D01*
X109043356Y-130411877D01*
X108951315Y-130262655D01*
X108827344Y-130138684D01*
X108678122Y-130046643D01*
X108678117Y-130046641D01*
X108511695Y-129991494D01*
X108511688Y-129991493D01*
X108408984Y-129981000D01*
X106909000Y-129981000D01*
X106909000Y-131205014D01*
X106757377Y-131181000D01*
X106560623Y-131181000D01*
X106409000Y-131205014D01*
X106409000Y-129981000D01*
X104909030Y-129981000D01*
X104909014Y-129981001D01*
X104806304Y-129991494D01*
X104639882Y-130046641D01*
X104639877Y-130046643D01*
X104490655Y-130138684D01*
X104366684Y-130262655D01*
X104274643Y-130411877D01*
X104274641Y-130411882D01*
X104219494Y-130578304D01*
X104219493Y-130578311D01*
X104209000Y-130681015D01*
X100500500Y-130681015D01*
X100500500Y-127700000D01*
X116659117Y-127700000D01*
X117664722Y-127700000D01*
X117620667Y-127776306D01*
X117590000Y-127890756D01*
X117590000Y-128009244D01*
X117620667Y-128123694D01*
X117664722Y-128200000D01*
X116659117Y-128200000D01*
X116711317Y-128406135D01*
X116804516Y-128618609D01*
X116931414Y-128812842D01*
X117088558Y-128983545D01*
X117088562Y-128983548D01*
X117271644Y-129126047D01*
X117271648Y-129126050D01*
X117475697Y-129236476D01*
X117475706Y-129236479D01*
X117695139Y-129311811D01*
X117789999Y-129327640D01*
X117790000Y-129327639D01*
X117790000Y-128325277D01*
X117866306Y-128369333D01*
X117980756Y-128400000D01*
X118099244Y-128400000D01*
X118213694Y-128369333D01*
X118290000Y-128325277D01*
X118290000Y-129327640D01*
X118384860Y-129311811D01*
X118604293Y-129236479D01*
X118604302Y-129236476D01*
X118808351Y-129126050D01*
X118808355Y-129126047D01*
X118991437Y-128983548D01*
X118991441Y-128983545D01*
X119148585Y-128812842D01*
X119275483Y-128618609D01*
X119368682Y-128406135D01*
X119420883Y-128200000D01*
X118415278Y-128200000D01*
X118459333Y-128123694D01*
X118490000Y-128009244D01*
X118490000Y-127890756D01*
X118459333Y-127776306D01*
X118415278Y-127700000D01*
X119420883Y-127700000D01*
X119368682Y-127493864D01*
X119275483Y-127281390D01*
X119148585Y-127087157D01*
X118991441Y-126916454D01*
X118991437Y-126916451D01*
X118808355Y-126773952D01*
X118808351Y-126773949D01*
X118604302Y-126663523D01*
X118604293Y-126663520D01*
X118384861Y-126588188D01*
X118290000Y-126572359D01*
X118290000Y-127574722D01*
X118213694Y-127530667D01*
X118099244Y-127500000D01*
X117980756Y-127500000D01*
X117866306Y-127530667D01*
X117790000Y-127574722D01*
X117790000Y-126572359D01*
X117789999Y-126572359D01*
X117695138Y-126588188D01*
X117475706Y-126663520D01*
X117475697Y-126663523D01*
X117271648Y-126773949D01*
X117271644Y-126773952D01*
X117088562Y-126916451D01*
X117088558Y-126916454D01*
X116931414Y-127087157D01*
X116804516Y-127281390D01*
X116711317Y-127493864D01*
X116659117Y-127700000D01*
X100500500Y-127700000D01*
X100500500Y-124599998D01*
X101914532Y-124599998D01*
X101914532Y-124600001D01*
X101934364Y-124826686D01*
X101934366Y-124826697D01*
X101993258Y-125046488D01*
X101993261Y-125046497D01*
X102089431Y-125252732D01*
X102089432Y-125252734D01*
X102219954Y-125439141D01*
X102380858Y-125600045D01*
X102380861Y-125600047D01*
X102567266Y-125730568D01*
X102773504Y-125826739D01*
X102993308Y-125885635D01*
X103155230Y-125899801D01*
X103219998Y-125905468D01*
X103220000Y-125905468D01*
X103220002Y-125905468D01*
X103276673Y-125900509D01*
X103446692Y-125885635D01*
X103666496Y-125826739D01*
X103872734Y-125730568D01*
X104059139Y-125600047D01*
X104220047Y-125439139D01*
X104350568Y-125252734D01*
X104446739Y-125046496D01*
X104505635Y-124826692D01*
X104525468Y-124600000D01*
X104505635Y-124373308D01*
X104499389Y-124349999D01*
X112101127Y-124349999D01*
X112101128Y-124350000D01*
X113064314Y-124350000D01*
X113059920Y-124354394D01*
X113007259Y-124445606D01*
X112980000Y-124547339D01*
X112980000Y-124652661D01*
X113007259Y-124754394D01*
X113059920Y-124845606D01*
X113064314Y-124850000D01*
X112101128Y-124850000D01*
X112153730Y-125046317D01*
X112153734Y-125046326D01*
X112249865Y-125252482D01*
X112380342Y-125438820D01*
X112541179Y-125599657D01*
X112727517Y-125730134D01*
X112933673Y-125826265D01*
X112933682Y-125826269D01*
X113129999Y-125878872D01*
X113130000Y-125878871D01*
X113130000Y-124915686D01*
X113134394Y-124920080D01*
X113225606Y-124972741D01*
X113327339Y-125000000D01*
X113432661Y-125000000D01*
X113534394Y-124972741D01*
X113625606Y-124920080D01*
X113630000Y-124915686D01*
X113630000Y-125878872D01*
X113826317Y-125826269D01*
X113826326Y-125826265D01*
X114032482Y-125730134D01*
X114218820Y-125599657D01*
X114379657Y-125438820D01*
X114510134Y-125252482D01*
X114606265Y-125046326D01*
X114606269Y-125046317D01*
X114658872Y-124850000D01*
X113695686Y-124850000D01*
X113700080Y-124845606D01*
X113752741Y-124754394D01*
X113780000Y-124652661D01*
X113780000Y-124547339D01*
X113752741Y-124445606D01*
X113700080Y-124354394D01*
X113695686Y-124350000D01*
X114658872Y-124350000D01*
X114658872Y-124349999D01*
X114606269Y-124153682D01*
X114606265Y-124153673D01*
X114510134Y-123947517D01*
X114379657Y-123761179D01*
X114218820Y-123600342D01*
X114032482Y-123469865D01*
X113826328Y-123373734D01*
X113630000Y-123321127D01*
X113630000Y-124284314D01*
X113625606Y-124279920D01*
X113534394Y-124227259D01*
X113432661Y-124200000D01*
X113327339Y-124200000D01*
X113225606Y-124227259D01*
X113134394Y-124279920D01*
X113130000Y-124284314D01*
X113130000Y-123321127D01*
X112933671Y-123373734D01*
X112727517Y-123469865D01*
X112541179Y-123600342D01*
X112380342Y-123761179D01*
X112249865Y-123947517D01*
X112153734Y-124153673D01*
X112153730Y-124153682D01*
X112101127Y-124349999D01*
X104499389Y-124349999D01*
X104452047Y-124173313D01*
X104446741Y-124153511D01*
X104446738Y-124153502D01*
X104350568Y-123947266D01*
X104220047Y-123760861D01*
X104220045Y-123760858D01*
X104059141Y-123599954D01*
X103872734Y-123469432D01*
X103872732Y-123469431D01*
X103666497Y-123373261D01*
X103666488Y-123373258D01*
X103446697Y-123314366D01*
X103446693Y-123314365D01*
X103446692Y-123314365D01*
X103446691Y-123314364D01*
X103446686Y-123314364D01*
X103220002Y-123294532D01*
X103219998Y-123294532D01*
X102993313Y-123314364D01*
X102993302Y-123314366D01*
X102773511Y-123373258D01*
X102773502Y-123373261D01*
X102567267Y-123469431D01*
X102567265Y-123469432D01*
X102380858Y-123599954D01*
X102219954Y-123760858D01*
X102089432Y-123947265D01*
X102089431Y-123947267D01*
X101993261Y-124153502D01*
X101993258Y-124153511D01*
X101934366Y-124373302D01*
X101934364Y-124373313D01*
X101914532Y-124599998D01*
X100500500Y-124599998D01*
X100500500Y-119999998D01*
X101854532Y-119999998D01*
X101854532Y-120000001D01*
X101874364Y-120226686D01*
X101874366Y-120226697D01*
X101933258Y-120446488D01*
X101933261Y-120446497D01*
X102029431Y-120652732D01*
X102029432Y-120652734D01*
X102159954Y-120839141D01*
X102320858Y-121000045D01*
X102320861Y-121000047D01*
X102507266Y-121130568D01*
X102713504Y-121226739D01*
X102933308Y-121285635D01*
X103095230Y-121299801D01*
X103159998Y-121305468D01*
X103160000Y-121305468D01*
X103160002Y-121305468D01*
X103216673Y-121300509D01*
X103386692Y-121285635D01*
X103606496Y-121226739D01*
X103812734Y-121130568D01*
X103999139Y-121000047D01*
X104160047Y-120839139D01*
X104290568Y-120652734D01*
X104386739Y-120446496D01*
X104445635Y-120226692D01*
X104465468Y-120000000D01*
X104445635Y-119773308D01*
X104388922Y-119561650D01*
X104386741Y-119553511D01*
X104386738Y-119553502D01*
X104363344Y-119503334D01*
X104290568Y-119347266D01*
X104168730Y-119173262D01*
X104160045Y-119160858D01*
X103999141Y-118999954D01*
X103812734Y-118869432D01*
X103812732Y-118869431D01*
X103606497Y-118773261D01*
X103606488Y-118773258D01*
X103386697Y-118714366D01*
X103386693Y-118714365D01*
X103386692Y-118714365D01*
X103386691Y-118714364D01*
X103386686Y-118714364D01*
X103160002Y-118694532D01*
X103159998Y-118694532D01*
X102933313Y-118714364D01*
X102933302Y-118714366D01*
X102713511Y-118773258D01*
X102713502Y-118773261D01*
X102507267Y-118869431D01*
X102507265Y-118869432D01*
X102320858Y-118999954D01*
X102159954Y-119160858D01*
X102029432Y-119347265D01*
X102029431Y-119347267D01*
X101933261Y-119553502D01*
X101933258Y-119553511D01*
X101874366Y-119773302D01*
X101874364Y-119773313D01*
X101854532Y-119999998D01*
X100500500Y-119999998D01*
X100500500Y-113011969D01*
X100520185Y-112944930D01*
X100572989Y-112899175D01*
X100642147Y-112889231D01*
X100705703Y-112918256D01*
X100731438Y-112950487D01*
X100731529Y-112950427D01*
X100732241Y-112951492D01*
X100733863Y-112953524D01*
X100734919Y-112955500D01*
X100747301Y-112974030D01*
X100747303Y-112974035D01*
X100817046Y-113078414D01*
X100817052Y-113078421D01*
X102621283Y-114882651D01*
X102654768Y-114943974D01*
X102649784Y-115013666D01*
X102607912Y-115069599D01*
X102586009Y-115082712D01*
X102563454Y-115093231D01*
X102507264Y-115119433D01*
X102320858Y-115249954D01*
X102159954Y-115410858D01*
X102029432Y-115597265D01*
X102029431Y-115597267D01*
X101933261Y-115803502D01*
X101933258Y-115803511D01*
X101874366Y-116023302D01*
X101874364Y-116023313D01*
X101854532Y-116249998D01*
X101854532Y-116250001D01*
X101874364Y-116476686D01*
X101874366Y-116476697D01*
X101933258Y-116696488D01*
X101933261Y-116696497D01*
X102029431Y-116902732D01*
X102029432Y-116902734D01*
X102159954Y-117089141D01*
X102320858Y-117250045D01*
X102320861Y-117250047D01*
X102507266Y-117380568D01*
X102713504Y-117476739D01*
X102933308Y-117535635D01*
X103095230Y-117549801D01*
X103159998Y-117555468D01*
X103160000Y-117555468D01*
X103160002Y-117555468D01*
X103224008Y-117549868D01*
X103386692Y-117535635D01*
X103606496Y-117476739D01*
X103812734Y-117380568D01*
X103999139Y-117250047D01*
X104160047Y-117089139D01*
X104290568Y-116902734D01*
X104327287Y-116823988D01*
X104373456Y-116771553D01*
X104440650Y-116752401D01*
X104507531Y-116772616D01*
X104527348Y-116788716D01*
X109893269Y-122154637D01*
X109922741Y-122174328D01*
X109966953Y-122203869D01*
X110016188Y-122236767D01*
X110016189Y-122236767D01*
X110016190Y-122236768D01*
X110016192Y-122236769D01*
X110138106Y-122287267D01*
X110152770Y-122293341D01*
X110152774Y-122293341D01*
X110152775Y-122293342D01*
X110297762Y-122322183D01*
X110297765Y-122322183D01*
X110297766Y-122322183D01*
X110445601Y-122322183D01*
X115209453Y-122322183D01*
X115276492Y-122341868D01*
X115297134Y-122358502D01*
X118921586Y-125982954D01*
X118951058Y-126002645D01*
X118995270Y-126032186D01*
X119044505Y-126065084D01*
X119044506Y-126065084D01*
X119044507Y-126065085D01*
X119044509Y-126065086D01*
X119181082Y-126121656D01*
X119181087Y-126121658D01*
X119181091Y-126121658D01*
X119181092Y-126121659D01*
X119326079Y-126150500D01*
X119326082Y-126150500D01*
X119326083Y-126150500D01*
X119473918Y-126150500D01*
X130597321Y-126150500D01*
X130664360Y-126170185D01*
X130698896Y-126203377D01*
X130779954Y-126319141D01*
X130940858Y-126480045D01*
X130987693Y-126512839D01*
X131127266Y-126610568D01*
X131150384Y-126621348D01*
X131185275Y-126637618D01*
X131237714Y-126683791D01*
X131256866Y-126750984D01*
X131236650Y-126817865D01*
X131185275Y-126862381D01*
X131185118Y-126862455D01*
X131127267Y-126889431D01*
X131127265Y-126889432D01*
X130940858Y-127019954D01*
X130779954Y-127180858D01*
X130649432Y-127367265D01*
X130649431Y-127367267D01*
X130553261Y-127573502D01*
X130553258Y-127573511D01*
X130494366Y-127793302D01*
X130494364Y-127793313D01*
X130474532Y-128019998D01*
X130474532Y-128020001D01*
X130494364Y-128246686D01*
X130494366Y-128246697D01*
X130553258Y-128466488D01*
X130553261Y-128466497D01*
X130649431Y-128672732D01*
X130649432Y-128672734D01*
X130779954Y-128859141D01*
X130940858Y-129020045D01*
X130940861Y-129020047D01*
X131127266Y-129150568D01*
X131249451Y-129207544D01*
X131261404Y-129213118D01*
X131313843Y-129259291D01*
X131332995Y-129326484D01*
X131312779Y-129393365D01*
X131259614Y-129438700D01*
X131208999Y-129449500D01*
X130812229Y-129449500D01*
X130745190Y-129429815D01*
X130724548Y-129413181D01*
X129636818Y-128325451D01*
X129603333Y-128264128D01*
X129600499Y-128237770D01*
X129600499Y-127002129D01*
X129600498Y-127002123D01*
X129600497Y-127002116D01*
X129594091Y-126942517D01*
X129574291Y-126889431D01*
X129543797Y-126807671D01*
X129543793Y-126807664D01*
X129457547Y-126692455D01*
X129457544Y-126692452D01*
X129342335Y-126606206D01*
X129342328Y-126606202D01*
X129207482Y-126555908D01*
X129207483Y-126555908D01*
X129147883Y-126549501D01*
X129147881Y-126549500D01*
X129147873Y-126549500D01*
X129147864Y-126549500D01*
X127252129Y-126549500D01*
X127252123Y-126549501D01*
X127192516Y-126555908D01*
X127057671Y-126606202D01*
X127057664Y-126606206D01*
X126942455Y-126692452D01*
X126942452Y-126692455D01*
X126856206Y-126807664D01*
X126856202Y-126807671D01*
X126805908Y-126942517D01*
X126799501Y-127002116D01*
X126799501Y-127002123D01*
X126799500Y-127002135D01*
X126799500Y-128897870D01*
X126799501Y-128897876D01*
X126805908Y-128957483D01*
X126856202Y-129092328D01*
X126856206Y-129092335D01*
X126942452Y-129207544D01*
X126942455Y-129207547D01*
X127057664Y-129293793D01*
X127057671Y-129293797D01*
X127192517Y-129344091D01*
X127192516Y-129344091D01*
X127199444Y-129344835D01*
X127252127Y-129350500D01*
X128487769Y-129350499D01*
X128554808Y-129370184D01*
X128575450Y-129386818D01*
X129235274Y-130046641D01*
X129867049Y-130678416D01*
X129971584Y-130782951D01*
X129971587Y-130782953D01*
X129971588Y-130782954D01*
X130094503Y-130865083D01*
X130094506Y-130865085D01*
X130151079Y-130888518D01*
X130151080Y-130888518D01*
X130231088Y-130921659D01*
X130335633Y-130942454D01*
X130362599Y-130947818D01*
X130376081Y-130950500D01*
X130376082Y-130950500D01*
X140673920Y-130950500D01*
X140771462Y-130931096D01*
X140818913Y-130921658D01*
X140955495Y-130865084D01*
X141004729Y-130832186D01*
X141078416Y-130782952D01*
X141782951Y-130078416D01*
X141847983Y-129981088D01*
X141855302Y-129970133D01*
X141908913Y-129925327D01*
X141978238Y-129916617D01*
X142009371Y-129927132D01*
X142009641Y-129926482D01*
X142015260Y-129928809D01*
X142015268Y-129928811D01*
X142015273Y-129928814D01*
X142203868Y-129986024D01*
X142293697Y-129994871D01*
X142358485Y-130021031D01*
X142369225Y-130030593D01*
X143121580Y-130782948D01*
X143121584Y-130782951D01*
X143244498Y-130865080D01*
X143244511Y-130865087D01*
X143361440Y-130913520D01*
X143381087Y-130921658D01*
X143381091Y-130921658D01*
X143381092Y-130921659D01*
X143526079Y-130950500D01*
X143526082Y-130950500D01*
X147773920Y-130950500D01*
X147871462Y-130931096D01*
X147918913Y-130921658D01*
X148055495Y-130865084D01*
X148104729Y-130832186D01*
X148178416Y-130782952D01*
X148280353Y-130681015D01*
X172153000Y-130681015D01*
X172153000Y-132181000D01*
X173377015Y-132181000D01*
X173353000Y-132332623D01*
X173353000Y-132529377D01*
X173377015Y-132681000D01*
X172153001Y-132681000D01*
X172153001Y-134180984D01*
X172163494Y-134283695D01*
X172218641Y-134450117D01*
X172218643Y-134450122D01*
X172310684Y-134599344D01*
X172434655Y-134723315D01*
X172583877Y-134815356D01*
X172583882Y-134815358D01*
X172750304Y-134870505D01*
X172750311Y-134870506D01*
X172853021Y-134880999D01*
X174352999Y-134880999D01*
X174353000Y-134880998D01*
X174353000Y-133656985D01*
X174504623Y-133681000D01*
X174701377Y-133681000D01*
X174853000Y-133656985D01*
X174853000Y-134880999D01*
X176352970Y-134880999D01*
X176352984Y-134880998D01*
X176455695Y-134870505D01*
X176622117Y-134815358D01*
X176622122Y-134815356D01*
X176771344Y-134723315D01*
X176895315Y-134599344D01*
X176987356Y-134450122D01*
X176987358Y-134450117D01*
X177042505Y-134283695D01*
X177042506Y-134283688D01*
X177052999Y-134180984D01*
X177053000Y-134180971D01*
X177053000Y-132681000D01*
X175828985Y-132681000D01*
X175853000Y-132529377D01*
X175853000Y-132332623D01*
X175828985Y-132181000D01*
X177052999Y-132181000D01*
X177052999Y-130681030D01*
X177052998Y-130681015D01*
X177042505Y-130578304D01*
X176987358Y-130411882D01*
X176987356Y-130411877D01*
X176895315Y-130262655D01*
X176771344Y-130138684D01*
X176622122Y-130046643D01*
X176622117Y-130046641D01*
X176455695Y-129991494D01*
X176455688Y-129991493D01*
X176352984Y-129981000D01*
X174853000Y-129981000D01*
X174853000Y-131205014D01*
X174701377Y-131181000D01*
X174504623Y-131181000D01*
X174353000Y-131205014D01*
X174353000Y-129981000D01*
X172853030Y-129981000D01*
X172853014Y-129981001D01*
X172750304Y-129991494D01*
X172583882Y-130046641D01*
X172583877Y-130046643D01*
X172434655Y-130138684D01*
X172310684Y-130262655D01*
X172218643Y-130411877D01*
X172218641Y-130411882D01*
X172163494Y-130578304D01*
X172163493Y-130578311D01*
X172153000Y-130681015D01*
X148280353Y-130681015D01*
X149034652Y-129926714D01*
X149095973Y-129893231D01*
X149133135Y-129890869D01*
X149276366Y-129903400D01*
X149299999Y-129905468D01*
X149300000Y-129905468D01*
X149300002Y-129905468D01*
X149361985Y-129900045D01*
X149526692Y-129885635D01*
X149746496Y-129826739D01*
X149952734Y-129730568D01*
X150139139Y-129600047D01*
X150300047Y-129439139D01*
X150430568Y-129252734D01*
X150526739Y-129046496D01*
X150565993Y-128899998D01*
X151694532Y-128899998D01*
X151694532Y-128900001D01*
X151714364Y-129126686D01*
X151714366Y-129126697D01*
X151773258Y-129346488D01*
X151773261Y-129346497D01*
X151869431Y-129552732D01*
X151869432Y-129552734D01*
X151999954Y-129739141D01*
X152160858Y-129900045D01*
X152160861Y-129900047D01*
X152347266Y-130030568D01*
X152553504Y-130126739D01*
X152773308Y-130185635D01*
X152935230Y-130199801D01*
X152999998Y-130205468D01*
X153000000Y-130205468D01*
X153000002Y-130205468D01*
X153056673Y-130200509D01*
X153226692Y-130185635D01*
X153446496Y-130126739D01*
X153652734Y-130030568D01*
X153839139Y-129900047D01*
X154000047Y-129739139D01*
X154130568Y-129552734D01*
X154226739Y-129346496D01*
X154285635Y-129126692D01*
X154305468Y-128900000D01*
X154285635Y-128673308D01*
X154240916Y-128506415D01*
X154226741Y-128453511D01*
X154226738Y-128453502D01*
X154130568Y-128247266D01*
X154000047Y-128060861D01*
X154000045Y-128060858D01*
X153939185Y-127999998D01*
X156814532Y-127999998D01*
X156814532Y-128000001D01*
X156834364Y-128226686D01*
X156834366Y-128226697D01*
X156893258Y-128446488D01*
X156893261Y-128446497D01*
X156989431Y-128652732D01*
X156989432Y-128652734D01*
X157119954Y-128839141D01*
X157280858Y-129000045D01*
X157280861Y-129000047D01*
X157467266Y-129130568D01*
X157673504Y-129226739D01*
X157893308Y-129285635D01*
X158055230Y-129299801D01*
X158119998Y-129305468D01*
X158120000Y-129305468D01*
X158120002Y-129305468D01*
X158176673Y-129300509D01*
X158346692Y-129285635D01*
X158566496Y-129226739D01*
X158772734Y-129130568D01*
X158959139Y-129000047D01*
X159120047Y-128839139D01*
X159250568Y-128652734D01*
X159346739Y-128446496D01*
X159405635Y-128226692D01*
X159425468Y-128000000D01*
X159425468Y-127999998D01*
X161814532Y-127999998D01*
X161814532Y-128000001D01*
X161834364Y-128226686D01*
X161834366Y-128226697D01*
X161893258Y-128446488D01*
X161893261Y-128446497D01*
X161989431Y-128652732D01*
X161989432Y-128652734D01*
X162119954Y-128839141D01*
X162280858Y-129000045D01*
X162280861Y-129000047D01*
X162467266Y-129130568D01*
X162673504Y-129226739D01*
X162893308Y-129285635D01*
X163055230Y-129299801D01*
X163119998Y-129305468D01*
X163120000Y-129305468D01*
X163120002Y-129305468D01*
X163176673Y-129300509D01*
X163346692Y-129285635D01*
X163566496Y-129226739D01*
X163772734Y-129130568D01*
X163959139Y-129000047D01*
X164120047Y-128839139D01*
X164250568Y-128652734D01*
X164346739Y-128446496D01*
X164405635Y-128226692D01*
X164425468Y-128000000D01*
X164405635Y-127773308D01*
X164346739Y-127553504D01*
X164250568Y-127347266D01*
X164127941Y-127172135D01*
X164120045Y-127160858D01*
X163959141Y-126999954D01*
X163772734Y-126869432D01*
X163772732Y-126869431D01*
X163566497Y-126773261D01*
X163566488Y-126773258D01*
X163346697Y-126714366D01*
X163346693Y-126714365D01*
X163346692Y-126714365D01*
X163346691Y-126714364D01*
X163346686Y-126714364D01*
X163120002Y-126694532D01*
X163119998Y-126694532D01*
X162893313Y-126714364D01*
X162893302Y-126714366D01*
X162673511Y-126773258D01*
X162673502Y-126773261D01*
X162467267Y-126869431D01*
X162467265Y-126869432D01*
X162280858Y-126999954D01*
X162119954Y-127160858D01*
X161989432Y-127347265D01*
X161989431Y-127347267D01*
X161893261Y-127553502D01*
X161893258Y-127553511D01*
X161834366Y-127773302D01*
X161834364Y-127773313D01*
X161814532Y-127999998D01*
X159425468Y-127999998D01*
X159405635Y-127773308D01*
X159346739Y-127553504D01*
X159250568Y-127347266D01*
X159127941Y-127172135D01*
X159120045Y-127160858D01*
X158959141Y-126999954D01*
X158772734Y-126869432D01*
X158772732Y-126869431D01*
X158566497Y-126773261D01*
X158566488Y-126773258D01*
X158346697Y-126714366D01*
X158346693Y-126714365D01*
X158346692Y-126714365D01*
X158346691Y-126714364D01*
X158346686Y-126714364D01*
X158120002Y-126694532D01*
X158119998Y-126694532D01*
X157893313Y-126714364D01*
X157893302Y-126714366D01*
X157673511Y-126773258D01*
X157673502Y-126773261D01*
X157467267Y-126869431D01*
X157467265Y-126869432D01*
X157280858Y-126999954D01*
X157119954Y-127160858D01*
X156989432Y-127347265D01*
X156989431Y-127347267D01*
X156893261Y-127553502D01*
X156893258Y-127553511D01*
X156834366Y-127773302D01*
X156834364Y-127773313D01*
X156814532Y-127999998D01*
X153939185Y-127999998D01*
X153839141Y-127899954D01*
X153652734Y-127769432D01*
X153652732Y-127769431D01*
X153446497Y-127673261D01*
X153446488Y-127673258D01*
X153226697Y-127614366D01*
X153226693Y-127614365D01*
X153226692Y-127614365D01*
X153226691Y-127614364D01*
X153226686Y-127614364D01*
X153000002Y-127594532D01*
X152999998Y-127594532D01*
X152773313Y-127614364D01*
X152773302Y-127614366D01*
X152553511Y-127673258D01*
X152553502Y-127673261D01*
X152347267Y-127769431D01*
X152347265Y-127769432D01*
X152160858Y-127899954D01*
X151999954Y-128060858D01*
X151869432Y-128247265D01*
X151869431Y-128247267D01*
X151773261Y-128453502D01*
X151773258Y-128453511D01*
X151714366Y-128673302D01*
X151714364Y-128673313D01*
X151694532Y-128899998D01*
X150565993Y-128899998D01*
X150585635Y-128826692D01*
X150605468Y-128600000D01*
X150585635Y-128373308D01*
X150539198Y-128200000D01*
X150526741Y-128153511D01*
X150526738Y-128153502D01*
X150430568Y-127947266D01*
X150308758Y-127773302D01*
X150300045Y-127760858D01*
X150139141Y-127599954D01*
X149952734Y-127469432D01*
X149952732Y-127469431D01*
X149746497Y-127373261D01*
X149746488Y-127373258D01*
X149526697Y-127314366D01*
X149526693Y-127314365D01*
X149526692Y-127314365D01*
X149526691Y-127314364D01*
X149526686Y-127314364D01*
X149300002Y-127294532D01*
X149299998Y-127294532D01*
X149073313Y-127314364D01*
X149073302Y-127314366D01*
X148853511Y-127373258D01*
X148853502Y-127373261D01*
X148647267Y-127469431D01*
X148647265Y-127469432D01*
X148460858Y-127599954D01*
X148299954Y-127760858D01*
X148169432Y-127947265D01*
X148169431Y-127947267D01*
X148073261Y-128153502D01*
X148073258Y-128153511D01*
X148014366Y-128373302D01*
X148014364Y-128373313D01*
X147994532Y-128599998D01*
X147994532Y-128600003D01*
X148009129Y-128766861D01*
X147995362Y-128835360D01*
X147973282Y-128865348D01*
X147425451Y-129413181D01*
X147364128Y-129446666D01*
X147337770Y-129449500D01*
X145530992Y-129449500D01*
X145463953Y-129429815D01*
X145418198Y-129377011D01*
X145408254Y-129307853D01*
X145428147Y-129257584D01*
X145427862Y-129257420D01*
X145428977Y-129255487D01*
X145429416Y-129254378D01*
X145430568Y-129252734D01*
X145526739Y-129046496D01*
X145585635Y-128826692D01*
X145605468Y-128600000D01*
X145585635Y-128373308D01*
X145539198Y-128200000D01*
X145526741Y-128153511D01*
X145526738Y-128153502D01*
X145430568Y-127947266D01*
X145308758Y-127773302D01*
X145300045Y-127760858D01*
X145139141Y-127599954D01*
X144952734Y-127469432D01*
X144952732Y-127469431D01*
X144746497Y-127373261D01*
X144746488Y-127373258D01*
X144526697Y-127314366D01*
X144526693Y-127314365D01*
X144526692Y-127314365D01*
X144526691Y-127314364D01*
X144526686Y-127314364D01*
X144300002Y-127294532D01*
X144299998Y-127294532D01*
X144073313Y-127314364D01*
X144073302Y-127314366D01*
X143853511Y-127373258D01*
X143853502Y-127373261D01*
X143647267Y-127469431D01*
X143647265Y-127469432D01*
X143460858Y-127599954D01*
X143299954Y-127760858D01*
X143169432Y-127947265D01*
X143169431Y-127947267D01*
X143101764Y-128092379D01*
X143055591Y-128144818D01*
X142988398Y-128163970D01*
X142930929Y-128149332D01*
X142784732Y-128071188D01*
X142784729Y-128071187D01*
X142784727Y-128071186D01*
X142596132Y-128013976D01*
X142596129Y-128013975D01*
X142400000Y-127994659D01*
X142203869Y-128013975D01*
X142110495Y-128042300D01*
X142040628Y-128042923D01*
X141981515Y-128005674D01*
X141951924Y-127942380D01*
X141950500Y-127923639D01*
X141950500Y-124399997D01*
X142995034Y-124399997D01*
X142995034Y-124400002D01*
X143014858Y-124626599D01*
X143014860Y-124626610D01*
X143073730Y-124846317D01*
X143073735Y-124846331D01*
X143169863Y-125052478D01*
X143220974Y-125125472D01*
X143900000Y-124446446D01*
X143900000Y-124452661D01*
X143927259Y-124554394D01*
X143979920Y-124645606D01*
X144054394Y-124720080D01*
X144145606Y-124772741D01*
X144247339Y-124800000D01*
X144253553Y-124800000D01*
X143574526Y-125479025D01*
X143647513Y-125530132D01*
X143647521Y-125530136D01*
X143853668Y-125626264D01*
X143853682Y-125626269D01*
X144073389Y-125685139D01*
X144073400Y-125685141D01*
X144299998Y-125704966D01*
X144300002Y-125704966D01*
X144526599Y-125685141D01*
X144526610Y-125685139D01*
X144746317Y-125626269D01*
X144746331Y-125626264D01*
X144952478Y-125530136D01*
X145025471Y-125479024D01*
X144346447Y-124800000D01*
X144352661Y-124800000D01*
X144454394Y-124772741D01*
X144545606Y-124720080D01*
X144620080Y-124645606D01*
X144672741Y-124554394D01*
X144700000Y-124452661D01*
X144700000Y-124446447D01*
X145379024Y-125125471D01*
X145430136Y-125052478D01*
X145526264Y-124846331D01*
X145526269Y-124846317D01*
X145585139Y-124626610D01*
X145585141Y-124626599D01*
X145604966Y-124400002D01*
X145604966Y-124399998D01*
X147994532Y-124399998D01*
X147994532Y-124400001D01*
X148014364Y-124626686D01*
X148014366Y-124626697D01*
X148073258Y-124846488D01*
X148073261Y-124846497D01*
X148169431Y-125052732D01*
X148169432Y-125052734D01*
X148299954Y-125239141D01*
X148460858Y-125400045D01*
X148460861Y-125400047D01*
X148647266Y-125530568D01*
X148853504Y-125626739D01*
X149073308Y-125685635D01*
X149235230Y-125699801D01*
X149299998Y-125705468D01*
X149300000Y-125705468D01*
X149300002Y-125705468D01*
X149356673Y-125700509D01*
X149526692Y-125685635D01*
X149746496Y-125626739D01*
X149952734Y-125530568D01*
X150139139Y-125400047D01*
X150300047Y-125239139D01*
X150430568Y-125052734D01*
X150526739Y-124846496D01*
X150585635Y-124626692D01*
X150605468Y-124400000D01*
X150601093Y-124349999D01*
X150594962Y-124279920D01*
X150585635Y-124173308D01*
X150526739Y-123953504D01*
X150501789Y-123899998D01*
X151694532Y-123899998D01*
X151694532Y-123900001D01*
X151714364Y-124126686D01*
X151714366Y-124126697D01*
X151773258Y-124346488D01*
X151773261Y-124346497D01*
X151869431Y-124552732D01*
X151869432Y-124552734D01*
X151999954Y-124739141D01*
X152160858Y-124900045D01*
X152160861Y-124900047D01*
X152347266Y-125030568D01*
X152553504Y-125126739D01*
X152773308Y-125185635D01*
X152935230Y-125199801D01*
X152999998Y-125205468D01*
X153000000Y-125205468D01*
X153000002Y-125205468D01*
X153056673Y-125200509D01*
X153226692Y-125185635D01*
X153446496Y-125126739D01*
X153652734Y-125030568D01*
X153839139Y-124900047D01*
X154000047Y-124739139D01*
X154130568Y-124552734D01*
X154226739Y-124346496D01*
X154285635Y-124126692D01*
X154305468Y-123900000D01*
X154285635Y-123673308D01*
X154226739Y-123453504D01*
X154130568Y-123247266D01*
X154023975Y-123095034D01*
X154000045Y-123060858D01*
X153839141Y-122899954D01*
X153652734Y-122769432D01*
X153652732Y-122769431D01*
X153446497Y-122673261D01*
X153446488Y-122673258D01*
X153226697Y-122614366D01*
X153226693Y-122614365D01*
X153226692Y-122614365D01*
X153226691Y-122614364D01*
X153226686Y-122614364D01*
X153000002Y-122594532D01*
X152999998Y-122594532D01*
X152773313Y-122614364D01*
X152773302Y-122614366D01*
X152553511Y-122673258D01*
X152553502Y-122673261D01*
X152347267Y-122769431D01*
X152347265Y-122769432D01*
X152160858Y-122899954D01*
X151999954Y-123060858D01*
X151869432Y-123247265D01*
X151869431Y-123247267D01*
X151773261Y-123453502D01*
X151773258Y-123453511D01*
X151714366Y-123673302D01*
X151714364Y-123673313D01*
X151694532Y-123899998D01*
X150501789Y-123899998D01*
X150430568Y-123747266D01*
X150300047Y-123560861D01*
X150300045Y-123560858D01*
X150139141Y-123399954D01*
X149952734Y-123269432D01*
X149952732Y-123269431D01*
X149746497Y-123173261D01*
X149746488Y-123173258D01*
X149526697Y-123114366D01*
X149526693Y-123114365D01*
X149526692Y-123114365D01*
X149526691Y-123114364D01*
X149526686Y-123114364D01*
X149300002Y-123094532D01*
X149299998Y-123094532D01*
X149073313Y-123114364D01*
X149073302Y-123114366D01*
X148853511Y-123173258D01*
X148853502Y-123173261D01*
X148647267Y-123269431D01*
X148647265Y-123269432D01*
X148460858Y-123399954D01*
X148299954Y-123560858D01*
X148169432Y-123747265D01*
X148169431Y-123747267D01*
X148073261Y-123953502D01*
X148073258Y-123953511D01*
X148014366Y-124173302D01*
X148014364Y-124173313D01*
X147994532Y-124399998D01*
X145604966Y-124399998D01*
X145604966Y-124399997D01*
X145585141Y-124173400D01*
X145585139Y-124173389D01*
X145526269Y-123953682D01*
X145526264Y-123953668D01*
X145430136Y-123747521D01*
X145430132Y-123747513D01*
X145379025Y-123674526D01*
X144700000Y-124353551D01*
X144700000Y-124347339D01*
X144672741Y-124245606D01*
X144620080Y-124154394D01*
X144545606Y-124079920D01*
X144454394Y-124027259D01*
X144352661Y-124000000D01*
X144346448Y-124000000D01*
X145025472Y-123320974D01*
X144952478Y-123269863D01*
X144746331Y-123173735D01*
X144746317Y-123173730D01*
X144526610Y-123114860D01*
X144526599Y-123114858D01*
X144300002Y-123095034D01*
X144299998Y-123095034D01*
X144073400Y-123114858D01*
X144073389Y-123114860D01*
X143853682Y-123173730D01*
X143853673Y-123173734D01*
X143647516Y-123269866D01*
X143647512Y-123269868D01*
X143574526Y-123320973D01*
X143574526Y-123320974D01*
X144253553Y-124000000D01*
X144247339Y-124000000D01*
X144145606Y-124027259D01*
X144054394Y-124079920D01*
X143979920Y-124154394D01*
X143927259Y-124245606D01*
X143900000Y-124347339D01*
X143900000Y-124353552D01*
X143220974Y-123674526D01*
X143220973Y-123674526D01*
X143169868Y-123747512D01*
X143169866Y-123747516D01*
X143073734Y-123953673D01*
X143073730Y-123953682D01*
X143014860Y-124173389D01*
X143014858Y-124173400D01*
X142995034Y-124399997D01*
X141950500Y-124399997D01*
X141950500Y-123322229D01*
X141970185Y-123255190D01*
X141986819Y-123234548D01*
X142934102Y-122287265D01*
X143894652Y-121326714D01*
X143955973Y-121293231D01*
X143993135Y-121290869D01*
X144136366Y-121303400D01*
X144159999Y-121305468D01*
X144160000Y-121305468D01*
X144160002Y-121305468D01*
X144216673Y-121300509D01*
X144386692Y-121285635D01*
X144606496Y-121226739D01*
X144812734Y-121130568D01*
X144999139Y-121000047D01*
X145160047Y-120839139D01*
X145290568Y-120652734D01*
X145386739Y-120446496D01*
X145445635Y-120226692D01*
X145465468Y-120000000D01*
X145465468Y-119999998D01*
X153014532Y-119999998D01*
X153014532Y-120000001D01*
X153034364Y-120226686D01*
X153034366Y-120226697D01*
X153093258Y-120446488D01*
X153093261Y-120446497D01*
X153189431Y-120652732D01*
X153189432Y-120652734D01*
X153319954Y-120839141D01*
X153480858Y-121000045D01*
X153480861Y-121000047D01*
X153667266Y-121130568D01*
X153873504Y-121226739D01*
X154093308Y-121285635D01*
X154255230Y-121299801D01*
X154319998Y-121305468D01*
X154320000Y-121305468D01*
X154320002Y-121305468D01*
X154376673Y-121300509D01*
X154546692Y-121285635D01*
X154766496Y-121226739D01*
X154972734Y-121130568D01*
X155159139Y-121000047D01*
X155320047Y-120839139D01*
X155450568Y-120652734D01*
X155546739Y-120446496D01*
X155559198Y-120399998D01*
X156714532Y-120399998D01*
X156714532Y-120400001D01*
X156734364Y-120626686D01*
X156734366Y-120626697D01*
X156793258Y-120846488D01*
X156793261Y-120846497D01*
X156889431Y-121052732D01*
X156889432Y-121052734D01*
X157019954Y-121239141D01*
X157180858Y-121400045D01*
X157180861Y-121400047D01*
X157367266Y-121530568D01*
X157573504Y-121626739D01*
X157793308Y-121685635D01*
X157955230Y-121699801D01*
X158019998Y-121705468D01*
X158020000Y-121705468D01*
X158020002Y-121705468D01*
X158076673Y-121700509D01*
X158246692Y-121685635D01*
X158466496Y-121626739D01*
X158672734Y-121530568D01*
X158859139Y-121400047D01*
X159020047Y-121239139D01*
X159150568Y-121052734D01*
X159246739Y-120846496D01*
X159305635Y-120626692D01*
X159311040Y-120564904D01*
X159336492Y-120499837D01*
X159346879Y-120488039D01*
X159434920Y-120399998D01*
X161714532Y-120399998D01*
X161714532Y-120400001D01*
X161734364Y-120626686D01*
X161734366Y-120626697D01*
X161793258Y-120846488D01*
X161793261Y-120846497D01*
X161889431Y-121052732D01*
X161889432Y-121052734D01*
X162019954Y-121239141D01*
X162180858Y-121400045D01*
X162180861Y-121400047D01*
X162367266Y-121530568D01*
X162573504Y-121626739D01*
X162793308Y-121685635D01*
X162955230Y-121699801D01*
X163019998Y-121705468D01*
X163020000Y-121705468D01*
X163020002Y-121705468D01*
X163076673Y-121700509D01*
X163246692Y-121685635D01*
X163466496Y-121626739D01*
X163672734Y-121530568D01*
X163859139Y-121400047D01*
X164020047Y-121239139D01*
X164150568Y-121052734D01*
X164246739Y-120846496D01*
X164305635Y-120626692D01*
X164325468Y-120400000D01*
X164305635Y-120173308D01*
X164246739Y-119953504D01*
X164150568Y-119747266D01*
X164028539Y-119572989D01*
X164020045Y-119560858D01*
X163859141Y-119399954D01*
X163672734Y-119269432D01*
X163672732Y-119269431D01*
X163466497Y-119173261D01*
X163466488Y-119173258D01*
X163246697Y-119114366D01*
X163246693Y-119114365D01*
X163246692Y-119114365D01*
X163246691Y-119114364D01*
X163246686Y-119114364D01*
X163020002Y-119094532D01*
X163019998Y-119094532D01*
X162793313Y-119114364D01*
X162793302Y-119114366D01*
X162573511Y-119173258D01*
X162573502Y-119173261D01*
X162367267Y-119269431D01*
X162367265Y-119269432D01*
X162180858Y-119399954D01*
X162019954Y-119560858D01*
X161889432Y-119747265D01*
X161889431Y-119747267D01*
X161793261Y-119953502D01*
X161793258Y-119953511D01*
X161734366Y-120173302D01*
X161734364Y-120173313D01*
X161714532Y-120399998D01*
X159434920Y-120399998D01*
X163198101Y-116636819D01*
X163259424Y-116603334D01*
X163285782Y-116600500D01*
X171018542Y-116600500D01*
X171037870Y-116596655D01*
X171115188Y-116581275D01*
X171211836Y-116562051D01*
X171297086Y-116526739D01*
X171393914Y-116486632D01*
X171557782Y-116377139D01*
X171697139Y-116237782D01*
X171697140Y-116237779D01*
X171704206Y-116230714D01*
X171704209Y-116230710D01*
X174048101Y-113886818D01*
X174109424Y-113853333D01*
X174135782Y-113850499D01*
X176870000Y-113850499D01*
X176870006Y-113850499D01*
X176972796Y-113839999D01*
X177139333Y-113784814D01*
X177288655Y-113692711D01*
X177412711Y-113568655D01*
X177504814Y-113419333D01*
X177559999Y-113252796D01*
X177570500Y-113150007D01*
X177570499Y-109649994D01*
X177564155Y-109587894D01*
X177559999Y-109547204D01*
X177559998Y-109547201D01*
X177536649Y-109476739D01*
X177504814Y-109380667D01*
X177412711Y-109231345D01*
X177288655Y-109107289D01*
X177139333Y-109015186D01*
X176972796Y-108960001D01*
X176972794Y-108960000D01*
X176870008Y-108949500D01*
X173370000Y-108949500D01*
X173369983Y-108949501D01*
X173267204Y-108960000D01*
X173267201Y-108960001D01*
X173100669Y-109015185D01*
X173100664Y-109015187D01*
X172951343Y-109107290D01*
X172827290Y-109231343D01*
X172735187Y-109380664D01*
X172735185Y-109380669D01*
X172722511Y-109418917D01*
X172680001Y-109547204D01*
X172680001Y-109547205D01*
X172680000Y-109547205D01*
X172669500Y-109649985D01*
X172669500Y-112384217D01*
X172649815Y-112451256D01*
X172633181Y-112471898D01*
X170541899Y-114563181D01*
X170480576Y-114596666D01*
X170454218Y-114599500D01*
X162721455Y-114599500D01*
X162624812Y-114618724D01*
X162528167Y-114637947D01*
X162528161Y-114637949D01*
X162474834Y-114660037D01*
X162474834Y-114660038D01*
X162429315Y-114678892D01*
X162346089Y-114713366D01*
X162346079Y-114713371D01*
X162182219Y-114822859D01*
X162122428Y-114882651D01*
X162042861Y-114962218D01*
X162042858Y-114962221D01*
X157931967Y-119073111D01*
X157870644Y-119106596D01*
X157855096Y-119108958D01*
X157793311Y-119114364D01*
X157793302Y-119114366D01*
X157573511Y-119173258D01*
X157573502Y-119173261D01*
X157367267Y-119269431D01*
X157367265Y-119269432D01*
X157180858Y-119399954D01*
X157019954Y-119560858D01*
X156889432Y-119747265D01*
X156889431Y-119747267D01*
X156793261Y-119953502D01*
X156793258Y-119953511D01*
X156734366Y-120173302D01*
X156734364Y-120173313D01*
X156714532Y-120399998D01*
X155559198Y-120399998D01*
X155605635Y-120226692D01*
X155625468Y-120000000D01*
X155605635Y-119773308D01*
X155548922Y-119561650D01*
X155546741Y-119553511D01*
X155546738Y-119553502D01*
X155523344Y-119503334D01*
X155450568Y-119347266D01*
X155328730Y-119173262D01*
X155320045Y-119160858D01*
X155159141Y-118999954D01*
X154972734Y-118869432D01*
X154972732Y-118869431D01*
X154766497Y-118773261D01*
X154766488Y-118773258D01*
X154546697Y-118714366D01*
X154546693Y-118714365D01*
X154546692Y-118714365D01*
X154546691Y-118714364D01*
X154546686Y-118714364D01*
X154320002Y-118694532D01*
X154319998Y-118694532D01*
X154093313Y-118714364D01*
X154093302Y-118714366D01*
X153873511Y-118773258D01*
X153873502Y-118773261D01*
X153667267Y-118869431D01*
X153667265Y-118869432D01*
X153480858Y-118999954D01*
X153319954Y-119160858D01*
X153189432Y-119347265D01*
X153189431Y-119347267D01*
X153093261Y-119553502D01*
X153093258Y-119553511D01*
X153034366Y-119773302D01*
X153034364Y-119773313D01*
X153014532Y-119999998D01*
X145465468Y-119999998D01*
X145445635Y-119773308D01*
X145388922Y-119561650D01*
X145386741Y-119553511D01*
X145386738Y-119553502D01*
X145363344Y-119503334D01*
X145290568Y-119347266D01*
X145168730Y-119173262D01*
X145160045Y-119160858D01*
X144999141Y-118999954D01*
X144812734Y-118869432D01*
X144812732Y-118869431D01*
X144606497Y-118773261D01*
X144606488Y-118773258D01*
X144386697Y-118714366D01*
X144386693Y-118714365D01*
X144386692Y-118714365D01*
X144386691Y-118714364D01*
X144386686Y-118714364D01*
X144160002Y-118694532D01*
X144159998Y-118694532D01*
X143933313Y-118714364D01*
X143933302Y-118714366D01*
X143713511Y-118773258D01*
X143713502Y-118773261D01*
X143507267Y-118869431D01*
X143507265Y-118869432D01*
X143320858Y-118999954D01*
X143159954Y-119160858D01*
X143029432Y-119347265D01*
X143029431Y-119347267D01*
X142933261Y-119553502D01*
X142933258Y-119553511D01*
X142874366Y-119773302D01*
X142874364Y-119773313D01*
X142854532Y-119999998D01*
X142854532Y-120000003D01*
X142869129Y-120166861D01*
X142855362Y-120235360D01*
X142833282Y-120265348D01*
X140745087Y-122353543D01*
X140683764Y-122387028D01*
X140614072Y-122382044D01*
X140558139Y-122340172D01*
X140545024Y-122318267D01*
X140533401Y-122293342D01*
X140530568Y-122287266D01*
X140400047Y-122100861D01*
X140400045Y-122100858D01*
X140239141Y-121939954D01*
X140052734Y-121809432D01*
X140052732Y-121809431D01*
X139994725Y-121782382D01*
X139994132Y-121782105D01*
X139941694Y-121735934D01*
X139922542Y-121668740D01*
X139942758Y-121601859D01*
X139994134Y-121557341D01*
X140052484Y-121530132D01*
X140238820Y-121399657D01*
X140399657Y-121238820D01*
X140530134Y-121052482D01*
X140626265Y-120846326D01*
X140626269Y-120846317D01*
X140678872Y-120650000D01*
X139715686Y-120650000D01*
X139720080Y-120645606D01*
X139772741Y-120554394D01*
X139800000Y-120452661D01*
X139800000Y-120347339D01*
X139772741Y-120245606D01*
X139720080Y-120154394D01*
X139715686Y-120150000D01*
X140678872Y-120150000D01*
X140678872Y-120149999D01*
X140626269Y-119953682D01*
X140626265Y-119953673D01*
X140530134Y-119747517D01*
X140399657Y-119561179D01*
X140238820Y-119400342D01*
X140052482Y-119269865D01*
X139846328Y-119173734D01*
X139650000Y-119121127D01*
X139650000Y-120084314D01*
X139645606Y-120079920D01*
X139554394Y-120027259D01*
X139452661Y-120000000D01*
X139347339Y-120000000D01*
X139245606Y-120027259D01*
X139154394Y-120079920D01*
X139150000Y-120084314D01*
X139150000Y-119121127D01*
X138953671Y-119173734D01*
X138747517Y-119269865D01*
X138561179Y-119400342D01*
X138400342Y-119561179D01*
X138269865Y-119747517D01*
X138173734Y-119953673D01*
X138173730Y-119953682D01*
X138114860Y-120173389D01*
X138114858Y-120173399D01*
X138104238Y-120294788D01*
X138078785Y-120359857D01*
X138022194Y-120400835D01*
X137952432Y-120404713D01*
X137893029Y-120371661D01*
X134738421Y-117217052D01*
X134738414Y-117217046D01*
X134664729Y-117167812D01*
X134664729Y-117167813D01*
X134615491Y-117134913D01*
X134478917Y-117078343D01*
X134478907Y-117078340D01*
X134333920Y-117049500D01*
X134333918Y-117049500D01*
X130631230Y-117049500D01*
X130564191Y-117029815D01*
X130518436Y-116977011D01*
X130508492Y-116907853D01*
X130537517Y-116844297D01*
X130543549Y-116837819D01*
X130954986Y-116426382D01*
X132131367Y-115249999D01*
X142881127Y-115249999D01*
X142881128Y-115250000D01*
X143844314Y-115250000D01*
X143839920Y-115254394D01*
X143787259Y-115345606D01*
X143760000Y-115447339D01*
X143760000Y-115552661D01*
X143787259Y-115654394D01*
X143839920Y-115745606D01*
X143844314Y-115750000D01*
X142881128Y-115750000D01*
X142933730Y-115946317D01*
X142933734Y-115946326D01*
X143029865Y-116152482D01*
X143160342Y-116338820D01*
X143321179Y-116499657D01*
X143507517Y-116630134D01*
X143713673Y-116726265D01*
X143713682Y-116726269D01*
X143909999Y-116778872D01*
X143910000Y-116778871D01*
X143910000Y-115815686D01*
X143914394Y-115820080D01*
X144005606Y-115872741D01*
X144107339Y-115900000D01*
X144212661Y-115900000D01*
X144314394Y-115872741D01*
X144405606Y-115820080D01*
X144410000Y-115815686D01*
X144410000Y-116778872D01*
X144606317Y-116726269D01*
X144606326Y-116726265D01*
X144812482Y-116630134D01*
X144998820Y-116499657D01*
X145159657Y-116338820D01*
X145290134Y-116152482D01*
X145386265Y-115946326D01*
X145386269Y-115946317D01*
X145438872Y-115750000D01*
X144475686Y-115750000D01*
X144480080Y-115745606D01*
X144532741Y-115654394D01*
X144560000Y-115552661D01*
X144560000Y-115447339D01*
X144532741Y-115345606D01*
X144480080Y-115254394D01*
X144475686Y-115250000D01*
X145438872Y-115250000D01*
X145438872Y-115249999D01*
X145386269Y-115053682D01*
X145386265Y-115053673D01*
X145290134Y-114847517D01*
X145159657Y-114661179D01*
X144998820Y-114500342D01*
X144812482Y-114369865D01*
X144606328Y-114273734D01*
X144410000Y-114221127D01*
X144410000Y-115184314D01*
X144405606Y-115179920D01*
X144314394Y-115127259D01*
X144212661Y-115100000D01*
X144107339Y-115100000D01*
X144005606Y-115127259D01*
X143914394Y-115179920D01*
X143910000Y-115184314D01*
X143910000Y-114221127D01*
X143713671Y-114273734D01*
X143507517Y-114369865D01*
X143321179Y-114500342D01*
X143160342Y-114661179D01*
X143029865Y-114847517D01*
X142933734Y-115053673D01*
X142933730Y-115053682D01*
X142881127Y-115249999D01*
X132131367Y-115249999D01*
X132254652Y-115126714D01*
X132315973Y-115093231D01*
X132353135Y-115090869D01*
X132496366Y-115103400D01*
X132519999Y-115105468D01*
X132520000Y-115105468D01*
X132520002Y-115105468D01*
X132582499Y-115100000D01*
X132746692Y-115085635D01*
X132966496Y-115026739D01*
X133172734Y-114930568D01*
X133359139Y-114800047D01*
X133520047Y-114639139D01*
X133650568Y-114452734D01*
X133746739Y-114246496D01*
X133805635Y-114026692D01*
X133825468Y-113800000D01*
X133825468Y-113799998D01*
X136214532Y-113799998D01*
X136214532Y-113800001D01*
X136234364Y-114026686D01*
X136234366Y-114026697D01*
X136293258Y-114246488D01*
X136293261Y-114246497D01*
X136389431Y-114452732D01*
X136389432Y-114452734D01*
X136519954Y-114639141D01*
X136680858Y-114800045D01*
X136680861Y-114800047D01*
X136867266Y-114930568D01*
X137073504Y-115026739D01*
X137293308Y-115085635D01*
X137455230Y-115099801D01*
X137519998Y-115105468D01*
X137520000Y-115105468D01*
X137520002Y-115105468D01*
X137582499Y-115100000D01*
X137746692Y-115085635D01*
X137966496Y-115026739D01*
X138172734Y-114930568D01*
X138359139Y-114800047D01*
X138520047Y-114639139D01*
X138650568Y-114452734D01*
X138746739Y-114246496D01*
X138805635Y-114026692D01*
X138825468Y-113800000D01*
X138824139Y-113784814D01*
X138819801Y-113735230D01*
X138805635Y-113573308D01*
X138746739Y-113353504D01*
X138650568Y-113147266D01*
X138552839Y-113007693D01*
X138520045Y-112960858D01*
X138359141Y-112799954D01*
X138172734Y-112669432D01*
X138172732Y-112669431D01*
X137966497Y-112573261D01*
X137966488Y-112573258D01*
X137746697Y-112514366D01*
X137746693Y-112514365D01*
X137746692Y-112514365D01*
X137746691Y-112514364D01*
X137746686Y-112514364D01*
X137520002Y-112494532D01*
X137519998Y-112494532D01*
X137293313Y-112514364D01*
X137293302Y-112514366D01*
X137073511Y-112573258D01*
X137073502Y-112573261D01*
X136867267Y-112669431D01*
X136867265Y-112669432D01*
X136680858Y-112799954D01*
X136519954Y-112960858D01*
X136389432Y-113147265D01*
X136389431Y-113147267D01*
X136293261Y-113353502D01*
X136293258Y-113353511D01*
X136234366Y-113573302D01*
X136234364Y-113573313D01*
X136214532Y-113799998D01*
X133825468Y-113799998D01*
X133824139Y-113784814D01*
X133819801Y-113735230D01*
X133805635Y-113573308D01*
X133746739Y-113353504D01*
X133650568Y-113147266D01*
X133552839Y-113007693D01*
X133520045Y-112960858D01*
X133359141Y-112799954D01*
X133172734Y-112669432D01*
X133172732Y-112669431D01*
X132966497Y-112573261D01*
X132966488Y-112573258D01*
X132746697Y-112514366D01*
X132746687Y-112514364D01*
X132644062Y-112505386D01*
X132578994Y-112479933D01*
X132538015Y-112423343D01*
X132534137Y-112353581D01*
X132567186Y-112294179D01*
X132674549Y-112186816D01*
X132735871Y-112153334D01*
X132762229Y-112150500D01*
X141437770Y-112150500D01*
X141504809Y-112170185D01*
X141525451Y-112186819D01*
X142471579Y-113132947D01*
X142471582Y-113132949D01*
X142471585Y-113132952D01*
X142497110Y-113150007D01*
X142497111Y-113150008D01*
X142594508Y-113215086D01*
X142651079Y-113238518D01*
X142651080Y-113238518D01*
X142731088Y-113271659D01*
X142847241Y-113294763D01*
X142866468Y-113298587D01*
X142876081Y-113300500D01*
X142876082Y-113300500D01*
X142876083Y-113300500D01*
X143023918Y-113300500D01*
X151007770Y-113300500D01*
X151074809Y-113320185D01*
X151095451Y-113336819D01*
X152993282Y-115234650D01*
X153026767Y-115295973D01*
X153029129Y-115333137D01*
X153014532Y-115499996D01*
X153014532Y-115500001D01*
X153034364Y-115726686D01*
X153034366Y-115726697D01*
X153093258Y-115946488D01*
X153093261Y-115946497D01*
X153189431Y-116152732D01*
X153189432Y-116152734D01*
X153319954Y-116339141D01*
X153480858Y-116500045D01*
X153480861Y-116500047D01*
X153667266Y-116630568D01*
X153873504Y-116726739D01*
X154093308Y-116785635D01*
X154255230Y-116799801D01*
X154319998Y-116805468D01*
X154320000Y-116805468D01*
X154320002Y-116805468D01*
X154376673Y-116800509D01*
X154546692Y-116785635D01*
X154766496Y-116726739D01*
X154972734Y-116630568D01*
X155159139Y-116500047D01*
X155320047Y-116339139D01*
X155450568Y-116152734D01*
X155546739Y-115946496D01*
X155605635Y-115726692D01*
X155625468Y-115500000D01*
X155605635Y-115273308D01*
X155552047Y-115073313D01*
X155546741Y-115053511D01*
X155546738Y-115053502D01*
X155505173Y-114964366D01*
X155450568Y-114847266D01*
X155320047Y-114660861D01*
X155320045Y-114660858D01*
X155159141Y-114499954D01*
X154972734Y-114369432D01*
X154972732Y-114369431D01*
X154766497Y-114273261D01*
X154766488Y-114273258D01*
X154546697Y-114214366D01*
X154546693Y-114214365D01*
X154546692Y-114214365D01*
X154546691Y-114214364D01*
X154546686Y-114214364D01*
X154320002Y-114194532D01*
X154319997Y-114194532D01*
X154153137Y-114209129D01*
X154084637Y-114195362D01*
X154054650Y-114173282D01*
X151848421Y-111967052D01*
X151848414Y-111967046D01*
X151748818Y-111900499D01*
X151748817Y-111900499D01*
X151725495Y-111884916D01*
X151725488Y-111884912D01*
X151588917Y-111828343D01*
X151588907Y-111828340D01*
X151443920Y-111799500D01*
X151443918Y-111799500D01*
X145496771Y-111799500D01*
X145429732Y-111779815D01*
X145383977Y-111727011D01*
X145374033Y-111657853D01*
X145384389Y-111623095D01*
X145400740Y-111588030D01*
X145466739Y-111446496D01*
X145525635Y-111226692D01*
X145545468Y-111000000D01*
X145545468Y-110999998D01*
X153094532Y-110999998D01*
X153094532Y-111000001D01*
X153114364Y-111226686D01*
X153114366Y-111226697D01*
X153173258Y-111446488D01*
X153173261Y-111446497D01*
X153269431Y-111652732D01*
X153269432Y-111652734D01*
X153399954Y-111839141D01*
X153560858Y-112000045D01*
X153598906Y-112026686D01*
X153747266Y-112130568D01*
X153953504Y-112226739D01*
X154173308Y-112285635D01*
X154335230Y-112299801D01*
X154399998Y-112305468D01*
X154400000Y-112305468D01*
X154400002Y-112305468D01*
X154456673Y-112300509D01*
X154626692Y-112285635D01*
X154846496Y-112226739D01*
X155052734Y-112130568D01*
X155239139Y-112000047D01*
X155400047Y-111839139D01*
X155530568Y-111652734D01*
X155626739Y-111446496D01*
X155662307Y-111313755D01*
X155668027Y-111292407D01*
X155704392Y-111232746D01*
X155767239Y-111202217D01*
X155787802Y-111200500D01*
X157080951Y-111200500D01*
X157147990Y-111220185D01*
X157193745Y-111272989D01*
X157203689Y-111342147D01*
X157174664Y-111405703D01*
X157168632Y-111412181D01*
X157019954Y-111560858D01*
X156889432Y-111747265D01*
X156889431Y-111747267D01*
X156793261Y-111953502D01*
X156793258Y-111953511D01*
X156734366Y-112173302D01*
X156734364Y-112173313D01*
X156714532Y-112399998D01*
X156714532Y-112400001D01*
X156734364Y-112626686D01*
X156734366Y-112626697D01*
X156793258Y-112846488D01*
X156793261Y-112846497D01*
X156889431Y-113052732D01*
X156889432Y-113052734D01*
X157019954Y-113239141D01*
X157180858Y-113400045D01*
X157208407Y-113419335D01*
X157367266Y-113530568D01*
X157573504Y-113626739D01*
X157793308Y-113685635D01*
X157955230Y-113699801D01*
X158019998Y-113705468D01*
X158020000Y-113705468D01*
X158020002Y-113705468D01*
X158076673Y-113700509D01*
X158246692Y-113685635D01*
X158466496Y-113626739D01*
X158672734Y-113530568D01*
X158859139Y-113400047D01*
X159020047Y-113239139D01*
X159150568Y-113052734D01*
X159246739Y-112846496D01*
X159305635Y-112626692D01*
X159325468Y-112400000D01*
X159323976Y-112382952D01*
X159319801Y-112335230D01*
X159305635Y-112173308D01*
X159252047Y-111973313D01*
X159246741Y-111953511D01*
X159246738Y-111953502D01*
X159233952Y-111926082D01*
X159150568Y-111747266D01*
X159028758Y-111573302D01*
X159020045Y-111560858D01*
X158871368Y-111412181D01*
X158837883Y-111350858D01*
X158842867Y-111281166D01*
X158884739Y-111225233D01*
X158950203Y-111200816D01*
X158959049Y-111200500D01*
X162169744Y-111200500D01*
X162236783Y-111220185D01*
X162282538Y-111272989D01*
X162290028Y-111316476D01*
X162973553Y-112000000D01*
X162967339Y-112000000D01*
X162865606Y-112027259D01*
X162774394Y-112079920D01*
X162699920Y-112154394D01*
X162647259Y-112245606D01*
X162620000Y-112347339D01*
X162620000Y-112353552D01*
X161940974Y-111674526D01*
X161940973Y-111674526D01*
X161889868Y-111747512D01*
X161889866Y-111747516D01*
X161793734Y-111953673D01*
X161793730Y-111953682D01*
X161734860Y-112173389D01*
X161734858Y-112173400D01*
X161715034Y-112399997D01*
X161715034Y-112400002D01*
X161734858Y-112626599D01*
X161734860Y-112626610D01*
X161793730Y-112846317D01*
X161793735Y-112846331D01*
X161889863Y-113052478D01*
X161940974Y-113125472D01*
X162620000Y-112446446D01*
X162620000Y-112452661D01*
X162647259Y-112554394D01*
X162699920Y-112645606D01*
X162774394Y-112720080D01*
X162865606Y-112772741D01*
X162967339Y-112800000D01*
X162973553Y-112800000D01*
X162294526Y-113479025D01*
X162367513Y-113530132D01*
X162367521Y-113530136D01*
X162573668Y-113626264D01*
X162573682Y-113626269D01*
X162793389Y-113685139D01*
X162793400Y-113685141D01*
X163019998Y-113704966D01*
X163020002Y-113704966D01*
X163246599Y-113685141D01*
X163246610Y-113685139D01*
X163466317Y-113626269D01*
X163466331Y-113626264D01*
X163672478Y-113530136D01*
X163745471Y-113479024D01*
X163066447Y-112800000D01*
X163072661Y-112800000D01*
X163174394Y-112772741D01*
X163265606Y-112720080D01*
X163340080Y-112645606D01*
X163392741Y-112554394D01*
X163420000Y-112452661D01*
X163420000Y-112446447D01*
X164099024Y-113125471D01*
X164150136Y-113052478D01*
X164246264Y-112846331D01*
X164246269Y-112846317D01*
X164305139Y-112626610D01*
X164305141Y-112626599D01*
X164324966Y-112400002D01*
X164324966Y-112399997D01*
X164305141Y-112173400D01*
X164305139Y-112173389D01*
X164246269Y-111953682D01*
X164246264Y-111953668D01*
X164150136Y-111747521D01*
X164150132Y-111747513D01*
X164099025Y-111674526D01*
X163420000Y-112353551D01*
X163420000Y-112347339D01*
X163392741Y-112245606D01*
X163340080Y-112154394D01*
X163265606Y-112079920D01*
X163174394Y-112027259D01*
X163072661Y-112000000D01*
X163066448Y-112000000D01*
X163750646Y-111315800D01*
X163760492Y-111266808D01*
X163809107Y-111216625D01*
X163870254Y-111200500D01*
X166145500Y-111200500D01*
X166212539Y-111220185D01*
X166258294Y-111272989D01*
X166269500Y-111324500D01*
X166269500Y-113149999D01*
X166269501Y-113150007D01*
X166280000Y-113252795D01*
X166280001Y-113252798D01*
X166335185Y-113419330D01*
X166335187Y-113419335D01*
X166339755Y-113426741D01*
X166427289Y-113568655D01*
X166551345Y-113692711D01*
X166700667Y-113784814D01*
X166867204Y-113839999D01*
X166969993Y-113850500D01*
X170470006Y-113850499D01*
X170572796Y-113839999D01*
X170739333Y-113784814D01*
X170888655Y-113692711D01*
X171012711Y-113568655D01*
X171104814Y-113419333D01*
X171159999Y-113252796D01*
X171170500Y-113150007D01*
X171170499Y-109649994D01*
X171164155Y-109587894D01*
X171159999Y-109547204D01*
X171159998Y-109547201D01*
X171136649Y-109476739D01*
X171104814Y-109380667D01*
X171012711Y-109231345D01*
X170888655Y-109107289D01*
X170739333Y-109015186D01*
X170572796Y-108960001D01*
X170572794Y-108960000D01*
X170470008Y-108949500D01*
X166970000Y-108949500D01*
X166969983Y-108949501D01*
X166867204Y-108960000D01*
X166867201Y-108960001D01*
X166700669Y-109015185D01*
X166700664Y-109015187D01*
X166551343Y-109107290D01*
X166495453Y-109163181D01*
X166434130Y-109196666D01*
X166407772Y-109199500D01*
X155101455Y-109199500D01*
X155004812Y-109218724D01*
X154908167Y-109237947D01*
X154908161Y-109237949D01*
X154854834Y-109260037D01*
X154854834Y-109260038D01*
X154809315Y-109278892D01*
X154726089Y-109313366D01*
X154726079Y-109313371D01*
X154562219Y-109422859D01*
X154525789Y-109459290D01*
X154422861Y-109562218D01*
X154422858Y-109562221D01*
X154355264Y-109629815D01*
X154311967Y-109673112D01*
X154250644Y-109706596D01*
X154235096Y-109708958D01*
X154173311Y-109714364D01*
X154173302Y-109714366D01*
X153953511Y-109773258D01*
X153953502Y-109773261D01*
X153747267Y-109869431D01*
X153747265Y-109869432D01*
X153560858Y-109999954D01*
X153399954Y-110160858D01*
X153269432Y-110347265D01*
X153269431Y-110347267D01*
X153173261Y-110553502D01*
X153173258Y-110553511D01*
X153114366Y-110773302D01*
X153114364Y-110773313D01*
X153094532Y-110999998D01*
X145545468Y-110999998D01*
X145544259Y-110986186D01*
X145529462Y-110817049D01*
X145525635Y-110773308D01*
X145466739Y-110553504D01*
X145370568Y-110347266D01*
X145240047Y-110160861D01*
X145240045Y-110160858D01*
X145079141Y-109999954D01*
X144892734Y-109869432D01*
X144892732Y-109869431D01*
X144686497Y-109773261D01*
X144686488Y-109773258D01*
X144466697Y-109714366D01*
X144466693Y-109714365D01*
X144466692Y-109714365D01*
X144466691Y-109714364D01*
X144466686Y-109714364D01*
X144240002Y-109694532D01*
X144239998Y-109694532D01*
X144013313Y-109714364D01*
X144013302Y-109714366D01*
X143793511Y-109773258D01*
X143793502Y-109773261D01*
X143587267Y-109869431D01*
X143587265Y-109869432D01*
X143400858Y-109999954D01*
X143239954Y-110160858D01*
X143109432Y-110347265D01*
X143109431Y-110347267D01*
X143013261Y-110553502D01*
X143013258Y-110553511D01*
X142954366Y-110773302D01*
X142954364Y-110773313D01*
X142934532Y-110999998D01*
X142934532Y-111000002D01*
X142950204Y-111179139D01*
X142936437Y-111247639D01*
X142887822Y-111297822D01*
X142819793Y-111313755D01*
X142753950Y-111290379D01*
X142738995Y-111277627D01*
X142278413Y-110817045D01*
X142229179Y-110784150D01*
X142196355Y-110762218D01*
X142155495Y-110734916D01*
X142155494Y-110734915D01*
X142155492Y-110734914D01*
X142155490Y-110734913D01*
X142018917Y-110678343D01*
X142018907Y-110678340D01*
X141873920Y-110649500D01*
X141873918Y-110649500D01*
X132473917Y-110649500D01*
X132326082Y-110649500D01*
X132326080Y-110649500D01*
X132181092Y-110678340D01*
X132181082Y-110678343D01*
X132044511Y-110734912D01*
X132044498Y-110734919D01*
X131921584Y-110817048D01*
X131921580Y-110817051D01*
X130687052Y-112051578D01*
X130687049Y-112051582D01*
X130653562Y-112101699D01*
X130638141Y-112120489D01*
X128785348Y-113973282D01*
X128724025Y-114006767D01*
X128686861Y-114009129D01*
X128520003Y-113994532D01*
X128519998Y-113994532D01*
X128293313Y-114014364D01*
X128293302Y-114014366D01*
X128073511Y-114073258D01*
X128073502Y-114073261D01*
X127867267Y-114169431D01*
X127867265Y-114169432D01*
X127680858Y-114299954D01*
X127519954Y-114460858D01*
X127389432Y-114647265D01*
X127389431Y-114647267D01*
X127293261Y-114853502D01*
X127293258Y-114853511D01*
X127234366Y-115073302D01*
X127234364Y-115073313D01*
X127214532Y-115299998D01*
X127214532Y-115300001D01*
X127234364Y-115526686D01*
X127234366Y-115526697D01*
X127293258Y-115746488D01*
X127293261Y-115746496D01*
X127325250Y-115815096D01*
X127335742Y-115884172D01*
X127307223Y-115947956D01*
X127248746Y-115986196D01*
X127212868Y-115991500D01*
X119667132Y-115991500D01*
X119600093Y-115971815D01*
X119554338Y-115919011D01*
X119544394Y-115849853D01*
X119554749Y-115815098D01*
X119586739Y-115746496D01*
X119645635Y-115526692D01*
X119665468Y-115300000D01*
X119661093Y-115249999D01*
X119654962Y-115179920D01*
X119645635Y-115073308D01*
X119586739Y-114853504D01*
X119490568Y-114647266D01*
X119360047Y-114460861D01*
X119360045Y-114460858D01*
X119199141Y-114299954D01*
X119012734Y-114169432D01*
X119012732Y-114169431D01*
X118806497Y-114073261D01*
X118806488Y-114073258D01*
X118586697Y-114014366D01*
X118586693Y-114014365D01*
X118586692Y-114014365D01*
X118586691Y-114014364D01*
X118586686Y-114014364D01*
X118360002Y-113994532D01*
X118359998Y-113994532D01*
X118133313Y-114014364D01*
X118133302Y-114014366D01*
X117913511Y-114073258D01*
X117913502Y-114073261D01*
X117707267Y-114169431D01*
X117707265Y-114169432D01*
X117520858Y-114299954D01*
X117359954Y-114460858D01*
X117334912Y-114496623D01*
X117280335Y-114540248D01*
X117233337Y-114549500D01*
X116826080Y-114549500D01*
X116681092Y-114578340D01*
X116681082Y-114578343D01*
X116544511Y-114634912D01*
X116544498Y-114634919D01*
X116421584Y-114717048D01*
X116421580Y-114717051D01*
X116162181Y-114976451D01*
X116100858Y-115009936D01*
X116031166Y-115004952D01*
X115975233Y-114963080D01*
X115950816Y-114897616D01*
X115950500Y-114888770D01*
X115950500Y-112962228D01*
X115970185Y-112895189D01*
X115986814Y-112874551D01*
X116871844Y-111989521D01*
X116933167Y-111956037D01*
X117002859Y-111961021D01*
X117058792Y-112002893D01*
X117079300Y-112045110D01*
X117133258Y-112246488D01*
X117133261Y-112246497D01*
X117229431Y-112452732D01*
X117229432Y-112452734D01*
X117359954Y-112639141D01*
X117520858Y-112800045D01*
X117520861Y-112800047D01*
X117707266Y-112930568D01*
X117913504Y-113026739D01*
X118133308Y-113085635D01*
X118295230Y-113099801D01*
X118359998Y-113105468D01*
X118360000Y-113105468D01*
X118360002Y-113105468D01*
X118416673Y-113100509D01*
X118586692Y-113085635D01*
X118806496Y-113026739D01*
X119012734Y-112930568D01*
X119199139Y-112800047D01*
X119360047Y-112639139D01*
X119385088Y-112603377D01*
X119439665Y-112559752D01*
X119486663Y-112550500D01*
X122781687Y-112550500D01*
X122879229Y-112531096D01*
X122926680Y-112521658D01*
X123063262Y-112465084D01*
X123120720Y-112426692D01*
X123120720Y-112426691D01*
X123120722Y-112426691D01*
X123160673Y-112399997D01*
X123186183Y-112382952D01*
X123769137Y-111799998D01*
X127214532Y-111799998D01*
X127214532Y-111800001D01*
X127234364Y-112026686D01*
X127234366Y-112026697D01*
X127293258Y-112246488D01*
X127293261Y-112246497D01*
X127389431Y-112452732D01*
X127389432Y-112452734D01*
X127519954Y-112639141D01*
X127680858Y-112800045D01*
X127680861Y-112800047D01*
X127867266Y-112930568D01*
X128073504Y-113026739D01*
X128293308Y-113085635D01*
X128455230Y-113099801D01*
X128519998Y-113105468D01*
X128520000Y-113105468D01*
X128520002Y-113105468D01*
X128576673Y-113100509D01*
X128746692Y-113085635D01*
X128966496Y-113026739D01*
X129172734Y-112930568D01*
X129359139Y-112800047D01*
X129520047Y-112639139D01*
X129650568Y-112452734D01*
X129746739Y-112246496D01*
X129805635Y-112026692D01*
X129825468Y-111800000D01*
X129805635Y-111573308D01*
X129746739Y-111353504D01*
X129650568Y-111147266D01*
X129537780Y-110986186D01*
X129520045Y-110960858D01*
X129359141Y-110799954D01*
X129172734Y-110669432D01*
X129172732Y-110669431D01*
X128966497Y-110573261D01*
X128966488Y-110573258D01*
X128746697Y-110514366D01*
X128746693Y-110514365D01*
X128746692Y-110514365D01*
X128746691Y-110514364D01*
X128746686Y-110514364D01*
X128520002Y-110494532D01*
X128519998Y-110494532D01*
X128293313Y-110514364D01*
X128293302Y-110514366D01*
X128073511Y-110573258D01*
X128073502Y-110573261D01*
X127867267Y-110669431D01*
X127867265Y-110669432D01*
X127680858Y-110799954D01*
X127519954Y-110960858D01*
X127389432Y-111147265D01*
X127389431Y-111147267D01*
X127293261Y-111353502D01*
X127293258Y-111353511D01*
X127234366Y-111573302D01*
X127234364Y-111573313D01*
X127214532Y-111799998D01*
X123769137Y-111799998D01*
X124582951Y-110986183D01*
X124665084Y-110863262D01*
X124721658Y-110726680D01*
X124732154Y-110673914D01*
X124737010Y-110649500D01*
X124750500Y-110581687D01*
X124750500Y-108962229D01*
X124770185Y-108895190D01*
X124786819Y-108874548D01*
X126674548Y-106986819D01*
X126735871Y-106953334D01*
X126762229Y-106950500D01*
X127400951Y-106950500D01*
X127467990Y-106970185D01*
X127513745Y-107022989D01*
X127523689Y-107092147D01*
X127494664Y-107155703D01*
X127490779Y-107159875D01*
X127489956Y-107160855D01*
X127359432Y-107347265D01*
X127359431Y-107347267D01*
X127263261Y-107553502D01*
X127263258Y-107553511D01*
X127204366Y-107773302D01*
X127204364Y-107773313D01*
X127184532Y-107999998D01*
X127184532Y-108000001D01*
X127204364Y-108226686D01*
X127204366Y-108226697D01*
X127263258Y-108446488D01*
X127263261Y-108446497D01*
X127359431Y-108652732D01*
X127359432Y-108652734D01*
X127489954Y-108839141D01*
X127650858Y-109000045D01*
X127672482Y-109015186D01*
X127837266Y-109130568D01*
X128043504Y-109226739D01*
X128043509Y-109226740D01*
X128043511Y-109226741D01*
X128096415Y-109240916D01*
X128263308Y-109285635D01*
X128425230Y-109299801D01*
X128489998Y-109305468D01*
X128490000Y-109305468D01*
X128490002Y-109305468D01*
X128546673Y-109300509D01*
X128716692Y-109285635D01*
X128936496Y-109226739D01*
X129142734Y-109130568D01*
X129329139Y-109000047D01*
X129490047Y-108839139D01*
X129620568Y-108652734D01*
X129716739Y-108446496D01*
X129775635Y-108226692D01*
X129795468Y-108000000D01*
X129775635Y-107773308D01*
X129716739Y-107553504D01*
X129620568Y-107347266D01*
X129490047Y-107160861D01*
X129490045Y-107160858D01*
X129359212Y-107030025D01*
X129325727Y-106968702D01*
X129330711Y-106899010D01*
X129372583Y-106843077D01*
X129377987Y-106839251D01*
X129414834Y-106814632D01*
X129462248Y-106782952D01*
X130045202Y-106199998D01*
X131114532Y-106199998D01*
X131114532Y-106200001D01*
X131134364Y-106426686D01*
X131134366Y-106426697D01*
X131193258Y-106646488D01*
X131193261Y-106646497D01*
X131289431Y-106852732D01*
X131289432Y-106852734D01*
X131419954Y-107039141D01*
X131580858Y-107200045D01*
X131580861Y-107200047D01*
X131767266Y-107330568D01*
X131973504Y-107426739D01*
X132193308Y-107485635D01*
X132355230Y-107499801D01*
X132419998Y-107505468D01*
X132420000Y-107505468D01*
X132420002Y-107505468D01*
X132476807Y-107500498D01*
X132646692Y-107485635D01*
X132866496Y-107426739D01*
X133072734Y-107330568D01*
X133259139Y-107200047D01*
X133420047Y-107039139D01*
X133550568Y-106852734D01*
X133646739Y-106646496D01*
X133705635Y-106426692D01*
X133725468Y-106200000D01*
X133725468Y-106199998D01*
X136114532Y-106199998D01*
X136114532Y-106200001D01*
X136134364Y-106426686D01*
X136134366Y-106426697D01*
X136193258Y-106646488D01*
X136193261Y-106646497D01*
X136289431Y-106852732D01*
X136289432Y-106852734D01*
X136419954Y-107039141D01*
X136580858Y-107200045D01*
X136580861Y-107200047D01*
X136767266Y-107330568D01*
X136973504Y-107426739D01*
X137193308Y-107485635D01*
X137355230Y-107499801D01*
X137419998Y-107505468D01*
X137420000Y-107505468D01*
X137420002Y-107505468D01*
X137476807Y-107500498D01*
X137646692Y-107485635D01*
X137866496Y-107426739D01*
X138072734Y-107330568D01*
X138259139Y-107200047D01*
X138420047Y-107039139D01*
X138550568Y-106852734D01*
X138598474Y-106749999D01*
X142961127Y-106749999D01*
X142961128Y-106750000D01*
X143924314Y-106750000D01*
X143919920Y-106754394D01*
X143867259Y-106845606D01*
X143840000Y-106947339D01*
X143840000Y-107052661D01*
X143867259Y-107154394D01*
X143919920Y-107245606D01*
X143924314Y-107250000D01*
X142961128Y-107250000D01*
X143013730Y-107446317D01*
X143013734Y-107446326D01*
X143109865Y-107652482D01*
X143240342Y-107838820D01*
X143401179Y-107999657D01*
X143587517Y-108130134D01*
X143793673Y-108226265D01*
X143793682Y-108226269D01*
X143989999Y-108278872D01*
X143990000Y-108278871D01*
X143990000Y-107315686D01*
X143994394Y-107320080D01*
X144085606Y-107372741D01*
X144187339Y-107400000D01*
X144292661Y-107400000D01*
X144394394Y-107372741D01*
X144485606Y-107320080D01*
X144490000Y-107315686D01*
X144490000Y-108278872D01*
X144686317Y-108226269D01*
X144686326Y-108226265D01*
X144892482Y-108130134D01*
X145078820Y-107999657D01*
X145239657Y-107838820D01*
X145370134Y-107652482D01*
X145466265Y-107446326D01*
X145466269Y-107446317D01*
X145518872Y-107250000D01*
X144555686Y-107250000D01*
X144560080Y-107245606D01*
X144612741Y-107154394D01*
X144640000Y-107052661D01*
X144640000Y-106947339D01*
X144612741Y-106845606D01*
X144560080Y-106754394D01*
X144555686Y-106750000D01*
X145518872Y-106750000D01*
X145518872Y-106749999D01*
X145466269Y-106553682D01*
X145466265Y-106553673D01*
X145370134Y-106347517D01*
X145239657Y-106161179D01*
X145078820Y-106000342D01*
X144892482Y-105869865D01*
X144686328Y-105773734D01*
X144490000Y-105721127D01*
X144490000Y-106684314D01*
X144485606Y-106679920D01*
X144394394Y-106627259D01*
X144292661Y-106600000D01*
X144187339Y-106600000D01*
X144085606Y-106627259D01*
X143994394Y-106679920D01*
X143990000Y-106684314D01*
X143990000Y-105721127D01*
X143793671Y-105773734D01*
X143587517Y-105869865D01*
X143401179Y-106000342D01*
X143240342Y-106161179D01*
X143109865Y-106347517D01*
X143013734Y-106553673D01*
X143013730Y-106553682D01*
X142961127Y-106749999D01*
X138598474Y-106749999D01*
X138646739Y-106646496D01*
X138705635Y-106426692D01*
X138725468Y-106200000D01*
X138705635Y-105973308D01*
X138646739Y-105753504D01*
X138550568Y-105547266D01*
X138420047Y-105360861D01*
X138420045Y-105360858D01*
X138259141Y-105199954D01*
X138072734Y-105069432D01*
X138072732Y-105069431D01*
X137866497Y-104973261D01*
X137866488Y-104973258D01*
X137646697Y-104914366D01*
X137646693Y-104914365D01*
X137646692Y-104914365D01*
X137646691Y-104914364D01*
X137646686Y-104914364D01*
X137420002Y-104894532D01*
X137419998Y-104894532D01*
X137193313Y-104914364D01*
X137193302Y-104914366D01*
X136973511Y-104973258D01*
X136973502Y-104973261D01*
X136767267Y-105069431D01*
X136767265Y-105069432D01*
X136580858Y-105199954D01*
X136419954Y-105360858D01*
X136289432Y-105547265D01*
X136289431Y-105547267D01*
X136193261Y-105753502D01*
X136193258Y-105753511D01*
X136134366Y-105973302D01*
X136134364Y-105973313D01*
X136114532Y-106199998D01*
X133725468Y-106199998D01*
X133705635Y-105973308D01*
X133646739Y-105753504D01*
X133550568Y-105547266D01*
X133420047Y-105360861D01*
X133420045Y-105360858D01*
X133259141Y-105199954D01*
X133072734Y-105069432D01*
X133072732Y-105069431D01*
X132866497Y-104973261D01*
X132866488Y-104973258D01*
X132646697Y-104914366D01*
X132646693Y-104914365D01*
X132646692Y-104914365D01*
X132646691Y-104914364D01*
X132646686Y-104914364D01*
X132420002Y-104894532D01*
X132419998Y-104894532D01*
X132193313Y-104914364D01*
X132193302Y-104914366D01*
X131973511Y-104973258D01*
X131973502Y-104973261D01*
X131767267Y-105069431D01*
X131767265Y-105069432D01*
X131580858Y-105199954D01*
X131419954Y-105360858D01*
X131289432Y-105547265D01*
X131289431Y-105547267D01*
X131193261Y-105753502D01*
X131193258Y-105753511D01*
X131134366Y-105973302D01*
X131134364Y-105973313D01*
X131114532Y-106199998D01*
X130045202Y-106199998D01*
X130982952Y-105262248D01*
X131032186Y-105188561D01*
X131065084Y-105139327D01*
X131121658Y-105002745D01*
X131141552Y-104902734D01*
X131150500Y-104857752D01*
X131150500Y-103326079D01*
X131121659Y-103181092D01*
X131121658Y-103181091D01*
X131121658Y-103181087D01*
X131117142Y-103170185D01*
X131065087Y-103044511D01*
X131065080Y-103044498D01*
X130982952Y-102921585D01*
X130933707Y-102872340D01*
X130878416Y-102817049D01*
X130431552Y-102370185D01*
X129078421Y-101017052D01*
X129078414Y-101017046D01*
X128983314Y-100953503D01*
X128983314Y-100953504D01*
X128955495Y-100934916D01*
X128955492Y-100934914D01*
X128955491Y-100934914D01*
X128818917Y-100878343D01*
X128818907Y-100878340D01*
X128673920Y-100849500D01*
X128673918Y-100849500D01*
X111726082Y-100849500D01*
X111726080Y-100849500D01*
X111581092Y-100878340D01*
X111581082Y-100878343D01*
X111444508Y-100934914D01*
X111444505Y-100934915D01*
X111444505Y-100934916D01*
X111416686Y-100953504D01*
X111416685Y-100953503D01*
X111321585Y-101017046D01*
X111321578Y-101017052D01*
X104504591Y-107834039D01*
X104443268Y-107867524D01*
X104373576Y-107862540D01*
X104317643Y-107820668D01*
X104304528Y-107798763D01*
X104303300Y-107796129D01*
X104210568Y-107597266D01*
X104080047Y-107410861D01*
X104080045Y-107410858D01*
X103919141Y-107249954D01*
X103732734Y-107119432D01*
X103732732Y-107119431D01*
X103526497Y-107023261D01*
X103526488Y-107023258D01*
X103306697Y-106964366D01*
X103306693Y-106964365D01*
X103306692Y-106964365D01*
X103306691Y-106964364D01*
X103306686Y-106964364D01*
X103080002Y-106944532D01*
X103079998Y-106944532D01*
X102853313Y-106964364D01*
X102853302Y-106964366D01*
X102633511Y-107023258D01*
X102633502Y-107023261D01*
X102427267Y-107119431D01*
X102427265Y-107119432D01*
X102240858Y-107249954D01*
X102079954Y-107410858D01*
X101949432Y-107597265D01*
X101949431Y-107597267D01*
X101853261Y-107803502D01*
X101853258Y-107803511D01*
X101794366Y-108023302D01*
X101794364Y-108023313D01*
X101774532Y-108249998D01*
X101774532Y-108250001D01*
X101794364Y-108476686D01*
X101794366Y-108476697D01*
X101853258Y-108696488D01*
X101853261Y-108696497D01*
X101949431Y-108902732D01*
X101949432Y-108902734D01*
X102079954Y-109089141D01*
X102240858Y-109250045D01*
X102240861Y-109250047D01*
X102427266Y-109380568D01*
X102596085Y-109459290D01*
X102628763Y-109474528D01*
X102681202Y-109520700D01*
X102700354Y-109587894D01*
X102680138Y-109654775D01*
X102664039Y-109674591D01*
X100817049Y-111521582D01*
X100790804Y-111560862D01*
X100790803Y-111560863D01*
X100734914Y-111644506D01*
X100733859Y-111646481D01*
X100733033Y-111647321D01*
X100731531Y-111649570D01*
X100731104Y-111649285D01*
X100684898Y-111696326D01*
X100616761Y-111711788D01*
X100551080Y-111687958D01*
X100508711Y-111632401D01*
X100500500Y-111588030D01*
X100500500Y-104249998D01*
X101854532Y-104249998D01*
X101854532Y-104250001D01*
X101874364Y-104476686D01*
X101874366Y-104476697D01*
X101933258Y-104696488D01*
X101933261Y-104696497D01*
X102029431Y-104902732D01*
X102029432Y-104902734D01*
X102159954Y-105089141D01*
X102320858Y-105250045D01*
X102320861Y-105250047D01*
X102507266Y-105380568D01*
X102713504Y-105476739D01*
X102713509Y-105476740D01*
X102713511Y-105476741D01*
X102766415Y-105490916D01*
X102933308Y-105535635D01*
X103095230Y-105549801D01*
X103159998Y-105555468D01*
X103160000Y-105555468D01*
X103160002Y-105555468D01*
X103216784Y-105550500D01*
X103386692Y-105535635D01*
X103606496Y-105476739D01*
X103812734Y-105380568D01*
X103999139Y-105250047D01*
X104160047Y-105089139D01*
X104290568Y-104902734D01*
X104386739Y-104696496D01*
X104445635Y-104476692D01*
X104465468Y-104250000D01*
X104445635Y-104023308D01*
X104386739Y-103803504D01*
X104290568Y-103597266D01*
X104160047Y-103410861D01*
X104160045Y-103410858D01*
X103999141Y-103249954D01*
X103812734Y-103119432D01*
X103812732Y-103119431D01*
X103606497Y-103023261D01*
X103606488Y-103023258D01*
X103386697Y-102964366D01*
X103386693Y-102964365D01*
X103386692Y-102964365D01*
X103386691Y-102964364D01*
X103386686Y-102964364D01*
X103160002Y-102944532D01*
X103159998Y-102944532D01*
X102933313Y-102964364D01*
X102933302Y-102964366D01*
X102713511Y-103023258D01*
X102713502Y-103023261D01*
X102507267Y-103119431D01*
X102507265Y-103119432D01*
X102320858Y-103249954D01*
X102159954Y-103410858D01*
X102029432Y-103597265D01*
X102029431Y-103597267D01*
X101933261Y-103803502D01*
X101933258Y-103803511D01*
X101874366Y-104023302D01*
X101874364Y-104023313D01*
X101854532Y-104249998D01*
X100500500Y-104249998D01*
X100500500Y-99321816D01*
X100520185Y-99254777D01*
X100572989Y-99209022D01*
X100624061Y-99197817D01*
X128600000Y-99100000D01*
X128758695Y-91800000D01*
X132351920Y-91800000D01*
X132372211Y-92057820D01*
X132432582Y-92309285D01*
X132531549Y-92548213D01*
X132666673Y-92768714D01*
X132666676Y-92768719D01*
X132671767Y-92774679D01*
X133313236Y-92133209D01*
X133324724Y-92160942D01*
X133408116Y-92285747D01*
X133514253Y-92391884D01*
X133639058Y-92475276D01*
X133666789Y-92486762D01*
X133025319Y-93128232D01*
X133031283Y-93133325D01*
X133251786Y-93268450D01*
X133490714Y-93367417D01*
X133742179Y-93427788D01*
X134000000Y-93448079D01*
X134257820Y-93427788D01*
X134509285Y-93367417D01*
X134748213Y-93268450D01*
X134968713Y-93133326D01*
X134968723Y-93133319D01*
X134974678Y-93128232D01*
X134974678Y-93128231D01*
X134333209Y-92486762D01*
X134360942Y-92475276D01*
X134485747Y-92391884D01*
X134591884Y-92285747D01*
X134675276Y-92160942D01*
X134686762Y-92133209D01*
X135328231Y-92774678D01*
X135328232Y-92774678D01*
X135333319Y-92768723D01*
X135333326Y-92768713D01*
X135468450Y-92548213D01*
X135567417Y-92309285D01*
X135627788Y-92057820D01*
X135648079Y-91800000D01*
X135627788Y-91542179D01*
X135567417Y-91290714D01*
X135468450Y-91051786D01*
X135333325Y-90831283D01*
X135328232Y-90825319D01*
X134686762Y-91466789D01*
X134675276Y-91439058D01*
X134591884Y-91314253D01*
X134485747Y-91208116D01*
X134360942Y-91124724D01*
X134333209Y-91113236D01*
X134974679Y-90471767D01*
X134974679Y-90471766D01*
X134968719Y-90466676D01*
X134968714Y-90466673D01*
X134748213Y-90331549D01*
X134509285Y-90232582D01*
X134257820Y-90172211D01*
X134000000Y-90151920D01*
X133742179Y-90172211D01*
X133490714Y-90232582D01*
X133251786Y-90331549D01*
X133031289Y-90466670D01*
X133031273Y-90466682D01*
X133025320Y-90471766D01*
X133666790Y-91113236D01*
X133639058Y-91124724D01*
X133514253Y-91208116D01*
X133408116Y-91314253D01*
X133324724Y-91439058D01*
X133313236Y-91466790D01*
X132671766Y-90825320D01*
X132666682Y-90831273D01*
X132666670Y-90831289D01*
X132531549Y-91051786D01*
X132432582Y-91290714D01*
X132372211Y-91542179D01*
X132351920Y-91800000D01*
X128758695Y-91800000D01*
X128797396Y-90019757D01*
X128818533Y-89953163D01*
X128872319Y-89908567D01*
X128919775Y-89898464D01*
X136600000Y-89800000D01*
X136726984Y-85800000D01*
X142769474Y-85800000D01*
X142789547Y-86055064D01*
X142789547Y-86055067D01*
X142789548Y-86055070D01*
X142828998Y-86219387D01*
X142849279Y-86303864D01*
X142947188Y-86540239D01*
X142947190Y-86540242D01*
X143080875Y-86758396D01*
X143080878Y-86758401D01*
X143083877Y-86761912D01*
X143247044Y-86952956D01*
X143371579Y-87059319D01*
X143441598Y-87119121D01*
X143441603Y-87119124D01*
X143659757Y-87252809D01*
X143659760Y-87252811D01*
X143894993Y-87350247D01*
X143896140Y-87350722D01*
X144144930Y-87410452D01*
X144400000Y-87430526D01*
X144655070Y-87410452D01*
X144903860Y-87350722D01*
X145022051Y-87301765D01*
X145140239Y-87252811D01*
X145140240Y-87252810D01*
X145140243Y-87252809D01*
X145358399Y-87119123D01*
X145552956Y-86952956D01*
X145719123Y-86758399D01*
X145852809Y-86540243D01*
X145852904Y-86540015D01*
X145950720Y-86303864D01*
X145950722Y-86303860D01*
X146010452Y-86055070D01*
X146030526Y-85800000D01*
X146010452Y-85544930D01*
X145950722Y-85296140D01*
X145918122Y-85217437D01*
X145852811Y-85059760D01*
X145852809Y-85059757D01*
X145719124Y-84841603D01*
X145719121Y-84841598D01*
X145659319Y-84771579D01*
X145552956Y-84647044D01*
X145362680Y-84484533D01*
X145358401Y-84480878D01*
X145358396Y-84480875D01*
X145140242Y-84347190D01*
X145140239Y-84347188D01*
X144903864Y-84249279D01*
X144903860Y-84249278D01*
X144655070Y-84189548D01*
X144655067Y-84189547D01*
X144655064Y-84189547D01*
X144400000Y-84169474D01*
X144144935Y-84189547D01*
X144144931Y-84189547D01*
X144144930Y-84189548D01*
X144020535Y-84219413D01*
X143896135Y-84249279D01*
X143659760Y-84347188D01*
X143659757Y-84347190D01*
X143441603Y-84480875D01*
X143441598Y-84480878D01*
X143247044Y-84647044D01*
X143080878Y-84841598D01*
X143080875Y-84841603D01*
X142947190Y-85059757D01*
X142947188Y-85059760D01*
X142849279Y-85296135D01*
X142789547Y-85544935D01*
X142769474Y-85800000D01*
X136726984Y-85800000D01*
X136796174Y-83620514D01*
X136817976Y-83554134D01*
X136872205Y-83510078D01*
X136920573Y-83500451D01*
X149691454Y-83548281D01*
X149758418Y-83568216D01*
X149803974Y-83621191D01*
X149813659Y-83690387D01*
X149784396Y-83753833D01*
X149778669Y-83759961D01*
X141578357Y-91960273D01*
X141517034Y-91993758D01*
X141447342Y-91988774D01*
X141391409Y-91946902D01*
X141370902Y-91904687D01*
X141336171Y-91775070D01*
X141239262Y-91567247D01*
X141107736Y-91379409D01*
X140945591Y-91217264D01*
X140757753Y-91085738D01*
X140549930Y-90988829D01*
X140549927Y-90988828D01*
X140549925Y-90988827D01*
X140328436Y-90929479D01*
X140328429Y-90929478D01*
X140100002Y-90909494D01*
X140099998Y-90909494D01*
X139871570Y-90929478D01*
X139871563Y-90929479D01*
X139650074Y-90988827D01*
X139650070Y-90988829D01*
X139442247Y-91085738D01*
X139254409Y-91217264D01*
X139254407Y-91217265D01*
X139254404Y-91217268D01*
X139092268Y-91379404D01*
X139092265Y-91379407D01*
X139092264Y-91379409D01*
X138960738Y-91567247D01*
X138876680Y-91747512D01*
X138863830Y-91775068D01*
X138863827Y-91775074D01*
X138804479Y-91996563D01*
X138804478Y-91996570D01*
X138784494Y-92224997D01*
X138784494Y-92225002D01*
X138804478Y-92453429D01*
X138804479Y-92453436D01*
X138863827Y-92674925D01*
X138863828Y-92674927D01*
X138863829Y-92674930D01*
X138960738Y-92882753D01*
X139092264Y-93070591D01*
X139254409Y-93232736D01*
X139442247Y-93364262D01*
X139650070Y-93461171D01*
X139779686Y-93495902D01*
X139839346Y-93532266D01*
X139869875Y-93595113D01*
X139861580Y-93664488D01*
X139835273Y-93703357D01*
X139078357Y-94460273D01*
X139017034Y-94493758D01*
X138947342Y-94488774D01*
X138891409Y-94446902D01*
X138870902Y-94404687D01*
X138836171Y-94275070D01*
X138739262Y-94067247D01*
X138607736Y-93879409D01*
X138445591Y-93717264D01*
X138257753Y-93585738D01*
X138049930Y-93488829D01*
X138049927Y-93488828D01*
X138049925Y-93488827D01*
X137828436Y-93429479D01*
X137828429Y-93429478D01*
X137600002Y-93409494D01*
X137599998Y-93409494D01*
X137371570Y-93429478D01*
X137371563Y-93429479D01*
X137150074Y-93488827D01*
X137150070Y-93488829D01*
X136942247Y-93585738D01*
X136754409Y-93717264D01*
X136754407Y-93717265D01*
X136754404Y-93717268D01*
X136592268Y-93879404D01*
X136592265Y-93879407D01*
X136592264Y-93879409D01*
X136488228Y-94027987D01*
X136460738Y-94067247D01*
X136363830Y-94275068D01*
X136363827Y-94275074D01*
X136304479Y-94496563D01*
X136304478Y-94496570D01*
X136284494Y-94724997D01*
X136284494Y-94725002D01*
X136304478Y-94953429D01*
X136304479Y-94953436D01*
X136363827Y-95174925D01*
X136363828Y-95174927D01*
X136363829Y-95174930D01*
X136460738Y-95382753D01*
X136592264Y-95570591D01*
X136754409Y-95732736D01*
X136942247Y-95864262D01*
X137150070Y-95961171D01*
X137279686Y-95995902D01*
X137339346Y-96032266D01*
X137369875Y-96095113D01*
X137361580Y-96164488D01*
X137335273Y-96203357D01*
X137117049Y-96421581D01*
X137067812Y-96495271D01*
X137034921Y-96544496D01*
X137034914Y-96544508D01*
X136978342Y-96681086D01*
X136978340Y-96681092D01*
X136949500Y-96826079D01*
X136949500Y-99186129D01*
X136929815Y-99253168D01*
X136896625Y-99287703D01*
X136854411Y-99317262D01*
X136854405Y-99317267D01*
X136692268Y-99479404D01*
X136692265Y-99479407D01*
X136692264Y-99479409D01*
X136560738Y-99667247D01*
X136463830Y-99875068D01*
X136463827Y-99875074D01*
X136404479Y-100096563D01*
X136404478Y-100096570D01*
X136384494Y-100324997D01*
X136384494Y-100325002D01*
X136404478Y-100553429D01*
X136404479Y-100553436D01*
X136463827Y-100774925D01*
X136463828Y-100774927D01*
X136463829Y-100774930D01*
X136560738Y-100982753D01*
X136692264Y-101170591D01*
X136692268Y-101170595D01*
X136787433Y-101265760D01*
X136820918Y-101327083D01*
X136815934Y-101396775D01*
X136774062Y-101452708D01*
X136708598Y-101477125D01*
X136699752Y-101477441D01*
X133900307Y-101477441D01*
X133833268Y-101457756D01*
X133787513Y-101404952D01*
X133781647Y-101389437D01*
X133728813Y-101215271D01*
X133635913Y-101041467D01*
X133635909Y-101041460D01*
X133510883Y-100889116D01*
X133358539Y-100764090D01*
X133358532Y-100764086D01*
X133184733Y-100671188D01*
X133184727Y-100671186D01*
X132996132Y-100613976D01*
X132996129Y-100613975D01*
X132800000Y-100594659D01*
X132603870Y-100613975D01*
X132415266Y-100671188D01*
X132241467Y-100764086D01*
X132241460Y-100764090D01*
X132089116Y-100889116D01*
X131964090Y-101041460D01*
X131964086Y-101041467D01*
X131871188Y-101215266D01*
X131813975Y-101403870D01*
X131794659Y-101600000D01*
X131813975Y-101796129D01*
X131871188Y-101984733D01*
X131964086Y-102158532D01*
X131964090Y-102158539D01*
X132089116Y-102310883D01*
X132241460Y-102435909D01*
X132241467Y-102435913D01*
X132415266Y-102528811D01*
X132415269Y-102528811D01*
X132415273Y-102528814D01*
X132603868Y-102586024D01*
X132693697Y-102594871D01*
X132758485Y-102621031D01*
X132769225Y-102630593D01*
X132949526Y-102810893D01*
X132949531Y-102810897D01*
X132990313Y-102838146D01*
X132990315Y-102838147D01*
X133072439Y-102893021D01*
X133072452Y-102893028D01*
X133129020Y-102916459D01*
X133129021Y-102916459D01*
X133209029Y-102949600D01*
X133325182Y-102972704D01*
X133344409Y-102976528D01*
X133354022Y-102978441D01*
X133354023Y-102978441D01*
X143645979Y-102978441D01*
X143751453Y-102957460D01*
X143790972Y-102949599D01*
X143927554Y-102893025D01*
X144001231Y-102843796D01*
X144050475Y-102810893D01*
X145775319Y-101086047D01*
X145836642Y-101052563D01*
X145906333Y-101057547D01*
X145962267Y-101099419D01*
X145986684Y-101164883D01*
X145987000Y-101173729D01*
X145987000Y-102447870D01*
X145987001Y-102447876D01*
X145993408Y-102507483D01*
X146043702Y-102642328D01*
X146043706Y-102642335D01*
X146129952Y-102757544D01*
X146129955Y-102757547D01*
X146245164Y-102843793D01*
X146245171Y-102843797D01*
X146290118Y-102860561D01*
X146380017Y-102894091D01*
X146439627Y-102900500D01*
X146565500Y-102900499D01*
X146632539Y-102920183D01*
X146678294Y-102972987D01*
X146689500Y-103024499D01*
X146689500Y-103713918D01*
X146689500Y-103713920D01*
X146689499Y-103713920D01*
X146718340Y-103858907D01*
X146718343Y-103858917D01*
X146774912Y-103995488D01*
X146774916Y-103995495D01*
X146800196Y-104033329D01*
X146800197Y-104033332D01*
X146800198Y-104033332D01*
X146857051Y-104118420D01*
X146857052Y-104118421D01*
X147538585Y-104799953D01*
X148121584Y-105382952D01*
X148150073Y-105401987D01*
X148244505Y-105465084D01*
X148276511Y-105478341D01*
X148276512Y-105478342D01*
X148276513Y-105478342D01*
X148381088Y-105521659D01*
X148497241Y-105544763D01*
X148516468Y-105548587D01*
X148526081Y-105550500D01*
X153871889Y-105550500D01*
X153938928Y-105570185D01*
X153984683Y-105622989D01*
X153994627Y-105692147D01*
X153965602Y-105755703D01*
X153924294Y-105786882D01*
X153747267Y-105869431D01*
X153747265Y-105869432D01*
X153560858Y-105999954D01*
X153399954Y-106160858D01*
X153269432Y-106347265D01*
X153269431Y-106347267D01*
X153173261Y-106553502D01*
X153173258Y-106553511D01*
X153114366Y-106773302D01*
X153114364Y-106773313D01*
X153094532Y-106999998D01*
X153094532Y-107000001D01*
X153114364Y-107226686D01*
X153114366Y-107226697D01*
X153173258Y-107446488D01*
X153173261Y-107446497D01*
X153269431Y-107652732D01*
X153269432Y-107652734D01*
X153399954Y-107839141D01*
X153560858Y-108000045D01*
X153560861Y-108000047D01*
X153747266Y-108130568D01*
X153953504Y-108226739D01*
X154173308Y-108285635D01*
X154335230Y-108299801D01*
X154399998Y-108305468D01*
X154400000Y-108305468D01*
X154400002Y-108305468D01*
X154456673Y-108300509D01*
X154626692Y-108285635D01*
X154846496Y-108226739D01*
X155052734Y-108130568D01*
X155239139Y-108000047D01*
X155400047Y-107839139D01*
X155530568Y-107652734D01*
X155626739Y-107446496D01*
X155685635Y-107226692D01*
X155705468Y-107000000D01*
X155702350Y-106964366D01*
X155696964Y-106902795D01*
X155685635Y-106773308D01*
X155626739Y-106553504D01*
X155530568Y-106347266D01*
X155400047Y-106160861D01*
X155400045Y-106160858D01*
X155239141Y-105999954D01*
X155052734Y-105869432D01*
X155052732Y-105869431D01*
X154903834Y-105799998D01*
X156614532Y-105799998D01*
X156614532Y-105800001D01*
X156634364Y-106026686D01*
X156634366Y-106026697D01*
X156693258Y-106246488D01*
X156693261Y-106246497D01*
X156789431Y-106452732D01*
X156789432Y-106452734D01*
X156919954Y-106639141D01*
X157080858Y-106800045D01*
X157080861Y-106800047D01*
X157267266Y-106930568D01*
X157473504Y-107026739D01*
X157473509Y-107026740D01*
X157473511Y-107026741D01*
X157519782Y-107039139D01*
X157693308Y-107085635D01*
X157855230Y-107099801D01*
X157919998Y-107105468D01*
X157920000Y-107105468D01*
X157920002Y-107105468D01*
X157976673Y-107100509D01*
X158146692Y-107085635D01*
X158366496Y-107026739D01*
X158572734Y-106930568D01*
X158759139Y-106800047D01*
X158920047Y-106639139D01*
X159050568Y-106452734D01*
X159146739Y-106246496D01*
X159205635Y-106026692D01*
X159225468Y-105800000D01*
X159225468Y-105799997D01*
X161615034Y-105799997D01*
X161615034Y-105800002D01*
X161634858Y-106026599D01*
X161634860Y-106026610D01*
X161693730Y-106246317D01*
X161693735Y-106246331D01*
X161789863Y-106452478D01*
X161840974Y-106525472D01*
X162520000Y-105846446D01*
X162520000Y-105852661D01*
X162547259Y-105954394D01*
X162599920Y-106045606D01*
X162674394Y-106120080D01*
X162765606Y-106172741D01*
X162867339Y-106200000D01*
X162873553Y-106200000D01*
X162194526Y-106879025D01*
X162267513Y-106930132D01*
X162267521Y-106930136D01*
X162473668Y-107026264D01*
X162473682Y-107026269D01*
X162693389Y-107085139D01*
X162693400Y-107085141D01*
X162919998Y-107104966D01*
X162920002Y-107104966D01*
X163146599Y-107085141D01*
X163146610Y-107085139D01*
X163366317Y-107026269D01*
X163366331Y-107026264D01*
X163572478Y-106930136D01*
X163645471Y-106879024D01*
X162966447Y-106200000D01*
X162972661Y-106200000D01*
X163074394Y-106172741D01*
X163165606Y-106120080D01*
X163240080Y-106045606D01*
X163292741Y-105954394D01*
X163320000Y-105852661D01*
X163320000Y-105846447D01*
X163999024Y-106525471D01*
X164050136Y-106452478D01*
X164146264Y-106246331D01*
X164146269Y-106246317D01*
X164205139Y-106026610D01*
X164205141Y-106026599D01*
X164224966Y-105800002D01*
X164224966Y-105799997D01*
X164205141Y-105573400D01*
X164205139Y-105573389D01*
X164146269Y-105353682D01*
X164146264Y-105353668D01*
X164050136Y-105147521D01*
X164050132Y-105147513D01*
X163999025Y-105074526D01*
X163320000Y-105753551D01*
X163320000Y-105747339D01*
X163292741Y-105645606D01*
X163240080Y-105554394D01*
X163165606Y-105479920D01*
X163074394Y-105427259D01*
X162972661Y-105400000D01*
X162966448Y-105400000D01*
X163645472Y-104720974D01*
X163572478Y-104669863D01*
X163366331Y-104573735D01*
X163366317Y-104573730D01*
X163146610Y-104514860D01*
X163146599Y-104514858D01*
X162920002Y-104495034D01*
X162919998Y-104495034D01*
X162693400Y-104514858D01*
X162693389Y-104514860D01*
X162473682Y-104573730D01*
X162473673Y-104573734D01*
X162267516Y-104669866D01*
X162267512Y-104669868D01*
X162194526Y-104720973D01*
X162194526Y-104720974D01*
X162873553Y-105400000D01*
X162867339Y-105400000D01*
X162765606Y-105427259D01*
X162674394Y-105479920D01*
X162599920Y-105554394D01*
X162547259Y-105645606D01*
X162520000Y-105747339D01*
X162520000Y-105753552D01*
X161840974Y-105074526D01*
X161840973Y-105074526D01*
X161789868Y-105147512D01*
X161789866Y-105147516D01*
X161693734Y-105353673D01*
X161693730Y-105353682D01*
X161634860Y-105573389D01*
X161634858Y-105573400D01*
X161615034Y-105799997D01*
X159225468Y-105799997D01*
X159223128Y-105773259D01*
X159211119Y-105635991D01*
X159205635Y-105573308D01*
X159153991Y-105380568D01*
X159146741Y-105353511D01*
X159146738Y-105353502D01*
X159075137Y-105199954D01*
X159050568Y-105147266D01*
X158930277Y-104975471D01*
X158920045Y-104960858D01*
X158759141Y-104799954D01*
X158572734Y-104669432D01*
X158572732Y-104669431D01*
X158366497Y-104573261D01*
X158366488Y-104573258D01*
X158146697Y-104514366D01*
X158146693Y-104514365D01*
X158146692Y-104514365D01*
X158146691Y-104514364D01*
X158146686Y-104514364D01*
X157920002Y-104494532D01*
X157919998Y-104494532D01*
X157693313Y-104514364D01*
X157693302Y-104514366D01*
X157473511Y-104573258D01*
X157473502Y-104573261D01*
X157267267Y-104669431D01*
X157267265Y-104669432D01*
X157080858Y-104799954D01*
X156919954Y-104960858D01*
X156789432Y-105147265D01*
X156789431Y-105147267D01*
X156693261Y-105353502D01*
X156693258Y-105353511D01*
X156634366Y-105573302D01*
X156634364Y-105573313D01*
X156614532Y-105799998D01*
X154903834Y-105799998D01*
X154846497Y-105773261D01*
X154846490Y-105773259D01*
X154704463Y-105735203D01*
X154644803Y-105698838D01*
X154614274Y-105635991D01*
X154622569Y-105566615D01*
X154667054Y-105512737D01*
X154689094Y-105500872D01*
X154775495Y-105465084D01*
X154869927Y-105401987D01*
X154898416Y-105382952D01*
X156981381Y-103299985D01*
X166269500Y-103299985D01*
X166269500Y-106799999D01*
X166269501Y-106800016D01*
X166280000Y-106902795D01*
X166280001Y-106902798D01*
X166335185Y-107069330D01*
X166335187Y-107069335D01*
X166345240Y-107085633D01*
X166427289Y-107218655D01*
X166551345Y-107342711D01*
X166700667Y-107434814D01*
X166867204Y-107489999D01*
X166969993Y-107500500D01*
X170470006Y-107500499D01*
X170572796Y-107489999D01*
X170739333Y-107434814D01*
X170888655Y-107342711D01*
X171012711Y-107218655D01*
X171104814Y-107069333D01*
X171159999Y-106902796D01*
X171170500Y-106800007D01*
X171170499Y-103299994D01*
X171170498Y-103299985D01*
X172669500Y-103299985D01*
X172669500Y-106799999D01*
X172669501Y-106800016D01*
X172680000Y-106902795D01*
X172680001Y-106902798D01*
X172735185Y-107069330D01*
X172735187Y-107069335D01*
X172745240Y-107085633D01*
X172827289Y-107218655D01*
X172951345Y-107342711D01*
X173100667Y-107434814D01*
X173267204Y-107489999D01*
X173369993Y-107500500D01*
X176870006Y-107500499D01*
X176972796Y-107489999D01*
X177139333Y-107434814D01*
X177288655Y-107342711D01*
X177412711Y-107218655D01*
X177504814Y-107069333D01*
X177559999Y-106902796D01*
X177570500Y-106800007D01*
X177570499Y-103299994D01*
X177559999Y-103197204D01*
X177504814Y-103030667D01*
X177412711Y-102881345D01*
X177288655Y-102757289D01*
X177139333Y-102665186D01*
X176972796Y-102610001D01*
X176972794Y-102610000D01*
X176870008Y-102599500D01*
X173370000Y-102599500D01*
X173369983Y-102599501D01*
X173267204Y-102610000D01*
X173267201Y-102610001D01*
X173100669Y-102665185D01*
X173100664Y-102665187D01*
X172951343Y-102757290D01*
X172827290Y-102881343D01*
X172735187Y-103030664D01*
X172735185Y-103030669D01*
X172707349Y-103114671D01*
X172680001Y-103197204D01*
X172680001Y-103197205D01*
X172680000Y-103197205D01*
X172669500Y-103299985D01*
X171170498Y-103299985D01*
X171159999Y-103197204D01*
X171104814Y-103030667D01*
X171012711Y-102881345D01*
X170888655Y-102757289D01*
X170739333Y-102665186D01*
X170572796Y-102610001D01*
X170572794Y-102610000D01*
X170470008Y-102599500D01*
X166970000Y-102599500D01*
X166969983Y-102599501D01*
X166867204Y-102610000D01*
X166867201Y-102610001D01*
X166700669Y-102665185D01*
X166700664Y-102665187D01*
X166551343Y-102757290D01*
X166427290Y-102881343D01*
X166335187Y-103030664D01*
X166335185Y-103030669D01*
X166307349Y-103114671D01*
X166280001Y-103197204D01*
X166280001Y-103197205D01*
X166280000Y-103197205D01*
X166269500Y-103299985D01*
X156981381Y-103299985D01*
X157554652Y-102726714D01*
X157615973Y-102693231D01*
X157653135Y-102690869D01*
X157796366Y-102703400D01*
X157819999Y-102705468D01*
X157820000Y-102705468D01*
X157820002Y-102705468D01*
X157876673Y-102700509D01*
X158046692Y-102685635D01*
X158266496Y-102626739D01*
X158472734Y-102530568D01*
X158659139Y-102400047D01*
X158820047Y-102239139D01*
X158950568Y-102052734D01*
X159046739Y-101846496D01*
X159105635Y-101626692D01*
X159125468Y-101400000D01*
X159125468Y-101399997D01*
X161515034Y-101399997D01*
X161515034Y-101400002D01*
X161534858Y-101626599D01*
X161534860Y-101626610D01*
X161593730Y-101846317D01*
X161593735Y-101846331D01*
X161689863Y-102052478D01*
X161740974Y-102125472D01*
X162420000Y-101446446D01*
X162420000Y-101452661D01*
X162447259Y-101554394D01*
X162499920Y-101645606D01*
X162574394Y-101720080D01*
X162665606Y-101772741D01*
X162767339Y-101800000D01*
X162773553Y-101800000D01*
X162094526Y-102479025D01*
X162167513Y-102530132D01*
X162167521Y-102530136D01*
X162373668Y-102626264D01*
X162373682Y-102626269D01*
X162593389Y-102685139D01*
X162593400Y-102685141D01*
X162819998Y-102704966D01*
X162820002Y-102704966D01*
X163046599Y-102685141D01*
X163046610Y-102685139D01*
X163266317Y-102626269D01*
X163266331Y-102626264D01*
X163472478Y-102530136D01*
X163545471Y-102479024D01*
X162866447Y-101800000D01*
X162872661Y-101800000D01*
X162974394Y-101772741D01*
X163065606Y-101720080D01*
X163140080Y-101645606D01*
X163192741Y-101554394D01*
X163220000Y-101452661D01*
X163220000Y-101446447D01*
X163899024Y-102125471D01*
X163950136Y-102052478D01*
X164046264Y-101846331D01*
X164046269Y-101846317D01*
X164105139Y-101626610D01*
X164105141Y-101626599D01*
X164124966Y-101400002D01*
X164124966Y-101399997D01*
X164105141Y-101173400D01*
X164105139Y-101173389D01*
X164046269Y-100953682D01*
X164046264Y-100953668D01*
X163950136Y-100747521D01*
X163950132Y-100747513D01*
X163899025Y-100674526D01*
X163220000Y-101353551D01*
X163220000Y-101347339D01*
X163192741Y-101245606D01*
X163140080Y-101154394D01*
X163065606Y-101079920D01*
X162974394Y-101027259D01*
X162872661Y-101000000D01*
X162866448Y-101000000D01*
X163545472Y-100320974D01*
X163472478Y-100269863D01*
X163266331Y-100173735D01*
X163266317Y-100173730D01*
X163046610Y-100114860D01*
X163046599Y-100114858D01*
X162820002Y-100095034D01*
X162819998Y-100095034D01*
X162593400Y-100114858D01*
X162593389Y-100114860D01*
X162373682Y-100173730D01*
X162373673Y-100173734D01*
X162167516Y-100269866D01*
X162167512Y-100269868D01*
X162094526Y-100320973D01*
X162094526Y-100320974D01*
X162773553Y-101000000D01*
X162767339Y-101000000D01*
X162665606Y-101027259D01*
X162574394Y-101079920D01*
X162499920Y-101154394D01*
X162447259Y-101245606D01*
X162420000Y-101347339D01*
X162420000Y-101353552D01*
X161740974Y-100674526D01*
X161740973Y-100674526D01*
X161689868Y-100747512D01*
X161689866Y-100747516D01*
X161593734Y-100953673D01*
X161593730Y-100953682D01*
X161534860Y-101173389D01*
X161534858Y-101173400D01*
X161515034Y-101399997D01*
X159125468Y-101399997D01*
X159105635Y-101173308D01*
X159046739Y-100953504D01*
X158950568Y-100747266D01*
X158820047Y-100560861D01*
X158820045Y-100560858D01*
X158659141Y-100399954D01*
X158472734Y-100269432D01*
X158472732Y-100269431D01*
X158266497Y-100173261D01*
X158266488Y-100173258D01*
X158046697Y-100114366D01*
X158046693Y-100114365D01*
X158046692Y-100114365D01*
X158046691Y-100114364D01*
X158046686Y-100114364D01*
X157820002Y-100094532D01*
X157819998Y-100094532D01*
X157593313Y-100114364D01*
X157593302Y-100114366D01*
X157373511Y-100173258D01*
X157373502Y-100173261D01*
X157167267Y-100269431D01*
X157167265Y-100269432D01*
X156980858Y-100399954D01*
X156819954Y-100560858D01*
X156689432Y-100747265D01*
X156689431Y-100747267D01*
X156593261Y-100953502D01*
X156593261Y-100953504D01*
X156534366Y-101173302D01*
X156534364Y-101173313D01*
X156514532Y-101399998D01*
X156514532Y-101400003D01*
X156529129Y-101566861D01*
X156515362Y-101635360D01*
X156493282Y-101665348D01*
X154145451Y-104013181D01*
X154084128Y-104046666D01*
X154057770Y-104049500D01*
X148962230Y-104049500D01*
X148895191Y-104029815D01*
X148874549Y-104013181D01*
X148226819Y-103365451D01*
X148193334Y-103304128D01*
X148190500Y-103277770D01*
X148190500Y-103024499D01*
X148210185Y-102957460D01*
X148262989Y-102911705D01*
X148314500Y-102900499D01*
X148440371Y-102900499D01*
X148440372Y-102900499D01*
X148499983Y-102894091D01*
X148634831Y-102843796D01*
X148750046Y-102757546D01*
X148836296Y-102642331D01*
X148846872Y-102613974D01*
X148888740Y-102558041D01*
X148954204Y-102533622D01*
X149022477Y-102548472D01*
X149035940Y-102556988D01*
X149218723Y-102689788D01*
X149422429Y-102793582D01*
X149639871Y-102864234D01*
X149730000Y-102878509D01*
X149730000Y-101890747D01*
X149767708Y-101912518D01*
X149907591Y-101950000D01*
X150052409Y-101950000D01*
X150192292Y-101912518D01*
X150230000Y-101890747D01*
X150230000Y-102878508D01*
X150320128Y-102864234D01*
X150537570Y-102793582D01*
X150741276Y-102689788D01*
X150926242Y-102555402D01*
X151087905Y-102393739D01*
X151149371Y-102309137D01*
X151204701Y-102266470D01*
X151274314Y-102260491D01*
X151336109Y-102293096D01*
X151350007Y-102309134D01*
X151411714Y-102394066D01*
X151573434Y-102555786D01*
X151758462Y-102690217D01*
X151890599Y-102757544D01*
X151962244Y-102794049D01*
X152179751Y-102864721D01*
X152179752Y-102864721D01*
X152179755Y-102864722D01*
X152405646Y-102900500D01*
X152405647Y-102900500D01*
X152634353Y-102900500D01*
X152634354Y-102900500D01*
X152860245Y-102864722D01*
X152860248Y-102864721D01*
X152860249Y-102864721D01*
X153077755Y-102794049D01*
X153077755Y-102794048D01*
X153077758Y-102794048D01*
X153281538Y-102690217D01*
X153466566Y-102555786D01*
X153628286Y-102394066D01*
X153762717Y-102209038D01*
X153866548Y-102005258D01*
X153896681Y-101912518D01*
X153937221Y-101787749D01*
X153937221Y-101787748D01*
X153937222Y-101787745D01*
X153973000Y-101561854D01*
X153973000Y-101238146D01*
X153937222Y-101012255D01*
X153937221Y-101012251D01*
X153937221Y-101012250D01*
X153866549Y-100794744D01*
X153840036Y-100742709D01*
X153762717Y-100590962D01*
X153628286Y-100405934D01*
X153466566Y-100244214D01*
X153281538Y-100109783D01*
X153255592Y-100096563D01*
X153077755Y-100005950D01*
X152860248Y-99935278D01*
X152673290Y-99905667D01*
X152634354Y-99899500D01*
X152405646Y-99899500D01*
X152366710Y-99905667D01*
X152179753Y-99935278D01*
X152179750Y-99935278D01*
X151962244Y-100005950D01*
X151758461Y-100109783D01*
X151671096Y-100173258D01*
X151573434Y-100244214D01*
X151573432Y-100244216D01*
X151573431Y-100244216D01*
X151411716Y-100405931D01*
X151411709Y-100405940D01*
X151350007Y-100490864D01*
X151294677Y-100533530D01*
X151225063Y-100539508D01*
X151163269Y-100506901D01*
X151149372Y-100490863D01*
X151087907Y-100406263D01*
X151087902Y-100406257D01*
X150926242Y-100244597D01*
X150741276Y-100110211D01*
X150537568Y-100006417D01*
X150320124Y-99935765D01*
X150230000Y-99921490D01*
X150230000Y-100909252D01*
X150192292Y-100887482D01*
X150052409Y-100850000D01*
X149907591Y-100850000D01*
X149767708Y-100887482D01*
X149730000Y-100909252D01*
X149730000Y-99921490D01*
X149729999Y-99921490D01*
X149639875Y-99935765D01*
X149517427Y-99975551D01*
X149447586Y-99977546D01*
X149387753Y-99941466D01*
X149356925Y-99878765D01*
X149364890Y-99809350D01*
X149391428Y-99769939D01*
X151055900Y-98105468D01*
X152361370Y-96799998D01*
X156514532Y-96799998D01*
X156514532Y-96800001D01*
X156534364Y-97026686D01*
X156534366Y-97026697D01*
X156593258Y-97246488D01*
X156593261Y-97246497D01*
X156689431Y-97452732D01*
X156689432Y-97452734D01*
X156819954Y-97639141D01*
X156980858Y-97800045D01*
X156980861Y-97800047D01*
X157167266Y-97930568D01*
X157373504Y-98026739D01*
X157593308Y-98085635D01*
X157755230Y-98099801D01*
X157819998Y-98105468D01*
X157820000Y-98105468D01*
X157820002Y-98105468D01*
X157876673Y-98100509D01*
X158046692Y-98085635D01*
X158266496Y-98026739D01*
X158472734Y-97930568D01*
X158659139Y-97800047D01*
X158820047Y-97639139D01*
X158950568Y-97452734D01*
X159046739Y-97246496D01*
X159105635Y-97026692D01*
X159125468Y-96800000D01*
X159125468Y-96799997D01*
X161515034Y-96799997D01*
X161515034Y-96800002D01*
X161534858Y-97026599D01*
X161534860Y-97026610D01*
X161593730Y-97246317D01*
X161593735Y-97246331D01*
X161689863Y-97452478D01*
X161740974Y-97525472D01*
X162420000Y-96846446D01*
X162420000Y-96852661D01*
X162447259Y-96954394D01*
X162499920Y-97045606D01*
X162574394Y-97120080D01*
X162665606Y-97172741D01*
X162767339Y-97200000D01*
X162773553Y-97200000D01*
X162094526Y-97879025D01*
X162167513Y-97930132D01*
X162167521Y-97930136D01*
X162373668Y-98026264D01*
X162373682Y-98026269D01*
X162593389Y-98085139D01*
X162593400Y-98085141D01*
X162819998Y-98104966D01*
X162820002Y-98104966D01*
X163046599Y-98085141D01*
X163046610Y-98085139D01*
X163266317Y-98026269D01*
X163266331Y-98026264D01*
X163472478Y-97930136D01*
X163545471Y-97879024D01*
X162866447Y-97200000D01*
X162872661Y-97200000D01*
X162974394Y-97172741D01*
X163065606Y-97120080D01*
X163140080Y-97045606D01*
X163192741Y-96954394D01*
X163220000Y-96852661D01*
X163220000Y-96846447D01*
X163899024Y-97525471D01*
X163950136Y-97452478D01*
X164046264Y-97246331D01*
X164046269Y-97246317D01*
X164105139Y-97026610D01*
X164105141Y-97026599D01*
X164124966Y-96800002D01*
X164124966Y-96799997D01*
X164116216Y-96699985D01*
X166269500Y-96699985D01*
X166269500Y-100199999D01*
X166269501Y-100200016D01*
X166280000Y-100302795D01*
X166280001Y-100302798D01*
X166319652Y-100422455D01*
X166335186Y-100469333D01*
X166427289Y-100618655D01*
X166551345Y-100742711D01*
X166700667Y-100834814D01*
X166867204Y-100889999D01*
X166969993Y-100900500D01*
X170470006Y-100900499D01*
X170572796Y-100889999D01*
X170739333Y-100834814D01*
X170888655Y-100742711D01*
X171012711Y-100618655D01*
X171104814Y-100469333D01*
X171159999Y-100302796D01*
X171170500Y-100200007D01*
X171170499Y-96699994D01*
X171170498Y-96699985D01*
X172669500Y-96699985D01*
X172669500Y-100199999D01*
X172669501Y-100200016D01*
X172680000Y-100302795D01*
X172680001Y-100302798D01*
X172719652Y-100422455D01*
X172735186Y-100469333D01*
X172827289Y-100618655D01*
X172951345Y-100742711D01*
X173100667Y-100834814D01*
X173267204Y-100889999D01*
X173369993Y-100900500D01*
X176870006Y-100900499D01*
X176972796Y-100889999D01*
X177139333Y-100834814D01*
X177288655Y-100742711D01*
X177412711Y-100618655D01*
X177504814Y-100469333D01*
X177559999Y-100302796D01*
X177570500Y-100200007D01*
X177570499Y-96699994D01*
X177559999Y-96597204D01*
X177504814Y-96430667D01*
X177412711Y-96281345D01*
X177288655Y-96157289D01*
X177187852Y-96095113D01*
X177139335Y-96065187D01*
X177139330Y-96065185D01*
X177137861Y-96064698D01*
X176972796Y-96010001D01*
X176972794Y-96010000D01*
X176870008Y-95999500D01*
X173370000Y-95999500D01*
X173369983Y-95999501D01*
X173267204Y-96010000D01*
X173267201Y-96010001D01*
X173100669Y-96065185D01*
X173100664Y-96065187D01*
X172951343Y-96157290D01*
X172827290Y-96281343D01*
X172735187Y-96430664D01*
X172735186Y-96430667D01*
X172680001Y-96597204D01*
X172680001Y-96597205D01*
X172680000Y-96597205D01*
X172669500Y-96699985D01*
X171170498Y-96699985D01*
X171159999Y-96597204D01*
X171104814Y-96430667D01*
X171012711Y-96281345D01*
X170888655Y-96157289D01*
X170787852Y-96095113D01*
X170739335Y-96065187D01*
X170739330Y-96065185D01*
X170737861Y-96064698D01*
X170572796Y-96010001D01*
X170572794Y-96010000D01*
X170470008Y-95999500D01*
X166970000Y-95999500D01*
X166969983Y-95999501D01*
X166867204Y-96010000D01*
X166867201Y-96010001D01*
X166700669Y-96065185D01*
X166700664Y-96065187D01*
X166551343Y-96157290D01*
X166427290Y-96281343D01*
X166335187Y-96430664D01*
X166335186Y-96430667D01*
X166280001Y-96597204D01*
X166280001Y-96597205D01*
X166280000Y-96597205D01*
X166269500Y-96699985D01*
X164116216Y-96699985D01*
X164105141Y-96573400D01*
X164105139Y-96573389D01*
X164046269Y-96353682D01*
X164046264Y-96353668D01*
X163950136Y-96147521D01*
X163950132Y-96147513D01*
X163899025Y-96074526D01*
X163220000Y-96753551D01*
X163220000Y-96747339D01*
X163192741Y-96645606D01*
X163140080Y-96554394D01*
X163065606Y-96479920D01*
X162974394Y-96427259D01*
X162872661Y-96400000D01*
X162866448Y-96400000D01*
X163545472Y-95720974D01*
X163472478Y-95669863D01*
X163266331Y-95573735D01*
X163266317Y-95573730D01*
X163046610Y-95514860D01*
X163046599Y-95514858D01*
X162820002Y-95495034D01*
X162819998Y-95495034D01*
X162593400Y-95514858D01*
X162593389Y-95514860D01*
X162373682Y-95573730D01*
X162373673Y-95573734D01*
X162167516Y-95669866D01*
X162167512Y-95669868D01*
X162094526Y-95720973D01*
X162094526Y-95720974D01*
X162773553Y-96400000D01*
X162767339Y-96400000D01*
X162665606Y-96427259D01*
X162574394Y-96479920D01*
X162499920Y-96554394D01*
X162447259Y-96645606D01*
X162420000Y-96747339D01*
X162420000Y-96753552D01*
X161740974Y-96074526D01*
X161740973Y-96074526D01*
X161689868Y-96147512D01*
X161689866Y-96147516D01*
X161593734Y-96353673D01*
X161593730Y-96353682D01*
X161534860Y-96573389D01*
X161534858Y-96573400D01*
X161515034Y-96799997D01*
X159125468Y-96799997D01*
X159105635Y-96573308D01*
X159046739Y-96353504D01*
X158950568Y-96147266D01*
X158844582Y-95995901D01*
X158820045Y-95960858D01*
X158659141Y-95799954D01*
X158472734Y-95669432D01*
X158472732Y-95669431D01*
X158266497Y-95573261D01*
X158266488Y-95573258D01*
X158046697Y-95514366D01*
X158046693Y-95514365D01*
X158046692Y-95514365D01*
X158046691Y-95514364D01*
X158046686Y-95514364D01*
X157820002Y-95494532D01*
X157819998Y-95494532D01*
X157593313Y-95514364D01*
X157593302Y-95514366D01*
X157373511Y-95573258D01*
X157373502Y-95573261D01*
X157167267Y-95669431D01*
X157167265Y-95669432D01*
X156980858Y-95799954D01*
X156819954Y-95960858D01*
X156689432Y-96147265D01*
X156689431Y-96147267D01*
X156593261Y-96353502D01*
X156593258Y-96353511D01*
X156534366Y-96573302D01*
X156534364Y-96573313D01*
X156514532Y-96799998D01*
X152361370Y-96799998D01*
X153162952Y-95998416D01*
X153229044Y-95899500D01*
X153245084Y-95875495D01*
X153268518Y-95818920D01*
X153301659Y-95738912D01*
X153330500Y-95593917D01*
X153330500Y-95446082D01*
X153330500Y-94079499D01*
X153350185Y-94012460D01*
X153402989Y-93966705D01*
X153454500Y-93955499D01*
X153580371Y-93955499D01*
X153580372Y-93955499D01*
X153639983Y-93949091D01*
X153774831Y-93898796D01*
X153890046Y-93812546D01*
X153976296Y-93697331D01*
X154026591Y-93562483D01*
X154033000Y-93502873D01*
X154033000Y-93321868D01*
X154052685Y-93254829D01*
X154105489Y-93209074D01*
X154132808Y-93200251D01*
X154214303Y-93184039D01*
X154251413Y-93176658D01*
X154387995Y-93120084D01*
X154462067Y-93070591D01*
X154510916Y-93037952D01*
X156857819Y-90691047D01*
X156919142Y-90657563D01*
X156988834Y-90662547D01*
X157044767Y-90704419D01*
X157069184Y-90769883D01*
X157069500Y-90778729D01*
X157069500Y-91265298D01*
X157049815Y-91332337D01*
X157014391Y-91368400D01*
X156941581Y-91417049D01*
X156837052Y-91521578D01*
X156837052Y-91521579D01*
X156837049Y-91521582D01*
X156837048Y-91521584D01*
X156820825Y-91545864D01*
X156754918Y-91644502D01*
X156754914Y-91644509D01*
X156750742Y-91654582D01*
X156737760Y-91678244D01*
X156689433Y-91747263D01*
X156593261Y-91953502D01*
X156593258Y-91953511D01*
X156534366Y-92173302D01*
X156534364Y-92173313D01*
X156514532Y-92399998D01*
X156514532Y-92400001D01*
X156534364Y-92626686D01*
X156534366Y-92626697D01*
X156593258Y-92846488D01*
X156593261Y-92846497D01*
X156689431Y-93052732D01*
X156689432Y-93052734D01*
X156819954Y-93239141D01*
X156980858Y-93400045D01*
X156980861Y-93400047D01*
X157167266Y-93530568D01*
X157373504Y-93626739D01*
X157593308Y-93685635D01*
X157755230Y-93699801D01*
X157819998Y-93705468D01*
X157820000Y-93705468D01*
X157820002Y-93705468D01*
X157876673Y-93700509D01*
X158046692Y-93685635D01*
X158266496Y-93626739D01*
X158472734Y-93530568D01*
X158659139Y-93400047D01*
X158820047Y-93239139D01*
X158950568Y-93052734D01*
X159046739Y-92846496D01*
X159105635Y-92626692D01*
X159125468Y-92400000D01*
X159125468Y-92399997D01*
X161515034Y-92399997D01*
X161515034Y-92400002D01*
X161534858Y-92626599D01*
X161534860Y-92626610D01*
X161593730Y-92846317D01*
X161593735Y-92846331D01*
X161689863Y-93052478D01*
X161740974Y-93125472D01*
X162420000Y-92446446D01*
X162420000Y-92452661D01*
X162447259Y-92554394D01*
X162499920Y-92645606D01*
X162574394Y-92720080D01*
X162665606Y-92772741D01*
X162767339Y-92800000D01*
X162773553Y-92800000D01*
X162094526Y-93479025D01*
X162167513Y-93530132D01*
X162167521Y-93530136D01*
X162373668Y-93626264D01*
X162373682Y-93626269D01*
X162593389Y-93685139D01*
X162593400Y-93685141D01*
X162819998Y-93704966D01*
X162820002Y-93704966D01*
X163046599Y-93685141D01*
X163046610Y-93685139D01*
X163266317Y-93626269D01*
X163266331Y-93626264D01*
X163472478Y-93530136D01*
X163545471Y-93479024D01*
X162866447Y-92800000D01*
X162872661Y-92800000D01*
X162974394Y-92772741D01*
X163065606Y-92720080D01*
X163140080Y-92645606D01*
X163192741Y-92554394D01*
X163220000Y-92452661D01*
X163220000Y-92446447D01*
X163899024Y-93125471D01*
X163950136Y-93052478D01*
X164046264Y-92846331D01*
X164046269Y-92846317D01*
X164105139Y-92626610D01*
X164105141Y-92626599D01*
X164124966Y-92400002D01*
X164124966Y-92399997D01*
X164105141Y-92173400D01*
X164105139Y-92173389D01*
X164046269Y-91953682D01*
X164046264Y-91953668D01*
X163950136Y-91747521D01*
X163950132Y-91747513D01*
X163899025Y-91674526D01*
X163220000Y-92353551D01*
X163220000Y-92347339D01*
X163192741Y-92245606D01*
X163140080Y-92154394D01*
X163065606Y-92079920D01*
X162974394Y-92027259D01*
X162872661Y-92000000D01*
X162866448Y-92000000D01*
X163545472Y-91320974D01*
X163472478Y-91269863D01*
X163266331Y-91173735D01*
X163266317Y-91173730D01*
X163046610Y-91114860D01*
X163046599Y-91114858D01*
X162820002Y-91095034D01*
X162819998Y-91095034D01*
X162593400Y-91114858D01*
X162593389Y-91114860D01*
X162373682Y-91173730D01*
X162373673Y-91173734D01*
X162167516Y-91269866D01*
X162167512Y-91269868D01*
X162094526Y-91320973D01*
X162094526Y-91320974D01*
X162773553Y-92000000D01*
X162767339Y-92000000D01*
X162665606Y-92027259D01*
X162574394Y-92079920D01*
X162499920Y-92154394D01*
X162447259Y-92245606D01*
X162420000Y-92347339D01*
X162420000Y-92353552D01*
X161740974Y-91674526D01*
X161740973Y-91674526D01*
X161689868Y-91747512D01*
X161689866Y-91747516D01*
X161593734Y-91953673D01*
X161593730Y-91953682D01*
X161534860Y-92173389D01*
X161534858Y-92173400D01*
X161515034Y-92399997D01*
X159125468Y-92399997D01*
X159105635Y-92173308D01*
X159046739Y-91953504D01*
X158950568Y-91747266D01*
X158831861Y-91577733D01*
X158820048Y-91560862D01*
X158780764Y-91521578D01*
X158659139Y-91399953D01*
X158654373Y-91396615D01*
X158623375Y-91374910D01*
X158579751Y-91320332D01*
X158570500Y-91273336D01*
X158570500Y-89249985D01*
X166469500Y-89249985D01*
X166469500Y-92749999D01*
X166469501Y-92750016D01*
X166480000Y-92852795D01*
X166480001Y-92852798D01*
X166535185Y-93019330D01*
X166535187Y-93019335D01*
X166555630Y-93052478D01*
X166627289Y-93168655D01*
X166751345Y-93292711D01*
X166900667Y-93384814D01*
X167067204Y-93439999D01*
X167169993Y-93450500D01*
X170670006Y-93450499D01*
X170772796Y-93439999D01*
X170939333Y-93384814D01*
X171088655Y-93292711D01*
X171212711Y-93168655D01*
X171304814Y-93019333D01*
X171359999Y-92852796D01*
X171370500Y-92750007D01*
X171370499Y-89299985D01*
X172669500Y-89299985D01*
X172669500Y-92799999D01*
X172669501Y-92800016D01*
X172680000Y-92902795D01*
X172680001Y-92902798D01*
X172735185Y-93069330D01*
X172735187Y-93069335D01*
X172735964Y-93070595D01*
X172827289Y-93218655D01*
X172951345Y-93342711D01*
X173100667Y-93434814D01*
X173267204Y-93489999D01*
X173369993Y-93500500D01*
X176870006Y-93500499D01*
X176972796Y-93489999D01*
X177139333Y-93434814D01*
X177288655Y-93342711D01*
X177412711Y-93218655D01*
X177504814Y-93069333D01*
X177559999Y-92902796D01*
X177570500Y-92800007D01*
X177570499Y-89299994D01*
X177565391Y-89249994D01*
X177559999Y-89197204D01*
X177559998Y-89197201D01*
X177543431Y-89147205D01*
X177504814Y-89030667D01*
X177412711Y-88881345D01*
X177288655Y-88757289D01*
X177139333Y-88665186D01*
X176972796Y-88610001D01*
X176972794Y-88610000D01*
X176870008Y-88599500D01*
X173370000Y-88599500D01*
X173369983Y-88599501D01*
X173267204Y-88610000D01*
X173267201Y-88610001D01*
X173100669Y-88665185D01*
X173100664Y-88665187D01*
X172951343Y-88757290D01*
X172827290Y-88881343D01*
X172735187Y-89030664D01*
X172735186Y-89030667D01*
X172680001Y-89197204D01*
X172680001Y-89197205D01*
X172680000Y-89197205D01*
X172669500Y-89299985D01*
X171370499Y-89299985D01*
X171370499Y-89249994D01*
X171359999Y-89147204D01*
X171304814Y-88980667D01*
X171212711Y-88831345D01*
X171088655Y-88707289D01*
X170939333Y-88615186D01*
X170772796Y-88560001D01*
X170772794Y-88560000D01*
X170670008Y-88549500D01*
X167170000Y-88549500D01*
X167169983Y-88549501D01*
X167067204Y-88560000D01*
X167067201Y-88560001D01*
X166900669Y-88615185D01*
X166900664Y-88615187D01*
X166751343Y-88707290D01*
X166627290Y-88831343D01*
X166535187Y-88980664D01*
X166535185Y-88980669D01*
X166518617Y-89030669D01*
X166480001Y-89147204D01*
X166480001Y-89147205D01*
X166480000Y-89147205D01*
X166469500Y-89249985D01*
X158570500Y-89249985D01*
X158570500Y-89029728D01*
X158590185Y-88962689D01*
X158606815Y-88942051D01*
X158961956Y-88586909D01*
X158961961Y-88586906D01*
X158972164Y-88576702D01*
X158972166Y-88576702D01*
X163882952Y-83665916D01*
X163948042Y-83568500D01*
X163965084Y-83542995D01*
X163988675Y-83486037D01*
X164015551Y-83445815D01*
X165274549Y-82186819D01*
X165335872Y-82153334D01*
X165362230Y-82150500D01*
X166375501Y-82150500D01*
X166442540Y-82170185D01*
X166488295Y-82222989D01*
X166499501Y-82274500D01*
X166499501Y-82447876D01*
X166505908Y-82507483D01*
X166556202Y-82642328D01*
X166556206Y-82642335D01*
X166642452Y-82757544D01*
X166642455Y-82757547D01*
X166757664Y-82843793D01*
X166757671Y-82843797D01*
X166892517Y-82894091D01*
X166892516Y-82894091D01*
X166899444Y-82894835D01*
X166952127Y-82900500D01*
X169047872Y-82900499D01*
X169107483Y-82894091D01*
X169242331Y-82843796D01*
X169357546Y-82757546D01*
X169443796Y-82642331D01*
X169494091Y-82507483D01*
X169500500Y-82447873D01*
X169500499Y-81399994D01*
X171494859Y-81399994D01*
X171494859Y-81400005D01*
X171515385Y-81647729D01*
X171515387Y-81647738D01*
X171576412Y-81888717D01*
X171676266Y-82116364D01*
X171776564Y-82269882D01*
X172517037Y-81529409D01*
X172534075Y-81592993D01*
X172599901Y-81707007D01*
X172692993Y-81800099D01*
X172807007Y-81865925D01*
X172870590Y-81882962D01*
X172129942Y-82623609D01*
X172176768Y-82660055D01*
X172176770Y-82660056D01*
X172395385Y-82778364D01*
X172395396Y-82778369D01*
X172630506Y-82859083D01*
X172875707Y-82900000D01*
X173124293Y-82900000D01*
X173369493Y-82859083D01*
X173604603Y-82778369D01*
X173604614Y-82778364D01*
X173823228Y-82660057D01*
X173823231Y-82660055D01*
X173870056Y-82623609D01*
X173129409Y-81882962D01*
X173192993Y-81865925D01*
X173307007Y-81800099D01*
X173400099Y-81707007D01*
X173465925Y-81592993D01*
X173482962Y-81529409D01*
X174223434Y-82269882D01*
X174323731Y-82116369D01*
X174423587Y-81888717D01*
X174484612Y-81647738D01*
X174484614Y-81647729D01*
X174505141Y-81400005D01*
X174505141Y-81399994D01*
X174484614Y-81152270D01*
X174484612Y-81152261D01*
X174423587Y-80911282D01*
X174323731Y-80683630D01*
X174223434Y-80530116D01*
X173482962Y-81270589D01*
X173465925Y-81207007D01*
X173400099Y-81092993D01*
X173307007Y-80999901D01*
X173192993Y-80934075D01*
X173129410Y-80917037D01*
X173870057Y-80176390D01*
X173870056Y-80176389D01*
X173823229Y-80139943D01*
X173604614Y-80021635D01*
X173604603Y-80021630D01*
X173369493Y-79940916D01*
X173124293Y-79900000D01*
X172875707Y-79900000D01*
X172630506Y-79940916D01*
X172395396Y-80021630D01*
X172395390Y-80021632D01*
X172176761Y-80139949D01*
X172129942Y-80176388D01*
X172129942Y-80176390D01*
X172870590Y-80917037D01*
X172807007Y-80934075D01*
X172692993Y-80999901D01*
X172599901Y-81092993D01*
X172534075Y-81207007D01*
X172517037Y-81270589D01*
X171776564Y-80530116D01*
X171676267Y-80683632D01*
X171576412Y-80911282D01*
X171515387Y-81152261D01*
X171515385Y-81152270D01*
X171494859Y-81399994D01*
X169500499Y-81399994D01*
X169500499Y-80352128D01*
X169494091Y-80292517D01*
X169450778Y-80176390D01*
X169443797Y-80157671D01*
X169443793Y-80157664D01*
X169357547Y-80042455D01*
X169357544Y-80042452D01*
X169242335Y-79956206D01*
X169242328Y-79956202D01*
X169107482Y-79905908D01*
X169107483Y-79905908D01*
X169047883Y-79899501D01*
X169047881Y-79899500D01*
X169047873Y-79899500D01*
X169047864Y-79899500D01*
X166952129Y-79899500D01*
X166952123Y-79899501D01*
X166892516Y-79905908D01*
X166757671Y-79956202D01*
X166757664Y-79956206D01*
X166642455Y-80042452D01*
X166642452Y-80042455D01*
X166556206Y-80157664D01*
X166556202Y-80157671D01*
X166505908Y-80292517D01*
X166499501Y-80352116D01*
X166499501Y-80352123D01*
X166499500Y-80352135D01*
X166499500Y-80525500D01*
X166479815Y-80592539D01*
X166427011Y-80638294D01*
X166375500Y-80649500D01*
X164926080Y-80649500D01*
X164781092Y-80678340D01*
X164781082Y-80678343D01*
X164644509Y-80734913D01*
X164644507Y-80734914D01*
X164603645Y-80762218D01*
X164603643Y-80762219D01*
X164521589Y-80817043D01*
X164521584Y-80817047D01*
X164262181Y-81076451D01*
X164200858Y-81109936D01*
X164131166Y-81104952D01*
X164075233Y-81063080D01*
X164050816Y-80997616D01*
X164050500Y-80988770D01*
X164050500Y-72502228D01*
X164070185Y-72435189D01*
X164086814Y-72414552D01*
X164101372Y-72399994D01*
X166614357Y-72399994D01*
X166614357Y-72400005D01*
X166634890Y-72647812D01*
X166634892Y-72647824D01*
X166695936Y-72888881D01*
X166795826Y-73116606D01*
X166931833Y-73324782D01*
X166931836Y-73324785D01*
X167100256Y-73507738D01*
X167296491Y-73660474D01*
X167296493Y-73660475D01*
X167514332Y-73778364D01*
X167515190Y-73778828D01*
X167734141Y-73853994D01*
X167748964Y-73859083D01*
X167750386Y-73859571D01*
X167995665Y-73900500D01*
X168244335Y-73900500D01*
X168489614Y-73859571D01*
X168724810Y-73778828D01*
X168943509Y-73660474D01*
X169139744Y-73507738D01*
X169308164Y-73324785D01*
X169444173Y-73116607D01*
X169544063Y-72888881D01*
X169605108Y-72647821D01*
X169609651Y-72592993D01*
X169625643Y-72400005D01*
X169625643Y-72399994D01*
X169605109Y-72152187D01*
X169605107Y-72152175D01*
X169604556Y-72150000D01*
X171715960Y-72150000D01*
X172766988Y-72150000D01*
X172734075Y-72207007D01*
X172700000Y-72334174D01*
X172700000Y-72465826D01*
X172734075Y-72592993D01*
X172766988Y-72650000D01*
X171715960Y-72650000D01*
X171776411Y-72888716D01*
X171876267Y-73116367D01*
X172012232Y-73324478D01*
X172180592Y-73507364D01*
X172180602Y-73507373D01*
X172376762Y-73660051D01*
X172376771Y-73660057D01*
X172595385Y-73778364D01*
X172595396Y-73778369D01*
X172830507Y-73859083D01*
X172949999Y-73879023D01*
X172950000Y-73879022D01*
X172950000Y-72833012D01*
X173007007Y-72865925D01*
X173134174Y-72900000D01*
X173265826Y-72900000D01*
X173392993Y-72865925D01*
X173450000Y-72833012D01*
X173450000Y-73879023D01*
X173569492Y-73859083D01*
X173804603Y-73778369D01*
X173804614Y-73778364D01*
X174023228Y-73660057D01*
X174023237Y-73660051D01*
X174219397Y-73507373D01*
X174219407Y-73507364D01*
X174387767Y-73324478D01*
X174523732Y-73116367D01*
X174623588Y-72888716D01*
X174684040Y-72650000D01*
X173633012Y-72650000D01*
X173665925Y-72592993D01*
X173700000Y-72465826D01*
X173700000Y-72334174D01*
X173665925Y-72207007D01*
X173633012Y-72150000D01*
X174684040Y-72150000D01*
X174623588Y-71911283D01*
X174523732Y-71683632D01*
X174387767Y-71475521D01*
X174219407Y-71292635D01*
X174219397Y-71292626D01*
X174023237Y-71139948D01*
X174023228Y-71139942D01*
X173804614Y-71021635D01*
X173804603Y-71021630D01*
X173569492Y-70940916D01*
X173450000Y-70920976D01*
X173450000Y-71966988D01*
X173392993Y-71934075D01*
X173265826Y-71900000D01*
X173134174Y-71900000D01*
X173007007Y-71934075D01*
X172950000Y-71966988D01*
X172950000Y-70920976D01*
X172949999Y-70920976D01*
X172830507Y-70940916D01*
X172595396Y-71021630D01*
X172595385Y-71021635D01*
X172376771Y-71139942D01*
X172376762Y-71139948D01*
X172180602Y-71292626D01*
X172180592Y-71292635D01*
X172012232Y-71475521D01*
X171876267Y-71683632D01*
X171776411Y-71911283D01*
X171715960Y-72150000D01*
X169604556Y-72150000D01*
X169544063Y-71911118D01*
X169444173Y-71683393D01*
X169308166Y-71475217D01*
X169286557Y-71451744D01*
X169139744Y-71292262D01*
X168943509Y-71139526D01*
X168943507Y-71139525D01*
X168943506Y-71139524D01*
X168724811Y-71021172D01*
X168724802Y-71021169D01*
X168489616Y-70940429D01*
X168244335Y-70899500D01*
X167995665Y-70899500D01*
X167750383Y-70940429D01*
X167515197Y-71021169D01*
X167515188Y-71021172D01*
X167296493Y-71139524D01*
X167100257Y-71292261D01*
X166931833Y-71475217D01*
X166795826Y-71683393D01*
X166695936Y-71911118D01*
X166634892Y-72152175D01*
X166634890Y-72152187D01*
X166614357Y-72399994D01*
X164101372Y-72399994D01*
X167644548Y-68856817D01*
X167705871Y-68823333D01*
X167732229Y-68820499D01*
X169167871Y-68820499D01*
X169167872Y-68820499D01*
X169227483Y-68814091D01*
X169362331Y-68763796D01*
X169477546Y-68677546D01*
X169563796Y-68562331D01*
X169614091Y-68427483D01*
X169620500Y-68367873D01*
X169620499Y-67319994D01*
X171694357Y-67319994D01*
X171694357Y-67320005D01*
X171714890Y-67567812D01*
X171714892Y-67567824D01*
X171775936Y-67808881D01*
X171875826Y-68036606D01*
X172011833Y-68244782D01*
X172011836Y-68244785D01*
X172180256Y-68427738D01*
X172376491Y-68580474D01*
X172595190Y-68698828D01*
X172830386Y-68779571D01*
X173075665Y-68820500D01*
X173324335Y-68820500D01*
X173569614Y-68779571D01*
X173804810Y-68698828D01*
X174023509Y-68580474D01*
X174219744Y-68427738D01*
X174388164Y-68244785D01*
X174524173Y-68036607D01*
X174624063Y-67808881D01*
X174685108Y-67567821D01*
X174705643Y-67320000D01*
X174685108Y-67072179D01*
X174624063Y-66831119D01*
X174524173Y-66603393D01*
X174388166Y-66395217D01*
X174366557Y-66371744D01*
X174219744Y-66212262D01*
X174023509Y-66059526D01*
X174023507Y-66059525D01*
X174023506Y-66059524D01*
X173804811Y-65941172D01*
X173804802Y-65941169D01*
X173569616Y-65860429D01*
X173324335Y-65819500D01*
X173075665Y-65819500D01*
X172830383Y-65860429D01*
X172595197Y-65941169D01*
X172595188Y-65941172D01*
X172376493Y-66059524D01*
X172180257Y-66212261D01*
X172011833Y-66395217D01*
X171875826Y-66603393D01*
X171775936Y-66831118D01*
X171714892Y-67072175D01*
X171714890Y-67072187D01*
X171694357Y-67319994D01*
X169620499Y-67319994D01*
X169620499Y-66272128D01*
X169614091Y-66212517D01*
X169563796Y-66077669D01*
X169563795Y-66077668D01*
X169563793Y-66077664D01*
X169477547Y-65962455D01*
X169477544Y-65962452D01*
X169362335Y-65876206D01*
X169362328Y-65876202D01*
X169227482Y-65825908D01*
X169227483Y-65825908D01*
X169167883Y-65819501D01*
X169167881Y-65819500D01*
X169167873Y-65819500D01*
X169167864Y-65819500D01*
X167072129Y-65819500D01*
X167072123Y-65819501D01*
X167012516Y-65825908D01*
X166877671Y-65876202D01*
X166877664Y-65876206D01*
X166762455Y-65962452D01*
X166762452Y-65962455D01*
X166676206Y-66077664D01*
X166676202Y-66077671D01*
X166625908Y-66212517D01*
X166619501Y-66272116D01*
X166619501Y-66272123D01*
X166619500Y-66272135D01*
X166619500Y-67707769D01*
X166599815Y-67774808D01*
X166583181Y-67795450D01*
X163633480Y-70745150D01*
X163572157Y-70778635D01*
X163502465Y-70773651D01*
X163446532Y-70731779D01*
X163422115Y-70666315D01*
X163421801Y-70658234D01*
X163321257Y-54018015D01*
X172153000Y-54018015D01*
X172153000Y-55518000D01*
X173377015Y-55518000D01*
X173353000Y-55669623D01*
X173353000Y-55866377D01*
X173377015Y-56018000D01*
X172153001Y-56018000D01*
X172153001Y-57517984D01*
X172163494Y-57620695D01*
X172218641Y-57787117D01*
X172218643Y-57787122D01*
X172310684Y-57936344D01*
X172434655Y-58060315D01*
X172583877Y-58152356D01*
X172583882Y-58152358D01*
X172750304Y-58207505D01*
X172750311Y-58207506D01*
X172853021Y-58217999D01*
X174352999Y-58217999D01*
X174353000Y-58217998D01*
X174353000Y-56993985D01*
X174504623Y-57018000D01*
X174701377Y-57018000D01*
X174853000Y-56993985D01*
X174853000Y-58217999D01*
X176352970Y-58217999D01*
X176352984Y-58217998D01*
X176455695Y-58207505D01*
X176622117Y-58152358D01*
X176622122Y-58152356D01*
X176771344Y-58060315D01*
X176895315Y-57936344D01*
X176987356Y-57787122D01*
X176987358Y-57787117D01*
X177042505Y-57620695D01*
X177042506Y-57620688D01*
X177052999Y-57517984D01*
X177053000Y-57517971D01*
X177053000Y-56018000D01*
X175828985Y-56018000D01*
X175853000Y-55866377D01*
X175853000Y-55669623D01*
X175828985Y-55518000D01*
X177052999Y-55518000D01*
X177052999Y-54018030D01*
X177052998Y-54018015D01*
X177042505Y-53915304D01*
X176987358Y-53748882D01*
X176987356Y-53748877D01*
X176895315Y-53599655D01*
X176771344Y-53475684D01*
X176622122Y-53383643D01*
X176622117Y-53383641D01*
X176455695Y-53328494D01*
X176455688Y-53328493D01*
X176352984Y-53318000D01*
X174853000Y-53318000D01*
X174853000Y-54542014D01*
X174701377Y-54518000D01*
X174504623Y-54518000D01*
X174353000Y-54542014D01*
X174353000Y-53318000D01*
X172853030Y-53318000D01*
X172853014Y-53318001D01*
X172750304Y-53328494D01*
X172583882Y-53383641D01*
X172583877Y-53383643D01*
X172434655Y-53475684D01*
X172310684Y-53599655D01*
X172218643Y-53748877D01*
X172218641Y-53748882D01*
X172163494Y-53915304D01*
X172163493Y-53915311D01*
X172153000Y-54018015D01*
X163321257Y-54018015D01*
X163300757Y-50625249D01*
X163320036Y-50558092D01*
X163372563Y-50512019D01*
X163424755Y-50500500D01*
X178655500Y-50500500D01*
X178722539Y-50520185D01*
G37*
%TD.AperFunction*%
%TA.AperFunction,Conductor*%
G36*
X115955810Y-102370185D02*
G01*
X116001565Y-102422989D01*
X116011509Y-102492147D01*
X115982484Y-102555703D01*
X115976457Y-102562175D01*
X115879259Y-102659373D01*
X115617047Y-102921584D01*
X115617045Y-102921586D01*
X115581416Y-102974913D01*
X115581414Y-102974916D01*
X115534919Y-103044499D01*
X115534912Y-103044511D01*
X115478343Y-103181082D01*
X115478340Y-103181092D01*
X115449500Y-103326079D01*
X115449500Y-106893021D01*
X115429815Y-106960060D01*
X115421353Y-106971686D01*
X115364091Y-107041460D01*
X115364086Y-107041467D01*
X115271188Y-107215266D01*
X115213975Y-107403870D01*
X115194659Y-107600000D01*
X115213975Y-107796129D01*
X115271188Y-107984733D01*
X115364086Y-108158532D01*
X115364090Y-108158539D01*
X115489116Y-108310883D01*
X115641460Y-108435909D01*
X115641467Y-108435913D01*
X115815266Y-108528811D01*
X115815269Y-108528811D01*
X115815273Y-108528814D01*
X116003868Y-108586024D01*
X116200000Y-108605341D01*
X116369018Y-108588694D01*
X116437663Y-108601713D01*
X116488373Y-108649778D01*
X116505048Y-108717628D01*
X116482392Y-108783723D01*
X116468852Y-108799778D01*
X115655451Y-109613181D01*
X115594128Y-109646666D01*
X115567770Y-109649500D01*
X113875335Y-109649500D01*
X113808296Y-109629815D01*
X113762541Y-109577011D01*
X113752597Y-109507853D01*
X113781622Y-109444297D01*
X113822928Y-109413118D01*
X113892734Y-109380568D01*
X114079139Y-109250047D01*
X114240047Y-109089139D01*
X114370568Y-108902734D01*
X114466739Y-108696496D01*
X114525635Y-108476692D01*
X114545468Y-108250000D01*
X114543391Y-108226265D01*
X114537466Y-108158532D01*
X114525635Y-108023308D01*
X114466739Y-107803504D01*
X114370568Y-107597266D01*
X114240047Y-107410861D01*
X114240045Y-107410858D01*
X114079141Y-107249954D01*
X113892734Y-107119432D01*
X113892732Y-107119431D01*
X113686497Y-107023261D01*
X113686488Y-107023258D01*
X113466697Y-106964366D01*
X113466693Y-106964365D01*
X113466692Y-106964365D01*
X113466691Y-106964364D01*
X113466686Y-106964364D01*
X113240002Y-106944532D01*
X113239998Y-106944532D01*
X113013313Y-106964364D01*
X113013302Y-106964366D01*
X112793511Y-107023258D01*
X112793502Y-107023261D01*
X112587267Y-107119431D01*
X112587265Y-107119432D01*
X112400858Y-107249954D01*
X112239954Y-107410858D01*
X112109432Y-107597265D01*
X112109431Y-107597267D01*
X112013261Y-107803502D01*
X112013258Y-107803511D01*
X111954366Y-108023302D01*
X111954364Y-108023313D01*
X111934532Y-108249998D01*
X111934532Y-108250001D01*
X111954364Y-108476686D01*
X111954366Y-108476697D01*
X112013258Y-108696488D01*
X112013261Y-108696497D01*
X112109431Y-108902732D01*
X112109432Y-108902734D01*
X112239954Y-109089141D01*
X112400858Y-109250045D01*
X112400861Y-109250047D01*
X112587266Y-109380568D01*
X112657070Y-109413118D01*
X112709509Y-109459290D01*
X112728661Y-109526484D01*
X112708445Y-109593365D01*
X112655280Y-109638700D01*
X112604665Y-109649500D01*
X105111229Y-109649500D01*
X105044190Y-109629815D01*
X104998435Y-109577011D01*
X104988491Y-109507853D01*
X105017516Y-109444297D01*
X105023548Y-109437819D01*
X108461026Y-106000342D01*
X110211371Y-104249997D01*
X112015034Y-104249997D01*
X112015034Y-104250002D01*
X112034858Y-104476599D01*
X112034860Y-104476610D01*
X112093730Y-104696317D01*
X112093735Y-104696331D01*
X112189863Y-104902478D01*
X112240974Y-104975472D01*
X112920000Y-104296446D01*
X112920000Y-104302661D01*
X112947259Y-104404394D01*
X112999920Y-104495606D01*
X113074394Y-104570080D01*
X113165606Y-104622741D01*
X113267339Y-104650000D01*
X113273553Y-104650000D01*
X112594526Y-105329025D01*
X112667513Y-105380132D01*
X112667521Y-105380136D01*
X112873668Y-105476264D01*
X112873682Y-105476269D01*
X113093389Y-105535139D01*
X113093400Y-105535141D01*
X113319998Y-105554966D01*
X113320002Y-105554966D01*
X113546599Y-105535141D01*
X113546610Y-105535139D01*
X113766317Y-105476269D01*
X113766331Y-105476264D01*
X113972478Y-105380136D01*
X114045471Y-105329024D01*
X113366447Y-104650000D01*
X113372661Y-104650000D01*
X113474394Y-104622741D01*
X113565606Y-104570080D01*
X113640080Y-104495606D01*
X113692741Y-104404394D01*
X113720000Y-104302661D01*
X113720000Y-104296447D01*
X114399024Y-104975471D01*
X114450136Y-104902478D01*
X114546264Y-104696331D01*
X114546269Y-104696317D01*
X114605139Y-104476610D01*
X114605141Y-104476599D01*
X114624966Y-104250002D01*
X114624966Y-104249997D01*
X114605141Y-104023400D01*
X114605139Y-104023389D01*
X114546269Y-103803682D01*
X114546264Y-103803668D01*
X114450136Y-103597521D01*
X114450132Y-103597513D01*
X114399025Y-103524526D01*
X113720000Y-104203551D01*
X113720000Y-104197339D01*
X113692741Y-104095606D01*
X113640080Y-104004394D01*
X113565606Y-103929920D01*
X113474394Y-103877259D01*
X113372661Y-103850000D01*
X113366448Y-103850000D01*
X114045472Y-103170974D01*
X113972478Y-103119863D01*
X113766331Y-103023735D01*
X113766317Y-103023730D01*
X113546610Y-102964860D01*
X113546599Y-102964858D01*
X113320002Y-102945034D01*
X113319998Y-102945034D01*
X113093400Y-102964858D01*
X113093389Y-102964860D01*
X112873682Y-103023730D01*
X112873673Y-103023734D01*
X112667516Y-103119866D01*
X112667512Y-103119868D01*
X112594526Y-103170973D01*
X112594526Y-103170974D01*
X113273553Y-103850000D01*
X113267339Y-103850000D01*
X113165606Y-103877259D01*
X113074394Y-103929920D01*
X112999920Y-104004394D01*
X112947259Y-104095606D01*
X112920000Y-104197339D01*
X112920000Y-104203552D01*
X112240974Y-103524526D01*
X112240973Y-103524526D01*
X112189868Y-103597512D01*
X112189866Y-103597516D01*
X112093734Y-103803673D01*
X112093730Y-103803682D01*
X112034860Y-104023389D01*
X112034858Y-104023400D01*
X112015034Y-104249997D01*
X110211371Y-104249997D01*
X112074549Y-102386819D01*
X112135872Y-102353334D01*
X112162230Y-102350500D01*
X115888771Y-102350500D01*
X115955810Y-102370185D01*
G37*
%TD.AperFunction*%
%TA.AperFunction,Conductor*%
G36*
X161534597Y-83592638D02*
G01*
X161601561Y-83612573D01*
X161647118Y-83665548D01*
X161656802Y-83734744D01*
X161627539Y-83798190D01*
X161621812Y-83804318D01*
X159206743Y-86219387D01*
X159145420Y-86252872D01*
X159075728Y-86247888D01*
X159019795Y-86206016D01*
X158995378Y-86140552D01*
X158998489Y-86102757D01*
X159009956Y-86054993D01*
X159009957Y-86054989D01*
X159030024Y-85800000D01*
X159009957Y-85545010D01*
X158950247Y-85296297D01*
X158852365Y-85059987D01*
X158852363Y-85059984D01*
X158718719Y-84841897D01*
X158715465Y-84838087D01*
X158077577Y-85475974D01*
X158064641Y-85444742D01*
X157982563Y-85321903D01*
X157878097Y-85217437D01*
X157755258Y-85135359D01*
X157724024Y-85122421D01*
X158361912Y-84484533D01*
X158358107Y-84481284D01*
X158358098Y-84481277D01*
X158140015Y-84347636D01*
X158140012Y-84347634D01*
X157903702Y-84249752D01*
X157654988Y-84190042D01*
X157654989Y-84190042D01*
X157400000Y-84169975D01*
X157145010Y-84190042D01*
X156896297Y-84249752D01*
X156659987Y-84347634D01*
X156659984Y-84347636D01*
X156441893Y-84481282D01*
X156438086Y-84484532D01*
X157075975Y-85122421D01*
X157044742Y-85135359D01*
X156921903Y-85217437D01*
X156817437Y-85321903D01*
X156735359Y-85444742D01*
X156722421Y-85475975D01*
X156084532Y-84838086D01*
X156081282Y-84841893D01*
X155947636Y-85059984D01*
X155947634Y-85059987D01*
X155849752Y-85296297D01*
X155790042Y-85545010D01*
X155769975Y-85800000D01*
X155790042Y-86054989D01*
X155849752Y-86303702D01*
X155947634Y-86540012D01*
X155947636Y-86540015D01*
X156081277Y-86758098D01*
X156081284Y-86758107D01*
X156084533Y-86761912D01*
X156722421Y-86124024D01*
X156735359Y-86155258D01*
X156817437Y-86278097D01*
X156921903Y-86382563D01*
X157044742Y-86464641D01*
X157075974Y-86477577D01*
X156438087Y-87115465D01*
X156441897Y-87118719D01*
X156659984Y-87252363D01*
X156659987Y-87252365D01*
X156896297Y-87350247D01*
X157145011Y-87409957D01*
X157145010Y-87409957D01*
X157400000Y-87430024D01*
X157654985Y-87409957D01*
X157702758Y-87398488D01*
X157772541Y-87401978D01*
X157829359Y-87442641D01*
X157855173Y-87507567D01*
X157841788Y-87576143D01*
X157819388Y-87606743D01*
X157237048Y-88189084D01*
X157237046Y-88189086D01*
X154177158Y-91248972D01*
X154115835Y-91282457D01*
X154046143Y-91277473D01*
X153990210Y-91235601D01*
X153981641Y-91219856D01*
X153980547Y-91220454D01*
X153976293Y-91212664D01*
X153890047Y-91097455D01*
X153890044Y-91097452D01*
X153774835Y-91011206D01*
X153774828Y-91011202D01*
X153639982Y-90960908D01*
X153639983Y-90960908D01*
X153580383Y-90954501D01*
X153580381Y-90954500D01*
X153580373Y-90954500D01*
X153580364Y-90954500D01*
X151579629Y-90954500D01*
X151579623Y-90954501D01*
X151520016Y-90960908D01*
X151385171Y-91011202D01*
X151385164Y-91011206D01*
X151269955Y-91097452D01*
X151269952Y-91097455D01*
X151183706Y-91212664D01*
X151183702Y-91212671D01*
X151173127Y-91241026D01*
X151131256Y-91296960D01*
X151065791Y-91321377D01*
X150997518Y-91306525D01*
X150984060Y-91298011D01*
X150801279Y-91165213D01*
X150597568Y-91061417D01*
X150380124Y-90990765D01*
X150290000Y-90976490D01*
X150290000Y-91964252D01*
X150252292Y-91942482D01*
X150112409Y-91905000D01*
X149967591Y-91905000D01*
X149827708Y-91942482D01*
X149790000Y-91964252D01*
X149790000Y-90976490D01*
X149789999Y-90976490D01*
X149699875Y-90990765D01*
X149482431Y-91061417D01*
X149278723Y-91165211D01*
X149093757Y-91299597D01*
X148932097Y-91461257D01*
X148870627Y-91545864D01*
X148815297Y-91588529D01*
X148745684Y-91594508D01*
X148683889Y-91561902D01*
X148669991Y-91545864D01*
X148667314Y-91542179D01*
X148608286Y-91460934D01*
X148446566Y-91299214D01*
X148261538Y-91164783D01*
X148163555Y-91114858D01*
X148057755Y-91060950D01*
X147840248Y-90990278D01*
X147654812Y-90960908D01*
X147614354Y-90954500D01*
X147385646Y-90954500D01*
X147345188Y-90960908D01*
X147159753Y-90990278D01*
X147159750Y-90990278D01*
X146942244Y-91060950D01*
X146738461Y-91164783D01*
X146640990Y-91235601D01*
X146553434Y-91299214D01*
X146553432Y-91299216D01*
X146553431Y-91299216D01*
X146391716Y-91460931D01*
X146391716Y-91460932D01*
X146391714Y-91460934D01*
X146347653Y-91521579D01*
X146257283Y-91645961D01*
X146153450Y-91849744D01*
X146082778Y-92067250D01*
X146082778Y-92067253D01*
X146065981Y-92173308D01*
X146047000Y-92293146D01*
X146047000Y-92616854D01*
X146056199Y-92674931D01*
X146082778Y-92842746D01*
X146082778Y-92842749D01*
X146153450Y-93060255D01*
X146227456Y-93205500D01*
X146257283Y-93264038D01*
X146391714Y-93449066D01*
X146553434Y-93610786D01*
X146683752Y-93705468D01*
X146698385Y-93716099D01*
X146741051Y-93771429D01*
X146749500Y-93816417D01*
X146749500Y-97937769D01*
X146729815Y-98004808D01*
X146713181Y-98025450D01*
X144217686Y-100520944D01*
X144156363Y-100554429D01*
X144086671Y-100549445D01*
X144030738Y-100507573D01*
X144006321Y-100442109D01*
X144006477Y-100422455D01*
X144015004Y-100325000D01*
X144015004Y-100324999D01*
X143995026Y-100096656D01*
X143995024Y-100096646D01*
X143935702Y-99875249D01*
X143935698Y-99875240D01*
X143838827Y-99667498D01*
X143838825Y-99667494D01*
X143786205Y-99592346D01*
X143142137Y-100236414D01*
X143119333Y-100151306D01*
X143060090Y-100048694D01*
X142976306Y-99964910D01*
X142873694Y-99905667D01*
X142788585Y-99882862D01*
X143432652Y-99238794D01*
X143357499Y-99186171D01*
X143149759Y-99089301D01*
X143149750Y-99089297D01*
X142928353Y-99029975D01*
X142928343Y-99029973D01*
X142700001Y-99009996D01*
X142699999Y-99009996D01*
X142471656Y-99029973D01*
X142471646Y-99029975D01*
X142250249Y-99089297D01*
X142250240Y-99089301D01*
X142042502Y-99186171D01*
X141967346Y-99238794D01*
X142611414Y-99882861D01*
X142526306Y-99905667D01*
X142423694Y-99964910D01*
X142339910Y-100048694D01*
X142280667Y-100151306D01*
X142257862Y-100236414D01*
X141613794Y-99592346D01*
X141561171Y-99667502D01*
X141464301Y-99875240D01*
X141464297Y-99875249D01*
X141404975Y-100096646D01*
X141404973Y-100096656D01*
X141384996Y-100324999D01*
X141384996Y-100325000D01*
X141404973Y-100553343D01*
X141404975Y-100553353D01*
X141464297Y-100774750D01*
X141464301Y-100774759D01*
X141561171Y-100982499D01*
X141613794Y-101057652D01*
X142257861Y-100413584D01*
X142280667Y-100498694D01*
X142339910Y-100601306D01*
X142423694Y-100685090D01*
X142526306Y-100744333D01*
X142611414Y-100767138D01*
X141937430Y-101441122D01*
X141876107Y-101474607D01*
X141849749Y-101477441D01*
X138700248Y-101477441D01*
X138633209Y-101457756D01*
X138587454Y-101404952D01*
X138577510Y-101335794D01*
X138606535Y-101272238D01*
X138612567Y-101265760D01*
X138640181Y-101238146D01*
X138707736Y-101170591D01*
X138839262Y-100982753D01*
X138936171Y-100774930D01*
X138995521Y-100553435D01*
X139015506Y-100325000D01*
X139013563Y-100302796D01*
X139008011Y-100239336D01*
X138995521Y-100096565D01*
X138936171Y-99875070D01*
X138839262Y-99667247D01*
X138707736Y-99479409D01*
X138545591Y-99317264D01*
X138540805Y-99313913D01*
X138503375Y-99287703D01*
X138459751Y-99233125D01*
X138450500Y-99186129D01*
X138450500Y-97824997D01*
X138884494Y-97824997D01*
X138884494Y-97825002D01*
X138904478Y-98053429D01*
X138904479Y-98053436D01*
X138963827Y-98274925D01*
X138963828Y-98274927D01*
X138963829Y-98274930D01*
X139060738Y-98482753D01*
X139192264Y-98670591D01*
X139354409Y-98832736D01*
X139542247Y-98964262D01*
X139750070Y-99061171D01*
X139971565Y-99120521D01*
X140134732Y-99134796D01*
X140199998Y-99140506D01*
X140200000Y-99140506D01*
X140200002Y-99140506D01*
X140257108Y-99135509D01*
X140428435Y-99120521D01*
X140649930Y-99061171D01*
X140857753Y-98964262D01*
X141045591Y-98832736D01*
X141207736Y-98670591D01*
X141339262Y-98482753D01*
X141436171Y-98274930D01*
X141495521Y-98053435D01*
X141515506Y-97825000D01*
X141495521Y-97596565D01*
X141436171Y-97375070D01*
X141339262Y-97167247D01*
X141207736Y-96979409D01*
X141045591Y-96817264D01*
X140857753Y-96685738D01*
X140649930Y-96588829D01*
X140649927Y-96588828D01*
X140649925Y-96588827D01*
X140428436Y-96529479D01*
X140428429Y-96529478D01*
X140200002Y-96509494D01*
X140199998Y-96509494D01*
X139971570Y-96529478D01*
X139971563Y-96529479D01*
X139750074Y-96588827D01*
X139750070Y-96588829D01*
X139542247Y-96685738D01*
X139354409Y-96817264D01*
X139354407Y-96817265D01*
X139354404Y-96817268D01*
X139192268Y-96979404D01*
X139192265Y-96979407D01*
X139192264Y-96979409D01*
X139060738Y-97167247D01*
X139023788Y-97246488D01*
X138963830Y-97375068D01*
X138963827Y-97375074D01*
X138904479Y-97596563D01*
X138904478Y-97596570D01*
X138884494Y-97824997D01*
X138450500Y-97824997D01*
X138450500Y-97262228D01*
X138470185Y-97195189D01*
X138486814Y-97174552D01*
X141077522Y-94583843D01*
X141138842Y-94550361D01*
X141208534Y-94555345D01*
X141264467Y-94597217D01*
X141288884Y-94662681D01*
X141288728Y-94682333D01*
X141284996Y-94724996D01*
X141284996Y-94725000D01*
X141304973Y-94953343D01*
X141304975Y-94953353D01*
X141364297Y-95174750D01*
X141364301Y-95174759D01*
X141461171Y-95382499D01*
X141513794Y-95457652D01*
X142157861Y-94813584D01*
X142180667Y-94898694D01*
X142239910Y-95001306D01*
X142323694Y-95085090D01*
X142426306Y-95144333D01*
X142511414Y-95167137D01*
X141867346Y-95811205D01*
X141942494Y-95863825D01*
X141942498Y-95863827D01*
X142150240Y-95960698D01*
X142150249Y-95960702D01*
X142371646Y-96020024D01*
X142371656Y-96020026D01*
X142599999Y-96040004D01*
X142600001Y-96040004D01*
X142828343Y-96020026D01*
X142828353Y-96020024D01*
X143049750Y-95960702D01*
X143049759Y-95960698D01*
X143257503Y-95863826D01*
X143332651Y-95811204D01*
X142688585Y-95167138D01*
X142773694Y-95144333D01*
X142876306Y-95085090D01*
X142960090Y-95001306D01*
X143019333Y-94898694D01*
X143042138Y-94813585D01*
X143686204Y-95457651D01*
X143738826Y-95382503D01*
X143835698Y-95174759D01*
X143835702Y-95174750D01*
X143895024Y-94953353D01*
X143895026Y-94953343D01*
X143915004Y-94725000D01*
X143915004Y-94724999D01*
X143895026Y-94496656D01*
X143895024Y-94496646D01*
X143835702Y-94275249D01*
X143835698Y-94275240D01*
X143738827Y-94067498D01*
X143738825Y-94067494D01*
X143686205Y-93992346D01*
X143042137Y-94636414D01*
X143019333Y-94551306D01*
X142960090Y-94448694D01*
X142876306Y-94364910D01*
X142773694Y-94305667D01*
X142688584Y-94282861D01*
X143332652Y-93638794D01*
X143257499Y-93586171D01*
X143049759Y-93489301D01*
X143049750Y-93489297D01*
X142828353Y-93429975D01*
X142828343Y-93429973D01*
X142600001Y-93409996D01*
X142599996Y-93409996D01*
X142557333Y-93413728D01*
X142488833Y-93399961D01*
X142438651Y-93351345D01*
X142422718Y-93283316D01*
X142446094Y-93217473D01*
X142458836Y-93202530D01*
X152067538Y-83593827D01*
X152128859Y-83560344D01*
X152155677Y-83557511D01*
X161534597Y-83592638D01*
G37*
%TD.AperFunction*%
%TA.AperFunction,Conductor*%
G36*
X150290000Y-93933508D02*
G01*
X150380128Y-93919234D01*
X150597570Y-93848582D01*
X150801276Y-93744788D01*
X150984059Y-93611988D01*
X151049865Y-93588508D01*
X151117919Y-93604333D01*
X151166614Y-93654439D01*
X151173127Y-93668974D01*
X151183701Y-93697326D01*
X151183706Y-93697335D01*
X151269952Y-93812544D01*
X151269955Y-93812547D01*
X151385164Y-93898793D01*
X151385171Y-93898797D01*
X151430118Y-93915561D01*
X151520017Y-93949091D01*
X151579627Y-93955500D01*
X151705500Y-93955499D01*
X151772539Y-93975183D01*
X151818294Y-94027987D01*
X151829500Y-94079499D01*
X151829500Y-95157769D01*
X151809815Y-95224808D01*
X151793181Y-95245450D01*
X148436694Y-98601936D01*
X148375371Y-98635421D01*
X148305679Y-98630437D01*
X148249746Y-98588565D01*
X148225329Y-98523101D01*
X148227398Y-98490053D01*
X148228851Y-98482753D01*
X148250500Y-98373918D01*
X148250500Y-93816417D01*
X148270185Y-93749378D01*
X148301615Y-93716099D01*
X148446566Y-93610786D01*
X148608286Y-93449066D01*
X148669992Y-93364134D01*
X148725319Y-93321470D01*
X148794932Y-93315491D01*
X148856727Y-93348096D01*
X148870626Y-93364135D01*
X148932097Y-93448741D01*
X148932097Y-93448742D01*
X149093757Y-93610402D01*
X149278723Y-93744788D01*
X149482429Y-93848582D01*
X149699871Y-93919234D01*
X149790000Y-93933509D01*
X149790000Y-92945747D01*
X149827708Y-92967518D01*
X149967591Y-93005000D01*
X150112409Y-93005000D01*
X150252292Y-92967518D01*
X150290000Y-92945747D01*
X150290000Y-93933508D01*
G37*
%TD.AperFunction*%
%TD*%
M02*
