M48
; DRILL file {KiCad 8.0.6} date 2025-03-04T10:22:59-0800
; FORMAT={-:-/ absolute / inch / decimal}
; #@! TF.CreationDate,2025-03-04T10:22:59-08:00
; #@! TF.GenerationSoftware,Kicad,Pcbnew,8.0.6
; #@! TF.FileFunction,Plated,1,2,PTH
FMAT,2
INCH
; #@! TA.AperFunction,Plated,PTH,ViaDrill
T1C0.0236
; #@! TA.AperFunction,Plated,PTH,ComponentDrill
T2C0.0315
; #@! TA.AperFunction,Plated,PTH,ComponentDrill
T3C0.0354
; #@! TA.AperFunction,Plated,PTH,ViaDrill
T4C0.0394
; #@! TA.AperFunction,Plated,PTH,ComponentDrill
T5C0.0394
; #@! TA.AperFunction,Plated,PTH,ComponentDrill
T6C0.0433
; #@! TA.AperFunction,Plated,PTH,ComponentDrill
T7C0.0591
; #@! TA.AperFunction,Plated,PTH,ComponentDrill
T8C0.0600
; #@! TA.AperFunction,Plated,PTH,ComponentDrill
T9C0.0984
; #@! TA.AperFunction,Plated,PTH,ComponentDrill
T10C0.1000
%
G90
G05
T1
X4.5748Y-4.2362
X4.6268Y-4.6407
X5.0Y-4.8583
X5.0865Y-4.6357
X5.1024Y-4.8909
X5.2283Y-4.0
X5.6063Y-5.0787
X5.874Y-3.8071
T2
X4.0583Y-4.2618
X4.0614Y-4.1043
X4.0614Y-4.4173
X4.0614Y-4.5768
X4.0614Y-4.7244
X4.0638Y-4.9055
X4.4583Y-4.2618
X4.4614Y-4.1043
X4.4614Y-4.4173
X4.4614Y-4.5768
X4.4614Y-4.7244
X4.4638Y-4.9055
X4.6583Y-4.7402
X4.6587Y-4.1043
X4.6587Y-4.252
X4.6598Y-4.4016
X4.6598Y-4.5394
X5.0583Y-4.7402
X5.0587Y-4.1043
X5.0587Y-4.252
X5.0598Y-4.4016
X5.0598Y-4.5394
X5.1882Y-4.7402
X5.1882Y-4.8402
X5.1882Y-4.9402
X5.1882Y-5.0402
X5.2134Y-4.1811
X5.2173Y-4.4803
X5.4102Y-4.1811
X5.4142Y-4.4803
X5.4882Y-4.7402
X5.4882Y-4.8402
X5.4882Y-4.9402
X5.4882Y-5.0402
X5.6756Y-4.5472
X5.6756Y-4.7244
X5.6787Y-4.2126
X5.6787Y-4.3701
X5.6811Y-4.8976
X5.6811Y-5.063
X5.878Y-4.8976
X5.878Y-5.063
X6.0236Y-4.878
X6.0236Y-5.0748
X6.0756Y-4.5472
X6.0756Y-4.7244
X6.0787Y-4.2126
X6.0787Y-4.3701
X6.2134Y-3.6378
X6.2134Y-3.811
X6.2134Y-3.9921
X6.2173Y-4.1654
X6.2213Y-4.4252
X6.2213Y-4.7402
X6.2252Y-5.0394
X6.4102Y-3.6378
X6.4102Y-3.811
X6.4102Y-3.9921
X6.4142Y-4.1654
X6.4181Y-4.4252
X6.4181Y-4.7402
X6.422Y-5.0394
T3
X4.6472Y-5.0374
X4.6472Y-5.2047
X5.0472Y-5.0374
X5.0472Y-5.2047
X5.4173Y-3.7293
X5.4213Y-3.9498
X5.5157Y-3.6309
X5.5197Y-3.8514
X5.6142Y-3.7293
X5.6181Y-3.9498
T4
X6.2323Y-2.4724
T5
X6.6142Y-3.2047
X6.6189Y-2.6504
X6.6189Y-2.8504
X6.811Y-3.2047
X6.8189Y-2.6504
X6.8189Y-2.8504
T6
X5.8047Y-3.9921
X5.8071Y-3.64
X5.9047Y-3.9921
X5.9071Y-3.64
X6.0047Y-3.9921
X6.0071Y-3.64
T7
X5.685Y-2.8346
X5.685Y-2.9843
X5.685Y-3.1811
X5.685Y-3.378
X6.1969Y-2.7874
X6.1969Y-2.9843
X6.1969Y-3.1811
X6.1969Y-3.378
T8
X4.0556Y-2.8192
X4.0556Y-3.0842
X4.0556Y-3.3492
X4.0556Y-3.6142
X5.2756Y-2.8192
X5.2756Y-3.0842
X5.2756Y-3.3492
X5.2756Y-3.6142
T9
X4.1992Y-2.1956
X4.1992Y-5.2138
X4.5276Y-2.126
X4.8425Y-2.126
X5.1575Y-2.126
X6.6425Y-3.876
X6.6425Y-4.1358
X6.6425Y-4.3858
X6.6504Y-3.5827
X6.8741Y-2.1956
X6.8741Y-5.2138
X6.8945Y-3.5846
X6.8945Y-3.876
X6.8945Y-4.1358
X6.8945Y-4.3858
T10
X5.585Y-2.1496
X5.785Y-2.1496
X5.9449Y-2.1496
X6.1449Y-2.1496
M30
