%TF.GenerationSoftware,KiCad,Pcbnew,8.0.6*%
%TF.CreationDate,2025-03-04T10:23:17-08:00*%
%TF.ProjectId,Final_Board-Analog-v2,46696e61-6c5f-4426-9f61-72642d416e61,rev?*%
%TF.SameCoordinates,Original*%
%TF.FileFunction,Legend,Top*%
%TF.FilePolarity,Positive*%
%FSLAX46Y46*%
G04 Gerber Fmt 4.6, Leading zero omitted, Abs format (unit mm)*
G04 Created by KiCad (PCBNEW 8.0.6) date 2025-03-04 10:23:17*
%MOMM*%
%LPD*%
G01*
G04 APERTURE LIST*
%ADD10C,0.150000*%
%ADD11C,0.125000*%
%ADD12C,0.120000*%
%ADD13C,0.127000*%
%ADD14C,0.400000*%
%ADD15C,0.300000*%
%ADD16C,0.100000*%
G04 APERTURE END LIST*
D10*
X172466666Y-135054819D02*
X172466666Y-135769104D01*
X172466666Y-135769104D02*
X172419047Y-135911961D01*
X172419047Y-135911961D02*
X172323809Y-136007200D01*
X172323809Y-136007200D02*
X172180952Y-136054819D01*
X172180952Y-136054819D02*
X172085714Y-136054819D01*
X173371428Y-135388152D02*
X173371428Y-136054819D01*
X173133333Y-135007200D02*
X172895238Y-135721485D01*
X172895238Y-135721485D02*
X173514285Y-135721485D01*
X176190476Y-87254819D02*
X176190476Y-87969104D01*
X176190476Y-87969104D02*
X176142857Y-88111961D01*
X176142857Y-88111961D02*
X176047619Y-88207200D01*
X176047619Y-88207200D02*
X175904762Y-88254819D01*
X175904762Y-88254819D02*
X175809524Y-88254819D01*
X177190476Y-88254819D02*
X176619048Y-88254819D01*
X176904762Y-88254819D02*
X176904762Y-87254819D01*
X176904762Y-87254819D02*
X176809524Y-87397676D01*
X176809524Y-87397676D02*
X176714286Y-87492914D01*
X176714286Y-87492914D02*
X176619048Y-87540533D01*
X178047619Y-87588152D02*
X178047619Y-88254819D01*
X177809524Y-87207200D02*
X177571429Y-87921485D01*
X177571429Y-87921485D02*
X178190476Y-87921485D01*
X118316666Y-53704819D02*
X118316666Y-54419104D01*
X118316666Y-54419104D02*
X118269047Y-54561961D01*
X118269047Y-54561961D02*
X118173809Y-54657200D01*
X118173809Y-54657200D02*
X118030952Y-54704819D01*
X118030952Y-54704819D02*
X117935714Y-54704819D01*
X118697619Y-53704819D02*
X119364285Y-53704819D01*
X119364285Y-53704819D02*
X118935714Y-54704819D01*
X169866666Y-94654819D02*
X169866666Y-95369104D01*
X169866666Y-95369104D02*
X169819047Y-95511961D01*
X169819047Y-95511961D02*
X169723809Y-95607200D01*
X169723809Y-95607200D02*
X169580952Y-95654819D01*
X169580952Y-95654819D02*
X169485714Y-95654819D01*
X170771428Y-94654819D02*
X170580952Y-94654819D01*
X170580952Y-94654819D02*
X170485714Y-94702438D01*
X170485714Y-94702438D02*
X170438095Y-94750057D01*
X170438095Y-94750057D02*
X170342857Y-94892914D01*
X170342857Y-94892914D02*
X170295238Y-95083390D01*
X170295238Y-95083390D02*
X170295238Y-95464342D01*
X170295238Y-95464342D02*
X170342857Y-95559580D01*
X170342857Y-95559580D02*
X170390476Y-95607200D01*
X170390476Y-95607200D02*
X170485714Y-95654819D01*
X170485714Y-95654819D02*
X170676190Y-95654819D01*
X170676190Y-95654819D02*
X170771428Y-95607200D01*
X170771428Y-95607200D02*
X170819047Y-95559580D01*
X170819047Y-95559580D02*
X170866666Y-95464342D01*
X170866666Y-95464342D02*
X170866666Y-95226247D01*
X170866666Y-95226247D02*
X170819047Y-95131009D01*
X170819047Y-95131009D02*
X170771428Y-95083390D01*
X170771428Y-95083390D02*
X170676190Y-95035771D01*
X170676190Y-95035771D02*
X170485714Y-95035771D01*
X170485714Y-95035771D02*
X170390476Y-95083390D01*
X170390476Y-95083390D02*
X170342857Y-95131009D01*
X170342857Y-95131009D02*
X170295238Y-95226247D01*
X117745333Y-80839866D02*
X118545333Y-80839866D01*
X118145333Y-82239866D02*
X118145333Y-80839866D01*
X119745333Y-82239866D02*
X118945333Y-82239866D01*
X119345333Y-82239866D02*
X119345333Y-80839866D01*
X119345333Y-80839866D02*
X119212000Y-81039866D01*
X119212000Y-81039866D02*
X119078667Y-81173200D01*
X119078667Y-81173200D02*
X118945333Y-81239866D01*
X106325666Y-52072819D02*
X106325666Y-52787104D01*
X106325666Y-52787104D02*
X106278047Y-52929961D01*
X106278047Y-52929961D02*
X106182809Y-53025200D01*
X106182809Y-53025200D02*
X106039952Y-53072819D01*
X106039952Y-53072819D02*
X105944714Y-53072819D01*
X107325666Y-53072819D02*
X106754238Y-53072819D01*
X107039952Y-53072819D02*
X107039952Y-52072819D01*
X107039952Y-52072819D02*
X106944714Y-52215676D01*
X106944714Y-52215676D02*
X106849476Y-52310914D01*
X106849476Y-52310914D02*
X106754238Y-52358533D01*
X174269666Y-52072819D02*
X174269666Y-52787104D01*
X174269666Y-52787104D02*
X174222047Y-52929961D01*
X174222047Y-52929961D02*
X174126809Y-53025200D01*
X174126809Y-53025200D02*
X173983952Y-53072819D01*
X173983952Y-53072819D02*
X173888714Y-53072819D01*
X174698238Y-52168057D02*
X174745857Y-52120438D01*
X174745857Y-52120438D02*
X174841095Y-52072819D01*
X174841095Y-52072819D02*
X175079190Y-52072819D01*
X175079190Y-52072819D02*
X175174428Y-52120438D01*
X175174428Y-52120438D02*
X175222047Y-52168057D01*
X175222047Y-52168057D02*
X175269666Y-52263295D01*
X175269666Y-52263295D02*
X175269666Y-52358533D01*
X175269666Y-52358533D02*
X175222047Y-52501390D01*
X175222047Y-52501390D02*
X174650619Y-53072819D01*
X174650619Y-53072819D02*
X175269666Y-53072819D01*
X174310476Y-101354819D02*
X174310476Y-102069104D01*
X174310476Y-102069104D02*
X174262857Y-102211961D01*
X174262857Y-102211961D02*
X174167619Y-102307200D01*
X174167619Y-102307200D02*
X174024762Y-102354819D01*
X174024762Y-102354819D02*
X173929524Y-102354819D01*
X175310476Y-102354819D02*
X174739048Y-102354819D01*
X175024762Y-102354819D02*
X175024762Y-101354819D01*
X175024762Y-101354819D02*
X174929524Y-101497676D01*
X174929524Y-101497676D02*
X174834286Y-101592914D01*
X174834286Y-101592914D02*
X174739048Y-101640533D01*
X176167619Y-101354819D02*
X175977143Y-101354819D01*
X175977143Y-101354819D02*
X175881905Y-101402438D01*
X175881905Y-101402438D02*
X175834286Y-101450057D01*
X175834286Y-101450057D02*
X175739048Y-101592914D01*
X175739048Y-101592914D02*
X175691429Y-101783390D01*
X175691429Y-101783390D02*
X175691429Y-102164342D01*
X175691429Y-102164342D02*
X175739048Y-102259580D01*
X175739048Y-102259580D02*
X175786667Y-102307200D01*
X175786667Y-102307200D02*
X175881905Y-102354819D01*
X175881905Y-102354819D02*
X176072381Y-102354819D01*
X176072381Y-102354819D02*
X176167619Y-102307200D01*
X176167619Y-102307200D02*
X176215238Y-102259580D01*
X176215238Y-102259580D02*
X176262857Y-102164342D01*
X176262857Y-102164342D02*
X176262857Y-101926247D01*
X176262857Y-101926247D02*
X176215238Y-101831009D01*
X176215238Y-101831009D02*
X176167619Y-101783390D01*
X176167619Y-101783390D02*
X176072381Y-101735771D01*
X176072381Y-101735771D02*
X175881905Y-101735771D01*
X175881905Y-101735771D02*
X175786667Y-101783390D01*
X175786667Y-101783390D02*
X175739048Y-101831009D01*
X175739048Y-101831009D02*
X175691429Y-101926247D01*
X169390476Y-101354819D02*
X169390476Y-102069104D01*
X169390476Y-102069104D02*
X169342857Y-102211961D01*
X169342857Y-102211961D02*
X169247619Y-102307200D01*
X169247619Y-102307200D02*
X169104762Y-102354819D01*
X169104762Y-102354819D02*
X169009524Y-102354819D01*
X170390476Y-102354819D02*
X169819048Y-102354819D01*
X170104762Y-102354819D02*
X170104762Y-101354819D01*
X170104762Y-101354819D02*
X170009524Y-101497676D01*
X170009524Y-101497676D02*
X169914286Y-101592914D01*
X169914286Y-101592914D02*
X169819048Y-101640533D01*
X170723810Y-101354819D02*
X171342857Y-101354819D01*
X171342857Y-101354819D02*
X171009524Y-101735771D01*
X171009524Y-101735771D02*
X171152381Y-101735771D01*
X171152381Y-101735771D02*
X171247619Y-101783390D01*
X171247619Y-101783390D02*
X171295238Y-101831009D01*
X171295238Y-101831009D02*
X171342857Y-101926247D01*
X171342857Y-101926247D02*
X171342857Y-102164342D01*
X171342857Y-102164342D02*
X171295238Y-102259580D01*
X171295238Y-102259580D02*
X171247619Y-102307200D01*
X171247619Y-102307200D02*
X171152381Y-102354819D01*
X171152381Y-102354819D02*
X170866667Y-102354819D01*
X170866667Y-102354819D02*
X170771429Y-102307200D01*
X170771429Y-102307200D02*
X170723810Y-102259580D01*
X169990476Y-87304819D02*
X169990476Y-88019104D01*
X169990476Y-88019104D02*
X169942857Y-88161961D01*
X169942857Y-88161961D02*
X169847619Y-88257200D01*
X169847619Y-88257200D02*
X169704762Y-88304819D01*
X169704762Y-88304819D02*
X169609524Y-88304819D01*
X170990476Y-88304819D02*
X170419048Y-88304819D01*
X170704762Y-88304819D02*
X170704762Y-87304819D01*
X170704762Y-87304819D02*
X170609524Y-87447676D01*
X170609524Y-87447676D02*
X170514286Y-87542914D01*
X170514286Y-87542914D02*
X170419048Y-87590533D01*
X171371429Y-87400057D02*
X171419048Y-87352438D01*
X171419048Y-87352438D02*
X171514286Y-87304819D01*
X171514286Y-87304819D02*
X171752381Y-87304819D01*
X171752381Y-87304819D02*
X171847619Y-87352438D01*
X171847619Y-87352438D02*
X171895238Y-87400057D01*
X171895238Y-87400057D02*
X171942857Y-87495295D01*
X171942857Y-87495295D02*
X171942857Y-87590533D01*
X171942857Y-87590533D02*
X171895238Y-87733390D01*
X171895238Y-87733390D02*
X171323810Y-88304819D01*
X171323810Y-88304819D02*
X171942857Y-88304819D01*
X176190476Y-94654819D02*
X176190476Y-95369104D01*
X176190476Y-95369104D02*
X176142857Y-95511961D01*
X176142857Y-95511961D02*
X176047619Y-95607200D01*
X176047619Y-95607200D02*
X175904762Y-95654819D01*
X175904762Y-95654819D02*
X175809524Y-95654819D01*
X177190476Y-95654819D02*
X176619048Y-95654819D01*
X176904762Y-95654819D02*
X176904762Y-94654819D01*
X176904762Y-94654819D02*
X176809524Y-94797676D01*
X176809524Y-94797676D02*
X176714286Y-94892914D01*
X176714286Y-94892914D02*
X176619048Y-94940533D01*
X178095238Y-94654819D02*
X177619048Y-94654819D01*
X177619048Y-94654819D02*
X177571429Y-95131009D01*
X177571429Y-95131009D02*
X177619048Y-95083390D01*
X177619048Y-95083390D02*
X177714286Y-95035771D01*
X177714286Y-95035771D02*
X177952381Y-95035771D01*
X177952381Y-95035771D02*
X178047619Y-95083390D01*
X178047619Y-95083390D02*
X178095238Y-95131009D01*
X178095238Y-95131009D02*
X178142857Y-95226247D01*
X178142857Y-95226247D02*
X178142857Y-95464342D01*
X178142857Y-95464342D02*
X178095238Y-95559580D01*
X178095238Y-95559580D02*
X178047619Y-95607200D01*
X178047619Y-95607200D02*
X177952381Y-95654819D01*
X177952381Y-95654819D02*
X177714286Y-95654819D01*
X177714286Y-95654819D02*
X177619048Y-95607200D01*
X177619048Y-95607200D02*
X177571429Y-95559580D01*
X170073809Y-107962295D02*
X170073809Y-108533723D01*
X170073809Y-108533723D02*
X170042856Y-108648009D01*
X170042856Y-108648009D02*
X169980952Y-108724200D01*
X169980952Y-108724200D02*
X169888094Y-108762295D01*
X169888094Y-108762295D02*
X169826190Y-108762295D01*
X170723809Y-108762295D02*
X170352380Y-108762295D01*
X170538094Y-108762295D02*
X170538094Y-107962295D01*
X170538094Y-107962295D02*
X170476190Y-108076580D01*
X170476190Y-108076580D02*
X170414285Y-108152771D01*
X170414285Y-108152771D02*
X170352380Y-108190866D01*
X171342857Y-108762295D02*
X170971428Y-108762295D01*
X171157142Y-108762295D02*
X171157142Y-107962295D01*
X171157142Y-107962295D02*
X171095238Y-108076580D01*
X171095238Y-108076580D02*
X171033333Y-108152771D01*
X171033333Y-108152771D02*
X170971428Y-108190866D01*
X168833333Y-79259580D02*
X168785714Y-79307200D01*
X168785714Y-79307200D02*
X168642857Y-79354819D01*
X168642857Y-79354819D02*
X168547619Y-79354819D01*
X168547619Y-79354819D02*
X168404762Y-79307200D01*
X168404762Y-79307200D02*
X168309524Y-79211961D01*
X168309524Y-79211961D02*
X168261905Y-79116723D01*
X168261905Y-79116723D02*
X168214286Y-78926247D01*
X168214286Y-78926247D02*
X168214286Y-78783390D01*
X168214286Y-78783390D02*
X168261905Y-78592914D01*
X168261905Y-78592914D02*
X168309524Y-78497676D01*
X168309524Y-78497676D02*
X168404762Y-78402438D01*
X168404762Y-78402438D02*
X168547619Y-78354819D01*
X168547619Y-78354819D02*
X168642857Y-78354819D01*
X168642857Y-78354819D02*
X168785714Y-78402438D01*
X168785714Y-78402438D02*
X168833333Y-78450057D01*
X169785714Y-79354819D02*
X169214286Y-79354819D01*
X169500000Y-79354819D02*
X169500000Y-78354819D01*
X169500000Y-78354819D02*
X169404762Y-78497676D01*
X169404762Y-78497676D02*
X169309524Y-78592914D01*
X169309524Y-78592914D02*
X169214286Y-78640533D01*
D11*
X134145238Y-53513595D02*
X134145238Y-54085023D01*
X134145238Y-54085023D02*
X134121429Y-54199309D01*
X134121429Y-54199309D02*
X134073810Y-54275500D01*
X134073810Y-54275500D02*
X134002381Y-54313595D01*
X134002381Y-54313595D02*
X133954762Y-54313595D01*
X134645238Y-54313595D02*
X134359524Y-54313595D01*
X134502381Y-54313595D02*
X134502381Y-53513595D01*
X134502381Y-53513595D02*
X134454762Y-53627880D01*
X134454762Y-53627880D02*
X134407143Y-53704071D01*
X134407143Y-53704071D02*
X134359524Y-53742166D01*
X134954761Y-53513595D02*
X135002380Y-53513595D01*
X135002380Y-53513595D02*
X135049999Y-53551690D01*
X135049999Y-53551690D02*
X135073809Y-53589785D01*
X135073809Y-53589785D02*
X135097618Y-53665976D01*
X135097618Y-53665976D02*
X135121428Y-53818357D01*
X135121428Y-53818357D02*
X135121428Y-54008833D01*
X135121428Y-54008833D02*
X135097618Y-54161214D01*
X135097618Y-54161214D02*
X135073809Y-54237404D01*
X135073809Y-54237404D02*
X135049999Y-54275500D01*
X135049999Y-54275500D02*
X135002380Y-54313595D01*
X135002380Y-54313595D02*
X134954761Y-54313595D01*
X134954761Y-54313595D02*
X134907142Y-54275500D01*
X134907142Y-54275500D02*
X134883333Y-54237404D01*
X134883333Y-54237404D02*
X134859523Y-54161214D01*
X134859523Y-54161214D02*
X134835714Y-54008833D01*
X134835714Y-54008833D02*
X134835714Y-53818357D01*
X134835714Y-53818357D02*
X134859523Y-53665976D01*
X134859523Y-53665976D02*
X134883333Y-53589785D01*
X134883333Y-53589785D02*
X134907142Y-53551690D01*
X134907142Y-53551690D02*
X134954761Y-53513595D01*
D10*
X126416666Y-53862295D02*
X126416666Y-54433723D01*
X126416666Y-54433723D02*
X126369047Y-54548009D01*
X126369047Y-54548009D02*
X126273809Y-54624200D01*
X126273809Y-54624200D02*
X126130952Y-54662295D01*
X126130952Y-54662295D02*
X126035714Y-54662295D01*
X127035714Y-54205152D02*
X126940476Y-54167057D01*
X126940476Y-54167057D02*
X126892857Y-54128961D01*
X126892857Y-54128961D02*
X126845238Y-54052771D01*
X126845238Y-54052771D02*
X126845238Y-54014676D01*
X126845238Y-54014676D02*
X126892857Y-53938485D01*
X126892857Y-53938485D02*
X126940476Y-53900390D01*
X126940476Y-53900390D02*
X127035714Y-53862295D01*
X127035714Y-53862295D02*
X127226190Y-53862295D01*
X127226190Y-53862295D02*
X127321428Y-53900390D01*
X127321428Y-53900390D02*
X127369047Y-53938485D01*
X127369047Y-53938485D02*
X127416666Y-54014676D01*
X127416666Y-54014676D02*
X127416666Y-54052771D01*
X127416666Y-54052771D02*
X127369047Y-54128961D01*
X127369047Y-54128961D02*
X127321428Y-54167057D01*
X127321428Y-54167057D02*
X127226190Y-54205152D01*
X127226190Y-54205152D02*
X127035714Y-54205152D01*
X127035714Y-54205152D02*
X126940476Y-54243247D01*
X126940476Y-54243247D02*
X126892857Y-54281342D01*
X126892857Y-54281342D02*
X126845238Y-54357533D01*
X126845238Y-54357533D02*
X126845238Y-54509914D01*
X126845238Y-54509914D02*
X126892857Y-54586104D01*
X126892857Y-54586104D02*
X126940476Y-54624200D01*
X126940476Y-54624200D02*
X127035714Y-54662295D01*
X127035714Y-54662295D02*
X127226190Y-54662295D01*
X127226190Y-54662295D02*
X127321428Y-54624200D01*
X127321428Y-54624200D02*
X127369047Y-54586104D01*
X127369047Y-54586104D02*
X127416666Y-54509914D01*
X127416666Y-54509914D02*
X127416666Y-54357533D01*
X127416666Y-54357533D02*
X127369047Y-54281342D01*
X127369047Y-54281342D02*
X127321428Y-54243247D01*
X127321428Y-54243247D02*
X127226190Y-54205152D01*
X175983333Y-107962295D02*
X175983333Y-108533723D01*
X175983333Y-108533723D02*
X175952380Y-108648009D01*
X175952380Y-108648009D02*
X175890476Y-108724200D01*
X175890476Y-108724200D02*
X175797618Y-108762295D01*
X175797618Y-108762295D02*
X175735714Y-108762295D01*
X176602380Y-107962295D02*
X176292856Y-107962295D01*
X176292856Y-107962295D02*
X176261904Y-108343247D01*
X176261904Y-108343247D02*
X176292856Y-108305152D01*
X176292856Y-108305152D02*
X176354761Y-108267057D01*
X176354761Y-108267057D02*
X176509523Y-108267057D01*
X176509523Y-108267057D02*
X176571428Y-108305152D01*
X176571428Y-108305152D02*
X176602380Y-108343247D01*
X176602380Y-108343247D02*
X176633333Y-108419438D01*
X176633333Y-108419438D02*
X176633333Y-108609914D01*
X176633333Y-108609914D02*
X176602380Y-108686104D01*
X176602380Y-108686104D02*
X176571428Y-108724200D01*
X176571428Y-108724200D02*
X176509523Y-108762295D01*
X176509523Y-108762295D02*
X176354761Y-108762295D01*
X176354761Y-108762295D02*
X176292856Y-108724200D01*
X176292856Y-108724200D02*
X176261904Y-108686104D01*
D12*
%TO.C,R10*%
X119400000Y-111800000D02*
X120170000Y-111800000D01*
X120170000Y-110430000D02*
X120170000Y-113170000D01*
X120170000Y-113170000D02*
X126710000Y-113170000D01*
X126710000Y-110430000D02*
X120170000Y-110430000D01*
X126710000Y-113170000D02*
X126710000Y-110430000D01*
X127480000Y-111800000D02*
X126710000Y-111800000D01*
%TO.C,RV1*%
X136830000Y-91105000D02*
X143370000Y-91105000D01*
X136830000Y-93800000D02*
X136830000Y-91105000D01*
X138666000Y-94846000D02*
X141535000Y-94846000D01*
X138980000Y-91105000D02*
X141220000Y-91105000D01*
X138980000Y-94846000D02*
X138980000Y-91105000D01*
X138980000Y-94846000D02*
X141220000Y-94846000D01*
X141220000Y-94846000D02*
X141220000Y-91105000D01*
X143370000Y-93800000D02*
X143370000Y-91105000D01*
%TO.C,R2*%
X104200000Y-112200000D02*
X104970000Y-112200000D01*
X104970000Y-110830000D02*
X104970000Y-113570000D01*
X104970000Y-113570000D02*
X111510000Y-113570000D01*
X111510000Y-110830000D02*
X104970000Y-110830000D01*
X111510000Y-113570000D02*
X111510000Y-110830000D01*
X112280000Y-112200000D02*
X111510000Y-112200000D01*
%TO.C,C4*%
X157850000Y-100030000D02*
X157850000Y-100345000D01*
X157850000Y-100030000D02*
X162790000Y-100030000D01*
X157850000Y-102455000D02*
X157850000Y-102770000D01*
X157850000Y-102770000D02*
X162790000Y-102770000D01*
X162790000Y-100030000D02*
X162790000Y-100345000D01*
X162790000Y-102455000D02*
X162790000Y-102770000D01*
%TO.C,R7*%
X119400000Y-115300000D02*
X120170000Y-115300000D01*
X120170000Y-113930000D02*
X120170000Y-116670000D01*
X120170000Y-116670000D02*
X126710000Y-116670000D01*
X126710000Y-113930000D02*
X120170000Y-113930000D01*
X126710000Y-116670000D02*
X126710000Y-113930000D01*
X127480000Y-115300000D02*
X126710000Y-115300000D01*
%TO.C,C12*%
X144330000Y-127230000D02*
X144330000Y-127545000D01*
X144330000Y-127230000D02*
X149270000Y-127230000D01*
X144330000Y-129655000D02*
X144330000Y-129970000D01*
X144330000Y-129970000D02*
X149270000Y-129970000D01*
X149270000Y-127230000D02*
X149270000Y-127545000D01*
X149270000Y-129655000D02*
X149270000Y-129970000D01*
%TO.C,U4*%
X132940000Y-119070000D02*
X132940000Y-129350000D01*
X132940000Y-129350000D02*
X134590000Y-129350000D01*
X136590000Y-129350000D02*
X138240000Y-129350000D01*
X138240000Y-119070000D02*
X132940000Y-119070000D01*
X138240000Y-129350000D02*
X138240000Y-119070000D01*
X134590000Y-129350000D02*
G75*
G02*
X136590000Y-129350000I1000000J0D01*
G01*
%TO.C,C8*%
X131200000Y-109070000D02*
X131200000Y-103330000D01*
X138640000Y-103330000D02*
X131200000Y-103330000D01*
X138640000Y-109070000D02*
X131200000Y-109070000D01*
X138640000Y-109070000D02*
X138640000Y-103330000D01*
D13*
%TO.C,T1*%
X104002600Y-63707600D02*
X104002600Y-70053500D01*
X104002600Y-63707600D02*
X133009400Y-63707600D01*
X104002600Y-93353500D02*
X104002600Y-99699400D01*
X133009400Y-63707600D02*
X133009400Y-70053500D01*
X133009400Y-93353500D02*
X133009400Y-99699400D01*
X133009400Y-99699400D02*
X104002600Y-99699400D01*
D14*
X100979000Y-71689500D02*
G75*
G02*
X100379000Y-71689500I-300000J0D01*
G01*
X100379000Y-71689500D02*
G75*
G02*
X100979000Y-71689500I300000J0D01*
G01*
D12*
%TO.C,RV2*%
X136930000Y-96705000D02*
X143470000Y-96705000D01*
X136930000Y-99400000D02*
X136930000Y-96705000D01*
X138766000Y-100446000D02*
X141635000Y-100446000D01*
X139080000Y-96705000D02*
X141320000Y-96705000D01*
X139080000Y-100446000D02*
X139080000Y-96705000D01*
X139080000Y-100446000D02*
X141320000Y-100446000D01*
X141320000Y-100446000D02*
X141320000Y-96705000D01*
X143470000Y-99400000D02*
X143470000Y-96705000D01*
D13*
%TO.C,T2*%
X138900000Y-67550000D02*
X162900000Y-67550000D01*
X138900000Y-89050000D02*
X138900000Y-67550000D01*
X162900000Y-67550000D02*
X162900000Y-89050000D01*
X162900000Y-89050000D02*
X138900000Y-89050000D01*
D15*
X137882841Y-71500000D02*
G75*
G02*
X137317159Y-71500000I-282841J0D01*
G01*
X137317159Y-71500000D02*
G75*
G02*
X137882841Y-71500000I282841J0D01*
G01*
D12*
%TO.C,R6*%
X119370000Y-108000000D02*
X120140000Y-108000000D01*
X120140000Y-106630000D02*
X120140000Y-109370000D01*
X120140000Y-109370000D02*
X126680000Y-109370000D01*
X126680000Y-106630000D02*
X120140000Y-106630000D01*
X126680000Y-109370000D02*
X126680000Y-106630000D01*
X127450000Y-108000000D02*
X126680000Y-108000000D01*
%TO.C,C5*%
X157950000Y-104430000D02*
X157950000Y-104745000D01*
X157950000Y-104430000D02*
X162890000Y-104430000D01*
X157950000Y-106855000D02*
X157950000Y-107170000D01*
X157950000Y-107170000D02*
X162890000Y-107170000D01*
X162890000Y-104430000D02*
X162890000Y-104745000D01*
X162890000Y-106855000D02*
X162890000Y-107170000D01*
%TO.C,R11*%
X145200000Y-120000000D02*
X145970000Y-120000000D01*
X145970000Y-118630000D02*
X145970000Y-121370000D01*
X145970000Y-121370000D02*
X152510000Y-121370000D01*
X152510000Y-118630000D02*
X145970000Y-118630000D01*
X152510000Y-121370000D02*
X152510000Y-118630000D01*
X153280000Y-120000000D02*
X152510000Y-120000000D01*
%TO.C,F1*%
X161860000Y-57700000D02*
X161860000Y-57700000D01*
D16*
X136860000Y-51600000D02*
X160860000Y-51600000D01*
X160860000Y-57600000D01*
X136860000Y-57600000D01*
X136860000Y-51600000D01*
D12*
%TO.C,C14*%
X156800000Y-123270000D02*
X156800000Y-117530000D01*
X164240000Y-117530000D02*
X156800000Y-117530000D01*
X164240000Y-123270000D02*
X156800000Y-123270000D01*
X164240000Y-123270000D02*
X164240000Y-117530000D01*
%TO.C,D2*%
X119180000Y-127950000D02*
X120400000Y-127950000D01*
X120400000Y-126480000D02*
X120400000Y-129420000D01*
X120400000Y-129420000D02*
X125840000Y-129420000D01*
X124820000Y-129420000D02*
X124820000Y-126480000D01*
X124940000Y-129420000D02*
X124940000Y-126480000D01*
X125060000Y-129420000D02*
X125060000Y-126480000D01*
X125840000Y-126480000D02*
X120400000Y-126480000D01*
X125840000Y-129420000D02*
X125840000Y-126480000D01*
X127060000Y-127950000D02*
X125840000Y-127950000D01*
%TO.C,R13*%
X145280000Y-111000000D02*
X146050000Y-111000000D01*
X146050000Y-109630000D02*
X146050000Y-112370000D01*
X146050000Y-112370000D02*
X152590000Y-112370000D01*
X152590000Y-109630000D02*
X146050000Y-109630000D01*
X152590000Y-112370000D02*
X152590000Y-109630000D01*
X153360000Y-111000000D02*
X152590000Y-111000000D01*
%TO.C,C3*%
X157850000Y-95430000D02*
X157850000Y-95745000D01*
X157850000Y-95430000D02*
X162790000Y-95430000D01*
X157850000Y-97855000D02*
X157850000Y-98170000D01*
X157850000Y-98170000D02*
X162790000Y-98170000D01*
X162790000Y-95430000D02*
X162790000Y-95745000D01*
X162790000Y-97855000D02*
X162790000Y-98170000D01*
%TO.C,C13*%
X151630000Y-123930000D02*
X151630000Y-128870000D01*
X151945000Y-123930000D02*
X151630000Y-123930000D01*
X151945000Y-128870000D02*
X151630000Y-128870000D01*
X154370000Y-123930000D02*
X154055000Y-123930000D01*
X154370000Y-123930000D02*
X154370000Y-128870000D01*
X154370000Y-128870000D02*
X154055000Y-128870000D01*
%TO.C,R12*%
X145280000Y-107000000D02*
X146050000Y-107000000D01*
X146050000Y-105630000D02*
X146050000Y-108370000D01*
X146050000Y-108370000D02*
X152590000Y-108370000D01*
X152590000Y-105630000D02*
X146050000Y-105630000D01*
X152590000Y-108370000D02*
X152590000Y-105630000D01*
X153360000Y-107000000D02*
X152590000Y-107000000D01*
%TO.C,C9*%
X131300000Y-116670000D02*
X131300000Y-110930000D01*
X138740000Y-110930000D02*
X131300000Y-110930000D01*
X138740000Y-116670000D02*
X131300000Y-116670000D01*
X138740000Y-116670000D02*
X138740000Y-110930000D01*
%TO.C,D1*%
X166596000Y-66939000D02*
X166596000Y-72781000D01*
X167739000Y-65796000D02*
G75*
G02*
X166596000Y-72781000I2921000J-4064000D01*
G01*
%TO.C,D3*%
X119180000Y-132200000D02*
X120400000Y-132200000D01*
X120400000Y-130730000D02*
X120400000Y-133670000D01*
X120400000Y-133670000D02*
X125840000Y-133670000D01*
X124820000Y-133670000D02*
X124820000Y-130730000D01*
X124940000Y-133670000D02*
X124940000Y-130730000D01*
X125060000Y-133670000D02*
X125060000Y-130730000D01*
X125840000Y-130730000D02*
X120400000Y-130730000D01*
X125840000Y-133670000D02*
X125840000Y-130730000D01*
X127060000Y-132200000D02*
X125840000Y-132200000D01*
%TO.C,C10*%
X144330000Y-123030000D02*
X144330000Y-123345000D01*
X144330000Y-123030000D02*
X149270000Y-123030000D01*
X144330000Y-125455000D02*
X144330000Y-125770000D01*
X144330000Y-125770000D02*
X149270000Y-125770000D01*
X149270000Y-123030000D02*
X149270000Y-123345000D01*
X149270000Y-125455000D02*
X149270000Y-125770000D01*
%TO.C,U2*%
X144860000Y-98130000D02*
X144860000Y-102771000D01*
X144860000Y-98130000D02*
X155100000Y-98130000D01*
X144860000Y-99640000D02*
X155100000Y-99640000D01*
X144860000Y-102771000D02*
X155100000Y-102771000D01*
X148130000Y-98130000D02*
X148130000Y-99640000D01*
X151831000Y-98130000D02*
X151831000Y-99640000D01*
X155100000Y-98130000D02*
X155100000Y-102771000D01*
%TO.C,R14*%
X104260000Y-124600000D02*
X105030000Y-124600000D01*
X105030000Y-123230000D02*
X105030000Y-125970000D01*
X105030000Y-125970000D02*
X111570000Y-125970000D01*
X111570000Y-123230000D02*
X105030000Y-123230000D01*
X111570000Y-125970000D02*
X111570000Y-123230000D01*
X112340000Y-124600000D02*
X111570000Y-124600000D01*
%TO.C,C15*%
X156900000Y-125130000D02*
X156900000Y-130870000D01*
X156900000Y-125130000D02*
X164340000Y-125130000D01*
X156900000Y-130870000D02*
X164340000Y-130870000D01*
X164340000Y-125130000D02*
X164340000Y-130870000D01*
%TO.C,R5*%
X104200000Y-120000000D02*
X104970000Y-120000000D01*
X104970000Y-118630000D02*
X104970000Y-121370000D01*
X104970000Y-121370000D02*
X111510000Y-121370000D01*
X111510000Y-118630000D02*
X104970000Y-118630000D01*
X111510000Y-121370000D02*
X111510000Y-118630000D01*
X112280000Y-120000000D02*
X111510000Y-120000000D01*
%TO.C,R4*%
X104120000Y-108250000D02*
X104890000Y-108250000D01*
X104890000Y-106880000D02*
X104890000Y-109620000D01*
X104890000Y-109620000D02*
X111430000Y-109620000D01*
X111430000Y-106880000D02*
X104890000Y-106880000D01*
X111430000Y-109620000D02*
X111430000Y-106880000D01*
X112200000Y-108250000D02*
X111430000Y-108250000D01*
%TO.C,C2*%
X157850000Y-91030000D02*
X157850000Y-91345000D01*
X157850000Y-91030000D02*
X162790000Y-91030000D01*
X157850000Y-93455000D02*
X157850000Y-93770000D01*
X157850000Y-93770000D02*
X162790000Y-93770000D01*
X162790000Y-91030000D02*
X162790000Y-91345000D01*
X162790000Y-93455000D02*
X162790000Y-93770000D01*
%TO.C,R8*%
X145200000Y-115500000D02*
X145970000Y-115500000D01*
X145970000Y-114130000D02*
X145970000Y-116870000D01*
X145970000Y-116870000D02*
X152510000Y-116870000D01*
X152510000Y-114130000D02*
X145970000Y-114130000D01*
X152510000Y-116870000D02*
X152510000Y-114130000D01*
X153280000Y-115500000D02*
X152510000Y-115500000D01*
%TO.C,C11*%
X156650000Y-109030000D02*
X156650000Y-115770000D01*
X156650000Y-109030000D02*
X164390000Y-109030000D01*
X156650000Y-115770000D02*
X164390000Y-115770000D01*
X164390000Y-109030000D02*
X164390000Y-115770000D01*
%TO.C,R9*%
X119360000Y-120400000D02*
X120130000Y-120400000D01*
X120130000Y-119030000D02*
X120130000Y-121770000D01*
X120130000Y-121770000D02*
X126670000Y-121770000D01*
X126670000Y-119030000D02*
X120130000Y-119030000D01*
X126670000Y-121770000D02*
X126670000Y-119030000D01*
X127440000Y-120400000D02*
X126670000Y-120400000D01*
%TO.C,C1*%
X165020354Y-78525000D02*
X166020354Y-78525000D01*
X165520354Y-78025000D02*
X165520354Y-79025000D01*
X170500000Y-76320000D02*
X170500000Y-86480000D01*
X170540000Y-76320000D02*
X170540000Y-86480000D01*
X170580000Y-76320000D02*
X170580000Y-86480000D01*
X170620000Y-76321000D02*
X170620000Y-86479000D01*
X170660000Y-76322000D02*
X170660000Y-86478000D01*
X170700000Y-76323000D02*
X170700000Y-86477000D01*
X170740000Y-76325000D02*
X170740000Y-86475000D01*
X170780000Y-76327000D02*
X170780000Y-86473000D01*
X170820000Y-76330000D02*
X170820000Y-86470000D01*
X170860000Y-76332000D02*
X170860000Y-86468000D01*
X170900000Y-76335000D02*
X170900000Y-86465000D01*
X170940000Y-76338000D02*
X170940000Y-86462000D01*
X170980000Y-76342000D02*
X170980000Y-86458000D01*
X171020000Y-76346000D02*
X171020000Y-86454000D01*
X171060000Y-76350000D02*
X171060000Y-86450000D01*
X171100000Y-76355000D02*
X171100000Y-86445000D01*
X171140000Y-76360000D02*
X171140000Y-86440000D01*
X171180000Y-76365000D02*
X171180000Y-86435000D01*
X171221000Y-76370000D02*
X171221000Y-86430000D01*
X171261000Y-76376000D02*
X171261000Y-86424000D01*
X171301000Y-76382000D02*
X171301000Y-86418000D01*
X171341000Y-76389000D02*
X171341000Y-86411000D01*
X171381000Y-76396000D02*
X171381000Y-86404000D01*
X171421000Y-76403000D02*
X171421000Y-86397000D01*
X171461000Y-76410000D02*
X171461000Y-86390000D01*
X171501000Y-76418000D02*
X171501000Y-86382000D01*
X171541000Y-76426000D02*
X171541000Y-86374000D01*
X171581000Y-76435000D02*
X171581000Y-86365000D01*
X171621000Y-76444000D02*
X171621000Y-86356000D01*
X171661000Y-76453000D02*
X171661000Y-86347000D01*
X171701000Y-76462000D02*
X171701000Y-86338000D01*
X171741000Y-76472000D02*
X171741000Y-86328000D01*
X171781000Y-76482000D02*
X171781000Y-80159000D01*
X171781000Y-82641000D02*
X171781000Y-86318000D01*
X171821000Y-76493000D02*
X171821000Y-80159000D01*
X171821000Y-82641000D02*
X171821000Y-86307000D01*
X171861000Y-76503000D02*
X171861000Y-80159000D01*
X171861000Y-82641000D02*
X171861000Y-86297000D01*
X171901000Y-76515000D02*
X171901000Y-80159000D01*
X171901000Y-82641000D02*
X171901000Y-86285000D01*
X171941000Y-76526000D02*
X171941000Y-80159000D01*
X171941000Y-82641000D02*
X171941000Y-86274000D01*
X171981000Y-76538000D02*
X171981000Y-80159000D01*
X171981000Y-82641000D02*
X171981000Y-86262000D01*
X172021000Y-76550000D02*
X172021000Y-80159000D01*
X172021000Y-82641000D02*
X172021000Y-86250000D01*
X172061000Y-76563000D02*
X172061000Y-80159000D01*
X172061000Y-82641000D02*
X172061000Y-86237000D01*
X172101000Y-76576000D02*
X172101000Y-80159000D01*
X172101000Y-82641000D02*
X172101000Y-86224000D01*
X172141000Y-76589000D02*
X172141000Y-80159000D01*
X172141000Y-82641000D02*
X172141000Y-86211000D01*
X172181000Y-76603000D02*
X172181000Y-80159000D01*
X172181000Y-82641000D02*
X172181000Y-86197000D01*
X172221000Y-76617000D02*
X172221000Y-80159000D01*
X172221000Y-82641000D02*
X172221000Y-86183000D01*
X172261000Y-76632000D02*
X172261000Y-80159000D01*
X172261000Y-82641000D02*
X172261000Y-86168000D01*
X172301000Y-76646000D02*
X172301000Y-80159000D01*
X172301000Y-82641000D02*
X172301000Y-86154000D01*
X172341000Y-76662000D02*
X172341000Y-80159000D01*
X172341000Y-82641000D02*
X172341000Y-86138000D01*
X172381000Y-76677000D02*
X172381000Y-80159000D01*
X172381000Y-82641000D02*
X172381000Y-86123000D01*
X172421000Y-76693000D02*
X172421000Y-80159000D01*
X172421000Y-82641000D02*
X172421000Y-86107000D01*
X172461000Y-76710000D02*
X172461000Y-80159000D01*
X172461000Y-82641000D02*
X172461000Y-86090000D01*
X172501000Y-76726000D02*
X172501000Y-80159000D01*
X172501000Y-82641000D02*
X172501000Y-86074000D01*
X172541000Y-76743000D02*
X172541000Y-80159000D01*
X172541000Y-82641000D02*
X172541000Y-86057000D01*
X172581000Y-76761000D02*
X172581000Y-80159000D01*
X172581000Y-82641000D02*
X172581000Y-86039000D01*
X172621000Y-76779000D02*
X172621000Y-80159000D01*
X172621000Y-82641000D02*
X172621000Y-86021000D01*
X172661000Y-76797000D02*
X172661000Y-80159000D01*
X172661000Y-82641000D02*
X172661000Y-86003000D01*
X172701000Y-76816000D02*
X172701000Y-80159000D01*
X172701000Y-82641000D02*
X172701000Y-85984000D01*
X172741000Y-76836000D02*
X172741000Y-80159000D01*
X172741000Y-82641000D02*
X172741000Y-85964000D01*
X172781000Y-76855000D02*
X172781000Y-80159000D01*
X172781000Y-82641000D02*
X172781000Y-85945000D01*
X172821000Y-76875000D02*
X172821000Y-80159000D01*
X172821000Y-82641000D02*
X172821000Y-85925000D01*
X172861000Y-76896000D02*
X172861000Y-80159000D01*
X172861000Y-82641000D02*
X172861000Y-85904000D01*
X172901000Y-76917000D02*
X172901000Y-80159000D01*
X172901000Y-82641000D02*
X172901000Y-85883000D01*
X172941000Y-76938000D02*
X172941000Y-80159000D01*
X172941000Y-82641000D02*
X172941000Y-85862000D01*
X172981000Y-76960000D02*
X172981000Y-80159000D01*
X172981000Y-82641000D02*
X172981000Y-85840000D01*
X173021000Y-76983000D02*
X173021000Y-80159000D01*
X173021000Y-82641000D02*
X173021000Y-85817000D01*
X173061000Y-77005000D02*
X173061000Y-80159000D01*
X173061000Y-82641000D02*
X173061000Y-85795000D01*
X173101000Y-77029000D02*
X173101000Y-80159000D01*
X173101000Y-82641000D02*
X173101000Y-85771000D01*
X173141000Y-77053000D02*
X173141000Y-80159000D01*
X173141000Y-82641000D02*
X173141000Y-85747000D01*
X173181000Y-77077000D02*
X173181000Y-80159000D01*
X173181000Y-82641000D02*
X173181000Y-85723000D01*
X173221000Y-77102000D02*
X173221000Y-80159000D01*
X173221000Y-82641000D02*
X173221000Y-85698000D01*
X173261000Y-77127000D02*
X173261000Y-80159000D01*
X173261000Y-82641000D02*
X173261000Y-85673000D01*
X173301000Y-77153000D02*
X173301000Y-80159000D01*
X173301000Y-82641000D02*
X173301000Y-85647000D01*
X173341000Y-77179000D02*
X173341000Y-80159000D01*
X173341000Y-82641000D02*
X173341000Y-85621000D01*
X173381000Y-77206000D02*
X173381000Y-80159000D01*
X173381000Y-82641000D02*
X173381000Y-85594000D01*
X173421000Y-77234000D02*
X173421000Y-80159000D01*
X173421000Y-82641000D02*
X173421000Y-85566000D01*
X173461000Y-77262000D02*
X173461000Y-80159000D01*
X173461000Y-82641000D02*
X173461000Y-85538000D01*
X173501000Y-77290000D02*
X173501000Y-80159000D01*
X173501000Y-82641000D02*
X173501000Y-85510000D01*
X173541000Y-77320000D02*
X173541000Y-80159000D01*
X173541000Y-82641000D02*
X173541000Y-85480000D01*
X173581000Y-77350000D02*
X173581000Y-80159000D01*
X173581000Y-82641000D02*
X173581000Y-85450000D01*
X173621000Y-77380000D02*
X173621000Y-80159000D01*
X173621000Y-82641000D02*
X173621000Y-85420000D01*
X173661000Y-77411000D02*
X173661000Y-80159000D01*
X173661000Y-82641000D02*
X173661000Y-85389000D01*
X173701000Y-77443000D02*
X173701000Y-80159000D01*
X173701000Y-82641000D02*
X173701000Y-85357000D01*
X173741000Y-77475000D02*
X173741000Y-80159000D01*
X173741000Y-82641000D02*
X173741000Y-85325000D01*
X173781000Y-77508000D02*
X173781000Y-80159000D01*
X173781000Y-82641000D02*
X173781000Y-85292000D01*
X173821000Y-77542000D02*
X173821000Y-80159000D01*
X173821000Y-82641000D02*
X173821000Y-85258000D01*
X173861000Y-77576000D02*
X173861000Y-80159000D01*
X173861000Y-82641000D02*
X173861000Y-85224000D01*
X173901000Y-77611000D02*
X173901000Y-80159000D01*
X173901000Y-82641000D02*
X173901000Y-85189000D01*
X173941000Y-77647000D02*
X173941000Y-80159000D01*
X173941000Y-82641000D02*
X173941000Y-85153000D01*
X173981000Y-77684000D02*
X173981000Y-80159000D01*
X173981000Y-82641000D02*
X173981000Y-85116000D01*
X174021000Y-77721000D02*
X174021000Y-80159000D01*
X174021000Y-82641000D02*
X174021000Y-85079000D01*
X174061000Y-77760000D02*
X174061000Y-80159000D01*
X174061000Y-82641000D02*
X174061000Y-85040000D01*
X174101000Y-77799000D02*
X174101000Y-80159000D01*
X174101000Y-82641000D02*
X174101000Y-85001000D01*
X174141000Y-77839000D02*
X174141000Y-80159000D01*
X174141000Y-82641000D02*
X174141000Y-84961000D01*
X174181000Y-77880000D02*
X174181000Y-80159000D01*
X174181000Y-82641000D02*
X174181000Y-84920000D01*
X174221000Y-77922000D02*
X174221000Y-80159000D01*
X174221000Y-82641000D02*
X174221000Y-84878000D01*
X174261000Y-77964000D02*
X174261000Y-84836000D01*
X174301000Y-78008000D02*
X174301000Y-84792000D01*
X174341000Y-78053000D02*
X174341000Y-84747000D01*
X174381000Y-78099000D02*
X174381000Y-84701000D01*
X174421000Y-78146000D02*
X174421000Y-84654000D01*
X174461000Y-78194000D02*
X174461000Y-84606000D01*
X174501000Y-78244000D02*
X174501000Y-84556000D01*
X174541000Y-78294000D02*
X174541000Y-84506000D01*
X174581000Y-78346000D02*
X174581000Y-84454000D01*
X174621000Y-78400000D02*
X174621000Y-84400000D01*
X174661000Y-78455000D02*
X174661000Y-84345000D01*
X174701000Y-78511000D02*
X174701000Y-84289000D01*
X174741000Y-78570000D02*
X174741000Y-84230000D01*
X174781000Y-78630000D02*
X174781000Y-84170000D01*
X174821000Y-78691000D02*
X174821000Y-84109000D01*
X174861000Y-78755000D02*
X174861000Y-84045000D01*
X174901000Y-78821000D02*
X174901000Y-83979000D01*
X174941000Y-78890000D02*
X174941000Y-83910000D01*
X174981000Y-78961000D02*
X174981000Y-83839000D01*
X175021000Y-79035000D02*
X175021000Y-83765000D01*
X175061000Y-79111000D02*
X175061000Y-83689000D01*
X175101000Y-79191000D02*
X175101000Y-83609000D01*
X175141000Y-79275000D02*
X175141000Y-83525000D01*
X175181000Y-79363000D02*
X175181000Y-83437000D01*
X175221000Y-79456000D02*
X175221000Y-83344000D01*
X175261000Y-79554000D02*
X175261000Y-83246000D01*
X175301000Y-79658000D02*
X175301000Y-83142000D01*
X175341000Y-79770000D02*
X175341000Y-83030000D01*
X175381000Y-79890000D02*
X175381000Y-82910000D01*
X175421000Y-80022000D02*
X175421000Y-82778000D01*
X175461000Y-80170000D02*
X175461000Y-82630000D01*
X175501000Y-80338000D02*
X175501000Y-82462000D01*
X175541000Y-80538000D02*
X175541000Y-82262000D01*
X175581000Y-80801000D02*
X175581000Y-81999000D01*
X175620000Y-81400000D02*
G75*
G02*
X165380000Y-81400000I-5120000J0D01*
G01*
X165380000Y-81400000D02*
G75*
G02*
X175620000Y-81400000I5120000J0D01*
G01*
%TO.C,U1*%
X144920000Y-95725000D02*
X144920000Y-91084000D01*
X148189000Y-95725000D02*
X148189000Y-94215000D01*
X151890000Y-95725000D02*
X151890000Y-94215000D01*
X155160000Y-91084000D02*
X144920000Y-91084000D01*
X155160000Y-94215000D02*
X144920000Y-94215000D01*
X155160000Y-95725000D02*
X144920000Y-95725000D01*
X155160000Y-95725000D02*
X155160000Y-91084000D01*
%TO.C,R3*%
X104200000Y-116250000D02*
X104970000Y-116250000D01*
X104970000Y-114880000D02*
X104970000Y-117620000D01*
X104970000Y-117620000D02*
X111510000Y-117620000D01*
X111510000Y-114880000D02*
X104970000Y-114880000D01*
X111510000Y-117620000D02*
X111510000Y-114880000D01*
X112280000Y-116250000D02*
X111510000Y-116250000D01*
%TO.C,R15*%
X104200000Y-104250000D02*
X104970000Y-104250000D01*
X104970000Y-102880000D02*
X104970000Y-105620000D01*
X104970000Y-105620000D02*
X111510000Y-105620000D01*
X111510000Y-102880000D02*
X104970000Y-102880000D01*
X111510000Y-105620000D02*
X111510000Y-102880000D01*
X112280000Y-104250000D02*
X111510000Y-104250000D01*
%TO.C,R1*%
X119370000Y-104250000D02*
X120140000Y-104250000D01*
X120140000Y-102880000D02*
X120140000Y-105620000D01*
X120140000Y-105620000D02*
X126680000Y-105620000D01*
X126680000Y-102880000D02*
X120140000Y-102880000D01*
X126680000Y-105620000D02*
X126680000Y-102880000D01*
X127450000Y-104250000D02*
X126680000Y-104250000D01*
%TD*%
M02*
