%TF.GenerationSoftware,KiCad,Pcbnew,8.0.6*%
%TF.CreationDate,2025-03-04T10:23:17-08:00*%
%TF.ProjectId,Final_Board-Analog-v2,46696e61-6c5f-4426-9f61-72642d416e61,rev?*%
%TF.SameCoordinates,Original*%
%TF.FileFunction,Copper,L2,Bot*%
%TF.FilePolarity,Positive*%
%FSLAX46Y46*%
G04 Gerber Fmt 4.6, Leading zero omitted, Abs format (unit mm)*
G04 Created by KiCad (PCBNEW 8.0.6) date 2025-03-04 10:23:17*
%MOMM*%
%LPD*%
G01*
G04 APERTURE LIST*
G04 Aperture macros list*
%AMRoundRect*
0 Rectangle with rounded corners*
0 $1 Rounding radius*
0 $2 $3 $4 $5 $6 $7 $8 $9 X,Y pos of 4 corners*
0 Add a 4 corners polygon primitive as box body*
4,1,4,$2,$3,$4,$5,$6,$7,$8,$9,$2,$3,0*
0 Add four circle primitives for the rounded corners*
1,1,$1+$1,$2,$3*
1,1,$1+$1,$4,$5*
1,1,$1+$1,$6,$7*
1,1,$1+$1,$8,$9*
0 Add four rect primitives between the rounded corners*
20,1,$1+$1,$2,$3,$4,$5,0*
20,1,$1+$1,$4,$5,$6,$7,0*
20,1,$1+$1,$6,$7,$8,$9,0*
20,1,$1+$1,$8,$9,$2,$3,0*%
%AMFreePoly0*
4,1,5,2.250000,-4.000000,-2.250000,-4.000000,-2.250000,4.000000,2.250000,4.000000,2.250000,-4.000000,2.250000,-4.000000,$1*%
%AMFreePoly1*
4,1,5,1.500000,-2.250000,-1.500000,-2.250000,-1.500000,2.250000,1.500000,2.250000,1.500000,-2.250000,1.500000,-2.250000,$1*%
%AMFreePoly2*
4,1,5,4.000000,-2.250000,-4.000000,-2.250000,-4.000000,2.250000,4.000000,2.250000,4.000000,-2.250000,4.000000,-2.250000,$1*%
G04 Aperture macros list end*
%TA.AperFunction,ComponentPad*%
%ADD10C,1.600000*%
%TD*%
%TA.AperFunction,ComponentPad*%
%ADD11O,1.600000X1.600000*%
%TD*%
%TA.AperFunction,ComponentPad*%
%ADD12RoundRect,0.250002X-1.699998X-1.699998X1.699998X-1.699998X1.699998X1.699998X-1.699998X1.699998X0*%
%TD*%
%TA.AperFunction,ComponentPad*%
%ADD13C,1.620000*%
%TD*%
%TA.AperFunction,ComponentPad*%
%ADD14R,1.600000X1.600000*%
%TD*%
%TA.AperFunction,ComponentPad*%
%ADD15R,2.286000X2.286000*%
%TD*%
%TA.AperFunction,ComponentPad*%
%ADD16C,2.286000*%
%TD*%
%TA.AperFunction,ComponentPad*%
%ADD17R,2.250000X2.250000*%
%TD*%
%TA.AperFunction,ComponentPad*%
%ADD18C,2.250000*%
%TD*%
%TA.AperFunction,ComponentPad*%
%ADD19FreePoly0,90.000000*%
%TD*%
%TA.AperFunction,ComponentPad*%
%ADD20FreePoly1,0.000000*%
%TD*%
%TA.AperFunction,ComponentPad*%
%ADD21FreePoly2,0.000000*%
%TD*%
%TA.AperFunction,ComponentPad*%
%ADD22R,1.800000X1.800000*%
%TD*%
%TA.AperFunction,ComponentPad*%
%ADD23O,1.800000X1.800000*%
%TD*%
%TA.AperFunction,ComponentPad*%
%ADD24R,2.000000X2.000000*%
%TD*%
%TA.AperFunction,ComponentPad*%
%ADD25O,2.000000X2.000000*%
%TD*%
%TA.AperFunction,ComponentPad*%
%ADD26R,1.905000X2.000000*%
%TD*%
%TA.AperFunction,ComponentPad*%
%ADD27O,1.905000X2.000000*%
%TD*%
%TA.AperFunction,ComponentPad*%
%ADD28C,2.000000*%
%TD*%
%TA.AperFunction,ViaPad*%
%ADD29C,1.000000*%
%TD*%
%TA.AperFunction,ViaPad*%
%ADD30C,2.000000*%
%TD*%
%TA.AperFunction,Conductor*%
%ADD31C,2.000000*%
%TD*%
%TA.AperFunction,Conductor*%
%ADD32C,0.500000*%
%TD*%
%TA.AperFunction,Conductor*%
%ADD33C,0.375000*%
%TD*%
%TA.AperFunction,Conductor*%
%ADD34C,1.000000*%
%TD*%
G04 APERTURE END LIST*
D10*
%TO.P,R10,1*%
%TO.N,Net-(U4B-+)*%
X128520000Y-111800000D03*
D11*
%TO.P,R10,2*%
%TO.N,Net-(C13-Pad2)*%
X118360000Y-111800000D03*
%TD*%
D12*
%TO.P,J4,1,Pin_1*%
%TO.N,GND*%
X174603000Y-132431000D03*
%TD*%
D13*
%TO.P,RV1,1,1*%
%TO.N,Net-(RV1-Pad1)*%
X137600000Y-94725000D03*
%TO.P,RV1,2,2*%
%TO.N,Net-(C8-Pad1)*%
X140100000Y-92225000D03*
%TO.P,RV1,3,3*%
%TO.N,GND*%
X142600000Y-94725000D03*
%TD*%
D12*
%TO.P,J14,1,Pin_1*%
%TO.N,5v*%
X175120000Y-91050000D03*
%TD*%
D10*
%TO.P,R2,1*%
%TO.N,Net-(R1-Pad2)*%
X103160000Y-112200000D03*
D11*
%TO.P,R2,2*%
%TO.N,Net-(C8-Pad2)*%
X113320000Y-112200000D03*
%TD*%
D12*
%TO.P,J7,1,Pin_1*%
%TO.N,Net-(J7-Pin_1)*%
X115000000Y-54000000D03*
%TD*%
%TO.P,J6,1,Pin_1*%
%TO.N,5v*%
X168720000Y-98450000D03*
%TD*%
D10*
%TO.P,C4,1*%
%TO.N,Net-(D1-+)*%
X157820000Y-101400000D03*
%TO.P,C4,2*%
%TO.N,GND*%
X162820000Y-101400000D03*
%TD*%
%TO.P,R7,1*%
%TO.N,Net-(R1-Pad2)*%
X128520000Y-115300000D03*
D11*
%TO.P,R7,2*%
%TO.N,Net-(U4A--)*%
X118360000Y-115300000D03*
%TD*%
D10*
%TO.P,C12,1*%
%TO.N,Net-(U4A-+)*%
X144300000Y-128600000D03*
%TO.P,C12,2*%
%TO.N,Net-(C12-Pad2)*%
X149300000Y-128600000D03*
%TD*%
D14*
%TO.P,U4,1*%
%TO.N,Net-(C12-Pad2)*%
X139400000Y-128020000D03*
D11*
%TO.P,U4,2,-*%
%TO.N,Net-(U4A--)*%
X139400000Y-125480000D03*
%TO.P,U4,3,+*%
%TO.N,Net-(U4A-+)*%
X139400000Y-122940000D03*
%TO.P,U4,4,V-*%
%TO.N,GND*%
X139400000Y-120400000D03*
%TO.P,U4,5,+*%
%TO.N,Net-(U4B-+)*%
X131780000Y-120400000D03*
%TO.P,U4,6,-*%
%TO.N,Net-(U4B--)*%
X131780000Y-122940000D03*
%TO.P,U4,7*%
%TO.N,Net-(C13-Pad2)*%
X131780000Y-125480000D03*
%TO.P,U4,8,V+*%
%TO.N,VCC*%
X131780000Y-128020000D03*
%TD*%
D10*
%TO.P,C8,1*%
%TO.N,Net-(C8-Pad1)*%
X137420000Y-106200000D03*
%TO.P,C8,2*%
%TO.N,Net-(C8-Pad2)*%
X132420000Y-106200000D03*
%TD*%
D15*
%TO.P,T1,1*%
%TO.N,Net-(F1-Pad2)*%
X103012000Y-71607000D03*
D16*
%TO.P,T1,2*%
%TO.N,Neutral*%
X103012000Y-78338000D03*
%TO.P,T1,3*%
%TO.N,Net-(F1-Pad2)*%
X103012000Y-85069000D03*
%TO.P,T1,4*%
%TO.N,Neutral*%
X103012000Y-91800000D03*
%TO.P,T1,5*%
%TO.N,Net-(D1-Pad4)*%
X134000000Y-71607000D03*
%TO.P,T1,6*%
%TO.N,Net-(D1-Pad2)*%
X134000000Y-78338000D03*
%TO.P,T1,7*%
%TO.N,Net-(RV1-Pad1)*%
X134000000Y-85069000D03*
%TO.P,T1,8*%
%TO.N,GND*%
X134000000Y-91800000D03*
%TD*%
D13*
%TO.P,RV2,1,1*%
%TO.N,Net-(R15-Pad2)*%
X137700000Y-100325000D03*
%TO.P,RV2,2,2*%
%TO.N,Net-(C9-Pad1)*%
X140200000Y-97825000D03*
%TO.P,RV2,3,3*%
%TO.N,GND*%
X142700000Y-100325000D03*
%TD*%
D17*
%TO.P,T2,1*%
%TO.N,N/C*%
X144400000Y-72000000D03*
D18*
%TO.P,T2,2*%
%TO.N,Net-(F1-Pad2)*%
X144400000Y-75800000D03*
%TO.P,T2,3*%
%TO.N,Net-(J10-Pin_1)*%
X144400000Y-80800000D03*
%TO.P,T2,4*%
%TO.N,N/C*%
X144400000Y-85800000D03*
%TO.P,T2,5*%
%TO.N,GND*%
X157400000Y-85800000D03*
%TO.P,T2,6*%
%TO.N,N/C*%
X157400000Y-80800000D03*
%TO.P,T2,7*%
X157400000Y-75800000D03*
%TO.P,T2,8*%
%TO.N,Net-(R15-Pad2)*%
X157400000Y-70800000D03*
%TD*%
D10*
%TO.P,R6,1*%
%TO.N,Net-(U4B-+)*%
X128490000Y-108000000D03*
D11*
%TO.P,R6,2*%
%TO.N,Net-(R1-Pad2)*%
X118330000Y-108000000D03*
%TD*%
D12*
%TO.P,J1,1,Pin_1*%
%TO.N,GND*%
X106659000Y-55768000D03*
%TD*%
%TO.P,J2,1,Pin_1*%
%TO.N,GND*%
X174603000Y-55768000D03*
%TD*%
D10*
%TO.P,C5,1*%
%TO.N,5v*%
X157920000Y-105800000D03*
%TO.P,C5,2*%
%TO.N,GND*%
X162920000Y-105800000D03*
%TD*%
%TO.P,R11,1*%
%TO.N,5v*%
X154320000Y-120000000D03*
D11*
%TO.P,R11,2*%
%TO.N,Net-(D2-K)*%
X144160000Y-120000000D03*
%TD*%
D19*
%TO.P,F1,1*%
%TO.N,Net-(J7-Pin_1)*%
X141860000Y-54600000D03*
D20*
X146940000Y-54600000D03*
%TO.P,F1,2*%
%TO.N,Net-(F1-Pad2)*%
X151000000Y-54600000D03*
D21*
X156080000Y-54600000D03*
%TD*%
D10*
%TO.P,C14,1*%
%TO.N,Net-(C12-Pad2)*%
X163020000Y-120400000D03*
%TO.P,C14,2*%
%TO.N,Net-(D2-K)*%
X158020000Y-120400000D03*
%TD*%
D22*
%TO.P,D2,1,K*%
%TO.N,Net-(D2-K)*%
X128200000Y-127950000D03*
D23*
%TO.P,D2,2,A*%
%TO.N,GND*%
X118040000Y-127950000D03*
%TD*%
D10*
%TO.P,R13,1*%
%TO.N,5v*%
X144240000Y-111000000D03*
D11*
%TO.P,R13,2*%
%TO.N,Net-(D3-K)*%
X154400000Y-111000000D03*
%TD*%
D12*
%TO.P,J3,1,Pin_1*%
%TO.N,GND*%
X106659000Y-132431000D03*
%TD*%
D10*
%TO.P,C3,1*%
%TO.N,VCC*%
X157820000Y-96800000D03*
%TO.P,C3,2*%
%TO.N,GND*%
X162820000Y-96800000D03*
%TD*%
%TO.P,C13,1*%
%TO.N,Net-(U4B--)*%
X153000000Y-123900000D03*
%TO.P,C13,2*%
%TO.N,Net-(C13-Pad2)*%
X153000000Y-128900000D03*
%TD*%
%TO.P,R12,1*%
%TO.N,Net-(D2-K)*%
X154400000Y-107000000D03*
D11*
%TO.P,R12,2*%
%TO.N,GND*%
X144240000Y-107000000D03*
%TD*%
D10*
%TO.P,C9,1*%
%TO.N,Net-(C9-Pad1)*%
X137520000Y-113800000D03*
%TO.P,C9,2*%
%TO.N,Net-(C9-Pad2)*%
X132520000Y-113800000D03*
%TD*%
D12*
%TO.P,J16,1,Pin_1*%
%TO.N,5v*%
X175120000Y-105050000D03*
%TD*%
D24*
%TO.P,D1,1,+*%
%TO.N,Net-(D1-+)*%
X168120000Y-67320000D03*
D25*
%TO.P,D1,2*%
%TO.N,Net-(D1-Pad2)*%
X168120000Y-72400000D03*
%TO.P,D1,3,-*%
%TO.N,GND*%
X173200000Y-72400000D03*
%TO.P,D1,4*%
%TO.N,Net-(D1-Pad4)*%
X173200000Y-67320000D03*
%TD*%
D12*
%TO.P,J13,1,Pin_1*%
%TO.N,5v*%
X168720000Y-105050000D03*
%TD*%
D22*
%TO.P,D3,1,K*%
%TO.N,Net-(D3-K)*%
X128200000Y-132200000D03*
D23*
%TO.P,D3,2,A*%
%TO.N,GND*%
X118040000Y-132200000D03*
%TD*%
D10*
%TO.P,C10,1*%
%TO.N,GND*%
X144300000Y-124400000D03*
%TO.P,C10,2*%
%TO.N,Net-(U4B--)*%
X149300000Y-124400000D03*
%TD*%
D12*
%TO.P,J12,1,Pin_1*%
%TO.N,5v*%
X168920000Y-91000000D03*
%TD*%
D26*
%TO.P,U2,1,VI*%
%TO.N,Net-(D1-+)*%
X147440000Y-101400000D03*
D27*
%TO.P,U2,2,GND*%
%TO.N,GND*%
X149980000Y-101400000D03*
%TO.P,U2,3,VO*%
%TO.N,5v*%
X152520000Y-101400000D03*
%TD*%
D10*
%TO.P,R14,1*%
%TO.N,Net-(D3-K)*%
X103220000Y-124600000D03*
D11*
%TO.P,R14,2*%
%TO.N,GND*%
X113380000Y-124600000D03*
%TD*%
D12*
%TO.P,J15,1,Pin_1*%
%TO.N,5v*%
X175120000Y-98450000D03*
%TD*%
%TO.P,J11,1,Pin_1*%
%TO.N,Net-(D3-K)*%
X168720000Y-111400000D03*
%TD*%
D10*
%TO.P,C15,1*%
%TO.N,Net-(C13-Pad2)*%
X158120000Y-128000000D03*
%TO.P,C15,2*%
%TO.N,Net-(D3-K)*%
X163120000Y-128000000D03*
%TD*%
%TO.P,R5,1*%
%TO.N,Net-(C9-Pad2)*%
X113320000Y-120000000D03*
D11*
%TO.P,R5,2*%
%TO.N,Net-(U4B--)*%
X103160000Y-120000000D03*
%TD*%
D10*
%TO.P,R4,1*%
%TO.N,Net-(C8-Pad2)*%
X113240000Y-108250000D03*
D11*
%TO.P,R4,2*%
%TO.N,Net-(U4A-+)*%
X103080000Y-108250000D03*
%TD*%
D10*
%TO.P,C2,1*%
%TO.N,Net-(D1-+)*%
X157820000Y-92400000D03*
%TO.P,C2,2*%
%TO.N,GND*%
X162820000Y-92400000D03*
%TD*%
%TO.P,R8,1*%
%TO.N,Net-(R1-Pad2)*%
X154320000Y-115500000D03*
D11*
%TO.P,R8,2*%
%TO.N,GND*%
X144160000Y-115500000D03*
%TD*%
D10*
%TO.P,C11,1*%
%TO.N,Net-(U4A-+)*%
X158020000Y-112400000D03*
%TO.P,C11,2*%
%TO.N,GND*%
X163020000Y-112400000D03*
%TD*%
%TO.P,R9,1*%
%TO.N,Net-(U4A--)*%
X118320000Y-120400000D03*
D11*
%TO.P,R9,2*%
%TO.N,Net-(C12-Pad2)*%
X128480000Y-120400000D03*
%TD*%
D24*
%TO.P,C1,1*%
%TO.N,Net-(D1-+)*%
X168000000Y-81400000D03*
D28*
%TO.P,C1,2*%
%TO.N,GND*%
X173000000Y-81400000D03*
%TD*%
D26*
%TO.P,U1,1,VI*%
%TO.N,Net-(D1-+)*%
X152580000Y-92455000D03*
D27*
%TO.P,U1,2,GND*%
%TO.N,GND*%
X150040000Y-92455000D03*
%TO.P,U1,3,VO*%
%TO.N,VCC*%
X147500000Y-92455000D03*
%TD*%
D12*
%TO.P,J10,1,Pin_1*%
%TO.N,Net-(J10-Pin_1)*%
X131000000Y-54000000D03*
%TD*%
%TO.P,J8,1,Pin_1*%
%TO.N,Neutral*%
X123000000Y-54000000D03*
%TD*%
%TO.P,J5,1,Pin_1*%
%TO.N,Net-(D2-K)*%
X175120000Y-111400000D03*
%TD*%
D10*
%TO.P,R3,1*%
%TO.N,Net-(R1-Pad2)*%
X103160000Y-116250000D03*
D11*
%TO.P,R3,2*%
%TO.N,Net-(C9-Pad2)*%
X113320000Y-116250000D03*
%TD*%
D10*
%TO.P,R15,1*%
%TO.N,GND*%
X113320000Y-104250000D03*
D11*
%TO.P,R15,2*%
%TO.N,Net-(R15-Pad2)*%
X103160000Y-104250000D03*
%TD*%
D10*
%TO.P,R1,1*%
%TO.N,VCC*%
X118330000Y-104250000D03*
D11*
%TO.P,R1,2*%
%TO.N,Net-(R1-Pad2)*%
X128490000Y-104250000D03*
%TD*%
D29*
%TO.N,Net-(C9-Pad2)*%
X117521321Y-117873533D03*
%TO.N,GND*%
X149200000Y-96700000D03*
%TO.N,Net-(U4A-+)*%
X129196000Y-117746000D03*
%TO.N,Net-(C12-Pad2)*%
X142400000Y-129000000D03*
X129600000Y-124230000D03*
%TO.N,VCC*%
X132800000Y-101600000D03*
X127000000Y-123400000D03*
%TO.N,Net-(R1-Pad2)*%
X116200000Y-107600000D03*
D30*
%TO.N,Net-(J10-Pin_1)*%
X158300000Y-62800000D03*
%TD*%
D31*
%TO.N,Neutral*%
X106133737Y-78338000D02*
X103012000Y-78338000D01*
X109300000Y-81504263D02*
X106133737Y-78338000D01*
X105800000Y-91800000D02*
X109300000Y-88300000D01*
X109300000Y-88300000D02*
X109300000Y-81504263D01*
X103012000Y-91800000D02*
X105800000Y-91800000D01*
D32*
%TO.N,Net-(C8-Pad2)*%
X113320000Y-108330000D02*
X113240000Y-108250000D01*
X115290000Y-106200000D02*
X132420000Y-106200000D01*
X113240000Y-108250000D02*
X115290000Y-106200000D01*
X113320000Y-112200000D02*
X113320000Y-108330000D01*
%TO.N,Net-(C8-Pad1)*%
X140100000Y-94900000D02*
X140100000Y-92225000D01*
X137420000Y-106200000D02*
X139446000Y-104174000D01*
X139446000Y-99446000D02*
X138400000Y-98400000D01*
X139446000Y-104174000D02*
X139446000Y-99446000D01*
X138400000Y-96600000D02*
X140100000Y-94900000D01*
X138400000Y-98400000D02*
X138400000Y-96600000D01*
%TO.N,Net-(C9-Pad1)*%
X140200000Y-97825000D02*
X140200000Y-111120000D01*
X140200000Y-111120000D02*
X137520000Y-113800000D01*
%TO.N,Net-(C9-Pad2)*%
X117521321Y-117873533D02*
X114943533Y-117873533D01*
X114943533Y-117873533D02*
X113320000Y-116250000D01*
X113320000Y-116250000D02*
X113320000Y-120000000D01*
D31*
%TO.N,Neutral*%
X123000000Y-70400000D02*
X123000000Y-54000000D01*
X115062000Y-78338000D02*
X123000000Y-70400000D01*
X103012000Y-78338000D02*
X115062000Y-78338000D01*
D32*
%TO.N,Net-(U4B--)*%
X131780000Y-122940000D02*
X130980001Y-122140001D01*
X152500000Y-124400000D02*
X153000000Y-123900000D01*
X131860000Y-122940000D02*
X136700000Y-118100000D01*
X140900000Y-118100000D02*
X141800000Y-119000000D01*
X130980001Y-122140001D02*
X105300001Y-122140001D01*
X149300000Y-124400000D02*
X152500000Y-124400000D01*
X136700000Y-118100000D02*
X140900000Y-118100000D01*
X131780000Y-122940000D02*
X131860000Y-122940000D01*
X141800000Y-119000000D02*
X141800000Y-121000000D01*
X105300001Y-122140001D02*
X103160000Y-120000000D01*
X147500000Y-122600000D02*
X149300000Y-124400000D01*
X141800000Y-121000000D02*
X143400000Y-122600000D01*
X143400000Y-122600000D02*
X147500000Y-122600000D01*
%TO.N,Net-(U4A-+)*%
X146867767Y-128600000D02*
X149467767Y-126000000D01*
X160000000Y-114380000D02*
X158020000Y-112400000D01*
X155000000Y-126000000D02*
X160000000Y-121000000D01*
X144300000Y-128600000D02*
X144300000Y-127700000D01*
X129196000Y-117746000D02*
X128650000Y-117200000D01*
X139540000Y-122940000D02*
X139400000Y-122940000D01*
X128650000Y-117200000D02*
X118300000Y-117200000D01*
X109230000Y-114400000D02*
X103080000Y-108250000D01*
X149467767Y-126000000D02*
X155000000Y-126000000D01*
X118300000Y-117200000D02*
X115500000Y-114400000D01*
X115500000Y-114400000D02*
X109230000Y-114400000D01*
X160000000Y-121000000D02*
X160000000Y-114380000D01*
X144300000Y-127700000D02*
X139540000Y-122940000D01*
X144300000Y-128600000D02*
X146867767Y-128600000D01*
%TO.N,Net-(C12-Pad2)*%
X150500000Y-127400000D02*
X156020000Y-127400000D01*
X139400000Y-128020000D02*
X141420000Y-128020000D01*
X156020000Y-127400000D02*
X163020000Y-120400000D01*
D33*
X129600000Y-124230000D02*
X135610000Y-124230000D01*
D32*
X141420000Y-128020000D02*
X142400000Y-129000000D01*
D33*
X135610000Y-124230000D02*
X139400000Y-128020000D01*
D32*
X149300000Y-128600000D02*
X150500000Y-127400000D01*
%TO.N,Net-(C13-Pad2)*%
X153000000Y-128900000D02*
X157220000Y-128900000D01*
X157220000Y-128900000D02*
X158120000Y-128000000D01*
X151850000Y-130050000D02*
X153000000Y-128900000D01*
X131780000Y-125480000D02*
X136350000Y-130050000D01*
X136350000Y-130050000D02*
X151850000Y-130050000D01*
%TO.N,Net-(D2-K)*%
X154400000Y-107000000D02*
X156000000Y-108600000D01*
X156620000Y-121800000D02*
X158020000Y-120400000D01*
X145960000Y-121800000D02*
X156620000Y-121800000D01*
X156000000Y-108600000D02*
X156000000Y-118380000D01*
X144160000Y-120000000D02*
X145960000Y-121800000D01*
X156000000Y-118380000D02*
X158020000Y-120400000D01*
D34*
%TO.N,Net-(D3-K)*%
X168700000Y-111420000D02*
X168700000Y-122420000D01*
D32*
X105700000Y-128600000D02*
X110700000Y-128600000D01*
X158720000Y-132400000D02*
X128430000Y-132400000D01*
X163120000Y-128000000D02*
X158720000Y-132400000D01*
X103220000Y-124600000D02*
X103220000Y-126120000D01*
X128400000Y-132200000D02*
X128200000Y-132400000D01*
X103220000Y-126120000D02*
X105700000Y-128600000D01*
X125700000Y-134700000D02*
X128200000Y-132200000D01*
D34*
X168720000Y-111400000D02*
X168700000Y-111420000D01*
X168700000Y-122420000D02*
X163120000Y-128000000D01*
D32*
X116800000Y-134700000D02*
X125700000Y-134700000D01*
X110700000Y-128600000D02*
X116800000Y-134700000D01*
%TO.N,Net-(D1-Pad2)*%
X134000000Y-78338000D02*
X134238000Y-78100000D01*
X162420000Y-78100000D02*
X168120000Y-72400000D01*
X134238000Y-78100000D02*
X162420000Y-78100000D01*
%TO.N,Net-(D1-Pad4)*%
X170700000Y-69800000D02*
X173180000Y-67320000D01*
X137207000Y-68400000D02*
X162600000Y-68400000D01*
X162600000Y-68400000D02*
X164000000Y-69800000D01*
X173180000Y-67320000D02*
X173200000Y-67320000D01*
X134000000Y-71607000D02*
X137207000Y-68400000D01*
X164000000Y-69800000D02*
X170700000Y-69800000D01*
%TO.N,VCC*%
X118330000Y-104250000D02*
X120780000Y-101800000D01*
X156220000Y-98400000D02*
X149200000Y-98400000D01*
X131780000Y-127980000D02*
X131780000Y-128020000D01*
X132600000Y-101800000D02*
X132800000Y-101600000D01*
X149200000Y-98400000D02*
X147500000Y-96700000D01*
X127000000Y-123400000D02*
X127200000Y-123400000D01*
X120780000Y-101800000D02*
X132600000Y-101800000D01*
X147500000Y-96700000D02*
X147500000Y-92455000D01*
X127200000Y-123400000D02*
X131780000Y-127980000D01*
X157820000Y-96800000D02*
X156220000Y-98400000D01*
%TO.N,Net-(R1-Pad2)*%
X103160000Y-116250000D02*
X103160000Y-112200000D01*
X125630000Y-115300000D02*
X118330000Y-108000000D01*
X116600000Y-108000000D02*
X116200000Y-107600000D01*
X118330000Y-108000000D02*
X116600000Y-108000000D01*
X128520000Y-115300000D02*
X125630000Y-115300000D01*
%TO.N,Net-(U4B-+)*%
X128520000Y-108030000D02*
X128490000Y-108000000D01*
X128520000Y-111800000D02*
X128520000Y-108030000D01*
X130200000Y-113480000D02*
X128520000Y-111800000D01*
X130200000Y-118820000D02*
X130200000Y-113480000D01*
X131780000Y-120400000D02*
X130200000Y-118820000D01*
%TO.N,Net-(R15-Pad2)*%
X137700000Y-100325000D02*
X104838604Y-100325000D01*
X103160000Y-102003604D02*
X103160000Y-104250000D01*
X104838604Y-100325000D02*
X103160000Y-102003604D01*
%TO.N,Net-(RV1-Pad1)*%
X137600000Y-88669000D02*
X134000000Y-85069000D01*
X137600000Y-94725000D02*
X137600000Y-88669000D01*
%TO.N,5v*%
X153400000Y-101400000D02*
X152520000Y-101400000D01*
D34*
X175120000Y-98450000D02*
X175120000Y-105050000D01*
D32*
X157920000Y-105800000D02*
X157800000Y-105800000D01*
D34*
X168920000Y-91000000D02*
X175070000Y-91000000D01*
X157920000Y-105800000D02*
X159920000Y-107800000D01*
X167920000Y-90000000D02*
X168920000Y-91000000D01*
D32*
X152520000Y-102980000D02*
X152520000Y-101400000D01*
X145320000Y-111000000D02*
X144240000Y-111000000D01*
D34*
X175120000Y-105050000D02*
X168720000Y-105050000D01*
D32*
X175070000Y-91000000D02*
X175120000Y-91050000D01*
X144500000Y-111000000D02*
X152520000Y-102980000D01*
X154320000Y-120000000D02*
X145320000Y-111000000D01*
X157800000Y-105800000D02*
X153400000Y-101400000D01*
X144240000Y-111000000D02*
X144500000Y-111000000D01*
D34*
X165970000Y-107800000D02*
X159920000Y-107800000D01*
X175120000Y-91050000D02*
X175120000Y-98450000D01*
X168720000Y-105050000D02*
X165970000Y-107800000D01*
X168720000Y-98450000D02*
X175120000Y-98450000D01*
D31*
%TO.N,Net-(J10-Pin_1)*%
X131000000Y-57700000D02*
X131000000Y-54000000D01*
X156200000Y-60700000D02*
X134000000Y-60700000D01*
X134000000Y-60700000D02*
X131000000Y-57700000D01*
X158300000Y-62800000D02*
X156200000Y-60700000D01*
D32*
%TO.N,Net-(D1-+)*%
X157765000Y-92455000D02*
X157820000Y-92400000D01*
X157920000Y-101500000D02*
X157820000Y-101400000D01*
%TD*%
%TA.AperFunction,Conductor*%
%TO.N,GND*%
G36*
X178722539Y-50520185D02*
G01*
X178768294Y-50572989D01*
X178779500Y-50624500D01*
X178779500Y-136827700D01*
X178759815Y-136894739D01*
X178707011Y-136940494D01*
X178655500Y-136951700D01*
X100624500Y-136951700D01*
X100557461Y-136932015D01*
X100511706Y-136879211D01*
X100500500Y-136827700D01*
X100500500Y-130681015D01*
X104209000Y-130681015D01*
X104209000Y-132181000D01*
X105433015Y-132181000D01*
X105409000Y-132332623D01*
X105409000Y-132529377D01*
X105433015Y-132681000D01*
X104209001Y-132681000D01*
X104209001Y-134180984D01*
X104219494Y-134283695D01*
X104274641Y-134450117D01*
X104274643Y-134450122D01*
X104366684Y-134599344D01*
X104490655Y-134723315D01*
X104639877Y-134815356D01*
X104639882Y-134815358D01*
X104806304Y-134870505D01*
X104806311Y-134870506D01*
X104909021Y-134880999D01*
X106408999Y-134880999D01*
X106409000Y-134880998D01*
X106409000Y-133656985D01*
X106560623Y-133681000D01*
X106757377Y-133681000D01*
X106909000Y-133656985D01*
X106909000Y-134880999D01*
X108408970Y-134880999D01*
X108408984Y-134880998D01*
X108511695Y-134870505D01*
X108678117Y-134815358D01*
X108678122Y-134815356D01*
X108827344Y-134723315D01*
X108951315Y-134599344D01*
X109043356Y-134450122D01*
X109043358Y-134450117D01*
X109098505Y-134283695D01*
X109098506Y-134283688D01*
X109108999Y-134180984D01*
X109109000Y-134180971D01*
X109109000Y-132681000D01*
X107884985Y-132681000D01*
X107909000Y-132529377D01*
X107909000Y-132332623D01*
X107884985Y-132181000D01*
X109108999Y-132181000D01*
X109108999Y-130681030D01*
X109108998Y-130681015D01*
X109098505Y-130578304D01*
X109043358Y-130411882D01*
X109043356Y-130411877D01*
X108951315Y-130262655D01*
X108827344Y-130138684D01*
X108678122Y-130046643D01*
X108678117Y-130046641D01*
X108511695Y-129991494D01*
X108511688Y-129991493D01*
X108408984Y-129981000D01*
X106909000Y-129981000D01*
X106909000Y-131205014D01*
X106757377Y-131181000D01*
X106560623Y-131181000D01*
X106409000Y-131205014D01*
X106409000Y-129981000D01*
X104909030Y-129981000D01*
X104909014Y-129981001D01*
X104806304Y-129991494D01*
X104639882Y-130046641D01*
X104639877Y-130046643D01*
X104490655Y-130138684D01*
X104366684Y-130262655D01*
X104274643Y-130411877D01*
X104274641Y-130411882D01*
X104219494Y-130578304D01*
X104219493Y-130578311D01*
X104209000Y-130681015D01*
X100500500Y-130681015D01*
X100500500Y-124599998D01*
X101914532Y-124599998D01*
X101914532Y-124600001D01*
X101934364Y-124826686D01*
X101934366Y-124826697D01*
X101993258Y-125046488D01*
X101993261Y-125046497D01*
X102089431Y-125252732D01*
X102089432Y-125252734D01*
X102219954Y-125439141D01*
X102380859Y-125600046D01*
X102416621Y-125625086D01*
X102460247Y-125679662D01*
X102469500Y-125726662D01*
X102469500Y-126193918D01*
X102469500Y-126193920D01*
X102469499Y-126193920D01*
X102498340Y-126338907D01*
X102498342Y-126338913D01*
X102554916Y-126475495D01*
X102556862Y-126478407D01*
X102556865Y-126478417D01*
X102556868Y-126478416D01*
X102626715Y-126582952D01*
X102637051Y-126598420D01*
X102637052Y-126598421D01*
X105117049Y-129078416D01*
X105221584Y-129182951D01*
X105221587Y-129182953D01*
X105221588Y-129182954D01*
X105344494Y-129265077D01*
X105344498Y-129265079D01*
X105344505Y-129265084D01*
X105344508Y-129265085D01*
X105344511Y-129265087D01*
X105380069Y-129279815D01*
X105394115Y-129285633D01*
X105394118Y-129285634D01*
X105394119Y-129285635D01*
X105427592Y-129299500D01*
X105481088Y-129321659D01*
X105597241Y-129344763D01*
X105616468Y-129348587D01*
X105626081Y-129350500D01*
X105626082Y-129350500D01*
X105626083Y-129350500D01*
X105773918Y-129350500D01*
X110337770Y-129350500D01*
X110404809Y-129370185D01*
X110425451Y-129386819D01*
X116321586Y-135282954D01*
X116351058Y-135302645D01*
X116395268Y-135332184D01*
X116395270Y-135332187D01*
X116395271Y-135332187D01*
X116444496Y-135365079D01*
X116444511Y-135365087D01*
X116501079Y-135388518D01*
X116501080Y-135388518D01*
X116581088Y-135421659D01*
X116697241Y-135444763D01*
X116716468Y-135448587D01*
X116726081Y-135450500D01*
X116726082Y-135450500D01*
X125773920Y-135450500D01*
X125871462Y-135431096D01*
X125918913Y-135421658D01*
X126055495Y-135365084D01*
X126104729Y-135332186D01*
X126104734Y-135332183D01*
X126129071Y-135315921D01*
X126178416Y-135282952D01*
X127824549Y-133636817D01*
X127885872Y-133603333D01*
X127912230Y-133600499D01*
X129147871Y-133600499D01*
X129147872Y-133600499D01*
X129207483Y-133594091D01*
X129342331Y-133543796D01*
X129457546Y-133457546D01*
X129543796Y-133342331D01*
X129579979Y-133245320D01*
X129585258Y-133231167D01*
X129627129Y-133175233D01*
X129692593Y-133150816D01*
X129701440Y-133150500D01*
X158793920Y-133150500D01*
X158891462Y-133131096D01*
X158938913Y-133121658D01*
X159075495Y-133065084D01*
X159124729Y-133032186D01*
X159198416Y-132982952D01*
X161500352Y-130681015D01*
X172153000Y-130681015D01*
X172153000Y-132181000D01*
X173377015Y-132181000D01*
X173353000Y-132332623D01*
X173353000Y-132529377D01*
X173377015Y-132681000D01*
X172153001Y-132681000D01*
X172153001Y-134180984D01*
X172163494Y-134283695D01*
X172218641Y-134450117D01*
X172218643Y-134450122D01*
X172310684Y-134599344D01*
X172434655Y-134723315D01*
X172583877Y-134815356D01*
X172583882Y-134815358D01*
X172750304Y-134870505D01*
X172750311Y-134870506D01*
X172853021Y-134880999D01*
X174352999Y-134880999D01*
X174353000Y-134880998D01*
X174353000Y-133656985D01*
X174504623Y-133681000D01*
X174701377Y-133681000D01*
X174853000Y-133656985D01*
X174853000Y-134880999D01*
X176352970Y-134880999D01*
X176352984Y-134880998D01*
X176455695Y-134870505D01*
X176622117Y-134815358D01*
X176622122Y-134815356D01*
X176771344Y-134723315D01*
X176895315Y-134599344D01*
X176987356Y-134450122D01*
X176987358Y-134450117D01*
X177042505Y-134283695D01*
X177042506Y-134283688D01*
X177052999Y-134180984D01*
X177053000Y-134180971D01*
X177053000Y-132681000D01*
X175828985Y-132681000D01*
X175853000Y-132529377D01*
X175853000Y-132332623D01*
X175828985Y-132181000D01*
X177052999Y-132181000D01*
X177052999Y-130681030D01*
X177052998Y-130681015D01*
X177042505Y-130578304D01*
X176987358Y-130411882D01*
X176987356Y-130411877D01*
X176895315Y-130262655D01*
X176771344Y-130138684D01*
X176622122Y-130046643D01*
X176622117Y-130046641D01*
X176455695Y-129991494D01*
X176455688Y-129991493D01*
X176352984Y-129981000D01*
X174853000Y-129981000D01*
X174853000Y-131205014D01*
X174701377Y-131181000D01*
X174504623Y-131181000D01*
X174353000Y-131205014D01*
X174353000Y-129981000D01*
X172853030Y-129981000D01*
X172853014Y-129981001D01*
X172750304Y-129991494D01*
X172583882Y-130046641D01*
X172583877Y-130046643D01*
X172434655Y-130138684D01*
X172310684Y-130262655D01*
X172218643Y-130411877D01*
X172218641Y-130411882D01*
X172163494Y-130578304D01*
X172163493Y-130578311D01*
X172153000Y-130681015D01*
X161500352Y-130681015D01*
X162854652Y-129326714D01*
X162915973Y-129293231D01*
X162953135Y-129290869D01*
X163096366Y-129303400D01*
X163119999Y-129305468D01*
X163120000Y-129305468D01*
X163120002Y-129305468D01*
X163188214Y-129299500D01*
X163346692Y-129285635D01*
X163566496Y-129226739D01*
X163772734Y-129130568D01*
X163959139Y-129000047D01*
X164120047Y-128839139D01*
X164250568Y-128652734D01*
X164346739Y-128446496D01*
X164405635Y-128226692D01*
X164411040Y-128164905D01*
X164436492Y-128099838D01*
X164446879Y-128088040D01*
X169477140Y-123057781D01*
X169586632Y-122893914D01*
X169662052Y-122711835D01*
X169700500Y-122518540D01*
X169700500Y-122321459D01*
X169700500Y-113974499D01*
X169720185Y-113907460D01*
X169772989Y-113861705D01*
X169824500Y-113850499D01*
X170470000Y-113850499D01*
X170470006Y-113850499D01*
X170572796Y-113839999D01*
X170739333Y-113784814D01*
X170888655Y-113692711D01*
X171012711Y-113568655D01*
X171104814Y-113419333D01*
X171159999Y-113252796D01*
X171170500Y-113150007D01*
X171170499Y-109649994D01*
X171170498Y-109649985D01*
X172669500Y-109649985D01*
X172669500Y-113149999D01*
X172669501Y-113150016D01*
X172680000Y-113252795D01*
X172680001Y-113252798D01*
X172728795Y-113400047D01*
X172735186Y-113419333D01*
X172827289Y-113568655D01*
X172951345Y-113692711D01*
X173100667Y-113784814D01*
X173267204Y-113839999D01*
X173369993Y-113850500D01*
X176870006Y-113850499D01*
X176972796Y-113839999D01*
X177139333Y-113784814D01*
X177288655Y-113692711D01*
X177412711Y-113568655D01*
X177504814Y-113419333D01*
X177559999Y-113252796D01*
X177570500Y-113150007D01*
X177570499Y-109649994D01*
X177559999Y-109547204D01*
X177504814Y-109380667D01*
X177412711Y-109231345D01*
X177288655Y-109107289D01*
X177139333Y-109015186D01*
X176972796Y-108960001D01*
X176972794Y-108960000D01*
X176870008Y-108949500D01*
X173370000Y-108949500D01*
X173369983Y-108949501D01*
X173267204Y-108960000D01*
X173267201Y-108960001D01*
X173100669Y-109015185D01*
X173100664Y-109015187D01*
X172951343Y-109107290D01*
X172827290Y-109231343D01*
X172735187Y-109380664D01*
X172735186Y-109380667D01*
X172680001Y-109547204D01*
X172680001Y-109547205D01*
X172680000Y-109547205D01*
X172669500Y-109649985D01*
X171170498Y-109649985D01*
X171159999Y-109547204D01*
X171104814Y-109380667D01*
X171012711Y-109231345D01*
X170888655Y-109107289D01*
X170739333Y-109015186D01*
X170572796Y-108960001D01*
X170572794Y-108960000D01*
X170470008Y-108949500D01*
X166970000Y-108949500D01*
X166969983Y-108949501D01*
X166867204Y-108960000D01*
X166867201Y-108960001D01*
X166700669Y-109015185D01*
X166700664Y-109015187D01*
X166551343Y-109107290D01*
X166427290Y-109231343D01*
X166335187Y-109380664D01*
X166335186Y-109380667D01*
X166280001Y-109547204D01*
X166280001Y-109547205D01*
X166280000Y-109547205D01*
X166269500Y-109649985D01*
X166269500Y-113149999D01*
X166269501Y-113150016D01*
X166280000Y-113252795D01*
X166280001Y-113252798D01*
X166328795Y-113400047D01*
X166335186Y-113419333D01*
X166427289Y-113568655D01*
X166551345Y-113692711D01*
X166700667Y-113784814D01*
X166867204Y-113839999D01*
X166969993Y-113850500D01*
X167575500Y-113850499D01*
X167642539Y-113870183D01*
X167688294Y-113922987D01*
X167699500Y-113974499D01*
X167699500Y-121954216D01*
X167679815Y-122021255D01*
X167663181Y-122041897D01*
X163031966Y-126673111D01*
X162970643Y-126706596D01*
X162955095Y-126708958D01*
X162893307Y-126714365D01*
X162673511Y-126773258D01*
X162673502Y-126773261D01*
X162467267Y-126869431D01*
X162467265Y-126869432D01*
X162280858Y-126999954D01*
X162119954Y-127160858D01*
X161989432Y-127347265D01*
X161989431Y-127347267D01*
X161893261Y-127553502D01*
X161893258Y-127553511D01*
X161834366Y-127773302D01*
X161834364Y-127773313D01*
X161814532Y-127999998D01*
X161814532Y-128000003D01*
X161829129Y-128166861D01*
X161815362Y-128235360D01*
X161793282Y-128265348D01*
X158445451Y-131613181D01*
X158384128Y-131646666D01*
X158357770Y-131649500D01*
X129724499Y-131649500D01*
X129657460Y-131629815D01*
X129611705Y-131577011D01*
X129600499Y-131525500D01*
X129600499Y-131252129D01*
X129600498Y-131252123D01*
X129600497Y-131252116D01*
X129594091Y-131192517D01*
X129589795Y-131181000D01*
X129543797Y-131057671D01*
X129543793Y-131057664D01*
X129457547Y-130942455D01*
X129457544Y-130942452D01*
X129342335Y-130856206D01*
X129342328Y-130856202D01*
X129207482Y-130805908D01*
X129207483Y-130805908D01*
X129147883Y-130799501D01*
X129147881Y-130799500D01*
X129147873Y-130799500D01*
X129147864Y-130799500D01*
X127252129Y-130799500D01*
X127252123Y-130799501D01*
X127192516Y-130805908D01*
X127057671Y-130856202D01*
X127057664Y-130856206D01*
X126942455Y-130942452D01*
X126942452Y-130942455D01*
X126856206Y-131057664D01*
X126856202Y-131057671D01*
X126805908Y-131192517D01*
X126799501Y-131252116D01*
X126799501Y-131252123D01*
X126799500Y-131252135D01*
X126799500Y-132487769D01*
X126779815Y-132554808D01*
X126763181Y-132575450D01*
X125425451Y-133913181D01*
X125364128Y-133946666D01*
X125337770Y-133949500D01*
X117162230Y-133949500D01*
X117095191Y-133929815D01*
X117074549Y-133913181D01*
X115111368Y-131950000D01*
X116659117Y-131950000D01*
X117664722Y-131950000D01*
X117620667Y-132026306D01*
X117590000Y-132140756D01*
X117590000Y-132259244D01*
X117620667Y-132373694D01*
X117664722Y-132450000D01*
X116659117Y-132450000D01*
X116711317Y-132656135D01*
X116804516Y-132868609D01*
X116931414Y-133062842D01*
X117088558Y-133233545D01*
X117088562Y-133233548D01*
X117271644Y-133376047D01*
X117271648Y-133376050D01*
X117475697Y-133486476D01*
X117475706Y-133486479D01*
X117695139Y-133561811D01*
X117789999Y-133577640D01*
X117790000Y-133577639D01*
X117790000Y-132575277D01*
X117866306Y-132619333D01*
X117980756Y-132650000D01*
X118099244Y-132650000D01*
X118213694Y-132619333D01*
X118290000Y-132575277D01*
X118290000Y-133577640D01*
X118384860Y-133561811D01*
X118604293Y-133486479D01*
X118604302Y-133486476D01*
X118808351Y-133376050D01*
X118808355Y-133376047D01*
X118991437Y-133233548D01*
X118991441Y-133233545D01*
X119148585Y-133062842D01*
X119275483Y-132868609D01*
X119368682Y-132656135D01*
X119420883Y-132450000D01*
X118415278Y-132450000D01*
X118459333Y-132373694D01*
X118490000Y-132259244D01*
X118490000Y-132140756D01*
X118459333Y-132026306D01*
X118415278Y-131950000D01*
X119420883Y-131950000D01*
X119368682Y-131743864D01*
X119275483Y-131531390D01*
X119148585Y-131337157D01*
X118991441Y-131166454D01*
X118991437Y-131166451D01*
X118808355Y-131023952D01*
X118808351Y-131023949D01*
X118604302Y-130913523D01*
X118604293Y-130913520D01*
X118384861Y-130838188D01*
X118290000Y-130822359D01*
X118290000Y-131824722D01*
X118213694Y-131780667D01*
X118099244Y-131750000D01*
X117980756Y-131750000D01*
X117866306Y-131780667D01*
X117790000Y-131824722D01*
X117790000Y-130822359D01*
X117789999Y-130822359D01*
X117695138Y-130838188D01*
X117475706Y-130913520D01*
X117475697Y-130913523D01*
X117271648Y-131023949D01*
X117271644Y-131023952D01*
X117088562Y-131166451D01*
X117088558Y-131166454D01*
X116931414Y-131337157D01*
X116804516Y-131531390D01*
X116711317Y-131743864D01*
X116659117Y-131950000D01*
X115111368Y-131950000D01*
X111178421Y-128017052D01*
X111178414Y-128017046D01*
X111104729Y-127967812D01*
X111104729Y-127967813D01*
X111055491Y-127934913D01*
X110918917Y-127878343D01*
X110918907Y-127878340D01*
X110773920Y-127849500D01*
X110773918Y-127849500D01*
X106062229Y-127849500D01*
X105995190Y-127829815D01*
X105974548Y-127813181D01*
X105861367Y-127700000D01*
X116659117Y-127700000D01*
X117664722Y-127700000D01*
X117620667Y-127776306D01*
X117590000Y-127890756D01*
X117590000Y-128009244D01*
X117620667Y-128123694D01*
X117664722Y-128200000D01*
X116659117Y-128200000D01*
X116711317Y-128406135D01*
X116804516Y-128618609D01*
X116931414Y-128812842D01*
X117088558Y-128983545D01*
X117088562Y-128983548D01*
X117271644Y-129126047D01*
X117271648Y-129126050D01*
X117475697Y-129236476D01*
X117475706Y-129236479D01*
X117695139Y-129311811D01*
X117789999Y-129327640D01*
X117790000Y-129327639D01*
X117790000Y-128325277D01*
X117866306Y-128369333D01*
X117980756Y-128400000D01*
X118099244Y-128400000D01*
X118213694Y-128369333D01*
X118290000Y-128325277D01*
X118290000Y-129327640D01*
X118384860Y-129311811D01*
X118604293Y-129236479D01*
X118604302Y-129236476D01*
X118808351Y-129126050D01*
X118808355Y-129126047D01*
X118991437Y-128983548D01*
X118991441Y-128983545D01*
X119148585Y-128812842D01*
X119275483Y-128618609D01*
X119368682Y-128406135D01*
X119420883Y-128200000D01*
X118415278Y-128200000D01*
X118459333Y-128123694D01*
X118490000Y-128009244D01*
X118490000Y-127890756D01*
X118459333Y-127776306D01*
X118415278Y-127700000D01*
X119420883Y-127700000D01*
X119368682Y-127493864D01*
X119275483Y-127281390D01*
X119148585Y-127087157D01*
X118991441Y-126916454D01*
X118991437Y-126916451D01*
X118808355Y-126773952D01*
X118808351Y-126773949D01*
X118604302Y-126663523D01*
X118604293Y-126663520D01*
X118384861Y-126588188D01*
X118290000Y-126572359D01*
X118290000Y-127574722D01*
X118213694Y-127530667D01*
X118099244Y-127500000D01*
X117980756Y-127500000D01*
X117866306Y-127530667D01*
X117790000Y-127574722D01*
X117790000Y-126572359D01*
X117789999Y-126572359D01*
X117695138Y-126588188D01*
X117475706Y-126663520D01*
X117475697Y-126663523D01*
X117271648Y-126773949D01*
X117271644Y-126773952D01*
X117088562Y-126916451D01*
X117088558Y-126916454D01*
X116931414Y-127087157D01*
X116804516Y-127281390D01*
X116711317Y-127493864D01*
X116659117Y-127700000D01*
X105861367Y-127700000D01*
X104006819Y-125845451D01*
X103973334Y-125784128D01*
X103970500Y-125757770D01*
X103970500Y-125726662D01*
X103990185Y-125659623D01*
X104023379Y-125625086D01*
X104059140Y-125600046D01*
X104220045Y-125439141D01*
X104220047Y-125439139D01*
X104350568Y-125252734D01*
X104446739Y-125046496D01*
X104505635Y-124826692D01*
X104525468Y-124600000D01*
X104505635Y-124373308D01*
X104499389Y-124349999D01*
X112101127Y-124349999D01*
X112101128Y-124350000D01*
X113064314Y-124350000D01*
X113059920Y-124354394D01*
X113007259Y-124445606D01*
X112980000Y-124547339D01*
X112980000Y-124652661D01*
X113007259Y-124754394D01*
X113059920Y-124845606D01*
X113064314Y-124850000D01*
X112101128Y-124850000D01*
X112153730Y-125046317D01*
X112153734Y-125046326D01*
X112249865Y-125252482D01*
X112380342Y-125438820D01*
X112541179Y-125599657D01*
X112727517Y-125730134D01*
X112933673Y-125826265D01*
X112933682Y-125826269D01*
X113129999Y-125878872D01*
X113130000Y-125878871D01*
X113130000Y-124915686D01*
X113134394Y-124920080D01*
X113225606Y-124972741D01*
X113327339Y-125000000D01*
X113432661Y-125000000D01*
X113534394Y-124972741D01*
X113625606Y-124920080D01*
X113630000Y-124915686D01*
X113630000Y-125878872D01*
X113826317Y-125826269D01*
X113826326Y-125826265D01*
X114032482Y-125730134D01*
X114218820Y-125599657D01*
X114379657Y-125438820D01*
X114510134Y-125252482D01*
X114606265Y-125046326D01*
X114606269Y-125046317D01*
X114658872Y-124850000D01*
X113695686Y-124850000D01*
X113700080Y-124845606D01*
X113752741Y-124754394D01*
X113780000Y-124652661D01*
X113780000Y-124547339D01*
X113752741Y-124445606D01*
X113700080Y-124354394D01*
X113695686Y-124350000D01*
X114658872Y-124350000D01*
X114658872Y-124349999D01*
X114606269Y-124153682D01*
X114606265Y-124153673D01*
X114510134Y-123947517D01*
X114379657Y-123761179D01*
X114218820Y-123600342D01*
X114032482Y-123469865D01*
X113826328Y-123373734D01*
X113630000Y-123321127D01*
X113630000Y-124284314D01*
X113625606Y-124279920D01*
X113534394Y-124227259D01*
X113432661Y-124200000D01*
X113327339Y-124200000D01*
X113225606Y-124227259D01*
X113134394Y-124279920D01*
X113130000Y-124284314D01*
X113130000Y-123321127D01*
X112933671Y-123373734D01*
X112727517Y-123469865D01*
X112541179Y-123600342D01*
X112380342Y-123761179D01*
X112249865Y-123947517D01*
X112153734Y-124153673D01*
X112153730Y-124153682D01*
X112101127Y-124349999D01*
X104499389Y-124349999D01*
X104458276Y-124196562D01*
X104446741Y-124153511D01*
X104446738Y-124153502D01*
X104437947Y-124134650D01*
X104350568Y-123947266D01*
X104220047Y-123760861D01*
X104220045Y-123760858D01*
X104059141Y-123599954D01*
X103872734Y-123469432D01*
X103872732Y-123469431D01*
X103666497Y-123373261D01*
X103666488Y-123373258D01*
X103446697Y-123314366D01*
X103446693Y-123314365D01*
X103446692Y-123314365D01*
X103446691Y-123314364D01*
X103446686Y-123314364D01*
X103220002Y-123294532D01*
X103219998Y-123294532D01*
X102993313Y-123314364D01*
X102993302Y-123314366D01*
X102773511Y-123373258D01*
X102773502Y-123373261D01*
X102567267Y-123469431D01*
X102567265Y-123469432D01*
X102380858Y-123599954D01*
X102219954Y-123760858D01*
X102089432Y-123947265D01*
X102089431Y-123947267D01*
X101993261Y-124153502D01*
X101993258Y-124153511D01*
X101934366Y-124373302D01*
X101934364Y-124373313D01*
X101914532Y-124599998D01*
X100500500Y-124599998D01*
X100500500Y-112199998D01*
X101854532Y-112199998D01*
X101854532Y-112200001D01*
X101874364Y-112426686D01*
X101874366Y-112426697D01*
X101933258Y-112646488D01*
X101933261Y-112646497D01*
X102029431Y-112852732D01*
X102029432Y-112852734D01*
X102159954Y-113039141D01*
X102320859Y-113200046D01*
X102356621Y-113225086D01*
X102400247Y-113279662D01*
X102409500Y-113326662D01*
X102409500Y-115123336D01*
X102389815Y-115190375D01*
X102356625Y-115224910D01*
X102320863Y-115249951D01*
X102159951Y-115410862D01*
X102029432Y-115597265D01*
X102029431Y-115597267D01*
X101933261Y-115803502D01*
X101933258Y-115803511D01*
X101874366Y-116023302D01*
X101874364Y-116023313D01*
X101854532Y-116249998D01*
X101854532Y-116250001D01*
X101874364Y-116476686D01*
X101874366Y-116476697D01*
X101933258Y-116696488D01*
X101933261Y-116696497D01*
X102029431Y-116902732D01*
X102029432Y-116902734D01*
X102159954Y-117089141D01*
X102320858Y-117250045D01*
X102320861Y-117250047D01*
X102507266Y-117380568D01*
X102713504Y-117476739D01*
X102933308Y-117535635D01*
X103095230Y-117549801D01*
X103159998Y-117555468D01*
X103160000Y-117555468D01*
X103160002Y-117555468D01*
X103216673Y-117550509D01*
X103386692Y-117535635D01*
X103606496Y-117476739D01*
X103812734Y-117380568D01*
X103999139Y-117250047D01*
X104160047Y-117089139D01*
X104290568Y-116902734D01*
X104386739Y-116696496D01*
X104445635Y-116476692D01*
X104465468Y-116250000D01*
X104445635Y-116023308D01*
X104386739Y-115803504D01*
X104290568Y-115597266D01*
X104160047Y-115410861D01*
X103999139Y-115249953D01*
X103972309Y-115231166D01*
X103963375Y-115224910D01*
X103919751Y-115170332D01*
X103910500Y-115123336D01*
X103910500Y-113326662D01*
X103930185Y-113259623D01*
X103963379Y-113225086D01*
X103999140Y-113200046D01*
X104160045Y-113039141D01*
X104160047Y-113039139D01*
X104290568Y-112852734D01*
X104386739Y-112646496D01*
X104445635Y-112426692D01*
X104465468Y-112200000D01*
X104445635Y-111973308D01*
X104386739Y-111753504D01*
X104290568Y-111547266D01*
X104160047Y-111360861D01*
X104160045Y-111360858D01*
X103999141Y-111199954D01*
X103812734Y-111069432D01*
X103812732Y-111069431D01*
X103606497Y-110973261D01*
X103606488Y-110973258D01*
X103386697Y-110914366D01*
X103386693Y-110914365D01*
X103386692Y-110914365D01*
X103386691Y-110914364D01*
X103386686Y-110914364D01*
X103160002Y-110894532D01*
X103159998Y-110894532D01*
X102933313Y-110914364D01*
X102933302Y-110914366D01*
X102713511Y-110973258D01*
X102713502Y-110973261D01*
X102507267Y-111069431D01*
X102507265Y-111069432D01*
X102320858Y-111199954D01*
X102159954Y-111360858D01*
X102029432Y-111547265D01*
X102029431Y-111547267D01*
X101933261Y-111753502D01*
X101933258Y-111753511D01*
X101874366Y-111973302D01*
X101874364Y-111973313D01*
X101854532Y-112199998D01*
X100500500Y-112199998D01*
X100500500Y-99321816D01*
X100520185Y-99254777D01*
X100572989Y-99209022D01*
X100624061Y-99197817D01*
X128600000Y-99100000D01*
X128758695Y-91800000D01*
X132351920Y-91800000D01*
X132372211Y-92057820D01*
X132432582Y-92309285D01*
X132531549Y-92548213D01*
X132666673Y-92768714D01*
X132666676Y-92768719D01*
X132671767Y-92774679D01*
X133313236Y-92133209D01*
X133324724Y-92160942D01*
X133408116Y-92285747D01*
X133514253Y-92391884D01*
X133639058Y-92475276D01*
X133666789Y-92486762D01*
X133025319Y-93128232D01*
X133031283Y-93133325D01*
X133251786Y-93268450D01*
X133490714Y-93367417D01*
X133742179Y-93427788D01*
X134000000Y-93448079D01*
X134257820Y-93427788D01*
X134509285Y-93367417D01*
X134748213Y-93268450D01*
X134968713Y-93133326D01*
X134968723Y-93133319D01*
X134974678Y-93128232D01*
X134974678Y-93128231D01*
X134333209Y-92486762D01*
X134360942Y-92475276D01*
X134485747Y-92391884D01*
X134591884Y-92285747D01*
X134675276Y-92160942D01*
X134686762Y-92133209D01*
X135328231Y-92774678D01*
X135328232Y-92774678D01*
X135333319Y-92768723D01*
X135333326Y-92768713D01*
X135468450Y-92548213D01*
X135567417Y-92309285D01*
X135627788Y-92057820D01*
X135648079Y-91800000D01*
X135627788Y-91542179D01*
X135567417Y-91290714D01*
X135468450Y-91051786D01*
X135333325Y-90831283D01*
X135328232Y-90825319D01*
X134686762Y-91466789D01*
X134675276Y-91439058D01*
X134591884Y-91314253D01*
X134485747Y-91208116D01*
X134360942Y-91124724D01*
X134333209Y-91113236D01*
X134974679Y-90471767D01*
X134974679Y-90471766D01*
X134968719Y-90466676D01*
X134968714Y-90466673D01*
X134748213Y-90331549D01*
X134509285Y-90232582D01*
X134257820Y-90172211D01*
X134000000Y-90151920D01*
X133742179Y-90172211D01*
X133490714Y-90232582D01*
X133251786Y-90331549D01*
X133031289Y-90466670D01*
X133031273Y-90466682D01*
X133025320Y-90471766D01*
X133666790Y-91113236D01*
X133639058Y-91124724D01*
X133514253Y-91208116D01*
X133408116Y-91314253D01*
X133324724Y-91439058D01*
X133313236Y-91466790D01*
X132671766Y-90825320D01*
X132666682Y-90831273D01*
X132666670Y-90831289D01*
X132531549Y-91051786D01*
X132432582Y-91290714D01*
X132372211Y-91542179D01*
X132351920Y-91800000D01*
X128758695Y-91800000D01*
X128797396Y-90019757D01*
X128818533Y-89953163D01*
X128872319Y-89908567D01*
X128919775Y-89898464D01*
X136600000Y-89800000D01*
X136601562Y-89750782D01*
X136623364Y-89684402D01*
X136677593Y-89640346D01*
X136747033Y-89632602D01*
X136809635Y-89663629D01*
X136845526Y-89723576D01*
X136849500Y-89754718D01*
X136849500Y-93586129D01*
X136829815Y-93653168D01*
X136796625Y-93687703D01*
X136754411Y-93717262D01*
X136754405Y-93717267D01*
X136592268Y-93879404D01*
X136592265Y-93879407D01*
X136592264Y-93879409D01*
X136460738Y-94067247D01*
X136363830Y-94275068D01*
X136363827Y-94275074D01*
X136304479Y-94496563D01*
X136304478Y-94496570D01*
X136284494Y-94724997D01*
X136284494Y-94725002D01*
X136304478Y-94953429D01*
X136304479Y-94953436D01*
X136363827Y-95174925D01*
X136363828Y-95174927D01*
X136363829Y-95174930D01*
X136460738Y-95382753D01*
X136592264Y-95570591D01*
X136754409Y-95732736D01*
X136942247Y-95864262D01*
X137150070Y-95961171D01*
X137371565Y-96020521D01*
X137534732Y-96034796D01*
X137599998Y-96040506D01*
X137600000Y-96040506D01*
X137630528Y-96037835D01*
X137699027Y-96051601D01*
X137749210Y-96100216D01*
X137765144Y-96168244D01*
X137744440Y-96230249D01*
X137734922Y-96244494D01*
X137734914Y-96244508D01*
X137678342Y-96381086D01*
X137678340Y-96381092D01*
X137649500Y-96526079D01*
X137649500Y-96526082D01*
X137649500Y-98473918D01*
X137649500Y-98473920D01*
X137649499Y-98473920D01*
X137678340Y-98618907D01*
X137678343Y-98618917D01*
X137734913Y-98755490D01*
X137734914Y-98755491D01*
X137734916Y-98755495D01*
X137748282Y-98775498D01*
X137748283Y-98775501D01*
X137776958Y-98818417D01*
X137797836Y-98885094D01*
X137779351Y-98952474D01*
X137727372Y-98999164D01*
X137684664Y-99010835D01*
X137471569Y-99029478D01*
X137471563Y-99029479D01*
X137250074Y-99088827D01*
X137250070Y-99088829D01*
X137042247Y-99185738D01*
X136854409Y-99317264D01*
X136854407Y-99317265D01*
X136854404Y-99317268D01*
X136692264Y-99479408D01*
X136675190Y-99503792D01*
X136662703Y-99521624D01*
X136608127Y-99565249D01*
X136561130Y-99574500D01*
X104764680Y-99574500D01*
X104735846Y-99580234D01*
X104735847Y-99580235D01*
X104619697Y-99603339D01*
X104619687Y-99603342D01*
X104539685Y-99636479D01*
X104539686Y-99636480D01*
X104483109Y-99659915D01*
X104400976Y-99714795D01*
X104360189Y-99742047D01*
X104360185Y-99742050D01*
X102577048Y-101525187D01*
X102558311Y-101553230D01*
X102539698Y-101581088D01*
X102494919Y-101648103D01*
X102494912Y-101648115D01*
X102438343Y-101784686D01*
X102438340Y-101784696D01*
X102409500Y-101929683D01*
X102409500Y-103123336D01*
X102389815Y-103190375D01*
X102356625Y-103224910D01*
X102320863Y-103249951D01*
X102159951Y-103410862D01*
X102029432Y-103597265D01*
X102029431Y-103597267D01*
X101933261Y-103803502D01*
X101933258Y-103803511D01*
X101874366Y-104023302D01*
X101874364Y-104023313D01*
X101854532Y-104249998D01*
X101854532Y-104250001D01*
X101874364Y-104476686D01*
X101874366Y-104476697D01*
X101933258Y-104696488D01*
X101933261Y-104696497D01*
X102029431Y-104902732D01*
X102029432Y-104902734D01*
X102159954Y-105089141D01*
X102320858Y-105250045D01*
X102320861Y-105250047D01*
X102507266Y-105380568D01*
X102713504Y-105476739D01*
X102713509Y-105476740D01*
X102713511Y-105476741D01*
X102766415Y-105490916D01*
X102933308Y-105535635D01*
X103095230Y-105549801D01*
X103159998Y-105555468D01*
X103160000Y-105555468D01*
X103160002Y-105555468D01*
X103216673Y-105550509D01*
X103386692Y-105535635D01*
X103606496Y-105476739D01*
X103812734Y-105380568D01*
X103999139Y-105250047D01*
X104160047Y-105089139D01*
X104290568Y-104902734D01*
X104386739Y-104696496D01*
X104445635Y-104476692D01*
X104465468Y-104250000D01*
X104465468Y-104249997D01*
X112015034Y-104249997D01*
X112015034Y-104250002D01*
X112034858Y-104476599D01*
X112034860Y-104476610D01*
X112093730Y-104696317D01*
X112093735Y-104696331D01*
X112189863Y-104902478D01*
X112240974Y-104975472D01*
X112920000Y-104296446D01*
X112920000Y-104302661D01*
X112947259Y-104404394D01*
X112999920Y-104495606D01*
X113074394Y-104570080D01*
X113165606Y-104622741D01*
X113267339Y-104650000D01*
X113273553Y-104650000D01*
X112594526Y-105329025D01*
X112667513Y-105380132D01*
X112667521Y-105380136D01*
X112873668Y-105476264D01*
X112873682Y-105476269D01*
X113093389Y-105535139D01*
X113093400Y-105535141D01*
X113319998Y-105554966D01*
X113320002Y-105554966D01*
X113546599Y-105535141D01*
X113546610Y-105535139D01*
X113766317Y-105476269D01*
X113766331Y-105476264D01*
X113972478Y-105380136D01*
X114045471Y-105329024D01*
X113366447Y-104650000D01*
X113372661Y-104650000D01*
X113474394Y-104622741D01*
X113565606Y-104570080D01*
X113640080Y-104495606D01*
X113692741Y-104404394D01*
X113720000Y-104302661D01*
X113720000Y-104296447D01*
X114399024Y-104975471D01*
X114450136Y-104902478D01*
X114546264Y-104696331D01*
X114546269Y-104696317D01*
X114605139Y-104476610D01*
X114605141Y-104476599D01*
X114624966Y-104250002D01*
X114624966Y-104249997D01*
X114605141Y-104023400D01*
X114605139Y-104023389D01*
X114546269Y-103803682D01*
X114546264Y-103803668D01*
X114450136Y-103597521D01*
X114450132Y-103597513D01*
X114399025Y-103524526D01*
X113720000Y-104203551D01*
X113720000Y-104197339D01*
X113692741Y-104095606D01*
X113640080Y-104004394D01*
X113565606Y-103929920D01*
X113474394Y-103877259D01*
X113372661Y-103850000D01*
X113366448Y-103850000D01*
X114045472Y-103170974D01*
X113972478Y-103119863D01*
X113766331Y-103023735D01*
X113766317Y-103023730D01*
X113546610Y-102964860D01*
X113546599Y-102964858D01*
X113320002Y-102945034D01*
X113319998Y-102945034D01*
X113093400Y-102964858D01*
X113093389Y-102964860D01*
X112873682Y-103023730D01*
X112873673Y-103023734D01*
X112667516Y-103119866D01*
X112667512Y-103119868D01*
X112594526Y-103170973D01*
X112594526Y-103170974D01*
X113273553Y-103850000D01*
X113267339Y-103850000D01*
X113165606Y-103877259D01*
X113074394Y-103929920D01*
X112999920Y-104004394D01*
X112947259Y-104095606D01*
X112920000Y-104197339D01*
X112920000Y-104203552D01*
X112240974Y-103524526D01*
X112240973Y-103524526D01*
X112189868Y-103597512D01*
X112189866Y-103597516D01*
X112093734Y-103803673D01*
X112093730Y-103803682D01*
X112034860Y-104023389D01*
X112034858Y-104023400D01*
X112015034Y-104249997D01*
X104465468Y-104249997D01*
X104445635Y-104023308D01*
X104386739Y-103803504D01*
X104290568Y-103597266D01*
X104225307Y-103504063D01*
X104160048Y-103410862D01*
X104084676Y-103335490D01*
X103999139Y-103249953D01*
X103994373Y-103246615D01*
X103963375Y-103224910D01*
X103919751Y-103170332D01*
X103910500Y-103123336D01*
X103910500Y-102365833D01*
X103930185Y-102298794D01*
X103946819Y-102278152D01*
X105113152Y-101111819D01*
X105174475Y-101078334D01*
X105200833Y-101075500D01*
X120143770Y-101075500D01*
X120210809Y-101095185D01*
X120256564Y-101147989D01*
X120266508Y-101217147D01*
X120237483Y-101280703D01*
X120231451Y-101287181D01*
X118595348Y-102923282D01*
X118534025Y-102956767D01*
X118496861Y-102959129D01*
X118330003Y-102944532D01*
X118329998Y-102944532D01*
X118103313Y-102964364D01*
X118103302Y-102964366D01*
X117883511Y-103023258D01*
X117883502Y-103023261D01*
X117677267Y-103119431D01*
X117677265Y-103119432D01*
X117490858Y-103249954D01*
X117329954Y-103410858D01*
X117199432Y-103597265D01*
X117199431Y-103597267D01*
X117103261Y-103803502D01*
X117103258Y-103803511D01*
X117044366Y-104023302D01*
X117044364Y-104023313D01*
X117024532Y-104249998D01*
X117024532Y-104250001D01*
X117044364Y-104476686D01*
X117044366Y-104476697D01*
X117103258Y-104696488D01*
X117103261Y-104696497D01*
X117199431Y-104902732D01*
X117199432Y-104902734D01*
X117329954Y-105089141D01*
X117478632Y-105237819D01*
X117512117Y-105299142D01*
X117507133Y-105368834D01*
X117465261Y-105424767D01*
X117399797Y-105449184D01*
X117390951Y-105449500D01*
X115216080Y-105449500D01*
X115071092Y-105478340D01*
X115071082Y-105478343D01*
X114934509Y-105534913D01*
X114903747Y-105555468D01*
X114811582Y-105617049D01*
X114811581Y-105617050D01*
X113505348Y-106923282D01*
X113444025Y-106956767D01*
X113406861Y-106959129D01*
X113240003Y-106944532D01*
X113239998Y-106944532D01*
X113013313Y-106964364D01*
X113013302Y-106964366D01*
X112793511Y-107023258D01*
X112793502Y-107023261D01*
X112587267Y-107119431D01*
X112587265Y-107119432D01*
X112400858Y-107249954D01*
X112239954Y-107410858D01*
X112109432Y-107597265D01*
X112109431Y-107597267D01*
X112013261Y-107803502D01*
X112013258Y-107803511D01*
X111954366Y-108023302D01*
X111954364Y-108023313D01*
X111934532Y-108249998D01*
X111934532Y-108250001D01*
X111954364Y-108476686D01*
X111954366Y-108476697D01*
X112013258Y-108696488D01*
X112013261Y-108696497D01*
X112109431Y-108902732D01*
X112109432Y-108902734D01*
X112239954Y-109089141D01*
X112400857Y-109250044D01*
X112400860Y-109250046D01*
X112400861Y-109250047D01*
X112516623Y-109331103D01*
X112560248Y-109385679D01*
X112569500Y-109432678D01*
X112569500Y-111073336D01*
X112549815Y-111140375D01*
X112516625Y-111174910D01*
X112480863Y-111199951D01*
X112319951Y-111360862D01*
X112189432Y-111547265D01*
X112189431Y-111547267D01*
X112093261Y-111753502D01*
X112093258Y-111753511D01*
X112034366Y-111973302D01*
X112034364Y-111973313D01*
X112014532Y-112199998D01*
X112014532Y-112200001D01*
X112034364Y-112426686D01*
X112034366Y-112426697D01*
X112093258Y-112646488D01*
X112093261Y-112646497D01*
X112189431Y-112852732D01*
X112189432Y-112852734D01*
X112319954Y-113039141D01*
X112480858Y-113200045D01*
X112480861Y-113200047D01*
X112667266Y-113330568D01*
X112816259Y-113400045D01*
X112844294Y-113413118D01*
X112896733Y-113459291D01*
X112915885Y-113526484D01*
X112895669Y-113593365D01*
X112842504Y-113638700D01*
X112791889Y-113649500D01*
X109592229Y-113649500D01*
X109525190Y-113629815D01*
X109504548Y-113613181D01*
X104406716Y-108515348D01*
X104373231Y-108454025D01*
X104370869Y-108416863D01*
X104385468Y-108250000D01*
X104384987Y-108244507D01*
X104374233Y-108121583D01*
X104365635Y-108023308D01*
X104306739Y-107803504D01*
X104210568Y-107597266D01*
X104080047Y-107410861D01*
X104080045Y-107410858D01*
X103919141Y-107249954D01*
X103732734Y-107119432D01*
X103732732Y-107119431D01*
X103526497Y-107023261D01*
X103526488Y-107023258D01*
X103306697Y-106964366D01*
X103306693Y-106964365D01*
X103306692Y-106964365D01*
X103306691Y-106964364D01*
X103306686Y-106964364D01*
X103080002Y-106944532D01*
X103079998Y-106944532D01*
X102853313Y-106964364D01*
X102853302Y-106964366D01*
X102633511Y-107023258D01*
X102633502Y-107023261D01*
X102427267Y-107119431D01*
X102427265Y-107119432D01*
X102240858Y-107249954D01*
X102079954Y-107410858D01*
X101949432Y-107597265D01*
X101949431Y-107597267D01*
X101853261Y-107803502D01*
X101853258Y-107803511D01*
X101794366Y-108023302D01*
X101794364Y-108023313D01*
X101774532Y-108249998D01*
X101774532Y-108250001D01*
X101794364Y-108476686D01*
X101794366Y-108476697D01*
X101853258Y-108696488D01*
X101853261Y-108696497D01*
X101949431Y-108902732D01*
X101949432Y-108902734D01*
X102079954Y-109089141D01*
X102240858Y-109250045D01*
X102240861Y-109250047D01*
X102427266Y-109380568D01*
X102633504Y-109476739D01*
X102853308Y-109535635D01*
X102985554Y-109547205D01*
X103079998Y-109555468D01*
X103080000Y-109555468D01*
X103080001Y-109555468D01*
X103100062Y-109553712D01*
X103246861Y-109540869D01*
X103315359Y-109554635D01*
X103345348Y-109576716D01*
X105999625Y-112230992D01*
X108647048Y-114878415D01*
X108647049Y-114878416D01*
X108715507Y-114946874D01*
X108751585Y-114982952D01*
X108874498Y-115065080D01*
X108874511Y-115065087D01*
X109011082Y-115121656D01*
X109011087Y-115121658D01*
X109011091Y-115121658D01*
X109011092Y-115121659D01*
X109156079Y-115150500D01*
X109156082Y-115150500D01*
X112280951Y-115150500D01*
X112347990Y-115170185D01*
X112393745Y-115222989D01*
X112403689Y-115292147D01*
X112374664Y-115355703D01*
X112368632Y-115362181D01*
X112319954Y-115410858D01*
X112189432Y-115597265D01*
X112189431Y-115597267D01*
X112093261Y-115803502D01*
X112093258Y-115803511D01*
X112034366Y-116023302D01*
X112034364Y-116023313D01*
X112014532Y-116249998D01*
X112014532Y-116250001D01*
X112034364Y-116476686D01*
X112034366Y-116476697D01*
X112093258Y-116696488D01*
X112093261Y-116696497D01*
X112189431Y-116902732D01*
X112189432Y-116902734D01*
X112319954Y-117089141D01*
X112480859Y-117250046D01*
X112516621Y-117275086D01*
X112560247Y-117329662D01*
X112569500Y-117376662D01*
X112569500Y-118873336D01*
X112549815Y-118940375D01*
X112516625Y-118974910D01*
X112480863Y-118999951D01*
X112319951Y-119160862D01*
X112189432Y-119347265D01*
X112189431Y-119347267D01*
X112093261Y-119553502D01*
X112093258Y-119553511D01*
X112034366Y-119773302D01*
X112034364Y-119773313D01*
X112014532Y-119999998D01*
X112014532Y-120000001D01*
X112034364Y-120226686D01*
X112034366Y-120226697D01*
X112093258Y-120446488D01*
X112093261Y-120446497D01*
X112189431Y-120652732D01*
X112189432Y-120652734D01*
X112319954Y-120839141D01*
X112480858Y-121000045D01*
X112480861Y-121000047D01*
X112667266Y-121130568D01*
X112715627Y-121153119D01*
X112768066Y-121199292D01*
X112787218Y-121266485D01*
X112767002Y-121333366D01*
X112713837Y-121378701D01*
X112663222Y-121389501D01*
X105662230Y-121389501D01*
X105595191Y-121369816D01*
X105574549Y-121353182D01*
X104486716Y-120265348D01*
X104453231Y-120204025D01*
X104450869Y-120166863D01*
X104465468Y-120000000D01*
X104445635Y-119773308D01*
X104389100Y-119562314D01*
X104386741Y-119553511D01*
X104386738Y-119553502D01*
X104315137Y-119399954D01*
X104290568Y-119347266D01*
X104169061Y-119173734D01*
X104160045Y-119160858D01*
X103999141Y-118999954D01*
X103812734Y-118869432D01*
X103812732Y-118869431D01*
X103606497Y-118773261D01*
X103606488Y-118773258D01*
X103386697Y-118714366D01*
X103386693Y-118714365D01*
X103386692Y-118714365D01*
X103386691Y-118714364D01*
X103386686Y-118714364D01*
X103160002Y-118694532D01*
X103159998Y-118694532D01*
X102933313Y-118714364D01*
X102933302Y-118714366D01*
X102713511Y-118773258D01*
X102713502Y-118773261D01*
X102507267Y-118869431D01*
X102507265Y-118869432D01*
X102320858Y-118999954D01*
X102159954Y-119160858D01*
X102029432Y-119347265D01*
X102029431Y-119347267D01*
X101933261Y-119553502D01*
X101933258Y-119553511D01*
X101874366Y-119773302D01*
X101874364Y-119773313D01*
X101854532Y-119999998D01*
X101854532Y-120000001D01*
X101874364Y-120226686D01*
X101874366Y-120226697D01*
X101933258Y-120446488D01*
X101933261Y-120446497D01*
X102029431Y-120652732D01*
X102029432Y-120652734D01*
X102159954Y-120839141D01*
X102320858Y-121000045D01*
X102320861Y-121000047D01*
X102507266Y-121130568D01*
X102713504Y-121226739D01*
X102933308Y-121285635D01*
X103095230Y-121299801D01*
X103159998Y-121305468D01*
X103160000Y-121305468D01*
X103160001Y-121305468D01*
X103180062Y-121303712D01*
X103326861Y-121290869D01*
X103395359Y-121304635D01*
X103425348Y-121326716D01*
X104104212Y-122005579D01*
X104717049Y-122618416D01*
X104717050Y-122618417D01*
X104771894Y-122673261D01*
X104821586Y-122722953D01*
X104944499Y-122805081D01*
X104944512Y-122805088D01*
X105081083Y-122861657D01*
X105081088Y-122861659D01*
X105081092Y-122861659D01*
X105081093Y-122861660D01*
X105226080Y-122890501D01*
X105226083Y-122890501D01*
X125941841Y-122890501D01*
X126008880Y-122910186D01*
X126054635Y-122962990D01*
X126064579Y-123032148D01*
X126060501Y-123050497D01*
X126013976Y-123203865D01*
X125994659Y-123400000D01*
X126013975Y-123596129D01*
X126013976Y-123596132D01*
X126069491Y-123779141D01*
X126071188Y-123784733D01*
X126164086Y-123958532D01*
X126164090Y-123958539D01*
X126289116Y-124110883D01*
X126441460Y-124235909D01*
X126441467Y-124235913D01*
X126615266Y-124328811D01*
X126615269Y-124328811D01*
X126615273Y-124328814D01*
X126803868Y-124386024D01*
X127000000Y-124405341D01*
X127072700Y-124398180D01*
X127141344Y-124411198D01*
X127172534Y-124433902D01*
X129076451Y-126337819D01*
X129109936Y-126399142D01*
X129104952Y-126468834D01*
X129063080Y-126524767D01*
X128997616Y-126549184D01*
X128988770Y-126549500D01*
X127252129Y-126549500D01*
X127252123Y-126549501D01*
X127192516Y-126555908D01*
X127057671Y-126606202D01*
X127057664Y-126606206D01*
X126942455Y-126692452D01*
X126942452Y-126692455D01*
X126856206Y-126807664D01*
X126856202Y-126807671D01*
X126805908Y-126942517D01*
X126799501Y-127002116D01*
X126799500Y-127002135D01*
X126799500Y-128897870D01*
X126799501Y-128897876D01*
X126805908Y-128957483D01*
X126856202Y-129092328D01*
X126856206Y-129092335D01*
X126942452Y-129207544D01*
X126942455Y-129207547D01*
X127057664Y-129293793D01*
X127057671Y-129293797D01*
X127192517Y-129344091D01*
X127192516Y-129344091D01*
X127198749Y-129344761D01*
X127252127Y-129350500D01*
X129147872Y-129350499D01*
X129207483Y-129344091D01*
X129342331Y-129293796D01*
X129457546Y-129207546D01*
X129543796Y-129092331D01*
X129594091Y-128957483D01*
X129600500Y-128897873D01*
X129600499Y-127161227D01*
X129620184Y-127094189D01*
X129672987Y-127048434D01*
X129742146Y-127038490D01*
X129805702Y-127067515D01*
X129812169Y-127073537D01*
X130020023Y-127281390D01*
X130456501Y-127717868D01*
X130489986Y-127779191D01*
X130492348Y-127816356D01*
X130474532Y-128019997D01*
X130474532Y-128020001D01*
X130494364Y-128246686D01*
X130494366Y-128246697D01*
X130553258Y-128466488D01*
X130553261Y-128466497D01*
X130649431Y-128672732D01*
X130649432Y-128672734D01*
X130779954Y-128859141D01*
X130940858Y-129020045D01*
X130940861Y-129020047D01*
X131127266Y-129150568D01*
X131333504Y-129246739D01*
X131333509Y-129246740D01*
X131333511Y-129246741D01*
X131367906Y-129255957D01*
X131553308Y-129305635D01*
X131715230Y-129319801D01*
X131779998Y-129325468D01*
X131780000Y-129325468D01*
X131780002Y-129325468D01*
X131836673Y-129320509D01*
X132006692Y-129305635D01*
X132226496Y-129246739D01*
X132432734Y-129150568D01*
X132619139Y-129020047D01*
X132780047Y-128859139D01*
X132910568Y-128672734D01*
X133006739Y-128466496D01*
X133065635Y-128246692D01*
X133076223Y-128125670D01*
X133101674Y-128060604D01*
X133158265Y-128019626D01*
X133228027Y-128015747D01*
X133287431Y-128048799D01*
X135871586Y-130632954D01*
X135901058Y-130652645D01*
X135945270Y-130682186D01*
X135994505Y-130715084D01*
X135994506Y-130715084D01*
X135994507Y-130715085D01*
X135994509Y-130715086D01*
X136131082Y-130771656D01*
X136131087Y-130771658D01*
X136131091Y-130771658D01*
X136131092Y-130771659D01*
X136276079Y-130800500D01*
X136276082Y-130800500D01*
X151923920Y-130800500D01*
X152021462Y-130781096D01*
X152068913Y-130771658D01*
X152205495Y-130715084D01*
X152254729Y-130682186D01*
X152254734Y-130682183D01*
X152279071Y-130665921D01*
X152328416Y-130632952D01*
X152734652Y-130226714D01*
X152795973Y-130193231D01*
X152833135Y-130190869D01*
X152976366Y-130203400D01*
X152999999Y-130205468D01*
X153000000Y-130205468D01*
X153000002Y-130205468D01*
X153056673Y-130200509D01*
X153226692Y-130185635D01*
X153446496Y-130126739D01*
X153652734Y-130030568D01*
X153839139Y-129900047D01*
X154000047Y-129739139D01*
X154025088Y-129703377D01*
X154079665Y-129659752D01*
X154126663Y-129650500D01*
X157293920Y-129650500D01*
X157391462Y-129631096D01*
X157438913Y-129621658D01*
X157575495Y-129565084D01*
X157624729Y-129532186D01*
X157698416Y-129482952D01*
X157854653Y-129326713D01*
X157915972Y-129293231D01*
X157953135Y-129290869D01*
X158096366Y-129303400D01*
X158119999Y-129305468D01*
X158120000Y-129305468D01*
X158120002Y-129305468D01*
X158188214Y-129299500D01*
X158346692Y-129285635D01*
X158566496Y-129226739D01*
X158772734Y-129130568D01*
X158959139Y-129000047D01*
X159120047Y-128839139D01*
X159250568Y-128652734D01*
X159346739Y-128446496D01*
X159405635Y-128226692D01*
X159423718Y-128020000D01*
X159425468Y-128000001D01*
X159425468Y-127999998D01*
X159410615Y-127830233D01*
X159405635Y-127773308D01*
X159346739Y-127553504D01*
X159250568Y-127347266D01*
X159120047Y-127160861D01*
X159120045Y-127160858D01*
X158959141Y-126999954D01*
X158772734Y-126869432D01*
X158772732Y-126869431D01*
X158566497Y-126773261D01*
X158566488Y-126773258D01*
X158346697Y-126714366D01*
X158346693Y-126714365D01*
X158346692Y-126714365D01*
X158346691Y-126714364D01*
X158346686Y-126714364D01*
X158120002Y-126694532D01*
X158119993Y-126694532D01*
X158094279Y-126696781D01*
X158025779Y-126683013D01*
X157975598Y-126634396D01*
X157959666Y-126566367D01*
X157983043Y-126500524D01*
X157995788Y-126485578D01*
X162754652Y-121726714D01*
X162815973Y-121693231D01*
X162853135Y-121690869D01*
X162996366Y-121703400D01*
X163019999Y-121705468D01*
X163020000Y-121705468D01*
X163020002Y-121705468D01*
X163092306Y-121699142D01*
X163246692Y-121685635D01*
X163466496Y-121626739D01*
X163672734Y-121530568D01*
X163859139Y-121400047D01*
X164020047Y-121239139D01*
X164150568Y-121052734D01*
X164246739Y-120846496D01*
X164305635Y-120626692D01*
X164325468Y-120400000D01*
X164305635Y-120173308D01*
X164246739Y-119953504D01*
X164150568Y-119747266D01*
X164020047Y-119560861D01*
X164020046Y-119560860D01*
X164020045Y-119560858D01*
X163859141Y-119399954D01*
X163672734Y-119269432D01*
X163672732Y-119269431D01*
X163466497Y-119173261D01*
X163466488Y-119173258D01*
X163246697Y-119114366D01*
X163246693Y-119114365D01*
X163246692Y-119114365D01*
X163246691Y-119114364D01*
X163246686Y-119114364D01*
X163020002Y-119094532D01*
X163019998Y-119094532D01*
X162793313Y-119114364D01*
X162793302Y-119114366D01*
X162573511Y-119173258D01*
X162573502Y-119173261D01*
X162367267Y-119269431D01*
X162367265Y-119269432D01*
X162180858Y-119399954D01*
X162019954Y-119560858D01*
X161889432Y-119747265D01*
X161889431Y-119747267D01*
X161793261Y-119953502D01*
X161793258Y-119953511D01*
X161734366Y-120173302D01*
X161734364Y-120173313D01*
X161714532Y-120399998D01*
X161714532Y-120400003D01*
X161729129Y-120566861D01*
X161715362Y-120635360D01*
X161693282Y-120665348D01*
X160866848Y-121491782D01*
X160805525Y-121525267D01*
X160735833Y-121520283D01*
X160679900Y-121478411D01*
X160655483Y-121412947D01*
X160664606Y-121356648D01*
X160674250Y-121333366D01*
X160721658Y-121218913D01*
X160734746Y-121153119D01*
X160750500Y-121073920D01*
X160750500Y-114306079D01*
X160721659Y-114161092D01*
X160721658Y-114161091D01*
X160721658Y-114161087D01*
X160706720Y-114125023D01*
X160665086Y-114024508D01*
X160596315Y-113921584D01*
X160586878Y-113907460D01*
X160582952Y-113901584D01*
X159346716Y-112665348D01*
X159313231Y-112604025D01*
X159310869Y-112566863D01*
X159325468Y-112400000D01*
X159325468Y-112399997D01*
X161715034Y-112399997D01*
X161715034Y-112400002D01*
X161734858Y-112626599D01*
X161734860Y-112626610D01*
X161793730Y-112846317D01*
X161793735Y-112846331D01*
X161889863Y-113052478D01*
X161940974Y-113125472D01*
X162620000Y-112446446D01*
X162620000Y-112452661D01*
X162647259Y-112554394D01*
X162699920Y-112645606D01*
X162774394Y-112720080D01*
X162865606Y-112772741D01*
X162967339Y-112800000D01*
X162973553Y-112800000D01*
X162294526Y-113479025D01*
X162367513Y-113530132D01*
X162367521Y-113530136D01*
X162573668Y-113626264D01*
X162573682Y-113626269D01*
X162793389Y-113685139D01*
X162793400Y-113685141D01*
X163019998Y-113704966D01*
X163020002Y-113704966D01*
X163246599Y-113685141D01*
X163246610Y-113685139D01*
X163466317Y-113626269D01*
X163466331Y-113626264D01*
X163672478Y-113530136D01*
X163745471Y-113479024D01*
X163066447Y-112800000D01*
X163072661Y-112800000D01*
X163174394Y-112772741D01*
X163265606Y-112720080D01*
X163340080Y-112645606D01*
X163392741Y-112554394D01*
X163420000Y-112452661D01*
X163420000Y-112446447D01*
X164099024Y-113125471D01*
X164150136Y-113052478D01*
X164246264Y-112846331D01*
X164246269Y-112846317D01*
X164305139Y-112626610D01*
X164305141Y-112626599D01*
X164324966Y-112400002D01*
X164324966Y-112399997D01*
X164305141Y-112173400D01*
X164305139Y-112173389D01*
X164246269Y-111953682D01*
X164246264Y-111953668D01*
X164150136Y-111747521D01*
X164150132Y-111747513D01*
X164099025Y-111674526D01*
X163420000Y-112353551D01*
X163420000Y-112347339D01*
X163392741Y-112245606D01*
X163340080Y-112154394D01*
X163265606Y-112079920D01*
X163174394Y-112027259D01*
X163072661Y-112000000D01*
X163066448Y-112000000D01*
X163745472Y-111320974D01*
X163672478Y-111269863D01*
X163466331Y-111173735D01*
X163466317Y-111173730D01*
X163246610Y-111114860D01*
X163246599Y-111114858D01*
X163020002Y-111095034D01*
X163019998Y-111095034D01*
X162793400Y-111114858D01*
X162793389Y-111114860D01*
X162573682Y-111173730D01*
X162573673Y-111173734D01*
X162367516Y-111269866D01*
X162367512Y-111269868D01*
X162294526Y-111320973D01*
X162294526Y-111320974D01*
X162973553Y-112000000D01*
X162967339Y-112000000D01*
X162865606Y-112027259D01*
X162774394Y-112079920D01*
X162699920Y-112154394D01*
X162647259Y-112245606D01*
X162620000Y-112347339D01*
X162620000Y-112353552D01*
X161940974Y-111674526D01*
X161940973Y-111674526D01*
X161889868Y-111747512D01*
X161889866Y-111747516D01*
X161793734Y-111953673D01*
X161793730Y-111953682D01*
X161734860Y-112173389D01*
X161734858Y-112173400D01*
X161715034Y-112399997D01*
X159325468Y-112399997D01*
X159305635Y-112173308D01*
X159252047Y-111973313D01*
X159246741Y-111953511D01*
X159246738Y-111953502D01*
X159153480Y-111753511D01*
X159150568Y-111747266D01*
X159020047Y-111560861D01*
X159020045Y-111560858D01*
X158859141Y-111399954D01*
X158672734Y-111269432D01*
X158672732Y-111269431D01*
X158466497Y-111173261D01*
X158466488Y-111173258D01*
X158246697Y-111114366D01*
X158246693Y-111114365D01*
X158246692Y-111114365D01*
X158246691Y-111114364D01*
X158246686Y-111114364D01*
X158020002Y-111094532D01*
X158019998Y-111094532D01*
X157793313Y-111114364D01*
X157793302Y-111114366D01*
X157573511Y-111173258D01*
X157573502Y-111173261D01*
X157367267Y-111269431D01*
X157367265Y-111269432D01*
X157180858Y-111399954D01*
X157019953Y-111560859D01*
X156976075Y-111623525D01*
X156921498Y-111667150D01*
X156852000Y-111674344D01*
X156789645Y-111642821D01*
X156754231Y-111582591D01*
X156750500Y-111552402D01*
X156750500Y-108526081D01*
X156744763Y-108497242D01*
X156744763Y-108497240D01*
X156736167Y-108454025D01*
X156721659Y-108381088D01*
X156688518Y-108301080D01*
X156684288Y-108290869D01*
X156665085Y-108244507D01*
X156653214Y-108226741D01*
X156619366Y-108176083D01*
X156582952Y-108121584D01*
X155726716Y-107265348D01*
X155693231Y-107204025D01*
X155690869Y-107166863D01*
X155705468Y-107000000D01*
X155702350Y-106964366D01*
X155696964Y-106902795D01*
X155685635Y-106773308D01*
X155626739Y-106553504D01*
X155530568Y-106347266D01*
X155400047Y-106160861D01*
X155400045Y-106160858D01*
X155239141Y-105999954D01*
X155052734Y-105869432D01*
X155052732Y-105869431D01*
X154846497Y-105773261D01*
X154846488Y-105773258D01*
X154626697Y-105714366D01*
X154626693Y-105714365D01*
X154626692Y-105714365D01*
X154626691Y-105714364D01*
X154626686Y-105714364D01*
X154400002Y-105694532D01*
X154399998Y-105694532D01*
X154173313Y-105714364D01*
X154173302Y-105714366D01*
X153953511Y-105773258D01*
X153953502Y-105773261D01*
X153747267Y-105869431D01*
X153747265Y-105869432D01*
X153560858Y-105999954D01*
X153399954Y-106160858D01*
X153269432Y-106347265D01*
X153269431Y-106347267D01*
X153173261Y-106553502D01*
X153173258Y-106553511D01*
X153114366Y-106773302D01*
X153114364Y-106773313D01*
X153094532Y-106999998D01*
X153094532Y-107000001D01*
X153114364Y-107226686D01*
X153114366Y-107226697D01*
X153173258Y-107446488D01*
X153173261Y-107446497D01*
X153269431Y-107652732D01*
X153269432Y-107652734D01*
X153399954Y-107839141D01*
X153560858Y-108000045D01*
X153560861Y-108000047D01*
X153747266Y-108130568D01*
X153953504Y-108226739D01*
X154173308Y-108285635D01*
X154335230Y-108299801D01*
X154399998Y-108305468D01*
X154400000Y-108305468D01*
X154400001Y-108305468D01*
X154420062Y-108303712D01*
X154566861Y-108290869D01*
X154635359Y-108304635D01*
X154665348Y-108326716D01*
X155213181Y-108874549D01*
X155246666Y-108935872D01*
X155249500Y-108962230D01*
X155249500Y-109769007D01*
X155229815Y-109836046D01*
X155177011Y-109881801D01*
X155107853Y-109891745D01*
X155057583Y-109871854D01*
X155057420Y-109872138D01*
X155055501Y-109871030D01*
X155054386Y-109870589D01*
X155052734Y-109869432D01*
X154981138Y-109836046D01*
X154846497Y-109773261D01*
X154846488Y-109773258D01*
X154626697Y-109714366D01*
X154626693Y-109714365D01*
X154626692Y-109714365D01*
X154626691Y-109714364D01*
X154626686Y-109714364D01*
X154400002Y-109694532D01*
X154399998Y-109694532D01*
X154173313Y-109714364D01*
X154173302Y-109714366D01*
X153953511Y-109773258D01*
X153953502Y-109773261D01*
X153747267Y-109869431D01*
X153747265Y-109869432D01*
X153560858Y-109999954D01*
X153399954Y-110160858D01*
X153269432Y-110347265D01*
X153269431Y-110347267D01*
X153173261Y-110553502D01*
X153173258Y-110553511D01*
X153114366Y-110773302D01*
X153114364Y-110773313D01*
X153094532Y-110999998D01*
X153094532Y-111000001D01*
X153114364Y-111226686D01*
X153114366Y-111226697D01*
X153173258Y-111446488D01*
X153173261Y-111446497D01*
X153269431Y-111652732D01*
X153269432Y-111652734D01*
X153399954Y-111839141D01*
X153560858Y-112000045D01*
X153560861Y-112000047D01*
X153747266Y-112130568D01*
X153953504Y-112226739D01*
X154173308Y-112285635D01*
X154335230Y-112299801D01*
X154399998Y-112305468D01*
X154400000Y-112305468D01*
X154400002Y-112305468D01*
X154456673Y-112300509D01*
X154626692Y-112285635D01*
X154846496Y-112226739D01*
X155052734Y-112130568D01*
X155054377Y-112129417D01*
X155055216Y-112129134D01*
X155057420Y-112127862D01*
X155057675Y-112128304D01*
X155120581Y-112107090D01*
X155188348Y-112124099D01*
X155236162Y-112175046D01*
X155249500Y-112230992D01*
X155249500Y-114325023D01*
X155229815Y-114392062D01*
X155177011Y-114437817D01*
X155107853Y-114447761D01*
X155054378Y-114426599D01*
X154973352Y-114369865D01*
X154972734Y-114369432D01*
X154972732Y-114369431D01*
X154766497Y-114273261D01*
X154766488Y-114273258D01*
X154546697Y-114214366D01*
X154546693Y-114214365D01*
X154546692Y-114214365D01*
X154546691Y-114214364D01*
X154546686Y-114214364D01*
X154320002Y-114194532D01*
X154319998Y-114194532D01*
X154093313Y-114214364D01*
X154093302Y-114214366D01*
X153873511Y-114273258D01*
X153873502Y-114273261D01*
X153667267Y-114369431D01*
X153667265Y-114369432D01*
X153480858Y-114499954D01*
X153319954Y-114660858D01*
X153189432Y-114847265D01*
X153189431Y-114847267D01*
X153093261Y-115053502D01*
X153093258Y-115053511D01*
X153034366Y-115273302D01*
X153034364Y-115273313D01*
X153014532Y-115499998D01*
X153014532Y-115500001D01*
X153034364Y-115726686D01*
X153034366Y-115726697D01*
X153093258Y-115946488D01*
X153093261Y-115946497D01*
X153189431Y-116152732D01*
X153189432Y-116152734D01*
X153319954Y-116339141D01*
X153480858Y-116500045D01*
X153480861Y-116500047D01*
X153667266Y-116630568D01*
X153873504Y-116726739D01*
X154093308Y-116785635D01*
X154255230Y-116799801D01*
X154319998Y-116805468D01*
X154320000Y-116805468D01*
X154320002Y-116805468D01*
X154376673Y-116800509D01*
X154546692Y-116785635D01*
X154766496Y-116726739D01*
X154972734Y-116630568D01*
X155054378Y-116573400D01*
X155120583Y-116551074D01*
X155188350Y-116568084D01*
X155236163Y-116619032D01*
X155249500Y-116674976D01*
X155249500Y-118453918D01*
X155249500Y-118453920D01*
X155249499Y-118453920D01*
X155278340Y-118598907D01*
X155278343Y-118598917D01*
X155334913Y-118735490D01*
X155334914Y-118735492D01*
X155334915Y-118735494D01*
X155334916Y-118735495D01*
X155365380Y-118781087D01*
X155411759Y-118850500D01*
X155417048Y-118858416D01*
X156693282Y-120134650D01*
X156726767Y-120195973D01*
X156729129Y-120233137D01*
X156714532Y-120399996D01*
X156714532Y-120400003D01*
X156729129Y-120566861D01*
X156715362Y-120635360D01*
X156693282Y-120665348D01*
X156345451Y-121013181D01*
X156284128Y-121046666D01*
X156257770Y-121049500D01*
X155409049Y-121049500D01*
X155342010Y-121029815D01*
X155296255Y-120977011D01*
X155286311Y-120907853D01*
X155315336Y-120844297D01*
X155319220Y-120840124D01*
X155320043Y-120839144D01*
X155347452Y-120800000D01*
X155450568Y-120652734D01*
X155546739Y-120446496D01*
X155605635Y-120226692D01*
X155625468Y-120000000D01*
X155605635Y-119773308D01*
X155549100Y-119562314D01*
X155546741Y-119553511D01*
X155546738Y-119553502D01*
X155475137Y-119399954D01*
X155450568Y-119347266D01*
X155329061Y-119173734D01*
X155320045Y-119160858D01*
X155159141Y-118999954D01*
X154972734Y-118869432D01*
X154972732Y-118869431D01*
X154766497Y-118773261D01*
X154766488Y-118773258D01*
X154546697Y-118714366D01*
X154546693Y-118714365D01*
X154546692Y-118714365D01*
X154546691Y-118714364D01*
X154546686Y-118714364D01*
X154320002Y-118694532D01*
X154319997Y-118694532D01*
X154153137Y-118709129D01*
X154084637Y-118695362D01*
X154054650Y-118673282D01*
X146059049Y-110677681D01*
X146025564Y-110616358D01*
X146030548Y-110546666D01*
X146059049Y-110502319D01*
X153102950Y-103458418D01*
X153102952Y-103458416D01*
X153139215Y-103404143D01*
X153175726Y-103349501D01*
X153178845Y-103344831D01*
X153185084Y-103335495D01*
X153241658Y-103198913D01*
X153256692Y-103123336D01*
X153270500Y-103053920D01*
X153270500Y-102761417D01*
X153290185Y-102694378D01*
X153321615Y-102661099D01*
X153369562Y-102626264D01*
X153397019Y-102606315D01*
X153462825Y-102582835D01*
X153530879Y-102598661D01*
X153557585Y-102618952D01*
X156583628Y-105644996D01*
X156617113Y-105706319D01*
X156619475Y-105743481D01*
X156614532Y-105799994D01*
X156614532Y-105800001D01*
X156634364Y-106026686D01*
X156634366Y-106026697D01*
X156693258Y-106246488D01*
X156693261Y-106246497D01*
X156789431Y-106452732D01*
X156789432Y-106452734D01*
X156919954Y-106639141D01*
X157080858Y-106800045D01*
X157080861Y-106800047D01*
X157267266Y-106930568D01*
X157473504Y-107026739D01*
X157693308Y-107085635D01*
X157755094Y-107091040D01*
X157820161Y-107116492D01*
X157831967Y-107126887D01*
X159139735Y-108434655D01*
X159139764Y-108434686D01*
X159282214Y-108577136D01*
X159282218Y-108577139D01*
X159446079Y-108686628D01*
X159446092Y-108686635D01*
X159574833Y-108739961D01*
X159600277Y-108750500D01*
X159628164Y-108762051D01*
X159720913Y-108780500D01*
X159746049Y-108785500D01*
X159821456Y-108800500D01*
X159821459Y-108800500D01*
X166068543Y-108800500D01*
X166135571Y-108787166D01*
X166169087Y-108780500D01*
X166261836Y-108762051D01*
X166315165Y-108739961D01*
X166443914Y-108686632D01*
X166607782Y-108577139D01*
X166747139Y-108437782D01*
X166747139Y-108437780D01*
X166757347Y-108427573D01*
X166757349Y-108427570D01*
X167648101Y-107536818D01*
X167709424Y-107503333D01*
X167735782Y-107500499D01*
X170470000Y-107500499D01*
X170470006Y-107500499D01*
X170572796Y-107489999D01*
X170739333Y-107434814D01*
X170888655Y-107342711D01*
X171012711Y-107218655D01*
X171104814Y-107069333D01*
X171159999Y-106902796D01*
X171170500Y-106800007D01*
X171170500Y-106174500D01*
X171190185Y-106107461D01*
X171242989Y-106061706D01*
X171294500Y-106050500D01*
X172545501Y-106050500D01*
X172612540Y-106070185D01*
X172658295Y-106122989D01*
X172669501Y-106174500D01*
X172669501Y-106800016D01*
X172680000Y-106902795D01*
X172680001Y-106902798D01*
X172735185Y-107069330D01*
X172735187Y-107069335D01*
X172754631Y-107100858D01*
X172827289Y-107218655D01*
X172951345Y-107342711D01*
X173100667Y-107434814D01*
X173267204Y-107489999D01*
X173369993Y-107500500D01*
X176870006Y-107500499D01*
X176972796Y-107489999D01*
X177139333Y-107434814D01*
X177288655Y-107342711D01*
X177412711Y-107218655D01*
X177504814Y-107069333D01*
X177559999Y-106902796D01*
X177570500Y-106800007D01*
X177570499Y-103299994D01*
X177559999Y-103197204D01*
X177504814Y-103030667D01*
X177412711Y-102881345D01*
X177288655Y-102757289D01*
X177139333Y-102665186D01*
X176972796Y-102610001D01*
X176972794Y-102610000D01*
X176870014Y-102599500D01*
X176870007Y-102599500D01*
X176244500Y-102599500D01*
X176177461Y-102579815D01*
X176131706Y-102527011D01*
X176120500Y-102475500D01*
X176120500Y-101024499D01*
X176140185Y-100957460D01*
X176192989Y-100911705D01*
X176244500Y-100900499D01*
X176870000Y-100900499D01*
X176870006Y-100900499D01*
X176972796Y-100889999D01*
X177139333Y-100834814D01*
X177288655Y-100742711D01*
X177412711Y-100618655D01*
X177504814Y-100469333D01*
X177559999Y-100302796D01*
X177570500Y-100200007D01*
X177570499Y-96699994D01*
X177559999Y-96597204D01*
X177504814Y-96430667D01*
X177412711Y-96281345D01*
X177288655Y-96157289D01*
X177195890Y-96100071D01*
X177139335Y-96065187D01*
X177139330Y-96065185D01*
X177098336Y-96051601D01*
X176972796Y-96010001D01*
X176972794Y-96010000D01*
X176870014Y-95999500D01*
X176870007Y-95999500D01*
X176244500Y-95999500D01*
X176177461Y-95979815D01*
X176131706Y-95927011D01*
X176120500Y-95875500D01*
X176120500Y-93624499D01*
X176140185Y-93557460D01*
X176192989Y-93511705D01*
X176244500Y-93500499D01*
X176870000Y-93500499D01*
X176870006Y-93500499D01*
X176972796Y-93489999D01*
X177139333Y-93434814D01*
X177288655Y-93342711D01*
X177412711Y-93218655D01*
X177504814Y-93069333D01*
X177559999Y-92902796D01*
X177570500Y-92800007D01*
X177570499Y-89299994D01*
X177565391Y-89249994D01*
X177559999Y-89197204D01*
X177559998Y-89197201D01*
X177543431Y-89147205D01*
X177504814Y-89030667D01*
X177412711Y-88881345D01*
X177288655Y-88757289D01*
X177139333Y-88665186D01*
X176972796Y-88610001D01*
X176972794Y-88610000D01*
X176870008Y-88599500D01*
X173370000Y-88599500D01*
X173369983Y-88599501D01*
X173267204Y-88610000D01*
X173267201Y-88610001D01*
X173100669Y-88665185D01*
X173100664Y-88665187D01*
X172951343Y-88757290D01*
X172827290Y-88881343D01*
X172735187Y-89030664D01*
X172735186Y-89030667D01*
X172680001Y-89197204D01*
X172680001Y-89197205D01*
X172680000Y-89197205D01*
X172669500Y-89299985D01*
X172669500Y-89875500D01*
X172649815Y-89942539D01*
X172597011Y-89988294D01*
X172545500Y-89999500D01*
X171494499Y-89999500D01*
X171427460Y-89979815D01*
X171381705Y-89927011D01*
X171370499Y-89875500D01*
X171370499Y-89250000D01*
X171370498Y-89249983D01*
X171359999Y-89147204D01*
X171359998Y-89147201D01*
X171321381Y-89030664D01*
X171304814Y-88980667D01*
X171212711Y-88831345D01*
X171088655Y-88707289D01*
X170939333Y-88615186D01*
X170772796Y-88560001D01*
X170772794Y-88560000D01*
X170670008Y-88549500D01*
X167170000Y-88549500D01*
X167169983Y-88549501D01*
X167067204Y-88560000D01*
X167067201Y-88560001D01*
X166900669Y-88615185D01*
X166900664Y-88615187D01*
X166751343Y-88707290D01*
X166627290Y-88831343D01*
X166535187Y-88980664D01*
X166535185Y-88980669D01*
X166518617Y-89030669D01*
X166480001Y-89147204D01*
X166480001Y-89147205D01*
X166480000Y-89147205D01*
X166469500Y-89249985D01*
X166469500Y-92749999D01*
X166469501Y-92750016D01*
X166480000Y-92852795D01*
X166480001Y-92852798D01*
X166535185Y-93019330D01*
X166535186Y-93019333D01*
X166627289Y-93168655D01*
X166751345Y-93292711D01*
X166900667Y-93384814D01*
X167067204Y-93439999D01*
X167169993Y-93450500D01*
X170670006Y-93450499D01*
X170772796Y-93439999D01*
X170939333Y-93384814D01*
X171088655Y-93292711D01*
X171212711Y-93168655D01*
X171304814Y-93019333D01*
X171359999Y-92852796D01*
X171370500Y-92750007D01*
X171370500Y-92124500D01*
X171390185Y-92057461D01*
X171442989Y-92011706D01*
X171494500Y-92000500D01*
X172545501Y-92000500D01*
X172612540Y-92020185D01*
X172658295Y-92072989D01*
X172669501Y-92124500D01*
X172669501Y-92800016D01*
X172680000Y-92902795D01*
X172680001Y-92902798D01*
X172718618Y-93019335D01*
X172735186Y-93069333D01*
X172827289Y-93218655D01*
X172951345Y-93342711D01*
X173100667Y-93434814D01*
X173267204Y-93489999D01*
X173369993Y-93500500D01*
X173995500Y-93500499D01*
X174062539Y-93520183D01*
X174108294Y-93572987D01*
X174119500Y-93624499D01*
X174119500Y-95875500D01*
X174099815Y-95942539D01*
X174047011Y-95988294D01*
X173995500Y-95999500D01*
X173370000Y-95999500D01*
X173369982Y-95999501D01*
X173267204Y-96010000D01*
X173267201Y-96010001D01*
X173100669Y-96065185D01*
X173100664Y-96065187D01*
X172951343Y-96157290D01*
X172827290Y-96281343D01*
X172735187Y-96430664D01*
X172735186Y-96430667D01*
X172680001Y-96597204D01*
X172680001Y-96597205D01*
X172680000Y-96597205D01*
X172669500Y-96699985D01*
X172669500Y-97325500D01*
X172649815Y-97392539D01*
X172597011Y-97438294D01*
X172545500Y-97449500D01*
X171294499Y-97449500D01*
X171227460Y-97429815D01*
X171181705Y-97377011D01*
X171170499Y-97325500D01*
X171170499Y-96700000D01*
X171170498Y-96699983D01*
X171159999Y-96597204D01*
X171159998Y-96597201D01*
X171152079Y-96573302D01*
X171104814Y-96430667D01*
X171012711Y-96281345D01*
X170888655Y-96157289D01*
X170795890Y-96100071D01*
X170739335Y-96065187D01*
X170739330Y-96065185D01*
X170698336Y-96051601D01*
X170572796Y-96010001D01*
X170572794Y-96010000D01*
X170470008Y-95999500D01*
X166970000Y-95999500D01*
X166969983Y-95999501D01*
X166867204Y-96010000D01*
X166867201Y-96010001D01*
X166700669Y-96065185D01*
X166700664Y-96065187D01*
X166551343Y-96157290D01*
X166427290Y-96281343D01*
X166335187Y-96430664D01*
X166335186Y-96430667D01*
X166280001Y-96597204D01*
X166280001Y-96597205D01*
X166280000Y-96597205D01*
X166269500Y-96699985D01*
X166269500Y-100199999D01*
X166269501Y-100200016D01*
X166280000Y-100302795D01*
X166280001Y-100302798D01*
X166335185Y-100469330D01*
X166335186Y-100469333D01*
X166427289Y-100618655D01*
X166551345Y-100742711D01*
X166700667Y-100834814D01*
X166867204Y-100889999D01*
X166969993Y-100900500D01*
X170470006Y-100900499D01*
X170572796Y-100889999D01*
X170739333Y-100834814D01*
X170888655Y-100742711D01*
X171012711Y-100618655D01*
X171104814Y-100469333D01*
X171159999Y-100302796D01*
X171170500Y-100200007D01*
X171170500Y-99574500D01*
X171190185Y-99507461D01*
X171242989Y-99461706D01*
X171294500Y-99450500D01*
X172545501Y-99450500D01*
X172612540Y-99470185D01*
X172658295Y-99522989D01*
X172669501Y-99574500D01*
X172669501Y-100200016D01*
X172680000Y-100302795D01*
X172680001Y-100302798D01*
X172735185Y-100469330D01*
X172735186Y-100469333D01*
X172827289Y-100618655D01*
X172951345Y-100742711D01*
X173100667Y-100834814D01*
X173267204Y-100889999D01*
X173369993Y-100900500D01*
X173995500Y-100900499D01*
X174062539Y-100920183D01*
X174108294Y-100972987D01*
X174119500Y-101024499D01*
X174119500Y-102475500D01*
X174099815Y-102542539D01*
X174047011Y-102588294D01*
X173995500Y-102599500D01*
X173370000Y-102599500D01*
X173369982Y-102599501D01*
X173267204Y-102610000D01*
X173267201Y-102610001D01*
X173100669Y-102665185D01*
X173100664Y-102665187D01*
X172951343Y-102757290D01*
X172827290Y-102881343D01*
X172735187Y-103030664D01*
X172735185Y-103030669D01*
X172707349Y-103114671D01*
X172680001Y-103197204D01*
X172680001Y-103197205D01*
X172680000Y-103197205D01*
X172669500Y-103299985D01*
X172669500Y-103925500D01*
X172649815Y-103992539D01*
X172597011Y-104038294D01*
X172545500Y-104049500D01*
X171294499Y-104049500D01*
X171227460Y-104029815D01*
X171181705Y-103977011D01*
X171170499Y-103925500D01*
X171170499Y-103300000D01*
X171170498Y-103299983D01*
X171159999Y-103197204D01*
X171159998Y-103197201D01*
X171151094Y-103170332D01*
X171104814Y-103030667D01*
X171012711Y-102881345D01*
X170888655Y-102757289D01*
X170739333Y-102665186D01*
X170572796Y-102610001D01*
X170572794Y-102610000D01*
X170470008Y-102599500D01*
X166970000Y-102599500D01*
X166969983Y-102599501D01*
X166867204Y-102610000D01*
X166867201Y-102610001D01*
X166700669Y-102665185D01*
X166700664Y-102665187D01*
X166551343Y-102757290D01*
X166427290Y-102881343D01*
X166335187Y-103030664D01*
X166335185Y-103030669D01*
X166307349Y-103114671D01*
X166280001Y-103197204D01*
X166280001Y-103197205D01*
X166280000Y-103197205D01*
X166269500Y-103299985D01*
X166269500Y-106034216D01*
X166249815Y-106101255D01*
X166233180Y-106121897D01*
X165750704Y-106604376D01*
X165591899Y-106763181D01*
X165530576Y-106796666D01*
X165504218Y-106799500D01*
X164045351Y-106799500D01*
X163978312Y-106779815D01*
X163932557Y-106727011D01*
X163922613Y-106657853D01*
X163943776Y-106604376D01*
X164050134Y-106452482D01*
X164146265Y-106246326D01*
X164146269Y-106246317D01*
X164205139Y-106026610D01*
X164205141Y-106026599D01*
X164224966Y-105800002D01*
X164224966Y-105799997D01*
X164205141Y-105573400D01*
X164205139Y-105573389D01*
X164146269Y-105353682D01*
X164146264Y-105353668D01*
X164050136Y-105147521D01*
X164050132Y-105147513D01*
X163999025Y-105074526D01*
X163320000Y-105753551D01*
X163320000Y-105747339D01*
X163292741Y-105645606D01*
X163240080Y-105554394D01*
X163165606Y-105479920D01*
X163074394Y-105427259D01*
X162972661Y-105400000D01*
X162966448Y-105400000D01*
X163645472Y-104720974D01*
X163572478Y-104669863D01*
X163366331Y-104573735D01*
X163366317Y-104573730D01*
X163146610Y-104514860D01*
X163146599Y-104514858D01*
X162920002Y-104495034D01*
X162919998Y-104495034D01*
X162693400Y-104514858D01*
X162693389Y-104514860D01*
X162473682Y-104573730D01*
X162473673Y-104573734D01*
X162267516Y-104669866D01*
X162267512Y-104669868D01*
X162194526Y-104720973D01*
X162194526Y-104720974D01*
X162873553Y-105400000D01*
X162867339Y-105400000D01*
X162765606Y-105427259D01*
X162674394Y-105479920D01*
X162599920Y-105554394D01*
X162547259Y-105645606D01*
X162520000Y-105747339D01*
X162520000Y-105753552D01*
X161840974Y-105074526D01*
X161840973Y-105074526D01*
X161789868Y-105147512D01*
X161789866Y-105147516D01*
X161693734Y-105353673D01*
X161693730Y-105353682D01*
X161634860Y-105573389D01*
X161634858Y-105573400D01*
X161615034Y-105799997D01*
X161615034Y-105800002D01*
X161634858Y-106026599D01*
X161634860Y-106026610D01*
X161693730Y-106246317D01*
X161693734Y-106246326D01*
X161789865Y-106452482D01*
X161896224Y-106604376D01*
X161918551Y-106670582D01*
X161901541Y-106738350D01*
X161850593Y-106786163D01*
X161794649Y-106799500D01*
X160385782Y-106799500D01*
X160318743Y-106779815D01*
X160298101Y-106763181D01*
X159246887Y-105711967D01*
X159213402Y-105650644D01*
X159211040Y-105635093D01*
X159209461Y-105617050D01*
X159205635Y-105573308D01*
X159153991Y-105380568D01*
X159146741Y-105353511D01*
X159146738Y-105353502D01*
X159098495Y-105250045D01*
X159050568Y-105147266D01*
X158930277Y-104975471D01*
X158920045Y-104960858D01*
X158759141Y-104799954D01*
X158572734Y-104669432D01*
X158572732Y-104669431D01*
X158366497Y-104573261D01*
X158366488Y-104573258D01*
X158146697Y-104514366D01*
X158146693Y-104514365D01*
X158146692Y-104514365D01*
X158146691Y-104514364D01*
X158146686Y-104514364D01*
X157920002Y-104494532D01*
X157919999Y-104494532D01*
X157693313Y-104514364D01*
X157693297Y-104514367D01*
X157669724Y-104520683D01*
X157599875Y-104519017D01*
X157549955Y-104488588D01*
X154461367Y-101399998D01*
X156514532Y-101399998D01*
X156514532Y-101400001D01*
X156534364Y-101626686D01*
X156534366Y-101626697D01*
X156593258Y-101846488D01*
X156593261Y-101846497D01*
X156689431Y-102052732D01*
X156689432Y-102052734D01*
X156819954Y-102239141D01*
X156980858Y-102400045D01*
X156980861Y-102400047D01*
X157167266Y-102530568D01*
X157373504Y-102626739D01*
X157593308Y-102685635D01*
X157755230Y-102699801D01*
X157819998Y-102705468D01*
X157820000Y-102705468D01*
X157820002Y-102705468D01*
X157876673Y-102700509D01*
X158046692Y-102685635D01*
X158266496Y-102626739D01*
X158472734Y-102530568D01*
X158659139Y-102400047D01*
X158820047Y-102239139D01*
X158950568Y-102052734D01*
X159046739Y-101846496D01*
X159105635Y-101626692D01*
X159125468Y-101400000D01*
X159125468Y-101399997D01*
X161515034Y-101399997D01*
X161515034Y-101400002D01*
X161534858Y-101626599D01*
X161534860Y-101626610D01*
X161593730Y-101846317D01*
X161593735Y-101846331D01*
X161689863Y-102052478D01*
X161740974Y-102125472D01*
X162420000Y-101446446D01*
X162420000Y-101452661D01*
X162447259Y-101554394D01*
X162499920Y-101645606D01*
X162574394Y-101720080D01*
X162665606Y-101772741D01*
X162767339Y-101800000D01*
X162773553Y-101800000D01*
X162094526Y-102479025D01*
X162167513Y-102530132D01*
X162167521Y-102530136D01*
X162373668Y-102626264D01*
X162373682Y-102626269D01*
X162593389Y-102685139D01*
X162593400Y-102685141D01*
X162819998Y-102704966D01*
X162820002Y-102704966D01*
X163046599Y-102685141D01*
X163046610Y-102685139D01*
X163266317Y-102626269D01*
X163266331Y-102626264D01*
X163472478Y-102530136D01*
X163545471Y-102479024D01*
X162866447Y-101800000D01*
X162872661Y-101800000D01*
X162974394Y-101772741D01*
X163065606Y-101720080D01*
X163140080Y-101645606D01*
X163192741Y-101554394D01*
X163220000Y-101452661D01*
X163220000Y-101446447D01*
X163899024Y-102125471D01*
X163950136Y-102052478D01*
X164046264Y-101846331D01*
X164046269Y-101846317D01*
X164105139Y-101626610D01*
X164105141Y-101626599D01*
X164124966Y-101400002D01*
X164124966Y-101399997D01*
X164105141Y-101173400D01*
X164105139Y-101173389D01*
X164046269Y-100953682D01*
X164046264Y-100953668D01*
X163950136Y-100747521D01*
X163950132Y-100747513D01*
X163899025Y-100674526D01*
X163220000Y-101353551D01*
X163220000Y-101347339D01*
X163192741Y-101245606D01*
X163140080Y-101154394D01*
X163065606Y-101079920D01*
X162974394Y-101027259D01*
X162872661Y-101000000D01*
X162866448Y-101000000D01*
X163545472Y-100320974D01*
X163472478Y-100269863D01*
X163266331Y-100173735D01*
X163266317Y-100173730D01*
X163046610Y-100114860D01*
X163046599Y-100114858D01*
X162820002Y-100095034D01*
X162819998Y-100095034D01*
X162593400Y-100114858D01*
X162593389Y-100114860D01*
X162373682Y-100173730D01*
X162373673Y-100173734D01*
X162167516Y-100269866D01*
X162167512Y-100269868D01*
X162094526Y-100320973D01*
X162094526Y-100320974D01*
X162773553Y-101000000D01*
X162767339Y-101000000D01*
X162665606Y-101027259D01*
X162574394Y-101079920D01*
X162499920Y-101154394D01*
X162447259Y-101245606D01*
X162420000Y-101347339D01*
X162420000Y-101353552D01*
X161740974Y-100674526D01*
X161740973Y-100674526D01*
X161689868Y-100747512D01*
X161689866Y-100747516D01*
X161593734Y-100953673D01*
X161593730Y-100953682D01*
X161534860Y-101173389D01*
X161534858Y-101173400D01*
X161515034Y-101399997D01*
X159125468Y-101399997D01*
X159105635Y-101173308D01*
X159054508Y-100982499D01*
X159046741Y-100953511D01*
X159046738Y-100953502D01*
X159027248Y-100911705D01*
X158950568Y-100747266D01*
X158820047Y-100560861D01*
X158820045Y-100560858D01*
X158659141Y-100399954D01*
X158472734Y-100269432D01*
X158472732Y-100269431D01*
X158266497Y-100173261D01*
X158266488Y-100173258D01*
X158046697Y-100114366D01*
X158046693Y-100114365D01*
X158046692Y-100114365D01*
X158046691Y-100114364D01*
X158046686Y-100114364D01*
X157820002Y-100094532D01*
X157819998Y-100094532D01*
X157593313Y-100114364D01*
X157593302Y-100114366D01*
X157373511Y-100173258D01*
X157373502Y-100173261D01*
X157167267Y-100269431D01*
X157167265Y-100269432D01*
X156980858Y-100399954D01*
X156819954Y-100560858D01*
X156689432Y-100747265D01*
X156689431Y-100747267D01*
X156593261Y-100953502D01*
X156593258Y-100953511D01*
X156534366Y-101173302D01*
X156534364Y-101173313D01*
X156514532Y-101399998D01*
X154461367Y-101399998D01*
X153891279Y-100829910D01*
X153868475Y-100798524D01*
X153856366Y-100774759D01*
X153762717Y-100590962D01*
X153628286Y-100405934D01*
X153466566Y-100244214D01*
X153281538Y-100109783D01*
X153255755Y-100096646D01*
X153077755Y-100005950D01*
X152860248Y-99935278D01*
X152673290Y-99905667D01*
X152634354Y-99899500D01*
X152405646Y-99899500D01*
X152366710Y-99905667D01*
X152179753Y-99935278D01*
X152179750Y-99935278D01*
X151962244Y-100005950D01*
X151758461Y-100109783D01*
X151692550Y-100157671D01*
X151573434Y-100244214D01*
X151573432Y-100244216D01*
X151573431Y-100244216D01*
X151411716Y-100405931D01*
X151411709Y-100405940D01*
X151350007Y-100490864D01*
X151294677Y-100533530D01*
X151225063Y-100539508D01*
X151163269Y-100506901D01*
X151149372Y-100490863D01*
X151087907Y-100406263D01*
X151087902Y-100406257D01*
X150926242Y-100244597D01*
X150741276Y-100110211D01*
X150537568Y-100006417D01*
X150320124Y-99935765D01*
X150230000Y-99921490D01*
X150230000Y-100909252D01*
X150192292Y-100887482D01*
X150052409Y-100850000D01*
X149907591Y-100850000D01*
X149767708Y-100887482D01*
X149730000Y-100909252D01*
X149730000Y-99921490D01*
X149729999Y-99921490D01*
X149639875Y-99935765D01*
X149422431Y-100006417D01*
X149218719Y-100110213D01*
X149035939Y-100243010D01*
X148970132Y-100266490D01*
X148902079Y-100250664D01*
X148853384Y-100200558D01*
X148846875Y-100186033D01*
X148836296Y-100157669D01*
X148836295Y-100157667D01*
X148836293Y-100157664D01*
X148750047Y-100042455D01*
X148750044Y-100042452D01*
X148634835Y-99956206D01*
X148634828Y-99956202D01*
X148499982Y-99905908D01*
X148499983Y-99905908D01*
X148440383Y-99899501D01*
X148440381Y-99899500D01*
X148440373Y-99899500D01*
X148440364Y-99899500D01*
X146439629Y-99899500D01*
X146439623Y-99899501D01*
X146380016Y-99905908D01*
X146245171Y-99956202D01*
X146245164Y-99956206D01*
X146129955Y-100042452D01*
X146129952Y-100042455D01*
X146043706Y-100157664D01*
X146043702Y-100157671D01*
X145993408Y-100292517D01*
X145987001Y-100352116D01*
X145987000Y-100352135D01*
X145987000Y-102447870D01*
X145987001Y-102447876D01*
X145993408Y-102507483D01*
X146043702Y-102642328D01*
X146043706Y-102642335D01*
X146129952Y-102757544D01*
X146129955Y-102757547D01*
X146245164Y-102843793D01*
X146245171Y-102843797D01*
X146380017Y-102894091D01*
X146380016Y-102894091D01*
X146386944Y-102894835D01*
X146439627Y-102900500D01*
X148440372Y-102900499D01*
X148499983Y-102894091D01*
X148634831Y-102843796D01*
X148750046Y-102757546D01*
X148836296Y-102642331D01*
X148846872Y-102613974D01*
X148888740Y-102558041D01*
X148954204Y-102533622D01*
X149022477Y-102548472D01*
X149035940Y-102556988D01*
X149218723Y-102689788D01*
X149422429Y-102793582D01*
X149639871Y-102864234D01*
X149730000Y-102878509D01*
X149730000Y-101890747D01*
X149767708Y-101912518D01*
X149907591Y-101950000D01*
X150052409Y-101950000D01*
X150192292Y-101912518D01*
X150230000Y-101890747D01*
X150230000Y-102878508D01*
X150320128Y-102864234D01*
X150537570Y-102793582D01*
X150741276Y-102689788D01*
X150926242Y-102555402D01*
X151087905Y-102393739D01*
X151149371Y-102309137D01*
X151204701Y-102266470D01*
X151274314Y-102260491D01*
X151336109Y-102293096D01*
X151350007Y-102309134D01*
X151411714Y-102394066D01*
X151573434Y-102555786D01*
X151576538Y-102558041D01*
X151635185Y-102600652D01*
X151677851Y-102655982D01*
X151683829Y-102725595D01*
X151651223Y-102787390D01*
X151649980Y-102788650D01*
X144720457Y-109718173D01*
X144659134Y-109751658D01*
X144600683Y-109750267D01*
X144466697Y-109714366D01*
X144466693Y-109714365D01*
X144466692Y-109714365D01*
X144466691Y-109714364D01*
X144466686Y-109714364D01*
X144240002Y-109694532D01*
X144239998Y-109694532D01*
X144013313Y-109714364D01*
X144013302Y-109714366D01*
X143793511Y-109773258D01*
X143793502Y-109773261D01*
X143587267Y-109869431D01*
X143587265Y-109869432D01*
X143400858Y-109999954D01*
X143239954Y-110160858D01*
X143109432Y-110347265D01*
X143109431Y-110347267D01*
X143013261Y-110553502D01*
X143013258Y-110553511D01*
X142954366Y-110773302D01*
X142954364Y-110773313D01*
X142934532Y-110999998D01*
X142934532Y-111000001D01*
X142954364Y-111226686D01*
X142954366Y-111226697D01*
X143013258Y-111446488D01*
X143013261Y-111446497D01*
X143109431Y-111652732D01*
X143109432Y-111652734D01*
X143239954Y-111839141D01*
X143400858Y-112000045D01*
X143400861Y-112000047D01*
X143587266Y-112130568D01*
X143793504Y-112226739D01*
X144013308Y-112285635D01*
X144175230Y-112299801D01*
X144239998Y-112305468D01*
X144240000Y-112305468D01*
X144240002Y-112305468D01*
X144296673Y-112300509D01*
X144466692Y-112285635D01*
X144686496Y-112226739D01*
X144892734Y-112130568D01*
X145079139Y-112000047D01*
X145081222Y-111997963D01*
X145082370Y-111997336D01*
X145083289Y-111996566D01*
X145083443Y-111996750D01*
X145142541Y-111964475D01*
X145212233Y-111969454D01*
X145256590Y-111997958D01*
X152993282Y-119734650D01*
X153026767Y-119795973D01*
X153029129Y-119833137D01*
X153014532Y-119999996D01*
X153014532Y-120000001D01*
X153034364Y-120226686D01*
X153034366Y-120226697D01*
X153093258Y-120446488D01*
X153093261Y-120446497D01*
X153189431Y-120652732D01*
X153189432Y-120652734D01*
X153319956Y-120839144D01*
X153323434Y-120843289D01*
X153322189Y-120844333D01*
X153352117Y-120899142D01*
X153347133Y-120968834D01*
X153305261Y-121024767D01*
X153239797Y-121049184D01*
X153230951Y-121049500D01*
X146322229Y-121049500D01*
X146255190Y-121029815D01*
X146234548Y-121013181D01*
X145486716Y-120265348D01*
X145453231Y-120204025D01*
X145450869Y-120166863D01*
X145465468Y-120000000D01*
X145445635Y-119773308D01*
X145389100Y-119562314D01*
X145386741Y-119553511D01*
X145386738Y-119553502D01*
X145315137Y-119399954D01*
X145290568Y-119347266D01*
X145169061Y-119173734D01*
X145160045Y-119160858D01*
X144999141Y-118999954D01*
X144812734Y-118869432D01*
X144812732Y-118869431D01*
X144606497Y-118773261D01*
X144606488Y-118773258D01*
X144386697Y-118714366D01*
X144386693Y-118714365D01*
X144386692Y-118714365D01*
X144386691Y-118714364D01*
X144386686Y-118714364D01*
X144160002Y-118694532D01*
X144159998Y-118694532D01*
X143933313Y-118714364D01*
X143933302Y-118714366D01*
X143713511Y-118773258D01*
X143713502Y-118773261D01*
X143507267Y-118869431D01*
X143507265Y-118869432D01*
X143320858Y-118999954D01*
X143159954Y-119160858D01*
X143029432Y-119347265D01*
X143029431Y-119347267D01*
X142933261Y-119553502D01*
X142933258Y-119553511D01*
X142874366Y-119773302D01*
X142874364Y-119773313D01*
X142854532Y-119999998D01*
X142854532Y-120000001D01*
X142874364Y-120226686D01*
X142874366Y-120226697D01*
X142933258Y-120446488D01*
X142933261Y-120446497D01*
X143029431Y-120652732D01*
X143029432Y-120652734D01*
X143159954Y-120839141D01*
X143320858Y-121000045D01*
X143320861Y-121000047D01*
X143507266Y-121130568D01*
X143713504Y-121226739D01*
X143933308Y-121285635D01*
X144095230Y-121299801D01*
X144159998Y-121305468D01*
X144160000Y-121305468D01*
X144160001Y-121305468D01*
X144180062Y-121303712D01*
X144326861Y-121290869D01*
X144395359Y-121304635D01*
X144425348Y-121326716D01*
X144655974Y-121557342D01*
X144736452Y-121637819D01*
X144769937Y-121699142D01*
X144764953Y-121768833D01*
X144723082Y-121824767D01*
X144657617Y-121849184D01*
X144648771Y-121849500D01*
X143762230Y-121849500D01*
X143695191Y-121829815D01*
X143674549Y-121813181D01*
X142586819Y-120725451D01*
X142553334Y-120664128D01*
X142550500Y-120637770D01*
X142550500Y-118926079D01*
X142521659Y-118781092D01*
X142521658Y-118781089D01*
X142521658Y-118781087D01*
X142509337Y-118751341D01*
X142465087Y-118644511D01*
X142465080Y-118644498D01*
X142382952Y-118521585D01*
X142345495Y-118484128D01*
X142278416Y-118417049D01*
X142099858Y-118238491D01*
X141378421Y-117517052D01*
X141378414Y-117517046D01*
X141304729Y-117467812D01*
X141304729Y-117467813D01*
X141255491Y-117434913D01*
X141118917Y-117378343D01*
X141118907Y-117378340D01*
X140973920Y-117349500D01*
X140973918Y-117349500D01*
X136626082Y-117349500D01*
X136626076Y-117349500D01*
X136597242Y-117355234D01*
X136597243Y-117355235D01*
X136481093Y-117378339D01*
X136481083Y-117378342D01*
X136401081Y-117411479D01*
X136401082Y-117411480D01*
X136401080Y-117411481D01*
X136344505Y-117434916D01*
X136295273Y-117467812D01*
X136263853Y-117488806D01*
X136221582Y-117517049D01*
X133293867Y-120444764D01*
X133232544Y-120478249D01*
X133162852Y-120473265D01*
X133106919Y-120431393D01*
X133082658Y-120367892D01*
X133065635Y-120173308D01*
X133006739Y-119953504D01*
X132910568Y-119747266D01*
X132780047Y-119560861D01*
X132780046Y-119560860D01*
X132780045Y-119560858D01*
X132619141Y-119399954D01*
X132432734Y-119269432D01*
X132432732Y-119269431D01*
X132226497Y-119173261D01*
X132226488Y-119173258D01*
X132006697Y-119114366D01*
X132006693Y-119114365D01*
X132006692Y-119114365D01*
X132006691Y-119114364D01*
X132006686Y-119114364D01*
X131780002Y-119094532D01*
X131779997Y-119094532D01*
X131613137Y-119109129D01*
X131544637Y-119095362D01*
X131514650Y-119073282D01*
X130986819Y-118545451D01*
X130953334Y-118484128D01*
X130950500Y-118457770D01*
X130950500Y-115249999D01*
X142881127Y-115249999D01*
X142881128Y-115250000D01*
X143844314Y-115250000D01*
X143839920Y-115254394D01*
X143787259Y-115345606D01*
X143760000Y-115447339D01*
X143760000Y-115552661D01*
X143787259Y-115654394D01*
X143839920Y-115745606D01*
X143844314Y-115750000D01*
X142881128Y-115750000D01*
X142933730Y-115946317D01*
X142933734Y-115946326D01*
X143029865Y-116152482D01*
X143160342Y-116338820D01*
X143321179Y-116499657D01*
X143507517Y-116630134D01*
X143713673Y-116726265D01*
X143713682Y-116726269D01*
X143909999Y-116778872D01*
X143910000Y-116778871D01*
X143910000Y-115815686D01*
X143914394Y-115820080D01*
X144005606Y-115872741D01*
X144107339Y-115900000D01*
X144212661Y-115900000D01*
X144314394Y-115872741D01*
X144405606Y-115820080D01*
X144410000Y-115815686D01*
X144410000Y-116778872D01*
X144606317Y-116726269D01*
X144606326Y-116726265D01*
X144812482Y-116630134D01*
X144998820Y-116499657D01*
X145159657Y-116338820D01*
X145290134Y-116152482D01*
X145386265Y-115946326D01*
X145386269Y-115946317D01*
X145438872Y-115750000D01*
X144475686Y-115750000D01*
X144480080Y-115745606D01*
X144532741Y-115654394D01*
X144560000Y-115552661D01*
X144560000Y-115447339D01*
X144532741Y-115345606D01*
X144480080Y-115254394D01*
X144475686Y-115250000D01*
X145438872Y-115250000D01*
X145438872Y-115249999D01*
X145386269Y-115053682D01*
X145386265Y-115053673D01*
X145290134Y-114847517D01*
X145159657Y-114661179D01*
X144998820Y-114500342D01*
X144812482Y-114369865D01*
X144606328Y-114273734D01*
X144410000Y-114221127D01*
X144410000Y-115184314D01*
X144405606Y-115179920D01*
X144314394Y-115127259D01*
X144212661Y-115100000D01*
X144107339Y-115100000D01*
X144005606Y-115127259D01*
X143914394Y-115179920D01*
X143910000Y-115184314D01*
X143910000Y-114221127D01*
X143713671Y-114273734D01*
X143507517Y-114369865D01*
X143321179Y-114500342D01*
X143160342Y-114661179D01*
X143029865Y-114847517D01*
X142933734Y-115053673D01*
X142933730Y-115053682D01*
X142881127Y-115249999D01*
X130950500Y-115249999D01*
X130950500Y-113799998D01*
X131214532Y-113799998D01*
X131214532Y-113800001D01*
X131234364Y-114026686D01*
X131234366Y-114026697D01*
X131293258Y-114246488D01*
X131293261Y-114246497D01*
X131389431Y-114452732D01*
X131389432Y-114452734D01*
X131519954Y-114639141D01*
X131680858Y-114800045D01*
X131680861Y-114800047D01*
X131867266Y-114930568D01*
X132073504Y-115026739D01*
X132293308Y-115085635D01*
X132455230Y-115099801D01*
X132519998Y-115105468D01*
X132520000Y-115105468D01*
X132520002Y-115105468D01*
X132582499Y-115100000D01*
X132746692Y-115085635D01*
X132966496Y-115026739D01*
X133172734Y-114930568D01*
X133359139Y-114800047D01*
X133520047Y-114639139D01*
X133650568Y-114452734D01*
X133746739Y-114246496D01*
X133805635Y-114026692D01*
X133823976Y-113817052D01*
X133825468Y-113800001D01*
X133825468Y-113799998D01*
X133819056Y-113726716D01*
X133805635Y-113573308D01*
X133746739Y-113353504D01*
X133650568Y-113147266D01*
X133520047Y-112960861D01*
X133520045Y-112960858D01*
X133359141Y-112799954D01*
X133172734Y-112669432D01*
X133172732Y-112669431D01*
X132966497Y-112573261D01*
X132966488Y-112573258D01*
X132746697Y-112514366D01*
X132746693Y-112514365D01*
X132746692Y-112514365D01*
X132746691Y-112514364D01*
X132746686Y-112514364D01*
X132520002Y-112494532D01*
X132519998Y-112494532D01*
X132293313Y-112514364D01*
X132293302Y-112514366D01*
X132073511Y-112573258D01*
X132073502Y-112573261D01*
X131867267Y-112669431D01*
X131867265Y-112669432D01*
X131680858Y-112799954D01*
X131519954Y-112960858D01*
X131389432Y-113147265D01*
X131389431Y-113147267D01*
X131293261Y-113353502D01*
X131293258Y-113353511D01*
X131234366Y-113573302D01*
X131234364Y-113573313D01*
X131214532Y-113799998D01*
X130950500Y-113799998D01*
X130950500Y-113406079D01*
X130921659Y-113261092D01*
X130921658Y-113261091D01*
X130921658Y-113261087D01*
X130906746Y-113225086D01*
X130865086Y-113124509D01*
X130865085Y-113124507D01*
X130832186Y-113075270D01*
X130832185Y-113075268D01*
X130782956Y-113001589D01*
X130782952Y-113001584D01*
X129846716Y-112065348D01*
X129813231Y-112004025D01*
X129810869Y-111966863D01*
X129825468Y-111800000D01*
X129805635Y-111573308D01*
X129748710Y-111360861D01*
X129746741Y-111353511D01*
X129746738Y-111353502D01*
X129731569Y-111320973D01*
X129650568Y-111147266D01*
X129547451Y-110999998D01*
X129520048Y-110960862D01*
X129453718Y-110894532D01*
X129359139Y-110799953D01*
X129354373Y-110796615D01*
X129323375Y-110774910D01*
X129279751Y-110720332D01*
X129270500Y-110673336D01*
X129270500Y-109105656D01*
X129290185Y-109038617D01*
X129323379Y-109004080D01*
X129329139Y-109000047D01*
X129490047Y-108839139D01*
X129620568Y-108652734D01*
X129716739Y-108446496D01*
X129775635Y-108226692D01*
X129795468Y-108000000D01*
X129775635Y-107773308D01*
X129728465Y-107597265D01*
X129716741Y-107553511D01*
X129716738Y-107553502D01*
X129693344Y-107503333D01*
X129620568Y-107347266D01*
X129536138Y-107226686D01*
X129490043Y-107160855D01*
X129486566Y-107156711D01*
X129487810Y-107155666D01*
X129457883Y-107100858D01*
X129462867Y-107031166D01*
X129504739Y-106975233D01*
X129570203Y-106950816D01*
X129579049Y-106950500D01*
X131293337Y-106950500D01*
X131360376Y-106970185D01*
X131394912Y-107003377D01*
X131419954Y-107039141D01*
X131580858Y-107200045D01*
X131580861Y-107200047D01*
X131767266Y-107330568D01*
X131973504Y-107426739D01*
X132193308Y-107485635D01*
X132355230Y-107499801D01*
X132419998Y-107505468D01*
X132420000Y-107505468D01*
X132420002Y-107505468D01*
X132476807Y-107500498D01*
X132646692Y-107485635D01*
X132866496Y-107426739D01*
X133072734Y-107330568D01*
X133259139Y-107200047D01*
X133420047Y-107039139D01*
X133550568Y-106852734D01*
X133646739Y-106646496D01*
X133705635Y-106426692D01*
X133725468Y-106200000D01*
X133705635Y-105973308D01*
X133646739Y-105753504D01*
X133550568Y-105547266D01*
X133420047Y-105360861D01*
X133420045Y-105360858D01*
X133259141Y-105199954D01*
X133072734Y-105069432D01*
X133072732Y-105069431D01*
X132866497Y-104973261D01*
X132866488Y-104973258D01*
X132646697Y-104914366D01*
X132646693Y-104914365D01*
X132646692Y-104914365D01*
X132646691Y-104914364D01*
X132646686Y-104914364D01*
X132420002Y-104894532D01*
X132419998Y-104894532D01*
X132193313Y-104914364D01*
X132193302Y-104914366D01*
X131973511Y-104973258D01*
X131973502Y-104973261D01*
X131767267Y-105069431D01*
X131767265Y-105069432D01*
X131580858Y-105199954D01*
X131419954Y-105360858D01*
X131394912Y-105396623D01*
X131340335Y-105440248D01*
X131293337Y-105449500D01*
X129429049Y-105449500D01*
X129362010Y-105429815D01*
X129316255Y-105377011D01*
X129306311Y-105307853D01*
X129335336Y-105244297D01*
X129341368Y-105237819D01*
X129490045Y-105089141D01*
X129490047Y-105089139D01*
X129620568Y-104902734D01*
X129716739Y-104696496D01*
X129775635Y-104476692D01*
X129795468Y-104250000D01*
X129775635Y-104023308D01*
X129716739Y-103803504D01*
X129620568Y-103597266D01*
X129490047Y-103410861D01*
X129490045Y-103410858D01*
X129329141Y-103249954D01*
X129142734Y-103119432D01*
X129142732Y-103119431D01*
X128936497Y-103023261D01*
X128936488Y-103023258D01*
X128716697Y-102964366D01*
X128716693Y-102964365D01*
X128716692Y-102964365D01*
X128716691Y-102964364D01*
X128716686Y-102964364D01*
X128490002Y-102944532D01*
X128489998Y-102944532D01*
X128263313Y-102964364D01*
X128263302Y-102964366D01*
X128043511Y-103023258D01*
X128043502Y-103023261D01*
X127837267Y-103119431D01*
X127837265Y-103119432D01*
X127650858Y-103249954D01*
X127489954Y-103410858D01*
X127359432Y-103597265D01*
X127359431Y-103597267D01*
X127263261Y-103803502D01*
X127263258Y-103803511D01*
X127204366Y-104023302D01*
X127204364Y-104023313D01*
X127184532Y-104249998D01*
X127184532Y-104250001D01*
X127204364Y-104476686D01*
X127204366Y-104476697D01*
X127263258Y-104696488D01*
X127263261Y-104696497D01*
X127359431Y-104902732D01*
X127359432Y-104902734D01*
X127489954Y-105089141D01*
X127638632Y-105237819D01*
X127672117Y-105299142D01*
X127667133Y-105368834D01*
X127625261Y-105424767D01*
X127559797Y-105449184D01*
X127550951Y-105449500D01*
X119269049Y-105449500D01*
X119202010Y-105429815D01*
X119156255Y-105377011D01*
X119146311Y-105307853D01*
X119175336Y-105244297D01*
X119181368Y-105237819D01*
X119330045Y-105089141D01*
X119330047Y-105089139D01*
X119460568Y-104902734D01*
X119556739Y-104696496D01*
X119615635Y-104476692D01*
X119635468Y-104250000D01*
X119620869Y-104083137D01*
X119634635Y-104014639D01*
X119656713Y-103984653D01*
X121054548Y-102586819D01*
X121115871Y-102553334D01*
X121142229Y-102550500D01*
X132468366Y-102550500D01*
X132504361Y-102555839D01*
X132558305Y-102572202D01*
X132603868Y-102586024D01*
X132800000Y-102605341D01*
X132996132Y-102586024D01*
X133184727Y-102528814D01*
X133188101Y-102527011D01*
X133336157Y-102447873D01*
X133358538Y-102435910D01*
X133510883Y-102310883D01*
X133635910Y-102158538D01*
X133682362Y-102071632D01*
X133728811Y-101984733D01*
X133728811Y-101984732D01*
X133728814Y-101984727D01*
X133786024Y-101796132D01*
X133805341Y-101600000D01*
X133786024Y-101403868D01*
X133734947Y-101235493D01*
X133734325Y-101165629D01*
X133771573Y-101106516D01*
X133834867Y-101076925D01*
X133853609Y-101075500D01*
X136561130Y-101075500D01*
X136628169Y-101095185D01*
X136662703Y-101128374D01*
X136692264Y-101170591D01*
X136854409Y-101332736D01*
X137042247Y-101464262D01*
X137250070Y-101561171D01*
X137471565Y-101620521D01*
X137634732Y-101634796D01*
X137699998Y-101640506D01*
X137700000Y-101640506D01*
X137700002Y-101640506D01*
X137757108Y-101635509D01*
X137928435Y-101620521D01*
X138149930Y-101561171D01*
X138357753Y-101464262D01*
X138358375Y-101463827D01*
X138381973Y-101447302D01*
X138500378Y-101364394D01*
X138566582Y-101342067D01*
X138634349Y-101359077D01*
X138682162Y-101410024D01*
X138695500Y-101465969D01*
X138695500Y-103811769D01*
X138675815Y-103878808D01*
X138659181Y-103899450D01*
X137685348Y-104873282D01*
X137624025Y-104906767D01*
X137586861Y-104909129D01*
X137420003Y-104894532D01*
X137419998Y-104894532D01*
X137193313Y-104914364D01*
X137193302Y-104914366D01*
X136973511Y-104973258D01*
X136973502Y-104973261D01*
X136767267Y-105069431D01*
X136767265Y-105069432D01*
X136580858Y-105199954D01*
X136419954Y-105360858D01*
X136289432Y-105547265D01*
X136289431Y-105547267D01*
X136193261Y-105753502D01*
X136193258Y-105753511D01*
X136134366Y-105973302D01*
X136134364Y-105973313D01*
X136114532Y-106199998D01*
X136114532Y-106200001D01*
X136134364Y-106426686D01*
X136134366Y-106426697D01*
X136193258Y-106646488D01*
X136193261Y-106646497D01*
X136289431Y-106852732D01*
X136289432Y-106852734D01*
X136419954Y-107039141D01*
X136580858Y-107200045D01*
X136580861Y-107200047D01*
X136767266Y-107330568D01*
X136973504Y-107426739D01*
X137193308Y-107485635D01*
X137355230Y-107499801D01*
X137419998Y-107505468D01*
X137420000Y-107505468D01*
X137420002Y-107505468D01*
X137476807Y-107500498D01*
X137646692Y-107485635D01*
X137866496Y-107426739D01*
X138072734Y-107330568D01*
X138259139Y-107200047D01*
X138420047Y-107039139D01*
X138550568Y-106852734D01*
X138646739Y-106646496D01*
X138705635Y-106426692D01*
X138725468Y-106200000D01*
X138710869Y-106033137D01*
X138724635Y-105964639D01*
X138746713Y-105934653D01*
X139237819Y-105443548D01*
X139299142Y-105410063D01*
X139368834Y-105415047D01*
X139424767Y-105456919D01*
X139449184Y-105522383D01*
X139449500Y-105531229D01*
X139449500Y-110757769D01*
X139429815Y-110824808D01*
X139413181Y-110845450D01*
X137785348Y-112473282D01*
X137724025Y-112506767D01*
X137686861Y-112509129D01*
X137520003Y-112494532D01*
X137519998Y-112494532D01*
X137293313Y-112514364D01*
X137293302Y-112514366D01*
X137073511Y-112573258D01*
X137073502Y-112573261D01*
X136867267Y-112669431D01*
X136867265Y-112669432D01*
X136680858Y-112799954D01*
X136519954Y-112960858D01*
X136389432Y-113147265D01*
X136389431Y-113147267D01*
X136293261Y-113353502D01*
X136293258Y-113353511D01*
X136234366Y-113573302D01*
X136234364Y-113573313D01*
X136214532Y-113799998D01*
X136214532Y-113800001D01*
X136234364Y-114026686D01*
X136234366Y-114026697D01*
X136293258Y-114246488D01*
X136293261Y-114246497D01*
X136389431Y-114452732D01*
X136389432Y-114452734D01*
X136519954Y-114639141D01*
X136680858Y-114800045D01*
X136680861Y-114800047D01*
X136867266Y-114930568D01*
X137073504Y-115026739D01*
X137293308Y-115085635D01*
X137455230Y-115099801D01*
X137519998Y-115105468D01*
X137520000Y-115105468D01*
X137520002Y-115105468D01*
X137582499Y-115100000D01*
X137746692Y-115085635D01*
X137966496Y-115026739D01*
X138172734Y-114930568D01*
X138359139Y-114800047D01*
X138520047Y-114639139D01*
X138650568Y-114452734D01*
X138746739Y-114246496D01*
X138805635Y-114026692D01*
X138823976Y-113817052D01*
X138825468Y-113800001D01*
X138825468Y-113799999D01*
X138822652Y-113767812D01*
X138810869Y-113633137D01*
X138824635Y-113564639D01*
X138846713Y-113534653D01*
X140782951Y-111598416D01*
X140865084Y-111475495D01*
X140921658Y-111338913D01*
X140943982Y-111226686D01*
X140950500Y-111193920D01*
X140950500Y-106749999D01*
X142961127Y-106749999D01*
X142961128Y-106750000D01*
X143924314Y-106750000D01*
X143919920Y-106754394D01*
X143867259Y-106845606D01*
X143840000Y-106947339D01*
X143840000Y-107052661D01*
X143867259Y-107154394D01*
X143919920Y-107245606D01*
X143924314Y-107250000D01*
X142961128Y-107250000D01*
X143013730Y-107446317D01*
X143013734Y-107446326D01*
X143109865Y-107652482D01*
X143240342Y-107838820D01*
X143401179Y-107999657D01*
X143587517Y-108130134D01*
X143793673Y-108226265D01*
X143793682Y-108226269D01*
X143989999Y-108278872D01*
X143990000Y-108278871D01*
X143990000Y-107315686D01*
X143994394Y-107320080D01*
X144085606Y-107372741D01*
X144187339Y-107400000D01*
X144292661Y-107400000D01*
X144394394Y-107372741D01*
X144485606Y-107320080D01*
X144490000Y-107315686D01*
X144490000Y-108278872D01*
X144686317Y-108226269D01*
X144686326Y-108226265D01*
X144892482Y-108130134D01*
X145078820Y-107999657D01*
X145239657Y-107838820D01*
X145370134Y-107652482D01*
X145466265Y-107446326D01*
X145466269Y-107446317D01*
X145518872Y-107250000D01*
X144555686Y-107250000D01*
X144560080Y-107245606D01*
X144612741Y-107154394D01*
X144640000Y-107052661D01*
X144640000Y-106947339D01*
X144612741Y-106845606D01*
X144560080Y-106754394D01*
X144555686Y-106750000D01*
X145518872Y-106750000D01*
X145518872Y-106749999D01*
X145466269Y-106553682D01*
X145466265Y-106553673D01*
X145370134Y-106347517D01*
X145239657Y-106161179D01*
X145078820Y-106000342D01*
X144892482Y-105869865D01*
X144686328Y-105773734D01*
X144490000Y-105721127D01*
X144490000Y-106684314D01*
X144485606Y-106679920D01*
X144394394Y-106627259D01*
X144292661Y-106600000D01*
X144187339Y-106600000D01*
X144085606Y-106627259D01*
X143994394Y-106679920D01*
X143990000Y-106684314D01*
X143990000Y-105721127D01*
X143793671Y-105773734D01*
X143587517Y-105869865D01*
X143401179Y-106000342D01*
X143240342Y-106161179D01*
X143109865Y-106347517D01*
X143013734Y-106553673D01*
X143013730Y-106553682D01*
X142961127Y-106749999D01*
X140950500Y-106749999D01*
X140950500Y-100324999D01*
X141384996Y-100324999D01*
X141384996Y-100325000D01*
X141404973Y-100553343D01*
X141404975Y-100553353D01*
X141464297Y-100774750D01*
X141464301Y-100774759D01*
X141561171Y-100982499D01*
X141613794Y-101057652D01*
X142257861Y-100413584D01*
X142280667Y-100498694D01*
X142339910Y-100601306D01*
X142423694Y-100685090D01*
X142526306Y-100744333D01*
X142611414Y-100767137D01*
X141967346Y-101411205D01*
X142042494Y-101463825D01*
X142042498Y-101463827D01*
X142250240Y-101560698D01*
X142250249Y-101560702D01*
X142471646Y-101620024D01*
X142471656Y-101620026D01*
X142699999Y-101640004D01*
X142700001Y-101640004D01*
X142928343Y-101620026D01*
X142928353Y-101620024D01*
X143149750Y-101560702D01*
X143149759Y-101560698D01*
X143357503Y-101463826D01*
X143432651Y-101411204D01*
X142788585Y-100767138D01*
X142873694Y-100744333D01*
X142976306Y-100685090D01*
X143060090Y-100601306D01*
X143119333Y-100498694D01*
X143142138Y-100413585D01*
X143786204Y-101057651D01*
X143838826Y-100982503D01*
X143935698Y-100774759D01*
X143935702Y-100774750D01*
X143995024Y-100553353D01*
X143995026Y-100553343D01*
X144015004Y-100325000D01*
X144015004Y-100324999D01*
X143995026Y-100096656D01*
X143995024Y-100096646D01*
X143935702Y-99875249D01*
X143935698Y-99875240D01*
X143838827Y-99667498D01*
X143838825Y-99667494D01*
X143786205Y-99592346D01*
X143142137Y-100236414D01*
X143119333Y-100151306D01*
X143060090Y-100048694D01*
X142976306Y-99964910D01*
X142873694Y-99905667D01*
X142788585Y-99882862D01*
X143432652Y-99238794D01*
X143357499Y-99186171D01*
X143149759Y-99089301D01*
X143149750Y-99089297D01*
X142928353Y-99029975D01*
X142928343Y-99029973D01*
X142700001Y-99009996D01*
X142699999Y-99009996D01*
X142471656Y-99029973D01*
X142471646Y-99029975D01*
X142250249Y-99089297D01*
X142250240Y-99089301D01*
X142042502Y-99186171D01*
X141967346Y-99238794D01*
X142611414Y-99882861D01*
X142526306Y-99905667D01*
X142423694Y-99964910D01*
X142339910Y-100048694D01*
X142280667Y-100151306D01*
X142257862Y-100236414D01*
X141613794Y-99592346D01*
X141561171Y-99667502D01*
X141464301Y-99875240D01*
X141464297Y-99875249D01*
X141404975Y-100096646D01*
X141404973Y-100096656D01*
X141384996Y-100324999D01*
X140950500Y-100324999D01*
X140950500Y-98963869D01*
X140970185Y-98896830D01*
X141003376Y-98862295D01*
X141045591Y-98832736D01*
X141207736Y-98670591D01*
X141339262Y-98482753D01*
X141436171Y-98274930D01*
X141495521Y-98053435D01*
X141515506Y-97825000D01*
X141495521Y-97596565D01*
X141436171Y-97375070D01*
X141339262Y-97167247D01*
X141207736Y-96979409D01*
X141045591Y-96817264D01*
X140857753Y-96685738D01*
X140649930Y-96588829D01*
X140649927Y-96588828D01*
X140649925Y-96588827D01*
X140428436Y-96529479D01*
X140428429Y-96529478D01*
X140200002Y-96509494D01*
X140199998Y-96509494D01*
X139971570Y-96529478D01*
X139971559Y-96529480D01*
X139817960Y-96570637D01*
X139748110Y-96568974D01*
X139690248Y-96529811D01*
X139662744Y-96465583D01*
X139674331Y-96396681D01*
X139698183Y-96363184D01*
X140682952Y-95378416D01*
X140732186Y-95304729D01*
X140765084Y-95255495D01*
X140821658Y-95118913D01*
X140850500Y-94973918D01*
X140850500Y-94724999D01*
X141284996Y-94724999D01*
X141284996Y-94725000D01*
X141304973Y-94953343D01*
X141304975Y-94953353D01*
X141364297Y-95174750D01*
X141364301Y-95174759D01*
X141461171Y-95382499D01*
X141513794Y-95457652D01*
X142157861Y-94813584D01*
X142180667Y-94898694D01*
X142239910Y-95001306D01*
X142323694Y-95085090D01*
X142426306Y-95144333D01*
X142511414Y-95167137D01*
X141867346Y-95811205D01*
X141942494Y-95863825D01*
X141942498Y-95863827D01*
X142150240Y-95960698D01*
X142150249Y-95960702D01*
X142371646Y-96020024D01*
X142371656Y-96020026D01*
X142599999Y-96040004D01*
X142600001Y-96040004D01*
X142828343Y-96020026D01*
X142828353Y-96020024D01*
X143049750Y-95960702D01*
X143049759Y-95960698D01*
X143257503Y-95863826D01*
X143332651Y-95811204D01*
X142688585Y-95167138D01*
X142773694Y-95144333D01*
X142876306Y-95085090D01*
X142960090Y-95001306D01*
X143019333Y-94898694D01*
X143042138Y-94813585D01*
X143686204Y-95457651D01*
X143738826Y-95382503D01*
X143835698Y-95174759D01*
X143835702Y-95174750D01*
X143895024Y-94953353D01*
X143895026Y-94953343D01*
X143915004Y-94725000D01*
X143915004Y-94724999D01*
X143895026Y-94496656D01*
X143895024Y-94496646D01*
X143835702Y-94275249D01*
X143835698Y-94275240D01*
X143738827Y-94067498D01*
X143738825Y-94067494D01*
X143686205Y-93992346D01*
X143042137Y-94636414D01*
X143019333Y-94551306D01*
X142960090Y-94448694D01*
X142876306Y-94364910D01*
X142773694Y-94305667D01*
X142688585Y-94282862D01*
X143332652Y-93638794D01*
X143257499Y-93586171D01*
X143049759Y-93489301D01*
X143049750Y-93489297D01*
X142828353Y-93429975D01*
X142828343Y-93429973D01*
X142600001Y-93409996D01*
X142599999Y-93409996D01*
X142371656Y-93429973D01*
X142371646Y-93429975D01*
X142150249Y-93489297D01*
X142150240Y-93489301D01*
X141942502Y-93586171D01*
X141867346Y-93638794D01*
X142511414Y-94282861D01*
X142426306Y-94305667D01*
X142323694Y-94364910D01*
X142239910Y-94448694D01*
X142180667Y-94551306D01*
X142157862Y-94636414D01*
X141513794Y-93992346D01*
X141461171Y-94067502D01*
X141364301Y-94275240D01*
X141364297Y-94275249D01*
X141304975Y-94496646D01*
X141304973Y-94496656D01*
X141284996Y-94724999D01*
X140850500Y-94724999D01*
X140850500Y-93363869D01*
X140870185Y-93296830D01*
X140903376Y-93262295D01*
X140945591Y-93232736D01*
X141107736Y-93070591D01*
X141239262Y-92882753D01*
X141336171Y-92674930D01*
X141395521Y-92453435D01*
X141409544Y-92293146D01*
X146047000Y-92293146D01*
X146047000Y-92616854D01*
X146056199Y-92674931D01*
X146082778Y-92842746D01*
X146082778Y-92842749D01*
X146153450Y-93060255D01*
X146186680Y-93125472D01*
X146257283Y-93264038D01*
X146391714Y-93449066D01*
X146553434Y-93610786D01*
X146683752Y-93705468D01*
X146698385Y-93716099D01*
X146741051Y-93771429D01*
X146749500Y-93816417D01*
X146749500Y-96773918D01*
X146749500Y-96773920D01*
X146749499Y-96773920D01*
X146778340Y-96918907D01*
X146778343Y-96918917D01*
X146834914Y-97055491D01*
X146834916Y-97055495D01*
X146855765Y-97086698D01*
X146855764Y-97086698D01*
X146917046Y-97178414D01*
X146917052Y-97178421D01*
X148721584Y-98982952D01*
X148721586Y-98982954D01*
X148745848Y-98999164D01*
X148761308Y-99009494D01*
X148844505Y-99065084D01*
X148844506Y-99065084D01*
X148844507Y-99065085D01*
X148901833Y-99088830D01*
X148981087Y-99121658D01*
X148981091Y-99121658D01*
X148981092Y-99121659D01*
X149126079Y-99150500D01*
X149126082Y-99150500D01*
X156293920Y-99150500D01*
X156391462Y-99131096D01*
X156438913Y-99121658D01*
X156575495Y-99065084D01*
X156658692Y-99009494D01*
X156698416Y-98982952D01*
X157554652Y-98126714D01*
X157615973Y-98093231D01*
X157653135Y-98090869D01*
X157796366Y-98103400D01*
X157819999Y-98105468D01*
X157820000Y-98105468D01*
X157820002Y-98105468D01*
X157876673Y-98100509D01*
X158046692Y-98085635D01*
X158266496Y-98026739D01*
X158472734Y-97930568D01*
X158659139Y-97800047D01*
X158820047Y-97639139D01*
X158950568Y-97452734D01*
X159046739Y-97246496D01*
X159105635Y-97026692D01*
X159125468Y-96800000D01*
X159125468Y-96799997D01*
X161515034Y-96799997D01*
X161515034Y-96800002D01*
X161534858Y-97026599D01*
X161534860Y-97026610D01*
X161593730Y-97246317D01*
X161593735Y-97246331D01*
X161689863Y-97452478D01*
X161740974Y-97525472D01*
X162420000Y-96846446D01*
X162420000Y-96852661D01*
X162447259Y-96954394D01*
X162499920Y-97045606D01*
X162574394Y-97120080D01*
X162665606Y-97172741D01*
X162767339Y-97200000D01*
X162773553Y-97200000D01*
X162094526Y-97879025D01*
X162167513Y-97930132D01*
X162167521Y-97930136D01*
X162373668Y-98026264D01*
X162373682Y-98026269D01*
X162593389Y-98085139D01*
X162593400Y-98085141D01*
X162819998Y-98104966D01*
X162820002Y-98104966D01*
X163046599Y-98085141D01*
X163046610Y-98085139D01*
X163266317Y-98026269D01*
X163266331Y-98026264D01*
X163472478Y-97930136D01*
X163545471Y-97879024D01*
X162866447Y-97200000D01*
X162872661Y-97200000D01*
X162974394Y-97172741D01*
X163065606Y-97120080D01*
X163140080Y-97045606D01*
X163192741Y-96954394D01*
X163220000Y-96852661D01*
X163220000Y-96846447D01*
X163899024Y-97525471D01*
X163950136Y-97452478D01*
X164046264Y-97246331D01*
X164046269Y-97246317D01*
X164105139Y-97026610D01*
X164105141Y-97026599D01*
X164124966Y-96800002D01*
X164124966Y-96799997D01*
X164105141Y-96573400D01*
X164105139Y-96573389D01*
X164046269Y-96353682D01*
X164046264Y-96353668D01*
X163950136Y-96147521D01*
X163950132Y-96147513D01*
X163899025Y-96074526D01*
X163220000Y-96753551D01*
X163220000Y-96747339D01*
X163192741Y-96645606D01*
X163140080Y-96554394D01*
X163065606Y-96479920D01*
X162974394Y-96427259D01*
X162872661Y-96400000D01*
X162866448Y-96400000D01*
X163545472Y-95720974D01*
X163472478Y-95669863D01*
X163266331Y-95573735D01*
X163266317Y-95573730D01*
X163046610Y-95514860D01*
X163046599Y-95514858D01*
X162820002Y-95495034D01*
X162819998Y-95495034D01*
X162593400Y-95514858D01*
X162593389Y-95514860D01*
X162373682Y-95573730D01*
X162373673Y-95573734D01*
X162167516Y-95669866D01*
X162167512Y-95669868D01*
X162094526Y-95720973D01*
X162094526Y-95720974D01*
X162773553Y-96400000D01*
X162767339Y-96400000D01*
X162665606Y-96427259D01*
X162574394Y-96479920D01*
X162499920Y-96554394D01*
X162447259Y-96645606D01*
X162420000Y-96747339D01*
X162420000Y-96753552D01*
X161740974Y-96074526D01*
X161740973Y-96074526D01*
X161689868Y-96147512D01*
X161689866Y-96147516D01*
X161593734Y-96353673D01*
X161593730Y-96353682D01*
X161534860Y-96573389D01*
X161534858Y-96573400D01*
X161515034Y-96799997D01*
X159125468Y-96799997D01*
X159105635Y-96573308D01*
X159046739Y-96353504D01*
X158950568Y-96147266D01*
X158820047Y-95960861D01*
X158820045Y-95960858D01*
X158659141Y-95799954D01*
X158472734Y-95669432D01*
X158472732Y-95669431D01*
X158266497Y-95573261D01*
X158266488Y-95573258D01*
X158046697Y-95514366D01*
X158046693Y-95514365D01*
X158046692Y-95514365D01*
X158046691Y-95514364D01*
X158046686Y-95514364D01*
X157820002Y-95494532D01*
X157819998Y-95494532D01*
X157593313Y-95514364D01*
X157593302Y-95514366D01*
X157373511Y-95573258D01*
X157373502Y-95573261D01*
X157167267Y-95669431D01*
X157167265Y-95669432D01*
X156980858Y-95799954D01*
X156819954Y-95960858D01*
X156689432Y-96147265D01*
X156689431Y-96147267D01*
X156593261Y-96353502D01*
X156593258Y-96353511D01*
X156534366Y-96573302D01*
X156534364Y-96573313D01*
X156514532Y-96799998D01*
X156514532Y-96800003D01*
X156529129Y-96966861D01*
X156515362Y-97035360D01*
X156493282Y-97065348D01*
X155945451Y-97613181D01*
X155884128Y-97646666D01*
X155857770Y-97649500D01*
X149562230Y-97649500D01*
X149495191Y-97629815D01*
X149474549Y-97613181D01*
X148286819Y-96425451D01*
X148253334Y-96364128D01*
X148250500Y-96337770D01*
X148250500Y-93816417D01*
X148270185Y-93749378D01*
X148301615Y-93716099D01*
X148446566Y-93610786D01*
X148608286Y-93449066D01*
X148669992Y-93364134D01*
X148725319Y-93321470D01*
X148794932Y-93315491D01*
X148856727Y-93348096D01*
X148870626Y-93364135D01*
X148932097Y-93448741D01*
X148932097Y-93448742D01*
X149093757Y-93610402D01*
X149278723Y-93744788D01*
X149482429Y-93848582D01*
X149699871Y-93919234D01*
X149790000Y-93933509D01*
X149790000Y-92945747D01*
X149827708Y-92967518D01*
X149967591Y-93005000D01*
X150112409Y-93005000D01*
X150252292Y-92967518D01*
X150290000Y-92945747D01*
X150290000Y-93933508D01*
X150380128Y-93919234D01*
X150597570Y-93848582D01*
X150801276Y-93744788D01*
X150984059Y-93611988D01*
X151049865Y-93588508D01*
X151117919Y-93604333D01*
X151166614Y-93654439D01*
X151173127Y-93668974D01*
X151183701Y-93697326D01*
X151183706Y-93697335D01*
X151269952Y-93812544D01*
X151269955Y-93812547D01*
X151385164Y-93898793D01*
X151385171Y-93898797D01*
X151520017Y-93949091D01*
X151520016Y-93949091D01*
X151526944Y-93949835D01*
X151579627Y-93955500D01*
X153580372Y-93955499D01*
X153639983Y-93949091D01*
X153774831Y-93898796D01*
X153890046Y-93812546D01*
X153976296Y-93697331D01*
X154026591Y-93562483D01*
X154033000Y-93502873D01*
X154032999Y-92399998D01*
X156514532Y-92399998D01*
X156514532Y-92400001D01*
X156534364Y-92626686D01*
X156534366Y-92626697D01*
X156593258Y-92846488D01*
X156593261Y-92846497D01*
X156689431Y-93052732D01*
X156689432Y-93052734D01*
X156819954Y-93239141D01*
X156980858Y-93400045D01*
X156980861Y-93400047D01*
X157167266Y-93530568D01*
X157373504Y-93626739D01*
X157593308Y-93685635D01*
X157755230Y-93699801D01*
X157819998Y-93705468D01*
X157820000Y-93705468D01*
X157820002Y-93705468D01*
X157876673Y-93700509D01*
X158046692Y-93685635D01*
X158266496Y-93626739D01*
X158472734Y-93530568D01*
X158659139Y-93400047D01*
X158820047Y-93239139D01*
X158950568Y-93052734D01*
X159046739Y-92846496D01*
X159105635Y-92626692D01*
X159125468Y-92400000D01*
X159125468Y-92399997D01*
X161515034Y-92399997D01*
X161515034Y-92400002D01*
X161534858Y-92626599D01*
X161534860Y-92626610D01*
X161593730Y-92846317D01*
X161593735Y-92846331D01*
X161689863Y-93052478D01*
X161740974Y-93125472D01*
X162420000Y-92446446D01*
X162420000Y-92452661D01*
X162447259Y-92554394D01*
X162499920Y-92645606D01*
X162574394Y-92720080D01*
X162665606Y-92772741D01*
X162767339Y-92800000D01*
X162773553Y-92800000D01*
X162094526Y-93479025D01*
X162167513Y-93530132D01*
X162167521Y-93530136D01*
X162373668Y-93626264D01*
X162373682Y-93626269D01*
X162593389Y-93685139D01*
X162593400Y-93685141D01*
X162819998Y-93704966D01*
X162820002Y-93704966D01*
X163046599Y-93685141D01*
X163046610Y-93685139D01*
X163266317Y-93626269D01*
X163266331Y-93626264D01*
X163472478Y-93530136D01*
X163545471Y-93479024D01*
X162866447Y-92800000D01*
X162872661Y-92800000D01*
X162974394Y-92772741D01*
X163065606Y-92720080D01*
X163140080Y-92645606D01*
X163192741Y-92554394D01*
X163220000Y-92452661D01*
X163220000Y-92446447D01*
X163899024Y-93125471D01*
X163950136Y-93052478D01*
X164046264Y-92846331D01*
X164046269Y-92846317D01*
X164105139Y-92626610D01*
X164105141Y-92626599D01*
X164124966Y-92400002D01*
X164124966Y-92399997D01*
X164105141Y-92173400D01*
X164105139Y-92173389D01*
X164046269Y-91953682D01*
X164046264Y-91953668D01*
X163950136Y-91747521D01*
X163950132Y-91747513D01*
X163899025Y-91674526D01*
X163220000Y-92353551D01*
X163220000Y-92347339D01*
X163192741Y-92245606D01*
X163140080Y-92154394D01*
X163065606Y-92079920D01*
X162974394Y-92027259D01*
X162872661Y-92000000D01*
X162866448Y-92000000D01*
X163545472Y-91320974D01*
X163472478Y-91269863D01*
X163266331Y-91173735D01*
X163266317Y-91173730D01*
X163046610Y-91114860D01*
X163046599Y-91114858D01*
X162820002Y-91095034D01*
X162819998Y-91095034D01*
X162593400Y-91114858D01*
X162593389Y-91114860D01*
X162373682Y-91173730D01*
X162373673Y-91173734D01*
X162167516Y-91269866D01*
X162167512Y-91269868D01*
X162094526Y-91320973D01*
X162094526Y-91320974D01*
X162773553Y-92000000D01*
X162767339Y-92000000D01*
X162665606Y-92027259D01*
X162574394Y-92079920D01*
X162499920Y-92154394D01*
X162447259Y-92245606D01*
X162420000Y-92347339D01*
X162420000Y-92353552D01*
X161740974Y-91674526D01*
X161740973Y-91674526D01*
X161689868Y-91747512D01*
X161689866Y-91747516D01*
X161593734Y-91953673D01*
X161593730Y-91953682D01*
X161534860Y-92173389D01*
X161534858Y-92173400D01*
X161515034Y-92399997D01*
X159125468Y-92399997D01*
X159105635Y-92173308D01*
X159046739Y-91953504D01*
X158950568Y-91747266D01*
X158831861Y-91577733D01*
X158820045Y-91560858D01*
X158659141Y-91399954D01*
X158472734Y-91269432D01*
X158472732Y-91269431D01*
X158266497Y-91173261D01*
X158266488Y-91173258D01*
X158046697Y-91114366D01*
X158046693Y-91114365D01*
X158046692Y-91114365D01*
X158046691Y-91114364D01*
X158046686Y-91114364D01*
X157820002Y-91094532D01*
X157819998Y-91094532D01*
X157593313Y-91114364D01*
X157593302Y-91114366D01*
X157373511Y-91173258D01*
X157373502Y-91173261D01*
X157167267Y-91269431D01*
X157167265Y-91269432D01*
X156980858Y-91399954D01*
X156819954Y-91560858D01*
X156689432Y-91747265D01*
X156689431Y-91747267D01*
X156593261Y-91953502D01*
X156593258Y-91953511D01*
X156534366Y-92173302D01*
X156534364Y-92173313D01*
X156514532Y-92399998D01*
X154032999Y-92399998D01*
X154032999Y-91407128D01*
X154026591Y-91347517D01*
X154016841Y-91321377D01*
X153976297Y-91212671D01*
X153976293Y-91212664D01*
X153890047Y-91097455D01*
X153890044Y-91097452D01*
X153774835Y-91011206D01*
X153774828Y-91011202D01*
X153639982Y-90960908D01*
X153639983Y-90960908D01*
X153580383Y-90954501D01*
X153580381Y-90954500D01*
X153580373Y-90954500D01*
X153580364Y-90954500D01*
X151579629Y-90954500D01*
X151579623Y-90954501D01*
X151520016Y-90960908D01*
X151385171Y-91011202D01*
X151385164Y-91011206D01*
X151269955Y-91097452D01*
X151269952Y-91097455D01*
X151183706Y-91212664D01*
X151183702Y-91212671D01*
X151173127Y-91241026D01*
X151131256Y-91296960D01*
X151065791Y-91321377D01*
X150997518Y-91306525D01*
X150984060Y-91298011D01*
X150801279Y-91165213D01*
X150597568Y-91061417D01*
X150380124Y-90990765D01*
X150290000Y-90976490D01*
X150290000Y-91964252D01*
X150252292Y-91942482D01*
X150112409Y-91905000D01*
X149967591Y-91905000D01*
X149827708Y-91942482D01*
X149790000Y-91964252D01*
X149790000Y-90976490D01*
X149789999Y-90976490D01*
X149699875Y-90990765D01*
X149482431Y-91061417D01*
X149278723Y-91165211D01*
X149093757Y-91299597D01*
X148932097Y-91461257D01*
X148870627Y-91545864D01*
X148815297Y-91588529D01*
X148745684Y-91594508D01*
X148683889Y-91561902D01*
X148669991Y-91545864D01*
X148667314Y-91542179D01*
X148608286Y-91460934D01*
X148446566Y-91299214D01*
X148261538Y-91164783D01*
X148162585Y-91114364D01*
X148057755Y-91060950D01*
X147840248Y-90990278D01*
X147654812Y-90960908D01*
X147614354Y-90954500D01*
X147385646Y-90954500D01*
X147345188Y-90960908D01*
X147159753Y-90990278D01*
X147159750Y-90990278D01*
X146942244Y-91060950D01*
X146738461Y-91164783D01*
X146633523Y-91241026D01*
X146553434Y-91299214D01*
X146553432Y-91299216D01*
X146553431Y-91299216D01*
X146391716Y-91460931D01*
X146391716Y-91460932D01*
X146391714Y-91460934D01*
X146333980Y-91540396D01*
X146257283Y-91645961D01*
X146153450Y-91849744D01*
X146082778Y-92067250D01*
X146082778Y-92067253D01*
X146065981Y-92173308D01*
X146047000Y-92293146D01*
X141409544Y-92293146D01*
X141415506Y-92225000D01*
X141395521Y-91996565D01*
X141336171Y-91775070D01*
X141239262Y-91567247D01*
X141107736Y-91379409D01*
X140945591Y-91217264D01*
X140757753Y-91085738D01*
X140549930Y-90988829D01*
X140549927Y-90988828D01*
X140549925Y-90988827D01*
X140328436Y-90929479D01*
X140328429Y-90929478D01*
X140100002Y-90909494D01*
X140099998Y-90909494D01*
X139871570Y-90929478D01*
X139871563Y-90929479D01*
X139650074Y-90988827D01*
X139650070Y-90988829D01*
X139442247Y-91085738D01*
X139254409Y-91217264D01*
X139254407Y-91217265D01*
X139254404Y-91217268D01*
X139092268Y-91379404D01*
X139092265Y-91379407D01*
X139092264Y-91379409D01*
X138960738Y-91567247D01*
X138876680Y-91747512D01*
X138863830Y-91775068D01*
X138863827Y-91775074D01*
X138804479Y-91996563D01*
X138804478Y-91996570D01*
X138784494Y-92224997D01*
X138784494Y-92225002D01*
X138804478Y-92453429D01*
X138804479Y-92453436D01*
X138863827Y-92674925D01*
X138863828Y-92674927D01*
X138863829Y-92674930D01*
X138960738Y-92882753D01*
X139092264Y-93070591D01*
X139092268Y-93070595D01*
X139254405Y-93232733D01*
X139254408Y-93232735D01*
X139254409Y-93232736D01*
X139296623Y-93262294D01*
X139340248Y-93316869D01*
X139349500Y-93363869D01*
X139349500Y-94537769D01*
X139329815Y-94604808D01*
X139313181Y-94625450D01*
X139127187Y-94811444D01*
X139065864Y-94844929D01*
X138996172Y-94839945D01*
X138940239Y-94798073D01*
X138915822Y-94732609D01*
X138915580Y-94725850D01*
X138915506Y-94724999D01*
X138895521Y-94496565D01*
X138836171Y-94275070D01*
X138739262Y-94067247D01*
X138607736Y-93879409D01*
X138445591Y-93717264D01*
X138417130Y-93697335D01*
X138403375Y-93687703D01*
X138359751Y-93633125D01*
X138350500Y-93586129D01*
X138350500Y-88595079D01*
X138321659Y-88450092D01*
X138321658Y-88450091D01*
X138321658Y-88450087D01*
X138265084Y-88313505D01*
X138232186Y-88264270D01*
X138232185Y-88264268D01*
X138182956Y-88190589D01*
X138182952Y-88190584D01*
X136736186Y-86743818D01*
X136702701Y-86682495D01*
X136699929Y-86652202D01*
X136703484Y-86540243D01*
X136726984Y-85800000D01*
X142769474Y-85800000D01*
X142789547Y-86055064D01*
X142789547Y-86055067D01*
X142789548Y-86055070D01*
X142843093Y-86278097D01*
X142849279Y-86303864D01*
X142947188Y-86540239D01*
X142947190Y-86540242D01*
X143080875Y-86758396D01*
X143080878Y-86758401D01*
X143083877Y-86761912D01*
X143247044Y-86952956D01*
X143371579Y-87059319D01*
X143441598Y-87119121D01*
X143441603Y-87119124D01*
X143659757Y-87252809D01*
X143659760Y-87252811D01*
X143894993Y-87350247D01*
X143896140Y-87350722D01*
X144144930Y-87410452D01*
X144400000Y-87430526D01*
X144655070Y-87410452D01*
X144903860Y-87350722D01*
X145022051Y-87301765D01*
X145140239Y-87252811D01*
X145140240Y-87252810D01*
X145140243Y-87252809D01*
X145358399Y-87119123D01*
X145552956Y-86952956D01*
X145719123Y-86758399D01*
X145852809Y-86540243D01*
X145852904Y-86540015D01*
X145950720Y-86303864D01*
X145950722Y-86303860D01*
X146010452Y-86055070D01*
X146030526Y-85800000D01*
X155769975Y-85800000D01*
X155790042Y-86054989D01*
X155849752Y-86303702D01*
X155947634Y-86540012D01*
X155947636Y-86540015D01*
X156081277Y-86758098D01*
X156081284Y-86758107D01*
X156084533Y-86761912D01*
X156722421Y-86124024D01*
X156735359Y-86155258D01*
X156817437Y-86278097D01*
X156921903Y-86382563D01*
X157044742Y-86464641D01*
X157075974Y-86477578D01*
X156438087Y-87115465D01*
X156441897Y-87118719D01*
X156659984Y-87252363D01*
X156659987Y-87252365D01*
X156896297Y-87350247D01*
X157145011Y-87409957D01*
X157145010Y-87409957D01*
X157400000Y-87430024D01*
X157654989Y-87409957D01*
X157903702Y-87350247D01*
X158140012Y-87252365D01*
X158140015Y-87252363D01*
X158358095Y-87118724D01*
X158358110Y-87118713D01*
X158361911Y-87115466D01*
X158361911Y-87115464D01*
X157724025Y-86477577D01*
X157755258Y-86464641D01*
X157878097Y-86382563D01*
X157982563Y-86278097D01*
X158064641Y-86155258D01*
X158077578Y-86124025D01*
X158715464Y-86761911D01*
X158715466Y-86761911D01*
X158718713Y-86758110D01*
X158718724Y-86758095D01*
X158852363Y-86540015D01*
X158852365Y-86540012D01*
X158950247Y-86303702D01*
X159009957Y-86054989D01*
X159030024Y-85800000D01*
X159009957Y-85545010D01*
X158950247Y-85296297D01*
X158852365Y-85059987D01*
X158852363Y-85059984D01*
X158718719Y-84841897D01*
X158715465Y-84838087D01*
X158077578Y-85475974D01*
X158064641Y-85444742D01*
X157982563Y-85321903D01*
X157878097Y-85217437D01*
X157755258Y-85135359D01*
X157724024Y-85122421D01*
X158361912Y-84484533D01*
X158358107Y-84481284D01*
X158358098Y-84481277D01*
X158140015Y-84347636D01*
X158140012Y-84347634D01*
X157903702Y-84249752D01*
X157654988Y-84190042D01*
X157654989Y-84190042D01*
X157400000Y-84169975D01*
X157145010Y-84190042D01*
X156896297Y-84249752D01*
X156659987Y-84347634D01*
X156659984Y-84347636D01*
X156441893Y-84481282D01*
X156438086Y-84484532D01*
X157075975Y-85122421D01*
X157044742Y-85135359D01*
X156921903Y-85217437D01*
X156817437Y-85321903D01*
X156735359Y-85444742D01*
X156722421Y-85475975D01*
X156084532Y-84838086D01*
X156081282Y-84841893D01*
X155947636Y-85059984D01*
X155947634Y-85059987D01*
X155849752Y-85296297D01*
X155790042Y-85545010D01*
X155769975Y-85800000D01*
X146030526Y-85800000D01*
X146010452Y-85544930D01*
X145950722Y-85296140D01*
X145918122Y-85217437D01*
X145852811Y-85059760D01*
X145852809Y-85059757D01*
X145719124Y-84841603D01*
X145719121Y-84841598D01*
X145659319Y-84771579D01*
X145552956Y-84647044D01*
X145362680Y-84484533D01*
X145358401Y-84480878D01*
X145358396Y-84480875D01*
X145140242Y-84347190D01*
X145140239Y-84347188D01*
X144903864Y-84249279D01*
X144903860Y-84249278D01*
X144655070Y-84189548D01*
X144655067Y-84189547D01*
X144655064Y-84189547D01*
X144400000Y-84169474D01*
X144144935Y-84189547D01*
X144144931Y-84189547D01*
X144144930Y-84189548D01*
X144020535Y-84219413D01*
X143896135Y-84249279D01*
X143659760Y-84347188D01*
X143659757Y-84347190D01*
X143441603Y-84480875D01*
X143441598Y-84480878D01*
X143247044Y-84647044D01*
X143080878Y-84841598D01*
X143080875Y-84841603D01*
X142947190Y-85059757D01*
X142947188Y-85059760D01*
X142849279Y-85296135D01*
X142789547Y-85544935D01*
X142769474Y-85800000D01*
X136726984Y-85800000D01*
X136796174Y-83620514D01*
X136817976Y-83554134D01*
X136872205Y-83510078D01*
X136920573Y-83500451D01*
X163500000Y-83600000D01*
X163480375Y-80352135D01*
X166499500Y-80352135D01*
X166499500Y-82447870D01*
X166499501Y-82447876D01*
X166505908Y-82507483D01*
X166556202Y-82642328D01*
X166556206Y-82642335D01*
X166642452Y-82757544D01*
X166642455Y-82757547D01*
X166757664Y-82843793D01*
X166757671Y-82843797D01*
X166892517Y-82894091D01*
X166892516Y-82894091D01*
X166899444Y-82894835D01*
X166952127Y-82900500D01*
X169047872Y-82900499D01*
X169107483Y-82894091D01*
X169242331Y-82843796D01*
X169357546Y-82757546D01*
X169443796Y-82642331D01*
X169494091Y-82507483D01*
X169500500Y-82447873D01*
X169500499Y-81399994D01*
X171494859Y-81399994D01*
X171494859Y-81400005D01*
X171515385Y-81647729D01*
X171515387Y-81647738D01*
X171576412Y-81888717D01*
X171676266Y-82116364D01*
X171776564Y-82269882D01*
X172517037Y-81529409D01*
X172534075Y-81592993D01*
X172599901Y-81707007D01*
X172692993Y-81800099D01*
X172807007Y-81865925D01*
X172870590Y-81882962D01*
X172129942Y-82623609D01*
X172176768Y-82660055D01*
X172176770Y-82660056D01*
X172395385Y-82778364D01*
X172395396Y-82778369D01*
X172630506Y-82859083D01*
X172875707Y-82900000D01*
X173124293Y-82900000D01*
X173369493Y-82859083D01*
X173604603Y-82778369D01*
X173604614Y-82778364D01*
X173823228Y-82660057D01*
X173823231Y-82660055D01*
X173870056Y-82623609D01*
X173129409Y-81882962D01*
X173192993Y-81865925D01*
X173307007Y-81800099D01*
X173400099Y-81707007D01*
X173465925Y-81592993D01*
X173482962Y-81529409D01*
X174223434Y-82269882D01*
X174323731Y-82116369D01*
X174423587Y-81888717D01*
X174484612Y-81647738D01*
X174484614Y-81647729D01*
X174505141Y-81400005D01*
X174505141Y-81399994D01*
X174484614Y-81152270D01*
X174484612Y-81152261D01*
X174423587Y-80911282D01*
X174323731Y-80683630D01*
X174223434Y-80530116D01*
X173482962Y-81270589D01*
X173465925Y-81207007D01*
X173400099Y-81092993D01*
X173307007Y-80999901D01*
X173192993Y-80934075D01*
X173129410Y-80917037D01*
X173870057Y-80176390D01*
X173870056Y-80176389D01*
X173823229Y-80139943D01*
X173604614Y-80021635D01*
X173604603Y-80021630D01*
X173369493Y-79940916D01*
X173124293Y-79900000D01*
X172875707Y-79900000D01*
X172630506Y-79940916D01*
X172395396Y-80021630D01*
X172395390Y-80021632D01*
X172176761Y-80139949D01*
X172129942Y-80176388D01*
X172129942Y-80176390D01*
X172870590Y-80917037D01*
X172807007Y-80934075D01*
X172692993Y-80999901D01*
X172599901Y-81092993D01*
X172534075Y-81207007D01*
X172517037Y-81270589D01*
X171776564Y-80530116D01*
X171676267Y-80683632D01*
X171576412Y-80911282D01*
X171515387Y-81152261D01*
X171515385Y-81152270D01*
X171494859Y-81399994D01*
X169500499Y-81399994D01*
X169500499Y-80352128D01*
X169494091Y-80292517D01*
X169450778Y-80176390D01*
X169443797Y-80157671D01*
X169443793Y-80157664D01*
X169357547Y-80042455D01*
X169357544Y-80042452D01*
X169242335Y-79956206D01*
X169242328Y-79956202D01*
X169107482Y-79905908D01*
X169107483Y-79905908D01*
X169047883Y-79899501D01*
X169047881Y-79899500D01*
X169047873Y-79899500D01*
X169047864Y-79899500D01*
X166952129Y-79899500D01*
X166952123Y-79899501D01*
X166892516Y-79905908D01*
X166757671Y-79956202D01*
X166757664Y-79956206D01*
X166642455Y-80042452D01*
X166642452Y-80042455D01*
X166556206Y-80157664D01*
X166556202Y-80157671D01*
X166505908Y-80292517D01*
X166499501Y-80352116D01*
X166499501Y-80352123D01*
X166499500Y-80352135D01*
X163480375Y-80352135D01*
X163467167Y-78166308D01*
X163486446Y-78099155D01*
X163503480Y-78077886D01*
X167680752Y-73900613D01*
X167742073Y-73867130D01*
X167788836Y-73865987D01*
X167995665Y-73900500D01*
X167995666Y-73900500D01*
X168244335Y-73900500D01*
X168489614Y-73859571D01*
X168724810Y-73778828D01*
X168943509Y-73660474D01*
X169139744Y-73507738D01*
X169308164Y-73324785D01*
X169444173Y-73116607D01*
X169544063Y-72888881D01*
X169605108Y-72647821D01*
X169625643Y-72400000D01*
X169609651Y-72207007D01*
X169605109Y-72152187D01*
X169605107Y-72152175D01*
X169604556Y-72150000D01*
X171715960Y-72150000D01*
X172766988Y-72150000D01*
X172734075Y-72207007D01*
X172700000Y-72334174D01*
X172700000Y-72465826D01*
X172734075Y-72592993D01*
X172766988Y-72650000D01*
X171715960Y-72650000D01*
X171776411Y-72888716D01*
X171876267Y-73116367D01*
X172012232Y-73324478D01*
X172180592Y-73507364D01*
X172180602Y-73507373D01*
X172376762Y-73660051D01*
X172376771Y-73660057D01*
X172595385Y-73778364D01*
X172595396Y-73778369D01*
X172830507Y-73859083D01*
X172949999Y-73879023D01*
X172950000Y-73879022D01*
X172950000Y-72833012D01*
X173007007Y-72865925D01*
X173134174Y-72900000D01*
X173265826Y-72900000D01*
X173392993Y-72865925D01*
X173450000Y-72833012D01*
X173450000Y-73879023D01*
X173569492Y-73859083D01*
X173804603Y-73778369D01*
X173804614Y-73778364D01*
X174023228Y-73660057D01*
X174023237Y-73660051D01*
X174219397Y-73507373D01*
X174219407Y-73507364D01*
X174387767Y-73324478D01*
X174523732Y-73116367D01*
X174623588Y-72888716D01*
X174684040Y-72650000D01*
X173633012Y-72650000D01*
X173665925Y-72592993D01*
X173700000Y-72465826D01*
X173700000Y-72334174D01*
X173665925Y-72207007D01*
X173633012Y-72150000D01*
X174684040Y-72150000D01*
X174623588Y-71911283D01*
X174523732Y-71683632D01*
X174387767Y-71475521D01*
X174219407Y-71292635D01*
X174219397Y-71292626D01*
X174023237Y-71139948D01*
X174023228Y-71139942D01*
X173804614Y-71021635D01*
X173804603Y-71021630D01*
X173569492Y-70940916D01*
X173450000Y-70920976D01*
X173450000Y-71966988D01*
X173392993Y-71934075D01*
X173265826Y-71900000D01*
X173134174Y-71900000D01*
X173007007Y-71934075D01*
X172950000Y-71966988D01*
X172950000Y-70920976D01*
X172949999Y-70920976D01*
X172830507Y-70940916D01*
X172595396Y-71021630D01*
X172595385Y-71021635D01*
X172376771Y-71139942D01*
X172376762Y-71139948D01*
X172180602Y-71292626D01*
X172180592Y-71292635D01*
X172012232Y-71475521D01*
X171876267Y-71683632D01*
X171776411Y-71911283D01*
X171715960Y-72150000D01*
X169604556Y-72150000D01*
X169544063Y-71911118D01*
X169444173Y-71683393D01*
X169308166Y-71475217D01*
X169286557Y-71451744D01*
X169139744Y-71292262D01*
X168943509Y-71139526D01*
X168943507Y-71139525D01*
X168943506Y-71139524D01*
X168724811Y-71021172D01*
X168724802Y-71021169D01*
X168489616Y-70940429D01*
X168244335Y-70899500D01*
X167995665Y-70899500D01*
X167750383Y-70940429D01*
X167515197Y-71021169D01*
X167515188Y-71021172D01*
X167296493Y-71139524D01*
X167100257Y-71292261D01*
X166931833Y-71475217D01*
X166795826Y-71683393D01*
X166695936Y-71911118D01*
X166634892Y-72152175D01*
X166634890Y-72152187D01*
X166614357Y-72399994D01*
X166614357Y-72400005D01*
X166634891Y-72647817D01*
X166653143Y-72719892D01*
X166650518Y-72789712D01*
X166620618Y-72838013D01*
X163663990Y-75794640D01*
X163602667Y-75828125D01*
X163532975Y-75823141D01*
X163477042Y-75781269D01*
X163452625Y-75715805D01*
X163452311Y-75707724D01*
X163421138Y-70548568D01*
X163440417Y-70481413D01*
X163492944Y-70435340D01*
X163562041Y-70424979D01*
X163614026Y-70444719D01*
X163644505Y-70465084D01*
X163644507Y-70465084D01*
X163644511Y-70465087D01*
X163781082Y-70521656D01*
X163781087Y-70521658D01*
X163781091Y-70521658D01*
X163781092Y-70521659D01*
X163926079Y-70550500D01*
X163926082Y-70550500D01*
X170773920Y-70550500D01*
X170871462Y-70531096D01*
X170918913Y-70521658D01*
X171055495Y-70465084D01*
X171128763Y-70416128D01*
X171178416Y-70382952D01*
X172743613Y-68817753D01*
X172804934Y-68784270D01*
X172851697Y-68783127D01*
X173075665Y-68820500D01*
X173075666Y-68820500D01*
X173324335Y-68820500D01*
X173569614Y-68779571D01*
X173804810Y-68698828D01*
X174023509Y-68580474D01*
X174219744Y-68427738D01*
X174388164Y-68244785D01*
X174524173Y-68036607D01*
X174624063Y-67808881D01*
X174685108Y-67567821D01*
X174705643Y-67320000D01*
X174685108Y-67072179D01*
X174624063Y-66831119D01*
X174524173Y-66603393D01*
X174388166Y-66395217D01*
X174366557Y-66371744D01*
X174219744Y-66212262D01*
X174023509Y-66059526D01*
X174023507Y-66059525D01*
X174023506Y-66059524D01*
X173804811Y-65941172D01*
X173804802Y-65941169D01*
X173569616Y-65860429D01*
X173324335Y-65819500D01*
X173075665Y-65819500D01*
X172830383Y-65860429D01*
X172595197Y-65941169D01*
X172595188Y-65941172D01*
X172376493Y-66059524D01*
X172180257Y-66212261D01*
X172011833Y-66395217D01*
X171875826Y-66603393D01*
X171775936Y-66831118D01*
X171714892Y-67072175D01*
X171714890Y-67072187D01*
X171694357Y-67319994D01*
X171694357Y-67320005D01*
X171714891Y-67567819D01*
X171729101Y-67623934D01*
X171726475Y-67693754D01*
X171696576Y-67742054D01*
X170425451Y-69013181D01*
X170364128Y-69046666D01*
X170337770Y-69049500D01*
X169283614Y-69049500D01*
X169216575Y-69029815D01*
X169170820Y-68977011D01*
X169160876Y-68907853D01*
X169189901Y-68844297D01*
X169240281Y-68809318D01*
X169362328Y-68763797D01*
X169362327Y-68763797D01*
X169362331Y-68763796D01*
X169477546Y-68677546D01*
X169563796Y-68562331D01*
X169614091Y-68427483D01*
X169620500Y-68367873D01*
X169620499Y-66272128D01*
X169614091Y-66212517D01*
X169563796Y-66077669D01*
X169563795Y-66077668D01*
X169563793Y-66077664D01*
X169477547Y-65962455D01*
X169477544Y-65962452D01*
X169362335Y-65876206D01*
X169362328Y-65876202D01*
X169227482Y-65825908D01*
X169227483Y-65825908D01*
X169167883Y-65819501D01*
X169167881Y-65819500D01*
X169167873Y-65819500D01*
X169167864Y-65819500D01*
X167072129Y-65819500D01*
X167072123Y-65819501D01*
X167012516Y-65825908D01*
X166877671Y-65876202D01*
X166877664Y-65876206D01*
X166762455Y-65962452D01*
X166762452Y-65962455D01*
X166676206Y-66077664D01*
X166676202Y-66077671D01*
X166625908Y-66212517D01*
X166619501Y-66272116D01*
X166619501Y-66272123D01*
X166619500Y-66272135D01*
X166619500Y-68367870D01*
X166619501Y-68367876D01*
X166625908Y-68427483D01*
X166676202Y-68562328D01*
X166676206Y-68562335D01*
X166762452Y-68677544D01*
X166762455Y-68677547D01*
X166877664Y-68763793D01*
X166877671Y-68763797D01*
X166999719Y-68809318D01*
X167055653Y-68851189D01*
X167080070Y-68916653D01*
X167065219Y-68984926D01*
X167015813Y-69034332D01*
X166956386Y-69049500D01*
X164362230Y-69049500D01*
X164295191Y-69029815D01*
X164274549Y-69013181D01*
X163442626Y-68181258D01*
X163409141Y-68119935D01*
X163406309Y-68094326D01*
X163405960Y-68036607D01*
X163321257Y-54018015D01*
X172153000Y-54018015D01*
X172153000Y-55518000D01*
X173377015Y-55518000D01*
X173353000Y-55669623D01*
X173353000Y-55866377D01*
X173377015Y-56018000D01*
X172153001Y-56018000D01*
X172153001Y-57517984D01*
X172163494Y-57620695D01*
X172218641Y-57787117D01*
X172218643Y-57787122D01*
X172310684Y-57936344D01*
X172434655Y-58060315D01*
X172583877Y-58152356D01*
X172583882Y-58152358D01*
X172750304Y-58207505D01*
X172750311Y-58207506D01*
X172853021Y-58217999D01*
X174352999Y-58217999D01*
X174353000Y-58217998D01*
X174353000Y-56993985D01*
X174504623Y-57018000D01*
X174701377Y-57018000D01*
X174853000Y-56993985D01*
X174853000Y-58217999D01*
X176352970Y-58217999D01*
X176352984Y-58217998D01*
X176455695Y-58207505D01*
X176622117Y-58152358D01*
X176622122Y-58152356D01*
X176771344Y-58060315D01*
X176895315Y-57936344D01*
X176987356Y-57787122D01*
X176987358Y-57787117D01*
X177042505Y-57620695D01*
X177042506Y-57620688D01*
X177052999Y-57517984D01*
X177053000Y-57517971D01*
X177053000Y-56018000D01*
X175828985Y-56018000D01*
X175853000Y-55866377D01*
X175853000Y-55669623D01*
X175828985Y-55518000D01*
X177052999Y-55518000D01*
X177052999Y-54018030D01*
X177052998Y-54018015D01*
X177042505Y-53915304D01*
X176987358Y-53748882D01*
X176987356Y-53748877D01*
X176895315Y-53599655D01*
X176771344Y-53475684D01*
X176622122Y-53383643D01*
X176622117Y-53383641D01*
X176455695Y-53328494D01*
X176455688Y-53328493D01*
X176352984Y-53318000D01*
X174853000Y-53318000D01*
X174853000Y-54542014D01*
X174701377Y-54518000D01*
X174504623Y-54518000D01*
X174353000Y-54542014D01*
X174353000Y-53318000D01*
X172853030Y-53318000D01*
X172853014Y-53318001D01*
X172750304Y-53328494D01*
X172583882Y-53383641D01*
X172583877Y-53383643D01*
X172434655Y-53475684D01*
X172310684Y-53599655D01*
X172218643Y-53748877D01*
X172218641Y-53748882D01*
X172163494Y-53915304D01*
X172163493Y-53915311D01*
X172153000Y-54018015D01*
X163321257Y-54018015D01*
X163317424Y-53383641D01*
X163300757Y-50625249D01*
X163320036Y-50558092D01*
X163372563Y-50512019D01*
X163424755Y-50500500D01*
X178655500Y-50500500D01*
X178722539Y-50520185D01*
G37*
%TD.AperFunction*%
%TA.AperFunction,Conductor*%
G36*
X140604809Y-118870185D02*
G01*
X140625451Y-118886819D01*
X141013181Y-119274548D01*
X141046666Y-119335871D01*
X141049500Y-119362229D01*
X141049500Y-121073918D01*
X141049500Y-121073920D01*
X141049499Y-121073920D01*
X141078340Y-121218907D01*
X141078343Y-121218917D01*
X141134914Y-121355492D01*
X141157637Y-121389499D01*
X141157638Y-121389502D01*
X141217044Y-121478411D01*
X141217052Y-121478421D01*
X142921584Y-123182952D01*
X142921586Y-123182954D01*
X142951058Y-123202645D01*
X142995268Y-123232184D01*
X142995270Y-123232187D01*
X142995271Y-123232187D01*
X143044496Y-123265079D01*
X143044511Y-123265087D01*
X143101079Y-123288518D01*
X143101080Y-123288518D01*
X143181088Y-123321659D01*
X143297241Y-123344763D01*
X143316468Y-123348587D01*
X143326081Y-123350500D01*
X143326082Y-123350500D01*
X143326083Y-123350500D01*
X143473918Y-123350500D01*
X143552691Y-123350500D01*
X143619730Y-123370185D01*
X143640372Y-123386819D01*
X144253553Y-124000000D01*
X144247339Y-124000000D01*
X144145606Y-124027259D01*
X144054394Y-124079920D01*
X143979920Y-124154394D01*
X143927259Y-124245606D01*
X143900000Y-124347339D01*
X143900000Y-124353552D01*
X143220974Y-123674526D01*
X143220973Y-123674526D01*
X143169868Y-123747512D01*
X143169866Y-123747516D01*
X143073734Y-123953673D01*
X143073730Y-123953682D01*
X143014860Y-124173389D01*
X143014858Y-124173400D01*
X142995034Y-124399997D01*
X142995034Y-124400002D01*
X143014858Y-124626599D01*
X143014860Y-124626610D01*
X143073730Y-124846317D01*
X143073735Y-124846331D01*
X143169863Y-125052478D01*
X143220974Y-125125472D01*
X143900000Y-124446446D01*
X143900000Y-124452661D01*
X143927259Y-124554394D01*
X143979920Y-124645606D01*
X144054394Y-124720080D01*
X144145606Y-124772741D01*
X144247339Y-124800000D01*
X144253553Y-124800000D01*
X143574526Y-125479025D01*
X143647513Y-125530132D01*
X143647521Y-125530136D01*
X143853668Y-125626264D01*
X143853682Y-125626269D01*
X144073389Y-125685139D01*
X144073400Y-125685141D01*
X144299998Y-125704966D01*
X144300002Y-125704966D01*
X144526599Y-125685141D01*
X144526610Y-125685139D01*
X144746317Y-125626269D01*
X144746331Y-125626264D01*
X144952478Y-125530136D01*
X145025471Y-125479024D01*
X144346447Y-124800000D01*
X144352661Y-124800000D01*
X144454394Y-124772741D01*
X144545606Y-124720080D01*
X144620080Y-124645606D01*
X144672741Y-124554394D01*
X144700000Y-124452661D01*
X144700000Y-124446447D01*
X145379024Y-125125471D01*
X145430136Y-125052478D01*
X145526264Y-124846331D01*
X145526269Y-124846317D01*
X145585139Y-124626610D01*
X145585141Y-124626599D01*
X145604966Y-124400002D01*
X145604966Y-124399997D01*
X145585141Y-124173400D01*
X145585139Y-124173389D01*
X145526269Y-123953682D01*
X145526265Y-123953673D01*
X145430134Y-123747517D01*
X145299653Y-123561174D01*
X145296180Y-123557034D01*
X145297324Y-123556073D01*
X145267174Y-123500858D01*
X145272158Y-123431166D01*
X145314030Y-123375233D01*
X145379494Y-123350816D01*
X145388340Y-123350500D01*
X147137770Y-123350500D01*
X147204809Y-123370185D01*
X147225451Y-123386819D01*
X147973282Y-124134650D01*
X148006767Y-124195973D01*
X148009129Y-124233137D01*
X147994532Y-124399996D01*
X147994532Y-124400001D01*
X148014364Y-124626686D01*
X148014366Y-124626697D01*
X148073258Y-124846488D01*
X148073261Y-124846497D01*
X148169431Y-125052732D01*
X148169432Y-125052734D01*
X148299954Y-125239141D01*
X148460858Y-125400045D01*
X148507693Y-125432839D01*
X148647266Y-125530568D01*
X148647269Y-125530569D01*
X148651957Y-125533276D01*
X148650667Y-125535509D01*
X148695016Y-125574476D01*
X148714238Y-125641649D01*
X148694092Y-125708551D01*
X148677922Y-125728476D01*
X146593218Y-127813181D01*
X146531895Y-127846666D01*
X146505537Y-127849500D01*
X145426663Y-127849500D01*
X145359624Y-127829815D01*
X145325088Y-127796623D01*
X145300045Y-127760858D01*
X145139141Y-127599954D01*
X145070856Y-127552141D01*
X145027231Y-127497565D01*
X145023316Y-127486554D01*
X145021661Y-127481102D01*
X145021659Y-127481088D01*
X144969396Y-127354916D01*
X144965084Y-127344505D01*
X144901604Y-127249500D01*
X144882952Y-127221585D01*
X144882949Y-127221582D01*
X144882947Y-127221579D01*
X140737979Y-123076611D01*
X140704494Y-123015288D01*
X140702132Y-122978125D01*
X140705468Y-122940000D01*
X140685635Y-122713308D01*
X140626739Y-122493504D01*
X140530568Y-122287266D01*
X140400047Y-122100861D01*
X140400045Y-122100858D01*
X140239141Y-121939954D01*
X140052734Y-121809432D01*
X140052732Y-121809431D01*
X140041275Y-121804088D01*
X139994132Y-121782105D01*
X139941694Y-121735934D01*
X139922542Y-121668740D01*
X139942758Y-121601859D01*
X139994134Y-121557341D01*
X140052484Y-121530132D01*
X140238820Y-121399657D01*
X140399657Y-121238820D01*
X140530134Y-121052482D01*
X140626265Y-120846326D01*
X140626269Y-120846317D01*
X140678872Y-120650000D01*
X139715686Y-120650000D01*
X139720080Y-120645606D01*
X139772741Y-120554394D01*
X139800000Y-120452661D01*
X139800000Y-120347339D01*
X139772741Y-120245606D01*
X139720080Y-120154394D01*
X139715686Y-120150000D01*
X140678872Y-120150000D01*
X140678872Y-120149999D01*
X140626269Y-119953682D01*
X140626265Y-119953673D01*
X140530134Y-119747517D01*
X140399657Y-119561179D01*
X140238820Y-119400342D01*
X140052482Y-119269865D01*
X139846328Y-119173734D01*
X139650000Y-119121127D01*
X139650000Y-120084314D01*
X139645606Y-120079920D01*
X139554394Y-120027259D01*
X139452661Y-120000000D01*
X139347339Y-120000000D01*
X139245606Y-120027259D01*
X139154394Y-120079920D01*
X139150000Y-120084314D01*
X139150000Y-119121127D01*
X138953671Y-119173734D01*
X138747517Y-119269865D01*
X138561179Y-119400342D01*
X138400342Y-119561179D01*
X138269865Y-119747517D01*
X138173734Y-119953673D01*
X138173730Y-119953682D01*
X138121127Y-120149999D01*
X138121128Y-120150000D01*
X139084314Y-120150000D01*
X139079920Y-120154394D01*
X139027259Y-120245606D01*
X139000000Y-120347339D01*
X139000000Y-120452661D01*
X139027259Y-120554394D01*
X139079920Y-120645606D01*
X139084314Y-120650000D01*
X138121128Y-120650000D01*
X138173730Y-120846317D01*
X138173734Y-120846326D01*
X138269865Y-121052482D01*
X138400342Y-121238820D01*
X138561179Y-121399657D01*
X138747518Y-121530134D01*
X138747520Y-121530135D01*
X138805865Y-121557342D01*
X138858305Y-121603514D01*
X138877457Y-121670707D01*
X138857242Y-121737589D01*
X138805867Y-121782105D01*
X138747268Y-121809431D01*
X138747264Y-121809433D01*
X138560858Y-121939954D01*
X138399954Y-122100858D01*
X138269432Y-122287265D01*
X138269431Y-122287267D01*
X138173261Y-122493502D01*
X138173258Y-122493511D01*
X138114366Y-122713302D01*
X138114364Y-122713313D01*
X138094532Y-122939998D01*
X138094532Y-122940001D01*
X138114364Y-123166686D01*
X138114366Y-123166697D01*
X138173258Y-123386488D01*
X138173261Y-123386497D01*
X138269431Y-123592732D01*
X138269432Y-123592734D01*
X138399954Y-123779141D01*
X138560858Y-123940045D01*
X138607693Y-123972839D01*
X138747266Y-124070568D01*
X138805275Y-124097618D01*
X138857714Y-124143791D01*
X138876866Y-124210984D01*
X138856650Y-124277865D01*
X138805275Y-124322382D01*
X138747267Y-124349431D01*
X138747265Y-124349432D01*
X138560858Y-124479954D01*
X138399954Y-124640858D01*
X138269432Y-124827265D01*
X138269431Y-124827267D01*
X138173261Y-125033502D01*
X138173258Y-125033511D01*
X138114366Y-125253302D01*
X138114364Y-125253312D01*
X138096666Y-125455605D01*
X138071213Y-125520673D01*
X138014623Y-125561652D01*
X137944861Y-125565530D01*
X137885457Y-125532478D01*
X136151475Y-123798497D01*
X136151472Y-123798493D01*
X136151472Y-123798494D01*
X136144406Y-123791428D01*
X136144405Y-123791426D01*
X136048574Y-123695595D01*
X136048570Y-123695592D01*
X136048569Y-123695591D01*
X135964569Y-123639464D01*
X135964567Y-123639463D01*
X135935891Y-123620302D01*
X135928532Y-123617254D01*
X135810683Y-123568439D01*
X135810675Y-123568437D01*
X135677767Y-123542000D01*
X135677763Y-123542000D01*
X135677762Y-123542000D01*
X133126672Y-123542000D01*
X133059633Y-123522315D01*
X133013878Y-123469511D01*
X133003934Y-123400353D01*
X133006897Y-123385907D01*
X133029597Y-123301188D01*
X133065635Y-123166692D01*
X133085468Y-122940000D01*
X133077305Y-122846701D01*
X133091071Y-122778203D01*
X133113149Y-122748217D01*
X136974548Y-118886819D01*
X137035871Y-118853334D01*
X137062229Y-118850500D01*
X140537770Y-118850500D01*
X140604809Y-118870185D01*
G37*
%TD.AperFunction*%
%TD*%
M02*
